<svg width="155" height="401" viewBox="0 0 155 401" fill="none" xmlns="http://www.w3.org/2000/svg">
<path d="M6.9812 45.8687L76.3323 70.5778L78.6574 400.364L9.30688 375.74L6.9812 45.8687Z" fill="#857696"/>
<path d="M14.8259 48.4983L76.188 69.9889L76.7373 147.91L14.8259 48.4983Z" fill="#7AB9B5"/>
<path d="M7.36304 67.6863L77.2725 194.06L77.4558 220.054L43.5231 201.288L7.36304 67.6863Z" fill="#7AB9B5"/>
<path d="M7.40771 106.391L30.5412 220.747L79.7052 240.041L23.2109 243.726L8.58571 273.477L7.40771 106.391Z" fill="#7AB9B5"/>
<path d="M27.7243 254.916L77.2051 256.809L77.4343 289.322L36.4881 280.699L9.10567 347.239L8.72341 293.02L27.7243 254.916Z" fill="#7AB9B5"/>
<path d="M77.9193 334.464L78.3806 399.894L27.0668 380.941L77.9193 334.464Z" fill="#7AB9B5"/>
<path d="M17.7009 358.322L43.0569 298.184L74.6562 307.481L74.7507 320.88L30.3775 360.721L17.7009 358.322Z" fill="#7AB9B5"/>
<path d="M141.95 45.0725L76.3321 70.5758L78.6572 400.362L144.276 374.944L141.95 45.0725Z" fill="#AE96C7"/>
<path d="M7.03394 45.875L76.0288 26.4861L141.802 45.1929L76.3423 70.9512L7.03394 45.875Z" fill="#86C2CE"/>
<path fill-rule="evenodd" clip-rule="evenodd" d="M86.4707 80.9358L88.6587 80.9229L89.053 136.846L86.865 136.858L86.4707 80.9358Z" fill="#A6EDFC"/>
<path fill-rule="evenodd" clip-rule="evenodd" d="M108.075 73.106L110.263 73.0931L110.657 129.016L108.469 129.029L108.075 73.106Z" fill="#A6EDFC"/>
<path fill-rule="evenodd" clip-rule="evenodd" d="M119.001 68.4175L121.189 68.4046L121.583 124.327L119.395 124.34L119.001 68.4175Z" fill="#A6EDFC"/>
<path fill-rule="evenodd" clip-rule="evenodd" d="M129.599 64.2251L131.787 64.2122L132.181 120.135L129.993 120.148L129.599 64.2251Z" fill="#A6EDFC"/>
<path fill-rule="evenodd" clip-rule="evenodd" d="M97.4219 77.4192L99.6099 77.4063L100.004 133.329L97.8161 133.342L97.4219 77.4192Z" fill="#A6EDFC"/>
<path fill-rule="evenodd" clip-rule="evenodd" d="M87.8403 210.488L90.0283 210.475L90.4226 266.397L88.2346 266.41L87.8403 210.488Z" fill="#A6EDFC"/>
<path fill-rule="evenodd" clip-rule="evenodd" d="M109.443 202.657L111.631 202.644L112.025 258.567L109.837 258.58L109.443 202.657Z" fill="#A6EDFC"/>
<path fill-rule="evenodd" clip-rule="evenodd" d="M120.371 197.968L122.559 197.955L122.953 253.877L120.765 253.89L120.371 197.968Z" fill="#A6EDFC"/>
<path fill-rule="evenodd" clip-rule="evenodd" d="M130.968 193.777L133.156 193.764L133.55 249.687L131.362 249.7L130.968 193.777Z" fill="#A6EDFC"/>
<path fill-rule="evenodd" clip-rule="evenodd" d="M98.7927 206.97L100.981 206.958L101.375 262.88L99.187 262.893L98.7927 206.97Z" fill="#A6EDFC"/>
<path fill-rule="evenodd" clip-rule="evenodd" d="M89.6863 334.927L91.8743 334.915L92.2193 383.855L90.0313 383.868L89.6863 334.927Z" fill="#A6EDFC"/>
<path fill-rule="evenodd" clip-rule="evenodd" d="M111.299 328.057L113.487 328.044L113.832 376.985L111.644 376.998L111.299 328.057Z" fill="#A6EDFC"/>
<path fill-rule="evenodd" clip-rule="evenodd" d="M122.229 323.948L124.416 323.935L124.762 372.875L122.574 372.888L122.229 323.948Z" fill="#A6EDFC"/>
<path fill-rule="evenodd" clip-rule="evenodd" d="M132.829 320.271L135.017 320.258L135.362 369.198L133.174 369.211L132.829 320.271Z" fill="#A6EDFC"/>
<path fill-rule="evenodd" clip-rule="evenodd" d="M100.643 331.84L102.831 331.827L103.176 380.768L100.988 380.781L100.643 331.84Z" fill="#A6EDFC"/>
<path fill-rule="evenodd" clip-rule="evenodd" d="M137.761 129.431L138.528 131.643L88.3834 147.689L87.6164 145.477L137.761 129.431Z" fill="#A6EDFC"/>
<path fill-rule="evenodd" clip-rule="evenodd" d="M112.378 146.866L137.874 138.354L138.642 140.566L113.115 149.089L87.9717 156.585L87.2673 154.353L112.378 146.866Z" fill="#A6EDFC"/>
<path fill-rule="evenodd" clip-rule="evenodd" d="M112.071 167.127L137.887 159.16L138.611 161.386L112.781 169.358L87.6525 176.846L86.9479 174.614L112.071 167.127Z" fill="#A6EDFC"/>
<path fill-rule="evenodd" clip-rule="evenodd" d="M112.166 177.875L137.985 169.806L138.716 172.03L112.877 180.105L87.7491 187.592L87.0444 185.36L112.166 177.875Z" fill="#A6EDFC"/>
<path fill-rule="evenodd" clip-rule="evenodd" d="M112.808 189.607L138.627 181.538L139.358 183.762L113.52 191.837L88.3914 199.324L87.6868 197.092L112.808 189.607Z" fill="#A6EDFC"/>
<path fill-rule="evenodd" clip-rule="evenodd" d="M138.242 148.703L138.954 150.933L88.1113 166.242L87.3994 164.012L138.242 148.703Z" fill="#A6EDFC"/>
<path fill-rule="evenodd" clip-rule="evenodd" d="M138.124 255.781L138.891 257.993L88.7458 274.036L87.9787 271.824L138.124 255.781Z" fill="#A6EDFC"/>
<path fill-rule="evenodd" clip-rule="evenodd" d="M112.745 273.222L138.241 264.712L139.01 266.924L113.482 275.445L88.338 282.939L87.6335 280.707L112.745 273.222Z" fill="#A6EDFC"/>
<path fill-rule="evenodd" clip-rule="evenodd" d="M112.435 293.486L138.25 285.517L138.974 287.743L113.144 295.717L88.0165 303.206L87.312 300.974L112.435 293.486Z" fill="#A6EDFC"/>
<path fill-rule="evenodd" clip-rule="evenodd" d="M112.528 304.232L138.347 296.164L139.077 298.388L113.239 306.462L88.1107 313.95L87.406 311.718L112.528 304.232Z" fill="#A6EDFC"/>
<path fill-rule="evenodd" clip-rule="evenodd" d="M113.171 315.965L138.99 307.896L139.721 310.12L113.883 318.195L88.7545 325.682L88.0498 323.45L113.171 315.965Z" fill="#A6EDFC"/>
<path fill-rule="evenodd" clip-rule="evenodd" d="M138.61 275.059L139.322 277.288L88.479 292.595L87.767 290.366L138.61 275.059Z" fill="#A6EDFC"/>
<g filter="url(#filter0_f_777_2855)">
<path d="M71.7483 394.458C71.7483 394.458 70.3567 402.361 68.0645 377.528M35.1885 283.621C36.6866 301.385 19.7183 318.355 48.5132 332.781C61.1371 339.105 66.275 358.141 68.0645 377.528M35.1885 283.621C33.5805 264.555 64.5283 250.082 63.636 235.306C62.9468 223.895 53.2436 216.323 50.994 201.691M35.1885 283.621C35.1885 283.621 28.9148 238.267 29.2521 223.918C29.335 220.393 27.0382 217.576 26.0817 214.221M59.2685 140.487C59.2685 140.487 51.5013 150.324 46.6556 162.662M26.0587 170.134C21.0437 174.085 23.7294 185.061 21.4203 188.435M68.0645 377.528C68.0645 377.528 42.9282 375.502 40.4922 361.989C38.0563 348.477 27.1387 343.768 27.1387 343.768M50.994 201.691C50.3309 197.377 59.0406 193.51 57.2825 185.399C55.5243 177.288 45.3737 165.927 46.6556 162.662M50.994 201.691C50.994 201.691 36.1303 162.595 20.2752 148.926C4.42007 135.257 15.8473 110.967 15.8473 110.967M29.2188 159.889C29.2188 159.889 32.7145 156.017 34.8984 150.459M36.0122 137.436C37.2667 142.098 36.3875 146.67 34.8984 150.459M34.8984 150.459C34.8984 150.459 48.4147 143.81 57.2523 127.463M46.6556 162.662C46.6556 162.662 48.4295 172.096 57.2734 167.934M31.2508 251.642C31.2508 251.642 49.8526 223.102 46.6795 208.401M26.0817 214.221C26.0817 214.221 31.9975 198.698 35.1395 189.555M26.0817 214.221C23.9069 206.593 14.8333 198.06 21.4203 188.435M21.4203 188.435C21.4203 188.435 27.4363 188.438 34.9121 176.794" stroke="#655E4C" stroke-width="2"/>
</g>
<g filter="url(#filter1_f_777_2855)">
<path d="M62.4539 122.442C60.2599 123.92 57.9708 128.572 57.9708 128.572C57.9708 128.572 62.1241 129.457 64.554 128.681C66.9839 127.905 66.8406 120.817 66.8406 120.817C66.8406 120.817 64.6479 120.965 62.4539 122.442Z" fill="#6D9786" stroke="#6D9786" stroke-width="2"/>
<path d="M17.368 117.217C15.174 118.694 12.8848 123.346 12.8848 123.346C12.8848 123.346 17.0381 124.231 19.4681 123.455C21.898 122.679 21.7547 115.591 21.7547 115.591C21.7547 115.591 19.562 115.739 17.368 117.217Z" fill="#6D9786" stroke="#6D9786" stroke-width="2"/>
<path d="M59.9512 108.17C57.7572 109.648 55.4681 114.3 55.4681 114.3C55.4681 114.3 59.6214 115.185 62.0513 114.409C64.4812 113.633 64.338 106.545 64.338 106.545C64.338 106.545 62.1452 106.693 59.9512 108.17Z" fill="#6D9786" stroke="#6D9786" stroke-width="2"/>
<path d="M18.7435 88.3277C16.5495 89.8048 14.2603 94.4573 14.2603 94.4573C14.2603 94.4573 18.4136 95.3425 20.8436 94.5662C23.2735 93.79 23.1302 86.7021 23.1302 86.7021C23.1302 86.7021 20.9374 86.8505 18.7435 88.3277Z" fill="#6D9786" stroke="#6D9786" stroke-width="2"/>
<path d="M45.7077 137.486C46.8551 139.658 51.6016 142.692 51.6016 142.692C51.6016 142.692 53.6292 139.49 53.3391 137.297C53.049 135.104 44.9282 133.472 44.9282 133.472C44.9282 133.472 44.5602 135.314 45.7077 137.486Z" fill="#6D9786" stroke="#6D9786" stroke-width="2"/>
<path d="M33.2287 120.097C34.3761 122.269 39.1226 125.303 39.1226 125.303C39.1226 125.303 41.1502 122.101 40.8601 119.908C40.57 117.715 32.4492 116.083 32.4492 116.083C32.4492 116.083 32.0812 117.925 33.2287 120.097Z" fill="#6D9786" stroke="#6D9786" stroke-width="2"/>
<path d="M4.80703 103.882C5.95451 106.054 10.701 109.088 10.701 109.088C10.701 109.088 12.7286 105.886 12.4385 103.693C12.1484 101.5 4.02757 99.8678 4.02757 99.8678C4.02757 99.8678 3.65955 101.71 4.80703 103.882Z" fill="#6D9786" stroke="#6D9786" stroke-width="2"/>
<path d="M11.2244 134.134C13.82 135.03 19.7149 134.435 19.7149 134.435C19.7149 134.435 18.5723 130.929 16.5782 129.514C14.5841 128.099 7.3949 131.69 7.3949 131.69C7.3949 131.69 8.62886 133.238 11.2244 134.134Z" fill="#6D9786" stroke="#6D9786" stroke-width="2"/>
<path d="M20.3329 153.406C21.4804 155.578 26.2269 158.612 26.2269 158.612C26.2269 158.612 28.2545 155.41 27.9644 153.217C27.6743 151.024 19.5534 149.392 19.5534 149.392C19.5534 149.392 19.1854 151.234 20.3329 153.406Z" fill="#6D9786" stroke="#6D9786" stroke-width="2"/>
<path d="M64.3262 151.015C61.5848 151.5 57.0837 154.785 57.0837 154.785C57.0837 154.785 60.3317 157.158 62.9145 157.389C65.4973 157.621 69.1071 151.233 69.1071 151.233C69.1071 151.233 67.0676 150.531 64.3262 151.015Z" fill="#6D9786" stroke="#6D9786" stroke-width="2"/>
<path d="M24.398 189.128C25.3695 191.361 29.8631 194.661 29.8631 194.661C29.8631 194.661 32.1418 191.584 32.0274 189.38C31.913 187.175 23.9407 185.079 23.9407 185.079C23.9407 185.079 23.4264 186.895 24.398 189.128Z" fill="#6D9786" stroke="#6D9786" stroke-width="2"/>
<path d="M62.7954 182.237C60.054 182.722 55.5529 186.007 55.5529 186.007C55.5529 186.007 58.8009 188.38 61.3837 188.611C63.9665 188.843 67.5763 182.455 67.5763 182.455C67.5763 182.455 65.5368 181.752 62.7954 182.237Z" fill="#6D9786" stroke="#6D9786" stroke-width="2"/>
<path d="M64.5261 202.509C62.159 203.779 59.2987 208.197 59.2987 208.197C59.2987 208.197 63.3177 209.454 65.8315 208.902C68.3452 208.35 69.0922 201.291 69.0922 201.291C69.0922 201.291 66.8931 201.239 64.5261 202.509Z" fill="#6D9786" stroke="#6D9786" stroke-width="2"/>
<path d="M67.7488 238.704C65.0074 239.188 60.5063 242.474 60.5063 242.474C60.5063 242.474 63.7543 244.846 66.3371 245.078C68.9199 245.309 72.5297 238.921 72.5297 238.921C72.5297 238.921 70.4902 238.219 67.7488 238.704Z" fill="#6D9786" stroke="#6D9786" stroke-width="2"/>
<path d="M46.0427 264.658C43.3013 265.143 38.8002 268.428 38.8002 268.428C38.8002 268.428 42.0482 270.801 44.631 271.032C47.2138 271.263 50.8236 264.876 50.8236 264.876C50.8236 264.876 48.7841 264.173 46.0427 264.658Z" fill="#6D9786" stroke="#6D9786" stroke-width="2"/>
<path d="M39.938 304.087C37.1966 304.571 32.6955 307.857 32.6955 307.857C32.6955 307.857 35.9435 310.229 38.5263 310.461C41.1091 310.692 44.7189 304.304 44.7189 304.304C44.7189 304.304 42.6794 303.602 39.938 304.087Z" fill="#6D9786" stroke="#6D9786" stroke-width="2"/>
<path d="M64.5901 338.944C62.7695 340.751 61.5701 345.69 61.5701 345.69C61.5701 345.69 65.8453 345.884 68.0552 344.727C70.2651 343.571 68.5292 336.635 68.5292 336.635C68.5292 336.635 66.4107 337.137 64.5901 338.944Z" fill="#6D9786" stroke="#6D9786" stroke-width="2"/>
<path d="M24.5159 339.075C24.4782 341.454 27.2767 345.906 27.2767 345.906C27.2767 345.906 30.7058 343.731 31.5317 341.64C32.3575 339.549 25.8023 335.158 25.8023 335.158C25.8023 335.158 24.5535 336.696 24.5159 339.075Z" fill="#6D9786" stroke="#6D9786" stroke-width="2"/>
<path d="M28.3444 285.934C30.0955 287.793 35.5843 289.72 35.5843 289.72C35.5843 289.72 36.6024 286.188 35.6748 284.126C34.7472 282.065 26.4061 282.213 26.4061 282.213C26.4061 282.213 26.5933 284.075 28.3444 285.934Z" fill="#6D9786" stroke="#6D9786" stroke-width="2"/>
<path d="M44.7368 336.815C47.5335 336.691 52.5728 334.028 52.5728 334.028C52.5728 334.028 49.7885 331.263 47.2772 330.699C44.7658 330.136 40.0503 335.98 40.0503 335.98C40.0503 335.98 41.9401 336.938 44.7368 336.815Z" fill="#6D9786" stroke="#6D9786" stroke-width="2"/>
<path d="M37.6836 371.012C40.4803 370.888 45.5196 368.225 45.5196 368.225C45.5196 368.225 42.7353 365.46 40.224 364.896C37.7126 364.333 32.997 370.177 32.997 370.177C32.997 370.177 34.8868 371.135 37.6836 371.012Z" fill="#6D9786" stroke="#6D9786" stroke-width="2"/>
<path d="M60.7379 368.503C63.0031 369.905 68.8942 370.536 68.8942 370.536C68.8942 370.536 68.7805 366.899 67.2466 365.118C65.7126 363.336 57.7145 365.347 57.7145 365.347C57.7145 365.347 58.4727 367.102 60.7379 368.503Z" fill="#6D9786" stroke="#6D9786" stroke-width="2"/>
<path d="M48.9315 169.449C51.4764 170.444 57.3973 170.078 57.3973 170.078C57.3973 170.078 56.444 166.531 54.5279 165.041C52.6117 163.55 45.2369 166.858 45.2369 166.858C45.2369 166.858 46.3865 168.453 48.9315 169.449Z" fill="#6D9786" stroke="#6D9786" stroke-width="2"/>
<path d="M37.9903 165.624C39.2085 163.482 38.8865 158.445 38.8865 158.445C38.8865 158.445 34.6954 159.183 32.906 160.78C31.1165 162.378 34.8747 168.71 34.8747 168.71C34.8747 168.71 36.7721 167.766 37.9903 165.624Z" fill="#6D9786" stroke="#6D9786" stroke-width="2"/>
<path d="M36.8259 175.14C34.9343 176.893 33.5388 181.795 33.5388 181.795C33.5388 181.795 37.8039 182.112 40.0587 181.02C42.3135 179.927 40.8548 172.946 40.8548 172.946C40.8548 172.946 38.7175 173.387 36.8259 175.14Z" fill="#6D9786" stroke="#6D9786" stroke-width="2"/>
<path d="M47.6638 196.229C45.7722 197.982 44.3767 202.884 44.3767 202.884C44.3767 202.884 48.6418 203.201 50.8966 202.109C53.1514 201.016 51.6927 194.035 51.6927 194.035C51.6927 194.035 49.5554 194.476 47.6638 196.229Z" fill="#6D9786" stroke="#6D9786" stroke-width="2"/>
<path d="M44.6507 191.898C47.1956 192.894 53.1166 192.528 53.1166 192.528C53.1166 192.528 52.1633 188.981 50.2471 187.49C48.331 185.999 40.9562 189.308 40.9562 189.308C40.9562 189.308 42.1058 190.902 44.6507 191.898Z" fill="#6D9786" stroke="#6D9786" stroke-width="2"/>
<path d="M57.36 227.192C59.6364 228.58 65.5325 229.176 65.5325 229.176C65.5325 229.176 65.3895 225.541 63.8413 223.768C62.293 221.996 54.3113 224.053 54.3113 224.053C54.3113 224.053 55.0836 225.803 57.36 227.192Z" fill="#6D9786" stroke="#6D9786" stroke-width="2"/>
<path d="M43.5489 248.342C45.5032 250.048 51.1852 251.516 51.1852 251.516C51.1852 251.516 51.7963 247.916 50.6384 245.94C49.4806 243.964 41.1963 244.798 41.1963 244.798C41.1963 244.798 41.5946 246.636 43.5489 248.342Z" fill="#6D9786" stroke="#6D9786" stroke-width="2"/>
</g>
<defs>
<filter id="filter0_f_777_2855" x="8.8645" y="108.542" width="65.8687" height="290.112" filterUnits="userSpaceOnUse" color-interpolation-filters="sRGB">
<feFlood flood-opacity="0" result="BackgroundImageFix"/>
<feBlend mode="normal" in="SourceGraphic" in2="BackgroundImageFix" result="shape"/>
<feGaussianBlur stdDeviation="1" result="effect1_foregroundBlur_777_2855"/>
</filter>
<filter id="filter1_f_777_2855" x="0.971191" y="83.6501" width="75.0073" height="290.34" filterUnits="userSpaceOnUse" color-interpolation-filters="sRGB">
<feFlood flood-opacity="0" result="BackgroundImageFix"/>
<feBlend mode="normal" in="SourceGraphic" in2="BackgroundImageFix" result="shape"/>
<feGaussianBlur stdDeviation="1" result="effect1_foregroundBlur_777_2855"/>
</filter>
</defs>
</svg>
