<svg width="130" height="345" viewBox="0 0 130 345" fill="none" xmlns="http://www.w3.org/2000/svg">
<path d="M7.64185 263.494L71.1831 271.16L71.6974 344.107L8.09489 327.753L7.64185 263.494Z" fill="url(#paint0_linear_777_2618)"/>
<path d="M12.9802 270.32L66.021 279.275L64.1154 335.634L13.3569 323.751L12.9802 270.32Z" fill="#64A1B4"/>
<path d="M122.735 261.014L71.1853 271.17L71.6995 344.107L123.212 328.685L122.735 261.014Z" fill="url(#paint1_linear_777_2618)"/>
<path d="M7.70215 263.51L71.0616 250.922L123.417 261.007L71.2045 271.189L7.70215 263.51Z" fill="#9D7DBD"/>
<path d="M120.173 270.007L78.5347 279.749L78.9257 335.2L120.551 323.617L120.173 270.007Z" fill="#8AC5D8"/>
<path d="M3.53394 184.326L67.0752 191.992L67.5895 264.938L3.98698 248.585L3.53394 184.326Z" fill="url(#paint2_linear_777_2618)"/>
<path d="M8.87134 191.148L61.9121 200.103L60.0065 256.461L9.24804 244.579L8.87134 191.148Z" fill="#64A1B4"/>
<path d="M118.626 181.844L67.0769 192L67.5911 264.937L119.104 249.515L118.626 181.844Z" fill="url(#paint3_linear_777_2618)"/>
<path d="M3.59546 184.341L66.9549 171.753L119.311 181.838L67.0978 192.02L3.59546 184.341Z" fill="#9D7DBD"/>
<path d="M116.064 190.838L74.4263 200.58L74.8173 256.031L116.442 244.448L116.064 190.838Z" fill="#8AC5D8"/>
<path d="M1.2312 103.951L64.7725 111.617L65.2868 184.563L1.68425 168.21L1.2312 103.951Z" fill="url(#paint4_linear_777_2618)"/>
<path d="M6.56934 110.773L59.6101 119.728L57.7045 176.086L6.94604 164.204L6.56934 110.773Z" fill="#64A1B4"/>
<path d="M116.326 101.47L64.7763 111.626L65.2905 184.563L116.803 169.141L116.326 101.47Z" fill="url(#paint5_linear_777_2618)"/>
<path d="M1.29224 103.967L64.6517 91.3786L117.008 101.464L64.7946 111.646L1.29224 103.967Z" fill="#9D7DBD"/>
<path d="M113.762 110.463L72.1241 120.206L72.515 175.656L114.14 164.073L113.762 110.463Z" fill="#8AC5D8"/>
<path d="M0.656006 22.9731L64.1973 30.6395L64.7116 103.586L1.10905 87.2325L0.656006 22.9731Z" fill="url(#paint6_linear_777_2618)"/>
<path d="M5.99463 29.7913L59.0354 38.7461L57.1298 95.1048L6.37133 83.2221L5.99463 29.7913Z" fill="#64A1B4"/>
<path d="M115.749 20.4917L64.1989 30.6475L64.7132 103.584L116.226 88.1622L115.749 20.4917Z" fill="url(#paint7_linear_777_2618)"/>
<path d="M0.71582 22.989L64.0753 10.4003L116.431 20.4854L64.2182 30.6673L0.71582 22.989Z" fill="#9D7DBD"/>
<path d="M113.188 29.4822L71.5501 39.2245L71.7456 66.9498L71.941 94.6751L113.566 83.0919L113.188 29.4822Z" fill="#8AC5D8"/>
<path d="M118.64 41.469L89.8517 47.5207L89.6151 83.4503L118.412 76.2058L118.64 41.469Z" fill="url(#paint8_linear_777_2618)"/>
<path d="M89.9314 47.4385L79.0244 45.9254L79.4457 81.5432L89.7788 83.3297L89.9314 47.4385Z" fill="#9178A9"/>
<path d="M118.65 41.6204L108.143 39.5174L79.103 46.0496L89.9532 47.6186L118.65 41.6204Z" fill="#9B83B3"/>
<path d="M123.224 202.07L94.4349 208.122L94.1983 244.051L122.995 236.807L123.224 202.07Z" fill="url(#paint9_linear_777_2618)"/>
<path d="M94.5146 208.041L83.6077 206.528L84.0289 242.146L94.3621 243.932L94.5146 208.041Z" fill="#9178A9"/>
<path d="M123.233 202.226L112.727 200.123L83.6865 206.655L94.5366 208.224L123.233 202.226Z" fill="#9B83B3"/>
<path d="M0.863281 121.585L36.6626 128.194L37.5638 169.844L1.73455 161.852L0.863281 121.585Z" fill="url(#paint10_linear_777_2618)"/>
<path d="M36.5599 128.102L50.0585 126.194L50.1387 167.491L37.3561 169.708L36.5599 128.102Z" fill="#7E6893"/>
<path d="M0.853271 121.767L13.8456 119.18L49.9646 126.343L36.5374 128.315L0.853271 121.767Z" fill="#8C76A2"/>
<path d="M5.79858 280.152L41.5979 286.761L42.4991 328.411L6.66985 320.419L5.79858 280.152Z" fill="url(#paint11_linear_777_2618)"/>
<path d="M41.4959 286.667L54.9945 284.759L55.0747 326.056L42.2922 328.273L41.4959 286.667Z" fill="#7E6893"/>
<path d="M5.78833 280.329L18.7806 277.743L54.8997 284.906L41.4725 286.878L5.78833 280.329Z" fill="#8C76A2"/>
<path d="M0.937983 39.5749L34.8337 44.9895L35.1124 84.5215L1.20307 77.1973L0.937983 39.5749Z" fill="url(#paint12_linear_777_2618)"/>
<path d="M34.835 44.9879L47.1658 41.7345L47.4472 81.6401L35.1142 84.7537L34.835 44.9879Z" fill="#7E6893"/>
<path d="M0.473877 39.3433L10.6257 36.9443L47.1547 41.7649L34.5807 45.2247L0.473877 39.3433Z" fill="#8C76A2"/>
<path d="M4.41846 199.061L40.6617 205.677L41.6104 247.265L5.33572 239.268L4.41846 199.061Z" fill="url(#paint13_linear_777_2618)"/>
<path d="M40.5395 205.662L51.2986 203.806L51.5888 244.969L41.4027 247.134L40.5395 205.662Z" fill="#7E6893"/>
<path d="M4.43286 199.255L11.8932 197.598L51.29 203.832L40.5936 205.747L4.43286 199.255Z" fill="#8C76A2"/>
<path d="M121.724 118.614L87.7417 126.136L87.4397 170.731L121.432 161.729L121.724 118.614Z" fill="url(#paint14_linear_777_2618)"/>
<path d="M87.8542 126.119L77.712 124.258L78.0232 168.389L87.6311 170.59L87.8542 126.119Z" fill="#9178A9"/>
<path d="M121.715 118.827L114.677 117.139L77.7243 124.289L87.8084 126.215L121.715 118.827Z" fill="#9B83B3"/>
<path d="M129.255 276.446L95.2724 283.968L94.9704 328.564L128.963 319.561L129.255 276.446Z" fill="url(#paint15_linear_777_2618)"/>
<path d="M95.3857 283.952L85.2435 282.09L85.5547 326.222L95.1625 328.423L95.3857 283.952Z" fill="#9178A9"/>
<path d="M129.244 276.66L122.207 274.972L85.2536 282.122L95.3377 284.048L129.244 276.66Z" fill="#9B83B3"/>
<path d="M64.4116 103.324L27.4395 93.9067L27.5074 103.541C27.5074 103.541 55.7107 109.346 65.2269 109.625C74.7432 109.905 95.9865 101.538 95.9865 101.538L95.6134 94.2884L64.4116 103.324Z" fill="url(#paint16_linear_777_2618)"/>
<path d="M65.1628 183.808L28.1907 174.391L28.2586 184.025C28.2586 184.025 56.4619 189.83 65.9781 190.109C75.4944 190.389 96.7377 182.022 96.7377 182.022L96.3646 174.773L65.1628 183.808Z" fill="url(#paint17_linear_777_2618)"/>
<path d="M67.4895 264.797L30.5173 255.38L30.574 263.414C30.574 263.414 58.0056 269.111 67.5219 269.391C77.0381 269.67 98.734 261.826 98.734 261.826L98.6899 255.563L67.4895 264.797Z" fill="url(#paint18_linear_777_2618)"/>
<path d="M41.7827 107.784L24.9337 104.124L24.5184 101.967L27.4411 101.287L27.4457 101.95C57.3194 111.157 72.5256 111.71 95.8569 101.375L95.8407 99.0783L98.6173 99.8276L98.2312 101.817L86.843 105.919L72.2208 109.454L64.0091 110.131L41.7827 107.784Z" fill="#292231"/>
<path d="M44.868 267.217L28.1277 264.208L27.7175 262.426L30.6229 261.861L30.8921 262.87C60.6513 269.29 74.1493 269.091 98.285 261.828L98.6013 259.968L101.36 260.585L100.974 262.23L90.3325 266.047L75.8473 268.257L67.9034 269.543L56.0508 268.681L44.868 267.217Z" fill="#292231"/>
<path d="M42.7872 187.934L25.2385 184.691L25.4353 182.155L28.3589 181.546L28.6963 183.793C58.4594 190.758 73.4442 191.233 96.7862 181.988L96.7688 179.53L99.5452 180.197L99.1576 181.974L88.2393 186.29L74.2574 189.289L67.0152 190.45L42.7872 187.934Z" fill="#292231"/>
<defs>
<linearGradient id="paint0_linear_777_2618" x1="36.6792" y1="265.808" x2="34.1342" y2="344.913" gradientUnits="userSpaceOnUse">
<stop offset="0.325295" stop-color="#7E5BA4"/>
<stop offset="0.759357" stop-color="#77506D"/>
</linearGradient>
<linearGradient id="paint1_linear_777_2618" x1="103.925" y1="265.423" x2="111.057" y2="335.435" gradientUnits="userSpaceOnUse">
<stop offset="0.240998" stop-color="#926ABE"/>
<stop offset="0.874199" stop-color="#935F85"/>
</linearGradient>
<linearGradient id="paint2_linear_777_2618" x1="32.5713" y1="186.639" x2="30.0263" y2="265.745" gradientUnits="userSpaceOnUse">
<stop offset="0.325295" stop-color="#7E5BA4"/>
<stop offset="0.759357" stop-color="#77506D"/>
</linearGradient>
<linearGradient id="paint3_linear_777_2618" x1="99.8169" y1="186.253" x2="106.948" y2="256.265" gradientUnits="userSpaceOnUse">
<stop offset="0.240998" stop-color="#926ABE"/>
<stop offset="0.874199" stop-color="#935F85"/>
</linearGradient>
<linearGradient id="paint4_linear_777_2618" x1="30.2686" y1="106.264" x2="27.7235" y2="185.37" gradientUnits="userSpaceOnUse">
<stop offset="0.325295" stop-color="#7E5BA4"/>
<stop offset="0.759357" stop-color="#77506D"/>
</linearGradient>
<linearGradient id="paint5_linear_777_2618" x1="97.5163" y1="105.878" x2="104.648" y2="175.891" gradientUnits="userSpaceOnUse">
<stop offset="0.240998" stop-color="#926ABE"/>
<stop offset="0.874199" stop-color="#935F85"/>
</linearGradient>
<linearGradient id="paint6_linear_777_2618" x1="29.6934" y1="25.2868" x2="27.1483" y2="104.393" gradientUnits="userSpaceOnUse">
<stop offset="0.325295" stop-color="#7E5BA4"/>
<stop offset="0.759357" stop-color="#77506D"/>
</linearGradient>
<linearGradient id="paint7_linear_777_2618" x1="96.9389" y1="24.8999" x2="104.071" y2="94.9121" gradientUnits="userSpaceOnUse">
<stop offset="0.240998" stop-color="#926ABE"/>
<stop offset="0.874199" stop-color="#935F85"/>
</linearGradient>
<linearGradient id="paint8_linear_777_2618" x1="103.989" y1="83.5013" x2="104.138" y2="41.4176" gradientUnits="userSpaceOnUse">
<stop offset="0.14" stop-color="#7FBEBB"/>
</linearGradient>
<linearGradient id="paint9_linear_777_2618" x1="108.572" y1="244.102" x2="108.722" y2="202.018" gradientUnits="userSpaceOnUse">
<stop offset="0.14" stop-color="#7FBEBB"/>
</linearGradient>
<linearGradient id="paint10_linear_777_2618" x1="19.7413" y1="170.106" x2="19.024" y2="121.318" gradientUnits="userSpaceOnUse">
<stop offset="0.105" stop-color="#84BCB9"/>
</linearGradient>
<linearGradient id="paint11_linear_777_2618" x1="24.6766" y1="328.673" x2="23.9593" y2="279.885" gradientUnits="userSpaceOnUse">
<stop offset="0.105" stop-color="#84BCB9"/>
</linearGradient>
<linearGradient id="paint12_linear_777_2618" x1="18.5582" y1="84.754" x2="17.9203" y2="39.3364" gradientUnits="userSpaceOnUse">
<stop offset="0.105" stop-color="#84BCB9"/>
</linearGradient>
<linearGradient id="paint13_linear_777_2618" x1="23.5701" y1="247.518" x2="22.8859" y2="198.801" gradientUnits="userSpaceOnUse">
<stop offset="0.105" stop-color="#84BCB9"/>
</linearGradient>
<linearGradient id="paint14_linear_777_2618" x1="104.405" y1="170.789" x2="104.584" y2="118.555" gradientUnits="userSpaceOnUse">
<stop offset="0.14" stop-color="#7FBEBB"/>
</linearGradient>
<linearGradient id="paint15_linear_777_2618" x1="111.936" y1="328.622" x2="112.114" y2="276.387" gradientUnits="userSpaceOnUse">
<stop offset="0.14" stop-color="#7FBEBB"/>
</linearGradient>
<linearGradient id="paint16_linear_777_2618" x1="37.1099" y1="102.217" x2="95.9884" y2="101.802" gradientUnits="userSpaceOnUse">
<stop offset="0.695041" stop-color="#8A7D98"/>
<stop offset="0.908914" stop-color="#6C5A7D"/>
</linearGradient>
<linearGradient id="paint17_linear_777_2618" x1="37.8611" y1="182.701" x2="96.7396" y2="182.286" gradientUnits="userSpaceOnUse">
<stop offset="0.695041" stop-color="#8A7D98"/>
<stop offset="0.908914" stop-color="#6C5A7D"/>
</linearGradient>
<linearGradient id="paint18_linear_777_2618" x1="40.1878" y1="263.69" x2="99.0662" y2="263.274" gradientUnits="userSpaceOnUse">
<stop offset="0.695041" stop-color="#8A7D98"/>
<stop offset="0.908914" stop-color="#6C5A7D"/>
</linearGradient>
</defs>
</svg>
