<svg width="1512" height="534" viewBox="0 0 1512 534" fill="none" xmlns="http://www.w3.org/2000/svg">
<g filter="url(#filter0_f_1168_4363)">
<path d="M609.403 168L393 122.274C393 122.274 777.453 153.834 1044.48 96.4168C1311.5 39 1508 39 1508 39V89.1873L1358.07 128.222L1196.64 161.308L1099.68 168H853.766H609.403Z" fill="#5B8C86"/>
</g>
<path d="M1076.99 96.1592L962 121C962 101.766 994.899 61.8903 1040.32 71.9464C1043.61 67.8134 1053.34 60.4259 1065.94 63.9406C1063.6 41.7412 1104.88 27.0723 1124.02 52.1272C1130.04 45.2924 1147.46 47.8751 1150.32 61.8903C1191.32 52.1272 1201 92.6077 1201 92.6077L1076.99 96.1592Z" fill="#5B8C86"/>
<path d="M893.714 134.217L975 138.602C975 123.187 941.807 106.751 923.474 114.811C920.803 111.498 912.903 105.578 902.682 108.395C879.447 73.9161 827.875 97.7203 831.016 119.455C789.881 127.514 793.057 143 793.057 143L893.714 134.217Z" fill="#5B8C86"/>
<path d="M1175.71 95.2168L1257 99.6016C1257 84.1865 1223.81 67.7513 1205.47 75.811C1202.8 72.4985 1194.9 66.5776 1184.68 69.3946C1161.45 34.9161 1109.87 58.7203 1113.02 80.4547C1071.88 88.5143 1075.06 104 1075.06 104L1175.71 95.2168Z" fill="#5B8C86"/>
<path d="M1358.99 57.1592L1244 82C1244 62.7665 1276.9 22.8903 1322.32 32.9464C1325.61 28.8134 1335.34 21.4259 1347.94 24.9406C1345.6 2.74124 1386.88 -11.9277 1406.02 13.1272C1412.04 6.2924 1429.46 8.87508 1432.32 22.8903C1473.32 13.1272 1483 53.6077 1483 53.6077L1358.99 57.1592Z" fill="#5B8C86"/>
<g filter="url(#filter1_f_1168_4363)">
<path d="M996 202L1261 153.5C1261 153.5 693 188.5 533.75 139C374.5 89.5 -3 61.5 -3 61.5V202H482L752 235L996 202Z" fill="#AEBD7D"/>
</g>
<path d="M172.377 104L53.5 87C53.5 60.481 91.002 56.7503 122.021 70.6156C126.542 64.917 139.908 54.7312 157.203 59.5773C159.71 48.2248 177.077 31.3083 198.428 43.289C198.428 30.366 227.433 23.77 236.967 43.289C245.472 38.6223 268.792 45.1736 273.09 56.7503C315.523 43.289 317 100.635 317 100.635L172.377 104Z" fill="#AEBD7D"/>
<g filter="url(#filter2_f_1168_4363)">
<path d="M408.5 143C356 133 223 85.5 -3 85.5V162.5H131.5C221 162.5 249 143 196 143H285.5C326.5 143 461 153 408.5 143Z" fill="#91A05F"/>
</g>
<g filter="url(#filter3_f_1168_4363)">
<ellipse cx="320" cy="127" rx="19" ry="3" fill="#FFBB80"/>
</g>
<g filter="url(#filter4_f_1168_4363)">
<ellipse cx="291.5" cy="133.5" rx="9.5" ry="3.5" fill="#FFBB80"/>
</g>
<g filter="url(#filter5_f_1168_4363)">
<ellipse cx="323.5" cy="140.5" rx="9.5" ry="3.5" fill="#FFBB80"/>
</g>
<g filter="url(#filter6_f_1168_4363)">
<ellipse cx="311.5" cy="133" rx="5.5" ry="2" fill="#FFBB80"/>
</g>
<g filter="url(#filter7_f_1168_4363)">
<ellipse cx="303" cy="140" rx="5" ry="2" fill="#FFBB80"/>
</g>
<g filter="url(#filter8_f_1168_4363)">
<ellipse cx="341.5" cy="133" rx="5.5" ry="2" fill="#FFBB80"/>
</g>
<g filter="url(#filter9_f_1168_4363)">
<ellipse cx="325.5" cy="134" rx="2.5" ry="1" fill="#FFBB80"/>
</g>
<g filter="url(#filter10_f_1168_4363)">
<ellipse cx="349.5" cy="127" rx="2.5" ry="1" fill="#FFBB80"/>
</g>
<g filter="url(#filter11_f_1168_4363)">
<ellipse cx="341.5" cy="139" rx="2.5" ry="1" fill="#FFBB80"/>
</g>
<g filter="url(#filter12_f_1168_4363)">
<ellipse cx="19" cy="3" rx="19" ry="3" transform="matrix(-1 0 0 1 77 99)" fill="#FFBB80"/>
</g>
<g filter="url(#filter13_f_1168_4363)">
<ellipse cx="9.5" cy="3.5" rx="9.5" ry="3.5" transform="matrix(-1 0 0 1 96 105)" fill="#FFBB80"/>
</g>
<g filter="url(#filter14_f_1168_4363)">
<ellipse cx="9.5" cy="3.5" rx="9.5" ry="3.5" transform="matrix(-1 0 0 1 64 112)" fill="#FFBB80"/>
</g>
<g filter="url(#filter15_f_1168_4363)">
<ellipse cx="5.5" cy="2" rx="5.5" ry="2" transform="matrix(-1 0 0 1 72 106)" fill="#FFBB80"/>
</g>
<g filter="url(#filter16_f_1168_4363)">
<ellipse cx="5" cy="2" rx="5" ry="2" transform="matrix(-1 0 0 1 80 113)" fill="#FFBB80"/>
</g>
<g filter="url(#filter17_f_1168_4363)">
<ellipse cx="5.5" cy="2" rx="5.5" ry="2" transform="matrix(-1 0 0 1 42 106)" fill="#FFBB80"/>
</g>
<g filter="url(#filter18_f_1168_4363)">
<ellipse cx="2.5" cy="1" rx="2.5" ry="1" transform="matrix(-1 0 0 1 55 108)" fill="#FFBB80"/>
</g>
<g filter="url(#filter19_f_1168_4363)">
<ellipse cx="2.5" cy="1" rx="2.5" ry="1" transform="matrix(-1 0 0 1 31 101)" fill="#FFBB80"/>
</g>
<g filter="url(#filter20_f_1168_4363)">
<ellipse cx="2.5" cy="1" rx="2.5" ry="1" transform="matrix(-1 0 0 1 39 113)" fill="#FFBB80"/>
</g>
<g filter="url(#filter21_f_1168_4363)">
<path d="M-4.00049 444.501V181.5C-4.00049 181.5 306 165.5 647.5 213.5C989 261.5 1508 61 1508 61V152.5L1376 202.5L1230 231.5L1052 262.501L857.5 278.5L658 260L485.5 278.5L231.5 337.5L-4.00049 444.501Z" fill="#216C73"/>
</g>
<path d="M960.852 235H1075C1075 209.763 1038.66 190.035 1009 203.23C1004.68 197.807 991.9 188.113 975.362 192.725C978.431 163.597 924.217 144.349 899.092 177.224C891.18 168.256 868.309 171.645 864.553 190.035C810.706 177.224 798 230.34 798 230.34L960.852 235Z" fill="#216C73"/>
<path d="M164.829 198H82C82 186.223 108.367 177.016 129.89 183.174C133.027 180.643 142.3 176.119 154.301 178.272C161 154 191.413 155.696 209.644 171.038C215.385 166.853 229 162 234.707 177.016C273.78 171.038 283 195.825 283 195.825L164.829 198Z" fill="#216C73"/>
<g filter="url(#filter22_f_1168_4363)">
<path d="M333.5 231C333.5 248.673 260 263 186.5 295C101.724 295 16.5 399.5 33 263C33 245.327 101.724 231 186.5 231C271.276 231 333.5 213.327 333.5 231Z" fill="#13525B"/>
</g>
<g filter="url(#filter23_f_1168_4363)">
<ellipse cx="117.5" cy="235" rx="91.5" ry="16" fill="#457F88"/>
</g>
<g filter="url(#filter24_f_1168_4363)">
<ellipse cx="38" cy="6" rx="38" ry="6" transform="matrix(1 0 0 -1 110 257)" fill="#FFBB80"/>
</g>
<g filter="url(#filter25_f_1168_4363)">
<ellipse cx="19" cy="7" rx="19" ry="7" transform="matrix(1 0 0 -1 72 239)" fill="#FFBB80"/>
</g>
<g filter="url(#filter26_f_1168_4363)">
<ellipse cx="19" cy="7" rx="19" ry="7" transform="matrix(1 0 0 -1 136 225)" fill="#FFBB80"/>
</g>
<g filter="url(#filter27_f_1168_4363)">
<ellipse cx="11" cy="4" rx="11" ry="4" transform="matrix(1 0 0 -1 120 237)" fill="#FFBB80"/>
</g>
<g filter="url(#filter28_f_1168_4363)">
<ellipse cx="10" cy="4" rx="10" ry="4" transform="matrix(1 0 0 -1 104 223)" fill="#FFBB80"/>
</g>
<g filter="url(#filter29_f_1168_4363)">
<ellipse cx="11" cy="4" rx="11" ry="4" transform="matrix(1 0 0 -1 180 237)" fill="#FFBB80"/>
</g>
<g filter="url(#filter30_f_1168_4363)">
<ellipse cx="5" cy="2" rx="5" ry="2" transform="matrix(1 0 0 -1 154 233)" fill="#FFBB80"/>
</g>
<g filter="url(#filter31_f_1168_4363)">
<ellipse cx="5" cy="2" rx="5" ry="2" transform="matrix(1 0 0 -1 202 247)" fill="#FFBB80"/>
</g>
<g filter="url(#filter32_f_1168_4363)">
<ellipse cx="5" cy="2" rx="5" ry="2" transform="matrix(1 0 0 -1 186 223)" fill="#FFBB80"/>
</g>
<g filter="url(#filter33_f_1168_4363)">
<path d="M1154.24 216C1113.24 210.5 1278.74 152 1516.74 72L1516.74 125C1503.08 124.333 1437.84 160.4 1380.24 162C1308.24 164 1195.24 221.5 1154.24 216Z" fill="#2F818D"/>
</g>
<g filter="url(#filter34_f_1168_4363)">
<path d="M1509 446L-3.5 468.5C-3.5 468.5 294.5 222 724.5 258C1154.5 294 1509 144 1509 144V446Z" fill="#13525B"/>
<path d="M1509 446L-3.5 468.5C-3.5 468.5 294.5 222 724.5 258C1154.5 294 1509 144 1509 144V446Z" stroke="#13525B"/>
</g>
<path d="M115.329 399.273L35 444C35 432.223 35.9775 411.342 57.5 417.5C50.5 412.5 62.5 363.5 104.801 379.545C115.329 357 141.913 356.97 160.144 372.311C165.885 368.126 179.5 363.273 185.207 378.29C224.28 372.311 233.5 397.099 233.5 397.099L115.329 399.273Z" fill="#13525B"/>
<path d="M715.554 272.771L875 281.372C875 251.135 809.891 218.897 773.931 234.706C768.69 228.209 753.195 216.595 733.145 222.12C687.569 154.489 586.408 201.182 592.57 243.815C508 212 518.111 290 518.111 290L715.554 272.771Z" fill="#13525B"/>
<g filter="url(#filter35_f_1168_4363)">
<path d="M640.5 307C640.5 264.5 174.5 346 88 466C97.8333 473 274.7 417.373 323.5 400.573C384.5 379.573 419.5 386.573 430 414.073C440.5 441.573 612.364 413.369 640.5 373C686.5 307 640.5 349.5 640.5 307Z" fill="#0F434A"/>
</g>
<g filter="url(#filter36_f_1168_4363)">
<g filter="url(#filter37_f_1168_4363)">
<ellipse cx="498.172" cy="367.733" rx="48.5857" ry="8.73346" fill="#FFBB80"/>
</g>
<g filter="url(#filter38_f_1168_4363)">
<ellipse cx="425.293" cy="395.389" rx="24.2929" ry="10.189" fill="#FFBB80"/>
</g>
<g filter="url(#filter39_f_1168_4363)">
<ellipse cx="507.121" cy="415.767" rx="24.2929" ry="10.189" fill="#FFBB80"/>
</g>
<g filter="url(#filter40_f_1168_4363)">
<ellipse cx="476.436" cy="393.934" rx="14.0643" ry="5.82231" fill="#FFBB80"/>
</g>
<g filter="url(#filter41_f_1168_4363)">
<ellipse cx="454.7" cy="414.312" rx="12.7857" ry="5.82231" fill="#FFBB80"/>
</g>
<g filter="url(#filter42_f_1168_4363)">
<ellipse cx="553.15" cy="393.934" rx="14.0643" ry="5.82231" fill="#FFBB80"/>
</g>
<g filter="url(#filter43_f_1168_4363)">
<ellipse cx="512.236" cy="396.845" rx="6.39286" ry="2.91115" fill="#FFBB80"/>
</g>
<g filter="url(#filter44_f_1168_4363)">
<ellipse cx="573.607" cy="376.467" rx="6.39286" ry="2.91115" fill="#FFBB80"/>
</g>
<g filter="url(#filter45_f_1168_4363)">
<ellipse cx="553.15" cy="411.401" rx="6.39286" ry="2.91115" fill="#FFBB80"/>
</g>
</g>
<g filter="url(#filter46_f_1168_4363)">
<path d="M1547.95 242C1103.94 242 1274.1 289.805 1170.95 305C1067.81 320.195 897.453 321 884.953 365C872.052 410.411 992.999 415.602 1074.38 412.118C1080 420.812 1142.77 432.5 1253.21 432.5C1393.88 432.5 1472.59 489 1517.45 489L1547.95 242Z" fill="#10434B"/>
</g>
<path d="M1196.47 334.869C1195.79 335.922 1195.71 337.306 1196.29 338.432L1214.63 374.514L1199.24 344.253C1198.18 342.033 1195.14 336.923 1196.47 334.869L1227.24 287.783C1228.56 285.73 1230.83 284.638 1233.13 284.949L1285.55 292.28C1287.76 292.58 1289.65 294.137 1290.51 296.363L1308.92 345.331C1309.74 347.457 1309.49 349.889 1308.27 351.778L1292.06 377.034L1292.67 376.036L1309.25 350.245C1309.85 349.309 1309.98 348.109 1309.58 347.055L1289.56 293.839C1289.14 292.719 1288.19 291.931 1287.08 291.776L1231.7 284.058C1230.56 283.898 1229.42 284.438 1228.75 285.46L1196.47 334.869Z" fill="#9572BC"/>
<path d="M1391.69 267.024C1391.03 265.352 1389.77 264.044 1388.2 263.401L1340.73 243.975C1339.7 243.553 1337.09 244.713 1336.36 245.602L1384.27 266.544C1385.76 267.241 1386.93 268.541 1387.54 270.165C1396.35 293.746 1400.01 307.355 1405.38 330.776L1407.9 327.593C1408.53 326.802 1408.78 325.737 1408.59 324.719C1404.33 302.49 1400.42 289.158 1391.69 267.024Z" fill="#9572BC"/>
<path d="M1486.22 276.599C1486.24 275.577 1485.83 274.598 1485.1 273.945C1468.22 258.768 1458.22 250.334 1441.31 237.564C1440.25 236.758 1438.83 236.76 1437.76 237.566L1433.44 240.812C1450.48 253.298 1460.06 260.957 1476.09 276.854C1476.7 277.46 1478.91 280.813 1478.93 281.71L1479.27 328.172C1479.15 327.969 1479.3 327.709 1479.54 327.692C1482.73 327.458 1485.29 324.618 1485.36 321.098L1486.22 276.599Z" fill="#9572BC"/>
<path d="M1417.31 184.947C1417 184.218 1416.44 183.633 1415.77 183.304C1394.32 172.897 1379.93 167.124 1358.51 159.157C1357.55 158.8 1356.48 158.971 1355.66 159.617L1354.07 160.866C1375.29 169.633 1389.22 175.566 1409.59 186.39C1410.72 186.989 1411.65 187.949 1412.26 189.136L1431.16 225.848L1432.13 224.867C1433.12 223.871 1433.4 222.303 1432.83 220.984L1417.31 184.947Z" fill="#9572BC"/>
<path d="M1439.43 169.078C1441.67 168.504 1442.58 165.592 1441.07 163.713C1434.07 155.006 1424.68 144.426 1421.9 141.321C1421.37 140.722 1420.74 140.248 1420.04 139.902C1418.45 139.117 1416.51 138.158 1414.3 137.067L1414.27 137.054C1400.86 130.421 1377.69 118.964 1363.84 112.672C1363.13 112.349 1362.34 112.328 1361.61 112.605L1358.99 113.602L1415.45 143.773C1415.93 144.026 1416.37 144.344 1416.77 144.718L1426.5 153.839C1426.73 154.052 1426.94 154.282 1427.13 154.529L1438.84 169.227L1439.43 169.078Z" fill="#9572BC"/>
<path d="M1502.42 235.35C1503.02 234.193 1502.94 232.766 1502.22 231.699C1498.32 225.947 1494.88 220.549 1491.61 215.415C1481.29 199.198 1472.64 185.623 1456.47 171.883C1455.63 171.171 1454.51 170.989 1453.5 171.39L1452.25 171.892C1467.34 184.667 1476.01 197.617 1486.49 213.26C1491.13 220.183 1496.12 227.632 1502.18 235.828L1502.42 235.35Z" fill="#9572BC"/>
<path d="M1507.65 380.23L1481.74 337.876C1480.61 336.033 1478.05 334.897 1476.01 334.857L1501.62 380.113L1507.65 380.23Z" fill="#9572BC"/>
<path d="M1162.82 114.906C1161.38 115.842 1160.98 117.887 1161.93 119.37L1176.14 110.514C1176.64 110.207 1177.17 109.972 1177.73 109.822C1199.18 103.991 1216.53 102.381 1246.27 99.6206L1248.02 99.4585L1246.13 97.9852C1245.53 97.5203 1244.8 97.2998 1244.07 97.3627C1241.63 97.5715 1239.27 97.7707 1236.98 97.9639C1212.24 100.055 1195.98 101.43 1176.48 106.36C1175.85 106.519 1175.24 106.787 1174.69 107.149L1162.82 114.906Z" fill="#9572BC"/>
<path d="M1227.26 137.846C1226.74 136.85 1225.78 136.208 1224.73 136.144C1204.23 134.904 1192.22 134.945 1171.45 136.598C1170.93 136.639 1170.41 136.828 1169.97 137.138C1152.24 149.614 1142.87 157.338 1129.08 171.024C1128.05 172.047 1127.78 173.691 1128.41 175.034L1129.35 177.007C1144.28 162.355 1153.02 154.402 1168.51 142.578C1169.47 141.843 1170.61 141.42 1171.79 141.36C1193.54 140.238 1206.38 140.231 1228.91 141.017L1227.26 137.846Z" fill="#9572BC"/>
<path d="M1271.15 112.064C1270.46 111.937 1269.75 112.064 1269.14 112.424L1238.01 130.669C1236.54 131.534 1235.96 133.501 1236.7 135.123L1237.31 136.461L1268.46 117.546C1269.71 116.786 1271.17 116.515 1272.58 116.78L1320.02 125.674C1321.46 125.944 1322.77 126.757 1323.71 127.969L1345.58 156.124L1346.25 155.651C1347.77 154.576 1348.12 152.336 1347.02 150.785L1327.53 123.331C1327.06 122.659 1326.36 122.208 1325.59 122.066L1271.15 112.064Z" fill="#9572BC"/>
<path fill-rule="evenodd" clip-rule="evenodd" d="M1107.4 269.148C1106.87 270.044 1106.76 271.165 1107.1 272.159L1126.67 327.92C1127.12 329.203 1128.24 330.059 1129.51 330.084L1184.95 331.165C1185.97 331.185 1186.95 330.655 1187.54 329.749L1221.53 278.278C1222.16 277.327 1222.29 276.092 1221.87 275.017L1200.72 220.648C1200.24 219.423 1199.15 218.619 1197.92 218.595L1147.79 217.617C1146.95 217.601 1146.13 217.959 1145.54 218.601C1128.42 236.984 1119.72 248.442 1107.4 269.148ZM1219.28 273.169C1220.23 275.359 1220.03 277.94 1218.73 279.924L1188.54 326.169C1187.35 327.998 1185.39 329.07 1183.32 329.03L1133.95 328.067C1131.27 328.015 1128.92 326.108 1128.13 323.337L1114.04 273.923C1113.47 271.899 1113.81 269.69 1114.97 267.978C1126.36 251.193 1134.39 240.953 1148.49 224.662C1149.69 223.27 1151.39 222.493 1153.15 222.527L1193.7 223.318C1196.06 223.364 1198.19 224.853 1199.2 227.162L1219.28 273.169Z" fill="#9572BC"/>
<path d="M1122.07 177.482C1121.43 176.206 1120.09 175.524 1118.77 175.796C1102.76 179.086 1092.81 181.786 1075.41 188.001C1074.94 188.167 1074.51 188.458 1074.17 188.835C1056.97 207.572 1047.63 218.686 1033 237.639C1032.19 238.691 1032.05 240.169 1032.64 241.375L1033.75 243.627C1049.19 223.699 1058.11 212.451 1073.78 193.527C1074.51 192.638 1075.46 191.97 1076.51 191.603C1094.65 185.284 1104.9 182.361 1122.37 178.072L1122.07 177.482Z" fill="#9572BC"/>
<path d="M1154.06 122.319C1153.38 121.321 1152.23 120.818 1151.09 121.011L1132.67 124.133C1132.41 124.176 1132.16 124.256 1131.92 124.366C1107.99 135.437 1095.59 143.015 1076.54 157.843C1075.74 158.461 1075.26 159.451 1075.24 160.507L1075.19 162.734C1096.28 147.304 1108.66 139.372 1131.36 127.492C1131.93 127.194 1132.55 126.989 1133.17 126.889L1154.84 123.437L1154.06 122.319Z" fill="#9572BC"/>
<path d="M989.039 256.052C988.279 256.371 987.665 256.998 987.327 257.799L968.729 301.86C968.491 302.426 968.401 303.052 968.471 303.669L974.486 356.716C974.726 358.835 976.711 360.174 978.582 359.478L981.866 358.258L974.625 306.071C974.442 304.75 974.627 303.398 975.157 302.189L991.566 264.715C992.233 263.193 993.402 261.993 994.844 261.354L1027.22 246.987L1025.97 243.962C1025.29 242.329 1023.55 241.558 1022 242.207L989.039 256.052Z" fill="#9572BC"/>
<path d="M1022.64 349.743C1032.14 322.379 1038.69 308.379 1052.2 286.039C1026.87 323.386 1031.85 325.064 1022.64 349.743Z" fill="#9572BC"/>
<path d="M1130.15 341.327C1129.03 341.305 1127.98 341.935 1127.41 342.976L1111.14 372.495L1127.76 341.28L1130.15 341.327Z" fill="#90ADB7"/>
<path d="M1204.05 374.307L1187.25 344.019C1186.7 343.026 1185.72 342.411 1184.65 342.39L1186.94 342.435L1204.05 374.307Z" fill="#90ADB7"/>
<path d="M1514.95 372.446L1518.11 374.095C1519.54 374.84 1521.18 374.967 1522.69 374.451L1546.65 366.283C1549.69 365.246 1551.53 361.896 1550.9 358.52L1541.54 308.157C1541.47 307.752 1541.36 307.354 1541.22 306.97C1540.66 305.482 1540.12 304.028 1539.59 302.605C1531.01 279.5 1525.44 264.512 1512.19 243.615C1511.38 242.346 1509.61 242.498 1508.99 243.886L1506.21 250.08C1519.14 271.946 1524.37 283.689 1533.89 310.639L1542.94 353.42C1543.62 356.591 1542.09 359.834 1539.32 361.122L1514.95 372.446Z" fill="#9572BC"/>
<path d="M1496.41 273.919C1496.07 274.738 1495.89 275.62 1495.87 276.515L1494.82 330.729C1494.79 331.902 1495.05 333.061 1495.57 334.09L1514.95 372.446L1539.32 361.122C1542.09 359.834 1543.62 356.591 1542.94 353.42L1533.89 310.639C1524.37 283.689 1519.14 271.946 1506.21 250.08L1496.41 273.919Z" fill="#90ADB7"/>
<path d="M974.777 369.835L1025.95 370.833L1012.68 353.783L974.777 369.835Z" fill="#90ADB7"/>
<path d="M1012.68 353.783C1011.73 352.033 1014.44 353.04 1012.68 353.783V353.783Z" fill="#9572BC"/>
<path d="M1306.95 374.968L1375.01 377.643L1318.76 355.732L1306.95 374.968Z" fill="#A4C6D3" fill-opacity="0.7"/>
<path d="M1318.76 355.732C1316.59 354.881 1318.18 357.157 1316.88 359.223L1306.11 376.299L1306.95 374.968L1318.76 355.732Z" fill="#9572BC"/>
<path fill-rule="evenodd" clip-rule="evenodd" d="M1034.24 370.995L1099.13 372.261L1116.91 342.506C1117.44 341.612 1117.56 340.499 1117.21 339.504L1097 280.776C1096.48 279.27 1095.05 278.375 1093.58 278.637L1052.2 286.039C1026.87 323.386 1031.85 325.064 1022.64 349.743L1034.24 370.995ZM1111.14 372.495L1204.05 374.307L1186.94 342.435L1127.76 341.28L1111.14 372.495ZM1214.63 374.514L1292.06 377.034L1308.27 351.778C1309.49 349.889 1309.74 347.457 1308.92 345.331L1290.51 296.363C1289.65 294.137 1287.76 292.58 1285.55 292.28L1233.13 284.949C1230.83 284.638 1228.56 285.73 1227.24 287.783L1196.47 334.869C1195.14 336.923 1198.18 342.033 1199.24 344.253L1214.63 374.514ZM1384.44 377.827L1501.62 380.113L1476.01 334.857L1418.77 333.74C1416.79 333.702 1414.9 334.689 1413.7 336.397L1384.44 377.827ZM944.335 369.241L961.34 369.573L966.874 363.127C968.183 361.602 968.769 359.511 968.462 357.462L960.418 303.772C953.047 323.779 946.82 344.15 941.63 365.523C941.177 367.391 942.502 369.205 944.335 369.241ZM1042.84 284.938C1043.36 284.019 1043.44 282.881 1043.06 281.889C1037.33 266.965 1033.77 258.967 1027.22 246.987L994.844 261.354C993.402 261.993 992.233 263.193 991.566 264.715L975.157 302.189C974.627 303.398 974.442 304.75 974.625 306.071L981.866 358.258L1012.29 346.454C1013.1 346.139 1013.76 345.47 1014.11 344.618C1023.69 320.984 1030.15 307.447 1042.84 284.938ZM1409.59 186.39C1410.72 186.989 1411.65 187.949 1412.26 189.136L1431.16 225.848L1396.82 253.924C1395.95 254.636 1394.8 254.805 1393.78 254.369L1348.66 234.934C1347.91 234.61 1347.3 233.981 1346.97 233.181L1327.47 185.705C1326.88 184.272 1327.29 182.586 1328.45 181.642L1354.07 160.866C1375.29 169.633 1389.22 175.566 1409.59 186.39ZM1074.93 176.309C1074.89 178.539 1076.82 180.19 1078.82 179.626L1121.93 167.446C1122.36 167.326 1122.76 167.109 1123.1 166.811C1124.4 165.68 1125.64 164.604 1126.83 163.575C1139.22 152.8 1145.73 147.148 1159.77 136.401C1161.21 135.304 1161.53 133.144 1160.49 131.625L1154.84 123.437L1133.17 126.889C1132.55 126.989 1131.93 127.194 1131.36 127.492C1108.66 139.372 1096.28 147.304 1075.19 162.734L1074.93 176.309ZM1168.34 129.376C1168.96 130.341 1170 130.885 1171.08 130.816C1193.02 129.413 1206.03 129.38 1228.15 130.831C1228.77 130.871 1229.39 130.713 1229.92 130.375L1257.69 112.822C1259.63 111.591 1259.77 108.607 1257.95 107.186L1248.02 99.4585L1246.27 99.6206C1216.53 102.381 1199.18 103.991 1177.73 109.822C1177.17 109.972 1176.64 110.207 1176.14 110.514L1161.93 119.37L1168.34 129.376ZM1049.93 276.152C1050.51 277.537 1051.88 278.332 1053.27 278.082L1094.96 270.611C1095.79 270.463 1096.54 269.949 1097.02 269.202C1111.03 247.532 1120.27 235.336 1137.82 215.887C1138.76 214.849 1138.99 213.281 1138.38 211.993L1122.37 178.072C1104.9 182.361 1094.65 185.284 1076.51 191.603C1075.46 191.97 1074.51 192.638 1073.78 193.527C1058.11 212.451 1049.19 223.699 1033.75 243.627C1040.9 255.698 1044.52 263.296 1049.93 276.152ZM1144.07 207.967C1144.59 209.066 1145.63 209.765 1146.77 209.788L1200.48 210.835C1201.33 210.852 1202.15 210.492 1202.75 209.847C1217.26 194.262 1226.25 185.369 1241.78 171.431C1242.94 170.388 1243.25 168.596 1242.52 167.177L1228.91 141.017C1206.38 140.231 1193.54 140.238 1171.79 141.36C1170.61 141.42 1169.47 141.843 1168.51 142.578C1153.02 154.402 1144.28 162.355 1129.35 177.007L1144.07 207.967ZM1315.75 176.319C1316.47 176.411 1317.21 176.223 1317.82 175.789L1345.58 156.124L1323.71 127.969C1322.77 126.757 1321.46 125.944 1320.02 125.674L1272.58 116.78C1271.17 116.515 1269.71 116.786 1268.46 117.546L1237.31 136.461L1251.08 166.647C1251.54 167.667 1252.46 168.362 1253.5 168.494L1315.75 176.319ZM1339.67 120.843C1337.6 121.618 1336.89 124.397 1338.3 126.2L1357.96 151.317C1358.33 151.791 1358.83 152.146 1359.37 152.34C1380.46 159.839 1392.45 164.732 1412.66 174.311C1413.25 174.589 1413.91 174.668 1414.53 174.531L1438.84 169.227L1427.13 154.529C1426.94 154.282 1426.73 154.052 1426.5 153.839L1416.77 144.718C1416.37 144.344 1415.93 144.026 1415.45 143.773L1358.99 113.602L1339.67 120.843ZM1483.52 263.366C1485 264.845 1487.38 264.436 1488.36 262.529L1502.18 235.828C1496.12 227.632 1491.13 220.183 1486.49 213.26C1476.01 197.617 1467.34 184.667 1452.25 171.892L1428.9 181.215C1427.19 181.9 1426.38 184.023 1427.15 185.808L1445.11 227.223C1445.31 227.687 1445.62 228.099 1445.99 228.42C1461.07 241.511 1469.85 249.723 1483.52 263.366ZM1403.8 263.126C1402.63 264.008 1402.16 265.636 1402.65 267.079C1409.93 288.259 1413.69 301.512 1418.63 323.998C1418.96 325.492 1420.18 326.559 1421.6 326.587L1479.27 328.172L1478.93 281.71C1478.91 280.813 1476.7 277.46 1476.09 276.854C1460.06 260.957 1450.48 253.298 1433.44 240.812L1403.8 263.126ZM1299.82 290.606C1299.03 291.579 1298.81 292.971 1299.28 294.161L1318.74 343.587C1319.1 344.494 1319.8 345.185 1320.68 345.477L1374.49 363.483C1376.86 364.278 1379.45 363.468 1381.07 361.424L1405.38 330.776C1400.01 307.355 1396.35 293.746 1387.54 270.165C1386.93 268.541 1385.76 267.241 1384.27 266.544L1336.36 245.602C1319.76 266.742 1319.58 266.314 1299.82 290.606Z" fill="#90ADB7"/>
<path d="M1028.66 232.455C1029.22 232.243 1029.71 231.858 1030.08 231.357C1043.34 213.262 1051.47 203.692 1065.82 188.988C1066.38 188.418 1066.73 187.645 1066.79 186.822L1068.46 166.208L1063.57 168.182C1063.05 168.393 1062.55 168.684 1062.1 169.038C1040.89 185.61 1030.48 195.197 1015.04 211.859C1014.65 212.278 1014.31 212.757 1014.04 213.272L997.531 244.306L1028.66 232.455Z" fill="#90ADB7"/>
<path d="M1068.46 166.208L1062.91 166.099C1062.24 166.086 1061.58 166.31 1061.04 166.726C1040.34 182.601 1029.75 191.348 1012.44 210.497C1012.28 210.674 1012.14 210.873 1012.02 211.083L994.503 241.707C993.55 243.374 995.124 245.378 996.8 244.631L997.531 244.306L1014.04 213.272C1014.31 212.757 1014.65 212.278 1015.04 211.859C1030.48 195.197 1040.89 185.61 1062.1 169.038C1062.55 168.684 1063.05 168.393 1063.57 168.182L1068.46 166.208Z" fill="#9572BC"/>
<path d="M1254.89 95.5949L1267 95.2584L1255.69 94.2339C1255.53 94.2198 1255.37 94.2366 1255.25 94.3346C1254.87 94.6405 1254.57 95.3164 1254.89 95.5949Z" fill="#9572BC"/>
<path d="M1267.84 106.191C1268.25 106.545 1268.74 106.781 1269.26 106.875L1330.23 117.996C1330.84 118.107 1331.47 118.019 1332.03 117.742L1351.19 108.37L1328.5 101.022L1308.5 97.3627C1277.4 90.753 1297.39 95.3667 1267 95.2584L1254.89 95.5949L1267.84 106.191Z" fill="#A4C6D3" fill-opacity="0.7"/>
<path fill-rule="evenodd" clip-rule="evenodd" d="M1022.64 349.743C1032.14 322.379 1038.69 308.379 1052.2 286.039L1093.58 278.637C1095.05 278.375 1096.48 279.27 1097 280.776L1117.21 339.504C1117.56 340.499 1117.44 341.612 1116.91 342.506L1099.13 372.261L1111.14 372.495L1127.41 342.976C1127.98 341.935 1129.03 341.305 1130.15 341.327L1127.76 341.28L1186.94 342.435L1184.65 342.39C1185.72 342.411 1186.7 343.026 1187.25 344.019L1204.05 374.307L1214.63 374.514L1196.29 338.432C1195.71 337.306 1195.79 335.922 1196.47 334.869L1228.75 285.46C1229.42 284.438 1230.56 283.898 1231.7 284.058L1287.08 291.776C1288.19 291.931 1289.14 292.719 1289.56 293.839L1309.58 347.055C1309.98 348.109 1309.85 349.309 1309.25 350.245L1292.67 376.036L1306.11 376.299L1316.88 359.223C1318.18 357.157 1316.59 354.881 1318.76 355.732L1375.01 377.643L1384.44 377.827L1413.7 336.397C1414.9 334.689 1416.79 333.702 1418.77 333.74L1476.01 334.857C1478.05 334.897 1480.61 336.033 1481.74 337.876L1507.65 380.23L1562.58 381.302C1564.35 381.336 1565.72 379.684 1565.45 377.851L1565.45 377.838C1544.95 242.137 1465.62 136.341 1350.1 100.219L1351.34 101.022L1354.18 103.843C1355.18 104.825 1354.91 106.586 1353.67 107.178L1351.19 108.37L1332.03 117.742C1331.47 118.019 1330.84 118.107 1330.23 117.996L1269.26 106.875C1268.74 106.781 1268.25 106.545 1267.84 106.191L1254.89 95.5949C1254.57 95.3164 1254.87 94.6405 1255.25 94.3346C1255.37 94.2366 1255.53 94.2198 1255.69 94.2339L1267 95.2584L1289 95.2584L1308.5 97.3627L1307.3 92.3714L1291 89.5C1258.92 89.0686 1201.1 93.1654 1170.25 99.999C1169.86 100.085 1169.48 100.212 1169.12 100.38L1098.57 133.09C1098.31 133.209 1098.06 133.351 1097.82 133.508L1097.82 133.51C1059.69 158.803 1038.67 175.853 1005.17 208.185C1004.74 208.597 1004.37 209.084 1004.08 209.611C986.425 241.753 972.008 272.313 960.418 303.772L968.462 357.462C968.769 359.511 968.183 361.602 966.874 363.127L961.34 369.573L974.777 369.835L1012.68 353.783C1011.73 352.033 1014.44 353.04 1012.68 353.783L1025.95 370.833L1034.24 370.995L1022.64 349.743ZM968.471 303.669C968.401 303.052 968.491 302.426 968.729 301.86L987.327 257.799C987.665 256.998 988.279 256.371 989.039 256.052L1022 242.207C1023.55 241.558 1025.29 242.329 1025.97 243.962L1027.22 246.987C1033.77 258.967 1037.33 266.965 1043.06 281.889C1043.44 282.881 1043.36 284.019 1042.84 284.938C1030.15 307.447 1023.69 320.984 1014.11 344.618C1013.76 345.47 1013.1 346.139 1012.29 346.454L981.866 358.258L978.582 359.478C976.711 360.174 974.726 358.835 974.486 356.716L968.471 303.669ZM1129.51 330.084C1128.24 330.059 1127.12 329.203 1126.67 327.92L1107.1 272.159C1106.76 271.165 1106.87 270.044 1107.4 269.148C1119.72 248.442 1128.42 236.984 1145.54 218.601C1146.13 217.959 1146.95 217.601 1147.79 217.617L1197.92 218.595C1199.15 218.619 1200.24 219.423 1200.72 220.648L1221.87 275.017C1222.29 276.092 1222.16 277.327 1221.53 278.278L1187.54 329.749C1186.95 330.655 1185.97 331.185 1184.95 331.165L1129.51 330.084ZM1227.01 261.215L1208.58 215.499C1222.57 198.897 1231.29 190.124 1247.49 176.044C1248.16 175.461 1249.03 175.201 1249.88 175.33L1314.9 185.195C1316.01 185.364 1316.95 186.166 1317.36 187.295L1333.68 232.455C1334.06 233.525 1333.92 234.735 1333.29 235.665L1332.1 237.432C1315.72 256.491 1308.61 265.646 1294.18 281.417C1293.48 282.177 1292.49 282.537 1291.51 282.384L1231.77 273.022L1227.01 261.215ZM1355.66 159.617C1356.48 158.971 1357.55 158.8 1358.51 159.157C1379.93 167.124 1394.32 172.897 1415.77 183.304C1416.44 183.633 1417 184.218 1417.31 184.947L1432.83 220.984C1433.4 222.303 1433.12 223.871 1432.13 224.867L1431.16 225.848L1396.82 253.924C1395.95 254.636 1394.8 254.805 1393.78 254.369L1348.66 234.934C1347.91 234.61 1347.3 233.981 1346.97 233.181L1327.47 185.705C1326.88 184.272 1327.29 182.586 1328.45 181.642L1354.07 160.866L1355.66 159.617ZM1066.79 186.822C1066.73 187.645 1066.38 188.418 1065.82 188.988C1051.47 203.692 1043.34 213.262 1030.08 231.357C1029.71 231.858 1029.22 232.243 1028.66 232.455L997.531 244.306L996.8 244.631C995.124 245.378 993.55 243.374 994.503 241.707L1012.02 211.083C1012.14 210.873 1012.28 210.674 1012.44 210.497C1029.75 191.348 1040.34 182.601 1061.04 166.726C1061.58 166.31 1062.24 166.086 1062.91 166.099L1068.46 166.208L1066.79 186.822ZM1123.1 166.811C1122.76 167.109 1122.36 167.326 1121.93 167.446L1078.82 179.626C1076.82 180.19 1074.89 178.539 1074.93 176.309L1075.19 162.734L1075.24 160.507C1075.26 159.451 1075.74 158.461 1076.54 157.843C1095.59 143.015 1107.99 135.437 1131.92 124.366C1132.16 124.256 1132.41 124.176 1132.67 124.133L1151.09 121.011C1152.23 120.818 1153.38 121.321 1154.06 122.319L1154.84 123.437L1160.49 131.625C1161.53 133.144 1161.21 135.304 1159.77 136.401C1145.73 147.148 1139.22 152.8 1126.83 163.575C1125.64 164.604 1124.4 165.68 1123.1 166.811ZM1229.92 130.375C1229.39 130.713 1228.77 130.871 1228.15 130.831C1206.03 129.38 1193.02 129.413 1171.08 130.816C1170 130.885 1168.96 130.341 1168.34 129.376L1161.93 119.37C1160.98 117.887 1161.38 115.842 1162.82 114.906L1174.69 107.149C1175.24 106.787 1175.85 106.519 1176.48 106.36C1195.98 101.43 1212.24 100.055 1236.98 97.9639C1239.27 97.7707 1241.63 97.5715 1244.07 97.3627C1244.8 97.2998 1245.53 97.5203 1246.13 97.9852L1248.02 99.4585L1257.95 107.186C1259.77 108.607 1259.63 111.591 1257.69 112.822L1229.92 130.375ZM1097.02 269.202C1096.54 269.949 1095.79 270.463 1094.96 270.611L1053.27 278.082C1051.88 278.332 1050.51 277.537 1049.93 276.152C1044.52 263.296 1040.9 255.698 1033.75 243.627L1032.64 241.375C1032.05 240.169 1032.19 238.691 1033 237.639C1047.63 218.686 1056.97 207.572 1074.17 188.835C1074.51 188.458 1074.94 188.167 1075.41 188.001C1092.81 181.786 1102.76 179.086 1118.77 175.796C1120.09 175.524 1121.43 176.206 1122.07 177.482L1122.37 178.072L1138.38 211.993C1138.99 213.281 1138.76 214.849 1137.82 215.887C1120.27 235.336 1111.03 247.532 1097.02 269.202ZM1202.75 209.847C1202.15 210.492 1201.33 210.852 1200.48 210.835L1146.77 209.788C1145.63 209.765 1144.59 209.066 1144.07 207.967L1129.35 177.007L1128.41 175.034C1127.78 173.691 1128.05 172.047 1129.08 171.024C1142.87 157.338 1152.24 149.614 1169.97 137.138C1170.41 136.828 1170.93 136.639 1171.45 136.598C1192.22 134.945 1204.23 134.904 1224.73 136.144C1225.78 136.208 1226.74 136.85 1227.26 137.846L1228.91 141.017L1242.52 167.177C1243.25 168.596 1242.94 170.388 1241.78 171.431C1226.25 185.369 1217.26 194.262 1202.75 209.847ZM1236.7 135.123C1235.96 133.501 1236.54 131.534 1238.01 130.669L1269.14 112.424C1269.75 112.064 1270.46 111.937 1271.15 112.064L1325.59 122.066C1326.36 122.208 1327.06 122.659 1327.53 123.331L1347.02 150.785C1348.12 152.336 1347.77 154.576 1346.25 155.651L1345.58 156.124L1317.82 175.789C1317.21 176.223 1316.47 176.411 1315.75 176.319L1253.5 168.494C1252.46 168.362 1251.54 167.667 1251.08 166.647L1237.31 136.461L1236.7 135.123ZM1359.37 152.34C1358.83 152.146 1358.33 151.791 1357.96 151.317L1338.3 126.2C1336.89 124.397 1337.6 121.618 1339.67 120.843L1358.99 113.602L1361.61 112.605C1362.34 112.328 1363.13 112.349 1363.84 112.672C1377.69 118.964 1400.86 130.421 1414.27 137.054L1414.3 137.067C1416.51 138.158 1418.45 139.117 1420.04 139.902C1420.74 140.248 1421.37 140.722 1421.9 141.321C1424.68 144.426 1434.07 155.006 1441.07 163.713C1442.58 165.592 1441.67 168.504 1439.43 169.078L1438.84 169.227L1414.53 174.531C1413.91 174.668 1413.25 174.589 1412.66 174.311C1392.45 164.732 1380.46 159.839 1359.37 152.34ZM1488.36 262.529C1487.38 264.436 1485 264.845 1483.52 263.366C1469.85 249.723 1461.07 241.511 1445.99 228.42C1445.62 228.099 1445.31 227.687 1445.11 227.223L1427.15 185.808C1426.38 184.023 1427.19 181.9 1428.9 181.215L1452.25 171.892L1453.5 171.39C1454.51 170.989 1455.63 171.171 1456.47 171.883C1472.64 185.623 1481.29 199.198 1491.61 215.415C1494.88 220.549 1498.32 225.947 1502.22 231.699C1502.94 232.766 1503.02 234.193 1502.42 235.35L1502.18 235.828L1488.36 262.529ZM1421.6 326.587C1420.18 326.559 1418.96 325.492 1418.63 323.998C1413.69 301.512 1409.93 288.259 1402.65 267.079C1402.16 265.636 1402.63 264.008 1403.8 263.126L1433.44 240.812L1437.76 237.566C1438.83 236.76 1440.25 236.758 1441.31 237.564C1458.22 250.334 1468.22 258.768 1485.1 273.945C1485.83 274.598 1486.24 275.577 1486.22 276.599L1485.36 321.098C1485.29 324.618 1482.73 327.458 1479.54 327.692C1479.3 327.709 1479.15 327.969 1479.27 328.172L1421.6 326.587ZM1320.68 345.477C1319.8 345.185 1319.1 344.494 1318.74 343.587L1299.28 294.161C1298.81 292.971 1299.03 291.579 1299.82 290.606C1319.58 266.314 1319.76 266.742 1336.36 245.602C1337.09 244.713 1339.7 243.553 1340.73 243.975L1388.2 263.401C1389.77 264.044 1391.03 265.352 1391.69 267.024C1400.42 289.158 1404.33 302.49 1408.59 324.719C1408.78 325.737 1408.53 326.802 1407.9 327.593L1405.38 330.776L1381.07 361.424C1379.45 363.468 1376.86 364.278 1374.49 363.483L1320.68 345.477ZM1495.57 334.09C1495.05 333.061 1494.79 331.902 1494.82 330.729L1495.87 276.515C1495.89 275.62 1496.07 274.738 1496.41 273.919L1506.21 250.08L1508.99 243.886C1509.61 242.498 1511.38 242.346 1512.19 243.615C1525.44 264.512 1531.01 279.5 1539.59 302.605C1540.12 304.028 1540.66 305.482 1541.22 306.97C1541.36 307.354 1541.47 307.752 1541.54 308.157L1550.9 358.52C1551.53 361.896 1549.69 365.246 1546.65 366.283L1522.69 374.451C1521.18 374.967 1519.54 374.84 1518.11 374.095L1514.95 372.446L1495.57 334.09Z" fill="#9572BC"/>
<path d="M1351.34 101.022C1350.24 100.787 1284.5 84.5 1308.5 97.3627L1328.5 101.022L1351.19 108.37L1353.67 107.178C1354.91 106.586 1355.18 104.825 1354.18 103.843L1351.34 101.022Z" fill="#9572BC"/>
<path fill-rule="evenodd" clip-rule="evenodd" d="M989.039 256.052C988.279 256.371 987.665 256.998 987.327 257.799L968.729 301.86C968.491 302.426 968.401 303.052 968.471 303.669L974.486 356.716C974.726 358.835 976.711 360.174 978.582 359.478L981.866 358.258L1012.29 346.454C1013.1 346.139 1013.76 345.47 1014.11 344.618C1023.69 320.984 1030.15 307.447 1042.84 284.938C1043.36 284.019 1043.44 282.881 1043.06 281.889C1037.33 266.965 1033.77 258.967 1027.22 246.987L1025.97 243.962C1025.29 242.329 1023.55 241.558 1022 242.207L989.039 256.052ZM1107.4 269.148C1106.87 270.044 1106.76 271.165 1107.1 272.159L1126.67 327.92C1127.12 329.203 1128.24 330.059 1129.51 330.084L1184.95 331.165C1185.97 331.185 1186.95 330.655 1187.54 329.749L1221.53 278.278C1222.16 277.327 1222.29 276.092 1221.87 275.017L1200.72 220.648C1200.24 219.423 1199.15 218.619 1197.92 218.595L1147.79 217.617C1146.95 217.601 1146.13 217.959 1145.54 218.601C1128.42 236.984 1119.72 248.442 1107.4 269.148ZM1208.58 215.499L1227.01 261.215L1231.77 273.022L1291.51 282.384C1292.49 282.537 1293.48 282.177 1294.18 281.417C1308.61 265.646 1315.72 256.491 1332.1 237.432L1333.29 235.665C1333.92 234.735 1334.06 233.525 1333.68 232.455L1317.36 187.295C1316.95 186.166 1316.01 185.364 1314.9 185.195L1249.88 175.33C1249.03 175.201 1248.16 175.461 1247.49 176.044C1231.29 190.124 1222.57 198.897 1208.58 215.499ZM1417.31 184.947C1417 184.218 1416.44 183.633 1415.77 183.304C1394.32 172.897 1379.93 167.124 1358.51 159.157C1357.55 158.8 1356.48 158.971 1355.66 159.617L1354.07 160.866L1328.45 181.642C1327.29 182.586 1326.88 184.272 1327.47 185.705L1346.97 233.181C1347.3 233.981 1347.91 234.61 1348.66 234.934L1393.78 254.369C1394.8 254.805 1395.95 254.636 1396.82 253.924L1431.16 225.848L1432.13 224.867C1433.12 223.871 1433.4 222.303 1432.83 220.984L1417.31 184.947ZM997.531 244.306L1028.66 232.455C1029.22 232.243 1029.71 231.858 1030.08 231.357C1043.34 213.262 1051.47 203.692 1065.82 188.988C1066.38 188.418 1066.73 187.645 1066.79 186.822L1068.46 166.208L1062.91 166.099C1062.24 166.086 1061.58 166.31 1061.04 166.726C1040.34 182.601 1029.75 191.348 1012.44 210.497C1012.28 210.674 1012.14 210.873 1012.02 211.083L994.503 241.707C993.55 243.374 995.124 245.378 996.8 244.631L997.531 244.306ZM1074.93 176.309C1074.89 178.539 1076.82 180.19 1078.82 179.626L1121.93 167.446C1122.36 167.326 1122.76 167.109 1123.1 166.811C1124.4 165.68 1125.64 164.604 1126.83 163.575C1139.22 152.8 1145.73 147.148 1159.77 136.401C1161.21 135.304 1161.53 133.144 1160.49 131.625L1154.84 123.437L1154.06 122.319C1153.38 121.321 1152.23 120.818 1151.09 121.011L1132.67 124.133C1132.41 124.176 1132.16 124.256 1131.92 124.366C1107.99 135.437 1095.59 143.015 1076.54 157.843C1075.74 158.461 1075.26 159.451 1075.24 160.507L1075.19 162.734L1074.93 176.309ZM1168.34 129.376C1168.96 130.341 1170 130.885 1171.08 130.816C1193.02 129.413 1206.03 129.38 1228.15 130.831C1228.77 130.871 1229.39 130.713 1229.92 130.375L1257.69 112.822C1259.63 111.591 1259.77 108.607 1257.95 107.186L1248.02 99.4585L1246.13 97.9852C1245.53 97.5203 1244.8 97.2998 1244.07 97.3627C1241.63 97.5715 1239.27 97.7707 1236.98 97.9639C1212.24 100.055 1195.98 101.43 1176.48 106.36C1175.85 106.519 1175.24 106.787 1174.69 107.149L1162.82 114.906C1161.38 115.842 1160.98 117.887 1161.93 119.37L1168.34 129.376ZM1049.93 276.152C1050.51 277.537 1051.88 278.332 1053.27 278.082L1094.96 270.611C1095.79 270.463 1096.54 269.949 1097.02 269.202C1111.03 247.532 1120.27 235.336 1137.82 215.887C1138.76 214.849 1138.99 213.281 1138.38 211.993L1122.37 178.072L1122.07 177.482C1121.43 176.206 1120.09 175.524 1118.77 175.796C1102.76 179.086 1092.81 181.786 1075.41 188.001C1074.94 188.167 1074.51 188.458 1074.17 188.835C1056.97 207.572 1047.63 218.686 1033 237.639C1032.19 238.691 1032.05 240.169 1032.64 241.375L1033.75 243.627C1040.9 255.698 1044.52 263.296 1049.93 276.152ZM1144.07 207.967C1144.59 209.066 1145.63 209.765 1146.77 209.788L1200.48 210.835C1201.33 210.852 1202.15 210.492 1202.75 209.847C1217.26 194.262 1226.25 185.369 1241.78 171.431C1242.94 170.388 1243.25 168.596 1242.52 167.177L1228.91 141.017L1227.26 137.846C1226.74 136.85 1225.78 136.208 1224.73 136.144C1204.23 134.904 1192.22 134.945 1171.45 136.598C1170.93 136.639 1170.41 136.828 1169.97 137.138C1152.24 149.614 1142.87 157.338 1129.08 171.024C1128.05 172.047 1127.78 173.691 1128.41 175.034L1129.35 177.007L1144.07 207.967ZM1271.15 112.064C1270.46 111.937 1269.75 112.064 1269.14 112.424L1238.01 130.669C1236.54 131.534 1235.96 133.501 1236.7 135.123L1237.31 136.461L1251.08 166.647C1251.54 167.667 1252.46 168.362 1253.5 168.494L1315.75 176.319C1316.47 176.411 1317.21 176.223 1317.82 175.789L1345.58 156.124L1346.25 155.651C1347.77 154.576 1348.12 152.336 1347.02 150.785L1327.53 123.331C1327.06 122.659 1326.36 122.208 1325.59 122.066L1271.15 112.064ZM1339.67 120.843C1337.6 121.618 1336.89 124.397 1338.3 126.2L1357.96 151.317C1358.33 151.791 1358.83 152.146 1359.37 152.34C1380.46 159.839 1392.45 164.732 1412.66 174.311C1413.25 174.589 1413.91 174.668 1414.53 174.531L1438.84 169.227L1439.43 169.078C1441.67 168.504 1442.58 165.592 1441.07 163.713C1434.07 155.006 1424.68 144.426 1421.9 141.321C1421.37 140.722 1420.74 140.248 1420.04 139.902C1418.45 139.117 1416.51 138.158 1414.3 137.067L1414.27 137.054C1400.86 130.421 1377.69 118.964 1363.84 112.672C1363.13 112.349 1362.34 112.328 1361.61 112.605L1358.99 113.602L1339.67 120.843ZM1491.61 215.415C1481.29 199.198 1472.64 185.623 1456.47 171.883C1455.63 171.171 1454.51 170.989 1453.5 171.39L1452.25 171.892L1428.9 181.215C1427.19 181.9 1426.38 184.023 1427.15 185.808L1445.11 227.223C1445.31 227.687 1445.62 228.099 1445.99 228.42C1461.07 241.511 1469.85 249.723 1483.52 263.366C1485 264.845 1487.38 264.436 1488.36 262.529L1502.18 235.828L1502.42 235.35C1503.02 234.193 1502.94 232.766 1502.22 231.699C1498.32 225.947 1494.88 220.549 1491.61 215.415ZM1403.8 263.126C1402.63 264.008 1402.16 265.636 1402.65 267.079C1409.93 288.259 1413.69 301.512 1418.63 323.998C1418.96 325.492 1420.18 326.559 1421.6 326.587L1479.27 328.172C1479.15 327.969 1479.3 327.709 1479.54 327.692C1482.73 327.458 1485.29 324.618 1485.36 321.098L1486.22 276.599C1486.24 275.577 1485.83 274.598 1485.1 273.945C1468.22 258.768 1458.22 250.334 1441.31 237.564C1440.25 236.758 1438.83 236.76 1437.76 237.566L1433.44 240.812L1403.8 263.126ZM1299.82 290.606C1299.03 291.579 1298.81 292.971 1299.28 294.161L1318.74 343.587C1319.1 344.494 1319.8 345.185 1320.68 345.477L1374.49 363.483C1376.86 364.278 1379.45 363.468 1381.07 361.424L1405.38 330.776L1407.9 327.593C1408.53 326.802 1408.78 325.737 1408.59 324.719C1404.33 302.49 1400.42 289.158 1391.69 267.024C1391.03 265.352 1389.77 264.044 1388.2 263.401L1340.73 243.975C1339.7 243.553 1337.09 244.713 1336.36 245.602C1319.76 266.742 1319.58 266.314 1299.82 290.606ZM1522.69 374.451C1521.18 374.967 1519.54 374.84 1518.11 374.095L1514.95 372.446L1495.57 334.09C1495.05 333.061 1494.79 331.902 1494.82 330.729L1495.87 276.515C1495.89 275.62 1496.07 274.738 1496.41 273.919L1506.21 250.08L1508.99 243.886C1509.61 242.498 1511.38 242.346 1512.19 243.615C1525.44 264.512 1531.01 279.5 1539.59 302.605C1540.12 304.028 1540.66 305.482 1541.22 306.97C1541.36 307.354 1541.47 307.752 1541.54 308.157L1550.9 358.52C1551.53 361.896 1549.69 365.246 1546.65 366.283L1522.69 374.451ZM1219.28 273.169C1220.23 275.359 1220.03 277.94 1218.73 279.924L1188.54 326.169C1187.35 327.998 1185.39 329.07 1183.32 329.03L1133.95 328.067C1131.27 328.015 1128.92 326.108 1128.13 323.337L1114.04 273.923C1113.47 271.899 1113.81 269.69 1114.97 267.978C1126.36 251.193 1134.39 240.953 1148.49 224.662C1149.69 223.27 1151.39 222.493 1153.15 222.527L1193.7 223.318C1196.06 223.364 1198.19 224.853 1199.2 227.162L1219.28 273.169Z" fill="#90ADB7"/>
<path d="M1183.32 329.03C1185.39 329.07 1187.35 327.998 1188.54 326.169L1218.73 279.924C1220.03 277.94 1220.23 275.359 1219.28 273.169L1199.2 227.162C1198.19 224.853 1196.06 223.364 1193.7 223.318L1153.15 222.527C1151.39 222.493 1149.69 223.27 1148.49 224.662C1134.39 240.953 1126.36 251.193 1114.97 267.978C1113.81 269.69 1113.47 271.899 1114.04 273.923L1128.13 323.337C1128.92 326.108 1131.27 328.015 1133.95 328.067L1183.32 329.03Z" fill="#90ADB7"/>
<g filter="url(#filter47_f_1168_4363)">
<path d="M1491.57 366.027L1483.21 367.566C1488.24 365.308 1471.25 331.086 1478.71 367.579C1461.91 317.764 1476.93 372.946 1483.29 396.147L1484.52 395.444C1493.65 390.174 1503.75 386.777 1514.22 385.45C1516.92 376.635 1512.7 353.688 1511.18 343.304C1510.86 352.559 1508.51 371.074 1501.74 371.094C1502.79 368.106 1503.28 352.497 1500.7 341.042C1500.54 347.61 1497.45 362.664 1495.13 371.113C1495.71 350.966 1485.98 341.146 1491.57 366.027Z" fill="#10434C" style="mix-blend-mode:multiply"/>
</g>
<g filter="url(#filter48_f_1168_4363)">
<path d="M1469.93 370.012L1477.36 371.504C1472.88 369.274 1487.77 334.959 1481.35 371.493C1495.98 321.585 1482.96 376.849 1477.44 400.086L1475.99 399.154C1468.1 394.1 1459.21 390.826 1449.94 389.559C1447.49 380.76 1451.11 357.79 1452.4 347.398C1452.74 356.651 1454.92 375.152 1460.93 375.135C1459.98 372.152 1459.47 356.547 1461.69 345.078C1461.86 351.644 1464.69 366.681 1466.8 375.118C1466.17 354.974 1474.76 345.1 1469.93 370.012Z" fill="#10434C" style="mix-blend-mode:multiply"/>
</g>
<g filter="url(#filter49_f_1168_4363)">
<path d="M1443.66 369.004L1438.12 370.535C1441.45 368.281 1430.16 334.043 1435.14 370.543C1423.95 320.711 1433.96 375.908 1438.2 399.116L1440.11 397.46C1445.4 392.865 1451.81 389.755 1458.69 388.449C1460.48 379.637 1457.65 356.686 1456.64 346.3C1456.43 355.555 1454.9 374.068 1450.41 374.081C1451.1 371.094 1451.41 355.486 1449.69 344.028C1449.59 350.595 1447.55 365.647 1446.02 374.094C1446.39 353.947 1439.93 344.117 1443.66 369.004Z" fill="#10434C" style="mix-blend-mode:multiply"/>
</g>
<g filter="url(#filter50_f_1168_4363)">
<path d="M1428.93 374.011L1436.36 375.504C1431.88 373.274 1446.77 338.958 1440.35 375.492C1454.98 325.584 1441.96 380.849 1436.44 404.085L1434.99 403.153C1427.1 398.1 1418.21 394.826 1408.94 393.559C1406.49 384.76 1410.11 361.79 1411.4 351.397C1411.74 360.65 1413.92 379.152 1419.93 379.134C1418.98 376.152 1418.47 360.547 1420.69 349.077C1420.86 355.644 1423.69 370.681 1425.8 379.117C1425.17 358.973 1433.76 349.099 1428.93 374.011Z" fill="#10434C" style="mix-blend-mode:multiply"/>
</g>
<g filter="url(#filter51_f_1168_4363)">
<path d="M1035.28 368.011L1027.85 369.504C1032.33 367.274 1017.44 332.958 1023.86 369.492C1009.23 319.584 1022.25 374.849 1027.77 398.085L1029.22 397.153C1037.1 392.1 1045.99 388.826 1055.27 387.559C1057.72 378.76 1054.1 355.79 1052.81 345.397C1052.47 354.65 1050.29 373.152 1044.28 373.134C1045.23 370.152 1045.74 354.547 1043.52 343.077C1043.35 349.644 1040.52 364.681 1038.41 373.117C1039.04 352.973 1030.45 343.099 1035.28 368.011Z" fill="#10434C" style="mix-blend-mode:multiply"/>
</g>
<g filter="url(#filter52_f_1168_4363)">
<path d="M1061.55 367.004L1067.09 368.535C1063.76 366.281 1075.05 332.043 1070.07 368.543C1081.25 318.711 1071.25 373.908 1067 397.116L1065.1 395.46C1059.81 390.865 1053.4 387.755 1046.52 386.449C1044.73 377.637 1047.56 354.686 1048.57 344.3C1048.77 353.555 1050.31 372.068 1054.8 372.081C1054.11 369.094 1053.8 353.486 1055.52 342.028C1055.62 348.595 1057.65 363.647 1059.18 372.094C1058.82 351.947 1065.28 342.117 1061.55 367.004Z" fill="#10434C" style="mix-blend-mode:multiply"/>
</g>
<g filter="url(#filter53_f_1168_4363)">
<path d="M1076.28 372.011L1068.85 373.504C1073.33 371.274 1058.44 336.958 1064.86 373.492C1050.23 323.584 1063.25 378.849 1068.77 402.085L1070.22 401.153C1078.1 396.1 1086.99 392.826 1096.27 391.559C1098.72 382.76 1095.1 359.79 1093.81 349.397C1093.47 358.65 1091.29 377.152 1085.28 377.134C1086.23 374.152 1086.74 358.547 1084.52 347.077C1084.35 353.644 1081.52 368.681 1079.41 377.117C1080.04 356.973 1071.45 347.099 1076.28 372.011Z" fill="#10434C" style="mix-blend-mode:multiply"/>
</g>
<g filter="url(#filter54_f_1168_4363)">
<path d="M1393.66 366.004L1388.12 367.535C1391.45 365.281 1380.16 331.043 1385.14 367.543C1373.95 317.711 1383.96 372.908 1388.2 396.116L1390.11 394.46C1395.4 389.865 1401.81 386.755 1408.69 385.449C1410.48 376.637 1407.65 353.686 1406.64 343.3C1406.43 352.555 1404.9 371.068 1400.41 371.081C1401.1 368.094 1401.41 352.486 1399.69 341.028C1399.59 347.595 1397.55 362.647 1396.02 371.094C1396.39 350.947 1389.93 341.117 1393.66 366.004Z" fill="#10434C" style="mix-blend-mode:multiply"/>
</g>
<g filter="url(#filter55_f_1168_4363)">
<path d="M1370.93 366.012L1378.36 367.504C1373.88 365.274 1388.77 330.959 1382.35 367.493C1396.98 317.585 1383.96 372.849 1378.44 396.086L1376.99 395.154C1369.1 390.1 1360.21 386.826 1350.94 385.559C1348.49 376.76 1352.11 353.79 1353.4 343.398C1353.74 352.651 1355.92 371.152 1361.93 371.135C1360.98 368.152 1360.47 352.547 1362.69 341.078C1362.86 347.644 1365.69 362.681 1367.8 371.118C1367.17 350.974 1375.76 341.1 1370.93 366.012Z" fill="#10434C" style="mix-blend-mode:multiply"/>
</g>
<g filter="url(#filter56_f_1168_4363)">
<path d="M1007.5 358.737L996.735 360.75C1003.21 357.796 981.323 313.029 990.94 360.767C969.292 295.601 988.638 367.787 996.844 398.138L998.48 397.181C1010.21 390.314 1023.2 385.881 1036.69 384.146C1040.17 372.616 1034.73 342.598 1032.78 329.014C1032.36 341.121 1029.34 365.34 1020.61 365.366C1021.96 361.457 1022.59 341.039 1019.27 326.054C1019.07 334.646 1015.08 354.338 1012.09 365.391C1012.84 339.036 1000.3 326.189 1007.5 358.737Z" fill="#10434C" style="mix-blend-mode:multiply"/>
</g>
<g filter="url(#filter57_f_1168_4363)">
<path d="M1127.07 362.06L1112.23 363.738C1121.15 361.291 1091.08 324.389 1104.25 363.762C1074.54 310.029 1101.07 369.558 1112.32 394.587L1125.63 389.907C1134.55 386.769 1143.85 384.806 1153.28 384.068L1167.21 382.977C1172.04 373.458 1164.58 348.699 1161.92 337.495C1161.32 347.485 1157.12 367.473 1145.1 367.508C1146.97 364.281 1147.87 347.433 1143.32 335.074C1143.03 342.164 1137.5 358.418 1133.37 367.543C1134.44 345.796 1117.19 335.216 1127.07 362.06Z" fill="#10444C" style="mix-blend-mode:multiply"/>
</g>
<g filter="url(#filter58_f_1168_4363)">
<path d="M970.473 353.387C969.459 321.684 983.395 306.143 975.554 345.351C991.223 348.402 999.138 316.878 994.093 347.68C1017.86 269.131 996.715 356.11 987.744 392.682L985.547 391.316C972.636 383.293 958.164 378.112 943.094 376.118C930.313 345.37 920.756 342.11 905.023 319.981C918.514 326.712 921.615 334.637 951.676 354.608C950.138 349.914 950.9 333.2 954.507 315.148C954.792 325.483 967.054 340.11 970.473 353.387Z" fill="#10434C" style="mix-blend-mode:multiply"/>
</g>
<g filter="url(#filter59_f_1168_4363)">
<path d="M1091.81 374.317C1092.18 342.612 1087.91 327.099 1090.25 366.291C1085.41 369.374 1083.03 337.866 1084.53 368.657C1077.35 290.157 1083.7 377.093 1086.4 413.646L1089.72 406.959C1091.93 402.505 1095.65 398.976 1100.21 396.992C1104.22 366.218 1107.17 362.939 1112.07 340.778C1107.9 347.537 1106.92 355.467 1097.6 375.499C1098.09 370.803 1097.89 354.09 1096.81 336.046C1096.7 346.381 1092.89 361.033 1091.81 374.317Z" fill="#10434C" style="mix-blend-mode:multiply"/>
</g>
<g filter="url(#filter60_f_1168_4363)">
<path d="M1225.66 370.004L1220.12 371.535C1223.45 369.281 1212.16 335.043 1217.14 371.543C1205.95 321.711 1215.96 376.908 1220.2 400.116L1222.11 398.46C1227.4 393.865 1233.81 390.755 1240.69 389.449C1242.48 380.637 1239.65 357.686 1238.64 347.3C1238.43 356.555 1236.9 375.068 1232.41 375.081C1233.1 372.094 1233.41 356.486 1231.69 345.028C1231.59 351.595 1229.55 366.647 1228.02 375.094C1228.39 354.947 1221.93 345.117 1225.66 370.004Z" fill="#10434C" style="mix-blend-mode:multiply"/>
</g>
<g filter="url(#filter61_f_1168_4363)">
<path d="M1255.59 372.86L1258.27 373.874C1256.65 372.365 1262 349.224 1259.71 373.87C1264.96 340.208 1260.3 377.486 1258.33 393.16L1256.84 391.378C1254.65 388.754 1251.69 386.884 1248.38 386.032C1247.49 380.092 1248.77 364.596 1249.23 357.585C1249.36 363.829 1250.17 376.315 1252.34 376.309C1251.99 374.296 1251.79 363.765 1252.58 356.028C1252.65 360.459 1253.69 370.608 1254.46 376.303C1254.21 362.71 1257.31 356.055 1255.59 372.86Z" fill="#10434C" style="mix-blend-mode:multiply"/>
</g>
<g filter="url(#filter62_f_1168_4363)">
<path d="M1266.59 375.86L1269.27 376.874C1267.65 375.365 1273 352.224 1270.71 376.87C1275.96 343.208 1271.3 380.486 1269.33 396.16L1267.84 394.378C1265.65 391.754 1262.69 389.884 1259.38 389.032C1258.49 383.092 1259.77 367.596 1260.23 360.585C1260.36 366.829 1261.17 379.315 1263.34 379.309C1262.99 377.296 1262.79 366.765 1263.58 359.028C1263.65 363.459 1264.69 373.608 1265.46 379.303C1265.21 365.71 1268.31 359.055 1266.59 375.86Z" fill="#10434C" style="mix-blend-mode:multiply"/>
</g>
<g filter="url(#filter63_f_1168_4363)">
<path d="M1276.59 377.86L1279.27 378.874C1277.65 377.365 1283 354.224 1280.71 378.87C1285.96 345.208 1281.3 382.486 1279.33 398.16L1277.84 396.378C1275.65 393.754 1272.69 391.884 1269.38 391.032C1268.49 385.092 1269.77 369.596 1270.23 362.585C1270.36 368.829 1271.17 381.315 1273.34 381.309C1272.99 379.296 1272.79 368.765 1273.58 361.028C1273.65 365.459 1274.69 375.608 1275.46 381.303C1275.21 367.71 1278.31 361.055 1276.59 377.86Z" fill="#10434C" style="mix-blend-mode:multiply"/>
</g>
<g filter="url(#filter64_f_1168_4363)">
<path d="M1182.59 371.86L1185.27 372.874C1183.65 371.365 1189 348.224 1186.71 372.87C1191.96 339.208 1187.3 376.486 1185.33 392.16L1183.84 390.378C1181.65 387.754 1178.69 385.884 1175.38 385.032C1174.49 379.092 1175.77 363.596 1176.23 356.585C1176.36 362.829 1177.17 375.315 1179.34 375.309C1178.99 373.296 1178.79 362.765 1179.58 355.028C1179.65 359.459 1180.69 369.608 1181.46 375.303C1181.21 361.71 1184.31 355.055 1182.59 371.86Z" fill="#10434C" style="mix-blend-mode:multiply"/>
</g>
<g filter="url(#filter65_f_1168_4363)">
<path d="M1286.59 374.86L1289.27 375.874C1287.65 374.365 1293 351.224 1290.71 375.87C1295.96 342.208 1291.3 379.486 1289.33 395.16L1287.84 393.378C1285.65 390.754 1282.69 388.884 1279.38 388.032C1278.49 382.092 1279.77 366.596 1280.23 359.585C1280.36 365.829 1281.17 378.315 1283.34 378.309C1282.99 376.296 1282.79 365.765 1283.58 358.028C1283.65 362.459 1284.69 372.608 1285.46 378.303C1285.21 364.71 1288.31 358.055 1286.59 374.86Z" fill="#10434C" style="mix-blend-mode:multiply"/>
</g>
<g filter="url(#filter66_f_1168_4363)">
<path d="M1207.93 361.012L1215.36 362.504C1210.88 360.274 1225.77 325.959 1219.35 362.493C1233.98 312.585 1220.96 367.849 1215.44 391.086L1213.99 390.154C1206.1 385.1 1197.21 381.826 1187.94 380.559C1185.49 371.76 1189.11 348.79 1190.4 338.398C1190.74 347.651 1192.92 366.152 1198.93 366.135C1197.98 363.152 1197.47 347.547 1199.69 336.078C1199.86 342.644 1202.69 357.681 1204.8 366.118C1204.17 345.974 1212.76 336.1 1207.93 361.012Z" fill="#10434C" style="mix-blend-mode:multiply"/>
</g>
<g filter="url(#filter67_f_1168_4363)">
<path d="M1315.46 370.328L1303.76 371.894C1310.79 369.604 1287.07 335.014 1297.47 371.912C1274.03 321.552 1284.1 362.954 1292.98 386.412L1302.5 388.678L1304.49 389.153C1309.49 390.344 1314.61 390.945 1319.75 390.945L1342.92 390.945C1346.72 382.028 1345.02 357.825 1342.92 347.325C1342.45 356.686 1339.15 375.413 1329.68 375.441C1331.15 372.417 1331.85 356.632 1328.26 345.049C1328.03 351.692 1323.68 366.92 1320.43 375.468C1321.26 355.091 1307.66 345.171 1315.46 370.328Z" fill="#10434C" style="mix-blend-mode:multiply"/>
</g>
<g filter="url(#filter68_f_1168_4363)">
<g filter="url(#filter69_f_1168_4363)">
<ellipse cx="48.5857" cy="8.73346" rx="48.5857" ry="8.73346" transform="matrix(1 0 0 -1 1458.59 529.957)" fill="#FFBB80"/>
</g>
<g filter="url(#filter70_f_1168_4363)">
<ellipse cx="24.2929" cy="10.189" rx="24.2929" ry="10.189" transform="matrix(1 0 0 -1 1410 503.756)" fill="#FFBB80"/>
</g>
<g filter="url(#filter71_f_1168_4363)">
<ellipse cx="24.2929" cy="10.189" rx="24.2929" ry="10.189" transform="matrix(1 0 0 -1 1491.83 483.378)" fill="#FFBB80"/>
</g>
<g filter="url(#filter72_f_1168_4363)">
<ellipse cx="14.0643" cy="5.82231" rx="14.0643" ry="5.82231" transform="matrix(1 0 0 -1 1471.37 500.845)" fill="#FFBB80"/>
</g>
<g filter="url(#filter73_f_1168_4363)">
<ellipse cx="12.7857" cy="5.82231" rx="12.7857" ry="5.82231" transform="matrix(1 0 0 -1 1450.91 480.467)" fill="#FFBB80"/>
</g>
<g filter="url(#filter74_f_1168_4363)">
<ellipse cx="6.39286" cy="2.91115" rx="6.39286" ry="2.91115" transform="matrix(1 0 0 -1 1514.84 495.022)" fill="#FFBB80"/>
</g>
</g>
<defs>
<filter id="filter0_f_1168_4363" x="383" y="29" width="1135" height="149" filterUnits="userSpaceOnUse" color-interpolation-filters="sRGB">
<feFlood flood-opacity="0" result="BackgroundImageFix"/>
<feBlend mode="normal" in="SourceGraphic" in2="BackgroundImageFix" result="shape"/>
<feGaussianBlur stdDeviation="5" result="effect1_foregroundBlur_1168_4363"/>
</filter>
<filter id="filter1_f_1168_4363" x="-13" y="51.5" width="1284" height="193.5" filterUnits="userSpaceOnUse" color-interpolation-filters="sRGB">
<feFlood flood-opacity="0" result="BackgroundImageFix"/>
<feBlend mode="normal" in="SourceGraphic" in2="BackgroundImageFix" result="shape"/>
<feGaussianBlur stdDeviation="5" result="effect1_foregroundBlur_1168_4363"/>
</filter>
<filter id="filter2_f_1168_4363" x="-17.6" y="70.9" width="452.687" height="106.2" filterUnits="userSpaceOnUse" color-interpolation-filters="sRGB">
<feFlood flood-opacity="0" result="BackgroundImageFix"/>
<feBlend mode="normal" in="SourceGraphic" in2="BackgroundImageFix" result="shape"/>
<feGaussianBlur stdDeviation="7.3" result="effect1_foregroundBlur_1168_4363"/>
</filter>
<filter id="filter3_f_1168_4363" x="297" y="120" width="46" height="14" filterUnits="userSpaceOnUse" color-interpolation-filters="sRGB">
<feFlood flood-opacity="0" result="BackgroundImageFix"/>
<feBlend mode="normal" in="SourceGraphic" in2="BackgroundImageFix" result="shape"/>
<feGaussianBlur stdDeviation="2" result="effect1_foregroundBlur_1168_4363"/>
</filter>
<filter id="filter4_f_1168_4363" x="278" y="126" width="27" height="15" filterUnits="userSpaceOnUse" color-interpolation-filters="sRGB">
<feFlood flood-opacity="0" result="BackgroundImageFix"/>
<feBlend mode="normal" in="SourceGraphic" in2="BackgroundImageFix" result="shape"/>
<feGaussianBlur stdDeviation="2" result="effect1_foregroundBlur_1168_4363"/>
</filter>
<filter id="filter5_f_1168_4363" x="310" y="133" width="27" height="15" filterUnits="userSpaceOnUse" color-interpolation-filters="sRGB">
<feFlood flood-opacity="0" result="BackgroundImageFix"/>
<feBlend mode="normal" in="SourceGraphic" in2="BackgroundImageFix" result="shape"/>
<feGaussianBlur stdDeviation="2" result="effect1_foregroundBlur_1168_4363"/>
</filter>
<filter id="filter6_f_1168_4363" x="302" y="127" width="19" height="12" filterUnits="userSpaceOnUse" color-interpolation-filters="sRGB">
<feFlood flood-opacity="0" result="BackgroundImageFix"/>
<feBlend mode="normal" in="SourceGraphic" in2="BackgroundImageFix" result="shape"/>
<feGaussianBlur stdDeviation="2" result="effect1_foregroundBlur_1168_4363"/>
</filter>
<filter id="filter7_f_1168_4363" x="294" y="134" width="18" height="12" filterUnits="userSpaceOnUse" color-interpolation-filters="sRGB">
<feFlood flood-opacity="0" result="BackgroundImageFix"/>
<feBlend mode="normal" in="SourceGraphic" in2="BackgroundImageFix" result="shape"/>
<feGaussianBlur stdDeviation="2" result="effect1_foregroundBlur_1168_4363"/>
</filter>
<filter id="filter8_f_1168_4363" x="332" y="127" width="19" height="12" filterUnits="userSpaceOnUse" color-interpolation-filters="sRGB">
<feFlood flood-opacity="0" result="BackgroundImageFix"/>
<feBlend mode="normal" in="SourceGraphic" in2="BackgroundImageFix" result="shape"/>
<feGaussianBlur stdDeviation="2" result="effect1_foregroundBlur_1168_4363"/>
</filter>
<filter id="filter9_f_1168_4363" x="319" y="129" width="13" height="10" filterUnits="userSpaceOnUse" color-interpolation-filters="sRGB">
<feFlood flood-opacity="0" result="BackgroundImageFix"/>
<feBlend mode="normal" in="SourceGraphic" in2="BackgroundImageFix" result="shape"/>
<feGaussianBlur stdDeviation="2" result="effect1_foregroundBlur_1168_4363"/>
</filter>
<filter id="filter10_f_1168_4363" x="343" y="122" width="13" height="10" filterUnits="userSpaceOnUse" color-interpolation-filters="sRGB">
<feFlood flood-opacity="0" result="BackgroundImageFix"/>
<feBlend mode="normal" in="SourceGraphic" in2="BackgroundImageFix" result="shape"/>
<feGaussianBlur stdDeviation="2" result="effect1_foregroundBlur_1168_4363"/>
</filter>
<filter id="filter11_f_1168_4363" x="335" y="134" width="13" height="10" filterUnits="userSpaceOnUse" color-interpolation-filters="sRGB">
<feFlood flood-opacity="0" result="BackgroundImageFix"/>
<feBlend mode="normal" in="SourceGraphic" in2="BackgroundImageFix" result="shape"/>
<feGaussianBlur stdDeviation="2" result="effect1_foregroundBlur_1168_4363"/>
</filter>
<filter id="filter12_f_1168_4363" x="35" y="95" width="46" height="14" filterUnits="userSpaceOnUse" color-interpolation-filters="sRGB">
<feFlood flood-opacity="0" result="BackgroundImageFix"/>
<feBlend mode="normal" in="SourceGraphic" in2="BackgroundImageFix" result="shape"/>
<feGaussianBlur stdDeviation="2" result="effect1_foregroundBlur_1168_4363"/>
</filter>
<filter id="filter13_f_1168_4363" x="73" y="101" width="27" height="15" filterUnits="userSpaceOnUse" color-interpolation-filters="sRGB">
<feFlood flood-opacity="0" result="BackgroundImageFix"/>
<feBlend mode="normal" in="SourceGraphic" in2="BackgroundImageFix" result="shape"/>
<feGaussianBlur stdDeviation="2" result="effect1_foregroundBlur_1168_4363"/>
</filter>
<filter id="filter14_f_1168_4363" x="41" y="108" width="27" height="15" filterUnits="userSpaceOnUse" color-interpolation-filters="sRGB">
<feFlood flood-opacity="0" result="BackgroundImageFix"/>
<feBlend mode="normal" in="SourceGraphic" in2="BackgroundImageFix" result="shape"/>
<feGaussianBlur stdDeviation="2" result="effect1_foregroundBlur_1168_4363"/>
</filter>
<filter id="filter15_f_1168_4363" x="57" y="102" width="19" height="12" filterUnits="userSpaceOnUse" color-interpolation-filters="sRGB">
<feFlood flood-opacity="0" result="BackgroundImageFix"/>
<feBlend mode="normal" in="SourceGraphic" in2="BackgroundImageFix" result="shape"/>
<feGaussianBlur stdDeviation="2" result="effect1_foregroundBlur_1168_4363"/>
</filter>
<filter id="filter16_f_1168_4363" x="66" y="109" width="18" height="12" filterUnits="userSpaceOnUse" color-interpolation-filters="sRGB">
<feFlood flood-opacity="0" result="BackgroundImageFix"/>
<feBlend mode="normal" in="SourceGraphic" in2="BackgroundImageFix" result="shape"/>
<feGaussianBlur stdDeviation="2" result="effect1_foregroundBlur_1168_4363"/>
</filter>
<filter id="filter17_f_1168_4363" x="27" y="102" width="19" height="12" filterUnits="userSpaceOnUse" color-interpolation-filters="sRGB">
<feFlood flood-opacity="0" result="BackgroundImageFix"/>
<feBlend mode="normal" in="SourceGraphic" in2="BackgroundImageFix" result="shape"/>
<feGaussianBlur stdDeviation="2" result="effect1_foregroundBlur_1168_4363"/>
</filter>
<filter id="filter18_f_1168_4363" x="46" y="104" width="13" height="10" filterUnits="userSpaceOnUse" color-interpolation-filters="sRGB">
<feFlood flood-opacity="0" result="BackgroundImageFix"/>
<feBlend mode="normal" in="SourceGraphic" in2="BackgroundImageFix" result="shape"/>
<feGaussianBlur stdDeviation="2" result="effect1_foregroundBlur_1168_4363"/>
</filter>
<filter id="filter19_f_1168_4363" x="22" y="97" width="13" height="10" filterUnits="userSpaceOnUse" color-interpolation-filters="sRGB">
<feFlood flood-opacity="0" result="BackgroundImageFix"/>
<feBlend mode="normal" in="SourceGraphic" in2="BackgroundImageFix" result="shape"/>
<feGaussianBlur stdDeviation="2" result="effect1_foregroundBlur_1168_4363"/>
</filter>
<filter id="filter20_f_1168_4363" x="30" y="109" width="13" height="10" filterUnits="userSpaceOnUse" color-interpolation-filters="sRGB">
<feFlood flood-opacity="0" result="BackgroundImageFix"/>
<feBlend mode="normal" in="SourceGraphic" in2="BackgroundImageFix" result="shape"/>
<feGaussianBlur stdDeviation="2" result="effect1_foregroundBlur_1168_4363"/>
</filter>
<filter id="filter21_f_1168_4363" x="-14.0005" y="51" width="1532" height="403.5" filterUnits="userSpaceOnUse" color-interpolation-filters="sRGB">
<feFlood flood-opacity="0" result="BackgroundImageFix"/>
<feBlend mode="normal" in="SourceGraphic" in2="BackgroundImageFix" result="shape"/>
<feGaussianBlur stdDeviation="5" result="effect1_foregroundBlur_1168_4363"/>
</filter>
<filter id="filter22_f_1168_4363" x="-19.0654" y="173.146" width="402.565" height="210.094" filterUnits="userSpaceOnUse" color-interpolation-filters="sRGB">
<feFlood flood-opacity="0" result="BackgroundImageFix"/>
<feBlend mode="normal" in="SourceGraphic" in2="BackgroundImageFix" result="shape"/>
<feGaussianBlur stdDeviation="25" result="effect1_foregroundBlur_1168_4363"/>
</filter>
<filter id="filter23_f_1168_4363" x="-4" y="189" width="243" height="92" filterUnits="userSpaceOnUse" color-interpolation-filters="sRGB">
<feFlood flood-opacity="0" result="BackgroundImageFix"/>
<feBlend mode="normal" in="SourceGraphic" in2="BackgroundImageFix" result="shape"/>
<feGaussianBlur stdDeviation="15" result="effect1_foregroundBlur_1168_4363"/>
</filter>
<filter id="filter24_f_1168_4363" x="106" y="241" width="84" height="20" filterUnits="userSpaceOnUse" color-interpolation-filters="sRGB">
<feFlood flood-opacity="0" result="BackgroundImageFix"/>
<feBlend mode="normal" in="SourceGraphic" in2="BackgroundImageFix" result="shape"/>
<feGaussianBlur stdDeviation="2" result="effect1_foregroundBlur_1168_4363"/>
</filter>
<filter id="filter25_f_1168_4363" x="68" y="221" width="46" height="22" filterUnits="userSpaceOnUse" color-interpolation-filters="sRGB">
<feFlood flood-opacity="0" result="BackgroundImageFix"/>
<feBlend mode="normal" in="SourceGraphic" in2="BackgroundImageFix" result="shape"/>
<feGaussianBlur stdDeviation="2" result="effect1_foregroundBlur_1168_4363"/>
</filter>
<filter id="filter26_f_1168_4363" x="132" y="207" width="46" height="22" filterUnits="userSpaceOnUse" color-interpolation-filters="sRGB">
<feFlood flood-opacity="0" result="BackgroundImageFix"/>
<feBlend mode="normal" in="SourceGraphic" in2="BackgroundImageFix" result="shape"/>
<feGaussianBlur stdDeviation="2" result="effect1_foregroundBlur_1168_4363"/>
</filter>
<filter id="filter27_f_1168_4363" x="116" y="225" width="30" height="16" filterUnits="userSpaceOnUse" color-interpolation-filters="sRGB">
<feFlood flood-opacity="0" result="BackgroundImageFix"/>
<feBlend mode="normal" in="SourceGraphic" in2="BackgroundImageFix" result="shape"/>
<feGaussianBlur stdDeviation="2" result="effect1_foregroundBlur_1168_4363"/>
</filter>
<filter id="filter28_f_1168_4363" x="100" y="211" width="28" height="16" filterUnits="userSpaceOnUse" color-interpolation-filters="sRGB">
<feFlood flood-opacity="0" result="BackgroundImageFix"/>
<feBlend mode="normal" in="SourceGraphic" in2="BackgroundImageFix" result="shape"/>
<feGaussianBlur stdDeviation="2" result="effect1_foregroundBlur_1168_4363"/>
</filter>
<filter id="filter29_f_1168_4363" x="176" y="225" width="30" height="16" filterUnits="userSpaceOnUse" color-interpolation-filters="sRGB">
<feFlood flood-opacity="0" result="BackgroundImageFix"/>
<feBlend mode="normal" in="SourceGraphic" in2="BackgroundImageFix" result="shape"/>
<feGaussianBlur stdDeviation="2" result="effect1_foregroundBlur_1168_4363"/>
</filter>
<filter id="filter30_f_1168_4363" x="150" y="225" width="18" height="12" filterUnits="userSpaceOnUse" color-interpolation-filters="sRGB">
<feFlood flood-opacity="0" result="BackgroundImageFix"/>
<feBlend mode="normal" in="SourceGraphic" in2="BackgroundImageFix" result="shape"/>
<feGaussianBlur stdDeviation="2" result="effect1_foregroundBlur_1168_4363"/>
</filter>
<filter id="filter31_f_1168_4363" x="198" y="239" width="18" height="12" filterUnits="userSpaceOnUse" color-interpolation-filters="sRGB">
<feFlood flood-opacity="0" result="BackgroundImageFix"/>
<feBlend mode="normal" in="SourceGraphic" in2="BackgroundImageFix" result="shape"/>
<feGaussianBlur stdDeviation="2" result="effect1_foregroundBlur_1168_4363"/>
</filter>
<filter id="filter32_f_1168_4363" x="182" y="215" width="18" height="12" filterUnits="userSpaceOnUse" color-interpolation-filters="sRGB">
<feFlood flood-opacity="0" result="BackgroundImageFix"/>
<feBlend mode="normal" in="SourceGraphic" in2="BackgroundImageFix" result="shape"/>
<feGaussianBlur stdDeviation="2" result="effect1_foregroundBlur_1168_4363"/>
</filter>
<filter id="filter33_f_1168_4363" x="1125.6" y="49.6" width="413.543" height="189.171" filterUnits="userSpaceOnUse" color-interpolation-filters="sRGB">
<feFlood flood-opacity="0" result="BackgroundImageFix"/>
<feBlend mode="normal" in="SourceGraphic" in2="BackgroundImageFix" result="shape"/>
<feGaussianBlur stdDeviation="11.2" result="effect1_foregroundBlur_1168_4363"/>
</filter>
<filter id="filter34_f_1168_4363" x="-14.9146" y="133.246" width="1534.41" height="345.775" filterUnits="userSpaceOnUse" color-interpolation-filters="sRGB">
<feFlood flood-opacity="0" result="BackgroundImageFix"/>
<feBlend mode="normal" in="SourceGraphic" in2="BackgroundImageFix" result="shape"/>
<feGaussianBlur stdDeviation="5" result="effect1_foregroundBlur_1168_4363"/>
</filter>
<filter id="filter35_f_1168_4363" x="58" y="265.602" width="632.944" height="231.004" filterUnits="userSpaceOnUse" color-interpolation-filters="sRGB">
<feFlood flood-opacity="0" result="BackgroundImageFix"/>
<feBlend mode="normal" in="SourceGraphic" in2="BackgroundImageFix" result="shape"/>
<feGaussianBlur stdDeviation="15" result="effect1_foregroundBlur_1168_4363"/>
</filter>
<filter id="filter36_f_1168_4363" x="397" y="355" width="187" height="74.9561" filterUnits="userSpaceOnUse" color-interpolation-filters="sRGB">
<feFlood flood-opacity="0" result="BackgroundImageFix"/>
<feBlend mode="normal" in="SourceGraphic" in2="BackgroundImageFix" result="shape"/>
<feGaussianBlur stdDeviation="2" result="effect1_foregroundBlur_1168_4363"/>
</filter>
<filter id="filter37_f_1168_4363" x="445.586" y="355" width="105.171" height="25.4668" filterUnits="userSpaceOnUse" color-interpolation-filters="sRGB">
<feFlood flood-opacity="0" result="BackgroundImageFix"/>
<feBlend mode="normal" in="SourceGraphic" in2="BackgroundImageFix" result="shape"/>
<feGaussianBlur stdDeviation="2" result="effect1_foregroundBlur_1168_4363"/>
</filter>
<filter id="filter38_f_1168_4363" x="397" y="381.2" width="56.5859" height="28.3779" filterUnits="userSpaceOnUse" color-interpolation-filters="sRGB">
<feFlood flood-opacity="0" result="BackgroundImageFix"/>
<feBlend mode="normal" in="SourceGraphic" in2="BackgroundImageFix" result="shape"/>
<feGaussianBlur stdDeviation="2" result="effect1_foregroundBlur_1168_4363"/>
</filter>
<filter id="filter39_f_1168_4363" x="478.829" y="401.578" width="56.5859" height="28.3779" filterUnits="userSpaceOnUse" color-interpolation-filters="sRGB">
<feFlood flood-opacity="0" result="BackgroundImageFix"/>
<feBlend mode="normal" in="SourceGraphic" in2="BackgroundImageFix" result="shape"/>
<feGaussianBlur stdDeviation="2" result="effect1_foregroundBlur_1168_4363"/>
</filter>
<filter id="filter40_f_1168_4363" x="458.372" y="384.112" width="36.1284" height="19.6445" filterUnits="userSpaceOnUse" color-interpolation-filters="sRGB">
<feFlood flood-opacity="0" result="BackgroundImageFix"/>
<feBlend mode="normal" in="SourceGraphic" in2="BackgroundImageFix" result="shape"/>
<feGaussianBlur stdDeviation="2" result="effect1_foregroundBlur_1168_4363"/>
</filter>
<filter id="filter41_f_1168_4363" x="437.914" y="404.49" width="33.5713" height="19.6445" filterUnits="userSpaceOnUse" color-interpolation-filters="sRGB">
<feFlood flood-opacity="0" result="BackgroundImageFix"/>
<feBlend mode="normal" in="SourceGraphic" in2="BackgroundImageFix" result="shape"/>
<feGaussianBlur stdDeviation="2" result="effect1_foregroundBlur_1168_4363"/>
</filter>
<filter id="filter42_f_1168_4363" x="535.086" y="384.112" width="36.1284" height="19.6445" filterUnits="userSpaceOnUse" color-interpolation-filters="sRGB">
<feFlood flood-opacity="0" result="BackgroundImageFix"/>
<feBlend mode="normal" in="SourceGraphic" in2="BackgroundImageFix" result="shape"/>
<feGaussianBlur stdDeviation="2" result="effect1_foregroundBlur_1168_4363"/>
</filter>
<filter id="filter43_f_1168_4363" x="501.843" y="389.934" width="20.7856" height="13.8223" filterUnits="userSpaceOnUse" color-interpolation-filters="sRGB">
<feFlood flood-opacity="0" result="BackgroundImageFix"/>
<feBlend mode="normal" in="SourceGraphic" in2="BackgroundImageFix" result="shape"/>
<feGaussianBlur stdDeviation="2" result="effect1_foregroundBlur_1168_4363"/>
</filter>
<filter id="filter44_f_1168_4363" x="563.214" y="369.556" width="20.7856" height="13.8223" filterUnits="userSpaceOnUse" color-interpolation-filters="sRGB">
<feFlood flood-opacity="0" result="BackgroundImageFix"/>
<feBlend mode="normal" in="SourceGraphic" in2="BackgroundImageFix" result="shape"/>
<feGaussianBlur stdDeviation="2" result="effect1_foregroundBlur_1168_4363"/>
</filter>
<filter id="filter45_f_1168_4363" x="542.757" y="404.49" width="20.7856" height="13.8223" filterUnits="userSpaceOnUse" color-interpolation-filters="sRGB">
<feFlood flood-opacity="0" result="BackgroundImageFix"/>
<feBlend mode="normal" in="SourceGraphic" in2="BackgroundImageFix" result="shape"/>
<feGaussianBlur stdDeviation="2" result="effect1_foregroundBlur_1168_4363"/>
</filter>
<filter id="filter46_f_1168_4363" x="869.4" y="227.4" width="693.153" height="276.2" filterUnits="userSpaceOnUse" color-interpolation-filters="sRGB">
<feFlood flood-opacity="0" result="BackgroundImageFix"/>
<feBlend mode="normal" in="SourceGraphic" in2="BackgroundImageFix" result="shape"/>
<feGaussianBlur stdDeviation="7.3" result="effect1_foregroundBlur_1168_4363"/>
</filter>
<filter id="filter47_f_1168_4363" x="1465.72" y="335.742" width="54.682" height="65.7055" filterUnits="userSpaceOnUse" color-interpolation-filters="sRGB">
<feFlood flood-opacity="0" result="BackgroundImageFix"/>
<feBlend mode="normal" in="SourceGraphic" in2="BackgroundImageFix" result="shape"/>
<feGaussianBlur stdDeviation="2.65" result="effect1_foregroundBlur_1168_4363"/>
</filter>
<filter id="filter48_f_1168_4363" x="1443.81" y="339.778" width="49.5607" height="65.6083" filterUnits="userSpaceOnUse" color-interpolation-filters="sRGB">
<feFlood flood-opacity="0" result="BackgroundImageFix"/>
<feBlend mode="normal" in="SourceGraphic" in2="BackgroundImageFix" result="shape"/>
<feGaussianBlur stdDeviation="2.65" result="effect1_foregroundBlur_1168_4363"/>
</filter>
<filter id="filter49_f_1168_4363" x="1424.72" y="338.728" width="39.8517" height="65.6879" filterUnits="userSpaceOnUse" color-interpolation-filters="sRGB">
<feFlood flood-opacity="0" result="BackgroundImageFix"/>
<feBlend mode="normal" in="SourceGraphic" in2="BackgroundImageFix" result="shape"/>
<feGaussianBlur stdDeviation="2.65" result="effect1_foregroundBlur_1168_4363"/>
</filter>
<filter id="filter50_f_1168_4363" x="1402.81" y="343.777" width="49.5609" height="65.6083" filterUnits="userSpaceOnUse" color-interpolation-filters="sRGB">
<feFlood flood-opacity="0" result="BackgroundImageFix"/>
<feBlend mode="normal" in="SourceGraphic" in2="BackgroundImageFix" result="shape"/>
<feGaussianBlur stdDeviation="2.65" result="effect1_foregroundBlur_1168_4363"/>
</filter>
<filter id="filter51_f_1168_4363" x="1011.84" y="337.777" width="49.5609" height="65.6083" filterUnits="userSpaceOnUse" color-interpolation-filters="sRGB">
<feFlood flood-opacity="0" result="BackgroundImageFix"/>
<feBlend mode="normal" in="SourceGraphic" in2="BackgroundImageFix" result="shape"/>
<feGaussianBlur stdDeviation="2.65" result="effect1_foregroundBlur_1168_4363"/>
</filter>
<filter id="filter52_f_1168_4363" x="1040.64" y="336.728" width="39.8515" height="65.6879" filterUnits="userSpaceOnUse" color-interpolation-filters="sRGB">
<feFlood flood-opacity="0" result="BackgroundImageFix"/>
<feBlend mode="normal" in="SourceGraphic" in2="BackgroundImageFix" result="shape"/>
<feGaussianBlur stdDeviation="2.65" result="effect1_foregroundBlur_1168_4363"/>
</filter>
<filter id="filter53_f_1168_4363" x="1052.84" y="341.777" width="49.5609" height="65.6083" filterUnits="userSpaceOnUse" color-interpolation-filters="sRGB">
<feFlood flood-opacity="0" result="BackgroundImageFix"/>
<feBlend mode="normal" in="SourceGraphic" in2="BackgroundImageFix" result="shape"/>
<feGaussianBlur stdDeviation="2.65" result="effect1_foregroundBlur_1168_4363"/>
</filter>
<filter id="filter54_f_1168_4363" x="1374.72" y="335.728" width="39.8515" height="65.6879" filterUnits="userSpaceOnUse" color-interpolation-filters="sRGB">
<feFlood flood-opacity="0" result="BackgroundImageFix"/>
<feBlend mode="normal" in="SourceGraphic" in2="BackgroundImageFix" result="shape"/>
<feGaussianBlur stdDeviation="2.65" result="effect1_foregroundBlur_1168_4363"/>
</filter>
<filter id="filter55_f_1168_4363" x="1344.81" y="335.778" width="49.5609" height="65.6083" filterUnits="userSpaceOnUse" color-interpolation-filters="sRGB">
<feFlood flood-opacity="0" result="BackgroundImageFix"/>
<feBlend mode="normal" in="SourceGraphic" in2="BackgroundImageFix" result="shape"/>
<feGaussianBlur stdDeviation="2.65" result="effect1_foregroundBlur_1168_4363"/>
</filter>
<filter id="filter56_f_1168_4363" x="975.725" y="320.754" width="67.4003" height="82.684" filterUnits="userSpaceOnUse" color-interpolation-filters="sRGB">
<feFlood flood-opacity="0" result="BackgroundImageFix"/>
<feBlend mode="normal" in="SourceGraphic" in2="BackgroundImageFix" result="shape"/>
<feGaussianBlur stdDeviation="2.65" result="effect1_foregroundBlur_1168_4363"/>
</filter>
<filter id="filter57_f_1168_4363" x="1085.33" y="329.774" width="88.767" height="70.1127" filterUnits="userSpaceOnUse" color-interpolation-filters="sRGB">
<feFlood flood-opacity="0" result="BackgroundImageFix"/>
<feBlend mode="normal" in="SourceGraphic" in2="BackgroundImageFix" result="shape"/>
<feGaussianBlur stdDeviation="2.65" result="effect1_foregroundBlur_1168_4363"/>
</filter>
<filter id="filter58_f_1168_4363" x="899.722" y="309.848" width="110.581" height="88.1332" filterUnits="userSpaceOnUse" color-interpolation-filters="sRGB">
<feFlood flood-opacity="0" result="BackgroundImageFix"/>
<feBlend mode="normal" in="SourceGraphic" in2="BackgroundImageFix" result="shape"/>
<feGaussianBlur stdDeviation="2.65" result="effect1_foregroundBlur_1168_4363"/>
</filter>
<filter id="filter59_f_1168_4363" x="1075.92" y="330.745" width="41.4491" height="88.2001" filterUnits="userSpaceOnUse" color-interpolation-filters="sRGB">
<feFlood flood-opacity="0" result="BackgroundImageFix"/>
<feBlend mode="normal" in="SourceGraphic" in2="BackgroundImageFix" result="shape"/>
<feGaussianBlur stdDeviation="2.65" result="effect1_foregroundBlur_1168_4363"/>
</filter>
<filter id="filter60_f_1168_4363" x="1206.72" y="339.728" width="39.8515" height="65.6879" filterUnits="userSpaceOnUse" color-interpolation-filters="sRGB">
<feFlood flood-opacity="0" result="BackgroundImageFix"/>
<feBlend mode="normal" in="SourceGraphic" in2="BackgroundImageFix" result="shape"/>
<feGaussianBlur stdDeviation="2.65" result="effect1_foregroundBlur_1168_4363"/>
</filter>
<filter id="filter61_f_1168_4363" x="1242.77" y="350.728" width="24.6518" height="47.7323" filterUnits="userSpaceOnUse" color-interpolation-filters="sRGB">
<feFlood flood-opacity="0" result="BackgroundImageFix"/>
<feBlend mode="normal" in="SourceGraphic" in2="BackgroundImageFix" result="shape"/>
<feGaussianBlur stdDeviation="2.65" result="effect1_foregroundBlur_1168_4363"/>
</filter>
<filter id="filter62_f_1168_4363" x="1253.77" y="353.728" width="24.6518" height="47.7323" filterUnits="userSpaceOnUse" color-interpolation-filters="sRGB">
<feFlood flood-opacity="0" result="BackgroundImageFix"/>
<feBlend mode="normal" in="SourceGraphic" in2="BackgroundImageFix" result="shape"/>
<feGaussianBlur stdDeviation="2.65" result="effect1_foregroundBlur_1168_4363"/>
</filter>
<filter id="filter63_f_1168_4363" x="1263.77" y="355.728" width="24.6518" height="47.7323" filterUnits="userSpaceOnUse" color-interpolation-filters="sRGB">
<feFlood flood-opacity="0" result="BackgroundImageFix"/>
<feBlend mode="normal" in="SourceGraphic" in2="BackgroundImageFix" result="shape"/>
<feGaussianBlur stdDeviation="2.65" result="effect1_foregroundBlur_1168_4363"/>
</filter>
<filter id="filter64_f_1168_4363" x="1169.77" y="349.728" width="24.6518" height="47.7323" filterUnits="userSpaceOnUse" color-interpolation-filters="sRGB">
<feFlood flood-opacity="0" result="BackgroundImageFix"/>
<feBlend mode="normal" in="SourceGraphic" in2="BackgroundImageFix" result="shape"/>
<feGaussianBlur stdDeviation="2.65" result="effect1_foregroundBlur_1168_4363"/>
</filter>
<filter id="filter65_f_1168_4363" x="1273.77" y="352.728" width="24.6518" height="47.7323" filterUnits="userSpaceOnUse" color-interpolation-filters="sRGB">
<feFlood flood-opacity="0" result="BackgroundImageFix"/>
<feBlend mode="normal" in="SourceGraphic" in2="BackgroundImageFix" result="shape"/>
<feGaussianBlur stdDeviation="2.65" result="effect1_foregroundBlur_1168_4363"/>
</filter>
<filter id="filter66_f_1168_4363" x="1181.81" y="330.778" width="49.5609" height="65.6083" filterUnits="userSpaceOnUse" color-interpolation-filters="sRGB">
<feFlood flood-opacity="0" result="BackgroundImageFix"/>
<feBlend mode="normal" in="SourceGraphic" in2="BackgroundImageFix" result="shape"/>
<feGaussianBlur stdDeviation="2.65" result="effect1_foregroundBlur_1168_4363"/>
</filter>
<filter id="filter67_f_1168_4363" x="1278.01" y="340.049" width="72.1621" height="55.896" filterUnits="userSpaceOnUse" color-interpolation-filters="sRGB">
<feFlood flood-opacity="0" result="BackgroundImageFix"/>
<feBlend mode="normal" in="SourceGraphic" in2="BackgroundImageFix" result="shape"/>
<feGaussianBlur stdDeviation="2.5" result="effect1_foregroundBlur_1168_4363"/>
</filter>
<filter id="filter68_f_1168_4363" x="1406" y="459" width="187" height="74.9561" filterUnits="userSpaceOnUse" color-interpolation-filters="sRGB">
<feFlood flood-opacity="0" result="BackgroundImageFix"/>
<feBlend mode="normal" in="SourceGraphic" in2="BackgroundImageFix" result="shape"/>
<feGaussianBlur stdDeviation="2" result="effect1_foregroundBlur_1168_4363"/>
</filter>
<filter id="filter69_f_1168_4363" x="1454.59" y="508.49" width="105.171" height="25.4668" filterUnits="userSpaceOnUse" color-interpolation-filters="sRGB">
<feFlood flood-opacity="0" result="BackgroundImageFix"/>
<feBlend mode="normal" in="SourceGraphic" in2="BackgroundImageFix" result="shape"/>
<feGaussianBlur stdDeviation="2" result="effect1_foregroundBlur_1168_4363"/>
</filter>
<filter id="filter70_f_1168_4363" x="1406" y="479.378" width="56.5857" height="28.3779" filterUnits="userSpaceOnUse" color-interpolation-filters="sRGB">
<feFlood flood-opacity="0" result="BackgroundImageFix"/>
<feBlend mode="normal" in="SourceGraphic" in2="BackgroundImageFix" result="shape"/>
<feGaussianBlur stdDeviation="2" result="effect1_foregroundBlur_1168_4363"/>
</filter>
<filter id="filter71_f_1168_4363" x="1487.83" y="459" width="56.5857" height="28.3779" filterUnits="userSpaceOnUse" color-interpolation-filters="sRGB">
<feFlood flood-opacity="0" result="BackgroundImageFix"/>
<feBlend mode="normal" in="SourceGraphic" in2="BackgroundImageFix" result="shape"/>
<feGaussianBlur stdDeviation="2" result="effect1_foregroundBlur_1168_4363"/>
</filter>
<filter id="filter72_f_1168_4363" x="1467.37" y="485.2" width="36.1287" height="19.6445" filterUnits="userSpaceOnUse" color-interpolation-filters="sRGB">
<feFlood flood-opacity="0" result="BackgroundImageFix"/>
<feBlend mode="normal" in="SourceGraphic" in2="BackgroundImageFix" result="shape"/>
<feGaussianBlur stdDeviation="2" result="effect1_foregroundBlur_1168_4363"/>
</filter>
<filter id="filter73_f_1168_4363" x="1446.91" y="464.822" width="33.5715" height="19.6445" filterUnits="userSpaceOnUse" color-interpolation-filters="sRGB">
<feFlood flood-opacity="0" result="BackgroundImageFix"/>
<feBlend mode="normal" in="SourceGraphic" in2="BackgroundImageFix" result="shape"/>
<feGaussianBlur stdDeviation="2" result="effect1_foregroundBlur_1168_4363"/>
</filter>
<filter id="filter74_f_1168_4363" x="1510.84" y="485.2" width="20.7856" height="13.8223" filterUnits="userSpaceOnUse" color-interpolation-filters="sRGB">
<feFlood flood-opacity="0" result="BackgroundImageFix"/>
<feBlend mode="normal" in="SourceGraphic" in2="BackgroundImageFix" result="shape"/>
<feGaussianBlur stdDeviation="2" result="effect1_foregroundBlur_1168_4363"/>
</filter>
</defs>
</svg>
