<svg width="570" height="240" viewBox="0 0 570 240" fill="none" xmlns="http://www.w3.org/2000/svg">
<path d="M233.017 204.344C231.921 205.94 231.846 208.025 232.823 209.697L249.37 238H252.222L238.073 212.331C236.256 209.035 236.443 204.998 238.558 201.885L259.747 170.69C261.818 167.64 265.4 165.978 269.066 166.364L306.892 170.347C310.443 170.721 313.525 172.96 314.979 176.221L330.064 210.062C331.475 213.227 331.146 216.897 329.196 219.762L316.778 238H320.148L334.03 217.434C334.988 216.014 335.153 214.203 334.467 212.634L316.382 171.262C315.665 169.621 314.124 168.489 312.343 168.294L264.528 163.082C262.698 162.882 260.906 163.705 259.864 165.223L233.017 204.344Z" fill="#4B7382"/>
<path d="M408.758 147.974C407.645 145.515 405.564 143.627 403.019 142.729L361.368 128.043C360.43 127.712 359.386 127.987 358.733 128.736L399.608 145.336C402.021 146.316 403.961 148.197 404.99 150.589C412.888 168.945 416.39 180.042 421.519 198.764L423.039 196.944C424.041 195.744 424.425 194.139 424.067 192.617C420.046 175.524 416.368 164.782 408.758 147.974Z" fill="#4B7382"/>
<path d="M493.852 153.757C493.852 152.227 493.148 150.777 491.945 149.831C477.284 138.293 468.217 131.592 453.679 121.939C451.957 120.795 449.706 120.838 448.024 122.04L445.37 123.936C460.785 133.824 469.575 139.964 483.967 152.436C484.984 153.316 485.598 154.574 485.674 155.917L487.889 195.039C491.182 195.039 493.852 192.37 493.852 189.076V153.757Z" fill="#4B7382"/>
<path d="M430.122 78.7428C429.589 77.6734 428.69 76.8286 427.588 76.3665C408.717 68.4515 395.787 63.9656 377.041 57.9723C375.507 57.4817 373.827 57.762 372.535 58.7244L372 59.1226C390.964 65.8755 403.557 70.5006 421.555 78.763C423.388 79.6047 424.92 80.994 425.948 82.7301L443.037 111.602C444.425 110.273 444.787 108.196 443.931 106.475L430.122 78.7428Z" fill="#4B7382"/>
<path d="M449 64.668C451.257 64.0991 452.111 61.361 450.534 59.6493C444.517 53.1216 436.797 45.4574 433.739 42.4483C432.86 41.5828 431.826 40.8943 430.692 40.4088C429.388 39.851 427.871 39.2 426.184 38.4764L426.159 38.4656C414.12 33.3009 393.498 24.4544 380.757 19.418C379.622 18.9693 378.368 18.9611 377.222 19.3829L375.63 19.9693L426.847 43.7693C427.613 44.1252 428.33 44.5767 428.983 45.113L437.291 51.9427C437.665 52.2498 438.015 52.5835 438.341 52.9413L449 64.668Z" fill="#4B7382"/>
<path d="M507.593 118.707C508.246 117.501 508.12 116.022 507.282 114.937C503.759 110.377 500.633 106.087 497.656 102.002C488.213 89.0412 480.275 78.1468 465.963 67.2832C464.613 66.2588 462.824 66.0289 461.242 66.6377L461.198 66.6547C475.108 76.9728 483.2 87.5389 492.977 100.303C497.302 105.951 501.958 112.029 507.593 118.707Z" fill="#4B7382"/>
<path d="M515.111 238L492.171 205.261C490.3 202.59 487.243 200.999 483.982 200.999H480.82L502.598 238H515.111Z" fill="#4B7382"/>
<path d="M241.074 106.636L258.588 144.133L246.887 113.158C245.549 109.617 246.32 105.614 248.919 102.862C257.873 93.3839 264.623 87.0762 274.929 78.3649C277.027 76.5918 279.773 75.7768 282.501 76.0976L330.916 81.7921C334.513 82.2152 337.6 84.5498 338.986 87.8956L353.44 122.776L353.749 122.437C355.074 120.982 355.421 118.884 354.637 117.079L339.698 82.6945C338.99 81.0658 337.472 79.9346 335.709 79.7227L278.713 72.87C277.359 72.7072 275.993 73.1063 274.942 73.9755C260.956 85.5374 253.259 92.9153 241.074 106.636Z" fill="#4B7382"/>
<path d="M197.797 24.2191C196.528 25.008 196.199 26.7104 197.082 27.9158L209.308 20.6656C210.087 20.204 210.927 19.8482 211.802 19.6169C230.891 14.5692 246.547 12.9627 273.197 10.2281L274.778 10.0659L273.68 9.31747C272.714 8.65877 271.548 8.35956 270.384 8.47104C268.449 8.65633 266.572 8.83476 264.745 9.00833C242.625 11.1102 227.994 12.5005 210.69 16.7653C209.692 17.011 208.741 17.4175 207.869 17.9596L197.797 24.2191Z" fill="#4B7382"/>
<path d="M257.242 43.1537C256.375 41.7037 254.828 40.7881 253.14 40.7276C235.419 40.0925 224.637 40.3346 206.565 41.956C205.736 42.0304 204.928 42.3161 204.236 42.7795C189.218 52.8387 180.95 59.2644 169.473 69.973C167.814 71.5212 167.426 74.0017 168.516 75.9921L168.57 76.0911C181.517 64.0394 189.241 57.3528 202.455 47.7254C203.968 46.6234 205.774 45.9763 207.641 45.8573C226.598 44.6498 238.179 44.4509 258.185 44.7316L257.242 43.1537Z" fill="#4B7382"/>
<path d="M296.687 20.2217C295.593 20.0585 294.476 20.2626 293.511 20.8021L267.319 35.4365C265.411 36.5025 264.701 38.8954 265.719 40.8294L292.32 25.4454C294.289 24.3069 296.587 23.8734 298.835 24.2166L338.972 30.3422C341.282 30.6948 343.396 31.8455 344.946 33.5943L364.222 55.3397C365.894 54.2145 366.241 51.8979 364.971 50.3328L347.817 29.1773C347.029 28.2065 345.907 27.5658 344.671 27.3813L296.687 20.2217Z" fill="#4B7382"/>
<path fill-rule="evenodd" clip-rule="evenodd" d="M150.906 151.651C150.055 153.007 149.914 154.695 150.52 156.176L168.248 199.534C169.016 201.413 170.845 202.641 172.876 202.641H220.568C222.208 202.641 223.743 201.838 224.677 200.491L253.201 159.372C254.202 157.929 254.373 156.066 253.65 154.465L234.625 112.311C233.816 110.519 232.033 109.367 230.067 109.367H186.907C185.568 109.367 184.285 109.903 183.349 110.86C168.851 125.672 161.242 135.177 150.906 151.651ZM250.597 151.766C252.239 155.022 251.978 158.915 249.915 161.923L226.164 196.558C224.3 199.277 221.215 200.902 217.917 200.902H178.524C174.228 200.902 170.412 198.159 169.044 194.086L157.134 158.627C156.119 155.604 156.602 152.272 158.464 149.684C167.47 137.169 174.31 128.886 185.476 116.593C187.36 114.518 190.04 113.34 192.844 113.34H225.065C228.841 113.34 232.294 115.466 233.994 118.838L250.597 151.766Z" fill="#4B7382"/>
<path d="M162.259 77.0844C161.485 75.7491 159.941 75.0562 158.429 75.3691C144.428 78.2673 135.522 80.6471 120.351 85.8824C119.611 86.1375 118.934 86.5708 118.39 87.133C103.742 102.282 95.5462 111.516 83.2637 126.584C81.9647 128.178 81.7776 130.409 82.791 132.198L83.0807 132.709C96.4671 116.298 104.315 106.899 117.71 91.531C118.867 90.2032 120.364 89.1992 122.034 88.6378C137.68 83.3758 146.858 80.825 162.259 77.0844Z" fill="#4B7382"/>
<path d="M190.725 31.3923C189.639 30.0156 187.887 29.3441 186.159 29.6429L170.905 32.2805C170.501 32.3503 170.101 32.4722 169.726 32.6386C148.761 41.9498 137.691 48.3513 121.247 60.4396C119.973 61.3763 119.222 62.8687 119.222 64.4502V65.1647C137.882 52.1938 148.939 45.441 168.937 35.415C169.834 34.9654 170.8 34.653 171.79 34.491L190.725 31.3923Z" fill="#4B7382"/>
<path d="M43.5933 143.369C42.382 143.859 41.4103 144.803 40.8863 146L25.426 181.312C25.0508 182.169 24.9235 183.114 25.0588 184.04L30.9682 224.5C31.4249 227.627 34.6321 229.552 37.6063 228.483L38.0741 228.315L30.8259 186.66C30.4809 184.677 30.7421 182.636 31.5754 180.805L44.5026 152.387C45.5373 150.112 47.3861 148.307 49.6849 147.328L77.2223 135.593L76.9178 134.958C75.7773 132.577 72.9828 131.494 70.5355 132.483L43.5933 143.369Z" fill="#4B7382"/>
<path d="M102.712 167.084C101.337 167.333 100.128 168.147 99.3854 169.33C88.7121 186.338 83.1414 197.779 75.7085 218.335C75.1883 219.774 75.3627 221.374 76.1749 222.67L85.7778 238H89.926L81.869 224.825C80.2471 222.172 79.9488 218.909 81.0836 216.015C87.4132 199.871 92.1301 189.655 100.031 175.192C101.496 172.511 104.129 170.665 107.145 170.172L141.917 164.495L141.742 164.059C140.857 161.856 138.545 160.579 136.209 161.003L102.712 167.084Z" fill="#4B7382"/>
<path d="M172.889 211.926C171.445 211.926 170.111 212.697 169.39 213.947L155.519 238H158.37L172.889 211.926Z" fill="#B0B8BB" fill-opacity="0.5"/>
<path d="M239.778 238L224.438 213.895C223.658 212.669 222.305 211.926 220.852 211.926L236.926 238H239.778Z" fill="#B0B8BB" fill-opacity="0.5"/>
<path d="M521.593 231.447L522.958 232.066C525.247 233.105 527.844 233.243 530.231 232.454L546.426 227.095C551.311 225.478 554.173 220.418 553.039 215.398L544.653 178.279C544.516 177.672 544.322 177.079 544.075 176.508C543.605 175.42 543.144 174.355 542.693 173.31C534.786 155.007 529.56 142.911 518.073 126.749C516.757 124.898 513.947 125.178 512.987 127.236L511.5 130.425C523.611 148.293 528.559 157.918 537.667 180.044L545.699 211.607C546.9 216.327 544.527 221.225 540.079 223.207L521.593 231.447Z" fill="#4B7382"/>
<path d="M503.398 149.447C502.87 150.686 502.598 152.019 502.598 153.366V196.069C502.598 197.834 503.065 199.568 503.952 201.094L521.593 231.447L540.079 223.207C544.527 221.225 546.9 216.327 545.699 211.607L537.667 180.044C528.559 157.918 523.611 148.293 511.5 130.425L503.398 149.447Z" fill="#B0B8BB" fill-opacity="0.5"/>
<path d="M40.3363 238H78.2593L70.2223 225.487L40.3363 238Z" fill="#B0B8BB" fill-opacity="0.5"/>
<path d="M70.2223 225.487C69.323 224.052 67.5218 223.47 65.9529 224.109L31.8519 238H40.3363L70.2223 225.487Z" fill="#4B7382"/>
<path d="M336.741 238H394.815L347.111 221.906L336.741 238Z" fill="#90B2BF" fill-opacity="0.45"/>
<path d="M347.111 221.906C345.124 221.236 342.935 221.986 341.777 223.735L332.333 238H336.741L347.111 221.906Z" fill="#4B7382"/>
<path fill-rule="evenodd" clip-rule="evenodd" d="M89.926 238H144.63L159.612 214.082C160.461 212.727 160.611 211.048 160.015 209.565L141.917 164.495L107.145 170.172C104.129 170.665 101.496 172.511 100.031 175.192C92.1301 189.655 87.4132 199.871 81.0836 216.015C79.9488 218.909 80.2471 222.172 81.869 224.825L89.926 238ZM158.37 238H236.926L220.852 211.926H172.889L158.37 238ZM252.222 238H316.778L329.196 219.762C331.146 216.897 331.475 213.227 330.064 210.062L314.979 176.221C313.525 172.96 310.443 170.721 306.892 170.347L269.066 166.364C265.4 165.978 261.818 167.64 259.747 170.69L238.558 201.885C236.443 204.998 236.256 209.035 238.073 212.331L252.222 238ZM403.37 238H502.598L480.82 200.999H435.881C432.717 200.999 429.74 202.497 427.853 205.037L403.37 238ZM4.24508 238H19.6667L23.0848 234.222C25.1786 231.909 26.0721 228.75 25.5008 225.682L17.6671 183.616C11.339 200.275 6.05366 217.217 1.72714 234.97C1.34916 236.521 2.58227 238 4.24508 238ZM91.4645 167.713C92.2847 166.318 92.3895 164.609 91.7279 163.133C86.5423 151.56 83.1937 145.105 77.2223 135.593L49.6849 147.328C47.3861 148.307 45.5373 150.112 44.5026 152.387L31.5754 180.805C30.7421 182.636 30.4809 184.677 30.8259 186.66L38.0741 228.315L64.5672 218.396C65.8596 217.912 66.8942 216.914 67.4298 215.642C75.3518 196.832 80.9112 185.657 91.4645 167.713ZM258.588 144.133L263.111 153.818L315.995 160.414C317.764 160.635 319.517 159.892 320.603 158.479C331.132 144.785 338.61 136.587 353.44 122.776L338.986 87.8956C337.6 84.5498 334.513 82.2152 330.916 81.7921L282.501 76.0976C279.773 75.7768 277.027 76.5918 274.929 78.3649C264.623 87.0762 257.873 93.3839 248.919 102.862C246.32 105.614 245.549 109.617 246.887 113.158L258.588 144.133ZM421.555 78.763C423.388 79.6047 424.92 80.994 425.948 82.7301L443.037 111.602L413.347 134.632C411.98 135.693 410.162 135.971 408.54 135.368L369.235 120.752C368.015 120.299 367.021 119.388 366.462 118.214L349.105 81.7247C348.093 79.597 348.704 77.0515 350.571 75.6145L372 59.1226C390.964 65.8755 403.557 70.5006 421.555 78.763ZM119.222 73.4919C119.222 76.7969 122.372 79.1926 125.557 78.3105L161.236 68.4286C161.911 68.2418 162.539 67.9154 163.079 67.4703C164.111 66.6207 165.096 65.8082 166.043 65.0276C176.525 56.3879 182.28 51.6443 193.549 43.4027C195.846 41.7228 196.308 38.4689 194.545 36.2346L190.725 31.3923L171.79 34.491C170.8 34.653 169.834 34.9654 168.937 35.415C148.939 45.441 137.882 52.1938 119.222 65.1647V73.4919ZM202.354 35.1078C203.378 36.5036 205.056 37.2694 206.782 37.1403C225.722 35.7236 237.393 35.502 256.677 36.296C257.658 36.3364 258.634 36.0896 259.475 35.5835L280.799 22.7497C283.923 20.8702 284.05 16.3882 281.038 14.3347L274.778 10.0659L273.197 10.2281C246.547 12.9627 230.891 14.5692 211.802 19.6169C210.927 19.8482 210.087 20.204 209.308 20.6656L197.082 27.9158L202.354 35.1078ZM97.5943 157.843C98.5844 159.862 100.791 160.989 103.003 160.587L138.154 154.194C139.477 153.953 140.647 153.189 141.403 152.077C153.136 134.843 161.183 124.74 175.811 109.285C177.307 107.706 177.628 105.339 176.589 103.428L162.259 77.0844C146.858 80.825 137.68 83.3758 122.034 88.6378C120.364 89.1992 118.867 90.2032 117.71 91.531C104.315 106.899 96.4671 116.298 83.0807 132.709C89.4506 142.099 92.8582 148.189 97.5943 157.843ZM181.836 100.313C182.714 101.915 184.395 102.911 186.222 102.911H232.751C234.095 102.911 235.383 102.367 236.326 101.409C248.387 89.1443 256.215 81.7865 268.952 70.8966C270.811 69.3068 271.264 66.6053 270.009 64.5057L258.185 44.7316C238.179 44.4509 226.598 44.6498 207.641 45.8573C205.774 45.9763 203.968 46.6234 202.455 47.7254C189.241 57.3528 181.517 64.0394 168.57 76.0911L181.836 100.313ZM336.771 72.4426C337.925 72.5541 339.082 72.2611 340.043 71.6138L364.222 55.3397L344.946 33.5943C343.396 31.8455 341.282 30.6948 338.972 30.3422L298.835 24.2166C296.587 23.8734 294.289 24.3069 292.32 25.4454L265.719 40.8294L278.187 64.5154C278.972 66.0059 280.454 67.0012 282.131 67.1632L336.771 72.4426ZM361.323 25.1502C357.995 26.3555 356.939 30.5427 359.297 33.1826L374.955 50.7094C375.566 51.3934 376.358 51.8974 377.236 52.1648C395.918 57.8608 406.799 61.6895 424.739 69.0406C425.679 69.4257 426.717 69.5189 427.709 69.3028L449 64.668L438.341 52.9413C438.015 52.5835 437.665 52.2498 437.291 51.9427L428.983 45.113C428.33 44.5767 427.613 44.1252 426.847 43.7693L375.63 19.9693L361.323 25.1502ZM489.124 139.991C491.547 142.102 495.31 141.434 496.839 138.607L507.593 118.707C501.958 112.029 497.302 105.951 492.977 100.303C483.2 87.5389 475.108 76.9728 461.198 66.6547L442.476 73.8634C439.72 74.9244 438.479 78.1298 439.802 80.7696L455.48 112.053C455.822 112.737 456.321 113.335 456.929 113.798C469.832 123.622 477.748 130.077 489.124 139.991ZM420.315 141.844C418.435 143.187 417.723 145.643 418.578 147.789C424.925 163.733 428.467 174.353 432.979 191.303C433.565 193.502 435.551 195.039 437.827 195.039H487.889L485.674 155.917C485.598 154.574 484.984 153.316 483.967 152.436C469.575 139.964 460.785 133.824 445.37 123.936L420.315 141.844ZM325.588 166.271C324.577 167.714 324.41 169.59 325.142 171.193L342.783 209.828C343.391 211.159 344.551 212.157 345.959 212.559L391.415 225.537C395.216 226.622 399.301 225.366 401.835 222.331L421.519 198.764C416.39 180.042 412.888 168.945 404.99 150.589C403.961 148.197 402.021 146.316 399.608 145.336L358.733 128.736C343.908 142.212 336.395 150.844 325.588 166.271Z" fill="#90B2BF" fill-opacity="0.25"/>
<path d="M77.6811 123.772C78.5669 123.447 79.3449 122.873 79.922 122.126C91.2139 107.515 98.348 99.5338 110.581 87.6149C111.468 86.7508 112.009 85.589 112.091 84.3535L113.176 68.1452L109.321 69.6463C108.493 69.9686 107.706 70.4043 106.993 70.934C88.5645 84.6245 79.3387 92.6759 65.9719 106.327C65.3528 106.959 64.8192 107.676 64.3891 108.449L50.2593 133.855L77.6811 123.772Z" fill="#B0B8BB" fill-opacity="0.5"/>
<path d="M113.176 68.1452H108.839C107.782 68.1452 106.748 68.4835 105.894 69.1057C87.846 82.255 78.4459 89.6635 63.3497 105.485C63.0953 105.752 62.8674 106.05 62.678 106.367L47.8584 131.105C46.9024 132.701 48.5492 134.587 50.2593 133.855L64.3891 108.449C64.8192 107.676 65.3528 106.959 65.9719 106.327C79.3387 92.6759 88.5645 84.6245 106.993 70.934C107.706 70.4043 108.493 69.9686 109.321 69.6463L113.176 68.1452Z" fill="#4B7382"/>
<path d="M284.111 8.70207L292.667 2.36582C291.729 2.37946 290.778 2.39617 289.815 2.41594L282.174 5.32316C281.438 5.60291 281.299 6.58296 281.927 7.05643L284.111 8.70207Z" fill="#4B7382"/>
<path d="M292.426 14.9796C293.094 15.4841 293.879 15.8127 294.707 15.9352L348.992 23.971C349.964 24.1148 350.956 23.9694 351.845 23.553L368.467 15.7689L365.519 9.17248C337.212 4.20957 320.216 1.96526 292.667 2.36582L284.111 8.70207L292.426 14.9796Z" fill="#90B2BF" fill-opacity="0.45"/>
<path fill-rule="evenodd" clip-rule="evenodd" d="M76.1749 222.67C75.3627 221.374 75.1883 219.774 75.7085 218.335C83.1414 197.779 88.7121 186.338 99.3854 169.33C100.128 168.147 101.337 167.333 102.712 167.084L136.209 161.003C138.545 160.579 140.857 161.856 141.742 164.059L141.917 164.495L160.015 209.565C160.611 211.048 160.461 212.727 159.612 214.082L144.63 238H155.519L169.39 213.947C170.111 212.697 171.445 211.926 172.889 211.926H220.852C222.305 211.926 223.658 212.669 224.438 213.895L239.778 238H249.37L232.823 209.697C231.846 208.025 231.921 205.94 233.017 204.344L259.864 165.223C260.906 163.705 262.698 162.882 264.528 163.082L312.343 168.294C314.124 168.489 315.665 169.621 316.382 171.262L334.467 212.634C335.153 214.203 334.988 216.014 334.03 217.434L320.148 238H332.333L341.777 223.735C342.935 221.986 345.124 221.236 347.111 221.906L394.815 238H403.37L427.853 205.037C429.74 202.497 432.717 200.999 435.881 200.999H480.82H483.982C487.243 200.999 490.3 202.59 492.171 205.261L515.111 238H564.926C566.529 238 567.745 236.611 567.469 235.101L567.467 235.09C546.483 123.233 472.69 37.0479 367.333 9.04849L368.467 9.69181L369.532 10.6179C371.176 12.047 370.797 14.6963 368.818 15.6071L368.467 15.7689L351.845 23.553C350.956 23.9694 349.964 24.1148 348.992 23.971L294.707 15.9352C293.879 15.8127 293.094 15.4841 292.426 14.9796L284.111 8.70207L281.927 7.05643C281.299 6.58296 281.438 5.60291 282.174 5.32316L289.815 2.41594L290.593 2C261.501 2.16075 232.133 5.62 204.281 11.7672C203.933 11.8441 203.594 11.9558 203.269 12.1001L139.889 40.2806C139.658 40.3832 139.432 40.5043 139.219 40.6383L139.218 40.6393C105.099 62.1651 86.3456 76.5996 56.5422 103.87C56.1621 104.218 55.833 104.626 55.5796 105.067C40.1464 131.924 27.6176 157.421 17.6671 183.616L25.5008 225.682C26.0721 228.75 25.1786 231.909 23.0848 234.222L19.6667 238H31.8519L65.9529 224.109C67.5218 223.47 69.323 224.052 70.2223 225.487L78.2593 238H85.7778L76.1749 222.67ZM25.0588 184.04C24.9235 183.114 25.0508 182.169 25.426 181.312L40.8863 146C41.4103 144.803 42.382 143.859 43.5933 143.369L70.5355 132.483C72.9828 131.494 75.7773 132.577 76.9178 134.958L77.2223 135.593C83.1937 145.105 86.5423 151.56 91.7279 163.133C92.3895 164.609 92.2847 166.318 91.4645 167.713C80.9112 185.657 75.3518 196.832 67.4298 215.642C66.8942 216.914 65.8596 217.912 64.5672 218.396L38.0741 228.315L37.6063 228.483C34.6321 229.552 31.4249 227.627 30.9682 224.5L25.0588 184.04ZM172.876 202.641C170.845 202.641 169.016 201.413 168.248 199.534L150.52 156.176C149.914 154.695 150.055 153.007 150.906 151.651C161.242 135.177 168.851 125.672 183.349 110.86C184.285 109.903 185.568 109.367 186.907 109.367H230.067C232.033 109.367 233.816 110.519 234.625 112.311L253.65 154.465C254.373 156.066 254.202 157.929 253.201 159.372L224.677 200.491C223.743 201.838 222.208 202.641 220.568 202.641H172.876ZM258.588 144.133L241.074 106.636C253.259 92.9153 260.956 85.5374 274.942 73.9755C275.993 73.1063 277.359 72.7072 278.713 72.87L335.709 79.7227C337.472 79.9346 338.99 81.0658 339.698 82.6945L354.637 117.079C355.421 118.884 355.074 120.982 353.749 122.437L353.44 122.776C338.61 136.587 331.132 144.785 320.603 158.479C319.517 159.892 317.764 160.635 315.995 160.414L263.111 153.818L258.588 144.133ZM372.535 58.7244C373.827 57.762 375.507 57.4817 377.041 57.9723C395.787 63.9656 408.717 68.4515 427.588 76.3665C428.69 76.8286 429.589 77.6734 430.122 78.7428L443.931 106.475C444.787 108.196 444.425 110.273 443.037 111.602L413.347 134.632C411.98 135.693 410.162 135.971 408.54 135.368L369.235 120.752C368.015 120.299 367.021 119.388 366.462 118.214L349.105 81.7247C348.093 79.597 348.704 77.0515 350.571 75.6145L372 59.1226L372.535 58.7244ZM112.091 84.3535C112.009 85.589 111.468 86.7508 110.581 87.6149C98.348 99.5338 91.2139 107.515 79.922 122.126C79.3449 122.873 78.5669 123.447 77.6811 123.772L50.2593 133.855C48.5492 134.587 46.9024 132.701 47.8584 131.105L62.678 106.367C62.8674 106.05 63.0953 105.752 63.3497 105.485C78.4459 89.6635 87.846 82.255 105.894 69.1057C106.748 68.4835 107.782 68.1452 108.839 68.1452H113.176L112.091 84.3535ZM163.079 67.4703C162.539 67.9154 161.911 68.2418 161.236 68.4286L125.557 78.3105C122.372 79.1926 119.222 76.7969 119.222 73.4919V65.1647V64.4502C119.222 62.8687 119.973 61.3763 121.247 60.4396C137.691 48.3513 148.761 41.9498 169.726 32.6386C170.101 32.4722 170.501 32.3503 170.905 32.2805L186.159 29.6429C187.887 29.3441 189.639 30.0156 190.725 31.3923L194.545 36.2346C196.308 38.4689 195.846 41.7228 193.549 43.4027C182.28 51.6443 176.525 56.3879 166.043 65.0276C165.096 65.8082 164.111 66.6207 163.079 67.4703ZM259.475 35.5835C258.634 36.0896 257.658 36.3364 256.677 36.296C237.393 35.502 225.722 35.7236 206.782 37.1403C205.056 37.2694 203.378 36.5036 202.354 35.1078L197.082 27.9158C196.199 26.7104 196.528 25.008 197.797 24.2191L207.869 17.9596C208.741 17.4175 209.692 17.011 210.69 16.7653C227.994 12.5005 242.625 11.1102 264.745 9.00833C266.572 8.83476 268.449 8.65633 270.384 8.47104C271.548 8.35956 272.714 8.65877 273.68 9.31747L274.778 10.0659L281.038 14.3347C284.05 16.3882 283.923 20.8702 280.799 22.7497L259.475 35.5835ZM141.403 152.077C140.647 153.189 139.477 153.953 138.154 154.194L103.003 160.587C100.791 160.989 98.5844 159.862 97.5943 157.843C92.8582 148.189 89.4506 142.099 83.0807 132.709L82.791 132.198C81.7776 130.409 81.9647 128.178 83.2637 126.584C95.5462 111.516 103.742 102.282 118.39 87.133C118.934 86.5708 119.611 86.1375 120.351 85.8824C135.522 80.6471 144.428 78.2673 158.429 75.3691C159.941 75.0562 161.485 75.7491 162.259 77.0844L176.589 103.428C177.628 105.339 177.307 107.706 175.811 109.285C161.183 124.74 153.136 134.843 141.403 152.077ZM236.326 101.409C235.383 102.367 234.095 102.911 232.751 102.911H186.222C184.395 102.911 182.714 101.915 181.836 100.313L168.57 76.0911L168.516 75.9921C167.426 74.0017 167.814 71.5212 169.473 69.973C180.95 59.2644 189.218 52.8387 204.236 42.7795C204.928 42.3161 205.736 42.0304 206.565 41.956C224.637 40.3346 235.419 40.0925 253.14 40.7276C254.828 40.7881 256.375 41.7037 257.242 43.1537L258.185 44.7316L270.009 64.5057C271.264 66.6053 270.811 69.3068 268.952 70.8966C256.215 81.7865 248.387 89.1443 236.326 101.409ZM265.719 40.8294C264.701 38.8954 265.411 36.5025 267.319 35.4365L293.511 20.8021C294.476 20.2626 295.593 20.0585 296.687 20.2217L344.671 27.3813C345.907 27.5658 347.029 28.2065 347.817 29.1773L364.971 50.3328C366.241 51.8979 365.894 54.2145 364.222 55.3397L340.043 71.6138C339.082 72.2611 337.925 72.5541 336.771 72.4426L282.131 67.1632C280.454 67.0012 278.972 66.0059 278.187 64.5154L265.719 40.8294ZM377.236 52.1648C376.358 51.8974 375.566 51.3934 374.955 50.7094L359.297 33.1826C356.939 30.5427 357.995 26.3555 361.323 25.1502L375.63 19.9693L377.222 19.3829C378.368 18.9611 379.622 18.9693 380.757 19.418C393.498 24.4544 414.12 33.3009 426.159 38.4656L426.184 38.4764C427.871 39.2 429.388 39.851 430.692 40.4088C431.826 40.8943 432.86 41.5828 433.739 42.4483C436.797 45.4574 444.517 53.1216 450.534 59.6493C452.111 61.361 451.257 64.0991 449 64.668L427.709 69.3028C426.717 69.5189 425.679 69.4257 424.739 69.0406C406.799 61.6895 395.918 57.8608 377.236 52.1648ZM496.839 138.607C495.31 141.434 491.547 142.102 489.124 139.991C477.748 130.077 469.832 123.622 456.929 113.798C456.321 113.335 455.822 112.737 455.48 112.053L439.802 80.7696C438.479 78.1298 439.72 74.9244 442.476 73.8634L461.198 66.6547L461.242 66.6377C462.824 66.0289 464.613 66.2588 465.963 67.2832C480.275 78.1468 488.213 89.0412 497.656 102.002C500.633 106.087 503.759 110.377 507.282 114.937C508.12 116.022 508.246 117.501 507.593 118.707L496.839 138.607ZM437.827 195.039C435.551 195.039 433.565 193.502 432.979 191.303C428.467 174.353 424.925 163.733 418.578 147.789C417.723 145.643 418.435 143.187 420.315 141.844L445.37 123.936L448.024 122.04C449.706 120.838 451.957 120.795 453.679 121.939C468.217 131.592 477.284 138.293 491.945 149.831C493.148 150.777 493.852 152.227 493.852 153.757V189.076C493.852 192.37 491.182 195.039 487.889 195.039H437.827ZM345.959 212.559C344.551 212.157 343.391 211.159 342.783 209.828L325.142 171.193C324.41 169.59 324.577 167.714 325.588 166.271C336.395 150.844 343.908 142.212 358.733 128.736C359.386 127.987 360.43 127.712 361.368 128.043L403.019 142.729C405.564 143.627 407.645 145.515 408.758 147.974C416.368 164.782 420.046 175.524 424.067 192.617C424.425 194.139 424.041 195.744 423.039 196.944L421.519 198.764L401.835 222.331C399.301 225.366 395.216 226.622 391.415 225.537L345.959 212.559ZM503.952 201.094C503.065 199.568 502.598 197.834 502.598 196.069V153.366C502.598 152.019 502.87 150.686 503.398 149.447L511.5 130.425L512.987 127.236C513.947 125.178 516.757 124.898 518.073 126.749C529.56 142.911 534.786 155.007 542.693 173.31C543.144 174.355 543.605 175.42 544.075 176.508C544.322 177.079 544.516 177.672 544.653 178.279L553.039 215.398C554.173 220.418 551.311 225.478 546.426 227.095L530.231 232.454C527.844 233.243 525.247 233.105 522.958 232.066L521.593 231.447L503.952 201.094Z" fill="#B9A0D3"/>
<path d="M368.467 9.69181C367.47 9.51551 366.488 9.3424 365.519 9.17248L368.467 15.7689L368.818 15.6071C370.797 14.6963 371.176 12.047 369.532 10.6179L368.467 9.69181Z" fill="#4B7382"/>
<path fill-rule="evenodd" clip-rule="evenodd" d="M43.5933 143.369C42.382 143.859 41.4103 144.803 40.8863 146L25.426 181.312C25.0508 182.169 24.9235 183.114 25.0588 184.04L30.9682 224.5C31.4249 227.627 34.6321 229.552 37.6063 228.483L38.0741 228.315L64.5672 218.396C65.8596 217.912 66.8942 216.914 67.4298 215.642C75.3518 196.832 80.9112 185.657 91.4645 167.713C92.2847 166.318 92.3895 164.609 91.7279 163.133C86.5423 151.56 83.1937 145.105 77.2223 135.593L76.9178 134.958C75.7773 132.577 72.9828 131.494 70.5355 132.483L43.5933 143.369ZM150.906 151.651C150.055 153.007 149.914 154.695 150.52 156.176L168.248 199.534C169.016 201.413 170.845 202.641 172.876 202.641H220.568C222.208 202.641 223.743 201.838 224.677 200.491L253.201 159.372C254.202 157.929 254.373 156.066 253.65 154.465L234.625 112.311C233.816 110.519 232.033 109.367 230.067 109.367H186.907C185.568 109.367 184.285 109.903 183.349 110.86C168.851 125.672 161.242 135.177 150.906 151.651ZM241.074 106.636L258.588 144.133L263.111 153.818L315.995 160.414C317.764 160.635 319.517 159.892 320.603 158.479C331.132 144.785 338.61 136.587 353.44 122.776L353.749 122.437C355.074 120.982 355.421 118.884 354.637 117.079L339.698 82.6945C338.99 81.0658 337.472 79.9346 335.709 79.7227L278.713 72.87C277.359 72.7072 275.993 73.1063 274.942 73.9755C260.956 85.5374 253.259 92.9153 241.074 106.636ZM430.122 78.7428C429.589 77.6734 428.69 76.8286 427.588 76.3665C408.717 68.4515 395.787 63.9656 377.041 57.9723C375.507 57.4817 373.827 57.762 372.535 58.7244L372 59.1226L350.571 75.6145C348.704 77.0515 348.093 79.597 349.105 81.7247L366.462 118.214C367.021 119.388 368.015 120.299 369.235 120.752L408.54 135.368C410.162 135.971 411.98 135.693 413.347 134.632L443.037 111.602C444.425 110.273 444.787 108.196 443.931 106.475L430.122 78.7428ZM50.2593 133.855L77.6811 123.772C78.5669 123.447 79.3449 122.873 79.922 122.126C91.2139 107.515 98.348 99.5338 110.581 87.6149C111.468 86.7508 112.009 85.589 112.091 84.3535L113.176 68.1452H108.839C107.782 68.1452 106.748 68.4835 105.894 69.1057C87.846 82.255 78.4459 89.6635 63.3497 105.485C63.0953 105.752 62.8674 106.05 62.678 106.367L47.8584 131.105C46.9024 132.701 48.5492 134.587 50.2593 133.855ZM119.222 73.4919C119.222 76.7969 122.372 79.1926 125.557 78.3105L161.236 68.4286C161.911 68.2418 162.539 67.9154 163.079 67.4703C164.111 66.6207 165.096 65.8082 166.043 65.0276C176.525 56.3879 182.28 51.6443 193.549 43.4027C195.846 41.7228 196.308 38.4689 194.545 36.2346L190.725 31.3923C189.639 30.0156 187.887 29.3441 186.159 29.6429L170.905 32.2805C170.501 32.3503 170.101 32.4722 169.726 32.6386C148.761 41.9498 137.691 48.3513 121.247 60.4396C119.973 61.3763 119.222 62.8687 119.222 64.4502V65.1647V73.4919ZM202.354 35.1078C203.378 36.5036 205.056 37.2694 206.782 37.1403C225.722 35.7236 237.393 35.502 256.677 36.296C257.658 36.3364 258.634 36.0896 259.475 35.5835L280.799 22.7497C283.923 20.8702 284.05 16.3882 281.038 14.3347L274.778 10.0659L273.68 9.31747C272.714 8.65877 271.548 8.35956 270.384 8.47104C268.449 8.65633 266.572 8.83476 264.745 9.00833C242.625 11.1102 227.994 12.5005 210.69 16.7653C209.692 17.011 208.741 17.4175 207.869 17.9596L197.797 24.2191C196.528 25.008 196.199 26.7104 197.082 27.9158L202.354 35.1078ZM97.5943 157.843C98.5844 159.862 100.791 160.989 103.003 160.587L138.154 154.194C139.477 153.953 140.647 153.189 141.403 152.077C153.136 134.843 161.183 124.74 175.811 109.285C177.307 107.706 177.628 105.339 176.589 103.428L162.259 77.0844C161.485 75.7491 159.941 75.0562 158.429 75.3691C144.428 78.2673 135.522 80.6471 120.351 85.8824C119.611 86.1375 118.934 86.5708 118.39 87.133C103.742 102.282 95.5462 111.516 83.2637 126.584C81.9647 128.178 81.7776 130.409 82.791 132.198L83.0807 132.709C89.4506 142.099 92.8582 148.189 97.5943 157.843ZM181.836 100.313C182.714 101.915 184.395 102.911 186.222 102.911H232.751C234.095 102.911 235.383 102.367 236.326 101.409C248.387 89.1443 256.215 81.7865 268.952 70.8966C270.811 69.3068 271.264 66.6053 270.009 64.5057L258.185 44.7316L257.242 43.1537C256.375 41.7037 254.828 40.7881 253.14 40.7276C235.419 40.0925 224.637 40.3346 206.565 41.956C205.736 42.0304 204.928 42.3161 204.236 42.7795C189.218 52.8387 180.95 59.2644 169.473 69.973C167.814 71.5212 167.426 74.0017 168.516 75.9921L168.57 76.0911L181.836 100.313ZM296.687 20.2217C295.593 20.0585 294.476 20.2626 293.511 20.8021L267.319 35.4365C265.411 36.5025 264.701 38.8954 265.719 40.8294L278.187 64.5154C278.972 66.0059 280.454 67.0012 282.131 67.1632L336.771 72.4426C337.925 72.5541 339.082 72.2611 340.043 71.6138L364.222 55.3397C365.894 54.2145 366.241 51.8979 364.971 50.3328L347.817 29.1773C347.029 28.2065 345.907 27.5658 344.671 27.3813L296.687 20.2217ZM361.323 25.1502C357.995 26.3555 356.939 30.5427 359.297 33.1826L374.955 50.7094C375.566 51.3934 376.358 51.8974 377.236 52.1648C395.918 57.8608 406.799 61.6895 424.739 69.0406C425.679 69.4257 426.717 69.5189 427.709 69.3028L449 64.668C451.257 64.0991 452.111 61.361 450.534 59.6493C444.517 53.1216 436.797 45.4574 433.739 42.4483C432.86 41.5828 431.826 40.8943 430.692 40.4088C429.388 39.851 427.871 39.2 426.184 38.4764L426.159 38.4656C414.12 33.3009 393.498 24.4544 380.757 19.418C379.622 18.9693 378.368 18.9611 377.222 19.3829L375.63 19.9693L361.323 25.1502ZM497.656 102.002C488.213 89.0412 480.275 78.1468 465.963 67.2832C464.613 66.2588 462.824 66.0289 461.242 66.6377L461.198 66.6547L442.476 73.8634C439.72 74.9244 438.479 78.1298 439.802 80.7696L455.48 112.053C455.822 112.737 456.321 113.335 456.929 113.798C469.832 123.622 477.748 130.077 489.124 139.991C491.547 142.102 495.31 141.434 496.839 138.607L507.593 118.707C508.246 117.501 508.12 116.022 507.282 114.937C503.759 110.377 500.633 106.087 497.656 102.002ZM420.315 141.844C418.435 143.187 417.723 145.643 418.578 147.789C424.925 163.733 428.467 174.353 432.979 191.303C433.565 193.502 435.551 195.039 437.827 195.039H487.889C491.182 195.039 493.852 192.37 493.852 189.076V153.757C493.852 152.227 493.148 150.777 491.945 149.831C477.284 138.293 468.217 131.592 453.679 121.939C451.957 120.795 449.706 120.838 448.024 122.04L445.37 123.936L420.315 141.844ZM325.588 166.271C324.577 167.714 324.41 169.59 325.142 171.193L342.783 209.828C343.391 211.159 344.551 212.157 345.959 212.559L391.415 225.537C395.216 226.622 399.301 225.366 401.835 222.331L421.519 198.764L423.039 196.944C424.041 195.744 424.425 194.139 424.067 192.617C420.046 175.524 416.368 164.782 408.758 147.974C407.645 145.515 405.564 143.627 403.019 142.729L361.368 128.043C360.43 127.712 359.386 127.987 358.733 128.736C343.908 142.212 336.395 150.844 325.588 166.271ZM530.231 232.454C527.844 233.243 525.247 233.105 522.958 232.066L521.593 231.447L503.952 201.094C503.065 199.568 502.598 197.834 502.598 196.069V153.366C502.598 152.019 502.87 150.686 503.398 149.447L511.5 130.425L512.987 127.236C513.947 125.178 516.757 124.898 518.073 126.749C529.56 142.911 534.786 155.007 542.693 173.31C543.144 174.355 543.605 175.42 544.075 176.508C544.322 177.079 544.516 177.672 544.653 178.279L553.039 215.398C554.173 220.418 551.311 225.478 546.426 227.095L530.231 232.454ZM250.597 151.766C252.239 155.022 251.978 158.915 249.915 161.923L226.164 196.558C224.3 199.277 221.215 200.902 217.917 200.902H178.524C174.228 200.902 170.412 198.159 169.044 194.086L157.134 158.627C156.119 155.604 156.602 152.272 158.464 149.684C167.47 137.169 174.31 128.886 185.476 116.593C187.36 114.518 190.04 113.34 192.844 113.34H225.065C228.841 113.34 232.294 115.466 233.994 118.838L250.597 151.766Z" fill="#90B2BF" fill-opacity="0.35"/>
<path d="M217.917 200.902C221.215 200.902 224.3 199.277 226.164 196.558L249.915 161.923C251.978 158.915 252.239 155.022 250.597 151.766L233.994 118.838C232.294 115.466 228.841 113.34 225.065 113.34H192.844C190.04 113.34 187.36 114.518 185.476 116.593C174.31 128.886 167.47 137.169 158.464 149.684C156.602 152.272 156.119 155.604 157.134 158.627L169.044 194.086C170.412 198.159 174.228 200.902 178.524 200.902H217.917Z" fill="#90B2BF" fill-opacity="0.25"/>
<path d="M144.63 238L159.612 214.082C160.461 212.727 160.611 211.048 160.015 209.565L141.917 164.495M144.63 238H155.519M144.63 238H89.926M85.7778 238L76.1749 222.67C75.3627 221.374 75.1883 219.774 75.7085 218.335C83.1414 197.779 88.7121 186.338 99.3854 169.33C100.128 168.147 101.337 167.333 102.712 167.084L136.209 161.003C138.545 160.579 140.857 161.856 141.742 164.059L141.917 164.495M85.7778 238H89.926M85.7778 238H78.2593M155.519 238L169.39 213.947C170.111 212.697 171.445 211.926 172.889 211.926V211.926M155.519 238H158.37M239.778 238L224.438 213.895C223.658 212.669 222.305 211.926 220.852 211.926V211.926M239.778 238H249.37M239.778 238H236.926M249.37 238L232.823 209.697C231.846 208.025 231.921 205.94 233.017 204.344L259.864 165.223C260.906 163.705 262.698 162.882 264.528 163.082L312.343 168.294C314.124 168.489 315.665 169.621 316.382 171.262L334.467 212.634C335.153 214.203 334.988 216.014 334.03 217.434L320.148 238M249.37 238H252.222M241.074 106.636L263.111 153.818M241.074 106.636C253.259 92.9153 260.956 85.5374 274.942 73.9755C275.993 73.1063 277.359 72.7072 278.713 72.87L335.709 79.7227C337.472 79.9346 338.99 81.0658 339.698 82.6945L354.637 117.079C355.421 118.884 355.074 120.982 353.749 122.437L353.44 122.776M241.074 106.636L258.588 144.133M263.111 153.818L315.995 160.414C317.764 160.635 319.517 159.892 320.603 158.479C331.131 144.785 338.61 136.587 353.44 122.776M263.111 153.818L258.588 144.133M113.176 68.1452L112.091 84.3535C112.009 85.589 111.468 86.7508 110.581 87.6149C98.348 99.5338 91.2139 107.515 79.922 122.126C79.3449 122.873 78.5669 123.447 77.6811 123.772L50.2593 133.855M113.176 68.1452H108.839C107.782 68.1452 106.748 68.4835 105.894 69.1057C87.846 82.255 78.4459 89.6635 63.3497 105.485C63.0953 105.752 62.8674 106.05 62.678 106.367L47.8584 131.105C46.9024 132.701 48.5492 134.587 50.2593 133.855V133.855M113.176 68.1452L109.321 69.6463C108.493 69.9686 107.706 70.4043 106.993 70.934C88.5645 84.6245 79.3387 92.6759 65.9719 106.327C65.3528 106.959 64.8192 107.676 64.3891 108.449L50.2593 133.855M320.148 238H316.778M320.148 238H332.333M521.593 231.447L503.952 201.094C503.065 199.568 502.598 197.834 502.598 196.069V153.366C502.598 152.019 502.87 150.686 503.398 149.447L511.5 130.425M521.593 231.447L522.958 232.066C525.247 233.105 527.844 233.243 530.231 232.454L546.426 227.095C551.311 225.478 554.173 220.418 553.039 215.398L544.653 178.279C544.516 177.672 544.322 177.079 544.075 176.508C543.605 175.42 543.144 174.355 542.693 173.31C534.786 155.007 529.56 142.911 518.073 126.749C516.757 124.898 513.947 125.178 512.987 127.236L511.5 130.425M521.593 231.447L540.079 223.207C544.527 221.225 546.9 216.327 545.699 211.607L537.667 180.044C528.559 157.918 523.611 148.293 511.5 130.425M372 59.1226L350.571 75.6145C348.704 77.0515 348.093 79.597 349.105 81.7247L366.462 118.214C367.021 119.388 368.015 120.299 369.235 120.752L408.54 135.368C410.162 135.971 411.98 135.693 413.347 134.632L443.037 111.602M372 59.1226L372.535 58.7244C373.827 57.762 375.507 57.4817 377.041 57.9723C395.787 63.9656 408.717 68.4515 427.588 76.3665C428.69 76.8286 429.589 77.6734 430.122 78.7428L443.931 106.475C444.787 108.196 444.425 110.273 443.037 111.602V111.602M372 59.1226C390.964 65.8755 403.557 70.5006 421.555 78.763C423.388 79.6047 424.92 80.994 425.948 82.7301L443.037 111.602M449 64.668L427.709 69.3028C426.717 69.5189 425.679 69.4257 424.739 69.0406C406.799 61.6895 395.918 57.8608 377.236 52.1648C376.358 51.8974 375.566 51.3934 374.955 50.7094L359.297 33.1826C356.939 30.5427 357.995 26.3555 361.323 25.1502L375.63 19.9693M449 64.668V64.668C451.257 64.0991 452.111 61.361 450.534 59.6493C444.517 53.1216 436.797 45.4574 433.739 42.4483C432.86 41.5828 431.826 40.8943 430.692 40.4088C429.388 39.851 427.871 39.2 426.184 38.4764M449 64.668L438.341 52.9413C438.015 52.5835 437.665 52.2498 437.291 51.9427L428.983 45.113C428.33 44.5767 427.613 44.1252 426.847 43.7693L375.63 19.9693M487.889 195.039L485.674 155.917C485.598 154.574 484.984 153.316 483.967 152.436C469.575 139.964 460.785 133.824 445.37 123.936M487.889 195.039H437.827C435.551 195.039 433.565 193.502 432.979 191.303C428.467 174.353 424.925 163.733 418.578 147.789C417.723 145.643 418.435 143.187 420.315 141.844L445.37 123.936M487.889 195.039V195.039C491.182 195.039 493.852 192.37 493.852 189.076V153.757C493.852 152.227 493.148 150.777 491.945 149.831C477.284 138.293 468.217 131.592 453.679 121.939C451.957 120.795 449.706 120.838 448.024 122.04L445.37 123.936M403.37 238L427.853 205.037C429.74 202.497 432.717 200.999 435.881 200.999H480.82M403.37 238H502.598M403.37 238H394.815M515.111 238L492.171 205.261C490.3 202.59 487.243 200.999 483.982 200.999H480.82M515.111 238H502.598M515.111 238H564.926M502.598 238L480.82 200.999M375.63 19.9693L377.222 19.3829C378.368 18.9611 379.622 18.9693 380.757 19.418C393.498 24.4544 414.12 33.3009 426.159 38.4656M461.198 66.6547L442.476 73.8634C439.72 74.9244 438.479 78.1298 439.802 80.7696L455.48 112.053C455.822 112.737 456.321 113.335 456.929 113.798C469.832 123.622 477.748 130.077 489.124 139.991C491.547 142.102 495.31 141.434 496.838 138.607L507.593 118.707M461.198 66.6547L461.242 66.6377C462.824 66.0289 464.613 66.2588 465.963 67.2832C480.275 78.1468 488.213 89.0412 497.656 102.002C500.633 106.087 503.759 110.377 507.282 114.937C508.12 116.023 508.246 117.501 507.593 118.707V118.707M461.198 66.6547C475.108 76.9728 483.2 87.5389 492.977 100.303C497.302 105.951 501.958 112.029 507.593 118.707M83.0807 132.709L82.791 132.198C81.7776 130.409 81.9647 128.178 83.2637 126.584C95.5462 111.516 103.742 102.282 118.39 87.133C118.934 86.5708 119.611 86.1375 120.351 85.8824C135.522 80.6471 144.428 78.2673 158.429 75.3691C159.941 75.0562 161.485 75.7491 162.259 77.0844V77.0844M83.0807 132.709C89.4506 142.099 92.8582 148.189 97.5943 157.843C98.5844 159.862 100.791 160.989 103.003 160.587L138.154 154.194C139.477 153.953 140.647 153.189 141.403 152.077C153.136 134.843 161.183 124.74 175.811 109.285C177.307 107.706 177.628 105.339 176.589 103.428L162.259 77.0844M83.0807 132.709C96.4671 116.298 104.315 106.899 117.71 91.531C118.867 90.2032 120.364 89.1992 122.034 88.6378C137.68 83.3758 146.858 80.825 162.259 77.0844M119.222 65.1647V64.4502C119.222 62.8687 119.973 61.3763 121.247 60.4396C137.691 48.3513 148.761 41.9498 169.726 32.6386C170.101 32.4722 170.501 32.3503 170.905 32.2805L186.159 29.6429C187.887 29.3441 189.639 30.0156 190.725 31.3923V31.3923M119.222 65.1647V73.4919C119.222 76.7969 122.372 79.1926 125.557 78.3105L161.236 68.4286C161.911 68.2418 162.539 67.9154 163.079 67.4703C164.111 66.6206 165.096 65.8082 166.043 65.0276C176.525 56.3879 182.28 51.6443 193.549 43.4027C195.846 41.7228 196.308 38.4689 194.545 36.2346L190.725 31.3923M119.222 65.1647C137.882 52.1938 148.939 45.441 168.937 35.415C169.834 34.9654 170.8 34.653 171.79 34.491L190.725 31.3923M197.082 27.9158V27.9158C196.199 26.7104 196.528 25.008 197.797 24.2191L207.869 17.9596C208.741 17.4175 209.692 17.011 210.69 16.7653C227.994 12.5005 242.625 11.1102 264.745 9.00833C266.572 8.83476 268.449 8.65633 270.384 8.47104C271.548 8.35956 272.714 8.65877 273.68 9.31747L274.778 10.0659M197.082 27.9158L202.354 35.1078C203.378 36.5036 205.056 37.2694 206.782 37.1403C225.722 35.7236 237.393 35.502 256.677 36.296C257.658 36.3364 258.634 36.0896 259.475 35.5835L280.799 22.7497C283.923 20.8702 284.05 16.3882 281.038 14.3347L274.778 10.0659M197.082 27.9158L209.308 20.6656C210.087 20.204 210.927 19.8482 211.802 19.6169C230.891 14.5692 246.547 12.9627 273.197 10.2281M274.778 10.0659L273.197 10.2281M274.778 10.0659C274.247 10.1204 273.72 10.1745 273.197 10.2281M168.57 76.0911L168.516 75.9922C167.426 74.0017 167.814 71.5212 169.473 69.973C180.95 59.2644 189.218 52.8387 204.236 42.7795C204.928 42.3161 205.736 42.0304 206.565 41.956C224.637 40.3346 235.419 40.0925 253.14 40.7276C254.828 40.7881 256.375 41.7037 257.242 43.1537L258.185 44.7316M168.57 76.0911L181.836 100.313C182.714 101.915 184.395 102.911 186.222 102.911H232.751C234.095 102.911 235.383 102.367 236.326 101.409C248.387 89.1443 256.215 81.7865 268.952 70.8966C270.811 69.3068 271.264 66.6053 270.009 64.5057L258.185 44.7316M168.57 76.0911C181.517 64.0394 189.241 57.3528 202.455 47.7254C203.968 46.6234 205.774 45.9763 207.641 45.8573C226.598 44.6498 238.179 44.4509 258.185 44.7316M38.0741 228.315L64.5672 218.396C65.8596 217.912 66.8942 216.914 67.4298 215.642C75.3518 196.832 80.9112 185.657 91.4645 167.713C92.2847 166.318 92.3895 164.609 91.7279 163.133C86.5423 151.56 83.1937 145.105 77.2223 135.593M38.0741 228.315L37.6063 228.483C34.6321 229.552 31.4249 227.627 30.9682 224.5L25.0588 184.04C24.9235 183.114 25.0508 182.169 25.426 181.312L40.8863 146C41.4103 144.803 42.382 143.859 43.5933 143.369L70.5355 132.483C72.9828 131.494 75.7773 132.577 76.9178 134.958L77.2223 135.593M38.0741 228.315L30.8259 186.66C30.4809 184.677 30.7421 182.636 31.5754 180.805L44.5026 152.387C45.5373 150.112 47.3861 148.307 49.6849 147.328L77.2223 135.593M265.719 40.8294V40.8294C264.701 38.8954 265.411 36.5025 267.319 35.4365L293.511 20.8021C294.476 20.2626 295.593 20.0585 296.687 20.2217L344.671 27.3813C345.907 27.5658 347.029 28.2065 347.817 29.1773L364.971 50.3328C366.241 51.8979 365.894 54.2145 364.222 55.3397V55.3397M265.719 40.8294L278.187 64.5154C278.972 66.0059 280.454 67.0012 282.131 67.1632L336.771 72.4426C337.925 72.5541 339.082 72.2611 340.043 71.6138L364.222 55.3397M265.719 40.8294L292.32 25.4454C294.289 24.3069 296.587 23.8734 298.835 24.2166L338.972 30.3422C341.282 30.6948 343.396 31.8455 344.946 33.5943L364.222 55.3397M426.159 38.4656L426.184 38.4764M426.159 38.4656C426.167 38.4692 426.176 38.4728 426.184 38.4764M358.733 128.736C343.908 142.212 336.395 150.844 325.588 166.271C324.577 167.714 324.41 169.59 325.142 171.193L342.783 209.828C343.391 211.159 344.551 212.157 345.959 212.559L391.415 225.537C395.216 226.622 399.301 225.366 401.835 222.331L421.519 198.764M358.733 128.736V128.736C359.386 127.987 360.43 127.712 361.368 128.043L403.019 142.729C405.564 143.627 407.645 145.515 408.758 147.974C416.368 164.782 420.046 175.524 424.067 192.617C424.425 194.139 424.041 195.744 423.039 196.944L421.519 198.764M358.733 128.736L399.608 145.336C402.021 146.316 403.96 148.197 404.99 150.589C412.888 168.945 416.39 180.042 421.519 198.764M141.917 164.495L107.145 170.172C104.129 170.665 101.496 172.511 100.031 175.192C92.1301 189.655 87.4132 199.871 81.0836 216.015C79.9488 218.909 80.2471 222.172 81.869 224.825L89.926 238M258.588 144.133L246.887 113.158C245.549 109.617 246.32 105.614 248.919 102.862C257.873 93.3839 264.623 87.0762 274.929 78.3649C277.027 76.5918 279.773 75.7768 282.501 76.0977L330.916 81.7921C334.513 82.2152 337.6 84.5498 338.986 87.8956L353.44 122.776M316.778 238L329.196 219.762C331.146 216.897 331.475 213.227 330.064 210.062L314.979 176.221C313.525 172.96 310.443 170.721 306.892 170.347L269.066 166.364C265.4 165.978 261.818 167.64 259.747 170.69L238.558 201.885C236.443 204.998 236.256 209.035 238.073 212.331L252.222 238M316.778 238H252.222M158.37 238L172.889 211.926M158.37 238H236.926M172.889 211.926H220.852M220.852 211.926L236.926 238M289.815 2.41594L290.593 2C261.501 2.16075 232.133 5.62 204.281 11.7672M289.815 2.41594C290.778 2.39617 291.729 2.37946 292.667 2.36582M289.815 2.41594L282.174 5.32316C281.438 5.60291 281.299 6.58296 281.927 7.05643L284.111 8.70207M368.467 9.69181L367.333 9.04849C472.69 37.0479 546.483 123.233 567.467 235.09M368.467 9.69181C367.47 9.51551 366.488 9.3424 365.519 9.17248M368.467 9.69181L369.532 10.6179C371.176 12.047 370.797 14.6963 368.818 15.6071L368.467 15.7689M31.8519 238L65.9529 224.109C67.5218 223.47 69.323 224.052 70.2223 225.487V225.487M31.8519 238H19.6667M31.8519 238H40.3363M78.2593 238H40.3363M78.2593 238L70.2223 225.487M17.6671 183.616L25.5008 225.682C26.0721 228.75 25.1786 231.909 23.0848 234.222L19.6667 238M17.6671 183.616C11.339 200.275 6.05366 217.217 1.72714 234.97M17.6671 183.616C27.6176 157.421 40.1464 131.924 55.5796 105.067M19.6667 238H4.24508M40.3363 238L70.2223 225.487M4.24508 238C2.58227 238 1.34916 236.521 1.72714 234.97M4.24508 238H4.11565C2.52501 238 1.35052 236.516 1.72714 234.97V234.97M55.5796 105.067C55.833 104.626 56.1621 104.218 56.5422 103.87M55.5796 105.067V105.067C55.8335 104.625 56.1541 104.225 56.5301 103.881C56.5341 103.877 56.5382 103.874 56.5422 103.87M56.5422 103.87C86.3456 76.5996 105.099 62.1651 139.218 40.6393L139.219 40.6383M139.889 40.2806L203.269 12.1001M139.889 40.2806V40.2806C139.658 40.3835 139.433 40.5032 139.219 40.6383V40.6383M139.889 40.2806C139.658 40.3832 139.432 40.5043 139.219 40.6383M203.269 12.1001C203.594 11.9558 203.933 11.8441 204.281 11.7672M203.269 12.1001V12.1001C203.594 11.9558 203.934 11.8437 204.281 11.7672V11.7672M567.467 235.09C567.468 235.094 567.468 235.097 567.469 235.101M567.467 235.09L567.469 235.101M564.926 238H565.053C566.589 238 567.752 236.611 567.469 235.101V235.101M564.926 238C566.529 238 567.745 236.611 567.469 235.101M332.333 238L341.777 223.735C342.935 221.986 345.124 221.236 347.111 221.906V221.906M332.333 238H336.741M394.815 238H336.741M394.815 238L347.111 221.906M336.741 238L347.111 221.906M292.667 2.36582L284.111 8.70207M292.667 2.36582C320.216 1.96526 337.212 4.20957 365.519 9.17248M284.111 8.70207L292.426 14.9796C293.094 15.4841 293.879 15.8127 294.707 15.9352L348.992 23.971C349.964 24.1148 350.956 23.9694 351.845 23.553L368.467 15.7689M365.519 9.17248L368.467 15.7689M169.044 194.086L157.134 158.627C156.119 155.604 156.602 152.272 158.464 149.684C167.47 137.169 174.31 128.886 185.476 116.593C187.36 114.518 190.04 113.34 192.844 113.34H225.065C228.841 113.34 232.294 115.466 233.994 118.838L250.597 151.766C252.239 155.022 251.978 158.915 249.915 161.923L226.164 196.558C224.3 199.277 221.215 200.902 217.917 200.902H178.524C174.228 200.902 170.412 198.159 169.044 194.086ZM186.907 109.367H230.067C232.033 109.367 233.816 110.519 234.625 112.311L253.65 154.465C254.373 156.066 254.202 157.929 253.201 159.372L224.677 200.491C223.743 201.838 222.208 202.641 220.568 202.641H172.876C170.845 202.641 169.016 201.413 168.248 199.534L150.52 156.176C149.914 154.695 150.055 153.007 150.906 151.651C161.242 135.177 168.851 125.672 183.349 110.86C184.285 109.903 185.568 109.367 186.907 109.367Z" stroke="black" stroke-width="3"/>
</svg>
