<svg xmlns="http://www.w3.org/2000/svg" fill="none" viewBox="0 0 1514.5979381443299 410.8" style="max-height: 500px" width="1514.5979381443299" height="410.8">
<path fill="#5B8C86" d="M613.403 129L397 83.2738C397 83.2738 781.452 114.834 1048.48 57.4168C1315.5 0 1512 0 1512 0V50.1873L1362.07 89.2219L1200.64 122.308L1103.68 129H857.765H613.403Z"/>
<path fill="#AEBD7D" d="M1000 163L1265 114.5C1265 114.5 697 149.5 537.75 100C378.5 50.5 0.999756 22.5 0.999756 22.5V163H486L756 196L1000 163Z"/>
<path fill="#216C73" d="M-0.000488281 405.501V142.5C-0.000488281 142.5 310 126.5 651.5 174.5C993 222.5 1512 22 1512 22V113.5L1380 163.5L1234 192.5L1056 223.501L861.5 239.5L662 221L489.5 239.5L235.5 298.5L-0.000488281 405.501Z"/>
<path stroke="#13525B" fill="#13525B" d="M1513 407H-1C-1 407 298.5 183 728.5 219C1158.5 255 1513 105 1513 105V407Z"/>
<path fill="#618165" d="M1473.01 346.519C1474.61 332.14 1473.73 314.673 1463.45 302.883L1461.5 303.635C1471.41 314.997 1472.36 332.053 1470.76 346.408C1469.96 353.561 1472.9 347.48 1473.01 346.519Z"/>
<path fill="#DFA47B" d="M1448.27 298.918C1444.43 295.888 1464.69 291.047 1466.71 293.222C1468.33 291.978 1469.66 292.266 1470.01 293.637C1461.94 298.899 1452.11 301.948 1448.27 298.918Z"/>
<path fill="#9F6D4A" d="M1465.12 293.034C1465.82 293.1 1466.17 293.242 1466.3 293.387C1466.36 293.455 1466.38 293.512 1466.36 293.574C1466.34 293.644 1466.27 293.74 1466.12 293.858C1465.81 294.099 1465.24 294.362 1464.48 294.627C1462.96 295.152 1460.83 295.623 1458.91 295.911C1457.95 296.055 1457.06 296.151 1456.34 296.187C1455.98 296.204 1455.67 296.207 1455.43 296.194C1455.21 296.183 1455.07 296.162 1454.98 296.141C1455 296.121 1455.03 296.094 1455.07 296.061C1455.33 295.836 1455.97 295.495 1457.14 295.023L1456.63 294.475C1455.45 294.95 1454.68 295.341 1454.3 295.662C1454.12 295.818 1453.95 296.012 1453.98 296.226C1454.01 296.472 1454.27 296.623 1454.52 296.703C1454.76 296.78 1455.06 296.816 1455.36 296.832C1455.67 296.848 1456.03 296.844 1456.43 296.825C1457.21 296.786 1458.15 296.683 1459.13 296.535C1461.1 296.239 1463.32 295.753 1464.93 295.195C1465.73 294.918 1466.43 294.609 1466.86 294.276C1467.07 294.108 1467.24 293.916 1467.31 293.704C1467.35 293.563 1467.34 293.422 1467.28 293.286C1467.97 292.806 1468.46 292.719 1468.73 292.76C1468.98 292.798 1469.3 292.991 1469.48 293.527C1465.53 296.082 1461.18 298.084 1457.37 299.089C1453.46 300.122 1450.34 300.054 1448.64 298.714C1448.27 298.42 1448.2 298.125 1448.34 297.809C1448.49 297.469 1448.91 297.086 1449.58 296.68C1450.91 295.871 1453.08 295.067 1455.48 294.414C1457.87 293.763 1460.43 293.276 1462.51 293.085C1463.55 292.989 1464.44 292.97 1465.12 293.034ZM1466.71 292.754C1467.43 292.279 1468.2 292.025 1468.94 292.137C1469.83 292.272 1470.3 292.874 1470.49 293.588L1470.53 293.751L1470.35 293.866C1466.28 296.516 1461.76 298.623 1457.74 299.684C1453.76 300.734 1450.04 300.812 1447.9 299.122C1447.31 298.658 1447.18 298.138 1447.41 297.619C1447.64 297.122 1448.19 296.647 1448.92 296.207C1450.37 295.325 1452.66 294.486 1455.1 293.822C1457.55 293.156 1460.19 292.651 1462.36 292.451C1463.45 292.351 1464.44 292.325 1465.24 292.401C1465.79 292.453 1466.32 292.558 1466.71 292.754Z" clip-rule="evenodd" fill-rule="evenodd"/>
<path fill="#9F6D4A" d="M1458.95 299.075C1462.3 298.199 1465.66 296.252 1469.93 293.27L1469.46 292.976C1465.19 295.958 1461.91 297.84 1458.71 298.678C1455.53 299.509 1452.4 299.325 1448.36 298.098L1448.1 298.485C1452.24 299.746 1455.57 299.96 1458.95 299.075Z" clip-rule="evenodd" fill-rule="evenodd"/>
<path fill="#DFA47B" d="M1469.36 308.946C1472.68 306.788 1473.98 302.652 1469.87 293.33C1462.81 296.546 1459.01 301.208 1450.84 298.772C1442.66 296.337 1452.89 304.279 1454.84 307.858C1456.78 311.436 1466.04 311.104 1469.36 308.946Z"/>
<path fill="#9F6D4A" d="M1470.15 292.814L1469.6 293.066C1467.81 293.881 1466.23 294.787 1464.75 295.637C1464.71 295.659 1464.68 295.68 1464.64 295.702C1463.2 296.532 1461.86 297.302 1460.5 297.904C1459.11 298.52 1457.72 298.949 1456.2 299.085C1454.69 299.22 1453.01 299.069 1451.03 298.481C1450 298.173 1449.19 298.008 1448.59 297.997C1448.29 297.991 1447.99 298.025 1447.74 298.13C1447.48 298.24 1447.33 298.404 1447.27 298.586C1447.15 298.916 1447.31 299.33 1447.55 299.743C1447.79 300.174 1448.17 300.675 1448.62 301.212C1449.25 301.962 1450.03 302.807 1450.82 303.658C1451.16 304.023 1451.5 304.389 1451.83 304.749C1452.94 305.962 1453.91 307.103 1454.38 307.963C1455.45 309.933 1458.51 310.775 1461.56 310.873C1464.62 310.97 1467.92 310.335 1469.7 309.175C1473.24 306.88 1474.45 302.573 1470.34 293.244L1470.15 292.814ZM1469.6 293.852C1473.47 302.856 1472.08 306.727 1469.02 308.717C1467.48 309.715 1464.49 310.325 1461.6 310.233C1458.71 310.142 1456.17 309.361 1455.29 307.752C1454.79 306.822 1453.76 305.629 1452.66 304.422C1452.32 304.052 1451.97 303.68 1451.63 303.312C1450.85 302.468 1450.08 301.643 1449.47 300.907C1449.03 300.38 1448.67 299.91 1448.45 299.523C1448.22 299.117 1448.17 298.864 1448.21 298.736C1448.23 298.689 1448.25 298.677 1448.27 298.669C1448.3 298.657 1448.38 298.633 1448.58 298.636C1448.97 298.644 1449.63 298.763 1450.64 299.064C1452.76 299.694 1454.62 299.873 1456.34 299.719C1458.05 299.565 1459.58 299.084 1461.05 298.437C1462.46 297.812 1463.83 297.019 1465.26 296.199C1465.3 296.173 1465.35 296.147 1465.39 296.122C1466.71 295.361 1468.08 294.575 1469.6 293.852Z" clip-rule="evenodd" fill-rule="evenodd"/>
<path fill="#9F6D4A" d="M1466.05 297.93C1467.79 296.52 1469.4 295.04 1470.41 293.483L1469.23 293.138C1468.28 294.587 1466.76 295.995 1465.05 297.387C1464.19 298.081 1463.29 298.766 1462.4 299.448L1462.38 299.464C1461.49 300.139 1460.61 300.811 1459.79 301.479C1458.14 302.818 1456.69 304.17 1455.93 305.538C1455.16 306.924 1455.09 308.343 1456.23 309.772L1457.37 309.382C1456.44 308.212 1456.47 307.05 1457.15 305.839C1457.83 304.609 1459.16 303.347 1460.79 302.021C1461.6 301.364 1462.47 300.7 1463.36 300.021L1463.38 300.011C1464.27 299.331 1465.18 298.636 1466.05 297.93Z" clip-rule="evenodd" fill-rule="evenodd"/>
<path fill="#618165" d="M1477.68 317.193C1475.98 319.225 1471.33 319.094 1471.33 319.094C1471.33 319.094 1468.77 318.107 1472 314.725C1475.24 311.343 1480.6 311.096 1480.6 311.096C1480.6 311.096 1479.37 315.16 1477.68 317.193Z"/>
<path fill="#324635" d="M1480.58 310.883L1480.6 311.096L1480.92 311.138L1481 310.863L1480.58 310.883ZM1471.33 319.094L1471.32 319.308L1471.24 319.306L1471.17 319.279L1471.33 319.094ZM1480.19 311.346C1480.16 311.447 1480.12 311.571 1480.07 311.715C1479.93 312.126 1479.72 312.695 1479.47 313.326C1478.95 314.595 1478.22 316.097 1477.4 317.089C1476.61 318.028 1475.13 318.482 1473.79 318.697C1473.13 318.805 1472.52 318.85 1472.07 318.869C1471.84 318.879 1471.66 318.881 1471.54 318.882C1471.5 318.882 1471.47 318.882 1471.44 318.882C1471.44 318.88 1471.43 318.879 1471.43 318.877C1471.38 318.851 1471.31 318.808 1471.23 318.747C1471.07 318.624 1470.87 318.426 1470.77 318.129C1470.56 317.537 1470.68 316.505 1472.28 314.84C1473.85 313.194 1475.94 312.312 1477.64 311.84C1478.49 311.604 1479.24 311.471 1479.78 311.397C1479.94 311.375 1480.08 311.359 1480.19 311.346ZM1471.33 319.094C1471.17 319.279 1471.17 319.28 1471.17 319.279L1471.17 319.277L1471.16 319.273L1471.13 319.26C1471.1 319.249 1471.07 319.233 1471.03 319.213C1470.95 319.172 1470.85 319.111 1470.74 319.028C1470.52 318.859 1470.27 318.599 1470.14 318.227C1469.88 317.48 1470.09 316.327 1471.73 314.61C1473.4 312.874 1475.6 311.942 1477.39 311.445C1478.29 311.196 1479.08 311.056 1479.65 310.978C1479.93 310.939 1480.16 310.915 1480.32 310.901C1480.4 310.894 1480.47 310.89 1480.51 310.887L1480.56 310.884L1480.57 310.883L1480.58 310.883L1480.6 311.096L1480.92 311.138L1480.92 311.142L1480.91 311.151L1480.9 311.186L1480.86 311.319C1480.82 311.435 1480.77 311.603 1480.7 311.811C1480.55 312.225 1480.35 312.8 1480.09 313.438C1479.57 314.71 1478.83 316.256 1477.96 317.296C1477.04 318.389 1475.35 318.886 1473.94 319.113C1473.24 319.228 1472.58 319.276 1472.11 319.296C1471.87 319.306 1471.67 319.309 1471.54 319.31C1471.47 319.31 1471.42 319.31 1471.38 319.309L1471.34 319.308L1471.33 319.308L1471.32 319.308L1471.33 319.094Z" clip-rule="evenodd" fill-rule="evenodd"/>
<path fill="#618165" d="M1435.73 690.145C1439.4 656.179 1437.38 614.919 1413.88 587.07L1409.43 588.845C1432.08 615.686 1434.26 655.974 1430.6 689.883C1428.78 706.779 1435.49 692.416 1435.73 690.145Z"/>
<path fill="#DFA47B" d="M1379.19 577.703C1370.41 570.546 1416.72 559.111 1421.35 564.248C1425.05 561.31 1428.08 561.99 1428.88 565.23C1410.43 577.659 1387.97 584.86 1379.19 577.703Z"/>
<path fill="#9F6D4A" d="M1417.7 563.805C1419.3 563.961 1420.09 564.296 1420.4 564.639C1420.55 564.799 1420.57 564.935 1420.53 565.079C1420.48 565.246 1420.33 565.471 1419.98 565.751C1419.27 566.319 1417.98 566.943 1416.23 567.568C1412.77 568.808 1407.89 569.92 1403.51 570.6C1401.32 570.94 1399.29 571.167 1397.64 571.251C1396.82 571.294 1396.11 571.299 1395.54 571.269C1395.06 571.244 1394.73 571.194 1394.53 571.144C1394.57 571.097 1394.63 571.034 1394.72 570.954C1395.33 570.424 1396.78 569.618 1399.47 568.502L1398.3 567.208C1395.6 568.332 1393.85 569.254 1392.98 570.012C1392.55 570.381 1392.18 570.839 1392.24 571.345C1392.32 571.925 1392.9 572.283 1393.47 572.472C1394.02 572.654 1394.7 572.74 1395.4 572.776C1396.11 572.814 1396.94 572.804 1397.83 572.759C1399.62 572.667 1401.76 572.424 1404.02 572.074C1408.52 571.375 1413.59 570.226 1417.28 568.908C1419.1 568.255 1420.69 567.525 1421.67 566.739C1422.16 566.341 1422.56 565.889 1422.7 565.387C1422.8 565.054 1422.78 564.721 1422.64 564.399C1424.21 563.267 1425.35 563.062 1425.96 563.158C1426.52 563.247 1427.26 563.703 1427.68 564.969C1418.63 571.004 1408.7 575.734 1399.99 578.109C1391.04 580.548 1383.92 580.386 1380.03 577.221C1379.18 576.526 1379.02 575.831 1379.35 575.084C1379.7 574.281 1380.65 573.377 1382.17 572.417C1385.21 570.506 1390.19 568.606 1395.67 567.064C1401.13 565.526 1406.99 564.376 1411.73 563.925C1414.11 563.699 1416.15 563.654 1417.7 563.805ZM1421.33 563.144C1422.99 562.022 1424.75 561.42 1426.44 561.686C1428.47 562.005 1429.55 563.427 1429.97 565.112L1430.06 565.498L1429.66 565.77C1420.36 572.03 1410.02 577.006 1400.83 579.513C1391.73 581.992 1383.24 582.177 1378.34 578.185C1377 577.09 1376.69 575.862 1377.23 574.635C1377.74 573.462 1379.01 572.339 1380.66 571.3C1383.98 569.215 1389.23 567.235 1394.81 565.666C1400.4 564.092 1406.44 562.9 1411.4 562.428C1413.88 562.192 1416.15 562.13 1417.99 562.309C1419.24 562.431 1420.43 562.68 1421.33 563.144Z" clip-rule="evenodd" fill-rule="evenodd"/>
<path fill="#9F6D4A" d="M1403.6 578.075C1411.25 576.004 1418.94 571.406 1428.69 564.363L1427.61 563.667C1417.86 570.712 1410.37 575.156 1403.04 577.138C1395.79 579.099 1388.62 578.666 1379.4 575.767L1378.79 576.682C1388.27 579.659 1395.87 580.165 1403.6 578.075Z" clip-rule="evenodd" fill-rule="evenodd"/>
<path fill="#DFA47B" d="M1427.4 601.392C1434.99 596.294 1437.95 586.525 1428.57 564.504C1412.43 572.1 1403.74 583.113 1385.06 577.36C1366.38 571.606 1389.75 590.367 1394.2 598.82C1398.64 607.274 1419.8 606.489 1427.4 601.392Z"/>
<path fill="#9F6D4A" d="M1429.2 563.285L1427.94 563.88C1423.84 565.806 1420.23 567.946 1416.86 569.954C1416.77 570.005 1416.69 570.056 1416.6 570.107C1413.31 572.068 1410.26 573.885 1407.15 575.309C1403.97 576.763 1400.78 577.776 1397.31 578.098C1393.85 578.418 1390.02 578.06 1385.51 576.671C1383.15 575.945 1381.3 575.553 1379.92 575.528C1379.22 575.515 1378.54 575.595 1377.98 575.842C1377.39 576.102 1377.05 576.49 1376.9 576.919C1376.64 577.699 1376.99 578.678 1377.53 579.654C1378.1 580.671 1378.96 581.854 1379.99 583.122C1381.42 584.894 1383.21 586.89 1385.02 588.901C1385.79 589.763 1386.57 590.627 1387.32 591.477C1389.85 594.344 1392.09 597.038 1393.16 599.069C1395.61 603.723 1402.59 605.712 1409.58 605.942C1416.57 606.172 1424.1 604.673 1428.18 601.933C1436.26 596.512 1439.02 586.337 1429.63 564.3L1429.2 563.285ZM1427.94 565.736C1436.78 587.006 1433.62 596.151 1426.62 600.85C1423.1 603.208 1416.26 604.649 1409.66 604.433C1403.06 604.216 1397.24 602.371 1395.24 598.571C1394.08 596.375 1391.73 593.555 1389.21 590.706C1388.44 589.831 1387.65 588.953 1386.87 588.084C1385.08 586.088 1383.33 584.142 1381.92 582.402C1380.92 581.157 1380.11 580.048 1379.6 579.132C1379.07 578.173 1378.96 577.576 1379.06 577.274C1379.1 577.163 1379.15 577.134 1379.19 577.117C1379.26 577.087 1379.45 577.03 1379.89 577.039C1380.79 577.055 1382.3 577.336 1384.61 578.048C1389.44 579.536 1393.7 579.959 1397.63 579.595C1401.55 579.233 1405.05 578.096 1408.39 576.567C1411.62 575.09 1414.76 573.218 1418.02 571.281C1418.12 571.22 1418.22 571.159 1418.32 571.098C1421.34 569.301 1424.47 567.446 1427.94 565.736Z" clip-rule="evenodd" fill-rule="evenodd"/>
<path fill="#9F6D4A" d="M1419.83 575.369C1423.81 572.039 1427.48 568.544 1429.8 564.864L1427.09 564.05C1424.93 567.474 1421.46 570.799 1417.54 574.087C1415.58 575.727 1413.53 577.345 1411.48 578.956L1411.43 578.993C1409.41 580.588 1407.39 582.176 1405.52 583.752C1401.75 586.916 1398.44 590.109 1396.71 593.341C1394.95 596.615 1394.78 599.968 1397.37 603.342L1399.98 602.421C1397.86 599.657 1397.94 596.913 1399.48 594.052C1401.04 591.148 1404.08 588.167 1407.81 585.034C1409.66 583.482 1411.65 581.913 1413.69 580.31L1413.72 580.286C1415.76 578.678 1417.84 577.038 1419.83 575.369Z" clip-rule="evenodd" fill-rule="evenodd"/>
<path fill="#618165" d="M1446.4 620.872C1442.52 625.672 1431.9 625.364 1431.9 625.364C1431.9 625.364 1426.03 623.032 1433.44 615.043C1440.84 607.054 1453.09 606.471 1453.09 606.471C1453.09 606.471 1450.28 616.071 1446.4 620.872Z"/>
<path fill="#324635" d="M1453.04 605.966L1453.09 606.47L1453.81 606.57L1454 605.92L1453.04 605.966ZM1431.91 625.363L1431.88 625.868L1431.7 625.863L1431.54 625.801L1431.91 625.363ZM1452.16 607.061C1452.08 607.3 1451.99 607.593 1451.87 607.933C1451.55 608.903 1451.08 610.246 1450.49 611.738C1449.31 614.736 1447.65 618.284 1445.76 620.626C1443.97 622.844 1440.59 623.917 1437.53 624.426C1436.01 624.679 1434.61 624.787 1433.58 624.832C1433.07 624.854 1432.65 624.861 1432.37 624.862C1432.28 624.862 1432.21 624.862 1432.14 624.861C1432.14 624.858 1432.13 624.855 1432.13 624.851C1432.01 624.789 1431.84 624.688 1431.66 624.542C1431.29 624.253 1430.85 623.784 1430.61 623.083C1430.13 621.684 1430.42 619.246 1434.06 615.314C1437.66 611.426 1442.44 609.342 1446.32 608.227C1448.27 607.669 1449.98 607.355 1451.21 607.181C1451.57 607.13 1451.89 607.091 1452.16 607.061ZM1431.91 625.363C1431.54 625.801 1431.54 625.801 1431.54 625.801L1431.53 625.795L1431.5 625.785L1431.43 625.755C1431.38 625.729 1431.3 625.692 1431.21 625.644C1431.04 625.548 1430.8 625.404 1430.55 625.206C1430.05 624.808 1429.48 624.195 1429.18 623.315C1428.58 621.55 1429.06 618.828 1432.82 614.771C1436.62 610.669 1441.67 608.468 1445.76 607.294C1447.8 606.707 1449.61 606.376 1450.91 606.191C1451.56 606.099 1452.09 606.043 1452.45 606.01C1452.64 605.993 1452.78 605.983 1452.88 605.976L1452.99 605.969L1453.02 605.967L1453.04 605.966L1453.09 606.47L1453.81 606.57L1453.81 606.578L1453.8 606.599L1453.78 606.682L1453.68 606.998C1453.6 607.272 1453.47 607.668 1453.31 608.158C1452.98 609.138 1452.51 610.495 1451.91 612.003C1450.72 615.006 1449.03 618.658 1447.05 621.117C1444.96 623.699 1441.09 624.872 1437.87 625.409C1436.25 625.679 1434.76 625.793 1433.67 625.841C1433.13 625.865 1432.69 625.872 1432.37 625.873C1432.22 625.873 1432.1 625.872 1432.01 625.871L1431.91 625.869L1431.89 625.869L1431.88 625.868L1431.91 625.363Z" clip-rule="evenodd" fill-rule="evenodd"/>
<path fill="#618165" d="M1447.52 906.658C1459.53 882.368 1469.27 851.081 1459.21 823.877L1455.38 823.974C1465.07 850.194 1455.73 880.802 1443.73 905.051C1437.75 917.133 1446.71 908.281 1447.52 906.658Z"/>
<path fill="#DFA47B" d="M1435.7 807.358C1431.06 799.613 1468.96 803.831 1471.04 808.931C1474.62 807.761 1476.72 809.102 1476.43 811.734C1459.18 815.917 1440.35 815.104 1435.7 807.358Z"/>
<path fill="#9F6D4A" d="M1468.42 807.597C1469.58 808.154 1470.09 808.622 1470.22 808.962C1470.29 809.121 1470.27 809.23 1470.2 809.326C1470.12 809.437 1469.94 809.562 1469.6 809.674C1468.91 809.902 1467.78 810.012 1466.29 809.997C1463.35 809.968 1459.39 809.455 1455.91 808.756C1454.17 808.407 1452.58 808.017 1451.32 807.627C1450.69 807.432 1450.16 807.242 1449.74 807.064C1449.38 806.91 1449.15 806.783 1449.01 806.691C1449.06 806.667 1449.12 806.637 1449.21 806.602C1449.81 806.376 1451.12 806.174 1453.44 806.081L1452.92 804.798C1450.58 804.891 1449.02 805.096 1448.16 805.421C1447.74 805.579 1447.33 805.819 1447.24 806.212C1447.14 806.664 1447.48 807.092 1447.86 807.39C1448.22 807.677 1448.71 807.927 1449.22 808.146C1449.75 808.371 1450.37 808.59 1451.05 808.802C1452.42 809.225 1454.1 809.635 1455.89 809.994C1459.46 810.713 1463.59 811.251 1466.71 811.283C1468.26 811.298 1469.65 811.19 1470.6 810.874C1471.08 810.715 1471.5 810.486 1471.75 810.152C1471.91 809.931 1471.99 809.677 1471.97 809.399C1473.46 808.988 1474.37 809.148 1474.8 809.388C1475.2 809.609 1475.63 810.152 1475.6 811.209C1467.16 813.216 1458.4 814.006 1451.21 813.38C1443.83 812.736 1438.52 810.656 1436.47 807.23C1436.02 806.479 1436.08 805.917 1436.54 805.45C1437.02 804.95 1437.98 804.536 1439.38 804.241C1442.19 803.654 1446.44 803.607 1450.98 803.965C1455.51 804.323 1460.22 805.077 1463.91 806.046C1465.75 806.531 1467.3 807.059 1468.42 807.597ZM1471.33 808.103C1472.88 807.724 1474.37 807.761 1475.56 808.422C1477 809.218 1477.43 810.576 1477.28 811.945L1477.25 812.258L1476.87 812.35C1468.18 814.457 1459.05 815.318 1451.46 814.656C1443.96 814.003 1437.53 811.804 1434.94 807.484C1434.22 806.299 1434.33 805.299 1435.07 804.533C1435.77 803.801 1437.03 803.314 1438.56 802.995C1441.62 802.354 1446.1 802.322 1450.72 802.687C1455.35 803.053 1460.21 803.826 1464.07 804.841C1465.99 805.347 1467.71 805.924 1469.05 806.563C1469.95 806.998 1470.78 807.512 1471.33 808.103Z" clip-rule="evenodd" fill-rule="evenodd"/>
<path fill="#9F6D4A" d="M1453.94 814.348C1460.25 814.911 1467.28 813.6 1476.52 811.036L1475.9 810.221C1466.66 812.786 1459.82 814.035 1453.78 813.497C1447.8 812.964 1442.53 810.669 1436.38 805.972L1435.68 806.487C1441.99 811.311 1447.56 813.779 1453.94 814.348Z" clip-rule="evenodd" fill-rule="evenodd"/>
<path fill="#DFA47B" d="M1465.46 838.259C1472.55 836.552 1477.44 830.089 1476.4 811.108C1462.2 812.326 1452.67 818.139 1440.2 808.716C1427.74 799.292 1440.18 819.694 1441.22 827.213C1442.25 834.733 1458.36 839.967 1465.46 838.259Z"/>
<path fill="#9F6D4A" d="M1477.2 810.374L1476.09 810.47C1472.49 810.778 1469.19 811.378 1466.11 811.946C1466.03 811.961 1465.96 811.975 1465.88 811.99C1462.87 812.545 1460.08 813.059 1457.36 813.263C1454.57 813.472 1451.9 813.35 1449.21 812.635C1446.52 811.923 1443.74 810.601 1440.73 808.326C1439.15 807.136 1437.87 806.336 1436.85 805.94C1436.33 805.737 1435.79 805.61 1435.3 805.639C1434.79 805.669 1434.42 805.865 1434.2 806.145C1433.79 806.653 1433.79 807.48 1433.93 808.355C1434.07 809.268 1434.4 810.387 1434.82 811.614C1435.42 813.327 1436.22 815.307 1437.03 817.301C1437.37 818.156 1437.72 819.013 1438.05 819.853C1439.18 822.685 1440.12 825.307 1440.37 827.113C1440.94 831.253 1445.64 834.655 1450.83 836.748C1456.02 838.842 1462.08 839.795 1465.9 838.878C1473.44 837.062 1478.29 830.243 1477.25 811.249L1477.2 810.374ZM1475.59 811.853C1476.43 830.126 1471.56 836.068 1465.02 837.642C1461.74 838.432 1456.2 837.622 1451.3 835.646C1446.4 833.669 1442.53 830.695 1442.07 827.315C1441.8 825.361 1440.8 822.613 1439.69 819.799C1439.34 818.935 1438.99 818.064 1438.64 817.201C1437.84 815.222 1437.06 813.292 1436.47 811.609C1436.06 810.405 1435.75 809.357 1435.62 808.535C1435.49 807.676 1435.56 807.199 1435.72 807.002C1435.78 806.93 1435.83 806.923 1435.86 806.921C1435.92 806.917 1436.08 806.928 1436.41 807.055C1437.08 807.317 1438.14 807.941 1439.68 809.106C1442.91 811.543 1445.99 813.029 1449.04 813.839C1452.08 814.646 1455.02 814.762 1457.95 814.543C1460.78 814.331 1463.65 813.801 1466.62 813.253C1466.71 813.235 1466.81 813.218 1466.9 813.201C1469.66 812.692 1472.52 812.173 1475.59 811.853Z" clip-rule="evenodd" fill-rule="evenodd"/>
<path fill="#9F6D4A" d="M1466.87 816.797C1470.76 815.409 1474.47 813.817 1477.22 811.715L1475.41 810.363C1472.85 812.318 1469.34 813.841 1465.5 815.211C1463.58 815.894 1461.59 816.535 1459.62 817.172L1459.57 817.187C1457.62 817.817 1455.67 818.446 1453.83 819.104C1450.14 820.423 1446.78 821.893 1444.6 823.822C1442.38 825.777 1441.34 828.229 1442.37 831.454L1444.58 831.486C1443.74 828.844 1444.55 826.822 1446.48 825.114C1448.45 823.38 1451.55 821.997 1455.2 820.69C1457.02 820.042 1458.94 819.421 1460.91 818.787L1460.94 818.778C1462.91 818.142 1464.92 817.492 1466.87 816.797Z" clip-rule="evenodd" fill-rule="evenodd"/>
<path fill="#618165" d="M1474.42 857.995C1470.2 860.504 1462.31 857.354 1462.31 857.354C1462.31 857.354 1458.53 854.003 1466.27 850.088C1474.01 846.173 1483.37 849.108 1483.37 849.108C1483.37 849.108 1478.64 855.487 1474.42 857.995Z"/>
<path fill="#324635" d="M1483.47 848.719L1483.37 849.109L1483.89 849.381L1484.21 848.949L1483.47 848.719ZM1462.31 857.355L1462.15 857.722L1462.01 857.669L1461.91 857.579L1462.31 857.355ZM1482.51 849.292C1482.39 849.449 1482.24 849.642 1482.06 849.864C1481.55 850.498 1480.83 851.369 1479.98 852.318C1478.28 854.224 1476.07 856.412 1474.01 857.636C1472.05 858.795 1469.22 858.664 1466.78 858.202C1465.58 857.973 1464.49 857.668 1463.71 857.419C1463.32 857.295 1463 857.185 1462.79 857.108C1462.72 857.084 1462.67 857.063 1462.62 857.046C1462.62 857.042 1462.61 857.038 1462.61 857.033C1462.54 856.955 1462.44 856.834 1462.35 856.675C1462.15 856.359 1461.95 855.889 1461.96 855.3C1461.98 854.127 1462.85 852.388 1466.66 850.461C1470.43 848.556 1474.59 848.318 1477.81 848.556C1479.42 848.675 1480.8 848.913 1481.76 849.121C1482.05 849.182 1482.3 849.24 1482.51 849.292ZM1462.31 857.355C1461.91 857.579 1461.91 857.58 1461.91 857.579L1461.9 857.571L1461.89 857.558L1461.84 857.516C1461.81 857.481 1461.76 857.433 1461.71 857.373C1461.6 857.252 1461.47 857.081 1461.33 856.864C1461.06 856.43 1460.81 855.818 1460.82 855.079C1460.85 853.598 1461.95 851.704 1465.88 849.716C1469.85 847.706 1474.24 847.455 1477.64 847.705C1479.33 847.831 1480.78 848.081 1481.81 848.302C1482.33 848.412 1482.73 848.515 1483.02 848.591C1483.16 848.629 1483.27 848.66 1483.35 848.682L1483.44 848.708L1483.46 848.716L1483.47 848.719L1483.37 849.109L1483.89 849.381L1483.88 849.386L1483.87 849.4L1483.83 849.455L1483.67 849.664C1483.53 849.845 1483.33 850.105 1483.07 850.425C1482.56 851.066 1481.84 851.946 1480.98 852.905C1479.27 854.815 1477 857.071 1474.84 858.355C1472.57 859.705 1469.34 859.515 1466.78 859.029C1465.49 858.785 1464.33 858.46 1463.5 858.196C1463.09 858.064 1462.75 857.947 1462.52 857.862C1462.4 857.82 1462.31 857.786 1462.25 857.762L1462.17 857.734L1462.15 857.726L1462.15 857.722L1462.31 857.355Z" clip-rule="evenodd" fill-rule="evenodd"/>
<path fill="#618165" d="M1400.34 1114.3C1422.79 1097.78 1447.07 1074.34 1453.22 1046.99L1450.08 1045.64C1444.15 1071.99 1420.54 1094.99 1398.13 1111.49C1386.96 1119.71 1398.84 1115.41 1400.34 1114.3Z"/>
<path fill="#DFA47B" d="M1442.9 1023.85C1443.22 1015.4 1471.61 1033.3 1470.61 1038.49C1474.12 1038.83 1475.11 1040.78 1473.5 1042.95C1457.37 1040.09 1442.59 1032.31 1442.9 1023.85Z"/>
<path fill="#9F6D4A" d="M1469.2 1036.35C1469.84 1037.27 1470.01 1037.87 1469.94 1038.22C1469.91 1038.38 1469.84 1038.46 1469.73 1038.52C1469.61 1038.59 1469.4 1038.63 1469.06 1038.6C1468.39 1038.54 1467.41 1038.21 1466.22 1037.63C1463.86 1036.5 1460.93 1034.57 1458.49 1032.66C1457.27 1031.7 1456.19 1030.77 1455.38 1029.96C1454.97 1029.55 1454.64 1029.19 1454.4 1028.87C1454.19 1028.61 1454.06 1028.41 1454 1028.28C1454.05 1028.27 1454.12 1028.27 1454.21 1028.27C1454.81 1028.3 1455.97 1028.62 1457.9 1029.41L1458.15 1028.11C1456.22 1027.31 1454.84 1026.9 1453.98 1026.85C1453.55 1026.83 1453.1 1026.89 1452.82 1027.2C1452.5 1027.55 1452.55 1028.05 1452.7 1028.45C1452.85 1028.83 1453.11 1029.23 1453.41 1029.61C1453.71 1030.01 1454.1 1030.43 1454.54 1030.87C1455.42 1031.75 1456.56 1032.74 1457.82 1033.72C1460.33 1035.69 1463.38 1037.7 1465.89 1038.91C1467.13 1039.5 1468.31 1039.93 1469.24 1040.01C1469.71 1040.06 1470.17 1040.02 1470.55 1039.82C1470.79 1039.69 1470.99 1039.5 1471.12 1039.25C1472.54 1039.45 1473.19 1039.93 1473.41 1040.31C1473.62 1040.65 1473.68 1041.28 1473.1 1042.18C1465.23 1040.75 1457.75 1038.14 1452.27 1034.9C1446.64 1031.56 1443.45 1027.77 1443.59 1024.03C1443.62 1023.21 1443.97 1022.75 1444.58 1022.51C1445.23 1022.26 1446.22 1022.26 1447.51 1022.54C1450.09 1023.08 1453.55 1024.64 1457.02 1026.66C1460.49 1028.67 1463.9 1031.09 1466.37 1033.31C1467.6 1034.43 1468.57 1035.47 1469.2 1036.35ZM1471.28 1037.89C1472.73 1038.14 1473.92 1038.73 1474.53 1039.75C1475.28 1040.98 1474.91 1042.32 1474.07 1043.45L1473.88 1043.71L1473.53 1043.65C1465.4 1042.21 1457.58 1039.52 1451.8 1036.1C1446.08 1032.71 1442.04 1028.39 1442.22 1023.67C1442.26 1022.38 1442.87 1021.55 1443.87 1021.17C1444.83 1020.8 1446.1 1020.85 1447.5 1021.14C1450.3 1021.74 1453.94 1023.4 1457.48 1025.45C1461.03 1027.51 1464.55 1030 1467.13 1032.33C1468.42 1033.49 1469.51 1034.64 1470.25 1035.69C1470.75 1036.41 1471.15 1037.17 1471.28 1037.89Z" clip-rule="evenodd" fill-rule="evenodd"/>
<path fill="#9F6D4A" d="M1453.96 1036.76C1458.76 1039.62 1465.13 1041.12 1473.94 1042.38L1473.87 1041.44C1465.05 1040.19 1458.87 1038.7 1454.28 1035.96C1449.73 1033.25 1446.68 1029.28 1444.18 1022.91L1443.34 1023.09C1445.9 1029.64 1449.11 1033.87 1453.96 1036.76Z" clip-rule="evenodd" fill-rule="evenodd"/>
<path fill="#DFA47B" d="M1450.72 1061.8C1457.34 1062.99 1464.68 1059.23 1473.8 1042.39C1461.69 1038.11 1450.95 1039.57 1445.83 1026.72C1440.7 1013.87 1440.05 1036.22 1436.94 1043.12C1433.83 1050.03 1444.09 1060.61 1450.72 1061.8Z"/>
<path fill="#9F6D4A" d="M1474.83 1042.06L1473.89 1041.73C1470.82 1040.64 1467.84 1039.92 1465.05 1039.25C1464.98 1039.24 1464.91 1039.22 1464.84 1039.2C1462.12 1038.55 1459.6 1037.95 1457.29 1037.1C1454.93 1036.24 1452.84 1035.13 1451.04 1033.5C1449.24 1031.87 1447.69 1029.68 1446.45 1026.58C1445.81 1024.96 1445.19 1023.78 1444.57 1023.05C1444.26 1022.68 1443.89 1022.37 1443.48 1022.21C1443.05 1022.04 1442.65 1022.08 1442.32 1022.23C1441.73 1022.52 1441.29 1023.24 1440.95 1024.05C1440.58 1024.89 1440.26 1025.99 1439.96 1027.21C1439.54 1028.91 1439.15 1030.93 1438.76 1032.96C1438.59 1033.83 1438.42 1034.71 1438.25 1035.56C1437.67 1038.43 1437.05 1041.06 1436.31 1042.72C1434.59 1046.52 1436.61 1051.23 1439.7 1054.99C1442.79 1058.76 1447.18 1061.86 1450.75 1062.5C1457.79 1063.76 1465.29 1059.68 1474.41 1042.84L1474.83 1042.06ZM1472.75 1042.74C1463.84 1058.88 1456.8 1062.2 1450.69 1061.1C1447.62 1060.55 1443.57 1057.77 1440.66 1054.22C1437.74 1050.66 1436.17 1046.63 1437.57 1043.53C1438.38 1041.74 1439.01 1038.98 1439.59 1036.12C1439.77 1035.25 1439.94 1034.36 1440.11 1033.48C1440.5 1031.47 1440.88 1029.5 1441.3 1027.82C1441.59 1026.62 1441.9 1025.6 1442.22 1024.84C1442.56 1024.04 1442.87 1023.66 1443.1 1023.55C1443.19 1023.51 1443.23 1023.52 1443.26 1023.53C1443.31 1023.55 1443.43 1023.62 1443.63 1023.85C1444.04 1024.33 1444.57 1025.27 1445.2 1026.86C1446.52 1030.18 1448.23 1032.63 1450.27 1034.48C1452.3 1036.32 1454.62 1037.52 1457.1 1038.43C1459.49 1039.31 1462.09 1039.93 1464.78 1040.58C1464.86 1040.6 1464.95 1040.62 1465.03 1040.64C1467.52 1041.23 1470.11 1041.86 1472.75 1042.74Z" clip-rule="evenodd" fill-rule="evenodd"/>
<path fill="#9F6D4A" d="M1463.12 1043.74C1466.99 1044 1470.82 1044.02 1474.15 1043.23L1473.39 1041.38C1470.3 1042.11 1466.66 1042.11 1462.84 1041.85C1460.93 1041.72 1459 1041.53 1457.07 1041.34L1457.02 1041.34C1455.11 1041.15 1453.21 1040.96 1451.38 1040.84C1447.7 1040.59 1444.22 1040.61 1441.45 1041.46C1438.63 1042.32 1436.51 1044.05 1435.64 1047.23L1437.41 1048.09C1438.12 1045.48 1439.83 1044.04 1442.29 1043.28C1444.79 1042.52 1448.02 1042.49 1451.66 1042.73C1453.46 1042.85 1455.34 1043.03 1457.26 1043.22L1457.29 1043.23C1459.21 1043.42 1461.18 1043.61 1463.12 1043.74Z" clip-rule="evenodd" fill-rule="evenodd"/>
<path fill="#618165" d="M1447.6 1082.26C1442.87 1082.85 1438.15 1077.16 1438.15 1077.16C1438.15 1077.16 1436.86 1072.83 1445.17 1072.35C1453.47 1071.87 1459.49 1077.93 1459.49 1077.93C1459.49 1077.93 1452.33 1081.68 1447.6 1082.26Z"/>
<path fill="#324635" d="M1459.78 1077.63L1459.49 1077.93L1459.76 1078.36L1460.25 1078.11L1459.78 1077.63ZM1438.15 1077.16L1437.83 1077.41L1437.75 1077.32L1437.72 1077.2L1438.15 1077.16ZM1458.7 1077.77C1458.52 1077.86 1458.29 1077.97 1458.03 1078.09C1457.29 1078.45 1456.26 1078.93 1455.07 1079.44C1452.69 1080.45 1449.76 1081.51 1447.45 1081.8C1445.27 1082.07 1443.05 1080.89 1441.32 1079.57C1440.47 1078.92 1439.75 1078.25 1439.25 1077.74C1439 1077.48 1438.81 1077.27 1438.67 1077.12C1438.63 1077.08 1438.6 1077.04 1438.57 1077.01C1438.57 1077 1438.57 1077 1438.57 1076.99C1438.55 1076.9 1438.54 1076.76 1438.54 1076.58C1438.55 1076.24 1438.63 1075.75 1438.95 1075.25C1439.58 1074.24 1441.2 1073.06 1445.29 1072.82C1449.33 1072.59 1452.81 1073.94 1455.29 1075.36C1456.53 1076.07 1457.51 1076.79 1458.19 1077.34C1458.38 1077.5 1458.56 1077.64 1458.7 1077.77ZM1438.15 1077.16C1437.72 1077.2 1437.72 1077.2 1437.72 1077.2L1437.71 1077.19L1437.71 1077.17L1437.7 1077.12C1437.69 1077.08 1437.67 1077.02 1437.66 1076.95C1437.64 1076.8 1437.62 1076.6 1437.62 1076.37C1437.63 1075.89 1437.75 1075.26 1438.15 1074.63C1438.94 1073.35 1440.83 1072.13 1445.05 1071.88C1449.31 1071.63 1452.99 1073.07 1455.6 1074.56C1456.9 1075.31 1457.94 1076.07 1458.65 1076.64C1459.01 1076.93 1459.29 1077.18 1459.48 1077.35C1459.57 1077.44 1459.65 1077.5 1459.7 1077.55L1459.75 1077.61L1459.77 1077.62L1459.78 1077.63L1459.49 1077.93L1459.76 1078.36L1459.76 1078.36L1459.74 1078.37L1459.68 1078.4L1459.44 1078.52C1459.23 1078.63 1458.93 1078.78 1458.56 1078.96C1457.81 1079.32 1456.76 1079.81 1455.56 1080.32C1453.18 1081.33 1450.17 1082.43 1447.75 1082.73C1445.21 1083.05 1442.7 1081.67 1440.88 1080.29C1439.97 1079.59 1439.21 1078.87 1438.68 1078.34C1438.41 1078.06 1438.2 1077.84 1438.06 1077.68C1437.99 1077.6 1437.93 1077.53 1437.89 1077.49L1437.85 1077.44L1437.84 1077.42L1437.83 1077.41L1438.15 1077.16Z" clip-rule="evenodd" fill-rule="evenodd"/>
<path fill="#618165" d="M1316.03 1285.9C1339.72 1271.2 1365.77 1249.76 1374.07 1222.98L1371.04 1221.39C1363.05 1247.19 1337.69 1268.25 1314.05 1282.92C1302.27 1290.23 1314.45 1286.88 1316.03 1285.9Z"/>
<path fill="#DFA47B" d="M1365.61 1199.1C1366.59 1190.69 1393.49 1210.78 1392.08 1215.89C1395.55 1216.49 1396.38 1218.52 1394.6 1220.55C1378.75 1216.43 1364.63 1207.5 1365.61 1199.1Z"/>
<path fill="#9F6D4A" d="M1390.84 1213.64C1391.41 1214.61 1391.52 1215.21 1391.43 1215.55C1391.38 1215.71 1391.31 1215.79 1391.2 1215.84C1391.07 1215.9 1390.85 1215.92 1390.53 1215.87C1389.86 1215.75 1388.91 1215.34 1387.77 1214.68C1385.51 1213.37 1382.73 1211.21 1380.45 1209.11C1379.31 1208.06 1378.31 1207.04 1377.56 1206.17C1377.19 1205.73 1376.89 1205.34 1376.67 1205.01C1376.48 1204.73 1376.38 1204.52 1376.33 1204.39C1376.37 1204.38 1376.44 1204.39 1376.53 1204.4C1377.13 1204.48 1378.27 1204.88 1380.12 1205.83L1380.48 1204.54C1378.61 1203.59 1377.28 1203.08 1376.41 1202.97C1375.99 1202.91 1375.54 1202.93 1375.24 1203.22C1374.89 1203.54 1374.9 1204.04 1375.02 1204.45C1375.13 1204.85 1375.36 1205.27 1375.63 1205.67C1375.9 1206.09 1376.26 1206.54 1376.66 1207.02C1377.47 1207.96 1378.53 1209.04 1379.7 1210.12C1382.05 1212.27 1384.93 1214.52 1387.33 1215.92C1388.53 1216.61 1389.67 1217.13 1390.59 1217.29C1391.06 1217.37 1391.52 1217.37 1391.91 1217.2C1392.16 1217.09 1392.37 1216.91 1392.52 1216.68C1393.92 1216.99 1394.53 1217.52 1394.73 1217.91C1394.91 1218.27 1394.92 1218.9 1394.27 1219.76C1386.53 1217.71 1379.28 1214.52 1374.08 1210.85C1368.73 1207.08 1365.85 1203.04 1366.28 1199.33C1366.38 1198.51 1366.76 1198.08 1367.39 1197.89C1368.06 1197.7 1369.04 1197.77 1370.31 1198.15C1372.83 1198.9 1376.16 1200.72 1379.47 1203.01C1382.76 1205.29 1385.97 1207.97 1388.26 1210.39C1389.4 1211.59 1390.29 1212.71 1390.84 1213.64ZM1392.79 1215.33C1394.22 1215.7 1395.35 1216.38 1395.89 1217.45C1396.53 1218.73 1396.06 1220.04 1395.13 1221.1L1394.92 1221.34L1394.57 1221.25C1386.59 1219.17 1379.01 1215.88 1373.51 1212.01C1368.08 1208.18 1364.4 1203.55 1364.94 1198.86C1365.09 1197.58 1365.76 1196.8 1366.79 1196.5C1367.77 1196.2 1369.04 1196.36 1370.41 1196.76C1373.16 1197.58 1376.65 1199.52 1380.02 1201.84C1383.39 1204.17 1386.7 1206.94 1389.09 1209.47C1390.29 1210.73 1391.28 1211.96 1391.93 1213.06C1392.38 1213.82 1392.72 1214.61 1392.79 1215.33Z" clip-rule="evenodd" fill-rule="evenodd"/>
<path fill="#9F6D4A" d="M1375.62 1212.84C1380.18 1216.07 1386.4 1218.07 1395.09 1220.02L1395.09 1219.08C1386.4 1217.13 1380.36 1215.16 1375.99 1212.07C1371.67 1209.01 1368.94 1204.81 1366.96 1198.26L1366.11 1198.37C1368.15 1205.1 1371.01 1209.58 1375.62 1212.84Z" clip-rule="evenodd" fill-rule="evenodd"/>
<path fill="#DFA47B" d="M1370.4 1237.54C1376.91 1239.25 1384.52 1236.08 1394.94 1220.02C1383.22 1214.8 1372.39 1215.4 1368.3 1202.19C1364.21 1188.98 1361.79 1211.2 1358.14 1217.84C1354.5 1224.47 1363.89 1235.84 1370.4 1237.54Z"/>
<path fill="#9F6D4A" d="M1396 1219.77L1395.09 1219.37C1392.11 1218.04 1389.2 1217.09 1386.48 1216.2C1386.41 1216.18 1386.34 1216.16 1386.27 1216.14C1383.61 1215.27 1381.14 1214.47 1378.91 1213.45C1376.62 1212.4 1374.63 1211.13 1372.96 1209.36C1371.3 1207.59 1369.92 1205.29 1368.94 1202.1C1368.42 1200.43 1367.9 1199.21 1367.34 1198.43C1367.05 1198.04 1366.72 1197.7 1366.32 1197.51C1365.9 1197.31 1365.5 1197.31 1365.16 1197.44C1364.54 1197.68 1364.06 1198.36 1363.65 1199.14C1363.22 1199.95 1362.81 1201.02 1362.41 1202.21C1361.86 1203.88 1361.31 1205.86 1360.76 1207.85C1360.52 1208.71 1360.28 1209.56 1360.04 1210.4C1359.24 1213.22 1358.42 1215.79 1357.54 1217.38C1355.54 1221.03 1357.17 1225.89 1359.95 1229.89C1362.74 1233.88 1366.88 1237.33 1370.38 1238.25C1377.3 1240.06 1385.1 1236.58 1395.52 1220.51L1396 1219.77ZM1393.88 1220.28C1383.72 1235.67 1376.43 1238.42 1370.43 1236.85C1367.42 1236.06 1363.6 1232.96 1360.97 1229.19C1358.34 1225.42 1357.1 1221.28 1358.74 1218.29C1359.69 1216.57 1360.54 1213.87 1361.34 1211.07C1361.59 1210.21 1361.83 1209.34 1362.07 1208.48C1362.62 1206.5 1363.15 1204.57 1363.7 1202.93C1364.09 1201.76 1364.47 1200.76 1364.85 1200.03C1365.26 1199.26 1365.6 1198.9 1365.84 1198.81C1365.93 1198.78 1365.97 1198.79 1365.99 1198.81C1366.04 1198.83 1366.16 1198.91 1366.34 1199.16C1366.71 1199.67 1367.16 1200.65 1367.66 1202.28C1368.72 1205.7 1370.23 1208.27 1372.12 1210.27C1374 1212.27 1376.21 1213.65 1378.61 1214.76C1380.93 1215.82 1383.47 1216.65 1386.1 1217.5C1386.18 1217.53 1386.26 1217.55 1386.34 1217.58C1388.78 1218.37 1391.31 1219.2 1393.88 1220.28Z" clip-rule="evenodd" fill-rule="evenodd"/>
<path fill="#9F6D4A" d="M1384.19 1220.52C1388.03 1221.09 1391.85 1221.41 1395.23 1220.89L1394.62 1218.98C1391.48 1219.46 1387.86 1219.18 1384.07 1218.62C1382.17 1218.34 1380.26 1217.99 1378.35 1217.65L1378.31 1217.64C1376.42 1217.3 1374.53 1216.97 1372.72 1216.7C1369.07 1216.17 1365.6 1215.9 1362.77 1216.53C1359.9 1217.17 1357.64 1218.73 1356.53 1221.83L1358.22 1222.82C1359.14 1220.28 1360.96 1218.98 1363.47 1218.42C1366.02 1217.86 1369.24 1218.08 1372.85 1218.61C1374.63 1218.87 1376.49 1219.2 1378.39 1219.54L1378.42 1219.55C1380.33 1219.89 1382.27 1220.24 1384.19 1220.52Z" clip-rule="evenodd" fill-rule="evenodd"/>
<path fill="#618165" d="M1365.68 1257.7C1360.92 1257.91 1356.66 1251.86 1356.66 1251.86C1356.66 1251.86 1355.72 1247.45 1364.04 1247.62C1372.35 1247.8 1377.87 1254.32 1377.87 1254.32C1377.87 1254.32 1370.43 1257.49 1365.68 1257.7Z"/>
<path fill="#324635" d="M1378.18 1254.04L1377.87 1254.32L1378.11 1254.77L1378.61 1254.55L1378.18 1254.04ZM1356.66 1251.86L1356.32 1252.09L1356.25 1251.99L1356.22 1251.87L1356.66 1251.86ZM1377.1 1254.09C1376.91 1254.17 1376.68 1254.26 1376.41 1254.36C1375.64 1254.66 1374.57 1255.06 1373.35 1255.47C1370.9 1256.29 1367.89 1257.12 1365.57 1257.22C1363.37 1257.32 1361.25 1255.97 1359.63 1254.52C1358.83 1253.8 1358.17 1253.08 1357.71 1252.53C1357.48 1252.25 1357.31 1252.03 1357.18 1251.87C1357.15 1251.82 1357.12 1251.78 1357.09 1251.74C1357.09 1251.74 1357.09 1251.73 1357.09 1251.73C1357.08 1251.63 1357.08 1251.49 1357.1 1251.32C1357.13 1250.97 1357.25 1250.5 1357.61 1250.02C1358.32 1249.06 1360.03 1248.02 1364.12 1248.1C1368.17 1248.19 1371.53 1249.82 1373.89 1251.42C1375.07 1252.23 1375.99 1253.03 1376.62 1253.62C1376.81 1253.8 1376.96 1253.96 1377.1 1254.09ZM1356.66 1251.86C1356.22 1251.87 1356.22 1251.87 1356.22 1251.87L1356.22 1251.86L1356.22 1251.84L1356.21 1251.79C1356.2 1251.75 1356.2 1251.69 1356.19 1251.61C1356.18 1251.47 1356.17 1251.27 1356.2 1251.03C1356.25 1250.55 1356.41 1249.94 1356.86 1249.34C1357.75 1248.13 1359.73 1247.06 1363.95 1247.15C1368.22 1247.24 1371.78 1248.96 1374.26 1250.65C1375.5 1251.5 1376.47 1252.34 1377.14 1252.97C1377.47 1253.29 1377.73 1253.55 1377.91 1253.74C1377.99 1253.83 1378.06 1253.91 1378.11 1253.96L1378.16 1254.02L1378.17 1254.03L1378.18 1254.04L1377.87 1254.32L1378.11 1254.77L1378.1 1254.77L1378.09 1254.78L1378.02 1254.8L1377.78 1254.91C1377.56 1254.99 1377.25 1255.12 1376.86 1255.27C1376.09 1255.57 1375 1255.98 1373.77 1256.39C1371.31 1257.21 1368.22 1258.07 1365.79 1258.18C1363.23 1258.29 1360.84 1256.72 1359.14 1255.2C1358.28 1254.43 1357.58 1253.66 1357.09 1253.08C1356.85 1252.79 1356.66 1252.54 1356.53 1252.37C1356.46 1252.28 1356.41 1252.22 1356.38 1252.17L1356.34 1252.11L1356.33 1252.1L1356.32 1252.09L1356.66 1251.86Z" clip-rule="evenodd" fill-rule="evenodd"/>
<path fill="#618165" d="M1432.47 1224.21C1449.81 1202.38 1467.11 1173.4 1465.89 1145.4L1462.5 1144.92C1463.68 1171.9 1446.91 1200.28 1429.6 1222.07C1420.98 1232.93 1431.31 1225.67 1432.47 1224.21Z"/>
<path fill="#DFA47B" d="M1449.87 1125.77C1447.96 1117.53 1480.05 1127.37 1480.45 1132.64C1483.92 1132.05 1485.39 1133.67 1484.4 1136.19C1468.09 1137.65 1451.78 1134.01 1449.87 1125.77Z"/>
<path fill="#9F6D4A" d="M1478.52 1130.95C1479.39 1131.67 1479.7 1132.2 1479.73 1132.55C1479.74 1132.72 1479.69 1132.82 1479.6 1132.9C1479.5 1133 1479.31 1133.09 1478.98 1133.15C1478.31 1133.27 1477.28 1133.2 1475.99 1132.96C1473.41 1132.49 1470.08 1131.39 1467.22 1130.18C1465.79 1129.58 1464.5 1128.96 1463.51 1128.39C1463.01 1128.11 1462.6 1127.84 1462.28 1127.6C1462.01 1127.4 1461.84 1127.24 1461.74 1127.13C1461.79 1127.11 1461.85 1127.09 1461.94 1127.07C1462.53 1126.95 1463.74 1126.95 1465.8 1127.21L1465.7 1125.88C1463.63 1125.62 1462.19 1125.58 1461.35 1125.77C1460.93 1125.86 1460.51 1126.03 1460.32 1126.4C1460.1 1126.82 1460.29 1127.29 1460.53 1127.64C1460.77 1127.97 1461.13 1128.29 1461.52 1128.58C1461.92 1128.88 1462.4 1129.19 1462.94 1129.49C1464.03 1130.11 1465.38 1130.77 1466.86 1131.39C1469.79 1132.63 1473.26 1133.78 1475.99 1134.28C1477.35 1134.53 1478.6 1134.63 1479.52 1134.47C1479.99 1134.39 1480.42 1134.23 1480.73 1133.94C1480.94 1133.75 1481.07 1133.51 1481.14 1133.24C1482.56 1133.07 1483.31 1133.36 1483.63 1133.66C1483.91 1133.93 1484.14 1134.53 1483.82 1135.55C1475.85 1136.23 1467.94 1135.67 1461.8 1133.97C1455.5 1132.23 1451.42 1129.4 1450.58 1125.76C1450.39 1124.96 1450.61 1124.42 1451.14 1124.04C1451.7 1123.62 1452.66 1123.36 1453.98 1123.29C1456.6 1123.14 1460.35 1123.74 1464.23 1124.78C1468.1 1125.81 1472.03 1127.26 1475 1128.76C1476.48 1129.51 1477.69 1130.26 1478.52 1130.95ZM1480.93 1131.88C1482.4 1131.75 1483.7 1132.01 1484.56 1132.83C1485.6 1133.83 1485.6 1135.21 1485.09 1136.52L1484.97 1136.82L1484.61 1136.85C1476.4 1137.59 1468.14 1137.05 1461.66 1135.25C1455.26 1133.48 1450.23 1130.37 1449.16 1125.77C1448.87 1124.51 1449.24 1123.55 1450.1 1122.92C1450.93 1122.32 1452.17 1122.03 1453.6 1121.95C1456.46 1121.79 1460.41 1122.44 1464.36 1123.49C1468.32 1124.55 1472.37 1126.04 1475.48 1127.61C1477.02 1128.39 1478.37 1129.21 1479.36 1130.04C1480.04 1130.6 1480.62 1131.22 1480.93 1131.88Z" clip-rule="evenodd" fill-rule="evenodd"/>
<path fill="#9F6D4A" d="M1463.92 1135.33C1469.31 1136.83 1475.84 1136.62 1484.68 1135.52L1484.36 1134.64C1475.53 1135.73 1469.17 1135.91 1464.02 1134.48C1458.92 1133.05 1454.94 1130.02 1450.86 1124.52L1450.1 1124.92C1454.28 1130.56 1458.49 1133.81 1463.92 1135.33Z" clip-rule="evenodd" fill-rule="evenodd"/>
<path fill="#DFA47B" d="M1467.35 1160.35C1474.05 1159.76 1480.15 1154.21 1484.54 1135.57C1471.74 1134.61 1461.75 1138.83 1453.44 1127.77C1445.14 1116.71 1450.35 1138.45 1449.16 1145.93C1447.97 1153.4 1460.64 1160.93 1467.35 1160.35Z"/>
<path fill="#9F6D4A" d="M1485.46 1134.98L1484.46 1134.91C1481.21 1134.66 1478.15 1134.75 1475.28 1134.83C1475.21 1134.84 1475.14 1134.84 1475.07 1134.84C1472.27 1134.93 1469.68 1135 1467.23 1134.79C1464.72 1134.57 1462.42 1134.05 1460.25 1132.95C1458.09 1131.85 1456.02 1130.14 1454.01 1127.47C1452.96 1126.07 1452.06 1125.1 1451.27 1124.56C1450.87 1124.28 1450.44 1124.08 1450 1124.03C1449.54 1123.98 1449.17 1124.12 1448.89 1124.36C1448.39 1124.79 1448.16 1125.6 1448.04 1126.47C1447.91 1127.38 1447.88 1128.52 1447.91 1129.78C1447.95 1131.53 1448.1 1133.58 1448.26 1135.65C1448.32 1136.53 1448.39 1137.42 1448.44 1138.28C1448.64 1141.21 1448.73 1143.91 1448.44 1145.7C1447.79 1149.82 1450.96 1153.84 1454.93 1156.66C1458.9 1159.49 1463.96 1161.33 1467.56 1161.01C1474.69 1160.39 1480.86 1154.49 1485.26 1135.84L1485.46 1134.98ZM1483.63 1136.18C1479.25 1154.09 1473.32 1159.14 1467.14 1159.68C1464.04 1159.95 1459.4 1158.33 1455.66 1155.66C1451.91 1153 1449.34 1149.52 1449.88 1146.15C1450.19 1144.21 1450.08 1141.39 1449.89 1138.48C1449.83 1137.59 1449.76 1136.68 1449.7 1135.79C1449.55 1133.74 1449.4 1131.75 1449.36 1130.02C1449.33 1128.79 1449.36 1127.72 1449.47 1126.9C1449.59 1126.04 1449.79 1125.59 1449.99 1125.42C1450.06 1125.36 1450.1 1125.36 1450.13 1125.37C1450.19 1125.37 1450.32 1125.41 1450.58 1125.58C1451.1 1125.94 1451.85 1126.7 1452.88 1128.07C1455.03 1130.93 1457.31 1132.84 1459.77 1134.09C1462.21 1135.34 1464.76 1135.9 1467.39 1136.13C1469.93 1136.35 1472.6 1136.27 1475.36 1136.18C1475.45 1136.18 1475.54 1136.18 1475.62 1136.17C1478.19 1136.1 1480.84 1136.02 1483.63 1136.18Z" clip-rule="evenodd" fill-rule="evenodd"/>
<path fill="#9F6D4A" d="M1474.59 1139.67C1478.4 1138.91 1482.1 1137.92 1485.1 1136.29L1483.89 1134.7C1481.09 1136.22 1477.58 1137.17 1473.83 1137.92C1471.95 1138.29 1470.03 1138.62 1468.12 1138.94L1468.08 1138.95C1466.18 1139.26 1464.3 1139.58 1462.5 1139.94C1458.89 1140.67 1455.53 1141.59 1453.08 1143.14C1450.58 1144.71 1448.99 1146.94 1448.99 1150.23L1450.92 1150.6C1450.92 1147.9 1452.19 1146.05 1454.37 1144.68C1456.58 1143.29 1459.69 1142.41 1463.26 1141.69C1465.03 1141.34 1466.9 1141.02 1468.8 1140.7L1468.83 1140.7C1470.74 1140.38 1472.68 1140.05 1474.59 1139.67Z" clip-rule="evenodd" fill-rule="evenodd"/>
<path fill="#618165" d="M1469.7 1180.91C1465.29 1182.71 1459.24 1178.46 1459.24 1178.46C1459.24 1178.46 1456.87 1174.62 1464.75 1171.98C1472.64 1169.34 1480.04 1173.62 1480.04 1173.62C1480.04 1173.62 1474.11 1179.11 1469.7 1180.91Z"/>
<path fill="#324635" d="M1480.24 1173.25L1480.04 1173.62L1480.42 1173.96L1480.82 1173.59L1480.24 1173.25ZM1459.24 1178.46L1459 1178.79L1458.9 1178.72L1458.83 1178.62L1459.24 1178.46ZM1479.23 1173.67C1479.08 1173.8 1478.89 1173.96 1478.68 1174.15C1478.05 1174.69 1477.18 1175.43 1476.17 1176.23C1474.14 1177.83 1471.59 1179.62 1469.43 1180.5C1467.4 1181.33 1464.95 1180.78 1462.94 1179.96C1461.94 1179.55 1461.07 1179.09 1460.46 1178.73C1460.15 1178.55 1459.9 1178.4 1459.74 1178.29C1459.69 1178.26 1459.64 1178.23 1459.61 1178.2C1459.61 1178.2 1459.6 1178.19 1459.6 1178.19C1459.56 1178.1 1459.51 1177.97 1459.47 1177.8C1459.38 1177.46 1459.34 1176.98 1459.51 1176.4C1459.86 1175.26 1461.11 1173.71 1465 1172.41C1468.83 1171.12 1472.55 1171.52 1475.31 1172.24C1476.69 1172.6 1477.83 1173.04 1478.63 1173.39C1478.86 1173.49 1479.06 1173.58 1479.23 1173.67ZM1459.24 1178.46C1458.83 1178.62 1458.83 1178.62 1458.83 1178.62L1458.83 1178.61L1458.82 1178.59L1458.79 1178.54C1458.77 1178.5 1458.75 1178.45 1458.72 1178.38C1458.65 1178.25 1458.58 1178.06 1458.53 1177.83C1458.41 1177.37 1458.36 1176.73 1458.57 1176.02C1459.01 1174.58 1460.51 1172.9 1464.52 1171.56C1468.57 1170.21 1472.49 1170.63 1475.4 1171.38C1476.85 1171.76 1478.06 1172.23 1478.9 1172.6C1479.32 1172.78 1479.65 1172.94 1479.88 1173.06C1479.99 1173.12 1480.08 1173.17 1480.14 1173.2L1480.21 1173.24L1480.23 1173.25L1480.24 1173.25L1480.04 1173.62L1480.42 1173.96L1480.41 1173.96L1480.4 1173.98L1480.35 1174.02L1480.15 1174.2C1479.98 1174.36 1479.73 1174.58 1479.41 1174.85C1478.78 1175.4 1477.9 1176.15 1476.88 1176.95C1474.84 1178.55 1472.22 1180.4 1469.96 1181.33C1467.59 1182.3 1464.81 1181.62 1462.7 1180.76C1461.63 1180.33 1460.71 1179.84 1460.06 1179.46C1459.73 1179.27 1459.47 1179.1 1459.29 1178.98C1459.2 1178.92 1459.13 1178.88 1459.08 1178.84L1459.02 1178.81L1459.01 1178.79L1459 1178.79L1459.24 1178.46Z" clip-rule="evenodd" fill-rule="evenodd"/>
<path fill="#618165" d="M41.292 86.0916C42.4383 72.6 41.8069 56.2112 34.4644 45.1494L33.0732 45.8545C40.1498 56.5156 40.8326 72.5184 39.6882 85.9876L41.292 86.0916Z"/>
<path fill="#DFA47B" d="M23.6229 41.4293C20.8788 38.5865 35.3497 34.0442 36.7965 36.0848C37.9534 34.9177 38.9017 35.188 39.1503 36.4749C33.3848 41.4117 26.3671 44.2721 23.6229 41.4293Z"/>
<path fill="#9F6D4A" d="M35.6552 35.9087C36.1552 35.9707 36.4042 36.1038 36.5006 36.2398C36.5457 36.3034 36.554 36.3573 36.5409 36.4147C36.5258 36.481 36.4771 36.5704 36.3679 36.6817C36.1464 36.9073 35.7439 37.1549 35.1978 37.4033C34.1153 37.8958 32.5913 38.3374 31.2212 38.6077C30.5375 38.7426 29.902 38.8328 29.3877 38.8664C29.1304 38.8832 28.91 38.8853 28.7326 38.8735C28.5799 38.8632 28.4772 38.8437 28.4148 38.8238C28.4273 38.8049 28.4463 38.7799 28.4749 38.7482C28.6659 38.5376 29.1182 38.2177 29.9579 37.7742L29.5941 37.2605C28.7493 37.7066 28.2029 38.0728 27.9299 38.3739C27.7969 38.5206 27.6817 38.7026 27.7012 38.9033C27.7235 39.134 27.9065 39.276 28.0852 39.3513C28.2567 39.4236 28.4691 39.4574 28.6866 39.472C28.91 39.487 29.1676 39.4832 29.4467 39.465C30.0052 39.4285 30.6759 39.3323 31.381 39.1932C32.7886 38.9155 34.3731 38.4592 35.5237 37.9357C36.0942 37.6762 36.5894 37.3863 36.8961 37.0738C37.051 36.916 37.1739 36.7363 37.2193 36.537C37.2494 36.4047 37.2432 36.2724 37.2 36.1445C37.6912 35.6948 38.046 35.6133 38.2378 35.6517C38.4132 35.6868 38.6442 35.8682 38.7738 36.3709C35.9469 38.7681 32.8421 40.6468 30.1206 41.5901C27.3252 42.5591 25.0985 42.4947 23.885 41.2375C23.6186 40.9616 23.5681 40.6855 23.671 40.3886C23.7814 40.0698 24.0766 39.7106 24.5537 39.3294C25.5041 38.5701 27.0583 37.8155 28.7706 37.2031C30.4783 36.5924 32.3088 36.1352 33.791 35.9561C34.534 35.8664 35.1715 35.8487 35.6552 35.9087ZM36.7897 35.6461C37.3085 35.2005 37.8591 34.9613 38.3863 35.0668C39.02 35.1935 39.36 35.7586 39.4893 36.4278L39.5189 36.581L39.3924 36.6893C36.4885 39.1758 33.2556 41.1521 30.3827 42.148C27.5419 43.1327 24.8876 43.206 23.357 41.6203C22.9373 41.1856 22.8397 40.6978 23.0087 40.2102C23.17 39.7444 23.5664 39.2983 24.0826 38.8858C25.119 38.0576 26.7585 37.2711 28.5016 36.6477C30.2495 36.0226 32.1366 35.549 33.6888 35.3615C34.463 35.268 35.172 35.2433 35.7459 35.3144C36.1375 35.3629 36.5104 35.4619 36.7897 35.6461Z" clip-rule="evenodd" fill-rule="evenodd"/>
<path fill="#9F6D4A" d="M31.2501 41.5766C33.6419 40.7542 36.0436 38.9278 39.0906 36.1302L38.7541 35.8536C35.7063 38.652 33.365 40.4174 31.0765 41.2043C28.8112 41.9832 26.5699 41.8114 23.6867 40.66L23.4976 41.0233C26.4587 42.2058 28.8351 42.407 31.2501 41.5766Z" clip-rule="evenodd" fill-rule="evenodd"/>
<path fill="#DFA47B" d="M38.6861 50.837C41.0603 48.8122 41.9835 44.9319 39.053 36.1851C34.0085 39.2022 31.2934 43.5768 25.4554 41.2915C19.6175 39.0061 26.9212 46.458 28.3112 49.8157C29.7013 53.1735 36.312 52.8619 38.6861 50.837Z"/>
<path fill="#9F6D4A" d="M39.251 35.7019L38.856 35.9382C37.5767 36.7033 36.4476 37.553 35.3936 38.3509C35.3669 38.3711 35.3402 38.3912 35.3137 38.4114C34.2844 39.1906 33.3312 39.9122 32.3585 40.4776C31.3644 41.0554 30.3695 41.4577 29.2847 41.5854C28.204 41.7126 27.0053 41.5706 25.5959 41.0189C24.8586 40.7302 24.281 40.5748 23.8519 40.5647C23.633 40.5595 23.4207 40.5912 23.2443 40.6895C23.0592 40.7926 22.953 40.947 22.9075 41.1174C22.825 41.4272 22.9361 41.816 23.1049 42.2035C23.281 42.6077 23.5514 43.0777 23.8717 43.5813C24.3191 44.2848 24.8796 45.078 25.4439 45.8765C25.6859 46.2189 25.9285 46.5622 26.1633 46.8999C26.9547 48.0385 27.6532 49.1089 27.9871 49.9155C28.7523 51.7639 30.9338 52.5543 33.1177 52.6455C35.3027 52.7368 37.6549 52.1413 38.9308 51.0531C41.4558 48.8996 42.3187 44.8581 39.386 36.1048L39.251 35.7019ZM38.8574 36.6754C41.6194 45.124 40.6321 48.7563 38.4437 50.6227C37.3454 51.5594 35.2052 52.132 33.1438 52.0459C31.0813 51.9597 29.2624 51.227 28.6376 49.7177C28.2765 48.8455 27.5408 47.7252 26.7543 46.5936C26.5128 46.2462 26.2661 45.8972 26.0221 45.5519C25.462 44.7594 24.9155 43.9862 24.4762 43.2953C24.1615 42.8005 23.9099 42.3601 23.7513 41.9962C23.5855 41.6155 23.5493 41.3783 23.5813 41.2585C23.5931 41.214 23.6096 41.2026 23.6219 41.1957C23.643 41.184 23.703 41.1615 23.8403 41.1648C24.1238 41.1715 24.5951 41.2831 25.3172 41.5657C26.8269 42.1567 28.1567 42.3249 29.3846 42.1803C30.6085 42.0362 31.7023 41.5849 32.7472 40.9775C33.7567 40.3908 34.7389 39.6472 35.7549 38.8779C35.7869 38.8537 35.819 38.8294 35.851 38.8052C36.7941 38.0913 37.7736 37.3543 38.8574 36.6754Z" clip-rule="evenodd" fill-rule="evenodd"/>
<path fill="#9F6D4A" d="M36.3229 40.5021C37.5645 39.1793 38.7123 37.791 39.4387 36.3294L38.5916 36.0059C37.9158 37.3658 36.8316 38.6866 35.6058 39.9926C34.9941 40.6444 34.3524 41.287 33.7132 41.9269L33.6986 41.9415C33.066 42.5748 32.4356 43.2059 31.849 43.832C30.6716 45.0884 29.6386 46.357 29.0961 47.6405C28.5463 48.9412 28.4949 50.2729 29.3041 51.6131L30.1197 51.2473C29.4567 50.1493 29.4816 49.0595 29.962 47.9231C30.4496 46.7695 31.4006 45.5853 32.5665 44.341C33.1441 43.7246 33.7666 43.1014 34.4028 42.4646L34.4124 42.4549C35.0502 41.8165 35.701 41.1648 36.3229 40.5021Z" clip-rule="evenodd" fill-rule="evenodd"/>
<path fill="#618165" d="M44.6248 58.5756C43.4125 60.4823 40.0949 60.3599 40.0949 60.3599C40.0949 60.3599 38.2605 59.4336 40.5733 56.2603C42.8861 53.087 46.7141 52.8555 46.7141 52.8555C46.7141 52.8555 45.837 56.6689 44.6248 58.5756Z"/>
<path fill="#324635" d="M46.6996 52.6551L46.7154 52.8554L46.9407 52.895L47 52.637L46.6996 52.6551ZM40.0962 60.3598L40.0865 60.5604L40.0301 60.5583L39.9813 60.5336L40.0962 60.3598ZM46.4238 53.0901C46.4003 53.1848 46.3707 53.3015 46.3354 53.4364C46.2348 53.8217 46.088 54.3552 45.9036 54.9478C45.5331 56.1385 45.0167 57.5478 44.4252 58.4781C43.865 59.3592 42.8084 59.7852 41.8524 59.9876C41.3782 60.088 40.9394 60.131 40.619 60.1488C40.459 60.1577 40.3292 60.1602 40.2401 60.1606C40.213 60.1607 40.1896 60.1606 40.1704 60.1604C40.1684 60.1591 40.1664 60.1577 40.1644 60.1563C40.1285 60.1316 40.0765 60.0915 40.019 60.0337C39.9047 59.9189 39.7669 59.7327 39.6917 59.454C39.5419 58.8985 39.63 57.93 40.7684 56.3681C41.8938 54.824 43.387 53.9959 44.6008 53.5531C45.208 53.3316 45.7443 53.207 46.1276 53.1378C46.2404 53.1174 46.3398 53.1019 46.4238 53.0901ZM40.0962 60.3598C39.9813 60.5336 39.9815 60.5337 39.9813 60.5336L39.9767 60.5313L39.9696 60.5275L39.948 60.5153C39.9306 60.505 39.9072 60.4905 39.8794 60.4713C39.824 60.433 39.7507 60.376 39.6724 60.2973C39.5151 60.1393 39.3388 59.8956 39.2445 59.5461C39.0554 58.8451 39.2064 57.7638 40.3808 56.1524C41.5682 54.5233 43.1455 53.6489 44.4238 53.1826C45.0627 52.9495 45.628 52.818 46.0347 52.7446C46.2381 52.7078 46.4023 52.6856 46.5165 52.6725C46.5736 52.666 46.6183 52.6617 46.6493 52.659L46.6852 52.6561L46.6951 52.6554L46.6996 52.6551L46.7154 52.8554L46.9407 52.895L46.94 52.898L46.938 52.9065L46.9303 52.9394L46.9001 53.0649C46.8735 53.1737 46.8343 53.331 46.7834 53.5257C46.6817 53.915 46.5334 54.454 46.347 55.0531C45.9759 56.2459 45.4477 57.6966 44.8269 58.6731C44.1749 59.6986 42.9666 60.1648 41.9607 60.3778C41.4539 60.4851 40.9875 60.5307 40.6481 60.5495C40.4781 60.5589 40.3392 60.5617 40.2422 60.5621C40.1936 60.5623 40.1555 60.5619 40.1291 60.5614L40.0985 60.5608L40.0901 60.5605L40.0865 60.5604L40.0962 60.3598Z" clip-rule="evenodd" fill-rule="evenodd"/>
<path fill="#749C79" d="M1449.9 360.504C1463.51 359.275 1470.58 360.639 1482.41 366.162C1487.6 349.42 1489.76 340.065 1492.59 323.555L1485.26 340.686C1485 339.466 1486.5 330.966 1485.41 327.268C1481.29 331.1 1480.1 334.42 1478.95 341.364L1472.57 341.396C1474.61 321.276 1469.96 328.274 1467.83 345.502L1459.09 323.559L1461.62 347.149C1458.84 346.626 1457.25 345.764 1454.22 341.406L1449.33 325.588C1448.24 339.406 1448.08 347.091 1449.9 360.504Z"/>
<path fill="#618165" d="M270.619 325.799C270.619 325.799 270.619 325.799 271.302 326.11C271.985 326.421 271.985 326.42 271.985 326.42L271.989 326.414L272 326.395L272.043 326.32C272.08 326.254 272.135 326.156 272.206 326.028C272.349 325.773 272.556 325.396 272.817 324.91C273.337 323.937 274.923 320.762 274.923 320.762L275.461 318.523C275.461 318.523 280.618 299.163 276.145 288.183L274.727 288.473C279.038 299.056 274.014 318.082 274.014 318.082L273.521 320.207C273.521 320.207 271.949 323.355 271.434 324.318C271.177 324.799 270.972 325.17 270.833 325.421C270.763 325.546 270.709 325.641 270.673 325.705L270.632 325.776L270.622 325.794L270.619 325.799Z" clip-rule="evenodd" fill-rule="evenodd"/>
<path fill="#DFA47B" d="M266.973 282.646C265.039 279.635 279.218 278.979 280.128 281.025C281.425 280.292 282.238 280.73 282.204 281.874C275.918 284.782 268.908 285.656 266.973 282.646Z"/>
<path fill="#9F6D4A" d="M279.118 280.624C279.564 280.787 279.765 280.955 279.825 281.091C279.854 281.155 279.85 281.202 279.827 281.248C279.799 281.301 279.736 281.366 279.614 281.436C279.365 281.578 278.946 281.699 278.395 281.789C277.303 281.967 275.818 282.005 274.508 281.932C273.854 281.895 273.254 281.832 272.776 281.747C272.537 281.704 272.334 281.657 272.174 281.608C272.036 281.566 271.946 281.527 271.893 281.496C271.909 281.483 271.931 281.466 271.964 281.446C272.181 281.309 272.661 281.138 273.52 280.948L273.292 280.433C272.427 280.624 271.852 280.814 271.541 281.009C271.389 281.103 271.247 281.232 271.223 281.406C271.197 281.606 271.336 281.767 271.484 281.87C271.626 281.969 271.814 282.044 272.01 282.105C272.212 282.167 272.449 282.22 272.708 282.266C273.227 282.358 273.861 282.425 274.535 282.462C275.881 282.538 277.425 282.501 278.585 282.311C279.161 282.217 279.673 282.081 280.018 281.884C280.192 281.785 280.341 281.66 280.423 281.501C280.478 281.396 280.499 281.282 280.485 281.164C281.027 280.892 281.368 280.901 281.536 280.976C281.69 281.044 281.864 281.249 281.881 281.703C278.803 283.109 275.577 284.015 272.892 284.213C270.135 284.418 268.108 283.872 267.253 282.541C267.065 282.249 267.075 282.004 267.23 281.775C267.396 281.53 267.739 281.291 268.254 281.073C269.279 280.64 270.856 280.344 272.549 280.203C274.238 280.062 276.007 280.079 277.401 280.254C278.1 280.342 278.688 280.467 279.118 280.624ZM280.211 280.652C280.777 280.389 281.33 280.308 281.791 280.514C282.346 280.761 282.542 281.314 282.524 281.909L282.52 282.045L282.383 282.109C279.216 283.573 275.853 284.534 273.019 284.743C270.216 284.951 267.77 284.428 266.691 282.749C266.395 282.288 266.405 281.854 266.659 281.478C266.902 281.12 267.356 280.829 267.913 280.594C269.031 280.122 270.692 279.817 272.416 279.674C274.144 279.53 275.969 279.545 277.429 279.728C278.157 279.819 278.811 279.955 279.323 280.141C279.671 280.269 279.993 280.435 280.211 280.652Z" clip-rule="evenodd" fill-rule="evenodd"/>
<path fill="#9F6D4A" d="M273.93 284.451C276.288 284.282 278.859 283.265 282.22 281.569L281.968 281.261C278.607 282.957 276.103 283.936 273.846 284.097C271.613 284.257 269.595 283.618 267.189 282.008L266.942 282.274C269.413 283.927 271.549 284.621 273.93 284.451Z" clip-rule="evenodd" fill-rule="evenodd"/>
<path fill="#DFA47B" d="M278.855 293.928C281.442 292.737 283.077 289.657 282.174 281.608C276.939 283.05 273.562 286.154 268.68 282.933C263.798 279.713 268.971 287.629 269.56 290.777C270.15 293.925 276.268 295.118 278.855 293.928Z"/>
<path fill="#9F6D4A" d="M282.454 281.242L282.044 281.355C280.716 281.721 279.509 282.191 278.381 282.634C278.353 282.645 278.324 282.656 278.296 282.668C277.194 283.1 276.174 283.501 275.168 283.765C274.14 284.035 273.147 284.156 272.127 284.025C271.112 283.895 270.043 283.511 268.864 282.733C268.247 282.326 267.75 282.067 267.359 281.964C267.16 281.912 266.959 281.892 266.777 281.936C266.587 281.983 266.458 282.09 266.382 282.224C266.243 282.468 266.266 282.822 266.341 283.187C266.42 283.568 266.572 284.025 266.763 284.522C267.03 285.216 267.381 286.011 267.736 286.811C267.888 287.154 268.04 287.498 268.186 287.835C268.679 288.974 269.101 290.033 269.243 290.79C269.567 292.523 271.404 293.672 273.386 294.231C275.369 294.79 277.644 294.804 279.035 294.164C281.786 292.898 283.399 289.667 282.495 281.613L282.454 281.242ZM281.895 281.979C282.704 289.738 281.06 292.595 278.676 293.692C277.479 294.243 275.403 294.256 273.532 293.729C271.66 293.202 270.144 292.181 269.879 290.766C269.726 289.948 269.28 288.838 268.79 287.707C268.639 287.359 268.485 287.01 268.331 286.664C267.98 285.869 267.637 285.094 267.375 284.413C267.187 283.925 267.047 283.497 266.976 283.154C266.901 282.795 266.916 282.586 266.97 282.492C266.99 282.457 267.007 282.451 267.02 282.448C267.042 282.442 267.101 282.437 267.226 282.47C267.485 282.538 267.894 282.736 268.497 283.134C269.76 283.967 270.944 284.403 272.098 284.551C273.248 284.699 274.342 284.558 275.423 284.274C276.467 284 277.518 283.587 278.605 283.16C278.639 283.146 278.673 283.133 278.708 283.119C279.717 282.723 280.764 282.315 281.895 281.979Z" clip-rule="evenodd" fill-rule="evenodd"/>
<path fill="#9F6D4A" d="M278.795 284.659C280.201 283.813 281.535 282.891 282.498 281.814L281.788 281.353C280.892 282.355 279.63 283.234 278.242 284.07C277.549 284.486 276.83 284.889 276.114 285.29L276.098 285.299C275.39 285.695 274.684 286.091 274.019 286.491C272.685 287.295 271.48 288.141 270.722 289.108C269.954 290.088 269.635 291.203 270.104 292.516L270.925 292.386C270.541 291.311 270.786 290.394 271.458 289.538C272.139 288.669 273.251 287.876 274.573 287.08C275.227 286.686 275.924 286.295 276.636 285.897L276.647 285.891C277.361 285.491 278.09 285.083 278.795 284.659Z" clip-rule="evenodd" fill-rule="evenodd"/>
<path fill="#618165" d="M282.718 301.785C281.22 303.132 278.206 302.297 278.206 302.297C278.206 302.297 276.714 301.109 279.479 298.933C282.243 296.757 285.797 297.405 285.797 297.405C285.797 297.405 284.217 300.439 282.718 301.785Z"/>
<path fill="#324635" d="M285.824 297.232L285.798 297.405L285.996 297.488L286.103 297.282L285.824 297.232ZM278.207 302.297L278.157 302.465L278.106 302.451L278.066 302.419L278.207 302.297ZM285.483 297.539C285.442 297.614 285.391 297.706 285.331 297.813C285.161 298.117 284.918 298.536 284.628 298.997C284.046 299.923 283.286 301.002 282.555 301.659C281.863 302.281 280.808 302.409 279.891 302.369C279.437 302.35 279.026 302.29 278.729 302.234C278.58 302.206 278.461 302.18 278.379 302.161C278.354 302.155 278.333 302.149 278.315 302.145C278.314 302.144 278.312 302.142 278.311 302.14C278.283 302.111 278.244 302.066 278.203 302.004C278.121 301.882 278.033 301.694 278.021 301.442C277.997 300.939 278.275 300.138 279.635 299.067C280.981 298.008 282.517 297.636 283.719 297.529C284.32 297.476 284.837 297.488 285.202 297.514C285.309 297.522 285.403 297.531 285.483 297.539ZM278.207 302.297C278.066 302.419 278.066 302.419 278.066 302.419L278.063 302.416L278.057 302.411L278.04 302.396C278.026 302.384 278.007 302.366 277.986 302.344C277.943 302.299 277.887 302.235 277.832 302.151C277.72 301.983 277.608 301.738 277.593 301.421C277.562 300.786 277.921 299.904 279.324 298.799C280.744 297.682 282.366 297.29 283.632 297.177C284.265 297.12 284.809 297.133 285.197 297.161C285.391 297.175 285.545 297.192 285.653 297.206C285.706 297.213 285.748 297.219 285.777 297.224L285.811 297.229L285.82 297.231L285.824 297.232L285.798 297.405L285.996 297.488L285.995 297.49L285.991 297.497L285.977 297.523L285.924 297.623C285.878 297.709 285.81 297.833 285.723 297.987C285.551 298.294 285.305 298.718 285.013 299.184C284.43 300.111 283.651 301.223 282.883 301.912C282.077 302.637 280.876 302.765 279.911 302.724C279.425 302.703 278.989 302.638 278.674 302.58C278.516 302.55 278.388 302.522 278.299 302.501C278.255 302.49 278.22 302.482 278.196 302.475L278.168 302.468L278.161 302.466L278.157 302.465L278.207 302.297Z" clip-rule="evenodd" fill-rule="evenodd"/>
<path fill="#618165" d="M554.708 370.395C554.708 370.395 554.708 370.395 553.84 370.473C552.972 370.55 552.972 370.55 552.972 370.55L552.97 370.542L552.966 370.518L552.949 370.426C552.934 370.345 552.912 370.225 552.885 370.068C552.831 369.755 552.754 369.294 552.662 368.701C552.479 367.516 552.006 363.688 552.006 363.688L552.305 361.194C552.305 361.194 554.342 339.45 563.571 329.738L565.003 330.538C556.109 339.899 554.059 361.253 554.059 361.253L553.755 363.614C553.755 363.614 554.224 367.409 554.405 368.582C554.496 369.168 554.572 369.622 554.625 369.93C554.652 370.083 554.673 370.2 554.687 370.279L554.703 370.366L554.707 370.388L554.708 370.395Z" clip-rule="evenodd" fill-rule="evenodd"/>
<path fill="#DFA47B" d="M575.773 327.288C579.076 324.876 563.862 319.18 562.059 320.963C560.934 319.75 559.873 319.912 559.457 321.101C565.166 326.319 572.47 329.701 575.773 327.288Z"/>
<path fill="#9F6D4A" d="M563.319 320.907C562.769 320.917 562.483 321.018 562.363 321.137C562.307 321.193 562.292 321.243 562.3 321.298C562.309 321.362 562.351 321.451 562.458 321.567C562.673 321.801 563.082 322.074 563.648 322.361C564.769 322.931 566.375 323.497 567.833 323.885C568.561 324.079 569.242 324.226 569.797 324.308C570.075 324.349 570.314 324.373 570.508 324.379C570.675 324.384 570.789 324.376 570.859 324.363C570.848 324.344 570.83 324.319 570.802 324.286C570.618 324.069 570.163 323.723 569.3 323.223L569.754 322.774C570.622 323.277 571.174 323.676 571.437 323.986C571.565 324.138 571.669 324.32 571.626 324.508C571.575 324.723 571.36 324.839 571.158 324.893C570.963 324.944 570.728 324.955 570.491 324.948C570.246 324.94 569.966 324.911 569.665 324.867C569.062 324.778 568.344 324.622 567.594 324.422C566.095 324.022 564.425 323.437 563.233 322.831C562.643 322.531 562.137 322.209 561.839 321.885C561.689 321.721 561.575 321.539 561.549 321.347C561.531 321.219 561.552 321.095 561.614 320.979C561.131 320.507 560.754 320.396 560.542 320.413C560.347 320.429 560.075 320.577 559.878 321.039C562.679 323.575 565.842 325.649 568.693 326.805C571.622 327.991 574.049 328.148 575.51 327.081C575.83 326.847 575.916 326.592 575.838 326.302C575.754 325.99 575.474 325.623 574.998 325.217C574.051 324.408 572.447 323.545 570.655 322.8C568.868 322.058 566.931 321.448 565.34 321.134C564.543 320.977 563.852 320.898 563.319 320.907ZM562.116 320.549C561.602 320.078 561.031 319.799 560.446 319.847C559.743 319.905 559.31 320.404 559.094 321.023L559.044 321.164L559.17 321.278C562.045 323.906 565.335 326.086 568.345 327.305C571.321 328.511 574.198 328.839 576.04 327.494C576.545 327.125 576.706 326.674 576.578 326.198C576.455 325.743 576.075 325.284 575.56 324.844C574.527 323.962 572.834 323.061 571.01 322.303C569.181 321.543 567.184 320.912 565.518 320.584C564.687 320.42 563.92 320.327 563.288 320.338C562.857 320.346 562.44 320.403 562.116 320.549Z" clip-rule="evenodd" fill-rule="evenodd"/>
<path fill="#9F6D4A" d="M567.467 326.682C564.96 325.673 562.556 323.716 559.561 320.781L559.957 320.553C562.954 323.489 565.299 325.382 567.697 326.348C570.071 327.303 572.527 327.36 575.79 326.556L575.955 326.917C572.603 327.743 569.998 327.701 567.467 326.682Z" clip-rule="evenodd" fill-rule="evenodd"/>
<path fill="#DFA47B" d="M558.34 334.688C555.988 332.547 555.423 328.798 559.595 320.837C564.737 324.175 567.194 328.564 573.797 326.98C580.399 325.395 571.62 331.708 569.731 334.738C567.841 337.768 560.692 336.829 558.34 334.688Z"/>
<path fill="#9F6D4A" d="M559.435 320.362L559.838 320.623C561.142 321.469 562.273 322.381 563.328 323.236C563.355 323.258 563.382 323.279 563.408 323.301C564.439 324.136 565.393 324.91 566.387 325.538C567.402 326.179 568.438 326.656 569.602 326.882C570.762 327.108 572.081 327.091 573.675 326.708C574.509 326.508 575.154 326.418 575.622 326.45C575.86 326.467 576.087 326.518 576.268 326.627C576.458 326.743 576.556 326.899 576.586 327.064C576.64 327.364 576.476 327.72 576.249 328.069C576.011 328.432 575.665 328.849 575.26 329.293C574.694 329.912 573.995 330.605 573.292 331.303C572.99 331.602 572.688 331.902 572.395 332.198C571.406 333.194 570.526 334.135 570.072 334.863C569.032 336.531 566.572 337.063 564.188 336.936C561.803 336.809 559.314 336.018 558.05 334.867C555.549 332.59 555.068 328.695 559.243 320.729L559.435 320.362ZM559.753 321.318C555.797 329.014 556.46 332.535 558.628 334.509C559.716 335.499 561.977 336.248 564.227 336.368C566.479 336.488 568.538 335.975 569.387 334.613C569.878 333.826 570.804 332.842 571.787 331.851C572.089 331.547 572.396 331.243 572.7 330.941C573.398 330.248 574.08 329.573 574.635 328.964C575.033 328.528 575.356 328.138 575.569 327.81C575.793 327.467 575.859 327.247 575.838 327.131C575.83 327.088 575.813 327.076 575.8 327.068C575.779 327.055 575.716 327.028 575.567 327.017C575.258 326.996 574.733 327.055 573.916 327.251C572.209 327.661 570.745 327.69 569.426 327.433C568.113 327.178 566.975 326.646 565.908 325.971C564.877 325.319 563.893 324.522 562.876 323.698C562.844 323.672 562.812 323.646 562.78 323.62C561.835 322.855 560.854 322.064 559.753 321.318Z" clip-rule="evenodd" fill-rule="evenodd"/>
<path fill="#9F6D4A" d="M562.075 325.173C560.875 323.804 559.785 322.383 559.16 320.934L560.117 320.712C560.698 322.06 561.727 323.411 562.912 324.762C563.503 325.437 564.128 326.105 564.751 326.771L564.765 326.786C565.381 327.445 565.995 328.102 566.562 328.749C567.699 330.049 568.679 331.346 569.124 332.609C569.574 333.889 569.48 335.15 568.449 336.334L567.604 335.91C568.448 334.939 568.544 333.909 568.151 332.791C567.751 331.655 566.851 330.446 565.724 329.159C565.166 328.522 564.56 327.873 563.941 327.211L563.931 327.201C563.31 326.536 562.676 325.858 562.075 325.173Z" clip-rule="evenodd" fill-rule="evenodd"/>
<path fill="#618165" d="M551.013 341.404C552.115 343.32 555.734 343.529 555.734 343.529C555.734 343.529 557.832 342.834 555.677 339.617C553.522 336.399 549.388 335.807 549.388 335.807C549.388 335.807 549.91 339.488 551.013 341.404Z"/>
<path fill="#324635" d="M549.427 335.619L549.387 335.806L549.138 335.821L549.102 335.572L549.427 335.619ZM555.733 343.528L555.721 343.718L555.783 343.722L555.839 343.703L555.733 343.528ZM549.677 336.056C549.692 336.147 549.711 336.26 549.734 336.391C549.8 336.764 549.899 337.281 550.033 337.858C550.301 339.017 550.703 340.396 551.241 341.331C551.751 342.216 552.851 342.721 553.867 343.005C554.371 343.146 554.843 343.23 555.189 343.278C555.362 343.302 555.503 343.317 555.6 343.326C555.629 343.329 555.654 343.331 555.675 343.333C555.678 343.332 555.68 343.331 555.682 343.329C555.724 343.31 555.785 343.277 555.854 343.228C555.991 343.131 556.162 342.969 556.275 342.713C556.501 342.204 556.514 341.283 555.454 339.699C554.405 338.133 552.876 337.206 551.606 336.67C550.971 336.402 550.403 336.232 549.994 336.13C549.874 336.099 549.767 336.075 549.677 336.056ZM555.733 343.528C555.839 343.703 555.839 343.703 555.839 343.703L555.844 343.701L555.852 343.698L555.877 343.689C555.897 343.681 555.924 343.67 555.956 343.654C556.021 343.624 556.107 343.577 556.201 343.51C556.39 343.377 556.609 343.164 556.751 342.844C557.036 342.201 556.994 341.167 555.899 339.533C554.793 337.881 553.177 336.903 551.84 336.338C551.172 336.056 550.573 335.877 550.139 335.768C549.922 335.713 549.746 335.677 549.624 335.653C549.562 335.641 549.514 335.633 549.481 335.627L549.442 335.621L549.432 335.619L549.427 335.619L549.387 335.806L549.138 335.821L549.138 335.824L549.139 335.832L549.144 335.864L549.163 335.985C549.179 336.091 549.204 336.243 549.237 336.431C549.304 336.808 549.404 337.331 549.539 337.914C549.808 339.075 550.218 340.494 550.783 341.476C551.375 342.506 552.636 343.064 553.705 343.363C554.244 343.513 554.745 343.602 555.112 343.653C555.296 343.678 555.447 343.695 555.552 343.704C555.605 343.709 555.646 343.713 555.675 343.715L555.708 343.717L555.717 343.718L555.721 343.718L555.733 343.528Z" clip-rule="evenodd" fill-rule="evenodd"/>
<path fill="#618165" d="M351.933 275.279C351.933 275.279 351.933 275.279 351.563 275.33C351.192 275.381 351.192 275.381 351.192 275.381L351.191 275.377L351.189 275.364L351.181 275.317C351.173 275.274 351.162 275.212 351.149 275.131C351.121 274.968 351.082 274.729 351.034 274.421C350.94 273.805 350.685 271.815 350.685 271.815L350.778 270.51C350.778 270.51 351.351 259.147 355.166 253.97L355.79 254.37C352.113 259.359 351.53 270.52 351.53 270.52L351.432 271.754C351.432 271.754 351.685 273.728 351.778 274.337C351.825 274.642 351.864 274.878 351.891 275.037C351.905 275.117 351.915 275.178 351.922 275.219L351.931 275.264L351.933 275.275L351.933 275.279Z" clip-rule="evenodd" fill-rule="evenodd"/>
<path fill="#DFA47B" d="M360.354 252.544C361.734 251.245 355.146 248.461 354.399 249.412C353.901 248.793 353.449 248.891 353.287 249.516C355.802 252.167 358.974 253.842 360.354 252.544Z"/>
<path fill="#9F6D4A" d="M354.937 249.369C354.702 249.38 354.581 249.437 354.531 249.5C354.508 249.53 354.502 249.556 354.506 249.585C354.511 249.618 354.53 249.664 354.577 249.723C354.673 249.842 354.852 249.98 355.098 250.123C355.585 250.406 356.28 250.681 356.91 250.866C357.224 250.959 357.517 251.027 357.756 251.063C357.875 251.081 357.978 251.09 358.061 251.091C358.132 251.092 358.181 251.086 358.211 251.079C358.206 251.069 358.198 251.056 358.185 251.039C358.104 250.928 357.904 250.753 357.528 250.503L357.716 250.263C358.094 250.515 358.336 250.716 358.453 250.875C358.51 250.952 358.557 251.047 358.541 251.145C358.522 251.258 358.432 251.321 358.346 251.351C358.263 251.38 358.163 251.389 358.061 251.388C357.956 251.387 357.836 251.375 357.707 251.356C357.448 251.317 357.138 251.244 356.814 251.149C356.168 250.959 355.445 250.674 354.927 250.373C354.67 250.223 354.449 250.062 354.317 249.896C354.251 249.813 354.2 249.719 354.185 249.619C354.176 249.553 354.184 249.488 354.208 249.427C353.995 249.186 353.833 249.133 353.742 249.145C353.659 249.155 353.544 249.236 353.466 249.479C354.7 250.767 356.082 251.811 357.317 252.378C358.587 252.961 359.628 253.013 360.238 252.439C360.372 252.313 360.405 252.179 360.368 252.029C360.328 251.868 360.203 251.679 359.994 251.473C359.577 251.063 358.879 250.633 358.102 250.266C357.327 249.901 356.49 249.606 355.805 249.462C355.461 249.39 355.165 249.357 354.937 249.369ZM354.417 249.196C354.191 248.957 353.943 248.818 353.693 248.851C353.393 248.889 353.215 249.155 353.131 249.48L353.111 249.554L353.167 249.613C354.433 250.948 355.871 252.044 357.176 252.643C358.466 253.236 359.701 253.372 360.471 252.648C360.682 252.449 360.745 252.213 360.683 251.966C360.624 251.73 360.455 251.495 360.229 251.272C359.775 250.825 359.038 250.376 358.247 250.002C357.454 249.628 356.591 249.324 355.874 249.173C355.516 249.098 355.186 249.059 354.916 249.072C354.731 249.081 354.554 249.116 354.417 249.196Z" clip-rule="evenodd" fill-rule="evenodd"/>
<path fill="#9F6D4A" d="M356.791 252.329C355.705 251.833 354.649 250.842 353.327 249.348L353.494 249.224C354.816 250.719 355.846 251.677 356.885 252.152C357.914 252.621 358.966 252.621 360.351 252.162L360.426 252.348C359.004 252.819 357.888 252.829 356.791 252.329Z" clip-rule="evenodd" fill-rule="evenodd"/>
<path fill="#DFA47B" d="M352.996 256.615C351.96 255.527 351.667 253.579 353.343 249.377C355.589 251.055 356.7 253.314 359.504 252.407C362.307 251.5 358.638 254.899 357.871 256.502C357.104 258.105 354.032 257.703 352.996 256.615Z"/>
<path fill="#9F6D4A" d="M353.268 249.131L353.443 249.262C354.013 249.688 354.51 250.149 354.973 250.582C354.985 250.593 354.996 250.604 355.008 250.615C355.461 251.038 355.88 251.43 356.313 251.745C356.757 252.068 357.206 252.304 357.708 252.407C358.207 252.511 358.771 252.486 359.448 252.267C359.802 252.153 360.077 252.098 360.278 252.109C360.38 252.115 360.478 252.138 360.556 252.193C360.639 252.251 360.683 252.331 360.698 252.417C360.726 252.573 360.66 252.76 360.568 252.945C360.472 253.138 360.329 253.359 360.162 253.595C359.928 253.925 359.639 254.295 359.347 254.668C359.222 254.827 359.097 254.988 358.976 255.145C358.566 255.677 358.203 256.178 358.018 256.563C357.596 257.446 356.551 257.753 355.529 257.716C354.507 257.679 353.431 257.296 352.874 256.712C351.773 255.555 351.513 253.53 353.19 249.325L353.268 249.131ZM353.417 249.626C351.83 253.687 352.162 255.515 353.117 256.518C353.596 257.021 354.574 257.384 355.538 257.419C356.503 257.455 357.377 257.162 357.722 256.441C357.921 256.025 358.304 255.5 358.711 254.972C358.836 254.81 358.963 254.647 359.089 254.486C359.378 254.116 359.661 253.756 359.89 253.432C360.054 253.199 360.187 252.992 360.274 252.818C360.365 252.637 360.39 252.521 360.379 252.461C360.375 252.439 360.368 252.432 360.362 252.429C360.353 252.422 360.326 252.409 360.262 252.405C360.129 252.398 359.906 252.435 359.559 252.547C358.834 252.782 358.208 252.814 357.64 252.697C357.074 252.58 356.58 252.316 356.114 251.977C355.664 251.65 355.232 251.246 354.786 250.829C354.772 250.816 354.758 250.802 354.744 250.789C354.329 250.402 353.898 250.001 353.417 249.626Z" clip-rule="evenodd" fill-rule="evenodd"/>
<path fill="#9F6D4A" d="M354.463 251.608C353.931 250.909 353.445 250.181 353.158 249.433L353.564 249.305C353.831 250.001 354.29 250.693 354.816 251.384C355.078 251.728 355.355 252.069 355.63 252.409L355.636 252.416C355.909 252.752 356.181 253.087 356.432 253.418C356.937 254.082 357.374 254.746 357.582 255.4C357.792 256.062 357.769 256.72 357.344 257.35L356.977 257.139C357.325 256.623 357.352 256.085 357.168 255.506C356.981 254.919 356.579 254.299 356.08 253.642C355.832 253.316 355.564 252.986 355.29 252.648L355.285 252.643C355.011 252.304 354.73 251.958 354.463 251.608Z" clip-rule="evenodd" fill-rule="evenodd"/>
<path fill="#618165" d="M349.953 260.206C350.451 261.192 352.003 261.257 352.003 261.257C352.003 261.257 352.891 260.869 351.924 259.217C350.958 257.566 349.181 257.307 349.181 257.307C349.181 257.307 349.455 259.221 349.953 260.206Z"/>
<path fill="#324635" d="M349.195 257.209L349.18 257.307L349.074 257.318L349.055 257.189L349.195 257.209ZM352.002 261.257L351.999 261.356L352.026 261.357L352.049 261.347L352.002 261.257ZM349.308 257.434C349.316 257.482 349.325 257.54 349.337 257.608C349.37 257.802 349.42 258.07 349.485 258.37C349.616 258.971 349.807 259.685 350.05 260.166C350.28 260.621 350.757 260.871 351.196 261.007C351.414 261.074 351.617 261.112 351.766 261.133C351.84 261.143 351.9 261.15 351.942 261.153C351.955 261.154 351.966 261.155 351.974 261.156C351.975 261.155 351.976 261.154 351.977 261.154C351.995 261.143 352.021 261.125 352.05 261.099C352.107 261.047 352.178 260.96 352.223 260.825C352.312 260.557 352.305 260.076 351.83 259.263C351.359 258.46 350.692 257.995 350.142 257.731C349.866 257.599 349.621 257.517 349.444 257.469C349.392 257.454 349.347 257.443 349.308 257.434ZM352.002 261.257C352.049 261.347 352.049 261.347 352.049 261.347L352.052 261.346L352.055 261.344L352.066 261.339C352.074 261.335 352.086 261.328 352.099 261.32C352.126 261.303 352.163 261.278 352.202 261.242C352.281 261.17 352.372 261.056 352.428 260.888C352.541 260.549 352.509 260.01 352.018 259.172C351.522 258.324 350.817 257.833 350.237 257.555C349.948 257.416 349.689 257.33 349.502 257.278C349.408 257.253 349.332 257.235 349.279 257.225C349.253 257.219 349.232 257.216 349.218 257.213L349.201 257.21L349.197 257.21L349.195 257.209L349.18 257.307L349.074 257.318L349.074 257.32L349.075 257.324L349.077 257.341L349.087 257.404C349.095 257.458 349.108 257.537 349.125 257.635C349.158 257.831 349.209 258.102 349.274 258.405C349.405 259.007 349.6 259.742 349.855 260.247C350.123 260.777 350.67 261.052 351.132 261.195C351.364 261.267 351.58 261.307 351.738 261.329C351.817 261.341 351.882 261.347 351.927 261.351C351.949 261.353 351.967 261.354 351.98 261.355L351.994 261.356L351.998 261.356L351.999 261.356L352.002 261.257Z" clip-rule="evenodd" fill-rule="evenodd"/>
<path fill="#749C79" d="M285.702 346.448C273.315 340.679 266.192 339.563 253.194 340.749C253.984 323.238 255.123 313.705 258.061 297.215L259.152 315.818C259.808 314.757 261.278 306.251 263.556 303.142C266.134 308.144 266.13 311.671 264.857 318.594L270.847 320.786C275.746 301.165 277.747 309.325 273.918 326.256L289.578 308.576L279.197 329.909C281.989 330.36 283.783 330.089 288.103 327.015L298.066 313.791C294.409 327.16 291.957 334.445 285.702 346.448Z"/>
<path fill="#408682" d="M361.283 289.366C351.644 286.836 346.409 287.048 337.305 289.875C335.422 276.501 334.902 269.115 334.693 256.195L338.07 270.116C338.389 269.215 338.249 262.559 339.439 259.866C341.977 263.271 342.466 265.942 342.526 271.371L347.104 272.142C347.855 256.562 350.423 262.442 350.059 275.828L358.755 260.12L354.333 277.81C356.387 277.737 357.629 277.266 360.28 274.298L365.536 262.808C364.797 273.472 364.066 279.351 361.283 289.366Z"/>
<path fill="#749C79" d="M439.189 360.777C425.513 354.317 417.954 352.415 404.603 351.598C403.008 337.291 402.877 329.601 403.655 316.43L407.357 331.896C407.892 331.113 408.247 324.314 410.187 322.068C413.558 326.542 414.039 329.445 413.672 334.969L420.202 337.6C422.587 322.123 425.794 329.117 424.15 342.527L437.992 330.134L430.142 346.263C433.108 347.019 434.935 347.044 439.003 345.109L447.536 335.598C445.579 346.099 444.035 351.758 439.189 360.777Z"/>
<path fill="#749C79" d="M608.558 274.605C595.071 268.401 587.604 266.666 574.401 266.183C572.916 251.697 572.838 243.892 573.695 230.499L577.255 246.106C577.79 245.297 578.185 238.384 580.119 236.054C583.425 240.509 583.882 243.444 583.482 249.062L589.926 251.564C592.387 235.788 595.514 242.806 593.799 256.465L607.575 243.521L599.703 260.103C602.632 260.794 604.44 260.771 608.477 258.701L616.982 248.822C614.976 259.536 613.412 265.322 608.558 274.605Z"/>
<path fill="#408682" d="M573.117 384.194C558.932 381.846 551.31 382.634 538.185 387.203C534.744 369.988 533.603 360.43 532.626 343.641L538.273 361.422C538.692 360.22 538.142 351.573 539.737 347.953C543.614 352.134 544.466 355.561 544.836 362.619L551.549 363.174C551.835 342.83 555.884 350.228 556.048 367.68L567.911 346.392L562.384 369.84C565.374 369.544 567.16 368.809 570.87 364.688L577.937 349.225C577.413 363.171 576.654 370.892 573.117 384.194Z"/>
<path fill="#618165" d="M681.541 297.294C681.541 297.294 681.541 297.294 681.982 297.489C682.423 297.683 682.423 297.683 682.423 297.683L682.426 297.679L682.433 297.666L682.462 297.617C682.487 297.574 682.523 297.51 682.571 297.426C682.667 297.259 682.806 297.012 682.98 296.694C683.329 296.057 684.395 293.98 684.395 293.98L684.769 292.521C684.769 292.521 688.333 279.9 685.543 272.817L684.618 273.02C687.306 279.846 683.832 292.249 683.832 292.249L683.489 293.634C683.489 293.634 682.433 295.694 682.088 296.324C681.915 296.639 681.778 296.882 681.684 297.046C681.637 297.128 681.602 297.19 681.577 297.232L681.55 297.279L681.543 297.29L681.541 297.294Z" clip-rule="evenodd" fill-rule="evenodd"/>
<path fill="#DFA47B" d="M679.638 269.315C678.413 267.38 687.641 266.81 688.21 268.129C689.062 267.64 689.586 267.916 689.551 268.659C685.432 270.611 680.864 271.25 679.638 269.315Z"/>
<path fill="#9F6D4A" d="M687.558 267.879C687.846 267.98 687.975 268.087 688.013 268.175C688.031 268.216 688.028 268.247 688.012 268.277C687.994 268.311 687.952 268.354 687.872 268.401C687.708 268.496 687.435 268.578 687.075 268.642C686.363 268.769 685.397 268.809 684.546 268.775C684.121 268.758 683.731 268.722 683.421 268.672C683.266 268.647 683.135 268.619 683.032 268.588C682.943 268.562 682.884 268.538 682.85 268.518C682.86 268.51 682.875 268.498 682.897 268.485C683.04 268.394 683.353 268.278 683.914 268.146L683.771 267.814C683.207 267.947 682.831 268.076 682.626 268.205C682.527 268.269 682.432 268.354 682.416 268.467C682.396 268.597 682.485 268.7 682.58 268.765C682.671 268.828 682.793 268.875 682.92 268.912C683.05 268.95 683.203 268.983 683.372 269.01C683.708 269.065 684.12 269.101 684.558 269.119C685.432 269.154 686.437 269.114 687.193 268.979C687.569 268.913 687.903 268.819 688.13 268.688C688.244 268.621 688.342 268.539 688.397 268.435C688.434 268.366 688.449 268.292 688.441 268.216C688.796 268.033 689.019 268.036 689.127 268.083C689.226 268.126 689.337 268.257 689.343 268.551C687.327 269.495 685.219 270.116 683.471 270.272C681.675 270.433 680.363 270.099 679.821 269.244C679.702 269.056 679.711 268.897 679.814 268.747C679.925 268.586 680.151 268.427 680.488 268.281C681.159 267.989 682.188 267.781 683.291 267.672C684.39 267.564 685.541 267.556 686.446 267.656C686.899 267.706 687.28 267.781 687.558 267.879ZM688.269 267.886C688.639 267.71 689 267.651 689.298 267.78C689.656 267.935 689.778 268.292 689.759 268.678L689.755 268.767L689.665 268.809C687.59 269.792 685.392 270.45 683.547 270.615C681.722 270.778 680.137 270.464 679.454 269.384C679.266 269.088 679.277 268.806 679.447 268.56C679.608 268.325 679.907 268.132 680.271 267.973C681.003 267.655 682.087 267.441 683.21 267.33C684.335 267.219 685.522 267.21 686.469 267.314C686.942 267.366 687.366 267.447 687.696 267.563C687.922 267.643 688.129 267.747 688.269 267.886Z" clip-rule="evenodd" fill-rule="evenodd"/>
<path fill="#9F6D4A" d="M684.143 270.416C685.678 270.282 687.361 269.596 689.565 268.461L689.405 268.263C687.2 269.399 685.561 270.06 684.092 270.188C682.638 270.314 681.333 269.92 679.785 268.899L679.622 269.074C681.211 270.122 682.592 270.551 684.143 270.416Z" clip-rule="evenodd" fill-rule="evenodd"/>
<path fill="#DFA47B" d="M687.242 276.519C688.938 275.719 690.035 273.703 689.535 268.487C686.115 269.476 683.885 271.525 680.745 269.484C677.605 267.443 680.883 272.53 681.232 274.568C681.581 276.605 685.547 277.318 687.242 276.519Z"/>
<path fill="#9F6D4A" d="M689.721 268.246L689.453 268.324C688.586 268.574 687.795 268.892 687.057 269.191C687.039 269.199 687.02 269.206 687.001 269.214C686.28 269.506 685.613 269.776 684.956 269.958C684.284 270.144 683.637 270.233 682.975 270.158C682.316 270.084 681.625 269.845 680.867 269.352C680.47 269.094 680.15 268.931 679.897 268.868C679.767 268.836 679.637 268.825 679.518 268.856C679.394 268.888 679.309 268.959 679.258 269.047C679.165 269.207 679.176 269.436 679.221 269.672C679.269 269.919 679.363 270.214 679.481 270.535C679.647 270.983 679.867 271.495 680.089 272.011C680.184 272.232 680.279 272.454 680.371 272.672C680.679 273.405 680.942 274.089 681.026 274.579C681.218 275.701 682.4 276.428 683.683 276.771C684.966 277.113 686.446 277.099 687.357 276.67C689.16 275.82 690.244 273.706 689.744 268.486L689.721 268.246ZM689.349 268.73C689.792 273.759 688.692 275.631 687.129 276.367C686.345 276.737 684.994 276.767 683.783 276.443C682.572 276.12 681.597 275.473 681.44 274.557C681.349 274.027 681.071 273.311 680.765 272.582C680.671 272.358 680.574 272.132 680.478 271.909C680.258 271.397 680.043 270.898 679.88 270.458C679.764 270.143 679.677 269.866 679.634 269.644C679.59 269.412 679.602 269.277 679.638 269.215C679.651 269.192 679.663 269.188 679.671 269.186C679.685 269.182 679.724 269.178 679.805 269.198C679.972 269.239 680.236 269.364 680.624 269.616C681.436 270.144 682.201 270.415 682.95 270.499C683.697 270.584 684.409 270.481 685.115 270.286C685.797 270.097 686.485 269.819 687.197 269.53C687.219 269.521 687.242 269.512 687.264 269.503C687.925 269.235 688.61 268.96 689.349 268.73Z" clip-rule="evenodd" fill-rule="evenodd"/>
<path fill="#9F6D4A" d="M687.304 270.501C688.228 269.938 689.106 269.326 689.743 268.617L689.287 268.325C688.693 268.985 687.863 269.568 686.951 270.125C686.496 270.402 686.024 270.671 685.554 270.938L685.543 270.944C685.078 271.209 684.615 271.473 684.178 271.74C683.302 272.275 682.51 272.837 682.006 273.472C681.496 274.116 681.277 274.843 681.567 275.691L682.103 275.598C681.865 274.904 682.034 274.306 682.48 273.744C682.932 273.173 683.664 272.647 684.532 272.116C684.962 271.854 685.42 271.593 685.887 271.327L685.894 271.323C686.363 271.056 686.841 270.784 687.304 270.501Z" clip-rule="evenodd" fill-rule="evenodd"/>
<path fill="#618165" d="M689.67 281.581C688.681 282.47 686.73 281.959 686.73 281.959C686.73 281.959 685.773 281.203 687.594 279.762C689.415 278.321 691.719 278.705 691.719 278.705C691.719 278.705 690.659 280.691 689.67 281.581Z"/>
<path fill="#324635" d="M691.739 278.593L691.72 278.705L691.848 278.757L691.92 278.623L691.739 278.593ZM686.73 281.959L686.696 282.068L686.663 282.059L686.638 282.039L686.73 281.959ZM691.514 278.796C691.486 278.845 691.452 278.905 691.412 278.975C691.298 279.174 691.135 279.448 690.942 279.751C690.554 280.358 690.048 281.066 689.565 281.5C689.108 281.911 688.421 282.005 687.825 281.988C687.53 281.98 687.263 281.945 687.07 281.912C686.974 281.896 686.897 281.88 686.844 281.868C686.828 281.865 686.814 281.861 686.803 281.859C686.802 281.858 686.801 281.857 686.8 281.856C686.782 281.837 686.757 281.808 686.731 281.769C686.679 281.69 686.624 281.569 686.619 281.405C686.609 281.079 686.798 280.556 687.694 279.847C688.581 279.146 689.584 278.889 690.367 278.807C690.758 278.766 691.094 278.769 691.331 278.782C691.401 278.786 691.462 278.791 691.514 278.796ZM686.73 281.959C686.638 282.039 686.638 282.039 686.638 282.039L686.635 282.037L686.632 282.034L686.621 282.025C686.612 282.017 686.6 282.006 686.586 281.991C686.559 281.963 686.523 281.921 686.488 281.868C686.417 281.759 686.347 281.601 686.34 281.396C686.327 280.984 686.57 280.408 687.495 279.676C688.43 278.937 689.49 278.665 690.314 278.579C690.726 278.536 691.08 278.539 691.332 278.553C691.458 278.56 691.558 278.57 691.628 278.578C691.663 278.582 691.69 278.585 691.708 278.588L691.73 278.591L691.736 278.592L691.739 278.593L691.72 278.705L691.848 278.757L691.847 278.759L691.845 278.763L691.835 278.78L691.8 278.845C691.769 278.902 691.723 278.983 691.665 279.084C691.55 279.285 691.386 279.563 691.19 279.868C690.801 280.476 690.282 281.206 689.776 281.661C689.244 282.14 688.461 282.235 687.834 282.218C687.518 282.209 687.235 282.172 687.031 282.137C686.929 282.12 686.846 282.103 686.788 282.09C686.76 282.084 686.737 282.078 686.721 282.074L686.703 282.07L686.698 282.069L686.696 282.068L686.73 281.959Z" clip-rule="evenodd" fill-rule="evenodd"/>
<path fill="#408682" d="M697.162 316.728C685.463 311.622 678.736 310.634 666.46 311.684C667.206 296.186 668.283 287.75 671.057 273.155L672.087 289.619C672.706 288.68 674.095 281.152 676.247 278.4C678.682 282.827 678.677 285.949 677.475 292.076L683.132 294.016C687.758 276.651 689.649 283.872 686.033 298.858L700.822 283.21L691.018 302.091C693.655 302.49 695.349 302.25 699.429 299.529L708.838 287.825C705.384 299.657 703.069 306.105 697.162 316.728Z"/>
<path fill="#408682" d="M499.741 271.008C489.984 269.832 484.916 270.332 476.459 272.967C472.683 263.49 471.105 258.221 469.025 248.958L474.336 258.729C474.516 258.062 473.413 253.291 474.182 251.279C477.148 253.555 478.012 255.44 478.859 259.335L483.429 259.584C481.899 248.347 485.254 252.398 486.842 262.034L493.032 250.177L491.294 263.173C493.284 262.984 494.424 262.563 496.576 260.255L500.028 251.657C500.855 259.363 500.997 263.632 499.741 271.008Z"/>
<path fill="#618165" d="M1452.18 207.422C1452.18 207.422 1452.18 207.422 1451.54 207.505C1450.89 207.589 1450.89 207.588 1450.89 207.588L1450.89 207.581L1450.89 207.561L1450.87 207.483C1450.86 207.415 1450.84 207.314 1450.82 207.181C1450.77 206.916 1450.7 206.526 1450.62 206.025C1450.46 205.022 1450.01 201.781 1450.01 201.781L1450.18 199.657C1450.18 199.657 1451.17 181.152 1457.78 172.721L1458.86 173.373C1452.49 181.498 1451.48 199.672 1451.48 199.672L1451.31 201.683C1451.31 201.683 1451.75 204.896 1451.91 205.888C1451.99 206.384 1452.06 206.769 1452.1 207.029C1452.13 207.159 1452.15 207.258 1452.16 207.324L1452.17 207.398L1452.18 207.417L1452.18 207.422Z" clip-rule="evenodd" fill-rule="evenodd"/>
<path fill="#DFA47B" d="M1466.76 170.399C1469.15 168.285 1457.74 163.75 1456.45 165.3C1455.58 164.292 1454.8 164.451 1454.52 165.469C1458.88 169.786 1464.37 172.513 1466.76 170.399Z"/>
<path fill="#9F6D4A" d="M1457.38 165.228C1456.97 165.248 1456.76 165.339 1456.68 165.442C1456.64 165.491 1456.63 165.533 1456.63 165.58C1456.64 165.635 1456.67 165.709 1456.76 165.805C1456.92 166 1457.23 166.224 1457.66 166.457C1458.5 166.918 1459.7 167.366 1460.79 167.667C1461.34 167.818 1461.85 167.929 1462.26 167.988C1462.47 168.017 1462.64 168.032 1462.79 168.034C1462.91 168.035 1463 168.025 1463.05 168.013C1463.04 167.997 1463.03 167.976 1463 167.949C1462.86 167.768 1462.52 167.483 1461.87 167.076L1462.19 166.686C1462.85 167.096 1463.26 167.423 1463.47 167.682C1463.57 167.808 1463.65 167.961 1463.62 168.121C1463.59 168.305 1463.43 168.407 1463.28 168.457C1463.14 168.504 1462.97 168.519 1462.79 168.517C1462.61 168.515 1462.4 168.496 1462.18 168.465C1461.73 168.401 1461.19 168.283 1460.63 168.128C1459.51 167.818 1458.26 167.355 1457.36 166.864C1456.92 166.621 1456.53 166.357 1456.31 166.088C1456.19 165.952 1456.1 165.8 1456.08 165.637C1456.06 165.529 1456.07 165.423 1456.12 165.323C1455.75 164.932 1455.47 164.845 1455.31 164.864C1455.16 164.881 1454.97 165.013 1454.83 165.408C1456.97 167.506 1459.36 169.205 1461.5 170.13C1463.7 171.079 1465.5 171.164 1466.56 170.229C1466.79 170.024 1466.85 169.805 1466.78 169.561C1466.71 169.298 1466.5 168.991 1466.14 168.656C1465.41 167.988 1464.21 167.287 1462.86 166.69C1461.52 166.095 1460.07 165.616 1458.88 165.381C1458.29 165.263 1457.77 165.21 1457.38 165.228ZM1456.48 164.948C1456.09 164.558 1455.66 164.333 1455.22 164.385C1454.7 164.448 1454.4 164.881 1454.25 165.41L1454.22 165.531L1454.31 165.626C1456.51 167.8 1459 169.586 1461.26 170.561C1463.49 171.526 1465.63 171.748 1466.96 170.569C1467.33 170.245 1467.44 169.86 1467.33 169.458C1467.23 169.074 1466.93 168.692 1466.54 168.329C1465.76 167.6 1464.48 166.868 1463.11 166.261C1461.74 165.652 1460.24 165.156 1459 164.91C1458.38 164.787 1457.81 164.724 1457.34 164.746C1457.02 164.761 1456.72 164.817 1456.48 164.948Z" clip-rule="evenodd" fill-rule="evenodd"/>
<path fill="#9F6D4A" d="M1460.59 170.049C1458.71 169.242 1456.88 167.629 1454.59 165.195L1454.88 164.994C1457.17 167.428 1458.95 168.989 1460.75 169.761C1462.53 170.525 1464.36 170.525 1466.75 169.777L1466.88 170.081C1464.42 170.848 1462.49 170.864 1460.59 170.049Z" clip-rule="evenodd" fill-rule="evenodd"/>
<path fill="#DFA47B" d="M1454.02 177.029C1452.22 175.258 1451.72 172.086 1454.62 165.243C1458.51 167.975 1460.43 171.653 1465.29 170.177C1470.14 168.7 1463.79 174.235 1462.46 176.846C1461.13 179.456 1455.81 178.8 1454.02 177.029Z"/>
<path fill="#9F6D4A" d="M1454.49 164.842L1454.79 165.056C1455.78 165.749 1456.64 166.5 1457.44 167.206C1457.46 167.223 1457.48 167.241 1457.5 167.259C1458.29 167.948 1459.01 168.586 1459.76 169.099C1460.53 169.624 1461.31 170.008 1462.18 170.177C1463.04 170.346 1464.02 170.305 1465.19 169.949C1465.8 169.762 1466.28 169.673 1466.63 169.691C1466.8 169.7 1466.97 169.739 1467.11 169.829C1467.25 169.923 1467.33 170.053 1467.36 170.193C1467.4 170.447 1467.29 170.752 1467.13 171.053C1466.96 171.366 1466.72 171.727 1466.43 172.112C1466.02 172.649 1465.52 173.252 1465.02 173.858C1464.8 174.118 1464.58 174.379 1464.37 174.636C1463.66 175.501 1463.03 176.318 1462.71 176.945C1461.98 178.382 1460.17 178.883 1458.4 178.822C1456.63 178.761 1454.77 178.139 1453.81 177.187C1451.9 175.303 1451.45 172.005 1454.35 165.157L1454.49 164.842ZM1454.75 165.648C1452 172.262 1452.57 175.238 1454.23 176.871C1455.06 177.691 1456.75 178.282 1458.42 178.339C1460.09 178.396 1461.6 177.92 1462.2 176.746C1462.55 176.068 1463.21 175.214 1463.91 174.354C1464.13 174.089 1464.35 173.824 1464.57 173.562C1465.07 172.96 1465.56 172.373 1465.96 171.845C1466.24 171.467 1466.47 171.129 1466.62 170.847C1466.78 170.551 1466.82 170.363 1466.8 170.265C1466.8 170.228 1466.78 170.218 1466.77 170.212C1466.76 170.201 1466.71 170.179 1466.6 170.174C1466.37 170.162 1465.98 170.222 1465.38 170.405C1464.13 170.787 1463.04 170.84 1462.06 170.649C1461.08 170.458 1460.22 170.029 1459.42 169.477C1458.64 168.944 1457.89 168.286 1457.12 167.606C1457.09 167.585 1457.07 167.564 1457.04 167.542C1456.33 166.911 1455.58 166.259 1454.75 165.648Z" clip-rule="evenodd" fill-rule="evenodd"/>
<path fill="#9F6D4A" d="M1456.56 168.875C1455.64 167.737 1454.79 166.552 1454.3 165.334L1455 165.126C1455.46 166.259 1456.26 167.386 1457.17 168.51C1457.62 169.071 1458.1 169.626 1458.58 170.179L1458.59 170.192C1459.06 170.739 1459.53 171.284 1459.97 171.823C1460.84 172.904 1461.6 173.986 1461.96 175.05C1462.32 176.128 1462.28 177.2 1461.55 178.226L1460.91 177.883C1461.51 177.042 1461.56 176.165 1461.24 175.223C1460.92 174.267 1460.22 173.258 1459.36 172.188C1458.93 171.657 1458.46 171.119 1457.99 170.568L1457.98 170.56C1457.51 170.008 1457.02 169.445 1456.56 168.875Z" clip-rule="evenodd" fill-rule="evenodd"/>
<path fill="#618165" d="M1448.75 182.877C1449.61 184.483 1452.3 184.588 1452.3 184.588C1452.3 184.588 1453.84 183.957 1452.16 181.267C1450.49 178.577 1447.41 178.156 1447.41 178.156C1447.41 178.156 1447.89 181.272 1448.75 182.877Z"/>
<path fill="#324635" d="M1447.43 177.997L1447.41 178.157L1447.23 178.175L1447.19 177.964L1447.43 177.997ZM1452.3 184.588L1452.29 184.75L1452.34 184.751L1452.38 184.735L1452.3 184.588ZM1447.63 178.363C1447.64 178.44 1447.66 178.536 1447.68 178.646C1447.74 178.962 1447.82 179.399 1447.94 179.886C1448.16 180.865 1448.49 182.028 1448.92 182.812C1449.31 183.553 1450.14 183.96 1450.9 184.181C1451.28 184.291 1451.63 184.353 1451.89 184.386C1452.02 184.403 1452.12 184.413 1452.19 184.419C1452.21 184.421 1452.23 184.422 1452.25 184.423C1452.25 184.422 1452.25 184.421 1452.25 184.42C1452.28 184.403 1452.33 184.374 1452.38 184.331C1452.48 184.246 1452.6 184.105 1452.68 183.886C1452.83 183.449 1452.82 182.666 1452 181.342C1451.18 180.033 1450.03 179.277 1449.07 178.847C1448.6 178.632 1448.17 178.499 1447.87 178.419C1447.78 178.396 1447.7 178.378 1447.63 178.363ZM1452.3 184.588C1452.38 184.735 1452.38 184.735 1452.38 184.735L1452.38 184.733L1452.39 184.73L1452.41 184.722C1452.42 184.715 1452.44 184.704 1452.46 184.691C1452.51 184.663 1452.57 184.622 1452.64 184.564C1452.78 184.447 1452.94 184.262 1453.03 183.987C1453.23 183.436 1453.17 182.558 1452.32 181.192C1451.46 179.812 1450.24 179.013 1449.24 178.56C1448.74 178.334 1448.29 178.193 1447.97 178.109C1447.8 178.068 1447.67 178.04 1447.58 178.022C1447.54 178.013 1447.5 178.007 1447.48 178.003L1447.45 177.999L1447.44 177.997L1447.43 177.997L1447.41 178.157L1447.23 178.175L1447.23 178.177L1447.23 178.184L1447.23 178.211L1447.25 178.314C1447.26 178.403 1447.28 178.531 1447.31 178.691C1447.37 179.01 1447.46 179.451 1447.57 179.944C1447.8 180.924 1448.14 182.121 1448.58 182.943C1449.04 183.807 1449.99 184.255 1450.79 184.488C1451.19 184.605 1451.57 184.67 1451.84 184.706C1451.98 184.724 1452.09 184.735 1452.17 184.741C1452.21 184.745 1452.24 184.747 1452.26 184.748L1452.28 184.749L1452.29 184.75L1452.29 184.75L1452.3 184.588Z" clip-rule="evenodd" fill-rule="evenodd"/>
<path fill="#408682" d="M1462.52 213.04C1451.71 210.339 1445.91 210.28 1435.94 212.36C1433.25 200.398 1432.35 193.816 1431.54 182.335L1435.91 194.854C1436.22 194.07 1435.77 188.153 1436.97 185.819C1439.94 188.961 1440.6 191.356 1440.91 196.179L1446.02 197.079C1446.16 183.282 1449.27 188.624 1449.46 200.491L1458.41 186.955L1454.29 202.453C1456.57 202.485 1457.93 202.125 1460.74 199.614L1466.06 189.662C1465.71 199.095 1465.16 204.28 1462.52 213.04Z"/>
<path fill="#86B68C" d="M1471.36 147.681C1478.61 145.698 1482.45 145.35 1488.99 145.875C1491.17 139.566 1492 136.126 1492.92 130.169L1489.6 136.856C1489.42 136.469 1489.92 133.397 1489.2 132.261C1487.13 134.042 1486.61 135.311 1486.25 137.813L1482.83 138.556C1483.2 131.457 1480.96 134.379 1480.43 140.502L1474.96 134.021L1477.17 141.777C1475.66 141.918 1474.77 141.807 1473 140.668L1469.81 135.833C1469.72 140.673 1469.91 143.314 1471.36 147.681Z"/>
</svg>