<svg width="184" height="166" viewBox="0 0 184 166" fill="none" xmlns="http://www.w3.org/2000/svg">
<path d="M173.246 80.3643C173.246 118.614 133.261 153.689 89.5822 155.003C48.3983 155.003 6.89384 124.052 6.89384 85.8026C3.94609 44.4711 42.9741 9.07031 84.158 9.07031C127.615 9.07031 165.734 30.8918 173.246 80.3643Z" fill="#1F3F3D"/>
<path fill-rule="evenodd" clip-rule="evenodd" d="M39.918 125.844C30.7069 121.114 21.6812 113.478 15.5177 97.6014L17.9608 96.8829C23.9155 112.222 32.5199 119.41 41.1861 123.86C45.1462 125.894 49.1313 127.363 52.9866 128.785C53.3943 128.935 53.8006 129.085 54.2053 129.235C58.3966 130.787 62.4431 132.358 65.8665 134.616L64.3459 136.452C61.216 134.388 57.4547 132.913 53.2418 131.353C52.8378 131.203 52.4299 131.053 52.0184 130.901C48.1799 129.486 44.0362 127.959 39.918 125.844Z" fill="#918B97"/>
<path fill-rule="evenodd" clip-rule="evenodd" d="M42.9209 134.826L41.5454 133.506C38.7891 130.861 37.8219 128.926 38.0857 127.347C38.2081 126.615 38.5843 126.105 38.8445 125.777C38.8964 125.711 38.9396 125.658 38.9769 125.612C39.0476 125.525 39.0972 125.463 39.1447 125.395C39.1616 125.371 39.1726 125.353 39.1794 125.342L39.3851 123.938L40.9006 124.8C42.6873 125.815 44.0147 126.988 44.412 128.636C44.7667 130.108 44.2783 131.667 43.5369 133.393L42.9209 134.826ZM41.7674 130.568C42.0229 129.724 42.0671 129.142 41.9595 128.696C41.8718 128.332 41.6457 127.933 40.9685 127.42C40.7456 127.701 40.6166 127.915 40.5759 128.158C40.5273 128.449 40.5624 129.133 41.7674 130.568Z" fill="#918B97"/>
<path fill-rule="evenodd" clip-rule="evenodd" d="M28.0332 125.184L27.0099 123.778C24.8192 120.769 24.2237 118.719 24.8791 117.226C25.1807 116.539 25.6957 116.128 26.0332 115.876C26.1025 115.824 26.1592 115.782 26.2078 115.746C26.2982 115.68 26.3604 115.635 26.4226 115.582C26.4357 115.571 26.446 115.561 26.4539 115.554L26.9758 114.293L28.243 115.34C29.8023 116.628 30.9092 117.993 30.9428 119.66C30.9729 121.157 30.0959 122.547 28.9542 124.006L28.0332 125.184ZM27.8807 121.027C28.3482 120.274 28.5212 119.747 28.5128 119.328C28.5059 118.986 28.3637 118.551 27.7127 117.875C27.6993 117.885 27.6868 117.894 27.6751 117.903C27.3807 118.123 27.2166 118.287 27.1311 118.481C27.0366 118.696 26.89 119.336 27.8807 121.027Z" fill="#918B97"/>
<path fill-rule="evenodd" clip-rule="evenodd" d="M42.6423 118.584L41.621 119.59C39.3127 121.865 37.3966 122.501 35.5802 121.861C34.7447 121.567 34.1161 121.051 33.7211 120.713C33.6404 120.644 33.575 120.587 33.5187 120.538C33.4133 120.447 33.3402 120.383 33.2598 120.32C33.2408 120.305 33.2256 120.294 33.2139 120.285L31.7411 119.793L32.3187 118.554C33.0639 116.955 34.0597 115.817 35.7866 115.756C36.5955 115.727 37.4411 115.944 38.2962 116.284C39.1506 116.623 40.0905 117.114 41.12 117.707L42.6423 118.584ZM38.5103 118.784C38.2346 118.65 37.9804 118.537 37.7451 118.444C37.1033 118.189 36.6774 118.112 36.3778 118.123C36.0011 118.136 35.5777 118.303 35.0992 119.03C35.1323 119.059 35.1629 119.085 35.1899 119.108C35.5376 119.406 35.7762 119.573 36.0181 119.658C36.2924 119.755 37.0534 119.895 38.5103 118.784Z" fill="#918B97"/>
<path fill-rule="evenodd" clip-rule="evenodd" d="M30.5224 104.873L29.5011 105.879C27.1928 108.153 25.2768 108.79 23.4603 108.15C22.6248 107.855 21.9962 107.34 21.6012 107.002C21.5205 106.932 21.4551 106.876 21.3988 106.827C21.2934 106.735 21.2203 106.672 21.1399 106.609C21.121 106.594 21.1058 106.582 21.0941 106.574L19.6212 106.081L20.1989 104.842C20.9441 103.243 21.9398 102.106 23.6667 102.044C24.4756 102.016 25.3213 102.233 26.1763 102.572C27.0308 102.911 27.9706 103.403 29.0002 103.996L30.5224 104.873ZM26.3905 105.073C26.1147 104.939 25.8606 104.826 25.6252 104.733C24.9834 104.478 24.5575 104.401 24.2579 104.411C23.8813 104.425 23.4579 104.592 22.9793 105.318C23.0124 105.347 23.043 105.374 23.07 105.397C23.4177 105.694 23.6563 105.862 23.8983 105.947C24.1725 106.044 24.9335 106.184 26.3905 105.073Z" fill="#918B97"/>
<path fill-rule="evenodd" clip-rule="evenodd" d="M53.862 123.869L53.0568 125.082C51.3866 127.599 49.7212 128.547 47.8735 128.307C47.023 128.197 46.3174 127.845 45.8711 127.611C45.7793 127.563 45.7051 127.523 45.6418 127.489C45.5243 127.427 45.4439 127.384 45.3562 127.342C45.3386 127.334 45.3242 127.327 45.3127 127.322L43.7397 127.143L44.0329 125.798C44.384 124.185 45.0789 122.943 46.6987 122.556C48.1494 122.21 50.0249 122.66 52.1236 123.322L53.862 123.869ZM49.7836 124.922C48.8063 124.697 48.205 124.665 47.8086 124.76C47.4869 124.837 47.1527 125.041 46.8765 125.709C46.8825 125.712 46.8883 125.715 46.8939 125.718C47.2812 125.922 47.5356 126.026 47.7755 126.057C48.0369 126.091 48.7315 126.081 49.7836 124.922Z" fill="#918B97"/>
<path fill-rule="evenodd" clip-rule="evenodd" d="M58.7335 141.537C54.6835 139.08 50.6347 135.092 46.5329 128.844L48.7743 127.672C52.7552 133.735 56.5713 137.429 60.2139 139.639C63.8334 141.835 67.3512 142.608 70.8418 142.725C73.9533 142.829 77.0174 142.416 80.1896 141.988C80.6321 141.929 81.0767 141.869 81.5238 141.81C85.1183 141.337 88.8538 140.939 92.611 141.516L92.1374 143.777C88.8288 143.268 85.4621 143.606 81.8724 144.079C81.4388 144.136 81.0014 144.195 80.5606 144.255C77.4112 144.681 74.0865 145.13 70.7114 145.017C66.809 144.886 62.8066 144.008 58.7335 141.537Z" fill="#9CDAC9"/>
<path fill-rule="evenodd" clip-rule="evenodd" d="M77.8549 151.044L76.5788 150.688C74.7916 150.19 73.574 149.636 72.8023 149.01C72.0016 148.36 71.6317 147.585 71.7001 146.708C71.7627 145.903 72.1888 145.207 72.4464 144.803C72.5025 144.715 72.5482 144.644 72.5869 144.585C72.6573 144.476 72.7047 144.403 72.7498 144.324C72.75 144.324 72.7502 144.323 72.7504 144.323L72.8166 143.084L74.2463 143.1C76.326 143.123 78.0463 143.461 78.7605 144.816C79.1067 145.472 79.1432 146.244 79.0355 147.039C78.9283 147.83 78.6657 148.731 78.3192 149.72L77.8549 151.044ZM72.7827 144.261C72.7829 144.26 72.7818 144.263 72.779 144.269C72.7812 144.264 72.7826 144.261 72.7827 144.261ZM76.3777 147.992C76.4567 147.688 76.512 147.418 76.5443 147.18C76.6183 146.634 76.5586 146.339 76.4671 146.165C76.3339 145.912 75.9549 145.614 74.6779 145.506C74.6565 145.539 74.6358 145.571 74.6163 145.601C74.5873 145.646 74.561 145.686 74.5393 145.72C74.2994 146.097 74.2162 146.293 74.205 146.437C74.1995 146.508 74.1912 146.74 74.6347 147.1C74.9652 147.368 75.5093 147.673 76.3777 147.992Z" fill="#9CDAC9"/>
<path fill-rule="evenodd" clip-rule="evenodd" d="M64.6994 149.457L62.933 148.742C59.4602 147.336 58.0876 145.694 57.8304 143.901C57.7082 143.049 57.8607 142.275 57.9877 141.719C58.0109 141.617 58.0315 141.53 58.0499 141.452C58.0873 141.294 58.1156 141.174 58.1382 141.05C58.1653 140.903 58.1624 140.852 58.1628 140.852L57.9046 139.233L59.6095 139.291C61.6637 139.359 63.1802 139.937 64.0174 141.486C64.773 142.883 64.8689 144.919 64.7734 147.475L64.6994 149.457ZM62.3326 145.609C62.2867 144.298 62.1171 143.434 61.8052 142.858C61.545 142.376 61.1477 142.032 60.3921 141.847C60.389 141.861 60.386 141.874 60.3831 141.886C60.2721 142.372 60.205 142.789 60.2655 143.211C60.3487 143.791 60.7231 144.656 62.3326 145.609Z" fill="#9CDAC9"/>
<path fill-rule="evenodd" clip-rule="evenodd" d="M76.1271 136.704L75.247 138.176C73.2612 141.497 71.4573 143.01 69.6013 143.248C68.7455 143.358 68.061 143.158 67.6244 143.017C67.5361 142.989 67.4641 142.965 67.4019 142.944C67.2846 142.905 67.2027 142.877 67.1137 142.854C67.0886 142.847 67.0693 142.843 67.0553 142.84L65.5455 143.06L65.9523 141.577C66.4785 139.659 67.3136 138.085 68.999 137.211C70.5186 136.423 72.4002 136.409 74.512 136.576L76.1271 136.704ZM72.11 138.856C71.0138 138.86 70.3332 138.996 69.8734 139.234C69.4908 139.432 69.0928 139.802 68.7173 140.731C68.7547 140.743 68.7892 140.755 68.8197 140.765C69.2034 140.889 69.4687 140.94 69.7304 140.907C70.0372 140.867 70.8176 140.628 72.11 138.856Z" fill="#9CDAC9"/>
<path fill-rule="evenodd" clip-rule="evenodd" d="M87.9489 136.43L87.2063 138.26C85.8641 141.566 84.3648 143.158 82.6916 143.739C81.9058 144.012 81.2092 144.01 80.733 143.995C80.6412 143.992 80.5648 143.989 80.4981 143.986C80.3687 143.981 80.2756 143.977 80.1773 143.978C80.1183 143.979 80.0844 143.982 80.0694 143.984L78.4755 144.564L78.6018 142.908C78.7405 141.089 79.2971 139.579 80.75 138.504C82.0437 137.547 83.86 137.102 86.0396 136.744L87.9489 136.43ZM84.026 139.558C83.0785 139.802 82.4563 140.067 82.0348 140.379C81.6947 140.63 81.4162 140.967 81.2344 141.576C81.592 141.583 81.8791 141.562 82.1644 141.463C82.5489 141.329 83.2147 140.945 84.026 139.558Z" fill="#9CDAC9"/>
<path fill-rule="evenodd" clip-rule="evenodd" d="M12.2626 83.3877C11.125 74.0258 12.7513 63.0732 23.5964 49.2797L25.6651 50.6024C15.1984 63.9147 13.7352 74.285 14.804 83.0806C15.2926 87.1015 16.311 90.8061 17.2965 94.3914C17.4007 94.7705 17.5046 95.1483 17.6074 95.525C18.6722 99.426 19.6356 103.238 19.6021 107.014L17.0454 107.049C17.0759 103.603 16.1956 100.055 15.125 96.1329C15.0224 95.7567 14.918 95.3774 14.8128 94.9948C13.8311 91.4259 12.771 87.5718 12.2626 83.3877Z" fill="#9CDAC9"/>
<path fill-rule="evenodd" clip-rule="evenodd" d="M20.4944 81.0133L18.9667 80.8819C15.5238 80.586 13.8076 79.5993 13.3162 77.927C13.0902 77.1578 13.1883 76.4052 13.2631 75.9236C13.2784 75.8253 13.2915 75.745 13.3028 75.6761C13.324 75.5469 13.3387 75.4573 13.3487 75.3628C13.351 75.3407 13.3524 75.3232 13.3533 75.3099L12.9296 73.9677L14.4068 73.644C16.3078 73.2274 17.9366 73.2624 19.0157 74.4555C19.521 75.0142 19.8233 75.7449 20.02 76.5543C20.2166 77.3632 20.3244 78.3231 20.3929 79.4069L20.4944 81.0133ZM17.8586 78.1852C17.8173 77.9118 17.7703 77.6657 17.7165 77.4443C17.5688 76.8368 17.3872 76.4882 17.2002 76.2816C16.9656 76.0222 16.5638 75.8201 15.6205 75.9088C15.614 75.9484 15.6081 75.9848 15.6032 76.0169C15.5374 76.4404 15.5261 76.709 15.5915 76.9314C15.6654 77.183 15.987 77.8064 17.8586 78.1852Z" fill="#9CDAC9"/>
<path fill-rule="evenodd" clip-rule="evenodd" d="M22.3172 92.1218L20.716 92.2688C17.4262 92.5708 15.5805 91.9446 14.7094 90.4951C14.308 89.8272 14.2113 89.119 14.1608 88.6624C14.1504 88.5687 14.1426 88.4926 14.1359 88.4275C14.1236 88.3066 14.1151 88.2237 14.1011 88.1365C14.0981 88.118 14.0953 88.1031 14.093 88.0915L13.3227 86.8629L14.7377 86.2691C16.4212 85.5626 17.9672 85.3231 19.276 86.2446C20.447 87.069 21.1451 88.6661 21.7846 90.5516L22.3172 92.1218ZM18.9258 89.8412C18.5539 89.0178 18.2267 88.5715 17.9043 88.3446C17.6431 88.1606 17.2612 88.0448 16.4991 88.2385C16.4995 88.2415 16.4998 88.2446 16.5001 88.2476C16.544 88.6431 16.5995 88.888 16.7148 89.0798C16.8414 89.2906 17.2629 89.7757 18.9258 89.8412Z" fill="#9CDAC9"/>
<path fill-rule="evenodd" clip-rule="evenodd" d="M76.1763 17.8228C88.6696 15.5991 103.272 16.075 120.114 25.553L118.761 27.5523C102.53 18.418 88.5867 17.9878 76.6206 20.1176C70.6052 21.1883 65.0793 22.9079 59.9558 24.534C59.724 24.6076 59.4928 24.681 59.2623 24.7543C54.4425 26.2856 49.918 27.7232 45.7951 28.321L45.4387 26.012C49.3305 25.4477 53.6571 24.0735 58.577 22.511C58.7707 22.4495 58.9654 22.3876 59.1611 22.3255C64.2797 20.7009 69.962 18.9289 76.1763 17.8228Z" fill="#9CDAC9"/>
<path fill-rule="evenodd" clip-rule="evenodd" d="M49.872 17.9989L51.7353 17.9046C56.0621 17.6857 58.4414 18.3438 59.6101 19.7061C60.1522 20.338 60.3134 21.0037 60.4042 21.4471C60.4221 21.5345 60.4361 21.6072 60.4484 21.6705C60.472 21.7925 60.4888 21.8797 60.5133 21.9695C60.5237 22.0077 60.5324 22.0329 60.538 22.0477L61.5056 23.1323L59.8818 23.615C57.7067 24.2616 55.7486 24.4393 54.0462 23.5513C52.509 22.7495 51.5172 21.2192 50.5673 19.3597L49.872 17.9989ZM53.908 20.0106C54.5138 20.9759 55.0329 21.5056 55.5501 21.7754C55.9859 22.0027 56.592 22.1223 57.7269 21.9033C57.7267 21.9018 57.7264 21.9003 57.7261 21.8988C57.7164 21.8489 57.7075 21.8027 57.6993 21.7626C57.6193 21.372 57.5277 21.1034 57.3396 20.8841C57.1015 20.6066 56.3976 20.081 53.908 20.0106Z" fill="#9CDAC9"/>
<path fill-rule="evenodd" clip-rule="evenodd" d="M37.0142 30.857L38.2137 29.506C40.8859 26.4961 43.0024 25.3781 44.8972 25.4945C45.7795 25.5488 46.4462 25.8726 46.8853 26.1028C46.9709 26.1477 47.0419 26.1858 47.1039 26.219C47.224 26.2834 47.3104 26.3297 47.4039 26.3725C47.4503 26.3938 47.4804 26.4052 47.4967 26.4109L49.0759 26.4817L48.3924 27.9241C47.5039 29.7991 46.3599 31.2028 44.5003 31.7406C42.8262 32.2248 40.8861 31.8858 38.6725 31.2976L37.0142 30.857ZM41.4457 29.4619C42.6449 29.6845 43.4375 29.6873 44.0148 29.5203C44.499 29.3803 44.9882 29.066 45.5291 28.2227C45.4904 28.202 45.4543 28.1827 45.422 28.1657C45.0374 27.9641 44.741 27.8447 44.417 27.8248C44 27.7991 43.0961 27.9301 41.4457 29.4619Z" fill="#9CDAC9"/>
<path fill-rule="evenodd" clip-rule="evenodd" d="M65.4414 12.637L67.3895 12.7018C71.5627 12.8408 73.7957 13.6767 74.8414 15.0671C75.3283 15.7145 75.4552 16.3663 75.5242 16.8045C75.5377 16.8903 75.5481 16.9617 75.5573 17.0239C75.5748 17.1438 75.5874 17.2295 75.6071 17.3184C75.6164 17.3602 75.6244 17.3866 75.6292 17.4012L76.545 18.5729L74.8427 18.936C72.7051 19.392 70.8097 19.3985 69.2246 18.4064C67.8017 17.5159 66.9206 15.9689 66.0875 14.0924L65.4414 12.637ZM69.4292 14.9943C69.9481 15.9184 70.4118 16.453 70.8882 16.7511C71.2842 16.999 71.8226 17.1575 72.8189 17.0639C72.8153 17.0391 72.8117 17.0158 72.8083 16.9943C72.7482 16.6125 72.6717 16.3408 72.4955 16.1064C72.2727 15.8102 71.6392 15.2698 69.4292 14.9943Z" fill="#9CDAC9"/>
<path fill-rule="evenodd" clip-rule="evenodd" d="M82.0329 9.86006L83.9043 10.2873C88.052 11.2344 90.0767 12.5109 90.7879 14.112C91.1193 14.8583 91.0915 15.5401 91.0562 15.9977C91.0494 16.0867 91.0429 16.1609 91.0372 16.2258C91.0261 16.3517 91.0182 16.4425 91.0167 16.5375C91.016 16.5866 91.0181 16.617 91.0196 16.6326L91.6408 17.9617L89.9077 18C87.6618 18.0497 85.7756 17.6911 84.4338 16.3878C83.2262 15.2148 82.7121 13.4802 82.3241 11.4118L82.0329 9.86006ZM85.356 12.9242C85.6612 14.0037 86.0062 14.6595 86.4263 15.0675C86.7786 15.4097 87.303 15.6808 88.3656 15.7755C88.369 15.7363 88.3721 15.6997 88.3747 15.6668C88.4056 15.2662 88.3941 14.9704 88.2706 14.6924C88.1109 14.3329 87.5824 13.6436 85.356 12.9242Z" fill="#9CDAC9"/>
<path fill-rule="evenodd" clip-rule="evenodd" d="M100.885 10.7774L102.383 11.6491C105.844 13.6632 107.303 15.4038 107.321 17.1199C107.33 17.9108 107.014 18.5257 106.797 18.9165C106.753 18.9955 106.716 19.06 106.684 19.1157C106.625 19.2209 106.583 19.2947 106.544 19.3749C106.533 19.3979 106.526 19.4155 106.521 19.4282L106.565 20.8048L104.99 20.3543C102.911 19.7597 101.26 18.9048 100.505 17.3112C99.8225 15.8712 100.06 14.1458 100.532 12.2215L100.885 10.7774ZM102.726 14.5251C102.576 15.5496 102.636 16.1902 102.845 16.6302C103.019 16.9983 103.391 17.3921 104.413 17.7982C104.436 17.7574 104.457 17.72 104.475 17.6875C104.667 17.3427 104.761 17.1024 104.758 16.8609C104.755 16.5765 104.588 15.8365 102.726 14.5251Z" fill="#9CDAC9"/>
<path fill-rule="evenodd" clip-rule="evenodd" d="M77.5135 25.9309L77.4707 24.5197C77.3676 21.1171 78.2883 19.3119 80.1083 18.5591C80.9484 18.2115 81.8128 18.1742 82.3773 18.1621C82.4901 18.1597 82.5835 18.1584 82.6645 18.1572C82.8192 18.155 82.9288 18.1534 83.0425 18.1463C83.0813 18.1438 83.109 18.1411 83.1274 18.139L84.5355 17.5282L85.0636 18.8183C85.7893 20.5911 85.9471 22.1518 84.7362 23.3836C84.1675 23.9622 83.3755 24.3796 82.4721 24.7114C81.5693 25.043 80.4789 25.3162 79.2358 25.5739L77.5135 25.9309ZM80.2399 23.0759C80.6124 22.9735 80.942 22.87 81.2326 22.7633C81.924 22.5093 82.3181 22.2645 82.5454 22.0333C82.8449 21.7286 83.0261 21.2624 82.7729 20.3019C82.7593 20.3021 82.7458 20.3023 82.7325 20.3025C82.669 20.3034 82.6106 20.3042 82.5602 20.3053C82.0593 20.3161 81.7279 20.3526 81.4585 20.464C81.1286 20.6005 80.42 21.0706 80.2399 23.0759Z" fill="#9CDAC9"/>
<path fill-rule="evenodd" clip-rule="evenodd" d="M91.3455 25.6185L91.2768 24.2446C91.1139 20.9858 91.944 19.2143 93.7251 18.4848C94.5423 18.1502 95.385 18.1249 95.921 18.1198C96.0308 18.1188 96.1207 18.1185 96.1978 18.1183C96.3425 18.118 96.4429 18.1178 96.548 18.1123C96.5707 18.1112 96.5889 18.1099 96.6031 18.1087L97.9791 17.5167L98.5158 18.786C99.2354 20.4881 99.4317 22.0111 98.2754 23.2111C97.731 23.7762 96.9679 24.1761 96.1058 24.4881C95.2447 24.7998 94.206 25.0513 93.0274 25.285L91.3455 25.6185ZM94.0162 22.8038C94.3392 22.716 94.6259 22.627 94.8795 22.5352C95.5217 22.3028 95.8731 22.0802 96.0696 21.8763C96.325 21.6111 96.4933 21.1844 96.2367 20.2628C96.232 20.2628 96.2274 20.2629 96.2228 20.2629C96.1633 20.263 96.109 20.2632 96.0626 20.2636C95.5865 20.2682 95.2943 20.3001 95.0658 20.3937C94.8105 20.4983 94.1525 20.9027 94.0162 22.8038Z" fill="#9CDAC9"/>
<path fill-rule="evenodd" clip-rule="evenodd" d="M64.7017 29.8089L64.3485 28.3726C63.5742 25.2246 64.0698 23.3561 65.5884 22.2836C66.2908 21.7875 67.0789 21.5725 67.5984 21.4432C67.7026 21.4172 67.7885 21.3965 67.8627 21.3786C68.0034 21.3446 68.1022 21.3207 68.2042 21.2908C68.2374 21.281 68.2612 21.2732 68.2772 21.2676L69.5196 20.3582L70.3338 21.5502C71.3655 23.0605 71.8236 24.4954 70.9497 25.8968C70.164 27.1568 68.4362 28.1077 66.3348 29.065L64.7017 29.8089ZM66.7441 26.359C67.7456 25.8106 68.2729 25.3803 68.5158 24.9907C68.7172 24.6678 68.7946 24.2374 68.4326 23.4779C68.3984 23.4862 68.3665 23.494 68.3376 23.5012C67.8835 23.6143 67.5884 23.716 67.363 23.8751C67.0932 24.0657 66.566 24.6143 66.7441 26.359Z" fill="#9CDAC9"/>
<path fill-rule="evenodd" clip-rule="evenodd" d="M23.4693 52.5895C23.7806 44.2111 26.7611 34.7453 38.2681 23.819L40.1197 25.3848C29.06 35.8864 26.3314 44.8017 26.041 52.6152C25.908 56.1921 26.2847 59.5508 26.6502 62.8102C26.6888 63.1546 26.7273 63.4978 26.765 63.8401C27.1558 67.3837 27.4721 70.8532 26.9104 74.1832L24.3664 73.8875C24.8734 70.8819 24.5975 67.6829 24.2043 64.1179C24.1666 63.7762 24.1279 63.4314 24.0888 63.0834C23.7246 59.8406 23.3303 56.3295 23.4693 52.5895Z" fill="#918B97"/>
<path fill-rule="evenodd" clip-rule="evenodd" d="M17.6239 68.6116L18.0899 66.9587C18.9863 63.7794 20.1852 62.0985 21.7788 61.5024C22.5109 61.2285 23.1681 61.2574 23.5814 61.2866C23.6681 61.2927 23.7372 61.2983 23.7958 61.3029C23.9025 61.3115 23.9741 61.3172 24.0521 61.3185C24.0621 61.3187 24.0709 61.3187 24.0784 61.3187L25.4878 60.7638L25.5042 62.3073C25.5225 64.033 25.1846 65.5723 23.9023 66.6832C22.7609 67.672 21.118 68.0666 19.2697 68.3549L17.6239 68.6116ZM24.1174 61.3171C24.1174 61.3171 24.1166 61.3172 24.1149 61.3174L24.1174 61.3171ZM21.005 65.5749C21.7572 65.3726 22.2069 65.1533 22.4867 64.9109C22.7079 64.7193 22.9273 64.4141 23.031 63.7269C22.7139 63.7078 22.511 63.723 22.3325 63.7897C22.142 63.861 21.616 64.1398 21.005 65.5749Z" fill="#918B97"/>
<path fill-rule="evenodd" clip-rule="evenodd" d="M30.9732 51.5994L29.4729 51.2732C26.4776 50.622 25.0314 49.552 24.8156 47.9589C24.717 47.2309 24.9148 46.5596 25.0471 46.1455C25.0752 46.0573 25.0983 45.9872 25.1177 45.9282C25.1526 45.8218 25.1758 45.7512 25.1963 45.6742C25.1976 45.6693 25.1989 45.6646 25.1999 45.6603L24.9875 44.3012L26.5075 44.1724C28.2479 44.0249 29.7373 44.2367 30.5612 45.4532C30.9449 46.0197 31.115 46.7131 31.179 47.4523C31.243 48.1909 31.2065 49.0486 31.1192 50.0031L30.9732 51.5994ZM25.2102 45.6132C25.2103 45.6132 25.2101 45.6147 25.2095 45.618C25.2099 45.6149 25.2102 45.6133 25.2102 45.6132ZM28.7715 48.452C28.7682 48.3024 28.7609 48.163 28.7497 48.0329C28.7034 47.4991 28.5946 47.1976 28.4735 47.0189C28.3382 46.8191 28.0766 46.6159 27.3513 46.5707C27.245 46.9089 27.2108 47.1071 27.233 47.2705C27.2539 47.4253 27.3914 47.9397 28.7715 48.452Z" fill="#918B97"/>
<path fill-rule="evenodd" clip-rule="evenodd" d="M35.1727 41.395L33.6724 41.0689C30.677 40.4177 29.2309 39.3476 29.0151 37.7546C28.9164 37.0266 29.1143 36.3553 29.2465 35.9412C29.2747 35.8529 29.2977 35.7828 29.3171 35.7238C29.3521 35.6174 29.3753 35.5469 29.3958 35.4699C29.3971 35.4649 29.3983 35.4603 29.3994 35.456L29.187 34.0969L30.707 33.968C32.4473 33.8205 33.9367 34.0323 34.7606 35.2488C35.1443 35.8154 35.3144 36.5088 35.3785 37.2479C35.4424 37.9865 35.406 38.8442 35.3187 39.7988L35.1727 41.395ZM29.4097 35.4089C29.4097 35.4088 29.4095 35.4104 29.409 35.4136C29.4093 35.4106 29.4096 35.4089 29.4097 35.4089ZM32.9709 38.2477C32.9676 38.0981 32.9604 37.9586 32.9491 37.8286C32.9029 37.2947 32.794 36.9933 32.673 36.8145C32.5377 36.6147 32.2761 36.4115 31.5507 36.3663C31.4444 36.7046 31.4103 36.9027 31.4324 37.0662C31.4534 37.2209 31.5909 37.7354 32.9709 38.2477Z" fill="#918B97"/>
<path fill-rule="evenodd" clip-rule="evenodd" d="M31.1144 61.4536L29.4954 61.3922C26.5503 61.2805 24.9435 60.5212 24.3448 59.0888C24.0706 58.4329 24.0835 57.7788 24.1012 57.3719C24.105 57.2847 24.1086 57.2159 24.1116 57.1582C24.117 57.0553 24.1205 56.9878 24.12 56.9144C24.12 56.9109 24.1199 56.9075 24.1199 56.9044L23.5495 55.6108L25.0512 55.2071C26.6421 54.7795 28.0931 54.7337 29.167 55.7298C30.1188 56.6126 30.5201 58.1251 30.8256 59.8364L31.1144 61.4536ZM24.1176 56.8584C24.1176 56.8583 24.1178 56.8598 24.1181 56.8631C24.1177 56.86 24.1175 56.8584 24.1176 56.8584ZM28.0645 58.7459C27.8754 58.15 27.6808 57.8124 27.4761 57.6225C27.3185 57.4763 27.0658 57.3426 26.4898 57.3886C26.4843 57.6557 26.5045 57.8188 26.5595 57.9503C26.6155 58.0843 26.847 58.4959 28.0645 58.7459Z" fill="#918B97"/>
<path fill-rule="evenodd" clip-rule="evenodd" d="M121.734 26.3094C133.404 27.6239 146.567 31.7 161.459 44.2958L159.668 45.9857C145.173 33.7258 132.509 29.852 121.36 28.5961C116.123 28.0063 111.206 27.9916 106.503 27.9774C106.165 27.9764 105.828 27.9754 105.492 27.9742C100.518 27.956 95.7419 27.893 91.2519 27.0298L91.8434 24.7761C96.0356 25.582 100.554 25.6512 105.556 25.6694C105.899 25.6707 106.243 25.6717 106.59 25.6727C111.272 25.6865 116.336 25.7014 121.734 26.3094Z" fill="#918B97"/>
<path fill-rule="evenodd" clip-rule="evenodd" d="M111.821 18.0142L113.79 18.7259C118.012 20.2518 120.035 21.721 120.701 23.2572C121.011 23.974 120.957 24.5755 120.904 24.9777C120.893 25.0558 120.884 25.1208 120.875 25.1776C120.859 25.2877 120.848 25.367 120.843 25.4512C120.84 25.4953 120.841 25.5228 120.842 25.5369L121.439 26.845L119.603 26.5867C117.288 26.261 115.362 25.6283 114.037 24.2485C112.847 23.0094 112.386 21.3844 112.067 19.48L111.821 18.0142ZM115.195 21.3555C115.464 22.3399 115.789 22.9685 116.199 23.3954C116.541 23.7512 117.052 24.0709 118.093 24.3252C118.096 24.301 118.1 24.2782 118.103 24.2571C118.149 23.9065 118.149 23.641 118.032 23.3719C117.883 23.0262 117.376 22.3391 115.195 21.3555Z" fill="#918B97"/>
<path fill-rule="evenodd" clip-rule="evenodd" d="M131.874 21.8688L133.479 22.7221C137.349 24.7796 139.135 26.498 139.397 28.1456C139.518 28.9023 139.27 29.472 139.098 29.8289C139.063 29.9016 139.034 29.9608 139.008 30.0118C138.961 30.108 138.927 30.175 138.899 30.2485C138.892 30.2663 138.887 30.2805 138.883 30.2914L139.117 31.5732L137.48 31.092C135.25 30.4364 133.412 29.5569 132.396 28.0063C131.917 27.2759 131.703 26.51 131.623 25.7356C131.544 24.962 131.593 24.1106 131.71 23.1779L131.874 21.8688ZM134.243 25.4371C134.238 25.7201 134.247 25.9783 134.271 26.2152C134.331 26.7953 134.476 27.1786 134.652 27.448C134.884 27.8024 135.339 28.2028 136.52 28.6499C136.524 28.6427 136.527 28.6355 136.531 28.6285C136.551 28.589 136.568 28.5529 136.583 28.5217C136.736 28.2042 136.797 27.9869 136.763 27.7689C136.723 27.5195 136.456 26.8047 134.243 25.4371Z" fill="#918B97"/>
<path fill-rule="evenodd" clip-rule="evenodd" d="M121.805 33.1277L122.153 31.9175C123.009 28.9434 124.457 27.6935 126.525 27.6548C127.48 27.637 128.371 27.8953 128.95 28.0746C129.065 28.1104 129.16 28.1406 129.243 28.1668C129.402 28.2171 129.515 28.2527 129.633 28.2849C129.674 28.2961 129.704 28.3032 129.723 28.3075L131.313 28.2538L131.484 29.5231C131.722 31.2964 131.443 32.6945 129.863 33.351C129.119 33.6598 128.194 33.7543 127.178 33.7373C126.164 33.7202 124.974 33.5896 123.633 33.3942L121.805 33.1277ZM125.347 31.6026C125.77 31.6413 126.147 31.6637 126.483 31.6693C127.26 31.6824 127.732 31.6033 128.03 31.4796C128.427 31.3146 128.747 30.9655 128.756 30.0319C128.735 30.0252 128.714 30.0187 128.694 30.0123C128.629 29.9917 128.569 29.9727 128.517 29.9566C128.002 29.7971 127.652 29.7169 127.345 29.7226C126.967 29.7297 126.102 29.9007 125.347 31.6026Z" fill="#918B97"/>
<path fill-rule="evenodd" clip-rule="evenodd" d="M134.3 37.767L134.729 36.5091C135.692 33.6872 137.184 32.5286 139.194 32.4788C140.127 32.4556 140.994 32.6875 141.568 32.8527C141.682 32.8853 141.775 32.9129 141.857 32.9369C142.014 32.983 142.126 33.0159 142.243 33.0454C142.293 33.0579 142.326 33.065 142.346 33.0688L143.992 33.0046L144.131 34.3051C144.311 35.9973 143.969 37.317 142.387 37.939C140.962 38.4991 138.794 38.3547 136.229 38.0193L134.3 37.767ZM138.011 36.2015C139.335 36.2985 140.12 36.2377 140.593 36.0518C140.989 35.8961 141.303 35.5879 141.362 34.8014C141.31 34.7862 141.262 34.7722 141.22 34.7599C140.717 34.6151 140.36 34.5381 140.035 34.5461C139.627 34.5562 138.795 34.7301 138.011 36.2015Z" fill="#918B97"/>
<path fill-rule="evenodd" clip-rule="evenodd" d="M107.828 32.0637L107.87 30.8193C107.97 27.8689 108.985 26.3713 110.926 25.935C111.815 25.7351 112.704 25.8185 113.266 25.8809C113.382 25.8938 113.477 25.9048 113.558 25.9143C113.709 25.9321 113.814 25.9443 113.924 25.9526C113.945 25.9542 113.963 25.9553 113.977 25.956L115.476 25.5938L115.934 26.8043C116.546 28.4238 116.629 29.8219 115.311 30.7608C114.691 31.2032 113.854 31.4684 112.922 31.6416C111.992 31.8146 110.881 31.911 109.625 31.9738L107.828 32.0637ZM110.883 29.8564C111.225 29.8181 111.53 29.7743 111.801 29.7239C112.492 29.5955 112.875 29.4401 113.095 29.2833C113.381 29.0795 113.593 28.7188 113.4 27.856C113.396 27.8555 113.392 27.855 113.387 27.8545C113.325 27.8473 113.268 27.8406 113.22 27.8352C112.72 27.7797 112.415 27.7725 112.173 27.827C111.906 27.8868 111.184 28.163 110.883 29.8564Z" fill="#918B97"/>
<path fill-rule="evenodd" clip-rule="evenodd" d="M160.637 62.6364C165.363 69.9061 168.827 79.4527 167.147 96.5934L164.623 96.3843C166.26 79.6847 162.884 70.6454 158.465 63.847C156.853 61.3671 155.114 59.1973 153.366 57.0173C152.673 56.1525 151.979 55.286 151.29 54.398C148.892 51.3039 146.643 48.0319 145.11 43.9327L147.505 43.1635C148.92 46.9487 151.007 50.0064 153.35 53.0295C153.991 53.856 154.657 54.6867 155.334 55.5316C157.107 57.7437 158.958 60.0527 160.637 62.6364Z" fill="#9CDAC9"/>
<path fill-rule="evenodd" clip-rule="evenodd" d="M144.532 34.0924L145.716 35.3494C148.782 38.6057 149.739 40.8875 149.246 42.6764C149.018 43.506 148.507 44.0581 148.155 44.414C148.087 44.4833 148.028 44.5409 147.977 44.5915C147.878 44.69 147.806 44.7614 147.737 44.8402C147.703 44.8785 147.684 44.9043 147.674 44.9187L147.33 46.2788L145.956 45.4088C143.929 44.1252 142.489 42.7229 142.192 40.8324C141.92 39.1106 142.687 37.3446 143.795 35.3926L144.532 34.0924ZM145.241 38.206C144.681 39.3985 144.509 40.2008 144.607 40.8194C144.691 41.3528 145.023 41.957 146.099 42.7752C146.125 42.749 146.151 42.7236 146.176 42.6992C146.216 42.6589 146.254 42.6214 146.287 42.5883C146.602 42.27 146.797 42.0183 146.879 41.7208C146.987 41.3292 147.001 40.3701 145.241 38.206Z" fill="#9CDAC9"/>
<path fill-rule="evenodd" clip-rule="evenodd" d="M166.851 57.5254L167.111 59.2872C167.711 63.3575 167.14 65.6454 165.746 66.902C165.095 67.4891 164.373 67.7365 163.877 67.8893C163.781 67.9186 163.701 67.9425 163.63 67.9636C163.492 68.0049 163.39 68.0351 163.288 68.0727C163.225 68.0958 163.19 68.1122 163.175 68.1198L162.056 69.165L161.376 67.7018C160.458 65.7273 160.117 63.9259 160.964 62.2319C161.729 60.7024 163.349 59.5529 165.388 58.3724L166.851 57.5254ZM164.986 61.5295C163.909 62.2638 163.318 62.8579 163.036 63.423C162.796 63.902 162.716 64.5073 163.048 65.5302C163.051 65.5291 163.055 65.5281 163.059 65.527C163.115 65.5101 163.168 65.4944 163.214 65.4801C163.651 65.3456 163.97 65.2132 164.226 64.9822C164.569 64.673 165.105 63.885 164.986 61.5295Z" fill="#9CDAC9"/>
<path fill-rule="evenodd" clip-rule="evenodd" d="M156.858 43.4647L157.178 45.0481C158.044 49.3399 157.601 51.7717 156.128 53.063C155.447 53.6604 154.674 53.8766 154.16 54.0039C154.059 54.0288 153.975 54.0489 153.9 54.0665C153.756 54.1008 153.651 54.1257 153.545 54.1584C153.496 54.1735 153.465 54.1853 153.447 54.1925L152.387 55.1604L151.692 53.7933C150.629 51.7015 150.147 49.7968 150.963 48.0325C151.348 47.1981 151.974 46.5173 152.727 45.9185C153.479 45.3203 154.418 44.7572 155.505 44.1816L156.858 43.4647ZM155.161 47.2216C154.766 47.467 154.425 47.7021 154.136 47.9324C153.55 48.398 153.233 48.7974 153.068 49.1531C152.836 49.6547 152.788 50.3549 153.306 51.6362C153.358 51.6237 153.408 51.6118 153.455 51.6006C153.514 51.5865 153.569 51.5734 153.617 51.5615C154.081 51.4469 154.395 51.3302 154.633 51.1215C154.944 50.8482 155.517 50.0295 155.161 47.2216Z" fill="#9CDAC9"/>
<path fill-rule="evenodd" clip-rule="evenodd" d="M155.039 72.7155L156.559 72.4185C160.506 71.6476 162.731 72.1953 163.907 73.7669C164.453 74.4952 164.651 75.308 164.768 75.8517C164.791 75.9578 164.809 76.047 164.825 76.1252C164.857 76.2774 164.88 76.3877 164.909 76.4996C164.924 76.5526 164.935 76.5859 164.941 76.6042L165.848 77.7688L164.541 78.4806C162.612 79.5317 160.857 79.9738 159.24 79.0647C158.478 78.6365 157.856 77.963 157.308 77.1582C156.761 76.354 156.245 75.3552 155.717 74.2006L155.039 72.7155ZM158.58 74.6403C158.795 75.0404 159.002 75.3871 159.205 75.685C159.633 76.3135 160.001 76.6611 160.33 76.846C160.783 77.1009 161.407 77.1748 162.542 76.7C162.533 76.6592 162.525 76.6195 162.517 76.5814C162.504 76.5191 162.492 76.4612 162.482 76.4107C162.377 75.9242 162.27 75.5903 162.076 75.3317C161.823 74.9927 161.082 74.3805 158.58 74.6403Z" fill="#9CDAC9"/>
<path fill-rule="evenodd" clip-rule="evenodd" d="M157.088 87.3986L158.609 87.1016C162.555 86.3307 164.78 86.8784 165.957 88.45C166.502 89.1784 166.7 89.9911 166.817 90.5348C166.84 90.6409 166.859 90.7302 166.875 90.8083C166.906 90.9605 166.929 91.0708 166.959 91.1828C166.973 91.2357 166.984 91.269 166.991 91.2873L167.898 92.4519L166.591 93.1637C164.662 94.2148 162.906 94.6569 161.289 93.7479C160.527 93.3196 159.906 92.6461 159.358 91.8413C158.81 91.0371 158.295 90.0383 157.767 88.8838L157.088 87.3986ZM160.63 89.3234C160.845 89.7235 161.051 90.0702 161.254 90.3681C161.682 90.9966 162.05 91.3442 162.379 91.5291C162.833 91.784 163.457 91.8579 164.591 91.3831C164.583 91.3423 164.575 91.3026 164.567 91.2645C164.554 91.2022 164.542 91.1443 164.531 91.0938C164.426 90.6073 164.319 90.2734 164.126 90.0148C163.872 89.6758 163.131 89.0636 160.63 89.3234Z" fill="#9CDAC9"/>
<path fill-rule="evenodd" clip-rule="evenodd" d="M148.4 61.1492L149.909 60.5623C153.439 59.1898 155.659 59.3235 157.135 60.5427C157.822 61.1093 158.207 61.8125 158.453 62.2896C158.5 62.3828 158.54 62.4609 158.574 62.5292C158.641 62.6615 158.689 62.7569 158.744 62.8528C158.771 62.8991 158.789 62.9274 158.8 62.9425L160.004 63.902L158.843 64.8613C157.272 66.1589 155.713 66.86 153.97 66.3045C152.395 65.8028 150.991 64.3432 149.487 62.4887L148.4 61.1492ZM152.472 62.3442C153.358 63.2927 154.005 63.7679 154.553 63.9426C155.017 64.0903 155.576 64.0637 156.442 63.5189C156.44 63.5141 156.437 63.5093 156.435 63.5046C156.408 63.4504 156.382 63.4002 156.36 63.3566C156.144 62.936 155.962 62.6497 155.713 62.4447C155.392 62.1795 154.588 61.7711 152.472 62.3442Z" fill="#9CDAC9"/>
<path fill-rule="evenodd" clip-rule="evenodd" d="M149.753 124.403C142.414 131.355 131.897 138.002 112.814 141.968L112.181 139.716C130.792 135.848 140.872 129.42 147.869 122.793C151.056 119.775 153.613 116.707 156.078 113.749C156.339 113.436 156.599 113.124 156.859 112.814C159.552 109.592 162.214 106.511 165.488 103.961L167.197 105.722C164.146 108.098 161.626 111 158.927 114.228C158.668 114.538 158.407 114.851 158.144 115.167C155.687 118.114 153.045 121.285 149.753 124.403Z" fill="#918B97"/>
<path fill-rule="evenodd" clip-rule="evenodd" d="M165.956 111.65L164.882 113.185C162.548 116.519 160.598 117.966 158.762 118.19C157.908 118.295 157.241 118.103 156.803 117.961C156.717 117.933 156.646 117.909 156.584 117.889C156.465 117.849 156.38 117.82 156.288 117.796C156.246 117.785 156.218 117.78 156.202 117.777L154.652 117.993L155.211 116.463C155.923 114.52 156.917 112.973 158.669 112.128C160.243 111.369 162.133 111.351 164.295 111.52L165.956 111.65ZM161.714 113.811C160.58 113.815 159.84 113.951 159.314 114.205C158.875 114.417 158.44 114.788 157.993 115.66C158.023 115.67 158.05 115.679 158.075 115.687C158.458 115.811 158.747 115.871 159.053 115.833C159.439 115.786 160.276 115.514 161.714 113.811Z" fill="#918B97"/>
<path fill-rule="evenodd" clip-rule="evenodd" d="M146.739 134.121L145.041 134.799C141.172 136.342 138.683 136.609 137.053 135.834C136.304 135.477 135.916 134.968 135.682 134.639C135.634 134.571 135.596 134.516 135.563 134.468C135.501 134.379 135.459 134.318 135.408 134.256C135.397 134.243 135.388 134.232 135.381 134.224L134.053 133.622L135.408 132.694C137.164 131.492 138.929 130.695 140.87 130.879C141.78 130.966 142.584 131.26 143.325 131.654C144.065 132.047 144.808 132.577 145.589 133.201L146.739 134.121ZM142.085 133.717C141.86 133.57 141.647 133.443 141.444 133.334C140.891 133.04 140.473 132.921 140.143 132.89C139.727 132.85 139.162 132.929 138.198 133.465C138.219 133.495 138.238 133.522 138.255 133.545C138.461 133.836 138.623 134.002 138.833 134.102C139.067 134.213 139.814 134.435 142.085 133.717Z" fill="#918B97"/>
<path fill-rule="evenodd" clip-rule="evenodd" d="M141.712 120.404L142.664 121.395C144.905 123.728 145.298 125.492 144.247 126.998C143.763 127.691 143.06 128.176 142.598 128.482C142.505 128.543 142.428 128.594 142.361 128.637C142.235 128.719 142.146 128.777 142.057 128.841C142.032 128.859 142.013 128.873 142 128.883L141.196 130.082L139.908 129.438C138.182 128.575 137.048 127.556 137.276 126.038C137.384 125.326 137.782 124.611 138.325 123.901C138.867 123.191 139.603 122.424 140.473 121.59L141.712 120.404ZM141.236 123.943C141.008 124.194 140.813 124.425 140.648 124.64C140.237 125.178 140.069 125.55 140.028 125.824C139.974 126.178 140.108 126.59 140.907 127.123C140.91 127.121 140.913 127.119 140.916 127.118C140.968 127.084 141.015 127.053 141.056 127.026C141.465 126.756 141.709 126.561 141.856 126.35C142.03 126.101 142.326 125.42 141.236 123.943Z" fill="#918B97"/>
<path fill-rule="evenodd" clip-rule="evenodd" d="M150.675 111.743L151.851 112.547C154.471 114.337 155.297 115.931 154.686 117.555C154.406 118.301 153.869 118.882 153.52 119.245C153.448 119.32 153.389 119.38 153.339 119.432C153.245 119.528 153.181 119.594 153.117 119.666C153.105 119.679 153.096 119.69 153.088 119.699L152.622 121.019L151.209 120.615C149.417 120.104 148.1 119.34 147.933 117.855C147.855 117.159 148.049 116.415 148.375 115.656C148.7 114.898 149.189 114.057 149.781 113.134L150.675 111.743ZM153.063 119.732C153.063 119.732 153.063 119.731 153.064 119.73L153.063 119.732ZM151.127 115.336C151.005 115.566 150.902 115.779 150.818 115.975C150.576 116.537 150.518 116.898 150.546 117.143C150.58 117.447 150.776 117.789 151.589 118.139C151.614 118.114 151.636 118.091 151.656 118.07C151.963 117.752 152.126 117.542 152.202 117.341C152.283 117.123 152.406 116.48 151.127 115.336Z" fill="#918B97"/>
<path fill-rule="evenodd" clip-rule="evenodd" d="M98.2543 147.418C93.1396 147.966 87.2603 147.179 80.3173 144.378L81.3322 142.228C87.9459 144.896 93.3747 145.58 97.9655 145.088C102.557 144.597 106.414 142.918 109.868 140.709C113.013 138.698 115.781 136.279 118.478 133.922C118.762 133.674 119.045 133.426 119.328 133.179C122.248 130.636 125.165 128.184 128.315 126.747L129.434 128.85C126.678 130.107 124.024 132.308 121.064 134.886C120.781 135.133 120.496 135.382 120.208 135.634C117.531 137.975 114.621 140.519 111.307 142.638C107.614 145 103.368 146.87 98.2543 147.418Z" fill="#9CDAC9"/>
<path fill-rule="evenodd" clip-rule="evenodd" d="M132.949 120.93L133.383 122.147C134.431 125.086 134.024 126.857 132.368 127.88C131.607 128.35 130.736 128.548 130.173 128.665C130.059 128.689 129.965 128.708 129.884 128.724C129.73 128.755 129.623 128.777 129.512 128.804C129.483 128.812 129.461 128.818 129.444 128.822L128.181 129.633L127.291 128.607C126.074 127.206 125.468 125.868 126.354 124.546C126.771 123.924 127.46 123.404 128.281 122.941C129.101 122.478 130.124 122.033 131.302 121.573L132.949 120.93ZM130.949 123.981C130.614 124.137 130.321 124.285 130.066 124.429C129.448 124.777 129.131 125.059 128.974 125.293C128.767 125.601 128.709 126.036 129.237 126.832C129.249 126.829 129.261 126.827 129.273 126.824C129.336 126.812 129.394 126.8 129.444 126.79C129.944 126.686 130.253 126.594 130.479 126.454C130.742 126.292 131.328 125.767 130.949 123.981Z" fill="#9CDAC9"/>
<path fill-rule="evenodd" clip-rule="evenodd" d="M131.928 133.532L130.754 134.324C128.092 136.122 126.157 136.432 124.616 135.432C123.912 134.975 123.465 134.337 123.195 133.934C123.139 133.85 123.094 133.781 123.055 133.723C122.985 133.615 122.937 133.542 122.882 133.468C122.875 133.458 122.869 133.45 122.863 133.443L121.628 132.673L122.469 131.565C123.547 130.146 124.748 129.191 126.368 129.453C127.13 129.577 127.858 129.955 128.553 130.451C129.248 130.945 129.978 131.605 130.758 132.376L131.928 133.532ZM122.833 133.406C122.833 133.406 122.834 133.407 122.835 133.409C122.834 133.407 122.833 133.406 122.833 133.406ZM128.026 132.92C127.822 132.75 127.633 132.601 127.454 132.474C126.947 132.113 126.599 131.97 126.347 131.93C126.031 131.878 125.611 131.955 124.981 132.593C125.003 132.625 125.023 132.655 125.04 132.681C125.279 133.038 125.441 133.227 125.615 133.34C125.79 133.454 126.413 133.749 128.026 132.92Z" fill="#9CDAC9"/>
<path fill-rule="evenodd" clip-rule="evenodd" d="M118.663 146.521L117.101 146.81C114.045 147.375 112.225 146.896 111.203 145.536C110.732 144.908 110.538 144.215 110.424 143.765C110.401 143.673 110.382 143.598 110.367 143.534C110.338 143.415 110.318 143.334 110.292 143.249C110.286 143.23 110.281 143.215 110.277 143.204L109.351 142.014L110.655 141.277C112.146 140.434 113.573 140.074 114.935 140.883C116.149 141.605 117.033 143.127 117.907 144.947L118.663 146.521ZM115.023 144.481C114.573 143.739 114.212 143.339 113.884 143.144C113.621 142.988 113.266 142.904 112.626 143.128C112.72 143.49 112.806 143.719 112.939 143.896C113.09 144.096 113.54 144.526 115.023 144.481Z" fill="#9CDAC9"/>
<path fill-rule="evenodd" clip-rule="evenodd" d="M105.427 152.754L103.718 152.658C100.6 152.484 98.9636 151.572 98.2542 150.071C97.9238 149.373 97.8643 148.67 97.8367 148.2C97.8313 148.107 97.8273 148.03 97.824 147.964C97.8176 147.839 97.8131 147.751 97.8036 147.659C97.8 147.625 97.7966 147.601 97.7941 147.586L97.1043 146.188L98.6136 145.747C100.263 145.266 101.715 145.272 102.861 146.357C103.879 147.32 104.45 148.977 104.966 150.972L105.427 152.754ZM102.159 149.885C101.864 149.084 101.583 148.604 101.288 148.324C101.051 148.1 100.734 147.944 100.149 147.982C100.174 148.323 100.217 148.571 100.32 148.788C100.451 149.066 100.825 149.573 102.159 149.885Z" fill="#9CDAC9"/>
<path fill-rule="evenodd" clip-rule="evenodd" d="M107.18 135.467L107.448 137.148C108.017 140.712 107.615 142.824 106.353 143.966C105.773 144.49 105.13 144.681 104.718 144.791C104.633 144.814 104.564 144.831 104.505 144.846C104.396 144.874 104.321 144.894 104.243 144.919C104.228 144.924 104.216 144.928 104.206 144.932L103.164 145.912L102.514 144.473C101.723 142.721 101.362 141.057 102.091 139.504C102.746 138.109 104.153 137.149 105.82 136.222L107.18 135.467ZM104.174 144.945C104.174 144.945 104.174 144.945 104.175 144.945L104.174 144.945ZM105.409 139.392C104.669 139.907 104.285 140.323 104.107 140.704C103.961 141.014 103.888 141.459 104.152 142.309C104.164 142.305 104.176 142.302 104.187 142.299C104.546 142.204 104.762 142.114 104.922 141.969C105.096 141.812 105.512 141.288 105.409 139.392Z" fill="#9CDAC9"/>
<path fill-rule="evenodd" clip-rule="evenodd" d="M115.755 129.321L116.368 131.23C117.408 134.466 117.281 136.475 116.379 137.788C115.957 138.403 115.43 138.755 115.066 138.983C114.994 139.027 114.935 139.063 114.884 139.095C114.786 139.155 114.717 139.197 114.646 139.246C114.612 139.27 114.592 139.286 114.581 139.295L113.705 140.616L112.718 139.181C111.695 137.695 111.166 136.223 111.592 134.635C111.968 133.229 113.054 131.966 114.45 130.6L115.755 129.321ZM114.695 134.018C114.211 134.617 113.947 135.088 113.837 135.499C113.75 135.824 113.742 136.182 113.938 136.681C114.167 136.528 114.337 136.383 114.468 136.193C114.65 135.928 114.895 135.357 114.695 134.018Z" fill="#9CDAC9"/>
<path fill-rule="evenodd" clip-rule="evenodd" d="M79.7147 43.7478L71.6365 39.991V58.3919C71.6365 65.4617 78.2666 71.2846 86.6669 71.7744L88.9786 71.7409C97.379 71.251 104.01 65.4617 104.01 58.3919V56.3643V55.0463V39.991L95.3512 44.0177C94.0027 41.7383 90.4882 39.991 87.2449 39.991C84.3314 39.991 81.2175 41.6965 79.7147 43.7478ZM87.8231 69.8482C95.5021 69.8482 101.697 64.7054 101.697 58.3919V56.177L73.9489 43.2725V58.3919C73.9489 64.7054 80.1441 69.8482 87.8231 69.8482ZM87.8031 47.4133L81.7713 44.6418C82.1416 44.1654 82.6649 43.6752 83.3339 43.228C84.5898 42.3882 86.0386 41.9172 87.2449 41.9172C88.6827 41.9172 90.3185 42.4151 91.6109 43.2506C92.3867 43.752 92.9263 44.2972 93.2475 44.8216L87.8031 47.4133ZM91.1499 48.1776L101.697 53.0828V43.2725L91.1499 48.1776Z" fill="#DFA47B" fill-opacity="0.81"/>
<g filter="url(#filter0_d_786_3528)">
<path fill-rule="evenodd" clip-rule="evenodd" d="M94.4535 108.676V98.7581C94.4535 96.0193 97.1298 93.799 100.431 93.799H115.973V103.717C115.973 106.456 113.297 108.676 109.995 108.676H94.4535ZM99.1903 106.693H109.995C111.976 106.693 113.582 105.36 113.582 103.717V96.7431L99.1903 106.693ZM111.236 95.7826L96.8446 105.732V98.7581C96.8446 97.1148 98.4504 95.7826 100.431 95.7826H111.236ZM75.7346 75.9871C79.0359 75.9871 81.7122 78.2074 81.7122 80.9462V90.8643H66.1703C62.8689 90.8643 60.1926 88.6441 60.1926 85.9052V75.9871H75.7346ZM66.1703 88.8807H76.9755L62.5837 78.9312V85.9052C62.5837 87.5485 64.1895 88.8807 66.1703 88.8807ZM79.3212 87.9202L64.9294 77.9707H75.7346C77.7154 77.9707 79.3212 79.3029 79.3212 80.9462V87.9202Z" fill="#3F8881"/>
<path d="M88.8996 75.9871V71.6343L87.709 71.6508H86.5085V101.098L80.5308 104.254L86.5085 107.41V121.61C86.5085 122.158 87.0438 122.602 87.7041 122.602C88.3643 122.602 88.8996 122.158 88.8996 121.61V102.27V82.9298L92.1873 81.1941L95.475 79.4584L88.8996 75.9871Z" fill="#3F8881"/>
</g>
<g filter="url(#filter1_d_786_3528)">
<path fill-rule="evenodd" clip-rule="evenodd" d="M88.8996 75.9871V71.6343L87.709 71.6508H86.5085V101.098L80.5308 104.254L86.5085 107.41V121.61C86.5085 122.158 87.0438 122.602 87.7041 122.602C88.3643 122.602 88.8996 122.158 88.8996 121.61V82.9298L95.475 79.4584L88.8996 75.9871ZM95.2761 79.4584L88.801 76.0401V71.7269L87.709 71.742L86.6071 71.742V101.151L80.7297 104.254L86.6071 107.357V121.61C86.6071 122.099 87.0878 122.511 87.7041 122.511C88.3203 122.511 88.801 122.099 88.801 121.61V82.8768L95.2761 79.4584ZM98.8937 106.784L113.681 96.5611V103.717C113.681 105.42 112.02 106.784 109.995 106.784H98.8937ZM96.746 105.914V98.7581C96.746 97.0553 98.4064 95.6914 100.431 95.6914H111.533L96.746 105.914ZM77.2721 88.9719H66.1703C64.1454 88.9719 62.4851 87.608 62.4851 85.9052V78.7492L77.2721 88.9719ZM64.6328 77.8795H75.7346C77.7594 77.8795 79.4197 79.2434 79.4197 80.9462V88.1022L64.6328 77.8795ZM94.4535 108.676V98.7581C94.4535 96.0193 97.1298 93.799 100.431 93.799H115.973V103.717C115.973 106.456 113.297 108.676 109.995 108.676H94.4535ZM115.875 93.8902H100.431C97.1739 93.8902 94.5521 96.0788 94.5521 98.7581V108.585H109.995C113.253 108.585 115.875 106.396 115.875 103.717V93.8902ZM113.582 96.7431V103.717C113.582 105.36 111.976 106.693 109.995 106.693H99.1903L113.582 96.7431ZM111.236 95.7826H100.431C98.4504 95.7826 96.8446 97.1148 96.8446 98.7581V105.732L111.236 95.7826ZM81.6137 80.9462C81.6137 78.2669 78.9919 76.0783 75.7346 76.0783H60.2912V85.9052C60.2912 88.5846 62.9129 90.7731 66.1703 90.7731H81.6137V80.9462ZM81.7122 80.9462C81.7122 78.2074 79.0359 75.9871 75.7346 75.9871H60.1926V85.9052C60.1926 88.6441 62.8689 90.8643 66.1703 90.8643H81.7122V80.9462ZM76.9755 88.8807L62.5837 78.9312V85.9052C62.5837 87.5485 64.1895 88.8807 66.1703 88.8807H76.9755ZM64.9294 77.9707H75.7346C77.7154 77.9707 79.3212 79.3029 79.3212 80.9462V87.9202L64.9294 77.9707Z" fill="black"/>
</g>
<g filter="url(#filter2_d_786_3528)">
<path fill-rule="evenodd" clip-rule="evenodd" d="M94.4535 108.676V98.7581C94.4535 96.0193 97.1298 93.799 100.431 93.799H115.973V103.717C115.973 106.456 113.297 108.676 109.995 108.676H94.4535ZM99.1903 106.693H109.995C111.976 106.693 113.582 105.36 113.582 103.717V96.7431L99.1903 106.693ZM111.236 95.7826L96.8446 105.732V98.7581C96.8446 97.1148 98.4504 95.7826 100.431 95.7826H111.236ZM75.7346 75.9871C79.0359 75.9871 81.7122 78.2074 81.7122 80.9462V90.8643H66.1703C62.8689 90.8643 60.1926 88.6441 60.1926 85.9052V75.9871H75.7346ZM66.1703 88.8807H76.9755L62.5837 78.9312V85.9052C62.5837 87.5485 64.1895 88.8807 66.1703 88.8807ZM79.3212 87.9202L64.9294 77.9707H75.7346C77.7154 77.9707 79.3212 79.3029 79.3212 80.9462V87.9202Z" fill="#3F8881"/>
<path d="M88.8996 75.9871V71.6343L87.709 71.6508H86.5085V101.098L80.5308 104.254L86.5085 107.41V121.61C86.5085 122.158 87.0438 122.602 87.7041 122.602C88.3643 122.602 88.8996 122.158 88.8996 121.61V102.27V82.9298L92.1873 81.1941L95.475 79.4584L88.8996 75.9871Z" fill="#3F8881"/>
</g>
<g filter="url(#filter3_d_786_3528)">
<path fill-rule="evenodd" clip-rule="evenodd" d="M88.8996 75.9871V71.6343L87.709 71.6508H86.5085V101.098L80.5308 104.254L86.5085 107.41V121.61C86.5085 122.158 87.0438 122.602 87.7041 122.602C88.3643 122.602 88.8996 122.158 88.8996 121.61V82.9298L95.475 79.4584L88.8996 75.9871ZM95.2761 79.4584L88.801 76.0401V71.7269L87.709 71.742L86.6071 71.742V101.151L80.7297 104.254L86.6071 107.357V121.61C86.6071 122.099 87.0878 122.511 87.7041 122.511C88.3203 122.511 88.801 122.099 88.801 121.61V82.8768L95.2761 79.4584ZM98.8937 106.784L113.681 96.5611V103.717C113.681 105.42 112.02 106.784 109.995 106.784H98.8937ZM96.746 105.914V98.7581C96.746 97.0553 98.4064 95.6914 100.431 95.6914H111.533L96.746 105.914ZM77.2721 88.9719H66.1703C64.1454 88.9719 62.4851 87.608 62.4851 85.9052V78.7492L77.2721 88.9719ZM64.6328 77.8795H75.7346C77.7594 77.8795 79.4197 79.2434 79.4197 80.9462V88.1022L64.6328 77.8795ZM94.4535 108.676V98.7581C94.4535 96.0193 97.1298 93.799 100.431 93.799H115.973V103.717C115.973 106.456 113.297 108.676 109.995 108.676H94.4535ZM115.875 93.8902H100.431C97.1739 93.8902 94.5521 96.0788 94.5521 98.7581V108.585H109.995C113.253 108.585 115.875 106.396 115.875 103.717V93.8902ZM113.582 96.7431V103.717C113.582 105.36 111.976 106.693 109.995 106.693H99.1903L113.582 96.7431ZM111.236 95.7826H100.431C98.4504 95.7826 96.8446 97.1148 96.8446 98.7581V105.732L111.236 95.7826ZM81.6137 80.9462C81.6137 78.2669 78.9919 76.0783 75.7346 76.0783H60.2912V85.9052C60.2912 88.5846 62.9129 90.7731 66.1703 90.7731H81.6137V80.9462ZM81.7122 80.9462C81.7122 78.2074 79.0359 75.9871 75.7346 75.9871H60.1926V85.9052C60.1926 88.6441 62.8689 90.8643 66.1703 90.8643H81.7122V80.9462ZM76.9755 88.8807L62.5837 78.9312V85.9052C62.5837 87.5485 64.1895 88.8807 66.1703 88.8807H76.9755ZM64.9294 77.9707H75.7346C77.7154 77.9707 79.3212 79.3029 79.3212 80.9462V87.9202L64.9294 77.9707Z" fill="black"/>
</g>
<path fill-rule="evenodd" clip-rule="evenodd" d="M42.9207 134.826L41.5452 133.506C38.7889 130.861 37.8217 128.926 38.0854 127.347C38.2078 126.614 38.5841 126.105 38.8442 125.776C38.8961 125.711 38.9394 125.658 38.9767 125.612C39.0474 125.524 39.097 125.463 39.1445 125.395C39.1613 125.371 39.1724 125.353 39.1792 125.341L39.3848 123.938L40.9004 124.799C42.6871 125.815 44.0145 126.988 44.4117 128.636C44.7664 130.108 44.2781 131.667 43.5367 133.393L42.9207 134.826ZM41.7672 130.567C42.0227 129.724 42.0668 129.142 41.9592 128.696C41.8715 128.332 41.6455 127.933 40.9682 127.42C40.7453 127.701 40.6163 127.914 40.5756 128.158C40.527 128.449 40.5621 129.133 41.7672 130.567Z" fill="#918B97"/>
<path fill-rule="evenodd" clip-rule="evenodd" d="M28.0334 125.183L27.0101 123.778C24.8194 120.769 24.224 118.718 24.8794 117.225C25.1809 116.539 25.696 116.128 26.0334 115.875C26.1027 115.823 26.1595 115.782 26.2081 115.746C26.2985 115.68 26.3606 115.634 26.4228 115.581C26.4359 115.57 26.4462 115.561 26.4541 115.554L26.9761 114.293L28.2432 115.339C29.8025 116.627 30.9094 117.993 30.943 119.66C30.9732 121.157 30.0961 122.546 28.9544 124.006L28.0334 125.183ZM27.881 121.027C28.3484 120.273 28.5214 119.746 28.513 119.328C28.5061 118.986 28.3639 118.55 27.7129 117.874C27.6996 117.884 27.687 117.894 27.6753 117.902C27.3809 118.123 27.2169 118.286 27.1313 118.481C27.0369 118.696 26.8902 119.335 27.881 121.027Z" fill="#918B97"/>
<path fill-rule="evenodd" clip-rule="evenodd" d="M42.6421 118.585L41.6207 119.591C39.3124 121.866 37.3964 122.502 35.5799 121.862C34.7444 121.567 34.1159 121.052 33.7208 120.714C33.6402 120.645 33.5747 120.588 33.5185 120.539C33.4131 120.448 33.34 120.384 33.2595 120.321C33.2406 120.306 33.2254 120.295 33.2137 120.286L31.7409 119.794L32.3185 118.555C33.0637 116.956 34.0595 115.818 35.7864 115.757C36.5953 115.728 37.4409 115.945 38.2959 116.285C39.1504 116.624 40.0902 117.115 41.1198 117.708L42.6421 118.585ZM38.5101 118.785C38.2343 118.651 37.9802 118.538 37.7449 118.445C37.103 118.19 36.6771 118.113 36.3776 118.124C36.0009 118.137 35.5775 118.304 35.0989 119.031C35.1321 119.06 35.1626 119.086 35.1897 119.109C35.5373 119.407 35.776 119.574 36.0179 119.659C36.2921 119.756 37.0532 119.896 38.5101 118.785Z" fill="#918B97"/>
<path fill-rule="evenodd" clip-rule="evenodd" d="M30.5193 104.875L29.4979 105.881C27.1896 108.155 25.2736 108.792 23.4571 108.152C22.6216 107.857 21.9931 107.342 21.598 107.004C21.5173 106.935 21.4519 106.878 21.3957 106.829C21.2903 106.737 21.2172 106.674 21.1367 106.611C21.1178 106.596 21.1026 106.584 21.0909 106.576L19.6181 106.084L20.1957 104.844C20.9409 103.245 21.9367 102.108 23.6636 102.047C24.4725 102.018 25.3181 102.235 26.1731 102.574C27.0276 102.914 27.9674 103.405 28.997 103.998L30.5193 104.875ZM26.3873 105.075C26.1115 104.941 25.8574 104.828 25.6221 104.735C24.9802 104.48 24.5543 104.403 24.2548 104.414C23.8781 104.427 23.4547 104.594 22.9761 105.321C23.0093 105.349 23.0398 105.376 23.0669 105.399C23.4145 105.697 23.6532 105.864 23.8951 105.949C24.1693 106.046 24.9304 106.186 26.3873 105.075Z" fill="#918B97"/>
<path fill-rule="evenodd" clip-rule="evenodd" d="M53.8618 123.868L53.0566 125.081C51.3864 127.598 49.721 128.546 47.8732 128.306C47.0228 128.196 46.3171 127.844 45.8709 127.61C45.779 127.562 45.7049 127.522 45.6415 127.488C45.5241 127.425 45.4436 127.383 45.356 127.341C45.3384 127.333 45.324 127.326 45.3125 127.321L43.7395 127.142L44.0326 125.796C44.3838 124.184 45.0787 122.941 46.6984 122.555C48.1491 122.208 50.0247 122.659 52.1233 123.32L53.8618 123.868ZM49.7834 124.921C48.806 124.696 48.2047 124.664 47.8083 124.759C47.4866 124.836 47.1525 125.04 46.8763 125.708C46.8822 125.711 46.888 125.714 46.8937 125.717C47.2809 125.92 47.5353 126.025 47.7753 126.056C48.0366 126.09 48.7313 126.08 49.7834 124.921Z" fill="#918B97"/>
<path fill-rule="evenodd" clip-rule="evenodd" d="M73.4047 133.169L72.5995 134.383C70.9294 136.899 69.2639 137.847 67.4162 137.607C66.5657 137.497 65.8601 137.145 65.4139 136.911C65.322 136.863 65.2479 136.823 65.1845 136.79C65.067 136.727 64.9866 136.684 64.8989 136.643C64.8814 136.634 64.8669 136.628 64.8554 136.623L63.2824 136.444L63.5756 135.098C63.9267 133.486 64.6217 132.243 66.2414 131.856C67.6921 131.51 69.5677 131.961 71.6663 132.622L73.4047 133.169ZM69.3263 134.222C68.349 133.997 67.7477 133.966 67.3513 134.06C67.0296 134.137 66.6954 134.342 66.4192 135.01C66.4252 135.013 66.431 135.016 66.4366 135.019C66.8239 135.222 67.0783 135.326 67.3182 135.357C67.5796 135.391 68.2743 135.381 69.3263 134.222Z" fill="#918B97"/>
<path fill-rule="evenodd" clip-rule="evenodd" d="M77.8561 151.044L76.58 150.688C74.7929 150.19 73.5753 149.636 72.8035 149.01C72.0028 148.36 71.633 147.585 71.7013 146.707C71.7639 145.903 72.19 145.207 72.4477 144.803C72.5037 144.715 72.5494 144.644 72.5881 144.585C72.6585 144.476 72.7059 144.403 72.751 144.324C72.7512 144.323 72.7514 144.323 72.7516 144.323L72.8178 143.084L74.2475 143.1C76.3272 143.123 78.0475 143.461 78.7617 144.815C79.1079 145.472 79.1444 146.244 79.0367 147.039C78.9295 147.83 78.6669 148.731 78.3204 149.719L77.8561 151.044ZM72.784 144.26C72.7841 144.26 72.783 144.263 72.7802 144.269C72.7824 144.263 72.7838 144.26 72.784 144.26ZM76.3789 147.992C76.4579 147.687 76.5133 147.418 76.5456 147.18C76.6195 146.634 76.5598 146.338 76.4683 146.165C76.3351 145.912 75.9561 145.614 74.6791 145.506C74.6577 145.539 74.637 145.571 74.6175 145.601C74.5885 145.646 74.5622 145.686 74.5405 145.72C74.3006 146.097 74.2174 146.293 74.2062 146.437C74.2007 146.508 74.1924 146.739 74.6359 147.099C74.9664 147.367 75.5105 147.673 76.3789 147.992Z" fill="#9CDAC9"/>
<path fill-rule="evenodd" clip-rule="evenodd" d="M64.6989 149.459L62.9325 148.744C59.4597 147.337 58.0871 145.695 57.8299 143.902C57.7077 143.05 57.8602 142.276 57.9872 141.72C58.0104 141.619 58.031 141.531 58.0494 141.453C58.0868 141.295 58.1151 141.175 58.1377 141.052C58.1648 140.904 58.1619 140.853 58.1623 140.853L57.9041 139.235L59.609 139.292C61.6632 139.361 63.1797 139.939 64.0169 141.487C64.7725 142.885 64.8684 144.921 64.7729 147.476L64.6989 149.459ZM62.3321 145.611C62.2862 144.299 62.1166 143.436 61.8047 142.859C61.5445 142.378 61.1472 142.033 60.3916 141.849C60.3886 141.862 60.3856 141.875 60.3827 141.888C60.2716 142.374 60.2045 142.791 60.265 143.212C60.3482 143.792 60.7226 144.657 62.3321 145.611Z" fill="#9CDAC9"/>
<path fill-rule="evenodd" clip-rule="evenodd" d="M76.1286 136.704L75.2484 138.176C73.2627 141.497 71.4588 143.01 69.6028 143.248C68.7469 143.358 68.0625 143.158 67.6259 143.017C67.5376 142.989 67.4655 142.965 67.4034 142.944C67.2861 142.905 67.2041 142.877 67.1152 142.854C67.0901 142.847 67.0708 142.843 67.0568 142.84L65.547 143.06L65.9538 141.577C66.48 139.659 67.315 138.085 69.0004 137.211C70.52 136.423 72.4016 136.409 74.5134 136.576L76.1286 136.704ZM72.1114 138.856C71.0153 138.86 70.3346 138.996 69.8748 139.234C69.4923 139.432 69.0943 139.802 68.7187 140.731C68.7561 140.743 68.7907 140.755 68.8212 140.765C69.2049 140.889 69.4702 140.94 69.7318 140.907C70.0386 140.867 70.8191 140.628 72.1114 138.856Z" fill="#9CDAC9"/>
<path fill-rule="evenodd" clip-rule="evenodd" d="M87.9502 136.431L87.2075 138.26C85.8653 141.566 84.366 143.158 82.6928 143.74C81.9071 144.013 81.2104 144.011 80.7343 143.995C80.6425 143.992 80.566 143.989 80.4993 143.986C80.3699 143.981 80.2768 143.977 80.1786 143.979C80.1196 143.98 80.0856 143.983 80.0707 143.984L78.4767 144.564L78.603 142.908C78.7418 141.09 79.2983 139.579 80.7512 138.504C82.0449 137.547 83.8612 137.103 86.0408 136.744L87.9502 136.431ZM84.0273 139.558C83.0797 139.802 82.4575 140.067 82.036 140.379C81.6959 140.631 81.4175 140.967 81.2356 141.577C81.5932 141.584 81.8803 141.562 82.1656 141.463C82.5501 141.33 83.2159 140.946 84.0273 139.558Z" fill="#9CDAC9"/>
<path fill-rule="evenodd" clip-rule="evenodd" d="M101.458 137.084L100.616 138.622C98.7625 142.01 96.9973 143.542 95.1381 143.848C94.2756 143.99 93.5622 143.827 93.0956 143.706C93.0032 143.682 92.927 143.661 92.8609 143.643C92.7343 143.609 92.6446 143.585 92.5483 143.566C92.5103 143.558 92.4838 143.554 92.4674 143.552L90.92 143.832L91.2497 142.315C91.6712 140.374 92.4408 138.796 94.1067 137.877C95.6048 137.051 97.5358 136.953 99.7562 137.027L101.458 137.084ZM97.4618 139.395C96.3123 139.447 95.5908 139.612 95.1051 139.88C94.7005 140.103 94.3141 140.489 93.9916 141.387C94.0258 141.397 94.0578 141.405 94.0867 141.413C94.4947 141.519 94.79 141.563 95.0842 141.515C95.4483 141.455 96.2534 141.161 97.4618 139.395Z" fill="#9CDAC9"/>
<path fill-rule="evenodd" clip-rule="evenodd" d="M20.4948 81.014L18.9672 80.8827C15.5243 80.5867 13.8081 79.6 13.3167 77.9277C13.0907 77.1585 13.1888 76.4059 13.2636 75.9244C13.2789 75.826 13.292 75.7458 13.3033 75.6768C13.3245 75.5476 13.3392 75.4581 13.3492 75.3635C13.3515 75.3414 13.3529 75.324 13.3537 75.3106L12.9301 73.9684L14.4073 73.6447C16.3083 73.2281 17.9371 73.2631 19.0162 74.4562C19.5215 75.015 19.8238 75.7456 20.0205 76.555C20.2171 77.3639 20.3249 78.3238 20.3934 79.4076L20.4948 81.014ZM17.859 78.1859C17.8178 77.9126 17.7708 77.6664 17.7169 77.445C17.5693 76.8376 17.3876 76.489 17.2007 76.2823C16.9661 76.0229 16.5643 75.8209 15.621 75.9096C15.6145 75.9491 15.6086 75.9855 15.6036 76.0176C15.5379 76.4412 15.5266 76.7097 15.5919 76.9321C15.6659 77.1838 15.9875 77.8071 17.859 78.1859Z" fill="#9CDAC9"/>
<path fill-rule="evenodd" clip-rule="evenodd" d="M22.3177 92.1193L20.7164 92.2663C17.4267 92.5683 15.581 91.9422 14.7099 90.4926C14.3085 89.8248 14.2118 89.1165 14.1612 88.66C14.1509 88.5663 14.1431 88.4901 14.1364 88.4251C14.1241 88.3042 14.1156 88.2213 14.1015 88.1341C14.0986 88.1155 14.0958 88.1007 14.0935 88.0891L13.3232 86.8605L14.7382 86.2667C16.4216 85.5602 17.9677 85.3207 19.2765 86.2421C20.4475 87.0666 21.1456 88.6636 21.7851 90.5491L22.3177 92.1193ZM18.9263 89.8388C18.5544 89.0154 18.2271 88.569 17.9048 88.3421C17.6436 88.1582 17.2617 88.0424 16.4996 88.236C16.5 88.2391 16.5003 88.2421 16.5006 88.2451C16.5444 88.6406 16.6 88.8856 16.7152 89.0774C16.8419 89.2882 17.2634 89.7732 18.9263 89.8388Z" fill="#9CDAC9"/>
<path fill-rule="evenodd" clip-rule="evenodd" d="M37.0096 30.8599L38.209 29.5089C40.8812 26.499 42.9978 25.381 44.8925 25.4975C45.7749 25.5517 46.4416 25.8755 46.8807 26.1058C46.9663 26.1507 47.0373 26.1887 47.0993 26.222C47.2194 26.2863 47.3058 26.3326 47.3993 26.3755C47.4456 26.3967 47.4758 26.4082 47.492 26.4139L49.0712 26.4846L48.3878 27.9271C47.4993 29.802 46.3553 31.2057 44.4957 31.7436C42.8216 32.2277 40.8815 31.8887 38.6678 31.3006L37.0096 30.8599ZM41.4411 29.4649C42.6402 29.6874 43.4328 29.6903 44.0102 29.5233C44.4944 29.3832 44.9835 29.069 45.5245 28.2256C45.4858 28.2049 45.4497 28.1856 45.4173 28.1687C45.0327 27.967 44.7364 27.8476 44.4123 27.8277C43.9954 27.8021 43.0915 27.933 41.4411 29.4649Z" fill="#9CDAC9"/>
<path fill-rule="evenodd" clip-rule="evenodd" d="M100.883 10.7774L102.381 11.6491C105.842 13.6632 107.301 15.4038 107.32 17.1199C107.328 17.9108 107.012 18.5257 106.795 18.9165C106.751 18.9955 106.714 19.06 106.683 19.1157C106.623 19.2209 106.581 19.2947 106.543 19.3749C106.532 19.3979 106.524 19.4155 106.519 19.4282L106.563 20.8048L104.988 20.3543C102.909 19.7597 101.258 18.9048 100.503 17.3112C99.8208 15.8712 100.059 14.1458 100.53 12.2215L100.883 10.7774ZM102.724 14.5251C102.575 15.5496 102.635 16.1902 102.843 16.6302C103.017 16.9983 103.389 17.3921 104.411 17.7982C104.434 17.7574 104.456 17.72 104.474 17.6875C104.665 17.3427 104.759 17.1024 104.756 16.8609C104.753 16.5765 104.587 15.8365 102.724 14.5251Z" fill="#9CDAC9"/>
<path fill-rule="evenodd" clip-rule="evenodd" d="M17.6244 68.6124L18.0904 66.9595C18.9868 63.7801 20.1857 62.0992 21.7793 61.5031C22.5114 61.2292 23.1686 61.2582 23.5819 61.2873C23.6685 61.2935 23.7377 61.299 23.7963 61.3037C23.903 61.3122 23.9746 61.3179 24.0526 61.3193C24.0626 61.3194 24.0713 61.3195 24.0789 61.3194L25.4883 60.7645L25.5047 62.308C25.523 64.0337 25.1851 65.573 23.9028 66.6839C22.7614 67.6728 21.1185 68.0673 19.2702 68.3556L17.6244 68.6124ZM24.1179 61.3178C24.1179 61.3178 24.1171 61.3179 24.1154 61.3181L24.1179 61.3178ZM21.0055 65.5757C21.7576 65.3733 22.2074 65.154 22.4872 64.9117C22.7084 64.72 22.9278 64.4148 23.0315 63.7276C22.7144 63.7086 22.5115 63.7237 22.333 63.7905C22.1425 63.8617 21.6164 64.1405 21.0055 65.5757Z" fill="#918B97"/>
<path fill-rule="evenodd" clip-rule="evenodd" d="M30.9749 51.5999L29.4746 51.2737C26.4793 50.6225 25.0331 49.5524 24.8173 47.9594C24.7187 47.2314 24.9165 46.5601 25.0488 46.146C25.077 46.0577 25.1 45.9877 25.1194 45.9286C25.1543 45.8223 25.1775 45.7517 25.198 45.6747C25.1994 45.6697 25.2006 45.6651 25.2017 45.6608L24.9892 44.3017L26.5092 44.1729C28.2496 44.0253 29.739 44.2372 30.5629 45.4536C30.9466 46.0202 31.1167 46.7136 31.1807 47.4528C31.2447 48.1913 31.2082 49.0491 31.1209 50.0036L30.9749 51.5999ZM25.2119 45.6137C25.212 45.6137 25.2118 45.6152 25.2112 45.6184C25.2116 45.6154 25.2119 45.6138 25.2119 45.6137ZM28.7732 48.4525C28.7699 48.3029 28.7626 48.1635 28.7514 48.0334C28.7051 47.4996 28.5963 47.1981 28.4752 47.0194C28.3399 46.8196 28.0783 46.6164 27.353 46.5711C27.2467 46.9094 27.2125 47.1076 27.2347 47.271C27.2556 47.4258 27.3931 47.9402 28.7732 48.4525Z" fill="#918B97"/>
<path fill-rule="evenodd" clip-rule="evenodd" d="M35.1724 41.3955L33.6721 41.0694C30.6768 40.4181 29.2306 39.3481 29.0148 37.7551C28.9162 37.0271 29.114 36.3557 29.2463 35.9417C29.2745 35.8534 29.2975 35.7833 29.3169 35.7243C29.3518 35.6179 29.375 35.5473 29.3955 35.4704C29.3969 35.4654 29.3981 35.4608 29.3992 35.4564L29.1868 34.0973L30.7067 33.9685C32.4471 33.821 33.9365 34.0328 34.7604 35.2493C35.1441 35.8159 35.3142 36.5093 35.3782 37.2484C35.4422 37.987 35.4057 38.8447 35.3184 39.7993L35.1724 41.3955ZM29.4094 35.4094C29.4095 35.4093 29.4093 35.4109 29.4087 35.4141C29.4091 35.411 29.4094 35.4094 29.4094 35.4094ZM32.9707 38.2482C32.9674 38.0986 32.9602 37.9591 32.9489 37.8291C32.9026 37.2952 32.7938 36.9938 32.6727 36.815C32.5374 36.6152 32.2758 36.412 31.5505 36.3668C31.4442 36.7051 31.41 36.9032 31.4322 37.0667C31.4532 37.2214 31.5906 37.7359 32.9707 38.2482Z" fill="#918B97"/>
<path fill-rule="evenodd" clip-rule="evenodd" d="M31.1159 61.4546L29.4969 61.3932C26.5517 61.2814 24.9449 60.5222 24.3462 59.0898C24.0721 58.4339 24.0849 57.7798 24.1027 57.3729C24.1064 57.2856 24.11 57.2168 24.1131 57.1591C24.1184 57.0562 24.122 56.9888 24.1215 56.9154C24.1214 56.9119 24.1214 56.9085 24.1214 56.9054L23.551 55.6117L25.0527 55.2081C26.6436 54.7804 28.0945 54.7347 29.1685 55.7308C30.1202 56.6136 30.5215 58.1261 30.8271 59.8374L31.1159 61.4546ZM24.119 56.8593C24.1191 56.8593 24.1193 56.8608 24.1196 56.8641C24.1192 56.861 24.119 56.8594 24.119 56.8593ZM28.0659 58.7469C27.8769 58.1509 27.6823 57.8134 27.4776 57.6235C27.3199 57.4772 27.0672 57.3436 26.4912 57.3896C26.4857 57.6567 26.506 57.8198 26.561 57.9513C26.617 58.0853 26.8484 58.4969 28.0659 58.7469Z" fill="#918B97"/>
<path fill-rule="evenodd" clip-rule="evenodd" d="M28.9104 81.2162L27.4573 80.5961C24.7938 79.4595 23.6306 78.194 23.6916 76.654C23.7194 75.9497 24.0123 75.3491 24.2024 74.9805C24.2433 74.9012 24.2761 74.8389 24.3036 74.7868C24.3524 74.6941 24.3844 74.6334 24.4152 74.5658C24.4163 74.5634 24.4173 74.5611 24.4183 74.5589L24.4456 73.1678L25.991 73.3224C27.6358 73.4869 28.9945 73.953 29.5604 75.2529C30.0624 76.4059 29.7839 77.946 29.3341 79.6302L28.9104 81.2162ZM24.4366 74.514C24.4367 74.514 24.4362 74.5156 24.4349 74.519C24.4359 74.5158 24.4366 74.5141 24.4366 74.514ZM27.2661 77.6516C27.3477 77.033 27.3128 76.6541 27.206 76.4088C27.1239 76.2201 26.9473 76.0064 26.3861 75.8457C26.2648 76.0933 26.2139 76.2503 26.2084 76.389C26.203 76.5263 26.2372 76.9884 27.2661 77.6516Z" fill="#918B97"/>
<path fill-rule="evenodd" clip-rule="evenodd" d="M111.819 18.0128L113.789 18.7244C118.011 20.2503 120.034 21.7196 120.699 23.2558C121.01 23.9725 120.956 24.574 120.902 24.9762C120.892 25.0543 120.883 25.1193 120.874 25.1761C120.858 25.2863 120.847 25.3655 120.842 25.4498C120.839 25.4939 120.84 25.5214 120.841 25.5354L121.438 26.8436L119.602 26.5853C117.287 26.2596 115.361 25.6269 114.036 24.2471C112.845 23.0079 112.385 21.383 112.065 19.4785L111.819 18.0128ZM115.193 21.354C115.463 22.3384 115.788 22.967 116.198 23.3939C116.54 23.7497 117.051 24.0694 118.092 24.3238C118.095 24.2995 118.098 24.2767 118.101 24.2556C118.148 23.9051 118.148 23.6395 118.031 23.3704C117.881 23.0248 117.375 22.3376 115.193 21.354Z" fill="#918B97"/>
<path fill-rule="evenodd" clip-rule="evenodd" d="M131.875 21.8724L133.48 22.7257C137.35 24.7833 139.136 26.5016 139.398 28.1493C139.518 28.906 139.27 29.4757 139.099 29.8325C139.064 29.9052 139.035 29.9645 139.009 30.0155C138.962 30.1116 138.928 30.1787 138.9 30.2522C138.893 30.27 138.888 30.2842 138.884 30.2951L139.118 31.5768L137.481 31.0957C135.251 30.44 133.413 29.5606 132.397 28.01C131.918 27.2795 131.704 26.5137 131.624 25.7392C131.545 24.9656 131.594 24.1143 131.711 23.1816L131.875 21.8724ZM134.244 25.4408C134.239 25.7237 134.248 25.9819 134.272 26.2189C134.332 26.7989 134.477 27.1823 134.653 27.4517C134.885 27.8061 135.34 28.2065 136.521 28.6535C136.525 28.6463 136.528 28.6392 136.532 28.6322C136.551 28.5927 136.569 28.5565 136.584 28.5254C136.737 28.2078 136.798 27.9905 136.764 27.7726C136.724 27.5231 136.457 26.8084 134.244 25.4408Z" fill="#918B97"/>
<path fill-rule="evenodd" clip-rule="evenodd" d="M121.803 33.1289L122.151 31.9188C123.007 28.9447 124.455 27.6947 126.523 27.6561C127.478 27.6382 128.369 27.8966 128.948 28.0758C129.063 28.1116 129.159 28.1418 129.242 28.1681C129.4 28.2183 129.513 28.2539 129.631 28.2861C129.673 28.2973 129.702 28.3044 129.722 28.3088L131.311 28.255L131.482 29.5243C131.72 31.2976 131.441 32.6957 129.861 33.3522C129.118 33.661 128.192 33.7555 127.177 33.7385C126.162 33.7214 124.973 33.5909 123.632 33.3954L121.803 33.1289ZM125.345 31.6038C125.769 31.6425 126.145 31.6649 126.481 31.6706C127.259 31.6836 127.73 31.6045 128.028 31.4808C128.425 31.3158 128.745 30.9667 128.754 30.0331C128.733 30.0265 128.712 30.0199 128.692 30.0135C128.627 29.9929 128.567 29.9739 128.515 29.9579C128 29.7983 127.651 29.7181 127.344 29.7239C126.965 29.7309 126.1 29.9019 125.345 31.6038Z" fill="#918B97"/>
<path fill-rule="evenodd" clip-rule="evenodd" d="M134.299 37.7665L134.728 36.5087C135.691 33.6867 137.183 32.5281 139.193 32.4783C140.126 32.4551 140.993 32.687 141.567 32.8522C141.68 32.8848 141.774 32.9124 141.856 32.9364C142.013 32.9825 142.125 33.0154 142.242 33.0449C142.292 33.0574 142.325 33.0645 142.345 33.0684L143.991 33.0041L144.129 34.3046C144.309 35.9968 143.968 37.3165 142.386 37.9385C140.961 38.4986 138.793 38.3542 136.228 38.0188L134.299 37.7665ZM138.009 36.201C139.334 36.298 140.119 36.2372 140.592 36.0513C140.988 35.8956 141.302 35.5874 141.361 34.8009C141.309 34.7857 141.261 34.7717 141.219 34.7595C140.715 34.6146 140.358 34.5376 140.034 34.5456C139.626 34.5557 138.794 34.7296 138.009 36.201Z" fill="#918B97"/>
<path fill-rule="evenodd" clip-rule="evenodd" d="M107.83 32.063L107.871 30.8185C107.971 27.8682 108.986 26.3706 110.927 25.9343C111.816 25.7344 112.705 25.8177 113.268 25.8802C113.383 25.893 113.478 25.9041 113.559 25.9136C113.71 25.9313 113.815 25.9436 113.925 25.9519C113.947 25.9535 113.964 25.9545 113.979 25.9552L115.477 25.5931L115.935 26.8035C116.548 28.4231 116.63 29.8211 115.313 30.76C114.692 31.2024 113.855 31.4677 112.924 31.6409C111.993 31.8139 110.882 31.9103 109.627 31.9731L107.83 32.063ZM110.884 29.8556C111.227 29.8174 111.531 29.7735 111.802 29.7232C112.493 29.5948 112.876 29.4393 113.096 29.2826C113.382 29.0788 113.595 28.718 113.401 27.8553C113.397 27.8548 113.393 27.8543 113.389 27.8538C113.326 27.8465 113.27 27.8399 113.221 27.8345C112.721 27.779 112.416 27.7717 112.174 27.8263C111.908 27.8861 111.185 28.1623 110.884 29.8556Z" fill="#918B97"/>
<path fill-rule="evenodd" clip-rule="evenodd" d="M83.8334 29.154L84.2793 27.969C85.3315 25.1731 86.7879 24.0164 88.7767 24.1161C89.6888 24.1619 90.5102 24.4777 91.0276 24.6874C91.1339 24.7304 91.2204 24.7661 91.2947 24.7968C91.4338 24.8541 91.53 24.8938 91.6328 24.9311C91.654 24.9388 91.6714 24.9448 91.6851 24.9493L93.2357 25.0026L93.2812 26.2873C93.3418 28.001 92.9658 29.3584 91.4052 29.9039C90.6706 30.1606 89.7869 30.1913 88.8414 30.1087C87.8969 30.0261 86.8042 29.8223 85.5841 29.5478L83.8334 29.154ZM87.4677 27.8535C87.8058 27.9078 88.1103 27.9469 88.3847 27.9709C89.0876 28.0323 89.5064 27.9859 89.7694 27.894C90.1101 27.775 90.4292 27.4872 90.5248 26.6167C90.5222 26.6157 90.5197 26.6147 90.5172 26.6136C90.4601 26.5901 90.4078 26.5685 90.3633 26.5505C89.9039 26.3644 89.6129 26.2753 89.3606 26.2626C89.0813 26.2486 88.3021 26.3225 87.4677 27.8535Z" fill="#918B97"/>
<path fill-rule="evenodd" clip-rule="evenodd" d="M144.531 34.0941L145.714 35.3511C148.781 38.6074 149.737 40.8892 149.245 42.6781C149.016 43.5077 148.506 44.0598 148.154 44.4157C148.085 44.485 148.027 44.5427 147.976 44.5932C147.876 44.6917 147.804 44.7632 147.735 44.8419C147.702 44.8802 147.683 44.906 147.672 44.9204L147.328 46.2806L145.954 45.4105C143.927 44.1269 142.488 42.7247 142.19 40.8341C141.919 39.1124 142.686 37.3463 143.793 35.3943L144.531 34.0941ZM145.239 38.2077C144.679 39.4002 144.508 40.2026 144.605 40.8211C144.689 41.3545 145.022 41.9587 146.098 42.7769C146.124 42.7507 146.149 42.7253 146.174 42.7009C146.215 42.6606 146.253 42.6231 146.285 42.59C146.6 42.2717 146.796 42.0201 146.877 41.7225C146.985 41.3309 146.999 40.3719 145.239 38.2077Z" fill="#9CDAC9"/>
<path fill-rule="evenodd" clip-rule="evenodd" d="M166.848 57.5264L167.108 59.2882C167.709 63.3585 167.138 65.6464 165.744 66.903C165.093 67.4901 164.371 67.7375 163.874 67.8903C163.779 67.9196 163.699 67.9435 163.628 67.9646C163.489 68.0059 163.388 68.0361 163.285 68.0737C163.223 68.0968 163.188 68.1132 163.173 68.1207L162.054 69.166L161.374 67.7028C160.455 65.7283 160.115 63.9268 160.962 62.2329C161.726 60.7034 163.347 59.5538 165.386 58.3734L166.848 57.5264ZM164.984 61.5305C163.907 62.2648 163.316 62.8589 163.033 63.424C162.794 63.903 162.714 64.5083 163.046 65.5312C163.049 65.5301 163.053 65.5291 163.056 65.528C163.113 65.5111 163.166 65.4953 163.212 65.4811C163.649 65.3466 163.968 65.2142 164.224 64.9832C164.567 64.674 165.103 63.8859 164.984 61.5305Z" fill="#9CDAC9"/>
<path fill-rule="evenodd" clip-rule="evenodd" d="M156.856 43.4647L157.175 45.0481C158.042 49.3399 157.598 51.7717 156.126 53.063C155.444 53.6604 154.672 53.8766 154.157 54.0039C154.057 54.0288 153.972 54.0489 153.898 54.0665C153.753 54.1008 153.648 54.1257 153.542 54.1584C153.493 54.1735 153.462 54.1853 153.445 54.1925L152.385 55.1604L151.69 53.7933C150.627 51.7015 150.145 49.7968 150.96 48.0325C151.346 47.1981 151.972 46.5173 152.725 45.9185C153.477 45.3203 154.416 44.7572 155.502 44.1816L156.856 43.4647ZM155.159 47.2216C154.763 47.467 154.423 47.7021 154.133 47.9324C153.548 48.398 153.23 48.7974 153.066 49.1531C152.834 49.6547 152.786 50.3549 153.304 51.6362C153.355 51.6237 153.405 51.6118 153.453 51.6006C153.512 51.5865 153.567 51.5734 153.615 51.5615C154.078 51.4469 154.392 51.3302 154.63 51.1215C154.942 50.8482 155.514 50.0295 155.159 47.2216Z" fill="#9CDAC9"/>
<path fill-rule="evenodd" clip-rule="evenodd" d="M155.036 72.714L156.557 72.4171C160.503 71.6462 162.728 72.1939 163.905 73.7655C164.45 74.4938 164.648 75.3066 164.765 75.8502C164.788 75.9564 164.807 76.0456 164.823 76.1237C164.854 76.276 164.877 76.3863 164.907 76.4982C164.921 76.5512 164.932 76.5844 164.939 76.6027L165.846 77.7673L164.539 78.4792C162.61 79.5302 160.854 79.9723 159.237 79.0633C158.475 78.635 157.854 77.9615 157.306 77.1568C156.758 76.3525 156.243 75.3537 155.715 74.1992L155.036 72.714ZM158.578 74.6389C158.793 75.0389 158.999 75.3856 159.202 75.6835C159.63 76.312 159.998 76.6597 160.327 76.8446C160.781 77.0994 161.405 77.1733 162.539 76.6985C162.531 76.6578 162.523 76.618 162.515 76.5799C162.502 76.5176 162.49 76.4597 162.479 76.4093C162.374 75.9228 162.267 75.5888 162.074 75.3302C161.82 74.9912 161.079 74.379 158.578 74.6389Z" fill="#9CDAC9"/>
<path fill-rule="evenodd" clip-rule="evenodd" d="M157.086 87.3983L158.606 87.1014C162.553 86.3305 164.778 86.8782 165.955 88.4498C166.5 89.1781 166.698 89.9909 166.815 90.5346C166.838 90.6407 166.856 90.7299 166.873 90.8081C166.904 90.9603 166.927 91.0706 166.957 91.1825C166.971 91.2355 166.982 91.2688 166.989 91.287L167.895 92.4517L166.589 93.1635C164.66 94.2145 162.904 94.6567 161.287 93.7476C160.525 93.3193 159.903 92.6458 159.356 91.8411C158.808 91.0368 158.292 90.038 157.765 88.8835L157.086 87.3983ZM160.627 89.3232C160.843 89.7232 161.049 90.07 161.252 90.3679C161.68 90.9963 162.048 91.344 162.377 91.5289C162.83 91.7838 163.454 91.8576 164.589 91.3829C164.581 91.3421 164.573 91.3023 164.565 91.2642C164.552 91.2019 164.54 91.1441 164.529 91.0936C164.424 90.6071 164.317 90.2732 164.124 90.0145C163.87 89.6755 163.129 89.0633 160.627 89.3232Z" fill="#9CDAC9"/>
<path fill-rule="evenodd" clip-rule="evenodd" d="M148.397 61.148L149.907 60.5611C153.436 59.1886 155.656 59.3223 157.132 60.5414C157.819 61.1081 158.204 61.8113 158.45 62.2884C158.497 62.3816 158.537 62.4597 158.571 62.528C158.638 62.6603 158.686 62.7557 158.741 62.8516C158.768 62.8979 158.786 62.9261 158.797 62.9413L160.001 63.9008L158.84 64.8601C157.269 66.1576 155.71 66.8587 153.967 66.3033C152.392 65.8016 150.988 64.342 149.484 62.4874L148.397 61.148ZM152.469 62.343C153.355 63.2915 154.002 63.7667 154.551 63.9414C155.014 64.0891 155.573 64.0625 156.439 63.5176C156.437 63.5128 156.434 63.5081 156.432 63.5034C156.405 63.4492 156.379 63.3989 156.357 63.3554C156.141 62.9347 155.959 62.6485 155.71 62.4435C155.389 62.1783 154.585 61.7698 152.469 62.343Z" fill="#9CDAC9"/>
<path fill-rule="evenodd" clip-rule="evenodd" d="M165.954 111.655L164.88 113.189C162.546 116.524 160.596 117.97 158.76 118.195C157.906 118.299 157.239 118.107 156.801 117.966C156.715 117.938 156.644 117.914 156.582 117.893C156.463 117.854 156.378 117.825 156.286 117.801C156.244 117.79 156.216 117.784 156.2 117.782L154.65 117.997L155.21 116.467C155.921 114.524 156.915 112.978 158.667 112.133C160.241 111.374 162.131 111.356 164.293 111.525L165.954 111.655ZM161.712 113.816C160.578 113.82 159.838 113.956 159.312 114.21C158.873 114.421 158.438 114.793 157.992 115.665C158.021 115.674 158.048 115.683 158.073 115.692C158.456 115.815 158.745 115.875 159.051 115.838C159.437 115.791 160.274 115.518 161.712 113.816Z" fill="#918B97"/>
<path fill-rule="evenodd" clip-rule="evenodd" d="M165.858 94.4732L166.72 95.7903C167.983 97.7205 168.736 99.25 169.089 100.495C169.452 101.781 169.4 102.819 168.99 103.625C168.608 104.377 167.984 104.768 167.585 105.003C167.503 105.05 167.436 105.089 167.377 105.123C167.265 105.186 167.186 105.232 167.108 105.285C167.089 105.298 167.074 105.308 167.063 105.317L166.504 106.482L165.392 105.416C163.648 103.745 162.431 102.078 162.446 100.184C162.453 99.2757 162.747 98.4672 163.181 97.7221C163.614 96.9789 164.225 96.2309 164.956 95.4441L165.858 94.4732ZM165.787 98.4345C165.537 98.7509 165.334 99.0432 165.174 99.3179C164.853 99.87 164.747 100.283 164.744 100.608C164.741 101.083 164.968 101.749 166 102.876C166.049 102.847 166.097 102.82 166.141 102.795C166.187 102.769 166.229 102.744 166.265 102.723C166.632 102.508 166.835 102.341 166.941 102.132C167.02 101.977 167.12 101.652 166.902 100.881C166.737 100.299 166.401 99.5048 165.787 98.4345Z" fill="#918B97"/>
<path fill-rule="evenodd" clip-rule="evenodd" d="M146.741 134.125L145.043 134.803C141.174 136.346 138.684 136.613 137.054 135.838C136.306 135.482 135.918 134.973 135.684 134.643C135.636 134.575 135.598 134.52 135.565 134.472C135.503 134.384 135.461 134.322 135.41 134.26C135.399 134.247 135.39 134.236 135.383 134.228L134.055 133.626L135.41 132.699C137.166 131.496 138.931 130.699 140.872 130.883C141.782 130.97 142.586 131.264 143.327 131.658C144.067 132.051 144.809 132.581 145.59 133.205L146.741 134.125ZM142.087 133.721C141.862 133.574 141.649 133.447 141.445 133.338C140.893 133.044 140.475 132.925 140.145 132.894C139.729 132.854 139.164 132.933 138.2 133.469C138.221 133.499 138.239 133.526 138.256 133.55C138.463 133.84 138.624 134.006 138.835 134.106C139.068 134.218 139.816 134.439 142.087 133.721Z" fill="#918B97"/>
<path fill-rule="evenodd" clip-rule="evenodd" d="M141.708 120.409L142.661 121.401C144.902 123.734 145.295 125.497 144.244 127.003C143.76 127.697 143.057 128.182 142.595 128.487C142.501 128.549 142.424 128.599 142.358 128.643C142.231 128.725 142.143 128.782 142.054 128.846C142.029 128.865 142.01 128.879 141.997 128.889L141.193 130.088L139.905 129.443C138.178 128.58 137.044 127.562 137.273 126.044C137.38 125.332 137.778 124.617 138.321 123.906C138.864 123.197 139.599 122.43 140.47 121.596L141.708 120.409ZM141.232 123.949C141.004 124.2 140.809 124.431 140.645 124.645C140.234 125.183 140.065 125.556 140.024 125.83C139.971 126.184 140.105 126.596 140.904 127.129C140.907 127.127 140.91 127.125 140.913 127.123C140.964 127.089 141.012 127.058 141.052 127.032C141.461 126.761 141.706 126.567 141.853 126.356C142.027 126.107 142.323 125.425 141.232 123.949Z" fill="#918B97"/>
<path fill-rule="evenodd" clip-rule="evenodd" d="M150.672 111.747L151.848 112.55C154.468 114.341 155.294 115.935 154.683 117.559C154.403 118.304 153.866 118.886 153.517 119.249C153.445 119.323 153.386 119.384 153.336 119.436C153.242 119.532 153.178 119.597 153.114 119.67C153.102 119.683 153.093 119.694 153.085 119.703L152.619 121.022L151.206 120.619C149.414 120.107 148.096 119.344 147.93 117.859C147.852 117.163 148.046 116.418 148.372 115.66C148.697 114.902 149.185 114.061 149.778 113.138L150.672 111.747ZM153.06 119.735C153.06 119.735 153.06 119.735 153.061 119.734L153.06 119.735ZM151.124 115.34C151.002 115.57 150.899 115.782 150.814 115.978C150.573 116.541 150.515 116.901 150.543 117.147C150.577 117.451 150.773 117.793 151.586 118.143C151.611 118.118 151.633 118.095 151.653 118.074C151.96 117.755 152.123 117.546 152.199 117.344C152.28 117.127 152.402 116.484 151.124 115.34Z" fill="#918B97"/>
<path fill-rule="evenodd" clip-rule="evenodd" d="M89.847 152.913C134.481 152.913 170.459 120.989 170.459 81.8382C170.459 42.6675 134.148 10.001 89.5364 10.001C44.9495 10.001 9.23494 42.645 9.23494 81.8382C9.23494 120.989 45.2129 152.913 89.847 152.913ZM89.847 155.258C135.767 155.258 172.993 122.387 172.993 81.8382C172.993 41.2895 135.457 7.65576 89.5364 7.65576C43.6159 7.65576 6.70068 41.2895 6.70068 81.8382C6.70068 122.387 43.9265 155.258 89.847 155.258Z" fill="#918B97"/>
<path fill-rule="evenodd" clip-rule="evenodd" d="M79.7137 43.7436L71.6355 39.9868V58.3878C71.6355 65.4575 78.2656 71.2804 86.6659 71.7703L88.9776 71.7367C97.378 71.2469 104.009 65.4575 104.009 58.3878V56.3601V55.0421V39.9868L95.3502 44.0135C94.0017 41.7341 90.4872 39.9868 87.2439 39.9868C84.3304 39.9868 81.2166 41.6924 79.7137 43.7436ZM87.8221 69.844C95.5012 69.844 101.696 64.7012 101.696 58.3878V56.1729L73.9479 43.2683V58.3878C73.9479 64.7012 80.1431 69.844 87.8221 69.844ZM87.8021 47.4091L81.7704 44.6377C82.1406 44.1612 82.6639 43.6711 83.3329 43.2238C84.5888 42.3841 86.0376 41.9131 87.2439 41.9131C88.6817 41.9131 90.3175 42.411 91.6099 43.2464C92.3857 43.7478 92.9253 44.2931 93.2465 44.8175L87.8021 47.4091ZM91.1489 48.1735L101.696 53.0786V43.2683L91.1489 48.1735Z" fill="#DFA47B" fill-opacity="0.81"/>
<g filter="url(#filter4_d_786_3528)">
<path fill-rule="evenodd" clip-rule="evenodd" d="M94.4535 108.674V98.7556C94.4535 96.0168 97.1298 93.7966 100.431 93.7966H115.973V103.715C115.973 106.454 113.297 108.674 109.995 108.674H94.4535ZM99.1903 106.69H109.995C111.976 106.69 113.582 105.358 113.582 103.715V96.7406L99.1903 106.69ZM111.236 95.7802L96.8446 105.73V98.7556C96.8446 97.1123 98.4504 95.7802 100.431 95.7802H111.236ZM75.7346 75.9847C79.0359 75.9847 81.7122 78.2049 81.7122 80.9437V90.8619H66.1703C62.8689 90.8619 60.1926 88.6416 60.1926 85.9028V75.9847H75.7346ZM66.1703 88.8782H76.9755L62.5837 78.9287V85.9028C62.5837 87.5461 64.1895 88.8782 66.1703 88.8782ZM79.3212 87.9178L64.9294 77.9683H75.7346C77.7154 77.9683 79.3212 79.3004 79.3212 80.9437V87.9178Z" fill="#3F8881"/>
<path d="M88.8996 75.9847V71.6318L87.709 71.6484H86.5085V101.096L80.5308 104.251L86.5085 107.407V121.608C86.5085 122.156 87.0438 122.6 87.7041 122.6C88.3643 122.6 88.8996 122.156 88.8996 121.608V102.268V82.9274L92.1873 81.1917L95.475 79.456L88.8996 75.9847Z" fill="#3F8881"/>
</g>
<g filter="url(#filter5_d_786_3528)">
<path fill-rule="evenodd" clip-rule="evenodd" d="M88.8996 75.9847V71.6318L87.709 71.6484H86.5085V101.096L80.5308 104.251L86.5085 107.407V121.608C86.5085 122.156 87.0438 122.6 87.7041 122.6C88.3643 122.6 88.8996 122.156 88.8996 121.608V82.9274L95.475 79.456L88.8996 75.9847ZM95.2761 79.456L88.801 76.0376V71.7244L87.709 71.7396L86.6071 71.7396V101.149L80.7297 104.251L86.6071 107.354V121.608C86.6071 122.096 87.0878 122.509 87.7041 122.509C88.3203 122.509 88.801 122.096 88.801 121.608V82.8744L95.2761 79.456ZM98.8937 106.781L113.681 96.5586V103.715C113.681 105.417 112.02 106.781 109.995 106.781H98.8937ZM96.746 105.912V98.7556C96.746 97.0528 98.4064 95.689 100.431 95.689H111.533L96.746 105.912ZM77.2721 88.9694H66.1703C64.1454 88.9694 62.4851 87.6056 62.4851 85.9028V78.7467L77.2721 88.9694ZM64.6328 77.8771H75.7346C77.7594 77.8771 79.4197 79.2409 79.4197 80.9437V88.0998L64.6328 77.8771ZM94.4535 108.674V98.7556C94.4535 96.0168 97.1298 93.7966 100.431 93.7966H115.973V103.715C115.973 106.454 113.297 108.674 109.995 108.674H94.4535ZM115.875 93.8878H100.431C97.1739 93.8878 94.5521 96.0763 94.5521 98.7556V108.583H109.995C113.253 108.583 115.875 106.394 115.875 103.715V93.8878ZM113.582 96.7406V103.715C113.582 105.358 111.976 106.69 109.995 106.69H99.1903L113.582 96.7406ZM111.236 95.7802H100.431C98.4504 95.7802 96.8446 97.1123 96.8446 98.7556V105.73L111.236 95.7802ZM81.6137 80.9437C81.6137 78.2644 78.9919 76.0759 75.7346 76.0759H60.2912V85.9028C60.2912 88.5821 62.9129 90.7706 66.1703 90.7706H81.6137V80.9437ZM81.7122 80.9437C81.7122 78.2049 79.0359 75.9847 75.7346 75.9847H60.1926V85.9028C60.1926 88.6416 62.8689 90.8619 66.1703 90.8619H81.7122V80.9437ZM76.9755 88.8782L62.5837 78.9287V85.9028C62.5837 87.5461 64.1895 88.8782 66.1703 88.8782H76.9755ZM64.9294 77.9683H75.7346C77.7154 77.9683 79.3212 79.3004 79.3212 80.9437V87.9178L64.9294 77.9683Z" fill="black"/>
</g>
<g filter="url(#filter6_d_786_3528)">
<path fill-rule="evenodd" clip-rule="evenodd" d="M94.4535 108.674V98.7556C94.4535 96.0168 97.1298 93.7966 100.431 93.7966H115.973V103.715C115.973 106.454 113.297 108.674 109.995 108.674H94.4535ZM99.1903 106.69H109.995C111.976 106.69 113.582 105.358 113.582 103.715V96.7406L99.1903 106.69ZM111.236 95.7802L96.8446 105.73V98.7556C96.8446 97.1123 98.4504 95.7802 100.431 95.7802H111.236ZM75.7346 75.9847C79.0359 75.9847 81.7122 78.2049 81.7122 80.9437V90.8619H66.1703C62.8689 90.8619 60.1926 88.6416 60.1926 85.9028V75.9847H75.7346ZM66.1703 88.8782H76.9755L62.5837 78.9287V85.9028C62.5837 87.5461 64.1895 88.8782 66.1703 88.8782ZM79.3212 87.9178L64.9294 77.9683H75.7346C77.7154 77.9683 79.3212 79.3004 79.3212 80.9437V87.9178Z" fill="#3F8881"/>
<path d="M88.8996 75.9847V71.6318L87.709 71.6484H86.5085V101.096L80.5308 104.251L86.5085 107.407V121.608C86.5085 122.156 87.0438 122.6 87.7041 122.6C88.3643 122.6 88.8996 122.156 88.8996 121.608V102.268V82.9274L92.1873 81.1917L95.475 79.456L88.8996 75.9847Z" fill="#3F8881"/>
</g>
<g filter="url(#filter7_d_786_3528)">
<path fill-rule="evenodd" clip-rule="evenodd" d="M88.8996 75.9847V71.6318L87.709 71.6484H86.5085V101.096L80.5308 104.251L86.5085 107.407V121.608C86.5085 122.156 87.0438 122.6 87.7041 122.6C88.3643 122.6 88.8996 122.156 88.8996 121.608V82.9274L95.475 79.456L88.8996 75.9847ZM95.2761 79.456L88.801 76.0376V71.7244L87.709 71.7396L86.6071 71.7396V101.149L80.7297 104.251L86.6071 107.354V121.608C86.6071 122.096 87.0878 122.509 87.7041 122.509C88.3203 122.509 88.801 122.096 88.801 121.608V82.8744L95.2761 79.456ZM98.8937 106.781L113.681 96.5586V103.715C113.681 105.417 112.02 106.781 109.995 106.781H98.8937ZM96.746 105.912V98.7556C96.746 97.0528 98.4064 95.689 100.431 95.689H111.533L96.746 105.912ZM77.2721 88.9694H66.1703C64.1454 88.9694 62.4851 87.6056 62.4851 85.9028V78.7467L77.2721 88.9694ZM64.6328 77.8771H75.7346C77.7594 77.8771 79.4197 79.2409 79.4197 80.9437V88.0998L64.6328 77.8771ZM94.4535 108.674V98.7556C94.4535 96.0168 97.1298 93.7966 100.431 93.7966H115.973V103.715C115.973 106.454 113.297 108.674 109.995 108.674H94.4535ZM115.875 93.8878H100.431C97.1739 93.8878 94.5521 96.0763 94.5521 98.7556V108.583H109.995C113.253 108.583 115.875 106.394 115.875 103.715V93.8878ZM113.582 96.7406V103.715C113.582 105.358 111.976 106.69 109.995 106.69H99.1903L113.582 96.7406ZM111.236 95.7802H100.431C98.4504 95.7802 96.8446 97.1123 96.8446 98.7556V105.73L111.236 95.7802ZM81.6137 80.9437C81.6137 78.2644 78.9919 76.0759 75.7346 76.0759H60.2912V85.9028C60.2912 88.5821 62.9129 90.7706 66.1703 90.7706H81.6137V80.9437ZM81.7122 80.9437C81.7122 78.2049 79.0359 75.9847 75.7346 75.9847H60.1926V85.9028C60.1926 88.6416 62.8689 90.8619 66.1703 90.8619H81.7122V80.9437ZM76.9755 88.8782L62.5837 78.9287V85.9028C62.5837 87.5461 64.1895 88.8782 66.1703 88.8782H76.9755ZM64.9294 77.9683H75.7346C77.7154 77.9683 79.3212 79.3004 79.3212 80.9437V87.9178L64.9294 77.9683Z" fill="black"/>
</g>
<path fill-rule="evenodd" clip-rule="evenodd" d="M6.64931 90.3311L6.92302 88.6839C7.48168 85.3217 8.49311 83.4892 10.038 82.7915C10.7452 82.4722 11.4058 82.4797 11.8167 82.4954C11.9034 82.4987 11.9727 82.502 12.0314 82.5048C12.1379 82.51 12.2093 82.5134 12.2866 82.512C12.2942 82.5118 12.301 82.5116 12.3072 82.5114L13.6118 81.8926L13.7768 83.4263C13.9699 85.221 13.8008 86.8464 12.637 88.0703C12.0944 88.6408 11.4213 89.0262 10.6977 89.3144C9.97468 89.6025 9.131 89.8207 8.18909 90.0144L6.64931 90.3311ZM12.3498 82.5082C12.3499 82.5082 12.3487 82.5084 12.3462 82.5087C12.3486 82.5083 12.3498 82.5081 12.3498 82.5082ZM9.61159 87.1395C9.77717 87.0862 9.9304 87.0315 10.0722 86.975C10.5994 86.7649 10.8984 86.557 11.0761 86.3702C11.2797 86.1561 11.476 85.8039 11.4973 85.0005C11.1456 84.9875 10.9379 85.0098 10.7666 85.0872C10.5991 85.1628 10.0833 85.4798 9.61159 87.1395Z" fill="#9CDAC9"/>
<path fill-rule="evenodd" clip-rule="evenodd" d="M8.9217 102.083L9.13267 100.33C9.57896 96.621 10.6143 94.6581 12.1793 93.8132C12.9051 93.4213 13.6067 93.3591 14.0695 93.3319C14.1617 93.3265 14.2376 93.3228 14.3034 93.3195C14.4284 93.3133 14.5164 93.309 14.609 93.2985C14.6427 93.2947 14.6663 93.2909 14.6814 93.2881L16.0061 92.5427L16.2656 94.1132C16.5857 96.051 16.462 97.7624 15.2907 99.1241C14.2406 100.345 12.5402 101.015 10.524 101.61L8.9217 102.083ZM11.766 98.617C12.7338 98.2355 13.2988 97.8754 13.6274 97.4934C13.8984 97.1784 14.1019 96.7267 14.0779 95.8382C14.0594 95.8391 14.0418 95.8401 14.0253 95.8411C13.6229 95.8647 13.3461 95.9114 13.1037 96.0423C12.8102 96.2007 12.2115 96.6945 11.766 98.617Z" fill="#9CDAC9"/>
<path fill-rule="evenodd" clip-rule="evenodd" d="M25.0881 115.021L23.327 114.392C19.5097 113.029 17.6753 111.604 17.1818 109.99C16.9535 109.244 17.0737 108.609 17.1666 108.198C17.1852 108.115 17.2013 108.047 17.2151 107.989C17.2414 107.879 17.2598 107.801 17.273 107.718C17.2772 107.691 17.2793 107.672 17.2804 107.658L16.8385 106.311L18.5376 106.493C20.6697 106.722 22.4603 107.276 23.609 108.67C24.6409 109.921 24.9053 111.596 25.0078 113.515L25.0881 115.021ZM22.187 111.637C22.0366 110.679 21.8029 110.091 21.4867 109.707C21.2253 109.39 20.7925 109.088 19.8062 108.873C19.8007 108.897 19.7956 108.918 19.7911 108.938C19.7101 109.297 19.6886 109.546 19.7615 109.785C19.8483 110.068 20.2092 110.727 22.187 111.637Z" fill="#9CDAC9"/>
<path fill-rule="evenodd" clip-rule="evenodd" d="M171.781 74.7607L172.003 76.4151C172.549 80.4779 171.963 82.7568 170.489 83.9401C169.806 84.4887 169.059 84.6799 168.56 84.7918C168.462 84.8137 168.38 84.8313 168.309 84.8466C168.17 84.8764 168.071 84.8977 167.969 84.9264C167.923 84.9393 167.894 84.9495 167.877 84.9559L166.746 85.8998L166.119 84.4756C165.237 82.4726 164.902 80.6512 165.794 78.9994C166.604 77.5013 168.283 76.4735 170.343 75.4649L171.781 74.7607ZM169.83 78.5212C168.716 79.1729 168.124 79.7095 167.843 80.2288C167.604 80.6717 167.51 81.2809 167.868 82.397C167.888 82.3927 167.907 82.3885 167.927 82.3844C167.983 82.3723 168.036 82.361 168.081 82.3507C168.524 82.2514 168.828 82.148 169.067 81.9556C169.376 81.7078 169.945 80.985 169.83 78.5212Z" fill="#9CDAC9"/>
<path fill-rule="evenodd" clip-rule="evenodd" d="M18.5889 44.2408L19.5428 42.7258C21.2869 39.9558 22.8771 38.6663 24.5134 38.4978C25.2653 38.4203 25.8609 38.6098 26.2316 38.7391C26.3098 38.7664 26.3717 38.7886 26.4239 38.8074C26.5182 38.8414 26.5809 38.8639 26.651 38.8841C26.6583 38.8862 26.6649 38.888 26.6707 38.8896L28.172 38.7089L27.718 40.2365C27.2321 41.8712 26.4695 43.247 24.9645 43.9796C23.6307 44.6289 22.0115 44.5948 20.2391 44.4115L18.5889 44.2408ZM22.7286 42.1241C23.4166 42.1116 23.8609 42.0183 24.1691 41.8683C24.4091 41.7515 24.6796 41.5398 24.9575 40.9784C24.7031 40.8961 24.5285 40.8666 24.3606 40.8839C24.1772 40.9028 23.6476 41.0238 22.7286 42.1241Z" fill="#918B97"/>
<defs>
<filter id="filter0_d_786_3528" x="59.9782" y="71.6343" width="56.2094" height="51.3969" filterUnits="userSpaceOnUse" color-interpolation-filters="sRGB">
<feFlood flood-opacity="0" result="BackgroundImageFix"/>
<feColorMatrix in="SourceAlpha" type="matrix" values="0 0 0 0 0 0 0 0 0 0 0 0 0 0 0 0 0 0 127 0" result="hardAlpha"/>
<feOffset dy="0.214442"/>
<feGaussianBlur stdDeviation="0.107221"/>
<feComposite in2="hardAlpha" operator="out"/>
<feColorMatrix type="matrix" values="0 0 0 0 0 0 0 0 0 0 0 0 0 0 0 0 0 0 0.25 0"/>
<feBlend mode="normal" in2="BackgroundImageFix" result="effect1_dropShadow_786_3528"/>
<feBlend mode="normal" in="SourceGraphic" in2="effect1_dropShadow_786_3528" result="shape"/>
</filter>
<filter id="filter1_d_786_3528" x="59.9782" y="71.6343" width="56.2094" height="51.3969" filterUnits="userSpaceOnUse" color-interpolation-filters="sRGB">
<feFlood flood-opacity="0" result="BackgroundImageFix"/>
<feColorMatrix in="SourceAlpha" type="matrix" values="0 0 0 0 0 0 0 0 0 0 0 0 0 0 0 0 0 0 127 0" result="hardAlpha"/>
<feOffset dy="0.214442"/>
<feGaussianBlur stdDeviation="0.107221"/>
<feComposite in2="hardAlpha" operator="out"/>
<feColorMatrix type="matrix" values="0 0 0 0 0 0 0 0 0 0 0 0 0 0 0 0 0 0 0.25 0"/>
<feBlend mode="normal" in2="BackgroundImageFix" result="effect1_dropShadow_786_3528"/>
<feBlend mode="normal" in="SourceGraphic" in2="effect1_dropShadow_786_3528" result="shape"/>
</filter>
<filter id="filter2_d_786_3528" x="59.9782" y="71.6343" width="56.2094" height="51.3969" filterUnits="userSpaceOnUse" color-interpolation-filters="sRGB">
<feFlood flood-opacity="0" result="BackgroundImageFix"/>
<feColorMatrix in="SourceAlpha" type="matrix" values="0 0 0 0 0 0 0 0 0 0 0 0 0 0 0 0 0 0 127 0" result="hardAlpha"/>
<feOffset dy="0.214442"/>
<feGaussianBlur stdDeviation="0.107221"/>
<feComposite in2="hardAlpha" operator="out"/>
<feColorMatrix type="matrix" values="0 0 0 0 0 0 0 0 0 0 0 0 0 0 0 0 0 0 0.25 0"/>
<feBlend mode="normal" in2="BackgroundImageFix" result="effect1_dropShadow_786_3528"/>
<feBlend mode="normal" in="SourceGraphic" in2="effect1_dropShadow_786_3528" result="shape"/>
</filter>
<filter id="filter3_d_786_3528" x="59.9782" y="71.6343" width="56.2094" height="51.3969" filterUnits="userSpaceOnUse" color-interpolation-filters="sRGB">
<feFlood flood-opacity="0" result="BackgroundImageFix"/>
<feColorMatrix in="SourceAlpha" type="matrix" values="0 0 0 0 0 0 0 0 0 0 0 0 0 0 0 0 0 0 127 0" result="hardAlpha"/>
<feOffset dy="0.214442"/>
<feGaussianBlur stdDeviation="0.107221"/>
<feComposite in2="hardAlpha" operator="out"/>
<feColorMatrix type="matrix" values="0 0 0 0 0 0 0 0 0 0 0 0 0 0 0 0 0 0 0.25 0"/>
<feBlend mode="normal" in2="BackgroundImageFix" result="effect1_dropShadow_786_3528"/>
<feBlend mode="normal" in="SourceGraphic" in2="effect1_dropShadow_786_3528" result="shape"/>
</filter>
<filter id="filter4_d_786_3528" x="59.9782" y="71.6318" width="56.2094" height="51.3969" filterUnits="userSpaceOnUse" color-interpolation-filters="sRGB">
<feFlood flood-opacity="0" result="BackgroundImageFix"/>
<feColorMatrix in="SourceAlpha" type="matrix" values="0 0 0 0 0 0 0 0 0 0 0 0 0 0 0 0 0 0 127 0" result="hardAlpha"/>
<feOffset dy="0.214442"/>
<feGaussianBlur stdDeviation="0.107221"/>
<feComposite in2="hardAlpha" operator="out"/>
<feColorMatrix type="matrix" values="0 0 0 0 0 0 0 0 0 0 0 0 0 0 0 0 0 0 0.25 0"/>
<feBlend mode="normal" in2="BackgroundImageFix" result="effect1_dropShadow_786_3528"/>
<feBlend mode="normal" in="SourceGraphic" in2="effect1_dropShadow_786_3528" result="shape"/>
</filter>
<filter id="filter5_d_786_3528" x="59.9782" y="71.6318" width="56.2094" height="51.3969" filterUnits="userSpaceOnUse" color-interpolation-filters="sRGB">
<feFlood flood-opacity="0" result="BackgroundImageFix"/>
<feColorMatrix in="SourceAlpha" type="matrix" values="0 0 0 0 0 0 0 0 0 0 0 0 0 0 0 0 0 0 127 0" result="hardAlpha"/>
<feOffset dy="0.214442"/>
<feGaussianBlur stdDeviation="0.107221"/>
<feComposite in2="hardAlpha" operator="out"/>
<feColorMatrix type="matrix" values="0 0 0 0 0 0 0 0 0 0 0 0 0 0 0 0 0 0 0.25 0"/>
<feBlend mode="normal" in2="BackgroundImageFix" result="effect1_dropShadow_786_3528"/>
<feBlend mode="normal" in="SourceGraphic" in2="effect1_dropShadow_786_3528" result="shape"/>
</filter>
<filter id="filter6_d_786_3528" x="59.9782" y="71.6318" width="56.2094" height="51.3969" filterUnits="userSpaceOnUse" color-interpolation-filters="sRGB">
<feFlood flood-opacity="0" result="BackgroundImageFix"/>
<feColorMatrix in="SourceAlpha" type="matrix" values="0 0 0 0 0 0 0 0 0 0 0 0 0 0 0 0 0 0 127 0" result="hardAlpha"/>
<feOffset dy="0.214442"/>
<feGaussianBlur stdDeviation="0.107221"/>
<feComposite in2="hardAlpha" operator="out"/>
<feColorMatrix type="matrix" values="0 0 0 0 0 0 0 0 0 0 0 0 0 0 0 0 0 0 0.25 0"/>
<feBlend mode="normal" in2="BackgroundImageFix" result="effect1_dropShadow_786_3528"/>
<feBlend mode="normal" in="SourceGraphic" in2="effect1_dropShadow_786_3528" result="shape"/>
</filter>
<filter id="filter7_d_786_3528" x="59.9782" y="71.6318" width="56.2094" height="51.3969" filterUnits="userSpaceOnUse" color-interpolation-filters="sRGB">
<feFlood flood-opacity="0" result="BackgroundImageFix"/>
<feColorMatrix in="SourceAlpha" type="matrix" values="0 0 0 0 0 0 0 0 0 0 0 0 0 0 0 0 0 0 127 0" result="hardAlpha"/>
<feOffset dy="0.214442"/>
<feGaussianBlur stdDeviation="0.107221"/>
<feComposite in2="hardAlpha" operator="out"/>
<feColorMatrix type="matrix" values="0 0 0 0 0 0 0 0 0 0 0 0 0 0 0 0 0 0 0.25 0"/>
<feBlend mode="normal" in2="BackgroundImageFix" result="effect1_dropShadow_786_3528"/>
<feBlend mode="normal" in="SourceGraphic" in2="effect1_dropShadow_786_3528" result="shape"/>
</filter>
</defs>
</svg>
