<svg width="122" height="331" viewBox="0 0 122 331" fill="none" xmlns="http://www.w3.org/2000/svg">
<path d="M122 12.2317L72.5022 35.9389L72.5022 329.994L122 314.994L122 12.2317Z" fill="#B08BDA"/>
<path d="M72.749 36.9937L0.0184097 23.4937L60.9339 1.0861e-09L121.982 12.4937L72.749 36.9937Z" fill="#B09AC5"/>
<path d="M7.62939e-05 23.4937L72.749 36.9937L72.749 330.494L7.6271e-05 311.994L7.62939e-05 23.4937Z" fill="#684C87"/>
<path d="M61.6191 258.865L61.6191 222.782L10.0294 215.074L10.0294 246.953L61.6191 258.865Z" fill="#6C9CAC" fill-opacity="0.7" stroke="#86C0D2"/>
<path d="M59.3811 312.819L59.3811 266.032L8.91026 256.102L8.91026 297.472L59.3811 312.819Z" fill="#6C9CAC" fill-opacity="0.7" stroke="#86C0D2"/>
<path d="M61.6191 213.843L61.6191 171.994L10.0294 163.087L10.0294 200.078L61.6191 213.843Z" fill="#6C9CAC" fill-opacity="0.7" stroke="#86C0D2"/>
<path d="M61.6191 161.79L61.6191 106.766L10.0294 95.1191L10.0294 143.789L61.6191 161.79Z" fill="#6C9CAC" fill-opacity="0.7" stroke="#86C0D2"/>
<path d="M61.6191 94.8363L61.6191 51.3406L10.0294 42.0913L10.0294 80.5419L61.6191 94.8363Z" fill="#6C9CAC" fill-opacity="0.7" stroke="#86C0D2"/>
<path d="M57.1433 97.8284L57.1433 54.3373L7.7914 45.096L7.7914 83.5464L57.1433 97.8284Z" fill="#7AB9B5" fill-opacity="0.3" stroke="#7AB9B5"/>
<path d="M57.1433 154.828L57.1433 111.337L7.7914 102.096L7.7914 140.546L57.1433 154.828Z" fill="#7AB9B5" fill-opacity="0.3" stroke="#7AB9B5"/>
<path d="M57.1433 215.828L57.1433 172.337L7.7914 163.096L7.7914 201.546L57.1433 215.828Z" fill="#7AB9B5" fill-opacity="0.3" stroke="#7AB9B5"/>
<path d="M53.7866 260.836L53.7866 224.769L11.1483 217.092L11.1483 248.971L53.7866 260.836Z" fill="#7AB9B5" fill-opacity="0.3" stroke="#7AB9B5"/>
<path d="M58.2622 309.839L58.2622 268.818L8.91029 260.09L8.91029 296.35L58.2622 309.839Z" fill="#7AB9B5" fill-opacity="0.3" stroke="#7AB9B5"/>
</svg>
