<svg width="80" height="250" viewBox="0 0 80 250" fill="none" xmlns="http://www.w3.org/2000/svg">
<path d="M0 180.973L42.2252 198.106L42.2252 249.647L-1.18833e-08 232.515L0 180.973Z" fill="#6A8ABA"/>
<path d="M42.0273 249.51L42.0273 198.213L78.0611 183.272L78.0611 235.999L42.0273 249.51Z" fill="#5F72D5"/>
<path d="M42.0861 198.501L0.138672 181.117L42.0861 166.75L77.9219 183.703L42.0861 198.501Z" fill="#89A2D0"/>
<path d="M3.88867 189.593L38.0577 202.496L38.0577 241.314L3.88867 228.411L3.88867 189.593Z" fill="#86B0AE"/>
<path d="M74.1716 193.328L45.8363 205.299L45.8363 241.314L74.1716 229.342L74.1716 193.328Z" fill="#75B4B0"/>
<path d="M8.33091 226.024L8.33091 195.889L33.6161 206.013L33.6161 236.308L8.33091 226.024Z" fill="#408682" stroke="#231520" stroke-width="0.55"/>
<path d="M74.1742 226.069L74.1742 196.051L51.667 206.114L51.667 236.29L74.1742 226.069Z" fill="#408682" stroke="#231520" stroke-width="0.55"/>
<path d="M75.8412 227.433L75.8412 197.202L53.334 207.335L53.334 237.726L75.8412 227.433Z" fill="#9E77CB" fill-opacity="0.6" stroke="#231520" stroke-width="0.55"/>
<path d="M0.22876 123.908L42.454 141.04L42.454 192.582L0.22876 175.45L0.22876 123.908Z" fill="#6A8ABA"/>
<path d="M42.2563 192.445L42.2563 141.148L78.2901 126.206L78.2901 178.933L42.2563 192.445Z" fill="#5F72D5"/>
<path d="M42.3156 141.435L0.368164 124.051L42.3156 109.684L78.1514 126.637L42.3156 141.435Z" fill="#89A2D0"/>
<path d="M4.11743 132.528L38.2865 145.431L38.2865 184.249L4.11743 171.346L4.11743 132.528Z" fill="#86B0AE"/>
<path d="M74.4009 136.263L46.0655 148.234L46.0655 184.249L74.4009 172.277L74.4009 136.263Z" fill="#75B4B0"/>
<path d="M8.55991 168.958L8.55991 138.824L33.8451 148.948L33.8451 179.242L8.55991 168.958Z" fill="#408682" stroke="#231520" stroke-width="0.55"/>
<path d="M74.4032 169.004L74.4032 138.986L51.896 149.049L51.896 179.225L74.4032 169.004Z" fill="#408682" stroke="#231520" stroke-width="0.55"/>
<path d="M76.0705 170.368L76.0705 140.137L53.5633 150.27L53.5633 180.66L76.0705 170.368Z" fill="#9E77CB" fill-opacity="0.6" stroke="#231520" stroke-width="0.55"/>
<path d="M1.93896 68.2588L44.1642 85.3914L44.1642 136.933L1.93896 119.801L1.93896 68.2588Z" fill="#6A8ABA"/>
<path d="M43.9661 136.796L43.9661 85.4991L79.9999 70.5574L79.9999 123.284L43.9661 136.796Z" fill="#5F72D5"/>
<path d="M44.0255 85.7866L2.07812 68.4024L44.0255 54.0354L79.8614 70.9885L44.0255 85.7866Z" fill="#89A2D0"/>
<path d="M5.82788 76.8787L39.997 89.7819L39.997 128.6L5.82788 115.697L5.82788 76.8787Z" fill="#86B0AE"/>
<path d="M76.1104 80.614L47.775 92.5853L47.775 128.6L76.1104 116.629L76.1104 80.614Z" fill="#75B4B0"/>
<path d="M10.2701 113.31L10.2701 83.1754L35.5553 93.2994L35.5553 123.594L10.2701 113.31Z" fill="#408682" stroke="#231520" stroke-width="0.55"/>
<path d="M76.1134 113.355L76.1134 83.3375L53.6063 93.3998L53.6063 123.576L76.1134 113.355Z" fill="#408682" stroke="#231520" stroke-width="0.55"/>
<path d="M77.7804 114.719L77.7804 84.4881L55.2732 94.6208L55.2732 125.012L77.7804 114.719Z" fill="#9E77CB" fill-opacity="0.6" stroke="#231520" stroke-width="0.55"/>
<path d="M1.93896 14.2236L44.1642 31.3562L44.1642 82.8981L1.93896 65.7654L1.93896 14.2236Z" fill="#6A8ABA"/>
<path d="M43.9658 82.7603L43.9658 31.4635L79.9996 16.5217L79.9996 69.2488L43.9658 82.7603Z" fill="#5F72D5"/>
<path d="M44.0255 31.7512L2.07812 14.367L44.0255 -2.3501e-09L79.8614 16.9531L44.0255 31.7512Z" fill="#89A2D0"/>
<path d="M5.82788 22.843L39.997 35.7462L39.997 74.5643L5.82788 61.6611L5.82788 22.843Z" fill="#86B0AE"/>
<path d="M76.1104 26.5784L47.775 38.5497L47.775 74.5643L76.1104 62.593L76.1104 26.5784Z" fill="#75B4B0"/>
<path d="M10.2696 59.2746L10.2696 29.14L35.5548 39.264L35.5548 69.5583L10.2696 59.2746Z" fill="#408682" stroke="#231520" stroke-width="0.55"/>
<path d="M76.1129 59.3195L76.1129 29.3019L53.6058 39.3642L53.6058 69.5405L76.1129 59.3195Z" fill="#408682" stroke="#231520" stroke-width="0.55"/>
<path d="M77.7802 60.6835L77.7802 30.4525L55.273 40.5852L55.273 70.976L77.7802 60.6835Z" fill="#9E77CB" fill-opacity="0.6" stroke="#231520" stroke-width="0.55"/>
</svg>
