<svg width="326" height="829" viewBox="0 0 326 829" fill="none" xmlns="http://www.w3.org/2000/svg">
<path d="M185.5 581C309 314 15.5 0 15.5 0C153 9.5 243.612 35.4224 327 53V828.5H6.79452C2.266 829.213 0 828.5 0 828.5H6.79452C25.9536 825.485 85.6103 796.956 185.5 581Z" fill="#216C73"/>
<path d="M249.732 190.145C253.401 156.179 251.38 114.919 227.884 87.0703L223.432 88.8455C246.077 115.686 248.262 155.974 244.6 189.883C242.776 206.779 249.487 192.416 249.732 190.145Z" fill="#618165"/>
<path d="M193.191 77.7033C184.41 70.5464 230.717 59.1107 235.347 64.248C239.049 61.3099 242.084 61.9905 242.88 65.2301C224.43 77.6589 201.973 84.8602 193.191 77.7033Z" fill="#DFA47B"/>
<path fill-rule="evenodd" clip-rule="evenodd" d="M231.697 63.8053C233.298 63.9613 234.095 64.2965 234.403 64.6388C234.547 64.799 234.574 64.9346 234.532 65.0792C234.484 65.2461 234.328 65.4713 233.978 65.7513C233.27 66.3193 231.981 66.9427 230.234 67.5682C226.77 68.808 221.893 69.9198 217.509 70.6002C215.321 70.9398 213.287 71.1669 211.641 71.2514C210.818 71.2937 210.113 71.2992 209.545 71.2693C209.056 71.2436 208.728 71.1943 208.528 71.1442C208.568 71.0967 208.629 71.0337 208.72 70.9541C209.331 70.4238 210.779 69.6183 213.466 68.5019L212.302 67.2085C209.598 68.3317 207.85 69.2536 206.976 70.0117C206.551 70.381 206.182 70.8392 206.244 71.3445C206.316 71.9251 206.901 72.2827 207.473 72.4723C208.022 72.6544 208.702 72.7395 209.398 72.7762C210.113 72.8138 210.937 72.8044 211.83 72.7586C213.617 72.6668 215.764 72.4244 218.02 72.0742C222.524 71.3751 227.595 70.2264 231.277 68.9084C233.102 68.255 234.687 67.5252 235.669 66.7386C236.164 66.3414 236.558 65.8889 236.703 65.387C236.799 65.054 236.779 64.721 236.641 64.3989C238.213 63.2669 239.348 63.0617 239.962 63.1583C240.523 63.2466 241.263 63.7034 241.677 64.969C232.631 71.004 222.695 75.7337 213.987 78.1087C205.041 80.5482 197.916 80.3859 194.032 77.221C193.18 76.5263 193.018 75.8314 193.347 75.0837C193.701 74.2812 194.646 73.3769 196.172 72.4172C199.213 70.5055 204.187 68.6059 209.667 67.064C215.131 65.5264 220.989 64.3755 225.732 63.9247C228.11 63.6987 230.15 63.6543 231.697 63.8053ZM235.328 63.1443C236.988 62.0223 238.75 61.4202 240.437 61.6856C242.465 62.0047 243.553 63.4273 243.967 65.1122L244.062 65.4978L243.657 65.7704C234.364 72.0305 224.019 77.006 214.825 79.5131C205.735 81.9922 197.241 82.1767 192.343 78.1847C191 77.0902 190.687 75.8622 191.228 74.6347C191.744 73.4619 193.013 72.3388 194.665 71.3003C197.981 69.2154 203.227 67.2353 208.806 65.6657C214.399 64.0919 220.438 62.8998 225.405 62.4277C227.883 62.1922 230.151 62.1301 231.988 62.3091C233.241 62.4313 234.434 62.6804 235.328 63.1443Z" fill="#9F6D4A"/>
<path fill-rule="evenodd" clip-rule="evenodd" d="M217.598 78.0749C225.252 76.0044 232.938 71.4063 242.689 64.3632L241.612 63.6669C231.859 70.7119 224.366 75.1565 217.043 77.1376C209.794 79.0987 202.622 78.666 193.395 75.7672L192.79 76.6818C202.266 79.6589 209.87 80.1655 217.598 78.0749Z" fill="#9F6D4A"/>
<path d="M241.396 101.392C248.993 96.2939 251.948 86.5251 242.57 64.5042C226.427 72.1 217.739 83.1135 199.057 77.3599C180.375 71.6063 203.748 90.3671 208.196 98.8204C212.644 107.274 233.798 106.489 241.396 101.392Z" fill="#DFA47B"/>
<path fill-rule="evenodd" clip-rule="evenodd" d="M243.203 63.2854L241.939 63.8802C237.845 65.8064 234.232 67.9457 230.859 69.9544C230.773 70.0053 230.688 70.056 230.603 70.1067C227.309 72.0685 224.259 73.8852 221.146 75.3085C217.965 76.7631 214.781 77.7761 211.31 78.0976C207.852 78.4179 204.016 78.0603 199.506 76.6713C197.146 75.9446 195.298 75.5532 193.925 75.5278C193.224 75.5148 192.545 75.5947 191.98 75.842C191.388 76.1016 191.048 76.4903 190.903 76.9193C190.638 77.6994 190.994 78.678 191.534 79.6535C192.098 80.6712 192.963 81.8544 193.988 83.1223C195.42 84.8936 197.213 86.8904 199.019 88.9007C199.794 89.7626 200.57 90.627 201.321 91.4772C203.854 94.3437 206.089 97.0384 207.158 99.0692C209.606 103.723 216.587 105.712 223.576 105.942C230.568 106.172 238.095 104.673 242.178 101.933C250.258 96.5116 253.019 86.3368 243.635 64.2998L243.203 63.2854ZM241.943 65.7363C250.782 87.0062 247.622 96.1508 240.619 100.85C237.105 103.208 230.256 104.649 223.659 104.433C217.059 104.216 211.239 102.371 209.239 98.5712C208.084 96.3754 205.729 93.555 203.212 90.7062C202.44 89.8315 201.65 88.9529 200.869 88.0836C199.077 86.0883 197.328 84.1416 195.923 82.4024C194.915 81.1565 194.11 80.0479 193.603 79.1317C193.072 78.1734 192.956 77.5762 193.059 77.2745C193.097 77.1626 193.149 77.1338 193.189 77.1166C193.256 77.087 193.448 77.0305 193.888 77.0386C194.795 77.0554 196.303 77.3364 198.614 78.048C203.445 79.5359 207.7 79.9592 211.63 79.5953C215.546 79.2326 219.046 78.0962 222.39 76.5672C225.621 75.09 228.764 73.2179 232.015 71.2812C232.118 71.2202 232.22 71.1591 232.323 71.0981C235.34 69.3009 238.475 67.4455 241.943 65.7363Z" fill="#9F6D4A"/>
<path fill-rule="evenodd" clip-rule="evenodd" d="M233.832 75.3693C237.805 72.0391 241.479 68.544 243.803 64.8643L241.092 64.0498C238.93 67.4735 235.46 70.7986 231.538 74.0867C229.58 75.7275 227.527 77.3454 225.481 78.9564L225.435 78.9932C223.41 80.5876 221.393 82.1764 219.516 83.7525C215.748 86.9156 212.442 90.1095 210.706 93.3407C208.947 96.6154 208.782 99.9681 211.372 103.342L213.982 102.421C211.86 99.6569 211.94 96.9133 213.477 94.0522C215.037 91.1478 218.081 88.1666 221.812 85.034C223.66 83.4822 225.652 81.9132 227.688 80.31L227.719 80.2857C229.759 78.6784 231.842 77.0377 233.832 75.3693Z" fill="#9F6D4A"/>
<path d="M260.4 120.872C256.521 125.672 245.905 125.364 245.905 125.364C245.905 125.364 240.034 123.032 247.436 115.043C254.837 107.054 267.086 106.471 267.086 106.471C267.086 106.471 264.28 116.071 260.4 120.872Z" fill="#618165"/>
<path fill-rule="evenodd" clip-rule="evenodd" d="M267.039 105.966L267.089 106.47L267.81 106.57L268 105.92L267.039 105.966ZM245.907 125.363L245.876 125.868L245.696 125.863L245.54 125.801L245.907 125.363ZM266.156 107.061C266.081 107.3 265.986 107.593 265.873 107.933C265.551 108.903 265.082 110.246 264.492 111.738C263.306 114.736 261.653 118.284 259.761 120.626C257.968 122.844 254.587 123.917 251.528 124.426C250.01 124.679 248.606 124.787 247.58 124.832C247.068 124.854 246.653 124.861 246.368 124.862C246.281 124.862 246.206 124.862 246.145 124.861C246.139 124.858 246.132 124.855 246.126 124.851C246.011 124.789 245.845 124.688 245.661 124.542C245.295 124.253 244.854 123.784 244.613 123.083C244.134 121.684 244.416 119.246 248.059 115.314C251.66 111.426 256.438 109.342 260.322 108.227C262.265 107.669 263.982 107.355 265.208 107.181C265.569 107.13 265.887 107.091 266.156 107.061ZM245.907 125.363C245.54 125.801 245.54 125.801 245.54 125.801L245.525 125.795L245.502 125.785L245.433 125.755C245.377 125.729 245.303 125.692 245.214 125.644C245.036 125.548 244.802 125.404 244.551 125.206C244.048 124.808 243.484 124.195 243.182 123.315C242.577 121.55 243.06 118.828 246.818 114.771C250.618 110.669 255.665 108.468 259.756 107.294C261.801 106.707 263.609 106.376 264.911 106.191C265.562 106.099 266.087 106.043 266.453 106.01C266.636 105.993 266.779 105.983 266.878 105.976L266.993 105.969L267.024 105.967L267.039 105.966L267.089 106.47L267.81 106.57L267.808 106.578L267.802 106.599L267.777 106.682L267.68 106.998C267.595 107.272 267.47 107.668 267.307 108.158C266.981 109.138 266.507 110.495 265.91 112.003C264.723 115.006 263.032 118.658 261.046 121.117C258.959 123.699 255.093 124.872 251.874 125.409C250.252 125.679 248.76 125.793 247.674 125.841C247.13 125.865 246.685 125.872 246.375 125.873C246.219 125.873 246.097 125.872 246.013 125.871L245.915 125.869L245.888 125.869L245.876 125.868L245.907 125.363Z" fill="#324635"/>
<path d="M261.515 406.658C273.533 382.368 283.267 351.081 273.21 323.877L269.382 323.974C279.074 350.194 269.729 380.802 257.731 405.051C251.753 417.133 260.712 408.281 261.515 406.658Z" fill="#618165"/>
<path d="M249.704 307.358C245.059 299.613 282.963 303.831 285.04 308.931C288.623 307.761 290.717 309.102 290.431 311.734C273.182 315.917 254.349 315.104 249.704 307.358Z" fill="#DFA47B"/>
<path fill-rule="evenodd" clip-rule="evenodd" d="M282.42 307.597C283.579 308.154 284.086 308.622 284.225 308.962C284.289 309.121 284.272 309.23 284.201 309.326C284.12 309.437 283.941 309.562 283.602 309.674C282.915 309.902 281.777 310.012 280.294 309.997C277.354 309.968 273.387 309.455 269.908 308.756C268.172 308.407 266.582 308.017 265.323 307.627C264.693 307.432 264.161 307.242 263.743 307.064C263.383 306.91 263.15 306.783 263.013 306.691C263.056 306.667 263.119 306.637 263.21 306.602C263.813 306.376 265.12 306.174 267.443 306.081L266.922 304.798C264.584 304.891 263.019 305.096 262.157 305.421C261.736 305.579 261.334 305.819 261.243 306.212C261.139 306.664 261.481 307.092 261.859 307.39C262.222 307.677 262.709 307.927 263.222 308.146C263.749 308.371 264.37 308.59 265.054 308.802C266.421 309.225 268.1 309.635 269.89 309.994C273.464 310.713 277.587 311.251 280.712 311.283C282.261 311.298 283.651 311.19 284.603 310.874C285.083 310.715 285.502 310.486 285.748 310.152C285.911 309.931 285.987 309.677 285.971 309.399C287.461 308.988 288.369 309.148 288.804 309.388C289.202 309.609 289.633 310.152 289.599 311.209C281.158 313.216 272.404 314.006 265.215 313.38C257.83 312.736 252.521 310.656 250.467 307.23C250.016 306.479 250.084 305.917 250.536 305.45C251.02 304.95 251.976 304.536 253.385 304.241C256.19 303.654 260.445 303.607 264.981 303.965C269.506 304.323 274.22 305.077 277.906 306.046C279.753 306.531 281.298 307.059 282.42 307.597ZM285.327 308.103C286.88 307.724 288.368 307.761 289.563 308.422C290.999 309.218 291.429 310.576 291.28 311.945L291.246 312.258L290.868 312.35C282.18 314.457 273.052 315.318 265.462 314.656C257.957 314.003 251.526 311.804 248.935 307.484C248.225 306.299 248.325 305.299 249.066 304.533C249.774 303.801 251.033 303.314 252.557 302.995C255.617 302.354 260.098 302.322 264.716 302.687C269.347 303.053 274.208 303.826 278.068 304.841C279.994 305.347 281.715 305.924 283.046 306.563C283.954 306.998 284.782 307.512 285.327 308.103Z" fill="#9F6D4A"/>
<path fill-rule="evenodd" clip-rule="evenodd" d="M267.937 314.348C274.251 314.911 281.279 313.6 290.524 311.036L289.905 310.221C280.657 312.786 273.817 314.035 267.776 313.497C261.795 312.964 256.525 310.669 250.385 305.972L249.681 306.487C255.987 311.311 261.562 313.779 267.937 314.348Z" fill="#9F6D4A"/>
<path d="M279.455 338.259C286.553 336.552 291.436 330.089 290.396 311.108C276.198 312.326 266.668 318.139 254.204 308.716C241.739 299.292 254.18 319.694 255.216 327.213C256.253 334.733 272.358 339.967 279.455 338.259Z" fill="#DFA47B"/>
<path fill-rule="evenodd" clip-rule="evenodd" d="M291.204 310.374L290.092 310.47C286.491 310.778 283.194 311.378 280.112 311.946C280.034 311.961 279.956 311.975 279.879 311.99C276.869 312.545 274.083 313.059 271.356 313.263C268.57 313.472 265.902 313.35 263.207 312.635C260.522 311.923 257.737 310.601 254.728 308.326C253.154 307.136 251.872 306.336 250.848 305.94C250.325 305.737 249.793 305.61 249.302 305.639C248.786 305.669 248.424 305.865 248.198 306.145C247.787 306.653 247.787 307.48 247.927 308.355C248.073 309.268 248.4 310.387 248.824 311.614C249.417 313.327 250.22 315.307 251.028 317.301C251.375 318.156 251.722 319.013 252.055 319.853C253.176 322.685 254.12 325.307 254.369 327.113C254.939 331.253 259.641 334.655 264.828 336.748C270.018 338.842 276.081 339.795 279.895 338.878C287.443 337.062 292.292 330.243 291.252 311.249L291.204 310.374ZM289.589 311.853C290.428 330.126 285.561 336.068 279.019 337.642C275.736 338.432 270.198 337.622 265.302 335.646C260.403 333.669 256.534 330.695 256.068 327.315C255.799 325.361 254.8 322.613 253.686 319.799C253.344 318.935 252.99 318.064 252.641 317.201C251.838 315.222 251.056 313.292 250.474 311.609C250.057 310.405 249.755 309.357 249.623 308.535C249.486 307.676 249.562 307.199 249.721 307.002C249.78 306.93 249.827 306.923 249.862 306.921C249.921 306.917 250.08 306.928 250.408 307.055C251.085 307.317 252.141 307.941 253.683 309.106C256.906 311.543 259.988 313.029 263.039 313.839C266.08 314.646 269.019 314.762 271.948 314.543C274.777 314.331 277.649 313.801 280.619 313.253C280.713 313.235 280.806 313.218 280.9 313.201C283.657 312.692 286.518 312.173 289.589 311.853Z" fill="#9F6D4A"/>
<path fill-rule="evenodd" clip-rule="evenodd" d="M280.87 316.797C284.762 315.409 288.475 313.817 291.224 311.715L289.41 310.363C286.852 312.318 283.339 313.841 279.496 315.211C277.578 315.894 275.594 316.535 273.618 317.172L273.573 317.187C271.618 317.817 269.669 318.446 267.829 319.104C264.136 320.423 260.782 321.893 258.597 323.822C256.382 325.777 255.344 328.229 256.369 331.454L258.581 331.486C257.741 328.844 258.549 326.822 260.484 325.114C262.448 323.38 265.547 321.997 269.204 320.69C271.016 320.042 272.94 319.421 274.907 318.787L274.936 318.778C276.908 318.142 278.92 317.492 280.87 316.797Z" fill="#9F6D4A"/>
<path d="M288.419 357.995C284.196 360.504 276.305 357.354 276.305 357.354C276.305 357.354 272.532 354.003 280.27 350.088C288.008 346.173 297.369 349.108 297.369 349.108C297.369 349.108 292.642 355.487 288.419 357.995Z" fill="#618165"/>
<path fill-rule="evenodd" clip-rule="evenodd" d="M297.47 348.719L297.371 349.109L297.885 349.381L298.205 348.949L297.47 348.719ZM276.307 357.355L276.146 357.722L276.012 357.669L275.912 357.579L276.307 357.355ZM296.509 349.292C296.387 349.449 296.236 349.642 296.059 349.864C295.552 350.498 294.833 351.369 293.983 352.318C292.275 354.224 290.066 356.412 288.006 357.636C286.054 358.795 283.222 358.664 280.785 358.202C279.576 357.973 278.491 357.668 277.709 357.419C277.318 357.295 277.004 357.185 276.79 357.108C276.725 357.084 276.669 357.063 276.623 357.046C276.619 357.042 276.615 357.038 276.611 357.033C276.542 356.955 276.444 356.834 276.346 356.675C276.15 356.359 275.946 355.889 275.957 355.3C275.978 354.127 276.855 352.388 280.664 350.461C284.429 348.556 288.587 348.318 291.809 348.556C293.42 348.675 294.795 348.913 295.764 349.121C296.049 349.182 296.299 349.24 296.509 349.292ZM276.307 357.355C275.912 357.579 275.912 357.58 275.912 357.579L275.902 357.571L275.888 357.558L275.844 357.516C275.809 357.481 275.763 357.433 275.71 357.373C275.603 357.252 275.466 357.081 275.331 356.864C275.062 356.43 274.805 355.818 274.819 355.079C274.845 353.598 275.951 351.704 279.88 349.716C283.853 347.706 288.245 347.455 291.638 347.705C293.334 347.831 294.783 348.081 295.811 348.302C296.325 348.412 296.735 348.515 297.018 348.591C297.16 348.629 297.271 348.66 297.347 348.682L297.435 348.708L297.46 348.716L297.47 348.719L297.371 349.109L297.885 349.381L297.882 349.386L297.871 349.4L297.83 349.455L297.671 349.664C297.532 349.845 297.33 350.105 297.074 350.425C296.563 351.066 295.836 351.946 294.977 352.905C293.266 354.815 291 357.071 288.837 358.355C286.566 359.705 283.341 359.515 280.777 359.029C279.485 358.785 278.333 358.46 277.504 358.196C277.089 358.064 276.753 357.947 276.519 357.862C276.403 357.82 276.311 357.786 276.248 357.762L276.175 357.734L276.155 357.726L276.146 357.722L276.307 357.355Z" fill="#324635"/>
<path d="M214.339 614.303C236.789 597.78 261.066 574.338 267.219 546.994L264.076 545.64C258.146 571.994 234.539 594.994 212.127 611.489C200.96 619.708 212.838 615.408 214.339 614.303Z" fill="#618165"/>
<path d="M256.904 523.852C257.217 515.397 285.613 533.297 284.614 538.495C288.121 538.828 289.108 540.777 287.497 542.949C271.373 540.089 256.59 532.307 256.904 523.852Z" fill="#DFA47B"/>
<path fill-rule="evenodd" clip-rule="evenodd" d="M283.198 536.355C283.842 537.272 284.006 537.869 283.939 538.216C283.908 538.378 283.837 538.465 283.73 538.522C283.605 538.587 283.396 538.628 283.063 538.598C282.388 538.537 281.412 538.205 280.222 537.635C277.863 536.505 274.929 534.569 272.486 532.656C271.267 531.701 270.188 530.766 269.376 529.955C268.969 529.55 268.64 529.185 268.395 528.874C268.185 528.605 268.064 528.408 268.002 528.276C268.049 528.272 268.116 528.269 268.207 528.273C268.813 528.304 269.975 528.62 271.899 529.413L272.151 528.105C270.215 527.307 268.843 526.897 267.976 526.854C267.554 526.833 267.104 526.89 266.824 527.196C266.502 527.549 266.554 528.048 266.703 528.448C266.845 528.833 267.107 529.233 267.407 529.615C267.714 530.007 268.101 530.431 268.542 530.871C269.424 531.752 270.565 532.738 271.822 533.722C274.331 535.688 277.377 537.704 279.885 538.905C281.128 539.501 282.307 539.93 283.241 540.014C283.713 540.056 284.171 540.015 284.545 539.819C284.793 539.688 284.988 539.497 285.12 539.25C286.539 539.454 287.189 539.934 287.414 540.306C287.619 540.646 287.682 541.279 287.1 542.181C279.231 540.747 271.747 538.142 266.27 534.897C260.644 531.565 257.449 527.767 257.587 524.028C257.618 523.208 257.967 522.746 258.576 522.512C259.23 522.261 260.219 522.262 261.512 522.536C264.086 523.081 267.546 524.639 271.021 526.655C274.487 528.665 277.898 531.09 280.367 533.314C281.604 534.429 282.574 535.467 283.198 536.355ZM285.28 537.886C286.733 538.141 287.916 538.732 288.533 539.754C289.276 540.983 288.91 542.321 288.071 543.451L287.88 543.709L287.526 543.647C279.405 542.206 271.582 539.521 265.8 536.096C260.082 532.709 256.042 528.388 256.217 523.672C256.265 522.379 256.871 521.55 257.871 521.165C258.826 520.798 260.099 520.848 261.497 521.145C264.304 521.74 267.94 523.396 271.478 525.448C275.025 527.506 278.545 530.002 281.13 532.332C282.42 533.494 283.506 534.641 284.246 535.694C284.751 536.413 285.15 537.169 285.28 537.886Z" fill="#9F6D4A"/>
<path fill-rule="evenodd" clip-rule="evenodd" d="M267.961 536.759C272.764 539.619 279.127 541.125 287.938 542.378L287.866 541.44C279.052 540.186 272.873 538.698 268.277 535.961C263.727 533.251 260.676 529.283 258.181 522.907L257.343 523.089C259.904 529.637 263.111 533.87 267.961 536.759Z" fill="#9F6D4A"/>
<path d="M264.716 561.8C271.343 562.989 278.678 559.225 287.797 542.394C275.693 538.112 264.947 539.566 259.826 526.719C254.704 513.872 254.046 536.22 250.938 543.122C247.829 550.025 258.088 560.612 264.716 561.8Z" fill="#DFA47B"/>
<path fill-rule="evenodd" clip-rule="evenodd" d="M288.834 542.061L287.887 541.726C284.817 540.64 281.84 539.92 279.053 539.254C278.982 539.238 278.912 539.221 278.842 539.204C276.12 538.554 273.6 537.952 271.291 537.104C268.932 536.238 266.841 535.13 265.039 533.497C263.245 531.871 261.69 529.68 260.454 526.579C259.807 524.956 259.191 523.782 258.572 523.053C258.256 522.681 257.893 522.371 257.481 522.211C257.049 522.044 256.654 522.078 256.325 522.235C255.726 522.521 255.292 523.237 254.946 524.048C254.585 524.893 254.262 525.986 253.961 527.207C253.541 528.914 253.15 530.931 252.756 532.962C252.588 533.833 252.418 534.706 252.246 535.558C251.666 538.432 251.052 541.058 250.306 542.717C248.594 546.517 250.606 551.23 253.696 554.993C256.789 558.757 261.185 561.862 264.746 562.501C271.795 563.765 279.288 559.68 288.414 542.836L288.834 542.061ZM286.755 542.735C277.845 558.879 270.796 562.197 264.688 561.101C261.622 560.551 257.575 557.769 254.657 554.217C251.739 550.664 250.175 546.633 251.572 543.53C252.38 541.737 253.015 538.981 253.592 536.125C253.769 535.248 253.941 534.36 254.111 533.482C254.501 531.466 254.882 529.499 255.295 527.824C255.591 526.623 255.896 525.602 256.221 524.841C256.561 524.045 256.873 523.661 257.105 523.55C257.19 523.509 257.232 523.521 257.261 523.532C257.31 523.551 257.434 523.62 257.632 523.854C258.041 524.335 258.567 525.272 259.2 526.861C260.524 530.184 262.233 532.629 264.272 534.477C266.304 536.318 268.617 537.524 271.097 538.435C273.493 539.315 276.09 539.935 278.777 540.576C278.861 540.597 278.946 540.617 279.031 540.637C281.524 541.233 284.107 541.858 286.755 542.735Z" fill="#9F6D4A"/>
<path fill-rule="evenodd" clip-rule="evenodd" d="M277.119 543.741C280.991 544.002 284.825 544.018 288.147 543.231L287.392 541.378C284.3 542.11 280.664 542.108 276.842 541.851C274.934 541.722 272.996 541.531 271.066 541.341L271.022 541.336C269.112 541.148 267.209 540.96 265.378 540.838C261.703 540.593 258.224 540.605 255.447 541.455C252.632 542.316 250.508 544.05 249.643 547.229L251.413 548.088C252.121 545.484 253.834 544.036 256.293 543.284C258.789 542.52 262.017 542.486 265.656 542.728C267.459 542.849 269.339 543.034 271.259 543.224L271.289 543.227C273.214 543.417 275.18 543.61 277.119 543.741Z" fill="#9F6D4A"/>
<path d="M261.599 582.264C256.872 582.849 252.153 577.156 252.153 577.156C252.153 577.156 250.864 572.834 259.167 572.352C267.47 571.869 273.489 577.929 273.489 577.929C273.489 577.929 266.325 581.678 261.599 582.264Z" fill="#618165"/>
<path fill-rule="evenodd" clip-rule="evenodd" d="M273.775 577.63L273.491 577.93L273.763 578.36L274.248 578.106L273.775 577.63ZM252.154 577.157L251.831 577.415L251.751 577.318L251.717 577.203L252.154 577.157ZM272.698 577.765C272.518 577.855 272.295 577.965 272.035 578.091C271.293 578.45 270.255 578.934 269.071 579.437C266.691 580.446 263.759 581.511 261.453 581.797C259.269 582.068 257.051 580.889 255.325 579.574C254.469 578.921 253.754 578.249 253.252 577.739C253.002 577.485 252.806 577.272 252.673 577.124C252.633 577.079 252.599 577.04 252.571 577.008C252.57 577.003 252.569 576.998 252.568 576.992C252.553 576.899 252.538 576.757 252.542 576.583C252.549 576.235 252.632 575.751 252.949 575.245C253.582 574.237 255.202 573.061 259.289 572.823C263.329 572.588 266.812 573.944 269.289 575.361C270.528 576.07 271.513 576.793 272.187 577.337C272.385 577.497 272.556 577.641 272.698 577.765ZM252.154 577.157C251.717 577.203 251.717 577.203 251.717 577.203L251.714 577.192L251.709 577.175L251.696 577.122C251.686 577.079 251.673 577.02 251.662 576.948C251.639 576.803 251.618 576.603 251.623 576.365C251.634 575.887 251.748 575.261 252.146 574.626C252.944 573.353 254.831 572.128 259.047 571.883C263.31 571.635 266.989 573.068 269.597 574.56C270.901 575.306 271.94 576.068 272.654 576.645C273.012 576.934 273.289 577.177 273.478 577.349C273.572 577.435 273.645 577.504 273.695 577.552L273.753 577.608L273.768 577.623L273.775 577.63L273.491 577.93L273.763 578.36L273.757 578.363L273.741 578.371L273.679 578.403L273.442 578.524C273.235 578.629 272.935 578.778 272.56 578.959C271.811 579.322 270.762 579.811 269.565 580.319C267.181 581.33 264.168 582.433 261.748 582.733C259.205 583.048 256.701 581.672 254.885 580.287C253.97 579.59 253.21 578.875 252.679 578.335C252.413 578.065 252.203 577.837 252.059 577.676C251.987 577.596 251.931 577.532 251.893 577.487L251.848 577.435L251.836 577.421L251.831 577.415L252.154 577.157Z" fill="#324635"/>
<path d="M130.031 785.901C153.717 771.205 179.771 749.755 188.067 722.983L185.041 721.385C177.046 747.187 151.695 768.249 128.048 782.921C116.266 790.231 128.448 786.883 130.031 785.901Z" fill="#618165"/>
<path d="M179.613 699.098C180.594 690.694 207.486 710.783 206.08 715.885C209.549 716.494 210.379 718.515 208.601 720.553C192.754 716.428 178.633 707.502 179.613 699.098Z" fill="#DFA47B"/>
<path fill-rule="evenodd" clip-rule="evenodd" d="M204.837 713.64C205.407 714.606 205.523 715.214 205.429 715.554C205.385 715.713 205.308 715.794 205.196 715.842C205.067 715.898 204.854 715.922 204.525 715.866C203.857 715.752 202.91 715.344 201.769 714.681C199.507 713.368 196.735 711.207 194.451 709.106C193.311 708.058 192.31 707.041 191.564 706.168C191.191 705.732 190.891 705.342 190.672 705.012C190.484 704.728 190.378 704.522 190.327 704.386C190.375 704.385 190.441 704.387 190.532 704.399C191.134 704.477 192.267 704.884 194.122 705.827L194.477 704.543C192.61 703.595 191.275 703.078 190.414 702.966C189.995 702.912 189.541 702.933 189.238 703.216C188.889 703.542 188.902 704.043 189.018 704.454C189.13 704.849 189.36 705.268 189.628 705.673C189.904 706.089 190.256 706.542 190.66 707.015C191.47 707.963 192.529 709.036 193.705 710.117C196.051 712.274 198.928 714.525 201.333 715.921C202.525 716.613 203.666 717.133 204.591 717.291C205.058 717.371 205.518 717.366 205.906 717.2C206.164 717.089 206.373 716.914 206.525 716.679C207.922 716.994 208.533 717.524 208.727 717.912C208.905 718.267 208.918 718.903 208.267 719.757C200.535 717.705 193.281 714.517 188.077 710.849C182.732 707.082 179.847 703.044 180.281 699.328C180.376 698.512 180.761 698.08 181.387 697.894C182.058 697.695 183.045 697.775 184.311 698.15C186.834 698.897 190.16 700.724 193.465 703.008C196.761 705.286 199.97 707.973 202.255 710.385C203.4 711.595 204.285 712.706 204.837 713.64ZM206.791 715.331C208.22 715.701 209.352 716.383 209.887 717.451C210.53 718.734 210.059 720.04 209.134 721.099L208.923 721.342L208.575 721.251C200.593 719.174 193.007 715.878 187.514 712.007C182.082 708.179 178.396 703.551 178.943 698.864C179.093 697.579 179.763 696.8 180.79 696.496C181.771 696.205 183.036 696.356 184.407 696.762C187.158 697.577 190.651 699.516 194.016 701.841C197.389 704.173 200.701 706.94 203.094 709.466C204.287 710.726 205.28 711.956 205.934 713.064C206.38 713.821 206.719 714.606 206.791 715.331Z" fill="#9F6D4A"/>
<path fill-rule="evenodd" clip-rule="evenodd" d="M189.615 712.838C194.178 716.07 200.402 718.074 209.086 720.02L209.088 719.079C200.401 717.132 194.359 715.16 189.993 712.068C185.672 709.008 182.944 704.81 180.962 698.257L180.111 698.372C182.147 705.102 185.009 709.576 189.615 712.838Z" fill="#9F6D4A"/>
<path d="M184.401 737.544C190.913 739.253 198.523 736.081 208.945 720.023C197.217 714.799 186.389 715.399 182.299 702.187C178.21 688.975 175.787 711.201 172.143 717.836C168.498 724.471 177.888 735.836 184.401 737.544Z" fill="#DFA47B"/>
<path fill-rule="evenodd" clip-rule="evenodd" d="M210.005 719.774L209.086 719.365C206.112 718.04 203.201 717.087 200.475 716.203C200.406 716.181 200.338 716.159 200.269 716.136C197.607 715.273 195.142 714.474 192.908 713.446C190.624 712.396 188.628 711.126 186.961 709.356C185.301 707.593 183.924 705.286 182.937 702.097C182.42 700.428 181.899 699.209 181.34 698.433C181.054 698.038 180.717 697.7 180.319 697.508C179.901 697.307 179.505 697.31 179.164 697.44C178.545 697.678 178.056 698.357 177.646 699.138C177.219 699.953 176.811 701.016 176.415 702.21C175.861 703.878 175.312 705.858 174.759 707.852C174.522 708.706 174.284 709.563 174.045 710.4C173.239 713.219 172.42 715.788 171.545 717.382C169.538 721.035 171.171 725.893 173.954 729.888C176.739 733.885 180.876 737.327 184.376 738.246C191.302 740.063 199.095 736.584 209.525 720.514L210.005 719.774ZM207.878 720.282C197.72 735.671 190.431 738.421 184.428 736.846C181.415 736.055 177.601 732.961 174.974 729.19C172.345 725.417 171.105 721.275 172.743 718.293C173.69 716.569 174.54 713.872 175.342 711.07C175.587 710.21 175.829 709.339 176.068 708.477C176.617 706.498 177.152 704.568 177.696 702.93C178.086 701.757 178.47 700.763 178.855 700.03C179.257 699.263 179.598 698.905 179.837 698.813C179.926 698.779 179.967 698.794 179.995 698.807C180.043 698.83 180.16 698.909 180.339 699.157C180.709 699.669 181.159 700.645 181.665 702.28C182.722 705.696 184.232 708.269 186.119 710.272C187.999 712.269 190.209 713.653 192.61 714.757C194.928 715.824 197.468 716.647 200.096 717.499C200.178 717.526 200.261 717.553 200.344 717.58C202.783 718.371 205.308 719.198 207.878 720.282Z" fill="#9F6D4A"/>
<path fill-rule="evenodd" clip-rule="evenodd" d="M198.193 720.523C202.032 721.089 205.853 721.408 209.227 720.886L208.621 718.979C205.481 719.464 201.856 719.175 198.066 718.616C196.175 718.337 194.258 717.994 192.349 717.651L192.306 717.644C190.416 717.305 188.534 716.967 186.718 716.701C183.075 716.166 179.605 715.903 176.769 716.531C173.896 717.167 171.641 718.727 170.528 721.828L172.223 722.824C173.135 720.284 174.958 718.976 177.468 718.421C180.017 717.856 183.238 718.078 186.846 718.607C188.634 718.869 190.493 719.203 192.393 719.544L192.421 719.549C194.326 719.891 196.27 720.239 198.193 720.523Z" fill="#9F6D4A"/>
<path d="M179.676 757.698C174.918 757.908 170.663 751.859 170.663 751.859C170.663 751.859 169.72 747.45 178.035 747.625C186.351 747.8 191.872 754.317 191.872 754.317C191.872 754.317 184.434 757.488 179.676 757.698Z" fill="#618165"/>
<path fill-rule="evenodd" clip-rule="evenodd" d="M192.181 754.042L191.873 754.318L192.111 754.768L192.614 754.553L192.181 754.042ZM170.664 751.86L170.322 752.092L170.25 751.989L170.225 751.872L170.664 751.86ZM191.096 754.091C190.909 754.167 190.678 754.259 190.409 754.363C189.641 754.662 188.569 755.063 187.348 755.471C184.896 756.289 181.889 757.119 179.568 757.221C177.369 757.318 175.251 755.968 173.634 754.52C172.833 753.802 172.173 753.075 171.713 752.528C171.484 752.254 171.305 752.027 171.185 751.869C171.148 751.821 171.117 751.779 171.091 751.745C171.091 751.74 171.091 751.734 171.09 751.729C171.083 751.635 171.079 751.492 171.096 751.319C171.131 750.973 171.252 750.497 171.608 750.018C172.319 749.062 174.027 748.018 178.12 748.104C182.166 748.189 185.531 749.816 187.888 751.425C189.067 752.229 189.992 753.028 190.62 753.624C190.805 753.799 190.964 753.956 191.096 754.091ZM170.664 751.86C170.225 751.872 170.225 751.872 170.225 751.872L170.223 751.861L170.219 751.843L170.21 751.79C170.204 751.746 170.196 751.686 170.19 751.613C170.179 751.467 170.174 751.266 170.198 751.029C170.246 750.554 170.409 749.938 170.856 749.337C171.753 748.131 173.731 747.059 177.953 747.148C182.222 747.238 185.776 748.957 188.258 750.651C189.499 751.497 190.474 752.339 191.141 752.971C191.474 753.287 191.731 753.551 191.906 753.738C191.994 753.831 192.061 753.905 192.107 753.957L192.16 754.017L192.174 754.034L192.181 754.042L191.873 754.318L192.111 754.768L192.105 754.77L192.088 754.777L192.024 754.804L191.777 754.906C191.563 754.994 191.252 755.119 190.864 755.271C190.089 755.573 189.005 755.978 187.771 756.389C185.315 757.209 182.224 758.069 179.787 758.177C177.228 758.29 174.84 756.721 173.139 755.197C172.282 754.429 171.581 753.657 171.094 753.077C170.851 752.786 170.659 752.543 170.528 752.371C170.463 752.285 170.412 752.216 170.378 752.169L170.338 752.114L170.327 752.098L170.322 752.092L170.664 751.86Z" fill="#324635"/>
<path d="M246.474 724.207C263.815 702.383 281.108 673.403 279.888 645.402L276.5 644.918C277.676 671.905 260.914 700.283 243.601 722.071C234.976 732.926 245.314 725.666 246.474 724.207Z" fill="#618165"/>
<path d="M263.874 625.767C261.962 617.525 294.054 627.367 294.452 632.645C297.923 632.048 299.386 633.67 298.399 636.189C282.089 637.65 265.785 634.01 263.874 625.767Z" fill="#DFA47B"/>
<path fill-rule="evenodd" clip-rule="evenodd" d="M292.524 630.95C293.386 631.667 293.7 632.2 293.727 632.551C293.739 632.716 293.694 632.819 293.605 632.902C293.502 632.997 293.31 633.092 292.981 633.15C292.314 633.268 291.285 633.203 289.987 632.964C287.414 632.491 284.076 631.391 281.217 630.184C279.791 629.582 278.505 628.962 277.508 628.392C277.01 628.107 276.597 627.842 276.279 627.605C276.006 627.401 275.837 627.242 275.743 627.131C275.788 627.114 275.851 627.094 275.94 627.075C276.533 626.945 277.737 626.947 279.802 627.208L279.703 625.88C277.625 625.617 276.194 625.58 275.346 625.765C274.933 625.856 274.513 626.028 274.323 626.397C274.105 626.822 274.286 627.29 274.534 627.637C274.772 627.971 275.13 628.288 275.519 628.579C275.919 628.877 276.403 629.185 276.944 629.494C278.026 630.113 279.385 630.766 280.856 631.387C283.792 632.627 287.26 633.775 289.994 634.278C291.35 634.528 292.6 634.633 293.524 634.47C293.99 634.387 294.422 634.228 294.731 633.94C294.936 633.749 295.074 633.514 295.138 633.241C296.56 633.066 297.313 633.359 297.627 633.659C297.915 633.934 298.141 634.528 297.816 635.551C289.845 636.228 281.941 635.672 275.805 633.975C269.502 632.231 265.425 629.403 264.58 625.758C264.394 624.958 264.611 624.421 265.137 624.036C265.702 623.622 266.658 623.364 267.976 623.29C270.603 623.143 274.351 623.74 278.233 624.776C282.104 625.809 286.031 627.256 288.996 628.756C290.482 629.509 291.69 630.256 292.524 630.95ZM294.934 631.882C296.404 631.748 297.7 632.009 298.563 632.834C299.602 633.825 299.599 635.213 299.085 636.522L298.968 636.822L298.61 636.854C290.395 637.59 282.142 637.047 275.665 635.255C269.26 633.483 264.23 630.37 263.164 625.773C262.872 624.512 263.239 623.554 264.104 622.92C264.93 622.315 266.171 622.031 267.598 621.951C270.463 621.791 274.405 622.438 278.357 623.492C282.32 624.549 286.371 626.037 289.475 627.608C291.024 628.392 292.373 629.215 293.363 630.038C294.038 630.599 294.622 631.224 294.934 631.882Z" fill="#9F6D4A"/>
<path fill-rule="evenodd" clip-rule="evenodd" d="M277.924 635.329C283.309 636.832 289.844 636.62 298.676 635.523L298.361 634.636C289.526 635.733 283.173 635.915 278.02 634.477C272.92 633.053 268.936 630.022 264.859 624.521L264.097 624.916C268.284 630.565 272.487 633.811 277.924 635.329Z" fill="#9F6D4A"/>
<path d="M281.348 660.346C288.055 659.758 294.149 654.206 298.544 635.574C285.741 634.611 275.75 638.827 267.444 627.769C259.138 616.711 264.354 638.451 263.16 645.927C261.967 653.403 274.64 660.934 281.348 660.346Z" fill="#DFA47B"/>
<path fill-rule="evenodd" clip-rule="evenodd" d="M299.458 634.982L298.455 634.907C295.209 634.662 292.146 634.747 289.282 634.834C289.21 634.836 289.138 634.838 289.065 634.841C286.269 634.926 283.679 635.005 281.229 634.791C278.725 634.572 276.417 634.051 274.251 632.947C272.093 631.847 270.019 630.139 268.013 627.47C266.964 626.073 266.063 625.1 265.275 624.559C264.872 624.283 264.441 624.079 264.001 624.033C263.54 623.984 263.168 624.12 262.892 624.358C262.388 624.791 262.157 625.596 262.035 626.469C261.908 627.379 261.883 628.518 261.912 629.776C261.953 631.533 262.104 633.582 262.256 635.645C262.321 636.53 262.386 637.417 262.443 638.285C262.635 641.211 262.731 643.905 262.444 645.701C261.788 649.817 264.963 653.839 268.931 656.662C272.901 659.485 277.956 661.331 281.561 661.015C288.694 660.39 294.857 654.486 299.255 635.84L299.458 634.982ZM297.627 636.177C293.254 654.09 287.32 659.138 281.138 659.679C278.035 659.951 273.4 658.325 269.655 655.661C265.908 652.996 263.343 649.515 263.88 646.155C264.19 644.213 264.081 641.387 263.89 638.479C263.831 637.586 263.765 636.685 263.699 635.792C263.548 633.745 263.401 631.747 263.361 630.022C263.332 628.786 263.359 627.721 263.474 626.901C263.594 626.043 263.794 625.591 263.988 625.423C264.06 625.361 264.104 625.362 264.135 625.365C264.187 625.371 264.324 625.405 264.577 625.578C265.098 625.936 265.85 626.703 266.878 628.071C269.026 630.93 271.315 632.843 273.767 634.092C276.21 635.338 278.757 635.896 281.39 636.126C283.933 636.348 286.601 636.266 289.362 636.182C289.449 636.18 289.536 636.177 289.623 636.174C292.185 636.096 294.842 636.023 297.627 636.177Z" fill="#9F6D4A"/>
<path fill-rule="evenodd" clip-rule="evenodd" d="M288.591 639.67C292.396 638.908 296.1 637.919 299.101 636.29L297.886 634.699C295.094 636.215 291.585 637.166 287.828 637.918C285.954 638.293 284.033 638.616 282.121 638.938L282.077 638.945C280.184 639.263 278.298 639.58 276.499 639.942C272.888 640.668 269.533 641.59 267.076 643.138C264.585 644.706 262.988 646.935 262.986 650.229L264.919 650.595C264.92 647.896 266.195 646.051 268.371 644.681C270.58 643.29 273.687 642.412 277.263 641.694C279.034 641.337 280.897 641.024 282.8 640.705L282.829 640.7C284.737 640.379 286.685 640.052 288.591 639.67Z" fill="#9F6D4A"/>
<path d="M283.697 680.912C279.289 682.715 273.243 678.455 273.243 678.455C273.243 678.455 270.868 674.623 278.755 671.983C286.642 669.343 294.038 673.616 294.038 673.616C294.038 673.616 288.106 679.11 283.697 680.912Z" fill="#618165"/>
<path fill-rule="evenodd" clip-rule="evenodd" d="M294.236 673.253L294.04 673.617L294.415 673.96L294.816 673.588L294.236 673.253ZM273.245 678.456L273.001 678.79L272.898 678.717L272.835 678.615L273.245 678.456ZM293.232 673.665C293.081 673.799 292.895 673.964 292.677 674.153C292.055 674.694 291.18 675.433 290.169 676.228C288.136 677.825 285.585 679.621 283.434 680.5C281.397 681.333 278.948 680.777 276.938 679.959C275.941 679.553 275.074 679.092 274.457 678.731C274.149 678.551 273.904 678.397 273.737 678.289C273.687 678.256 273.643 678.227 273.608 678.204C273.606 678.199 273.603 678.194 273.601 678.189C273.562 678.103 273.51 677.97 273.468 677.801C273.385 677.464 273.338 676.975 273.512 676.403C273.858 675.265 275.114 673.705 278.996 672.406C282.834 671.121 286.55 671.518 289.312 672.237C290.693 672.597 291.834 673.037 292.626 673.386C292.859 673.488 293.062 673.583 293.232 673.665ZM273.245 678.456C272.835 678.615 272.835 678.616 272.835 678.615L272.829 678.606L272.82 678.59L272.793 678.543C272.772 678.504 272.745 678.451 272.715 678.384C272.655 678.25 272.583 678.063 272.525 677.831C272.41 677.368 272.356 676.733 272.574 676.016C273.012 674.579 274.512 672.902 278.517 671.562C282.566 670.206 286.491 670.626 289.4 671.384C290.853 671.762 292.055 672.226 292.896 672.596C293.316 672.781 293.647 672.943 293.875 673.06C293.989 673.118 294.077 673.165 294.138 673.198L294.208 673.237L294.227 673.248L294.236 673.253L294.04 673.617L294.415 673.96L294.41 673.964L294.397 673.977L294.346 674.024L294.148 674.203C293.976 674.358 293.725 674.581 293.411 674.854C292.783 675.4 291.899 676.147 290.876 676.95C288.84 678.55 286.221 680.403 283.963 681.326C281.592 682.296 278.815 681.624 276.7 680.763C275.634 680.329 274.714 679.838 274.06 679.456C273.732 679.265 273.47 679.1 273.289 678.983C273.198 678.924 273.128 678.877 273.079 678.844L273.023 678.805L273.007 678.794L273.001 678.79L273.245 678.456Z" fill="#324635"/>
</svg>
