<svg width="1120" height="831" viewBox="0 0 1120 831" fill="none" xmlns="http://www.w3.org/2000/svg">
<path d="M0 455.698V465.235C114.5 411.07 120.5 343.137 145.176 289.826C143.587 289.107 142.023 288.333 140.487 287.503C113.5 362.475 81.5 418.012 0 455.698Z" fill="#424923"/>
<path d="M457 288.592L465.5 277.745C527 299.005 995.37 62.1717 1079.36 4.94601L1120 0.495117C1034.73 54.0341 542.272 311.482 457 288.592Z" fill="#424923"/>
<path d="M293.28 255.491C274.687 214.797 247.118 178.865 214.419 159.479C206.608 154.848 199.011 151.66 191.698 149.669C161.382 141.413 135.95 153.721 120.363 168.982C111.319 177.836 105.589 187.684 104.142 195.086C95.0894 241.399 113.498 272.932 140.487 287.503C142.023 288.333 143.587 289.107 145.176 289.826V282.196C108.63 268.208 97.0898 207.167 120.171 179.826C126.077 173.46 134.905 166.953 145.616 162.517C151.3 160.162 157.515 158.391 164.105 157.533C176.1 155.973 189.338 157.44 202.879 163.93C246.57 184.869 263.852 234.508 235 277.745L246.477 272.023C258.855 254.39 260.356 239.902 254.811 207.167C267.292 222.68 274.126 233.079 285.586 259.306L293.28 255.491Z" fill="#424923"/>
<path d="M0 186.559V195.46C88.7986 180.409 53.3613 185.641 120.363 168.982C135.95 153.721 161.382 141.413 191.698 149.669C209.033 144.559 225.973 139.237 242.662 133.656C263.867 126.564 284.666 119.053 305.355 111.024C374.552 84.1715 442.51 51.5293 520.245 9.42066H501.011C413.89 57.6867 336.388 92.8067 241.703 123.192C222.532 129.344 202.657 135.302 181.855 141.135C102.283 163.45 119.148 163.974 0 186.559Z" fill="#424923"/>
<path d="M593.977 9.42066H585.642C495.084 57.5326 398.616 90.5379 305.355 111.024C284.666 119.053 263.867 126.564 242.662 133.656C358.302 115.528 473.183 75.0682 593.977 9.42066Z" fill="#424923"/>
<path d="M0 116.242V124.508C100.99 143.565 87.0645 149.626 181.855 141.135C202.657 135.302 222.532 129.344 241.703 123.192C100.58 146.177 82.1239 140.675 0 116.242Z" fill="#424923"/>
<path d="M243.912 268.208C250 259.275 252.028 253.844 258.258 254.727C262.263 246.342 260.038 238.839 279.175 246.783C266.641 257.463 261.097 266.108 243.912 268.208Z" fill="#707B50"/>
<path d="M400.804 248.855C383.255 236.837 369.702 237.254 361.945 250.927L390.358 255.071L400.804 248.855Z" fill="#67714A"/>
<path d="M551.02 697.401C544.254 733.107 530.957 741.379 492.676 738.095" stroke="#2C2B09" stroke-width="1.28229" stroke-linecap="round"/>
<path d="M477.289 760.349C480.494 861.448 536.274 824.569 534.35 694.857" stroke="#2C2B09" stroke-width="2.56458" stroke-linecap="round"/>
<path d="M476.691 766.577L474.246 772.029C472.966 774.882 472.813 778.096 473.582 781.124C478.003 798.525 475.845 813.095 465.748 824.328" stroke="#2C2B09" stroke-width="1.28229" stroke-linecap="round"/>
<path d="M533.709 722.833V719.654C535.775 719.666 536.448 720.108 536.915 721.562C538.839 733.007 534.351 733.007 533.709 722.833Z" fill="#2C2B09" stroke="#2C2B09" stroke-width="0.641145" stroke-linecap="round"/>
<path d="M532.675 745.607L533.3 743.119C530.387 742.409 529.351 742.52 528.407 743.495C523.445 751.779 529.771 753.343 532.675 745.607Z" fill="#2C2B09" stroke="#2C2B09" stroke-width="0.641145" stroke-linecap="round"/>
<path d="M525.278 779.47L525.606 778.163C524.294 777.844 523.821 777.92 523.375 778.444C520.971 782.848 523.82 783.552 525.278 779.47Z" fill="#2C2B09" stroke="#2C2B09" stroke-width="0.641145" stroke-linecap="round"/>
<path d="M521.069 794.111L521.692 792.141C523.368 792.67 523.829 793.114 523.924 794.132C523.245 801.711 519.598 800.578 521.069 794.111Z" fill="#2C2B09" stroke="#2C2B09" stroke-width="0.641145" stroke-linecap="round"/>
<path d="M491.162 817.637L490.539 815.667C488.863 816.196 488.402 816.64 488.307 817.659C488.986 825.238 492.633 824.104 491.162 817.637Z" fill="#2C2B09" stroke="#2C2B09" stroke-width="0.641145" stroke-linecap="round"/>
<path d="M486.401 805.307L484.982 803.796C486.275 802.613 486.892 802.435 487.832 802.857C494.138 807.19 491.341 809.773 486.401 805.307Z" fill="#2C2B09" stroke="#2C2B09" stroke-width="0.641145" stroke-linecap="round"/>
<path d="M508.73 813.022L510.568 812.053C509.735 810.516 509.21 810.149 508.183 810.244C500.797 812.301 502.592 815.648 508.73 813.022Z" fill="#2C2B09" stroke="#2C2B09" stroke-width="0.641145" stroke-linecap="round"/>
<path d="M480.488 799.927L480.422 797.863C478.664 797.927 478.1 798.232 477.733 799.188C476.335 806.669 480.156 806.548 480.488 799.927Z" fill="#2C2B09" stroke="#2C2B09" stroke-width="0.641145" stroke-linecap="round"/>
<path d="M480.314 779.083L479.854 777.245C482.133 776.691 482.939 776.763 483.665 777.477C487.444 783.571 482.496 784.791 480.314 779.083Z" fill="#2C2B09" stroke="#2C2B09" stroke-width="1.08878" stroke-linecap="round"/>
<path d="M475.75 768.052L476.072 766.769C474.481 766.381 473.918 766.432 473.412 766.93C470.773 771.184 474.228 772.036 475.75 768.052Z" fill="#2C2B09" stroke="#2C2B09" stroke-width="0.759964" stroke-linecap="round"/>
<path d="M518.963 574.684C508.063 584.858 511.049 588.673 523.231 579.771C525.603 581.948 526.073 582.775 526.016 585.493C522.495 591.594 522.672 595.928 528.58 591.852C532.312 599.31 532.271 602.713 531.566 614.106C527.626 607.87 521.949 605.84 505.92 605.84C513.614 599.482 511.049 592.488 500.791 603.933C488.878 583.139 493.797 572.209 505.92 572.123C508.24 568.496 510.166 566.568 518.102 563.875C519.384 555.609 528.36 558.152 533.489 563.239C525.796 561.967 520.025 565.782 518.102 563.875C510.166 566.568 508.24 568.496 505.92 572.123C510.108 572.093 513.452 572.086 518.963 574.684Z" fill="#2C2B09"/>
<path d="M505.92 572.123C510.108 572.093 513.452 572.086 518.963 574.684C508.063 584.858 511.049 588.673 523.231 579.771C525.603 581.948 526.073 582.775 526.016 585.493C522.495 591.594 522.672 595.928 528.58 591.852C532.312 599.31 532.271 602.713 531.566 614.106C527.626 607.87 521.949 605.84 505.92 605.84C513.614 599.482 511.049 592.488 500.791 603.933C488.878 583.139 493.797 572.209 505.92 572.123ZM505.92 572.123C508.24 568.496 510.166 566.568 518.102 563.875M518.102 563.875C519.384 555.609 528.36 558.152 533.489 563.239C525.796 561.967 520.025 565.782 518.102 563.875Z" stroke="#2C2B09" stroke-width="2.56458"/>
<path d="M498.005 317.805V392.834C515.993 372.325 530.759 367.321 554.426 369.418V329.886C533.814 321.031 521.738 317.586 498.005 317.805Z" fill="#565E2E"/>
<path d="M498.005 470.407V548.615C515.993 528.106 530.759 520.543 554.426 522.64V482.488C533.814 473.633 521.738 470.187 498.005 470.407Z" fill="#565E2E"/>
<path d="M498.005 643.991V719.02C515.993 698.511 532.683 693.103 556.349 695.201C556.349 672.887 556.349 681.317 556.349 656.708C535.737 647.853 521.738 643.772 498.005 643.991Z" fill="#565E2E"/>
<path d="M292.839 240.232V731.737L498.005 759.714V719.02V643.991V548.615V470.407V392.834V317.805V268.209L292.839 240.232Z" fill="#6D7739"/>
<path d="M292.839 731.737V240.232L188.973 304.452V795.957L292.839 731.737Z" fill="#565E2E"/>
<path d="M292.839 731.737L188.973 795.957L394.139 823.934L498.005 759.714L292.839 731.737Z" fill="#4C7323"/>
<path d="M405.861 734.354C396.548 737.556 390.865 738.705 378.486 737.647C359.021 735.971 345.451 734.734 315.263 731.882C308.745 729.084 308.093 717.227 299.62 718.545C296.727 718.093 295.069 717.523 291.798 713.934C267.682 731.882 268.986 744.235 239.004 763.008L187.513 796.454C187.298 799.073 188.172 800.011 191.423 800.884C190.371 805.838 190.669 807.171 192.075 808.13C193.987 808.894 194.385 807.392 194.682 803.519C197.943 803.029 199.148 802.4 200.548 800.884C201.706 799.898 203.557 799.598 208.37 799.353L231.834 802.613C231.834 808.789 235.093 812.741 236.397 816.035C237.7 817.352 242.034 809.114 250.084 807.471C252.235 809.009 253.626 809.679 255.102 809.947C256.331 810.17 257.381 811.017 257.701 812.223C258.638 815.759 259.776 814.688 261.816 811.424L265.075 808.789C267.649 811.693 269.065 812.914 270.291 813.287C270.981 813.498 271.64 813.998 271.703 814.717C272.401 822.716 273.138 824.358 274.852 821.963C276.065 818.421 276.993 817.399 278.763 816.035C279.622 815.386 280.076 814.906 280.066 810.765C280.342 809.62 282.039 809.663 285.932 810.131L352.039 819.317C353.928 819.58 355.572 820.696 356.68 822.249C359.543 826.263 361.686 827.232 364.782 825.468C365.624 824.989 366.664 824.869 367.345 825.559C370.096 828.347 372.342 834.506 373.043 828.152C373.385 825.058 376.023 822.65 379.107 823.079L394.781 825.257L415.611 812.132C416.139 814.23 416.962 814.421 418.245 814.059C419.771 826.685 422.807 823.939 423.459 815.376C424.666 816.116 425.079 815.661 424.763 806.365L444.316 794.045C446.719 793.573 447.365 794.118 446.924 796.932C446.272 801.082 449.531 803.519 451.486 793.638C452.014 791.366 453.013 789.884 455.416 787.051L458.004 785.421C459.229 788.179 459.826 790.466 463.66 785.281C464.297 784.419 465.662 784.6 466.007 785.615C467.641 790.432 469.029 793.19 468.699 778.682L498 760.655L463.218 748.187C441.709 746.869 448.227 740.941 444.968 739.624C437.805 739.292 432.584 742.917 424.111 742.917C411.727 742.917 411.727 735.671 405.861 734.354Z" fill="#484F25"/>
<path d="M508.408 259.418C495.954 250.867 494.625 240.379 508.093 237.068C520.283 234.072 535.792 238.188 539.599 250.148C542.185 258.27 537.075 265.867 520.169 264.395C517.613 264.172 510.972 261.177 508.408 259.418Z" fill="#A06D52"/>
<path d="M519.289 246.889C503.313 245.384 501.114 251.427 513.233 258.037C515.565 259.309 518.625 260.124 520.927 260.581C535.79 263.529 535.217 254.449 524.831 248.55C523.14 247.589 521.225 247.071 519.289 246.889Z" fill="#C19674"/>
<path d="M515.756 252.315C511.359 261.403 508.798 266.088 502.934 268.847L508.063 277.113C513.901 273.135 517.248 269.163 523.45 258.674C521.467 254.946 519.865 253.453 515.756 252.315Z" fill="#BD8D69"/>
<path d="M514.817 206.437C528.691 216.244 523.777 230.772 507.837 235.146C507.142 235.336 497.965 235.586 494.544 235.782C472.319 237.053 474.3 217.883 482.5 209.75C484.848 207.421 487.807 204.042 497.129 202.682C503.275 201.785 509.746 202.852 514.817 206.437Z" fill="#A06D52"/>
<path d="M495.002 253.588C496.619 246.812 496.386 239.626 495.855 233.877C495.306 229.773 494.193 224.695 492.445 219.25C494.757 218.521 499.499 217.979 502.062 217.979C503.796 223.511 504.992 228.892 505.683 233.241C506.895 242.766 505.165 252.505 501.414 263.126L495.002 253.588Z" fill="#BD8D69"/>
<path d="M501.87 217.979C503.604 223.511 504.847 228.161 505.538 232.51C520.503 227.423 520.464 219.25 501.87 217.979Z" fill="#C19674"/>
<path d="M495.863 233.239C495.314 229.134 494.193 224.695 492.445 219.25C478.341 223.701 478.341 230.695 495.863 233.239Z" fill="#C19674"/>
<path d="M489.5 323.302C489.5 355.599 463.096 381.802 430.5 381.802C397.904 381.802 371.5 355.599 371.5 323.302C371.5 291.005 397.904 264.803 430.5 264.803C463.096 264.803 489.5 291.005 489.5 323.302Z" fill="url(#paint0_linear_1168_4502)" stroke="#303517" stroke-width="3"/>
<path d="M342.333 370.462L399.011 301.55C397.237 275.237 411.711 249.668 415.5 246.444L391.173 260.86C375.046 298.071 363.205 319.248 333.942 364.586L342.333 370.462Z" fill="#404720"/>
<path d="M426.539 263.943C459.849 261.733 488.657 286.722 490.885 319.756L506.755 304.956C506.354 228.755 426.271 220.731 404.592 269.633C411.186 266.577 418.841 264.453 426.539 263.943Z" fill="#404720"/>
<path d="M393.788 299.709L400.172 301.762C399.284 288.589 400.553 278.746 404.592 269.633C426.271 220.731 506.354 228.755 506.755 304.956L512.924 306.671C512.484 236.805 454.252 219.654 419.332 243.2C403.192 254.082 392.014 273.395 393.788 299.709Z" fill="#303517"/>
<path d="M512.924 306.671L506.755 304.956L490.885 319.756C491.026 321.838 490.958 323.245 490.885 325.286L512.924 306.671Z" fill="#303517"/>
<path d="M435.5 241.486C429.659 242.934 409.5 254.378 404.5 269.75C425 260.825 435.5 263.8 443 264.791C450.5 265.783 490 281.651 491 320.329L507.5 305.453C507.167 301.486 506.5 294.048 506 291.073C505.671 289.116 502 265.287 483.5 249.42C465 233.552 443.5 239.502 435.5 241.486Z" fill="url(#paint1_linear_1168_4502)"/>
<path d="M475.781 347.985L477.124 342.974C473.424 341.867 472.14 340.746 469.885 338.78L469.865 338.762C466.09 335.468 461.074 340.279 466.59 344.031C468.956 345.64 471.916 346.802 475.781 347.985Z" fill="url(#paint2_linear_1168_4502)"/>
<path d="M477.014 332.518L477.91 335.863C480.2 335.15 481.948 334.434 483.333 333.411C486.563 331.026 483.473 327.747 481.277 329.86L481.265 329.871C479.953 331.133 479.206 331.852 477.014 332.518Z" fill="url(#paint3_linear_1168_4502)"/>
<path d="M477.91 253.924L479.151 258.556C482.107 257.624 484.361 256.677 486.135 255.299C490.273 252.084 486.186 247.494 483.383 250.357L483.368 250.372C481.694 252.082 480.741 253.056 477.91 253.924Z" fill="url(#paint4_linear_1168_4502)"/>
<path d="M477.459 267.253L477.459 272.045C474.36 271.898 471.937 271.556 469.865 270.676C465.034 268.623 467.795 263.146 471.246 265.199L471.264 265.21C473.325 266.436 474.498 267.135 477.459 267.253Z" fill="url(#paint5_linear_1168_4502)"/>
<path d="M478.068 280.542L479.151 284.586C481.563 283.818 483.399 283.025 484.835 281.851C488.184 279.114 484.766 275.065 482.507 277.516L482.495 277.529C481.146 278.992 480.378 279.826 478.068 280.542Z" fill="url(#paint6_linear_1168_4502)"/>
<path d="M476.547 289.308L476.547 294.101C473.449 293.953 471.026 293.612 468.954 292.731C464.123 290.678 466.884 285.201 470.335 287.255L470.353 287.266C472.413 288.492 473.587 289.19 476.547 289.308Z" fill="url(#paint7_linear_1168_4502)"/>
<path d="M476.827 305.049L477.91 309.093C480.323 308.325 482.158 307.533 483.594 306.359C486.943 303.621 483.526 299.572 481.266 302.023L481.254 302.036C479.905 303.499 479.137 304.333 476.827 305.049Z" fill="url(#paint8_linear_1168_4502)"/>
<path d="M476.633 321.281L475.549 325.325C473.137 324.557 471.302 323.765 469.865 322.591C466.516 319.853 469.934 315.804 472.194 318.255L472.206 318.268C473.555 319.731 474.323 320.565 476.633 321.281Z" fill="url(#paint9_linear_1168_4502)"/>
<path d="M477.5 246.442L476 368.623" stroke="url(#paint10_linear_1168_4502)" stroke-width="3" stroke-linecap="round"/>
<path d="M484.857 486.108C484.857 518.405 458.454 544.607 425.857 544.607C393.261 544.607 366.858 518.405 366.858 486.108C366.858 453.811 393.261 427.608 425.857 427.608C458.454 427.608 484.857 453.811 484.857 486.108Z" fill="url(#paint11_linear_1168_4502)" stroke="#303517" stroke-width="3"/>
<path d="M337.691 533.267L394.369 464.356C392.594 438.042 407.068 412.474 410.858 409.249L386.531 423.665C370.403 460.876 358.563 482.054 329.299 527.392L337.691 533.267Z" fill="#404720"/>
<path d="M421.897 426.748C455.206 424.539 484.015 449.527 486.243 482.561L502.113 467.761C501.712 391.561 421.629 383.537 399.95 432.439C406.543 429.383 414.199 427.259 421.897 426.748Z" fill="#404720"/>
<path d="M389.146 462.514L395.53 464.568C394.642 451.395 395.91 441.552 399.95 432.439C421.629 383.537 501.712 391.561 502.113 467.761L508.282 469.477C507.842 399.611 449.61 382.459 414.689 406.005C398.55 416.888 387.372 436.201 389.146 462.514Z" fill="#303517"/>
<path d="M508.282 469.477L502.113 467.761L486.243 482.561C486.383 484.643 486.316 486.051 486.243 488.092L508.282 469.477Z" fill="#303517"/>
<path d="M430.857 404.291C425.016 405.739 404.857 417.183 399.857 432.555C420.5 423.467 435 426.52 440.5 427.93C458.53 432.555 484 447.765 486 482.971L502.857 468.257C502.524 464.291 501.857 456.853 501.357 453.877C501.029 451.921 497.357 428.092 478.857 412.224C460.357 396.357 438.857 402.307 430.857 404.291Z" fill="url(#paint12_linear_1168_4502)"/>
<path d="M422.5 536.524C420.363 545.003 427.84 551.895 438.816 550.868C450.216 550.162 455.875 542.996 454.491 539.563C453.341 536.711 451.537 535.134 449.76 531.288C448.816 529.246 448.996 526.708 447.738 524.842C446.504 523.012 444.222 521.607 443.091 520.486C439.529 516.953 433.354 522.605 430.979 526.138C426.704 532.497 423.747 531.578 422.5 536.524Z" fill="url(#paint13_linear_1168_4502)"/>
<path d="M443.383 547.337C440.805 547.337 439.062 548.681 435.545 548.043C428.271 547.528 425.606 542.356 430.452 538.879C435.407 535.323 443.163 535.197 447.463 539.522C450.856 542.935 448.314 547.337 443.383 547.337Z" fill="#C9A583"/>
<path d="M435.08 542.389C434.202 552.396 435.764 558.172 437.93 567.827L447.904 567.12C444.015 559.759 442.708 554.847 442.917 543.802C439.759 540.712 438.03 540.336 435.08 542.389Z" fill="#BE8D6D"/>
<path d="M452 555.366C449.15 560.313 453.628 564.71 460.761 565.002C467.164 565.263 476.664 563.588 474.289 556.523C472.151 550.163 473.291 547.337 470.726 543.098C468.589 539.564 461.718 538.755 460.549 541.941C457.7 549.714 453.849 552.158 452 555.366Z" fill="url(#paint14_linear_1168_4502)"/>
<path d="M455.775 560.509C457.308 561.49 460.089 562.175 463.33 562.175C467.016 562.175 468.97 561.756 469.744 560.702C471.136 558.803 468.89 556.264 466.833 555.116C463.59 553.305 461.087 554.031 457.423 556.246C455.652 557.316 454.032 559.393 455.775 560.509Z" fill="#C9A583"/>
<path d="M459.056 558.644C459.274 565.633 458.127 567.629 454.781 569.243L459.056 575.602C463.618 573.43 465.344 570.117 466.181 558.644C462.771 556.024 460.922 554.802 459.056 558.644Z" fill="#B78B64"/>
<path d="M481.857 657.677C481.857 689.974 455.454 716.177 422.857 716.177C390.261 716.177 363.858 689.974 363.858 657.677C363.858 625.38 390.261 599.178 422.857 599.178C455.454 599.178 481.857 625.38 481.857 657.677Z" fill="url(#paint15_linear_1168_4502)" stroke="#303517" stroke-width="3"/>
<path d="M334.691 704.836L391.369 635.924C389.594 609.611 404.068 584.042 407.858 580.818L383.531 595.234C367.403 632.445 355.563 653.622 326.299 698.96L334.691 704.836Z" fill="#404720"/>
<path d="M418.897 598.317C452.206 596.107 481.015 621.096 483.243 654.13L499.113 639.33C498.712 563.129 418.629 555.105 396.95 604.007C403.543 600.951 411.199 598.827 418.897 598.317Z" fill="#404720"/>
<path d="M386.146 634.083L392.53 636.136C391.642 622.963 392.91 613.12 396.95 604.007C418.629 555.105 498.712 563.129 499.113 639.33L505.282 641.045C504.842 571.179 446.61 554.028 411.689 577.574C395.55 588.456 384.372 607.769 386.146 634.083Z" fill="#303517"/>
<path d="M505.282 641.045L499.113 639.33L483.243 654.13C483.383 656.212 483.316 657.619 483.243 659.66L505.282 641.045Z" fill="#303517"/>
<path d="M427.857 575.859C422.016 577.307 401.857 588.751 396.857 604.123C417.5 595.036 432 598.088 437.5 599.499C455.53 604.123 481 619.333 483 654.539L499.857 639.826C499.524 635.859 498.857 628.421 498.357 625.446C498.029 623.489 494.357 599.66 475.857 583.793C457.357 567.925 435.857 573.875 427.857 575.859Z" fill="url(#paint16_linear_1168_4502)"/>
<path d="M110.387 605.851C108.379 603.373 103.253 603.542 102.804 609.282C102.953 613.731 107.503 615.489 110.787 617.743C114.577 620.345 118.919 617.02 118.354 613.858C117.564 609.431 113.399 609.569 110.387 605.851Z" fill="#634928"/>
<path d="M112.843 583.503C109.554 581.067 105.794 583.736 106.585 588.163C106.719 590.079 107.156 591.011 109.917 591.87C112.952 592.814 114.424 592.357 116.367 592.929C122.199 594.645 126.556 590.684 125.168 587.549C122.476 583.82 116.473 586.191 112.843 583.503Z" fill="#634928"/>
<path d="M126.257 562.701C122.439 561.334 119.827 562.278 119.956 566.09C120.105 570.539 124.569 569.755 131.661 570.793C133.595 571.076 131.752 564.669 126.257 562.701Z" fill="#634928"/>
<path d="M108.187 635.825C104.542 636.4 99.8604 641.132 98.9077 646.044C97.1919 654.89 99.3251 666.655 103.445 666.519C118.931 669.188 119.166 638.007 108.187 635.825Z" fill="#634928"/>
<path d="M98.9077 646.044C99.8604 641.132 104.542 636.4 108.187 635.825C119.166 638.007 118.931 669.188 103.445 666.519C99.3251 666.655 97.1919 654.89 98.9077 646.044ZM98.9077 646.044C93.935 634.218 92.572 623.059 96.0583 615.867M102.804 609.282C99.6971 610.673 97.4765 612.942 96.0583 615.867M102.804 609.282C103.253 603.542 108.379 603.373 110.387 605.851C113.399 609.569 117.564 609.431 118.354 613.858C118.919 617.02 114.577 620.345 110.787 617.743C107.503 615.489 102.953 613.731 102.804 609.282ZM96.0583 615.867C96.5954 606.465 97.5289 600.326 99.39 596.035M106.585 588.163C103.276 590.022 100.99 592.346 99.39 596.035M106.585 588.163C105.794 583.736 109.554 581.067 112.843 583.503C116.473 586.191 122.476 583.82 125.168 587.549C126.556 590.684 122.199 594.645 116.367 592.929C114.424 592.357 112.952 592.814 109.917 591.87C107.156 591.011 106.719 590.079 106.585 588.163ZM99.39 596.035C100.552 579.454 103.97 572.124 119.956 566.09M119.956 566.09C119.827 562.278 122.439 561.334 126.257 562.701C131.752 564.669 133.595 571.076 131.661 570.793C124.569 569.755 120.105 570.539 119.956 566.09Z" stroke="#634928" stroke-width="1.28229"/>
<path d="M179.451 658.829C177.566 657.583 162.004 645.742 159.971 640.757C135.464 585.293 100.903 613.96 105.93 675.655L173 720.986L236.634 688.119L194.145 666.355L179.451 658.829Z" fill="url(#paint17_linear_1168_4502)"/>
<path d="M161.228 635.77C163.261 640.756 178.823 652.597 180.708 653.843L238.01 683.21L231.607 615.828L136.092 606.59C145.101 609.177 154.197 618.53 161.228 635.77Z" fill="#565E2E"/>
<path d="M161.228 635.77C163.261 640.756 178.823 652.597 180.708 653.843L238.01 683.21L243.546 693.103L245.432 683.21L161.228 609.021L136.092 606.59C145.101 609.177 154.197 618.53 161.228 635.77Z" fill="#404720"/>
<path d="M246 710.239C246 732.813 228.587 754.208 207.108 754.208C185.628 754.208 173 732.813 173 710.239C173 691.561 181.646 672.841 196.797 666.937L238.763 683.657C243.822 691.432 246 700.855 246 710.239Z" fill="url(#paint18_linear_1168_4502)" stroke="#30351B" stroke-width="3"/>
<path d="M180.708 653.843C178.823 652.597 163.261 640.756 161.228 635.77C154.197 618.53 145.101 609.178 136.092 606.59C116.119 600.853 96.5725 628.37 100.903 676.901L173.171 724.263C172.686 722.431 172.295 720.557 172 718.654L105.93 675.655C100.903 613.959 135.464 585.292 159.971 640.756C162.004 645.742 177.566 657.582 179.451 658.828L194.145 666.355L236.634 688.118L242.25 690.611C240.787 687.59 239.892 685.947 238.01 683.21L180.708 653.843Z" fill="#404720"/>
<path fill-rule="evenodd" clip-rule="evenodd" d="M273.872 698.037C258.933 693.995 253.368 697.393 247.585 711.895C242.456 720.928 226.427 722.199 235.403 740.639C238.808 747.633 245.661 750.176 256.561 747.633C254.639 733.894 255.972 728.806 262.972 724.743C261.69 738.095 259.767 740.639 261.69 750.176C271.948 751.448 271.307 741.274 275.795 734.28C276.441 737.076 276.479 739.727 275.795 746.997C287.336 748.905 286.695 745.09 298.235 748.905C292.465 733.009 296.312 722.199 290.542 715.841C286.658 720.715 284.57 721.414 280.924 720.928L288.618 711.895C286.054 707.575 280.283 699.772 273.872 698.037ZM273.872 703.124C263.613 703.124 257.9 708.784 259.125 715.205C260.097 720.292 265.537 710.754 273.872 703.124ZM276.436 717.113C278.868 720.991 277.078 726.65 268.743 724.107C266.659 723.471 271.948 714.569 276.436 717.113Z" fill="#707B50"/>
<path d="M221.939 762.257C214.887 760.986 220.657 753.355 223.221 758.442C229.483 758.089 231.284 750.812 231.556 747.633C231.829 744.454 227.709 741.91 217.451 743.818C204.808 742.624 202.341 754.324 205.272 761.547C205.638 762.449 205.87 763.412 205.842 764.385C205.582 773.638 208.475 779.075 208.475 784.512C211.681 782.604 214.245 774.974 216.81 771.159C219.399 767.307 221.939 767.344 221.939 762.257Z" fill="#707B50"/>
<path d="M235.403 666.881C223.395 659.103 215.528 663.066 209.757 684.048C216.169 680.87 221.878 673.094 226.427 674.51C233.47 676.703 225.786 683.412 214.886 688.499C213.758 689.025 212.642 689.798 211.402 690.908C208.74 693.293 207.284 696.748 207.134 700.319C206.987 703.83 207.153 707.411 207.834 710.754C221.298 694.222 230.755 691.679 237.968 684.049C238.823 683.144 239.59 682.273 240.27 681.434C247.238 672.843 245.093 667.757 235.403 666.881Z" fill="#707B50"/>
<path d="M217.451 743.818C217.598 724.177 226.151 717.053 239.891 710.754M217.451 743.818C204.808 742.624 202.341 754.324 205.272 761.547C205.638 762.449 205.87 763.412 205.842 764.385C205.582 773.638 208.475 779.075 208.475 784.512C211.681 782.604 214.245 774.974 216.81 771.159C219.399 767.307 221.939 767.344 221.939 762.257C214.887 760.986 220.657 753.355 223.221 758.442C229.483 758.089 231.284 750.812 231.556 747.633C231.829 744.454 227.709 741.91 217.451 743.818ZM239.891 710.754C243.366 710.128 245.752 710.736 247.585 711.895M239.891 710.754C246.16 705.159 245.687 689.84 240.27 681.434M239.891 680.87C240.02 681.054 240.146 681.242 240.27 681.434M247.585 711.895C253.368 697.393 258.933 693.995 273.872 698.037C280.283 699.772 286.054 707.575 288.618 711.895L280.924 720.928C284.57 721.414 286.658 720.715 290.542 715.841C296.312 722.199 292.465 733.009 298.235 748.905C286.695 745.09 287.336 748.905 275.795 746.997C276.479 739.727 276.441 737.076 275.795 734.28C271.307 741.275 271.948 751.448 261.69 750.176C259.767 740.639 261.69 738.095 262.972 724.743C255.972 728.806 254.639 733.894 256.561 747.633C245.661 750.176 238.808 747.633 235.403 740.639C226.427 722.199 242.456 720.928 247.585 711.895ZM240.27 681.434C239.59 682.273 238.823 683.144 237.968 684.049C230.755 691.679 221.298 694.222 207.834 710.754C207.153 707.411 206.987 703.83 207.134 700.319C207.284 696.748 208.74 693.293 211.402 690.908C212.642 689.798 213.758 689.025 214.886 688.499C225.786 683.412 233.47 676.703 226.427 674.51C221.878 673.094 216.169 680.87 209.757 684.048C215.528 663.066 223.395 659.103 235.403 666.881C245.093 667.757 247.238 672.843 240.27 681.434ZM273.872 703.124C263.613 703.124 257.9 708.784 259.125 715.205C260.097 720.292 265.537 710.754 273.872 703.124ZM276.436 717.113C278.868 720.991 277.078 726.65 268.743 724.107C266.659 723.471 271.948 714.569 276.436 717.113Z" stroke="#3B4129" stroke-width="2.56458"/>
<path d="M129.115 712.943L130.458 707.932C126.758 706.825 125.474 705.704 123.219 703.738L123.199 703.72C119.424 700.426 114.408 705.237 119.924 708.989C122.29 710.598 125.25 711.76 129.115 712.943Z" fill="url(#paint19_linear_1168_4502)"/>
<path d="M130.348 697.476L131.244 700.821C133.534 700.108 135.282 699.392 136.667 698.369C139.897 695.984 136.807 692.705 134.611 694.818L134.599 694.829C133.287 696.091 132.54 696.81 130.348 697.476Z" fill="url(#paint20_linear_1168_4502)"/>
<path d="M131.244 618.882L132.485 623.514C135.441 622.582 137.695 621.635 139.469 620.257C143.607 617.042 139.52 612.452 136.717 615.315L136.702 615.33C135.028 617.04 134.075 618.014 131.244 618.882Z" fill="url(#paint21_linear_1168_4502)"/>
<path d="M130.793 632.211L130.793 637.003C127.694 636.856 125.271 636.514 123.199 635.634C118.368 633.581 121.129 628.104 124.58 630.157L124.598 630.168C126.659 631.394 127.832 632.093 130.793 632.211Z" fill="url(#paint22_linear_1168_4502)"/>
<path d="M131.402 645.5L130.793 649.582C133.205 648.813 136.733 647.983 138.169 646.809C141.518 644.072 138.1 640.023 135.841 642.474L135.829 642.487C134.48 643.95 133.712 644.784 131.402 645.5Z" fill="url(#paint23_linear_1168_4502)"/>
<path d="M129.881 654.266L129.881 659.059C126.783 658.911 124.36 658.57 122.288 657.689C117.457 655.636 120.218 650.159 123.669 652.213L123.687 652.224C125.747 653.45 126.921 654.148 129.881 654.266Z" fill="url(#paint24_linear_1168_4502)"/>
<path d="M130.161 670.007L131.244 674.051C133.657 673.283 135.492 672.491 136.928 671.317C140.277 668.579 136.86 664.53 134.6 666.981L134.588 666.994C133.239 668.457 132.471 669.291 130.161 670.007Z" fill="url(#paint25_linear_1168_4502)"/>
<path d="M129.967 686.239L128.883 690.283C126.471 689.515 124.636 688.723 123.199 687.549C119.85 684.811 123.268 680.762 125.527 683.213L125.539 683.226C126.888 684.689 127.657 685.523 129.967 686.239Z" fill="url(#paint26_linear_1168_4502)"/>
<path d="M130.834 611.4L129.334 733.581" stroke="url(#paint27_linear_1168_4502)" stroke-width="3" stroke-linecap="round"/>
<path d="M168.13 554.804C161.311 556.478 166.563 565.118 164.592 568.251C165.657 567.739 166.623 567.182 167.495 566.595C177.189 560.072 175.349 549.791 168.13 554.804Z" fill="#766342"/>
<path d="M167.481 575.961C166.025 576.637 162.822 575.478 161.271 578.727C160.133 581.11 160.773 584.334 159.185 587.393C160.988 587.048 162.638 586.434 164.093 585.662C170.82 582.094 173.363 575.163 167.481 575.961Z" fill="#766342"/>
<path d="M151.208 591.28C145.599 589.991 145.551 596.889 144.308 599.685C151.624 597.499 158.48 589.89 151.208 591.28Z" fill="#766342"/>
<path d="M171.803 548.174C169.771 550.34 168.703 552.767 168.13 554.804M151.208 591.28C154.888 589.789 157.936 591.175 162.24 587.793C162.914 587.263 163.53 586.543 164.093 585.662M151.208 591.28C145.599 589.991 145.551 596.889 144.308 599.685C151.624 597.499 158.48 589.89 151.208 591.28ZM168.13 554.804C161.311 556.478 166.563 565.118 164.592 568.251C165.657 567.739 166.623 567.182 167.495 566.595M168.13 554.804C175.349 549.791 177.189 560.072 167.495 566.595M167.495 566.595C167.904 569.776 168.126 572.799 167.481 575.961M167.481 575.961C166.025 576.637 162.822 575.478 161.271 578.727C160.133 581.11 160.773 584.334 159.185 587.393C160.988 587.048 162.638 586.434 164.093 585.662M167.481 575.961C173.363 575.163 170.82 582.094 164.093 585.662" stroke="#766342" stroke-width="1.38776"/>
<path d="M192.275 489.696C190.39 488.45 174.828 476.609 172.795 471.624C148.288 416.16 113.726 444.827 118.754 506.522L182.261 549.522L249.458 518.986L206.969 497.223L192.275 489.696Z" fill="url(#paint28_linear_1168_4502)"/>
<path d="M174.051 466.637C176.085 471.623 191.647 483.464 193.531 484.71L250.833 514.077L244.431 446.695L148.916 437.457C157.925 440.045 167.02 449.397 174.051 466.637Z" fill="#565E2E"/>
<path d="M174.051 466.637C176.085 471.623 191.647 483.464 193.531 484.71L250.833 514.077L256.37 523.971L258.255 514.077L174.051 439.888L148.916 437.457C157.925 440.045 167.02 449.397 174.051 466.637Z" fill="#404720"/>
<path d="M259.272 541.247C259.272 563.963 240.703 585.493 217.798 585.493C194.893 585.493 181.427 563.963 181.427 541.247C181.427 522.451 190.646 503.614 206.803 497.672L251.555 514.498C256.95 522.322 259.272 531.804 259.272 541.247Z" fill="url(#paint29_linear_1168_4502)" stroke="#2F351B" stroke-width="3"/>
<path d="M193.531 484.71C191.646 483.464 176.084 471.623 174.051 466.638C167.02 449.397 157.924 440.045 148.916 437.457C128.942 431.721 109.396 459.237 113.726 507.768L181.5 554.872C181.016 553.039 180.625 550.174 180.33 548.271L118.753 506.522C113.726 444.826 148.287 416.159 172.794 471.623C174.828 476.609 190.389 488.45 192.274 489.696L206.968 497.222L249.457 518.985L255.073 521.478C253.61 518.457 256.956 516.452 255.073 513.715L193.531 484.71Z" fill="#404720"/>
<path d="M188.115 321.659C186.327 320.476 171.563 309.243 169.634 304.513C146.384 251.894 113.595 279.09 118.365 337.622L178.616 378.417L242.366 349.446L202.056 328.799L188.115 321.659Z" fill="url(#paint30_linear_1168_4502)"/>
<path d="M170.827 299.783C172.756 304.514 187.52 315.747 189.308 316.929L243.672 344.79L237.597 280.864L146.981 272.1C155.528 274.554 164.157 283.427 170.827 299.783Z" fill="#565E2E"/>
<path d="M170.827 299.783C172.756 304.514 187.52 315.747 189.308 316.929L243.672 344.79L248.925 354.177L250.713 344.79L170.827 274.406L146.981 272.1C155.528 274.554 164.157 283.427 170.827 299.783Z" fill="#404720"/>
<path d="M252 370.092C252 391.639 235.064 412.063 214.173 412.063C193.282 412.063 181 391.639 181 370.092C181 352.263 189.408 334.394 204.145 328.758L244.961 344.719C249.882 352.14 252 361.135 252 370.092Z" fill="url(#paint31_linear_1168_4502)" stroke="#303216" stroke-width="3"/>
<path d="M189.308 316.929C187.52 315.747 172.756 304.514 170.827 299.783C164.156 283.427 155.527 274.554 146.98 272.1C128.031 266.657 109.487 292.762 113.595 338.805L181 383.303C180.54 381.564 180.279 379.653 180 377.848L118.365 337.622C113.595 279.09 146.384 251.894 169.634 304.513C171.563 309.243 186.327 320.477 188.115 321.659L202.056 328.799L242.366 349.447L250 351.567C248.611 348.701 249.285 346.23 247.5 343.634L189.308 316.929Z" fill="#404720"/>
<path d="M114.4 340.693C117.606 441.792 163.127 419.538 161.203 289.826" stroke="url(#paint32_linear_1168_4502)" stroke-width="2.56458" stroke-linecap="round"/>
<path d="M159.899 339.422L162.311 349.468C162.831 351.635 162.765 353.901 162.189 356.053C155.986 379.247 156.454 399.323 165.028 415.723" stroke="url(#paint33_linear_1168_4502)" stroke-width="1.28229" stroke-linecap="round"/>
<path d="M160.562 317.803V314.624C162.628 314.636 163.301 315.078 163.768 316.532C165.692 327.977 161.204 327.977 160.562 317.803Z" fill="#5D672B"/>
<path d="M159.528 340.575L160.153 338.088C157.239 337.378 156.203 337.489 155.259 338.464C150.298 346.748 156.624 348.312 159.528 340.575Z" fill="#5D672B"/>
<path d="M152.131 374.439L152.459 373.132C151.147 372.813 150.674 372.889 150.227 373.413C147.824 377.817 150.673 378.521 152.131 374.439Z" fill="#5D672B"/>
<path d="M147.922 389.08L148.544 387.109C150.221 387.638 150.681 388.082 150.776 389.101C150.098 396.68 146.451 395.546 147.922 389.08Z" fill="#5D672B"/>
<path d="M128.272 403.068L127.65 401.098C125.974 401.627 125.513 402.071 125.418 403.089C126.097 410.668 129.744 409.535 128.272 403.068Z" fill="#5D672B"/>
<path d="M123.513 392.011L122.094 390.5C123.386 389.317 124.003 389.139 124.943 389.561C131.25 393.894 128.453 396.477 123.513 392.011Z" fill="#5D672B"/>
<path d="M141.994 399.726L143.832 398.756C142.999 397.219 142.474 396.852 141.447 396.947C134.061 399.004 135.856 402.351 141.994 399.726Z" fill="#5D672B"/>
<path d="M118.882 381.543L118.815 379.479C117.058 379.543 116.494 379.848 116.127 380.804C114.729 388.285 118.549 388.164 118.882 381.543Z" fill="#5D672B"/>
<path d="M116.143 364.516L115.682 362.678C117.961 362.123 118.768 362.196 119.493 362.909C123.273 369.004 118.324 370.224 116.143 364.516Z" fill="#5D672B"/>
<path d="M114.143 353.484L114.465 352.201C112.874 351.814 112.311 351.865 111.805 352.363C109.167 356.617 112.621 357.468 114.143 353.484Z" fill="#5D672B"/>
<path d="M169.634 304.513C146.384 251.894 113.595 279.09 118.365 337.622" stroke="#373E1D" stroke-width="2.38465"/>
<path d="M285.121 285.996C288.327 298.714 297.16 291.337 295.379 280.909C294.226 274.158 293.611 269.917 300.084 263.773C301.427 262.499 303.716 263.189 304.635 264.791C304.594 264.72 304.555 264.649 304.516 264.579C304.573 264.683 304.633 264.788 304.695 264.894L304.735 264.962C306.301 267.623 309.146 270.905 313.972 272.008C315.539 272.366 316.255 270.746 317.159 268.699C318.476 265.719 320.192 261.835 325.513 261.835C333.483 262.107 339.046 260.136 343.763 253.081L343.765 253.078C344.781 251.562 346.656 250.887 348.488 251.007C348.577 251.013 348.665 251.017 348.752 251.02C355.494 251.264 354.676 243.475 349.877 239.581C346.674 236.982 343.222 238.124 339.519 239.348C337.292 240.085 334.974 240.851 332.565 240.851C328.445 240.851 326.532 239.351 324.658 237.882C323.033 236.607 321.438 235.357 318.461 235.13C313.702 234.767 311.451 236.683 309.441 238.395C307.931 239.681 306.556 240.851 304.355 240.851C301.138 240.852 299.374 240.524 297.847 240.24C296.332 239.958 295.051 239.72 292.815 239.89C276.621 241.12 271.156 254.405 277.591 262.788C277.816 263.082 278.044 263.376 278.273 263.671L278.273 263.671C280.565 266.627 282.926 269.672 283.419 273.338L285.121 285.996ZM294.672 304.949C290.068 310.059 289.588 310.591 283.071 310.591C270.247 315.678 272.171 323.944 283.071 323.944C286.837 323.944 290.152 322.6 293.394 320.571C295.901 319.002 298.365 317.022 300.961 314.937L300.961 314.937L300.961 314.937C303.008 313.293 305.137 311.582 307.434 309.955C311.28 307.23 299.74 301.053 295.893 303.597C295.456 304.079 295.051 304.528 294.674 304.947L294.672 304.949ZM334.377 339.203C324.118 318.857 303.602 315.042 290.138 332.209C269.621 339.203 274.109 356.371 294.626 365.909V354.464C295.266 350.649 300.396 351.285 300.396 354.464V368.452C317.016 368.606 325.405 373.695 338.864 390.707L340.788 370.996C330.529 364.637 328.924 359.568 338.864 364.001L334.377 343.654C320.912 350.649 319.63 342.383 334.377 339.203ZM313.219 350.649C310.654 350.649 308.089 355.1 310.013 358.915C312.682 364.209 316.748 350.649 313.219 350.649ZM275.34 450.039C274.566 436.404 278.997 433.081 288.433 433.011C288.897 432.951 289.347 432.907 289.784 432.877C303.247 431.976 304.099 445.331 292.921 452.722C288.433 455.689 285.22 460.07 282.663 468.618C281.981 464.99 280.284 462.085 278.332 458.744L278.331 458.743L278.326 458.734L278.322 458.727L278.317 458.719C278.078 458.31 277.836 457.894 277.591 457.47C276.278 455.198 275.489 452.653 275.34 450.039ZM287.655 475.909C276.755 475.909 275.473 486.083 281.884 489.898C286.328 492.542 289.54 489.818 292.161 487.595C293.321 486.611 294.365 485.725 295.348 485.447C295.842 485.308 296.299 485.17 296.733 485.04C298.336 484.557 299.604 484.175 301.119 484.175C306.248 483.54 306.889 478.453 299.195 474.638C295.85 472.979 293.323 474.025 291.08 474.953C289.885 475.448 288.77 475.909 287.655 475.909Z" fill="#373634" fill-opacity="0.27"/>
<path d="M285.121 285.996C288.327 298.714 297.16 291.337 295.379 280.909C294.226 274.158 293.611 269.917 300.084 263.773C301.427 262.499 303.716 263.189 304.635 264.791C304.594 264.72 304.555 264.649 304.516 264.579C304.573 264.683 304.633 264.788 304.695 264.894L304.735 264.962C306.301 267.623 309.146 270.905 313.972 272.008C315.539 272.366 316.255 270.746 317.159 268.699C318.476 265.719 320.192 261.835 325.513 261.835C333.483 262.107 339.046 260.136 343.763 253.081L343.765 253.078C344.781 251.562 346.656 250.887 348.488 251.007C348.577 251.013 348.665 251.017 348.752 251.02C355.494 251.264 354.676 243.475 349.877 239.581C346.674 236.982 343.222 238.124 339.519 239.348C337.292 240.085 334.974 240.851 332.565 240.851C328.445 240.851 326.532 239.351 324.658 237.882C323.033 236.607 321.438 235.357 318.461 235.13C313.702 234.767 311.451 236.683 309.441 238.395C307.931 239.681 306.556 240.851 304.355 240.851C301.138 240.852 299.374 240.524 297.847 240.24C296.332 239.958 295.051 239.72 292.815 239.89C276.621 241.12 271.156 254.405 277.591 262.788C277.816 263.082 278.044 263.376 278.273 263.671L278.273 263.671C280.565 266.627 282.926 269.672 283.419 273.338L285.121 285.996ZM294.672 304.949C290.068 310.059 289.588 310.591 283.071 310.591C270.247 315.678 272.171 323.944 283.071 323.944C286.837 323.944 290.152 322.6 293.394 320.571C295.901 319.002 298.365 317.022 300.961 314.937L300.961 314.937L300.961 314.937C303.008 313.293 305.137 311.582 307.434 309.955C311.28 307.23 299.74 301.053 295.893 303.597C295.456 304.079 295.051 304.528 294.674 304.947L294.672 304.949ZM334.377 339.203C324.118 318.857 303.602 315.042 290.138 332.209C269.621 339.203 274.109 356.371 294.626 365.909V354.464C295.266 350.649 300.396 351.285 300.396 354.464V368.452C317.016 368.606 325.405 373.695 338.864 390.707L340.788 370.996C330.529 364.637 328.924 359.568 338.864 364.001L334.377 343.654C320.912 350.649 319.63 342.383 334.377 339.203ZM313.219 350.649C310.654 350.649 308.089 355.1 310.013 358.915C312.682 364.209 316.748 350.649 313.219 350.649ZM275.34 450.039C274.566 436.404 278.997 433.081 288.433 433.011C288.897 432.951 289.347 432.907 289.784 432.877C303.247 431.976 304.099 445.331 292.921 452.722C288.433 455.689 285.22 460.07 282.663 468.618C281.981 464.99 280.284 462.085 278.332 458.744L278.331 458.743L278.326 458.734L278.322 458.727L278.317 458.719C278.078 458.31 277.836 457.894 277.591 457.47C276.278 455.198 275.489 452.653 275.34 450.039ZM287.655 475.909C276.755 475.909 275.473 486.083 281.884 489.898C286.328 492.542 289.54 489.818 292.161 487.595C293.321 486.611 294.365 485.725 295.348 485.447C295.842 485.308 296.299 485.17 296.733 485.04C298.336 484.557 299.604 484.175 301.119 484.175C306.248 483.54 306.889 478.453 299.195 474.638C295.85 472.979 293.323 474.025 291.08 474.953C289.885 475.448 288.77 475.909 287.655 475.909Z" stroke="#808E55"/>
<path d="M287.415 280.923C290.621 293.64 299.454 286.264 297.673 275.836C296.52 269.085 295.905 264.844 302.378 258.7C303.721 257.426 306.01 258.116 306.929 259.717C306.888 259.646 306.849 259.576 306.81 259.506C306.867 259.609 306.927 259.714 306.989 259.82L307.029 259.889C308.595 262.55 311.44 265.832 316.266 266.935C320.113 267.814 318.831 256.762 327.807 256.762C335.777 257.034 341.34 255.063 346.057 248.008L346.059 248.005C347.075 246.489 348.95 245.814 350.782 245.934C350.871 245.939 350.959 245.944 351.045 245.947C357.788 246.191 356.97 238.402 352.171 234.507C347.041 230.345 341.271 235.778 334.859 235.778C327.166 235.778 327.166 230.546 320.754 230.056C312.42 229.421 311.778 235.778 306.649 235.778C300.238 235.778 299.597 234.476 295.109 234.817C278.937 236.045 273.465 249.296 279.859 257.682C282.353 260.952 285.175 264.261 285.723 268.337L287.415 280.923Z" fill="#AEBE7E"/>
<path d="M290.009 305.086C297.062 305.086 297.045 304.463 302.832 298.092C306.678 295.548 318.219 301.725 314.372 304.45C309.163 308.141 304.817 312.259 300.333 315.066C297.09 317.095 293.776 318.439 290.009 318.439C279.109 318.439 277.186 310.173 290.009 305.086Z" fill="#AEBE7E"/>
<path fill-rule="evenodd" clip-rule="evenodd" d="M297.076 326.704C310.54 309.537 331.057 313.352 341.315 333.698C326.569 336.878 327.851 345.144 341.315 338.149L345.803 358.496C335.863 354.063 337.468 359.132 347.726 365.49L345.803 385.202C332.344 368.19 323.955 363.101 307.334 362.947V348.959C307.334 345.779 302.205 345.144 301.564 348.959V360.404C281.047 350.866 276.559 333.698 297.076 326.704ZM320.157 345.144C317.593 345.144 315.028 349.594 316.951 353.41C319.621 358.704 323.687 345.144 320.157 345.144Z" fill="#AEBE7E"/>
<path d="M282.279 444.534C281.504 430.899 285.935 427.576 295.372 427.505C295.835 427.445 296.285 427.401 296.722 427.372C310.186 426.471 311.038 439.826 299.86 447.216C295.372 450.184 292.159 454.564 289.602 463.112C288.835 459.031 286.783 455.865 284.529 451.965C283.216 449.693 282.428 447.148 282.279 444.534Z" fill="#AEBE7E"/>
<path d="M288.823 484.393C282.412 480.577 283.694 470.404 294.593 470.404C297.799 470.404 301.005 466.589 306.134 469.132C313.828 472.948 313.187 478.034 308.057 478.67C306.134 478.67 304.607 479.286 302.287 479.942C299.081 480.848 295.234 488.208 288.823 484.393Z" fill="#AEBE7E"/>
<path d="M306.929 259.717C306.01 258.116 303.721 257.426 302.378 258.7C295.905 264.844 296.52 269.085 297.673 275.836C299.454 286.264 290.621 293.64 287.415 280.923L285.723 268.337C285.175 264.261 282.353 260.952 279.859 257.682C273.465 249.296 278.937 236.045 295.109 234.817C299.597 234.476 300.238 235.778 306.649 235.778C311.778 235.778 312.42 229.421 320.754 230.056C327.166 230.546 327.166 235.778 334.859 235.778C341.271 235.778 347.041 230.345 352.171 234.507C356.97 238.402 357.788 246.191 351.045 245.947C350.959 245.944 350.871 245.939 350.782 245.934C348.95 245.814 347.075 246.489 346.059 248.005L346.057 248.008C341.34 255.063 335.777 257.034 327.807 256.762C318.831 256.762 320.113 267.814 316.266 266.935C311.44 265.832 308.595 262.55 307.029 259.889M306.929 259.717C306.949 259.752 306.969 259.786 306.989 259.82M306.929 259.717C306.888 259.646 306.849 259.576 306.81 259.506C306.867 259.609 306.927 259.714 306.989 259.82M307.029 259.889C307.015 259.866 307.002 259.843 306.989 259.82M307.029 259.889L306.989 259.82M297.076 326.704C310.54 309.537 331.057 313.352 341.315 333.698C326.569 336.878 327.851 345.144 341.315 338.149L345.803 358.496C335.863 354.063 337.468 359.132 347.726 365.49L345.803 385.202C332.344 368.19 323.955 363.101 307.334 362.947V348.959C307.334 345.779 302.205 345.144 301.564 348.959V360.404C281.047 350.866 276.559 333.698 297.076 326.704ZM297.076 326.704C307.334 323.207 323.363 338.149 327.21 342.6M295.372 427.505C294.033 420.346 296.722 417.256 302.897 413.814C316.245 406.374 317.723 400.812 295.913 385.202C291.362 376.174 283.724 367.336 294.278 358.496M295.372 427.505C285.935 427.576 281.504 430.899 282.279 444.534C282.428 447.148 283.216 449.693 284.529 451.965C286.783 455.865 288.835 459.031 289.602 463.112C292.159 454.564 295.372 450.184 299.86 447.216C311.038 439.826 310.186 426.471 296.722 427.372M295.372 427.505C295.835 427.445 296.285 427.401 296.722 427.372M296.722 427.372C292.943 427.861 291.593 435.771 292.234 442.766M300.333 315.066C297.09 317.095 293.776 318.439 290.009 318.439C279.109 318.439 277.186 310.173 290.009 305.086C297.062 305.086 297.045 304.463 302.832 298.092C306.678 295.548 318.219 301.725 314.372 304.45C309.163 308.141 304.817 312.259 300.333 315.066ZM300.333 315.066C295.73 318.567 294.289 322.072 294.562 326.704M320.157 345.144C317.593 345.144 315.028 349.594 316.951 353.41C319.621 358.704 323.687 345.144 320.157 345.144ZM294.593 470.404C283.694 470.404 282.412 480.577 288.823 484.393C295.234 488.208 299.081 480.848 302.287 479.942C304.607 479.286 306.134 478.67 308.057 478.67C313.187 478.034 313.828 472.948 306.134 469.132C301.005 466.589 297.799 470.404 294.593 470.404Z" stroke="#808E55" stroke-width="2.56458"/>
<path d="M266.247 283.52C261.118 284.155 255.475 282.401 250.859 286.063C247.654 288.606 242.525 292.421 241.242 310.225C240.967 314.04 240.601 318.491 239.96 319.762C245.73 315.947 244.448 313.404 257.912 306.41C268.811 300.748 271.376 301.323 275.864 295.601C278.357 292.421 276.505 286.063 270.094 284.791C268.811 284.537 267.529 284.155 266.247 283.52Z" fill="#373634" fill-opacity="0.27"/>
<path d="M265.606 268.895C257.271 263.173 252.142 268.895 249.577 273.982C255.347 270.167 263.682 273.347 265.606 268.895Z" fill="#373634" fill-opacity="0.27"/>
<path d="M266.709 282.587L266.429 282.448L266.119 282.487C264.911 282.636 263.657 282.647 262.342 282.63C262.056 282.626 261.766 282.62 261.474 282.615C260.441 282.596 259.373 282.577 258.322 282.616C255.594 282.719 252.77 283.219 250.213 285.248C250.165 285.286 250.116 285.324 250.067 285.363C248.457 286.638 246.301 288.346 244.409 291.936C242.476 295.604 240.851 301.163 240.204 310.15C240.067 312.058 239.908 314.103 239.705 315.826C239.603 316.687 239.492 317.453 239.371 318.072C239.244 318.718 239.122 319.113 239.031 319.294L237.268 322.79L240.534 320.631C242.701 319.198 243.971 317.883 245.256 316.554C245.742 316.051 246.23 315.546 246.769 315.032C248.765 313.129 251.723 310.798 258.392 307.333C261.094 305.93 263.28 304.912 265.112 304.086C265.589 303.871 266.045 303.667 266.482 303.472C267.713 302.922 268.793 302.44 269.757 301.959C272.452 300.615 274.339 299.232 276.683 296.243C279.756 292.324 277.303 285.16 270.296 283.77C269.08 283.529 267.89 283.173 266.709 282.587ZM266.561 269.308L266.901 268.522L266.195 268.037C261.777 265.004 258.003 264.901 254.954 266.458C252.015 267.96 249.965 270.9 248.648 273.514L246.885 277.01L250.151 274.85C252.627 273.213 255.645 272.982 258.618 272.753C258.784 272.741 258.95 272.728 259.115 272.715C260.62 272.597 262.151 272.453 263.436 272.017C264.766 271.566 265.93 270.768 266.561 269.308Z" stroke="#373634" stroke-opacity="0.27" stroke-width="2.08164" stroke-linecap="round"/>
<path d="M267.635 280.768C262.505 281.403 256.863 279.649 252.247 283.311C249.041 285.854 243.912 289.669 242.63 307.473C242.355 311.288 241.989 315.739 241.348 317.01C247.118 313.195 245.836 310.652 259.3 303.658C270.199 297.996 272.764 298.571 277.252 292.849C279.745 289.669 277.893 283.311 271.481 282.039C270.199 281.785 268.917 281.403 267.635 280.768Z" fill="#5D672B"/>
<path d="M266.993 266.143C258.659 260.421 253.529 266.143 250.965 271.23C256.735 267.415 265.07 270.595 266.993 266.143Z" fill="#5D672B"/>
<path d="M286.5 277.188C284.051 276.838 282.944 276.366 281.099 276.243M267.635 280.768C262.505 281.403 256.863 279.649 252.247 283.311C249.041 285.854 243.912 289.669 242.63 307.473C242.355 311.288 241.989 315.739 241.348 317.01C247.118 313.195 245.836 310.652 259.3 303.658C270.199 297.996 272.764 298.571 277.252 292.849C279.745 289.669 277.893 283.311 271.481 282.039C270.199 281.785 268.917 281.403 267.635 280.768ZM267.635 280.768C259.3 283.311 256.353 286.716 254.812 293.484M267.635 280.768C270.383 277.223 273.355 275.729 281.099 276.243M281.099 276.243C275.208 268.044 272.178 266.441 266.993 266.143M266.993 266.143C258.659 260.421 253.529 266.143 250.965 271.23C256.735 267.415 265.07 270.595 266.993 266.143Z" stroke="#707B50" stroke-width="2.56458" stroke-linecap="round"/>
<defs>
<linearGradient id="paint0_linear_1168_4502" x1="430.5" y1="263.303" x2="430.5" y2="383.302" gradientUnits="userSpaceOnUse">
<stop stop-color="#503323"/>
<stop offset="1" stop-color="#D35959"/>
</linearGradient>
<linearGradient id="paint1_linear_1168_4502" x1="489.5" y1="229.089" x2="447.035" y2="303.773" gradientUnits="userSpaceOnUse">
<stop stop-color="#404720"/>
<stop offset="1" stop-color="#854339"/>
</linearGradient>
<linearGradient id="paint2_linear_1168_4502" x1="483.218" y1="333.248" x2="507.525" y2="314.835" gradientUnits="userSpaceOnUse">
<stop stop-color="#BC6058"/>
<stop offset="1" stop-color="#51583A"/>
</linearGradient>
<linearGradient id="paint3_linear_1168_4502" x1="483.218" y1="333.248" x2="507.525" y2="314.835" gradientUnits="userSpaceOnUse">
<stop stop-color="#BC6058"/>
<stop offset="1" stop-color="#51583A"/>
</linearGradient>
<linearGradient id="paint4_linear_1168_4502" x1="483.218" y1="333.248" x2="507.525" y2="314.835" gradientUnits="userSpaceOnUse">
<stop stop-color="#BC6058"/>
<stop offset="1" stop-color="#51583A"/>
</linearGradient>
<linearGradient id="paint5_linear_1168_4502" x1="483.218" y1="333.248" x2="507.525" y2="314.835" gradientUnits="userSpaceOnUse">
<stop stop-color="#BC6058"/>
<stop offset="1" stop-color="#51583A"/>
</linearGradient>
<linearGradient id="paint6_linear_1168_4502" x1="483.218" y1="333.248" x2="507.525" y2="314.835" gradientUnits="userSpaceOnUse">
<stop stop-color="#BC6058"/>
<stop offset="1" stop-color="#51583A"/>
</linearGradient>
<linearGradient id="paint7_linear_1168_4502" x1="483.218" y1="333.248" x2="507.525" y2="314.835" gradientUnits="userSpaceOnUse">
<stop stop-color="#BC6058"/>
<stop offset="1" stop-color="#51583A"/>
</linearGradient>
<linearGradient id="paint8_linear_1168_4502" x1="483.218" y1="333.248" x2="507.525" y2="314.835" gradientUnits="userSpaceOnUse">
<stop stop-color="#BC6058"/>
<stop offset="1" stop-color="#51583A"/>
</linearGradient>
<linearGradient id="paint9_linear_1168_4502" x1="483.218" y1="333.248" x2="507.525" y2="314.835" gradientUnits="userSpaceOnUse">
<stop stop-color="#BC6058"/>
<stop offset="1" stop-color="#51583A"/>
</linearGradient>
<linearGradient id="paint10_linear_1168_4502" x1="487" y1="307.929" x2="471.502" y2="309.442" gradientUnits="userSpaceOnUse">
<stop offset="0.243325" stop-color="#51593B"/>
<stop offset="0.879153" stop-color="#B1635C"/>
</linearGradient>
<linearGradient id="paint11_linear_1168_4502" x1="425.857" y1="426.108" x2="425.857" y2="546.107" gradientUnits="userSpaceOnUse">
<stop stop-color="#A47540"/>
<stop offset="1" stop-color="#FFC379"/>
</linearGradient>
<linearGradient id="paint12_linear_1168_4502" x1="484.857" y1="391.894" x2="442.393" y2="466.578" gradientUnits="userSpaceOnUse">
<stop stop-color="#404720"/>
<stop offset="1" stop-color="#B38248"/>
</linearGradient>
<linearGradient id="paint13_linear_1168_4502" x1="438.415" y1="519.367" x2="438.415" y2="550.969" gradientUnits="userSpaceOnUse">
<stop stop-color="#BB8D56"/>
<stop offset="1" stop-color="#835A3C"/>
</linearGradient>
<linearGradient id="paint14_linear_1168_4502" x1="455.5" y1="545.449" x2="474.688" y2="565.69" gradientUnits="userSpaceOnUse">
<stop stop-color="#A97D4E"/>
<stop offset="1" stop-color="#825B3E"/>
</linearGradient>
<linearGradient id="paint15_linear_1168_4502" x1="422.857" y1="597.678" x2="422.857" y2="717.677" gradientUnits="userSpaceOnUse">
<stop stop-color="#395741"/>
<stop offset="1" stop-color="#65B079"/>
</linearGradient>
<linearGradient id="paint16_linear_1168_4502" x1="481.857" y1="563.462" x2="439.393" y2="638.146" gradientUnits="userSpaceOnUse">
<stop stop-color="#404720"/>
<stop offset="1" stop-color="#5C9F6E"/>
</linearGradient>
<linearGradient id="paint17_linear_1168_4502" x1="130" y1="621.813" x2="221.639" y2="726.205" gradientUnits="userSpaceOnUse">
<stop stop-color="#2F351B"/>
<stop offset="1" stop-color="#4E7458"/>
</linearGradient>
<linearGradient id="paint18_linear_1168_4502" x1="209.5" y1="666.937" x2="209.5" y2="754.208" gradientUnits="userSpaceOnUse">
<stop stop-color="#2F4935"/>
<stop offset="1" stop-color="#578162"/>
</linearGradient>
<linearGradient id="paint19_linear_1168_4502" x1="119.156" y1="662.764" x2="144.682" y2="655.616" gradientUnits="userSpaceOnUse">
<stop stop-color="#589569"/>
<stop offset="0.600327" stop-color="#576A37"/>
</linearGradient>
<linearGradient id="paint20_linear_1168_4502" x1="119.156" y1="662.764" x2="144.682" y2="655.616" gradientUnits="userSpaceOnUse">
<stop stop-color="#589569"/>
<stop offset="0.600327" stop-color="#576A37"/>
</linearGradient>
<linearGradient id="paint21_linear_1168_4502" x1="119.156" y1="662.764" x2="144.682" y2="655.616" gradientUnits="userSpaceOnUse">
<stop stop-color="#589569"/>
<stop offset="0.600327" stop-color="#576A37"/>
</linearGradient>
<linearGradient id="paint22_linear_1168_4502" x1="119.156" y1="662.764" x2="144.682" y2="655.616" gradientUnits="userSpaceOnUse">
<stop stop-color="#589569"/>
<stop offset="0.600327" stop-color="#576A37"/>
</linearGradient>
<linearGradient id="paint23_linear_1168_4502" x1="119.156" y1="662.764" x2="144.682" y2="655.616" gradientUnits="userSpaceOnUse">
<stop stop-color="#589569"/>
<stop offset="0.600327" stop-color="#576A37"/>
</linearGradient>
<linearGradient id="paint24_linear_1168_4502" x1="119.156" y1="662.764" x2="144.682" y2="655.616" gradientUnits="userSpaceOnUse">
<stop stop-color="#589569"/>
<stop offset="0.600327" stop-color="#576A37"/>
</linearGradient>
<linearGradient id="paint25_linear_1168_4502" x1="119.156" y1="662.764" x2="144.682" y2="655.616" gradientUnits="userSpaceOnUse">
<stop stop-color="#589569"/>
<stop offset="0.600327" stop-color="#576A37"/>
</linearGradient>
<linearGradient id="paint26_linear_1168_4502" x1="119.156" y1="662.764" x2="144.682" y2="655.616" gradientUnits="userSpaceOnUse">
<stop stop-color="#589569"/>
<stop offset="0.600327" stop-color="#576A37"/>
</linearGradient>
<linearGradient id="paint27_linear_1168_4502" x1="140.334" y1="672.887" x2="124.836" y2="674.4" gradientUnits="userSpaceOnUse">
<stop offset="0.243325" stop-color="#51593B"/>
<stop offset="0.879153" stop-color="#78B587"/>
</linearGradient>
<linearGradient id="paint28_linear_1168_4502" x1="141.5" y1="473.55" x2="225.419" y2="544.65" gradientUnits="userSpaceOnUse">
<stop stop-color="#2F351B"/>
<stop offset="1" stop-color="#9B7A4F"/>
</linearGradient>
<linearGradient id="paint29_linear_1168_4502" x1="220.349" y1="497.672" x2="220.349" y2="585.493" gradientUnits="userSpaceOnUse">
<stop stop-color="#6E522D"/>
<stop offset="1" stop-color="#B28951"/>
</linearGradient>
<linearGradient id="paint30_linear_1168_4502" x1="144" y1="303.469" x2="204.101" y2="352.552" gradientUnits="userSpaceOnUse">
<stop stop-color="#2C3115"/>
<stop offset="1" stop-color="#693423"/>
</linearGradient>
<linearGradient id="paint31_linear_1168_4502" x1="216.5" y1="338.179" x2="216.5" y2="422.476" gradientUnits="userSpaceOnUse">
<stop stop-color="#4D3122"/>
<stop offset="1" stop-color="#A0623F"/>
</linearGradient>
<linearGradient id="paint32_linear_1168_4502" x1="137.831" y1="289.826" x2="137.831" y2="403.978" gradientUnits="userSpaceOnUse">
<stop stop-color="#5D672B"/>
<stop offset="1" stop-color="#C58383"/>
</linearGradient>
<linearGradient id="paint33_linear_1168_4502" x1="161.513" y1="339.422" x2="161.513" y2="415.723" gradientUnits="userSpaceOnUse">
<stop stop-color="#5D672B"/>
<stop offset="1" stop-color="#C58383"/>
</linearGradient>
</defs>
</svg>
