<svg width="260" height="491" viewBox="0 0 260 491" fill="none" xmlns="http://www.w3.org/2000/svg">
<path d="M168.861 490.045L166.904 205.177L159.072 203.219V490.045H168.861Z" fill="#6198B3"/>
<path d="M155.156 202.24L153.199 490.045H159.072V203.219L155.156 202.24Z" fill="#ECEBD5"/>
<path d="M153.782 200.451L153.199 196.366L166.904 197.345V204.198C166.904 205.279 166.027 206.155 164.946 206.155H160.699C159.635 206.155 158.59 205.866 157.677 205.318L156.575 204.657C155.058 203.747 154.032 202.202 153.782 200.451Z" fill="url(#paint0_linear_334_4360)"/>
<path d="M16.826 166.042L167.474 199.42L171.143 193.973L168.987 187.771L17.0781 164.1L16.826 166.042Z" fill="url(#paint1_linear_334_4360)"/>
<path d="M256.552 30.3374L255.833 28.2698L253.765 28.9885L249.329 37.2969C197.651 135.71 170.906 186.959 171.143 193.973C182.199 192.448 180.612 186.36 194.608 163.457L256.552 30.3374Z" fill="#578EA4"/>
<path d="M168.987 187.771L171.143 193.973C170.906 186.959 197.651 135.71 249.329 37.2969L169.334 187.12L168.987 187.771Z" fill="#E3ECDE"/>
<path d="M171.143 193.973L179.88 195.108L194.608 163.457C180.612 186.36 182.199 192.448 171.143 193.973Z" fill="#E3ECDE"/>
<path fill-rule="evenodd" clip-rule="evenodd" d="M180.958 198.209C173.734 202.582 171.69 205.339 172.514 210.933L219.245 317.689L221.061 318.912L222.284 317.096L180.958 198.209Z" fill="#548DA7"/>
<path d="M179.88 195.108L171.143 193.973L167.474 199.42L172.514 210.933C171.69 205.339 173.734 202.582 180.958 198.209L179.88 195.108Z" fill="#38799E"/>
<path d="M17.0781 164.1L168.987 187.771L169.334 187.12L17.0781 164.1Z" fill="#ECEBD5"/>
<defs>
<linearGradient id="paint0_linear_334_4360" x1="162.988" y1="195.387" x2="160.051" y2="206.155" gradientUnits="userSpaceOnUse">
<stop stop-color="#68A5C3"/>
<stop offset="1" stop-color="#25607C"/>
</linearGradient>
<linearGradient id="paint1_linear_334_4360" x1="14.5574" y1="183.516" x2="181.266" y2="184.429" gradientUnits="userSpaceOnUse">
<stop stop-color="#47879F"/>
<stop offset="1" stop-color="#558DA7"/>
</linearGradient>
</defs>
</svg>
