<svg width="1512" height="492" viewBox="0 0 1512 492" fill="none" xmlns="http://www.w3.org/2000/svg">
<ellipse cx="504.558" cy="232.758" rx="21.9753" ry="33.5795" transform="rotate(-45.5153 504.558 232.758)" fill="#FBEBD3"/>
<ellipse cx="455.313" cy="211.13" rx="12.0864" ry="10.9877" fill="#FBEBD3"/>
<ellipse cx="491.213" cy="209.242" rx="6.59259" ry="12.0864" transform="rotate(-40.0623 491.213 209.242)" fill="#FBEBD3"/>
<path d="M489.375 202.34C490.331 208.333 484.132 216.704 475.143 218.137C466.154 219.57 457.368 210.531 456.413 204.538C455.457 198.545 463.733 204.379 472.722 202.946C481.711 201.513 488.42 196.348 489.375 202.34Z" fill="#FBEBD3"/>
<path d="M1114.57 226.513C1144.24 230.908 1158.52 208.933 1198.08 236.402L1228.84 259.476C1195.36 278.635 1175.99 287.441 1135.45 283.649L1114.57 226.513Z" fill="#FBEBD3"/>
<path d="M751.98 263.871C774.3 254.026 785.175 257.168 802.523 273.76C783.394 276.911 772.385 275.429 751.98 263.871Z" fill="#FBEBD3"/>
<path d="M643.202 255.081C655.418 230.639 664.412 229.32 683.857 246.291C689.316 246.237 690.469 246.915 691.548 248.489C695.715 241.872 698.696 240.256 704.733 239.699L702.536 250.686L643.202 255.081Z" fill="#FBEBD3"/>
<path d="M453.116 221.019C470.399 252.507 487.177 266.069 514.647 267.168C521.175 265.345 524.785 266.953 531.128 274.859C537.969 271.302 543.765 271.698 556.4 266.287C564.491 264.099 569.613 263.533 573.98 263.871C579.958 267.374 587.908 266.803 590.461 268.266C611.338 273.76 612.477 265.395 633.313 273.76C617.894 241.315 607.794 236.227 587.165 250.686C581.526 242.689 578.145 241.621 571.782 246.291C548.788 219.45 543.347 225.086 538.819 244.094C534.408 241.975 532.091 241.392 528.931 244.094C485.32 211.471 469.35 207.464 453.116 221.019Z" fill="#FBEBD3"/>
<ellipse cx="372.906" cy="210.031" rx="6.59259" ry="9.88889" fill="#FBEBD3"/>
<ellipse cx="400.376" cy="210.031" rx="5.49383" ry="7.69136" transform="rotate(-15.9245 400.376 210.031)" fill="#FBEBD3"/>
<ellipse cx="387.191" cy="208.932" rx="12.0864" ry="4.39506" fill="#FBEBD3"/>
<ellipse cx="429.113" cy="207.512" rx="4.39506" ry="14.284" transform="rotate(-37.998 429.113 207.512)" fill="#FBEBD3"/>
<ellipse cx="441.03" cy="207.833" rx="8.79012" ry="3.2963" fill="#FBEBD3"/>
<path d="M440.703 206.499C439.99 208.174 433.805 207.068 429.339 205.166C424.872 203.264 421.83 200.364 422.543 198.689C423.257 197.014 426.164 200.231 430.63 202.133C435.097 204.036 437.703 203.999 440.703 206.499Z" fill="#FBEBD3"/>
<path d="M420.743 197.305C422.397 198.068 422.976 200.334 422.038 202.368C421.1 204.402 418.999 205.433 417.346 204.67C415.693 203.907 418.106 203.021 419.045 200.987C419.983 198.954 419.09 196.542 420.743 197.305Z" fill="#FBEBD3"/>
<path d="M417.703 203.999C418.512 205.63 416.667 208.484 414.661 209.48C412.655 210.476 410.372 209.961 409.563 208.33C408.753 206.7 410.703 206.999 413.195 206.527C415.396 206.111 416.894 202.368 417.703 203.999Z" fill="#FBEBD3"/>
<path d="M388.175 207.776C387.462 209.451 383.263 209.267 378.796 207.364C374.33 205.462 371.288 202.562 372.001 200.887C372.714 199.212 375.622 202.429 380.088 204.332C384.554 206.234 388.888 206.101 388.175 207.776Z" fill="#FBEBD3"/>
<path d="M390.804 206.299C391.517 207.974 393.785 208.612 395.87 207.724C397.954 206.836 399.991 205.113 399.277 203.438C398.564 201.763 396.662 203.804 394.578 204.692C392.494 205.579 390.091 204.624 390.804 206.299Z" fill="#FBEBD3"/>
<ellipse cx="420.474" cy="209.709" rx="6.59259" ry="9.88889" transform="rotate(25.5197 420.474 209.709)" fill="#FBEBD3"/>
<ellipse cx="437.734" cy="217.723" rx="16.4815" ry="8.79012" fill="#FBEBD3"/>
<path d="M471.796 239.698C469.937 245.475 463.514 234.856 453.117 231.51C442.719 228.164 433.747 225.168 435.606 219.392C437.465 213.615 447.402 211.645 457.799 214.992C468.197 218.338 473.655 233.922 471.796 239.698Z" fill="#FBEBD3"/>
<ellipse cx="409.165" cy="211.13" rx="7.69136" ry="4.39506" fill="#FBEBD3"/>
<path d="M360.82 208.933C363.092 204.367 364.976 204.253 369.61 208.933L425.647 210.031L534.425 257.278L552.005 300.13L321.264 266.068L317.968 226.513C320.054 223.123 321.652 221.524 327.857 221.019C327.788 216.439 328.852 213.801 333.351 208.933C342.477 198.081 348.052 195.095 360.82 208.933Z" fill="#FBEBD3"/>
<ellipse cx="897.38" cy="222.248" rx="12.6504" ry="17.7105" fill="#FBEBD3"/>
<ellipse cx="923.945" cy="247.55" rx="8.85526" ry="15.1804" transform="rotate(-27.4495 923.945 247.55)" fill="#FBEBD3"/>
<ellipse cx="913.284" cy="227.978" rx="7.59022" ry="13.9154" transform="rotate(-28.9318 913.284 227.978)" fill="#FBEBD3"/>
<ellipse cx="884.729" cy="224.778" rx="15.1804" ry="10.1203" fill="#FBEBD3"/>
<ellipse cx="902.44" cy="246.284" rx="17.7105" ry="18.9756" fill="#FBEBD3"/>
<ellipse cx="984.667" cy="246.284" rx="16.4455" ry="6.32519" fill="#FBEBD3"/>
<ellipse cx="967.037" cy="256.916" rx="7.59022" ry="15.1804" transform="rotate(28.988 967.037 256.916)" fill="#FBEBD3"/>
<ellipse cx="951.775" cy="267.79" rx="18.9756" ry="12.6504" fill="#FBEBD3"/>
<ellipse cx="980.333" cy="255.77" rx="18.6254" ry="8.5908" transform="rotate(-34.6821 980.333 255.77)" fill="#FBEBD3"/>
<path d="M890.779 233.166C895.499 240.594 895.023 249.348 889.716 252.721C884.409 256.093 883.754 248.057 879.034 240.63C874.314 233.203 867.317 229.197 872.624 225.825C877.931 222.452 886.059 225.739 890.779 233.166Z" fill="#FBEBD3"/>
<path d="M922.872 261.111C921.369 255.694 924.74 250.03 930.401 248.459C936.063 246.888 933.898 252.218 935.4 257.635C936.903 263.052 941.505 266.505 935.844 268.075C930.182 269.646 924.374 266.528 922.872 261.111Z" fill="#FBEBD3"/>
<path d="M941.928 269.888C934.895 270.62 928.701 266.476 928.093 260.632C927.484 254.789 933.549 257.688 940.582 256.956C947.615 256.224 953.698 253.09 954.306 258.934C954.914 264.778 948.961 269.156 941.928 269.888Z" fill="#FBEBD3"/>
<path d="M890.779 233.166C895.499 240.594 895.023 249.348 889.716 252.721C884.409 256.093 883.754 248.057 879.034 240.63C874.314 233.203 867.317 229.197 872.624 225.825C877.931 222.452 886.059 225.739 890.779 233.166Z" fill="#FBEBD3"/>
<ellipse cx="918.884" cy="256.404" rx="6.32519" ry="3.79511" fill="#FBEBD3"/>
<path d="M935.33 271.585C916.355 269.055 908.029 275.38 902.44 275.38C896.85 275.38 892.319 271.981 892.319 267.79C892.319 263.598 885.465 252.609 891.054 252.609C899.74 247.364 938.406 262.246 935.33 271.585Z" fill="#FBEBD3"/>
<path d="M953.041 277.91C952.064 282.488 937.446 277.95 927.545 275.837C917.643 273.724 905.257 274.898 906.234 270.32C907.211 265.742 920.332 264.443 930.234 266.556C940.135 268.668 954.018 273.332 953.041 277.91Z" fill="#FBEBD3"/>
<path d="M983.633 261.643C985.363 263.838 979.968 266.143 974.481 270.468C968.995 274.793 961.096 280.104 959.366 277.91C957.636 275.715 965.079 269.825 970.566 265.5C976.053 261.175 981.903 259.448 983.633 261.643Z" fill="#FBEBD3"/>
<ellipse cx="870.911" cy="231.176" rx="5.49383" ry="9.88889" transform="rotate(34.7857 870.911 231.176)" fill="#FBEBD3"/>
<path d="M1418.77 25.1038C1418.77 39.061 1366.06 66.0933 1344.21 66.0933C1322.37 66.0933 1304.66 54.7788 1304.66 40.8217C1304.66 26.8645 1319.79 15.5834 1338.04 8.25548C1389.43 -12.3774 1418.77 11.1467 1418.77 25.1038Z" fill="#FBEBD3"/>
<ellipse cx="1285.09" cy="108.818" rx="37.358" ry="23.0741" transform="rotate(-14.5833 1285.09 108.818)" fill="#FBEBD3"/>
<ellipse cx="1344.21" cy="97.9576" rx="24.1728" ry="20.8765" fill="#FBEBD3"/>
<path d="M1362.89 75.982C1362.89 85.0845 1368.44 95.7598 1356.3 95.7598C1344.16 95.7598 1342.02 83.9857 1342.02 74.8832C1342.02 65.7808 1352.96 55.1055 1365.09 55.1055C1377.23 55.1055 1362.89 66.8795 1362.89 75.982Z" fill="#FBEBD3"/>
<path d="M1350.81 54.0064C1350.81 65.5362 1341.46 74.883 1329.93 74.883C1318.4 74.883 1310.15 68.8325 1310.15 57.3027C1310.15 45.7729 1294.77 33.1299 1329.93 33.1299C1341.46 33.1299 1350.81 42.4766 1350.81 54.0064Z" fill="#FBEBD3"/>
<ellipse cx="1318.63" cy="82.2975" rx="31.6734" ry="15.3827" transform="rotate(-28.7536 1318.63 82.2975)" fill="#FBEBD3"/>
<path d="M1315.03 71.9798C1312.45 78.1336 1307.18 81.7879 1303.26 80.142C1299.34 78.4962 1305.36 75.1535 1307.94 68.9998C1310.53 62.8461 1308.71 56.2116 1312.63 57.8574C1316.54 59.5033 1317.62 65.8261 1315.03 71.9798Z" fill="#FBEBD3"/>
<path d="M1297.63 87.1196C1291.61 90.0043 1283.42 92.9982 1281.59 89.1677C1279.75 85.3371 1288.29 83.0684 1294.31 80.1836C1300.33 77.2989 1303.37 71.1297 1305.21 74.9603C1307.04 78.7908 1303.65 84.2348 1297.63 87.1196Z" fill="#FBEBD3"/>
<path d="M1351.91 114.44C1353.05 122 1333.46 118.579 1321.74 120.352C1310.02 122.125 1301.29 128.634 1300.14 121.073C1299 113.513 1307.57 105.947 1319.29 104.174C1331.01 102.401 1350.76 106.879 1351.91 114.44Z" fill="#FBEBD3"/>
<ellipse cx="1229.67" cy="176.296" rx="28.5679" ry="21.9753" transform="rotate(62.4949 1229.67 176.296)" fill="#FBEBD3"/>
<path d="M1263.99 116.314C1275.05 127.571 1273.83 146.693 1261.27 159.023C1248.72 171.353 1229.57 172.222 1218.52 160.965C1207.47 149.707 1224.85 147.05 1237.41 134.72C1249.96 122.39 1252.94 105.056 1263.99 116.314Z" fill="#FBEBD3"/>
<path d="M1213.18 255.335C1209.09 245.037 1215.21 232.935 1226.86 228.305C1238.51 223.675 1251.28 228.269 1255.37 238.567C1259.46 248.865 1247.35 245.907 1235.7 250.537C1224.05 255.168 1217.27 265.633 1213.18 255.335Z" fill="#FBEBD3"/>
<path d="M1226.97 188.192C1237.61 191.279 1243.41 203.543 1239.91 215.583C1236.42 227.623 1224.96 234.88 1214.32 231.793C1203.68 228.705 1213.44 220.957 1216.94 208.917C1220.43 196.877 1216.32 185.105 1226.97 188.192Z" fill="#FBEBD3"/>
<path d="M1248.62 182.562C1237.57 171.304 1248.85 138.802 1264.05 123.879C1279.25 108.956 1307.89 97.6871 1318.94 108.945C1330 120.202 1303.11 133.259 1287.92 148.182C1272.72 163.105 1259.68 193.819 1248.62 182.562Z" fill="#FBEBD3"/>
<path d="M1261.33 175.803C1258.44 190.61 1247.39 202.287 1242.03 201.241C1236.67 200.195 1239.03 186.821 1241.92 172.014C1244.81 157.207 1251.5 146.052 1256.86 147.099C1262.22 148.145 1264.22 160.997 1261.33 175.803Z" fill="#FBEBD3"/>
<ellipse cx="1216.37" cy="230.925" rx="25.2716" ry="13.5359" transform="rotate(-38.8164 1216.37 230.925)" fill="#FBEBD3"/>
<ellipse cx="1247.94" cy="236.669" rx="10.2251" ry="8.79012" transform="rotate(46.8054 1247.94 236.669)" fill="#FBEBD3"/>
<ellipse cx="1241.7" cy="215.538" rx="22.5" ry="26.5" fill="#FBEBD3"/>
<ellipse cx="1254.29" cy="191.974" rx="6.59259" ry="18.4756" transform="rotate(15.0534 1254.29 191.974)" fill="#FBEBD3"/>
<rect x="0.202759" y="330" width="1512" height="162" fill="#F2DAC4"/>
<path d="M36.6836 188.056C36.6836 168.031 23.8694 152.038 0.203003 152.038V243.038L94.9182 224.315L91.6219 195.747C91.1691 187.983 79.703 185.785 74.0416 188.056C67.4959 190.682 64.9348 192.898 61.9552 197.945L36.6836 188.056Z" fill="#F2DAC4"/>
<ellipse cx="42.1779" cy="207.833" rx="25.2716" ry="20.8765" fill="#F2DAC4"/>
<ellipse cx="217.981" cy="219.92" rx="34.0617" ry="30.7654" fill="#F2DAC4"/>
<ellipse cx="280.611" cy="238.599" rx="46.1482" ry="29.6667" fill="#F2DAC4"/>
<path d="M149.857 422.093C270.617 422.093 368.511 374.376 368.511 315.513C368.511 256.65 270.617 208.933 149.857 208.933C91.9604 208.933 39.3195 219.901 0.202759 237.807V393.218C39.3195 411.125 91.9604 422.093 149.857 422.093Z" fill="#F2DAC4"/>
<ellipse cx="354.741" cy="287.256" rx="108.818" ry="47.2469" transform="rotate(11.1134 354.741 287.256)" fill="#F2DAC4"/>
<ellipse cx="575.08" cy="289.142" rx="50.5432" ry="27.4691" fill="#F2DAC4"/>
<ellipse cx="632.215" cy="328.698" rx="107.679" ry="25.2716" fill="#F2DAC4"/>
<path d="M501.463 269.364C518.254 269.808 525.002 271.629 533.327 277.056L565.191 350.673L422.352 345.179L392.685 269.364C401.975 259.359 405.569 250.638 408.661 231.888C408.913 230.363 410.611 229.54 411.924 230.355C420.259 235.532 425.408 240.869 433.339 253.982C439.967 252.57 443.756 252.608 450.92 257.278C454.687 252.545 456.675 248.715 458.675 241.509C459.146 239.812 461.314 239.259 462.515 240.547C473.287 252.088 481.696 259.042 501.463 269.364Z" fill="#F2DAC4"/>
<ellipse cx="134.474" cy="217.722" rx="64.8272" ry="37.358" fill="#F2DAC4"/>
<ellipse cx="1027.77" cy="247.389" rx="30.7654" ry="27.4691" fill="#F2DAC4"/>
<path d="M1105.7 222.118C1105.7 229.4 1098.29 235.303 1090.4 235.303C1082.51 235.303 1076.12 229.4 1076.12 222.118C1076.12 214.836 1082.51 208.933 1090.4 208.933C1098.29 208.933 1098.2 215.499 1105.7 222.118Z" fill="#F2DAC4"/>
<path d="M1122.26 228.71C1122.26 234.779 1117.35 239.698 1111.28 239.698C1105.21 239.698 1100.29 234.779 1100.29 228.71C1096.86 220.563 1101.59 221.362 1107.67 219.306C1110.12 218.478 1112.72 217.512 1115.14 218.419C1119.3 219.982 1122.26 224 1122.26 228.71Z" fill="#F2DAC4"/>
<rect x="744.289" y="279.254" width="492.247" height="57.1358" fill="#F2DAC4"/>
<ellipse cx="1100.29" cy="263.871" rx="63.7284" ry="39.5556" fill="#F2DAC4"/>
<path d="M1032.17 221.018C1057.54 220.885 1068.12 219.438 1080.51 214.426L1065.13 290.241L821.203 349.574L598.153 318.809L608.042 273.759L621.227 256.179C625.519 249.042 631.162 247.487 647.598 249.586H694.845C696.962 243.304 699.283 241.354 704.734 239.697C714.622 241.895 730.005 253.981 754.178 263.87L788.24 272.66L831.092 267.167C848.726 243.188 859.053 235.336 878.339 233.105C894.82 242.994 894.82 274.858 906.906 272.66C912.4 267.167 917.894 261.673 926.684 263.87C930.806 265.986 933.82 268.226 945.363 281.45C975.03 274.858 1004.7 236.401 1032.17 221.018Z" fill="#F2DAC4"/>
<path d="M1215.88 258.812C1179.74 254.631 1171.21 261.792 1169.51 284.747V345.179H1512.2V179.266L1489.25 127.624C1454.19 61.6109 1417.98 37.6144 1386.48 19.4873C1373.69 43.9961 1358.58 56.2904 1360.7 82.5743C1362.89 111.142 1354.1 116.636 1344.22 116.636C1326.64 116.636 1273.89 128.722 1267.3 164.982C1253.6 196.642 1252.64 214.141 1255.22 245.192C1243.59 244.396 1236.44 245.927 1225.05 255.895C1222.54 258.097 1219.2 259.197 1215.88 258.812Z" fill="#F2DAC4"/>
<ellipse cx="1402.45" cy="30.9323" rx="18.679" ry="21.9753" fill="#F2DAC4"/>
<ellipse cx="1452.17" cy="90.6212" rx="23.0741" ry="52.7407" transform="rotate(-26.5752 1452.17 90.6212)" fill="#F2DAC4"/>
<path d="M1445.3 38.6231C1445.3 47.7255 1465.7 63.999 1443.7 66.4989C1430.03 72.0033 1411.18 34.1505 1414.7 17.9988C1414.7 8.89633 1414.6 22.1416 1425.52 22.1416C1436.45 22.1416 1445.3 29.5206 1445.3 38.6231Z" fill="#F2DAC4"/>
<path d="M1484.86 137.513C1484.86 146.615 1483.74 151.797 1491.63 151.797C1486.71 155.945 1485.28 159.087 1484.86 166.081C1484.86 177.61 1495.68 186.957 1509.03 186.957C1510.11 186.957 1511.16 186.897 1512.2 186.779V143.491V130.831C1509.98 125.058 1504.97 121.031 1499.14 121.031C1491.25 121.031 1484.86 128.41 1484.86 137.513Z" fill="#F2DAC4"/>
</svg>
