<svg width="113" height="213" viewBox="0 0 113 213" fill="none" xmlns="http://www.w3.org/2000/svg">
<path d="M73.4308 212.985L72.5837 89.7326L69.1953 88.8855V212.985H73.4308Z" fill="#6198B3"/>
<path d="M67.5011 88.4619L66.6541 212.985H69.1953V88.8855L67.5011 88.4619Z" fill="#ECEBD5"/>
<path d="M66.9065 87.6873L66.6541 85.9199L72.5837 86.3435V89.3083C72.5837 89.7761 72.2045 90.1554 71.7366 90.1554H69.8992C69.4386 90.1554 68.9867 90.0302 68.5918 89.7932L68.1148 89.5071C67.4586 89.1134 67.0148 88.4449 66.9065 87.6873Z" fill="url(#paint0_linear_334_4368)"/>
<path d="M7.65072 72.7995L72.8309 87.2411L74.4181 84.8846L73.4852 82.2009L7.75978 71.9595L7.65072 72.7995Z" fill="url(#paint1_linear_334_4368)"/>
<path d="M111.372 14.085L111.061 13.1905L110.166 13.5014L108.247 17.0962C85.8875 59.676 74.3157 81.8495 74.4181 84.8846C79.202 84.2244 78.5152 81.5906 84.5706 71.6812L111.372 14.085Z" fill="#578EA4"/>
<path d="M73.4852 82.2009L74.4181 84.8846C74.3157 81.8495 85.8875 59.676 108.247 17.0962L73.6355 81.9195L73.4852 82.2009Z" fill="#E3ECDE"/>
<path d="M74.4181 84.8846L78.1983 85.3754L84.5706 71.6812C78.5152 81.5906 79.202 84.2244 74.4181 84.8846Z" fill="#E3ECDE"/>
<path fill-rule="evenodd" clip-rule="evenodd" d="M78.6648 86.7172C75.5391 88.6093 74.6549 89.8018 75.0114 92.2224L95.2305 138.412L96.016 138.941L96.5451 138.155L78.6648 86.7172Z" fill="#548DA7"/>
<path d="M78.1983 85.3754L74.4181 84.8846L72.8309 87.2411L75.0114 92.2224C74.6549 89.8018 75.5391 88.6093 78.6648 86.7172L78.1983 85.3754Z" fill="#38799E"/>
<path d="M7.75978 71.9595L73.4852 82.2009L73.6355 81.9195L7.75978 71.9595Z" fill="#ECEBD5"/>
<defs>
<linearGradient id="paint0_linear_334_4368" x1="70.8895" y1="85.4964" x2="69.6189" y2="90.1554" gradientUnits="userSpaceOnUse">
<stop stop-color="#68A5C3"/>
<stop offset="1" stop-color="#25607C"/>
</linearGradient>
<linearGradient id="paint1_linear_334_4368" x1="6.66916" y1="80.3599" x2="78.7982" y2="80.7551" gradientUnits="userSpaceOnUse">
<stop stop-color="#47879F"/>
<stop offset="1" stop-color="#558DA7"/>
</linearGradient>
</defs>
</svg>
