<svg width="1512" height="934" viewBox="0 0 1512 934" fill="none" xmlns="http://www.w3.org/2000/svg">
<ellipse cx="504.558" cy="334.758" rx="21.9753" ry="33.5795" transform="rotate(-45.5153 504.558 334.758)" fill="#FBEBD3"/>
<ellipse cx="455.313" cy="313.13" rx="12.0864" ry="10.9877" fill="#FBEBD3"/>
<ellipse cx="491.213" cy="311.242" rx="6.59259" ry="12.0864" transform="rotate(-40.0623 491.213 311.242)" fill="#FBEBD3"/>
<path d="M489.375 304.34C490.331 310.333 484.132 318.704 475.143 320.137C466.154 321.57 457.368 312.531 456.413 306.538C455.457 300.545 463.733 306.379 472.722 304.946C481.711 303.513 488.42 298.348 489.375 304.34Z" fill="#FBEBD3"/>
<path d="M1114.57 328.513C1144.24 332.908 1158.52 310.933 1198.08 338.402L1228.84 361.476C1195.36 380.635 1175.99 389.441 1135.45 385.649L1114.57 328.513Z" fill="#FBEBD3"/>
<path d="M751.98 365.871C774.3 356.026 785.175 359.168 802.523 375.76C783.394 378.911 772.385 377.429 751.98 365.871Z" fill="#FBEBD3"/>
<path d="M643.202 357.081C655.418 332.639 664.412 331.32 683.857 348.291C689.316 348.237 690.469 348.915 691.548 350.489C695.715 343.872 698.696 342.256 704.733 341.699L702.536 352.686L643.202 357.081Z" fill="#FBEBD3"/>
<path d="M453.116 323.019C470.399 354.507 487.177 368.069 514.647 369.168C521.175 367.345 524.785 368.953 531.128 376.859C537.969 373.302 543.765 373.698 556.4 368.287C564.491 366.099 569.613 365.533 573.98 365.871C579.958 369.374 587.908 368.803 590.461 370.266C611.338 375.76 612.477 367.395 633.313 375.76C617.894 343.315 607.794 338.227 587.165 352.686C581.526 344.689 578.145 343.621 571.782 348.291C548.788 321.45 543.347 327.086 538.819 346.094C534.408 343.975 532.091 343.392 528.931 346.094C485.32 313.471 469.35 309.464 453.116 323.019Z" fill="#FBEBD3"/>
<ellipse cx="372.906" cy="312.031" rx="6.59259" ry="9.88889" fill="#FBEBD3"/>
<ellipse cx="400.376" cy="312.031" rx="5.49383" ry="7.69136" transform="rotate(-15.9245 400.376 312.031)" fill="#FBEBD3"/>
<ellipse cx="387.191" cy="310.932" rx="12.0864" ry="4.39506" fill="#FBEBD3"/>
<ellipse cx="429.113" cy="309.512" rx="4.39506" ry="14.284" transform="rotate(-37.998 429.113 309.512)" fill="#FBEBD3"/>
<ellipse cx="441.03" cy="309.833" rx="8.79012" ry="3.2963" fill="#FBEBD3"/>
<path d="M440.703 308.499C439.99 310.174 433.805 309.068 429.339 307.166C424.872 305.264 421.83 302.364 422.543 300.689C423.257 299.014 426.164 302.231 430.63 304.133C435.097 306.036 437.703 305.999 440.703 308.499Z" fill="#FBEBD3"/>
<path d="M420.743 299.305C422.397 300.068 422.976 302.334 422.038 304.368C421.1 306.402 418.999 307.433 417.346 306.67C415.693 305.907 418.106 305.021 419.045 302.987C419.983 300.954 419.09 298.542 420.743 299.305Z" fill="#FBEBD3"/>
<path d="M417.703 305.999C418.512 307.63 416.667 310.484 414.661 311.48C412.655 312.476 410.372 311.961 409.563 310.33C408.753 308.7 410.703 308.999 413.195 308.527C415.396 308.111 416.894 304.368 417.703 305.999Z" fill="#FBEBD3"/>
<path d="M388.175 309.776C387.462 311.451 383.263 311.267 378.796 309.364C374.33 307.462 371.288 304.562 372.001 302.887C372.714 301.212 375.622 304.429 380.088 306.332C384.554 308.234 388.888 308.101 388.175 309.776Z" fill="#FBEBD3"/>
<path d="M390.804 308.299C391.517 309.974 393.785 310.612 395.87 309.724C397.954 308.836 399.991 307.113 399.277 305.438C398.564 303.763 396.662 305.804 394.578 306.692C392.494 307.579 390.091 306.624 390.804 308.299Z" fill="#FBEBD3"/>
<ellipse cx="420.474" cy="311.709" rx="6.59259" ry="9.88889" transform="rotate(25.5197 420.474 311.709)" fill="#FBEBD3"/>
<ellipse cx="437.734" cy="319.723" rx="16.4815" ry="8.79012" fill="#FBEBD3"/>
<path d="M471.796 341.698C469.937 347.475 463.514 336.856 453.117 333.51C442.719 330.164 433.747 327.168 435.606 321.392C437.465 315.615 447.402 313.645 457.799 316.992C468.197 320.338 473.655 335.922 471.796 341.698Z" fill="#FBEBD3"/>
<ellipse cx="409.165" cy="313.13" rx="7.69136" ry="4.39506" fill="#FBEBD3"/>
<path d="M360.82 310.933C363.092 306.367 364.976 306.253 369.61 310.933L425.647 312.031L534.425 359.278L552.005 402.13L321.264 368.068L317.968 328.513C320.054 325.123 321.652 323.524 327.857 323.019C327.788 318.439 328.852 315.801 333.351 310.933C342.477 300.081 348.052 297.095 360.82 310.933Z" fill="#FBEBD3"/>
<ellipse cx="897.38" cy="324.248" rx="12.6504" ry="17.7105" fill="#FBEBD3"/>
<ellipse cx="923.945" cy="349.55" rx="8.85526" ry="15.1804" transform="rotate(-27.4495 923.945 349.55)" fill="#FBEBD3"/>
<ellipse cx="913.284" cy="329.978" rx="7.59022" ry="13.9154" transform="rotate(-28.9318 913.284 329.978)" fill="#FBEBD3"/>
<ellipse cx="884.729" cy="326.778" rx="15.1804" ry="10.1203" fill="#FBEBD3"/>
<ellipse cx="902.44" cy="348.284" rx="17.7105" ry="18.9756" fill="#FBEBD3"/>
<ellipse cx="984.667" cy="348.284" rx="16.4455" ry="6.32519" fill="#FBEBD3"/>
<ellipse cx="967.037" cy="358.916" rx="7.59022" ry="15.1804" transform="rotate(28.988 967.037 358.916)" fill="#FBEBD3"/>
<ellipse cx="951.775" cy="369.79" rx="18.9756" ry="12.6504" fill="#FBEBD3"/>
<ellipse cx="980.333" cy="357.77" rx="18.6254" ry="8.5908" transform="rotate(-34.6821 980.333 357.77)" fill="#FBEBD3"/>
<path d="M890.779 335.166C895.499 342.594 895.023 351.348 889.716 354.721C884.409 358.093 883.754 350.057 879.034 342.63C874.314 335.203 867.317 331.197 872.624 327.825C877.931 324.452 886.059 327.739 890.779 335.166Z" fill="#FBEBD3"/>
<path d="M922.872 363.111C921.369 357.694 924.74 352.03 930.401 350.459C936.063 348.888 933.898 354.218 935.4 359.635C936.903 365.052 941.505 368.505 935.844 370.075C930.182 371.646 924.374 368.528 922.872 363.111Z" fill="#FBEBD3"/>
<path d="M941.928 371.888C934.895 372.62 928.701 368.476 928.093 362.632C927.484 356.789 933.549 359.688 940.582 358.956C947.615 358.224 953.698 355.09 954.306 360.934C954.914 366.778 948.961 371.156 941.928 371.888Z" fill="#FBEBD3"/>
<path d="M890.779 335.166C895.499 342.594 895.023 351.348 889.716 354.721C884.409 358.093 883.754 350.057 879.034 342.63C874.314 335.203 867.317 331.197 872.624 327.825C877.931 324.452 886.059 327.739 890.779 335.166Z" fill="#FBEBD3"/>
<ellipse cx="918.884" cy="358.404" rx="6.32519" ry="3.79511" fill="#FBEBD3"/>
<path d="M935.33 373.585C916.355 371.055 908.029 377.38 902.44 377.38C896.85 377.38 892.319 373.981 892.319 369.79C892.319 365.598 885.465 354.609 891.054 354.609C899.74 349.364 938.406 364.246 935.33 373.585Z" fill="#FBEBD3"/>
<path d="M953.041 379.91C952.064 384.488 937.446 379.95 927.545 377.837C917.643 375.724 905.257 376.898 906.234 372.32C907.211 367.742 920.332 366.443 930.234 368.556C940.135 370.668 954.018 375.332 953.041 379.91Z" fill="#FBEBD3"/>
<path d="M983.633 363.643C985.363 365.838 979.968 368.143 974.481 372.468C968.995 376.793 961.096 382.104 959.366 379.91C957.636 377.715 965.079 371.825 970.566 367.5C976.053 363.175 981.903 361.448 983.633 363.643Z" fill="#FBEBD3"/>
<ellipse cx="870.911" cy="333.176" rx="5.49383" ry="9.88889" transform="rotate(34.7857 870.911 333.176)" fill="#FBEBD3"/>
<path d="M1418.77 127.104C1418.77 141.061 1366.06 168.093 1344.21 168.093C1322.37 168.093 1304.66 156.779 1304.66 142.822C1304.66 128.865 1319.79 117.583 1338.04 110.255C1389.43 89.6226 1418.77 113.147 1418.77 127.104Z" fill="#FBEBD3"/>
<ellipse cx="1285.09" cy="210.818" rx="37.358" ry="23.0741" transform="rotate(-14.5833 1285.09 210.818)" fill="#FBEBD3"/>
<ellipse cx="1344.21" cy="199.958" rx="24.1728" ry="20.8765" fill="#FBEBD3"/>
<path d="M1362.89 177.982C1362.89 187.084 1368.44 197.76 1356.3 197.76C1344.16 197.76 1342.02 185.986 1342.02 176.883C1342.02 167.781 1352.96 157.105 1365.09 157.105C1377.23 157.105 1362.89 168.88 1362.89 177.982Z" fill="#FBEBD3"/>
<path d="M1350.81 156.006C1350.81 167.536 1341.46 176.883 1329.93 176.883C1318.4 176.883 1310.15 170.833 1310.15 159.303C1310.15 147.773 1294.77 135.13 1329.93 135.13C1341.46 135.13 1350.81 144.477 1350.81 156.006Z" fill="#FBEBD3"/>
<ellipse cx="1318.63" cy="184.298" rx="31.6734" ry="15.3827" transform="rotate(-28.7536 1318.63 184.298)" fill="#FBEBD3"/>
<path d="M1315.03 173.98C1312.45 180.134 1307.18 183.788 1303.26 182.142C1299.34 180.496 1305.36 177.154 1307.94 171C1310.53 164.846 1308.71 158.212 1312.63 159.857C1316.54 161.503 1317.62 167.826 1315.03 173.98Z" fill="#FBEBD3"/>
<path d="M1297.63 189.12C1291.61 192.004 1283.42 194.998 1281.59 191.168C1279.75 187.337 1288.29 185.068 1294.31 182.184C1300.33 179.299 1303.37 173.13 1305.21 176.96C1307.04 180.791 1303.65 186.235 1297.63 189.12Z" fill="#FBEBD3"/>
<path d="M1351.91 216.44C1353.05 224 1333.46 220.579 1321.74 222.352C1310.02 224.125 1301.29 230.634 1300.14 223.073C1299 215.513 1307.57 207.947 1319.29 206.174C1331.01 204.401 1350.76 208.879 1351.91 216.44Z" fill="#FBEBD3"/>
<ellipse cx="1229.67" cy="278.296" rx="28.5679" ry="21.9753" transform="rotate(62.4949 1229.67 278.296)" fill="#FBEBD3"/>
<path d="M1263.99 218.314C1275.05 229.571 1273.83 248.693 1261.27 261.023C1248.72 273.353 1229.57 274.222 1218.52 262.965C1207.47 251.707 1224.85 249.05 1237.41 236.72C1249.96 224.39 1252.94 207.056 1263.99 218.314Z" fill="#FBEBD3"/>
<path d="M1213.18 357.335C1209.09 347.037 1215.21 334.935 1226.86 330.305C1238.51 325.675 1251.28 330.269 1255.37 340.567C1259.46 350.865 1247.35 347.907 1235.7 352.537C1224.05 357.168 1217.27 367.633 1213.18 357.335Z" fill="#FBEBD3"/>
<path d="M1226.97 290.192C1237.61 293.279 1243.41 305.543 1239.91 317.583C1236.42 329.623 1224.96 336.88 1214.32 333.793C1203.68 330.705 1213.44 322.957 1216.94 310.917C1220.43 298.877 1216.32 287.105 1226.97 290.192Z" fill="#FBEBD3"/>
<path d="M1248.62 284.562C1237.57 273.304 1248.85 240.802 1264.05 225.879C1279.25 210.956 1307.89 199.687 1318.94 210.945C1330 222.202 1303.11 235.259 1287.92 250.182C1272.72 265.105 1259.68 295.819 1248.62 284.562Z" fill="#FBEBD3"/>
<path d="M1261.33 277.803C1258.44 292.61 1247.39 304.287 1242.03 303.241C1236.67 302.195 1239.03 288.821 1241.92 274.014C1244.81 259.207 1251.5 248.052 1256.86 249.099C1262.22 250.145 1264.22 262.997 1261.33 277.803Z" fill="#FBEBD3"/>
<ellipse cx="1216.37" cy="332.925" rx="25.2716" ry="13.5359" transform="rotate(-38.8164 1216.37 332.925)" fill="#FBEBD3"/>
<ellipse cx="1247.94" cy="338.669" rx="10.2251" ry="8.79012" transform="rotate(46.8054 1247.94 338.669)" fill="#FBEBD3"/>
<ellipse cx="1241.7" cy="317.538" rx="22.5" ry="26.5" fill="#FBEBD3"/>
<ellipse cx="1254.29" cy="293.974" rx="6.59259" ry="18.4756" transform="rotate(15.0534 1254.29 293.974)" fill="#FBEBD3"/>
<rect x="0.202759" y="432" width="1512" height="162" fill="#F2DAC4"/>
<path d="M36.6836 290.056C36.6836 270.031 23.8694 254.038 0.203003 254.038V345.038L94.9182 326.315L91.6219 297.747C91.1691 289.983 79.703 287.785 74.0416 290.056C67.4959 292.682 64.9348 294.898 61.9552 299.945L36.6836 290.056Z" fill="#F2DAC4"/>
<ellipse cx="42.1779" cy="309.833" rx="25.2716" ry="20.8765" fill="#F2DAC4"/>
<ellipse cx="217.981" cy="321.92" rx="34.0617" ry="30.7654" fill="#F2DAC4"/>
<ellipse cx="280.611" cy="340.599" rx="46.1482" ry="29.6667" fill="#F2DAC4"/>
<path d="M149.857 524.093C270.617 524.093 368.511 476.376 368.511 417.513C368.511 358.65 270.617 310.933 149.857 310.933C91.9604 310.933 39.3195 321.901 0.202759 339.807V495.218C39.3195 513.125 91.9604 524.093 149.857 524.093Z" fill="#F2DAC4"/>
<ellipse cx="354.741" cy="389.256" rx="108.818" ry="47.2469" transform="rotate(11.1134 354.741 389.256)" fill="#F2DAC4"/>
<ellipse cx="575.08" cy="391.142" rx="50.5432" ry="27.4691" fill="#F2DAC4"/>
<ellipse cx="632.215" cy="430.698" rx="107.679" ry="25.2716" fill="#F2DAC4"/>
<path d="M501.463 371.364C518.254 371.808 525.002 373.629 533.327 379.056L565.191 452.673L422.352 447.179L392.685 371.364C401.975 361.359 405.569 352.638 408.661 333.888C408.913 332.363 410.611 331.54 411.924 332.355C420.259 337.532 425.408 342.869 433.339 355.982C439.967 354.57 443.756 354.608 450.92 359.278C454.687 354.545 456.675 350.715 458.675 343.509C459.146 341.812 461.314 341.259 462.515 342.547C473.287 354.088 481.696 361.042 501.463 371.364Z" fill="#F2DAC4"/>
<ellipse cx="134.474" cy="319.722" rx="64.8272" ry="37.358" fill="#F2DAC4"/>
<ellipse cx="1027.77" cy="349.389" rx="30.7654" ry="27.4691" fill="#F2DAC4"/>
<path d="M1105.7 324.118C1105.7 331.4 1098.29 337.303 1090.4 337.303C1082.51 337.303 1076.12 331.4 1076.12 324.118C1076.12 316.836 1082.51 310.933 1090.4 310.933C1098.29 310.933 1098.2 317.499 1105.7 324.118Z" fill="#F2DAC4"/>
<path d="M1122.26 330.71C1122.26 336.779 1117.35 341.698 1111.28 341.698C1105.21 341.698 1100.29 336.779 1100.29 330.71C1096.86 322.563 1101.59 323.362 1107.67 321.306C1110.12 320.478 1112.72 319.512 1115.14 320.419C1119.3 321.982 1122.26 326 1122.26 330.71Z" fill="#F2DAC4"/>
<rect x="744.289" y="381.254" width="492.247" height="57.1358" fill="#F2DAC4"/>
<ellipse cx="1100.29" cy="365.871" rx="63.7284" ry="39.5556" fill="#F2DAC4"/>
<path d="M1032.17 323.018C1057.54 322.885 1068.12 321.438 1080.51 316.426L1065.13 392.241L821.203 451.574L598.153 420.809L608.042 375.759L621.227 358.179C625.519 351.042 631.162 349.487 647.598 351.586H694.845C696.962 345.304 699.283 343.354 704.734 341.697C714.622 343.895 730.005 355.981 754.178 365.87L788.24 374.66L831.092 369.167C848.726 345.188 859.053 337.336 878.339 335.105C894.82 344.994 894.82 376.858 906.906 374.66C912.4 369.167 917.894 363.673 926.684 365.87C930.806 367.986 933.82 370.226 945.363 383.45C975.03 376.858 1004.7 338.401 1032.17 323.018Z" fill="#F2DAC4"/>
<path d="M1215.88 360.812C1179.74 356.631 1171.21 363.792 1169.51 386.747V447.179H1512.2V281.266L1489.25 229.624C1454.19 163.611 1417.98 139.614 1386.48 121.487C1373.69 145.996 1358.58 158.29 1360.7 184.574C1362.89 213.142 1354.1 218.636 1344.22 218.636C1326.64 218.636 1273.89 230.722 1267.3 266.982C1253.6 298.642 1252.64 316.141 1255.22 347.192C1243.59 346.396 1236.44 347.927 1225.05 357.895C1222.54 360.097 1219.2 361.197 1215.88 360.812Z" fill="#F2DAC4"/>
<ellipse cx="1402.45" cy="132.932" rx="18.679" ry="21.9753" fill="#F2DAC4"/>
<ellipse cx="1452.17" cy="192.621" rx="23.0741" ry="52.7407" transform="rotate(-26.5752 1452.17 192.621)" fill="#F2DAC4"/>
<path d="M1445.3 140.623C1445.3 149.726 1465.7 165.999 1443.7 168.499C1430.03 174.003 1411.18 136.151 1414.7 119.999C1414.7 110.896 1414.6 124.142 1425.52 124.142C1436.45 124.142 1445.3 131.521 1445.3 140.623Z" fill="#F2DAC4"/>
<path d="M1484.86 239.513C1484.86 248.615 1483.74 253.797 1491.63 253.797C1486.71 257.945 1485.28 261.087 1484.86 268.081C1484.86 279.61 1495.68 288.957 1509.03 288.957C1510.11 288.957 1511.16 288.897 1512.2 288.779V245.491V232.831C1509.98 227.058 1504.97 223.031 1499.14 223.031C1491.25 223.031 1484.86 230.41 1484.86 239.513Z" fill="#F2DAC4"/>
<path d="M618.861 490.045L616.904 205.177L609.072 203.219V490.045H618.861Z" fill="#6198B3"/>
<path d="M605.156 202.24L603.199 490.045H609.072V203.219L605.156 202.24Z" fill="#ECEBD5"/>
<path d="M603.782 200.451L603.199 196.366L616.904 197.345V204.198C616.904 205.279 616.027 206.155 614.946 206.155H610.699C609.635 206.155 608.59 205.866 607.677 205.318L606.575 204.657C605.058 203.747 604.032 202.202 603.782 200.451Z" fill="url(#paint0_linear_334_4279)"/>
<path d="M466.826 166.042L617.474 199.42L621.143 193.973L618.987 187.771L467.078 164.1L466.826 166.042Z" fill="url(#paint1_linear_334_4279)"/>
<path d="M706.552 30.3374L705.833 28.2698L703.765 28.9885L699.329 37.2969C647.651 135.71 620.906 186.959 621.143 193.973C632.199 192.448 630.612 186.36 644.608 163.457L706.552 30.3374Z" fill="#578EA4"/>
<path d="M618.987 187.771L621.143 193.973C620.906 186.959 647.651 135.71 699.329 37.2969L619.334 187.12L618.987 187.771Z" fill="#E3ECDE"/>
<path d="M621.143 193.973L629.88 195.108L644.608 163.457C630.612 186.36 632.199 192.448 621.143 193.973Z" fill="#E3ECDE"/>
<path fill-rule="evenodd" clip-rule="evenodd" d="M630.958 198.209C623.734 202.582 621.69 205.339 622.514 210.933L669.245 317.689L671.061 318.912L672.284 317.096L630.958 198.209Z" fill="#548DA7"/>
<path d="M629.88 195.108L621.143 193.973L617.474 199.42L622.514 210.933C621.69 205.339 623.734 202.582 630.958 198.209L629.88 195.108Z" fill="#38799E"/>
<path d="M467.078 164.1L618.987 187.771L619.334 187.12L467.078 164.1Z" fill="#ECEBD5"/>
<path d="M877.677 481.621L876.286 279.193L870.721 277.802V481.621H877.677Z" fill="#6198B3"/>
<path d="M867.938 277.106L866.547 481.621H870.721V277.802L867.938 277.106Z" fill="#ECEBD5"/>
<path d="M866.962 275.835L866.547 272.933L876.286 273.628V278.498C876.286 279.266 875.663 279.889 874.894 279.889H871.877C871.12 279.889 870.378 279.683 869.729 279.294L868.946 278.824C867.868 278.177 867.139 277.08 866.962 275.835Z" fill="url(#paint2_linear_334_4279)"/>
<path d="M768.814 303.912L874.269 273.881L874.722 269.237L871.278 266.088L768.316 302.613L768.814 303.912Z" fill="url(#paint3_linear_334_4279)"/>
<path d="M872.83 138.084L871.682 137.035L870.633 138.183L870.666 144.875C871.609 223.858 872.204 264.931 874.722 269.237C881.118 264.547 878.069 261.278 879.081 242.232L872.83 138.084Z" fill="#578EA4"/>
<path d="M871.278 266.088L874.722 269.237C872.204 264.931 871.609 223.858 870.666 144.875L871.276 265.564L871.278 266.088Z" fill="#E3ECDE"/>
<path d="M874.722 269.237L880.567 266.994L879.081 242.232C878.069 261.278 881.118 264.547 874.722 269.237Z" fill="#E3ECDE"/>
<path fill-rule="evenodd" clip-rule="evenodd" d="M882.289 268.569C879.25 273.743 878.904 276.157 881.309 279.376L946.591 330.326L948.139 330.477L948.29 328.929L882.289 268.569Z" fill="#548DA7"/>
<path d="M880.567 266.994L874.722 269.237L874.269 273.881L881.309 279.376C878.904 276.157 879.25 273.743 882.289 268.569L880.567 266.994Z" fill="#38799E"/>
<path d="M768.316 302.613L871.278 266.088L871.276 265.564L768.316 302.613Z" fill="#ECEBD5"/>
<path d="M1072.43 468.985L1071.58 345.733L1068.2 344.885V468.985H1072.43Z" fill="#6198B3"/>
<path d="M1066.5 344.462L1065.65 468.985H1068.2V344.885L1066.5 344.462Z" fill="#ECEBD5"/>
<path d="M1065.91 343.687L1065.65 341.92L1071.58 342.343V345.308C1071.58 345.776 1071.2 346.155 1070.74 346.155H1068.9C1068.44 346.155 1067.99 346.03 1067.59 345.793L1067.11 345.507C1066.46 345.113 1066.01 344.445 1065.91 343.687Z" fill="url(#paint4_linear_334_4279)"/>
<path d="M1006.65 328.799L1071.83 343.241L1073.42 340.885L1072.49 338.201L1006.76 327.959L1006.65 328.799Z" fill="url(#paint5_linear_334_4279)"/>
<path d="M1110.37 270.085L1110.06 269.19L1109.17 269.501L1107.25 273.096C1084.89 315.676 1073.32 337.849 1073.42 340.885C1078.2 340.224 1077.52 337.591 1083.57 327.681L1110.37 270.085Z" fill="#578EA4"/>
<path d="M1072.49 338.201L1073.42 340.885C1073.32 337.849 1084.89 315.676 1107.25 273.096L1072.64 337.919L1072.49 338.201Z" fill="#E3ECDE"/>
<path d="M1073.42 340.885L1077.2 341.375L1083.57 327.681C1077.52 337.591 1078.2 340.224 1073.42 340.885Z" fill="#E3ECDE"/>
<path fill-rule="evenodd" clip-rule="evenodd" d="M1077.66 342.717C1074.54 344.609 1073.65 345.802 1074.01 348.222L1094.23 394.412L1095.02 394.941L1095.55 394.155L1077.66 342.717Z" fill="#548DA7"/>
<path d="M1077.2 341.375L1073.42 340.885L1071.83 343.241L1074.01 348.222C1073.65 345.802 1074.54 344.609 1077.66 342.717L1077.2 341.375Z" fill="#38799E"/>
<path d="M1006.76 327.959L1072.49 338.201L1072.64 337.919L1006.76 327.959Z" fill="#ECEBD5"/>
<path d="M762.57 442.671C746.169 446.452 728.459 445.619 731.176 461.964L777.802 455.953C779.163 455.777 780.182 454.618 780.182 453.246V453.028C780.182 452.567 779.76 452.221 779.307 452.311C777.949 452.584 776.682 451.545 776.682 450.16V449.54C776.682 447.929 775.281 446.676 773.68 446.854L768.118 447.474C765.964 447.714 764.08 446.028 764.08 443.861C764.08 443.072 763.338 442.493 762.57 442.671Z" fill="url(#paint6_linear_334_4279)"/>
<path d="M1512.2 417.17C1430.25 395.502 1364.41 385.959 1288.12 388.65C1227.07 393.118 1104.21 456.686 1009.94 469.858C965.642 498.486 927.474 514.449 824.487 542.693C789.567 552.269 751.021 560.358 707.807 569.887C694.601 572.799 680.96 575.846 666.853 579.11C577.445 607.094 431.948 641.097 396.403 658.918C356.221 679.064 339.222 697.66 324.54 730.978L1512.2 542.693V417.17Z" fill="#B5C482"/>
<path d="M1009.94 469.858C1104.21 456.686 1227.07 393.118 1288.12 388.65C1251.56 389.939 1212.61 394.036 1168.34 400.954C1148.89 404.183 1125.46 423.584 1089.18 441.964C1067.82 452.786 1012.67 468.091 1009.94 469.858Z" fill="#EDDE8F"/>
<path d="M687.716 460.561L380.948 519.318L0 592.283V628.7C472.5 539.556 711.983 498.3 1089.18 441.964C1125.46 423.584 1148.89 404.183 1168.34 400.954C1140.77 405.264 1111.12 410.668 1078.71 417.17C1068.15 419.288 979.802 429.567 913.349 441.964C846.895 454.361 726.784 461.426 687.716 460.561Z" fill="#A3BD84"/>
<path d="M824.487 542.693C927.474 514.449 965.642 498.486 1009.94 469.858C1012.67 468.091 1067.82 452.786 1089.18 441.964C711.983 498.3 472.5 539.556 0 628.7V665.117C243.276 622.567 485.265 603.905 707.807 569.887C751.021 560.358 789.567 552.269 824.487 542.693Z" fill="#5B8C86"/>
<path d="M396.403 658.918C431.948 641.097 577.445 607.094 666.853 579.11C680.96 575.846 694.601 572.799 707.807 569.887C485.265 603.905 243.276 622.567 0 665.117V799.551L324.54 730.978C339.222 697.66 356.221 679.064 396.403 658.918Z" fill="#5B8C86"/>
<path d="M0 592.283L380.948 519.318C356.221 506.275 267.359 492.328 183.133 492.328C84.9986 492.328 51.7719 509.375 0 519.318V592.283Z" fill="#A3BD84"/>
<path d="M1512.2 933.986H0V799.552C183.133 719.356 407.993 731.796 697.761 655.819C1170.16 531.958 1334.58 502.526 1512.2 479.932V933.986Z" fill="#205062"/>
<defs>
<linearGradient id="paint0_linear_334_4279" x1="612.988" y1="195.387" x2="610.051" y2="206.155" gradientUnits="userSpaceOnUse">
<stop stop-color="#68A5C3"/>
<stop offset="1" stop-color="#25607C"/>
</linearGradient>
<linearGradient id="paint1_linear_334_4279" x1="464.557" y1="183.516" x2="631.266" y2="184.429" gradientUnits="userSpaceOnUse">
<stop stop-color="#47879F"/>
<stop offset="1" stop-color="#558DA7"/>
</linearGradient>
<linearGradient id="paint2_linear_334_4279" x1="873.503" y1="272.237" x2="871.416" y2="279.889" gradientUnits="userSpaceOnUse">
<stop stop-color="#68A5C3"/>
<stop offset="1" stop-color="#25607C"/>
</linearGradient>
<linearGradient id="paint3_linear_334_4279" x1="773.3" y1="315.602" x2="877.826" y2="259.85" gradientUnits="userSpaceOnUse">
<stop stop-color="#47879F"/>
<stop offset="1" stop-color="#558DA7"/>
</linearGradient>
<linearGradient id="paint4_linear_334_4279" x1="1069.89" y1="341.496" x2="1068.62" y2="346.155" gradientUnits="userSpaceOnUse">
<stop stop-color="#68A5C3"/>
<stop offset="1" stop-color="#25607C"/>
</linearGradient>
<linearGradient id="paint5_linear_334_4279" x1="1005.67" y1="336.36" x2="1077.8" y2="336.755" gradientUnits="userSpaceOnUse">
<stop stop-color="#47879F"/>
<stop offset="1" stop-color="#558DA7"/>
</linearGradient>
<linearGradient id="paint6_linear_334_4279" x1="728.798" y1="456.348" x2="756.116" y2="447.267" gradientUnits="userSpaceOnUse">
<stop stop-color="#A8B698"/>
<stop offset="1" stop-color="#4D8582"/>
</linearGradient>
</defs>
</svg>
