<svg width="1512" height="546" viewBox="0 0 1512 546" fill="none" xmlns="http://www.w3.org/2000/svg">
<path d="M762.57 54.6705C746.169 58.4521 728.459 57.6188 731.176 73.9641L777.802 67.9528C779.163 67.7773 780.182 66.6184 780.182 65.2461V65.0284C780.182 64.5667 779.76 64.2206 779.307 64.3113C777.949 64.5837 776.682 63.5452 776.682 62.1602V61.5398C776.682 59.9289 775.281 58.6758 773.68 58.8541L768.118 59.4738C765.964 59.7138 764.08 58.028 764.08 55.8607C764.08 55.072 763.338 54.4933 762.57 54.6705Z" fill="url(#paint0_linear_334_4372)"/>
<path d="M1512.2 29.17C1430.25 7.50249 1364.41 -2.04056 1288.12 0.650005C1227.07 5.11844 1104.21 68.6859 1009.94 81.8581C965.642 110.486 927.474 126.449 824.487 154.693C789.567 164.269 751.021 172.358 707.807 181.887C694.601 184.799 680.96 187.846 666.853 191.11C577.445 219.094 431.948 253.097 396.403 270.918C356.221 291.064 339.222 309.66 324.54 342.978L1512.2 154.693V29.17Z" fill="#B5C482"/>
<path d="M1009.94 81.8581C1104.21 68.6859 1227.07 5.11844 1288.12 0.650005C1251.56 1.9391 1212.61 6.03647 1168.34 12.9541C1148.89 16.1833 1125.46 35.5843 1089.18 53.964C1067.82 64.7858 1012.67 80.0905 1009.94 81.8581Z" fill="#EDDE8F"/>
<path d="M687.716 72.5608L380.948 131.318L0 204.283V240.7C472.5 151.556 711.983 110.3 1089.18 53.964C1125.46 35.5843 1148.89 16.1833 1168.34 12.9541C1140.77 17.2638 1111.12 22.6681 1078.71 29.17C1068.15 31.2885 979.802 41.5666 913.349 53.964C846.895 66.3614 726.784 73.4259 687.716 72.5608Z" fill="#A3BD84"/>
<path d="M824.487 154.693C927.474 126.449 965.642 110.486 1009.94 81.8581C1012.67 80.0905 1067.82 64.7858 1089.18 53.964C711.983 110.3 472.5 151.556 0 240.7V277.117C243.276 234.567 485.265 215.905 707.807 181.887C751.021 172.358 789.567 164.269 824.487 154.693Z" fill="#5B8C86"/>
<path d="M396.403 270.918C431.948 253.097 577.445 219.094 666.853 191.11C680.96 187.846 694.601 184.799 707.807 181.887C485.265 215.905 243.276 234.567 0 277.117V411.551L324.54 342.978C339.222 309.66 356.221 291.064 396.403 270.918Z" fill="#5B8C86"/>
<path d="M0 204.283L380.948 131.318C356.221 118.275 267.359 104.328 183.133 104.328C84.9986 104.328 51.7719 121.375 0 131.318V204.283Z" fill="#A3BD84"/>
<path d="M1512.2 545.986H0V411.552C183.133 331.356 407.993 343.796 697.761 267.819C1170.16 143.958 1334.58 114.526 1512.2 91.9316V545.986Z" fill="#205062"/>
<defs>
<linearGradient id="paint0_linear_334_4372" x1="728.798" y1="68.3479" x2="756.116" y2="59.2667" gradientUnits="userSpaceOnUse">
<stop stop-color="#A8B698"/>
<stop offset="1" stop-color="#4D8582"/>
</linearGradient>
</defs>
</svg>
