<svg width="115" height="113" viewBox="0 0 115 113" fill="none" xmlns="http://www.w3.org/2000/svg">
<path d="M107.823 54.6896C107.823 80.7119 82.984 104.575 55.8507 105.468C30.267 105.468 4.48426 84.4117 4.48426 58.3894C2.65311 30.2706 26.8975 6.18652 52.4811 6.18652C79.4769 6.18652 103.156 21.0323 107.823 54.6896Z" fill="#1F3F3D"/>
<path fill-rule="evenodd" clip-rule="evenodd" d="M24.9996 85.6307C19.2776 82.4124 13.6709 77.2175 9.84208 66.4164L11.3597 65.9277C15.0588 76.3629 20.4039 81.2532 25.7874 84.2811C28.2474 85.6647 30.723 86.6644 33.1179 87.6315C33.3712 87.7337 33.6236 87.8357 33.875 87.9376C36.4786 88.9938 38.9924 90.0624 41.119 91.5984L40.1744 92.8477C38.23 91.4434 35.8935 90.4399 33.2765 89.3784C33.0255 89.2766 32.7721 89.1743 32.5165 89.0711C30.132 88.1086 27.5579 87.0696 24.9996 85.6307Z" fill="#918B97"/>
<path fill-rule="evenodd" clip-rule="evenodd" d="M26.8648 91.7423L26.0104 90.8442C24.2981 89.0444 23.6973 87.7281 23.8611 86.6542C23.9372 86.1556 24.1709 85.8088 24.3325 85.5856C24.3647 85.5411 24.3916 85.5048 24.4148 85.4734C24.4587 85.414 24.4895 85.3724 24.519 85.3261C24.5295 85.3096 24.5363 85.2975 24.5406 85.2896L24.6683 84.3349L25.6098 84.9209C26.7197 85.6117 27.5443 86.4097 27.7911 87.5309C28.0114 88.5321 27.708 89.5931 27.2475 90.767L26.8648 91.7423ZM26.1483 88.845C26.307 88.2713 26.3344 87.8753 26.2676 87.5717C26.2131 87.3241 26.0727 87.0525 25.6519 86.7036C25.5135 86.895 25.4333 87.04 25.408 87.2058C25.3779 87.4036 25.3997 87.8688 26.1483 88.845Z" fill="#918B97"/>
<path fill-rule="evenodd" clip-rule="evenodd" d="M17.6168 85.1808L16.9811 84.2246C15.6202 82.1775 15.2503 80.7824 15.6575 79.767C15.8448 79.2998 16.1648 79.0202 16.3744 78.8482C16.4174 78.8129 16.4527 78.7846 16.4829 78.7604C16.539 78.7153 16.5777 78.6843 16.6163 78.6484C16.6244 78.6408 16.6308 78.6346 16.6357 78.6295L16.96 77.7718L17.7471 78.4839C18.7158 79.36 19.4034 80.2888 19.4242 81.423C19.443 82.4417 18.8981 83.3869 18.1889 84.3798L17.6168 85.1808ZM17.5221 82.3529C17.8125 81.8404 17.92 81.4818 17.9147 81.1973C17.9104 80.9645 17.8221 80.6681 17.4177 80.2085C17.4094 80.2152 17.4016 80.2215 17.3943 80.2275C17.2115 80.3775 17.1096 80.4885 17.0564 80.6211C16.9977 80.7673 16.9066 81.2022 17.5221 82.3529Z" fill="#918B97"/>
<path fill-rule="evenodd" clip-rule="evenodd" d="M26.6918 80.691L26.0574 81.3756C24.6234 82.9229 23.4332 83.356 22.3048 82.9204C21.7858 82.72 21.3953 82.3695 21.1499 82.1393C21.0998 82.0924 21.0591 82.0537 21.0242 82.0204C20.9587 81.9581 20.9133 81.9149 20.8633 81.872C20.8516 81.8618 20.8421 81.8541 20.8349 81.8483L19.92 81.5134L20.2788 80.6703C20.7417 79.5825 21.3603 78.8086 22.433 78.7668C22.9355 78.7472 23.4608 78.8952 23.992 79.126C24.5228 79.3566 25.1066 79.6911 25.7462 80.0945L26.6918 80.691ZM24.125 80.827C23.9537 80.7362 23.7959 80.6593 23.6497 80.5958C23.2509 80.4225 22.9864 80.37 22.8003 80.3772C22.5663 80.3864 22.3033 80.5 22.006 80.9942C22.0266 81.0138 22.0456 81.0318 22.0623 81.0475C22.2783 81.2501 22.4266 81.3638 22.5768 81.4218C22.7472 81.4876 23.22 81.583 24.125 80.827Z" fill="#918B97"/>
<path fill-rule="evenodd" clip-rule="evenodd" d="M19.1628 71.3639L18.5283 72.0485C17.0944 73.5957 15.9041 74.0289 14.7757 73.5933C14.2567 73.3929 13.8663 73.0423 13.6208 72.8122C13.5707 72.7652 13.5301 72.7265 13.4951 72.6933C13.4297 72.631 13.3843 72.5878 13.3343 72.5448C13.3225 72.5347 13.3131 72.5269 13.3058 72.5211L12.3909 72.1862L12.7497 71.3431C13.2126 70.2553 13.8312 69.4814 14.904 69.4397C15.4065 69.4201 15.9318 69.568 16.4629 69.7988C16.9937 70.0295 17.5775 70.364 18.2171 70.7674L19.1628 71.3639ZM16.596 71.4999C16.4247 71.409 16.2668 71.3321 16.1206 71.2686C15.7219 71.0953 15.4573 71.0428 15.2712 71.0501C15.0372 71.0592 14.7742 71.1729 14.4769 71.6671C14.4975 71.6866 14.5165 71.7047 14.5333 71.7204C14.7493 71.9229 14.8975 72.0367 15.0478 72.0947C15.2182 72.1604 15.6909 72.2559 16.596 71.4999Z" fill="#918B97"/>
<path fill-rule="evenodd" clip-rule="evenodd" d="M33.6612 84.288L33.161 85.1134C32.1235 86.8254 31.089 87.4702 29.9411 87.3072C29.4128 87.2322 28.9745 86.9929 28.6973 86.8336C28.6402 86.8008 28.5941 86.7739 28.5548 86.7509C28.4818 86.7082 28.4319 86.679 28.3774 86.6508C28.3665 86.6451 28.3575 86.6407 28.3504 86.6372L27.3732 86.5156L27.5553 85.5999C27.7734 84.5031 28.2051 83.6576 29.2113 83.3946C30.1125 83.159 31.2776 83.4656 32.5813 83.9154L33.6612 84.288ZM31.1277 85.0043C30.5206 84.8511 30.1471 84.8297 29.9008 84.8941C29.701 84.9463 29.4934 85.0855 29.3218 85.5398C29.3255 85.542 29.3291 85.5441 29.3326 85.5461C29.5732 85.6843 29.7312 85.7553 29.8803 85.7764C30.0426 85.7995 30.4742 85.7927 31.1277 85.0043Z" fill="#918B97"/>
<path fill-rule="evenodd" clip-rule="evenodd" d="M36.6878 96.3066C34.1719 94.635 31.6568 91.9214 29.1087 87.6709L30.5011 86.8734C32.974 90.9986 35.3447 93.5118 37.6074 95.0152C39.8559 96.5091 42.0411 97.0349 44.2095 97.1145C46.1424 97.1854 48.0459 96.9044 50.0165 96.6135C50.2913 96.5729 50.5675 96.5321 50.8453 96.4921C53.0782 96.1702 55.3987 95.8995 57.7327 96.2925L57.4385 97.8303C55.3832 97.4842 53.2917 97.7143 51.0618 98.0358C50.7925 98.0746 50.5207 98.1149 50.2469 98.1554C48.2905 98.4452 46.2252 98.751 44.1285 98.6741C41.7043 98.5851 39.218 97.9877 36.6878 96.3066Z" fill="#9CDAC9"/>
<path fill-rule="evenodd" clip-rule="evenodd" d="M48.5663 102.774L47.7736 102.532C46.6634 102.193 45.907 101.816 45.4276 101.39C44.9302 100.948 44.7005 100.421 44.7429 99.8233C44.7818 99.2759 45.0465 98.8027 45.2066 98.5275C45.2414 98.4676 45.2698 98.4197 45.2938 98.3791C45.3376 98.3053 45.367 98.2556 45.395 98.2017C45.3951 98.2015 45.3953 98.2012 45.3954 98.201L45.4365 97.3582L46.3246 97.3689C47.6166 97.3846 48.6852 97.6146 49.1289 98.5361C49.3439 98.9828 49.3666 99.5081 49.2997 100.049C49.2331 100.587 49.07 101.2 48.8547 101.873L48.5663 102.774ZM45.4155 98.1585C45.4156 98.1585 45.4149 98.1604 45.4131 98.1644C45.4145 98.1606 45.4154 98.1586 45.4155 98.1585ZM47.6487 100.697C47.6977 100.49 47.7321 100.307 47.7522 100.145C47.7981 99.7734 47.761 99.5723 47.7042 99.4543C47.6214 99.2824 47.386 99.0796 46.5927 99.0058C46.5794 99.0283 46.5666 99.05 46.5545 99.0705C46.5365 99.1009 46.5201 99.1285 46.5067 99.1517C46.3576 99.408 46.3059 99.5414 46.299 99.6395C46.2955 99.6878 46.2904 99.8451 46.5659 100.09C46.7712 100.272 47.1092 100.48 47.6487 100.697Z" fill="#9CDAC9"/>
<path fill-rule="evenodd" clip-rule="evenodd" d="M40.3936 101.695L39.2964 101.208C37.139 100.252 36.2864 99.1345 36.1266 97.9147C36.0507 97.3348 36.1454 96.8083 36.2243 96.4299C36.2387 96.3609 36.2515 96.3016 36.263 96.2486C36.2862 96.1409 36.3038 96.0592 36.3178 95.9754C36.3346 95.8747 36.3328 95.8401 36.3331 95.8401L36.1727 94.7392L37.2318 94.7781C38.5079 94.8248 39.4499 95.218 39.97 96.2714C40.4394 97.2222 40.4989 98.6074 40.4396 100.346L40.3936 101.695ZM38.9234 99.077C38.8949 98.1847 38.7895 97.5973 38.5958 97.2049C38.4341 96.8775 38.1873 96.6431 37.718 96.5175C37.716 96.5265 37.7142 96.5354 37.7124 96.544C37.6434 96.8748 37.6017 97.1582 37.6393 97.4451C37.691 97.8396 37.9236 98.4282 38.9234 99.077Z" fill="#9CDAC9"/>
<path fill-rule="evenodd" clip-rule="evenodd" d="M47.4927 93.0185L46.946 94.0198C45.7124 96.279 44.5918 97.3084 43.4389 97.4705C42.9072 97.5453 42.482 97.4094 42.2108 97.3133C42.156 97.2939 42.1112 97.2775 42.0726 97.2634C41.9998 97.2367 41.9488 97.2181 41.8936 97.2022C41.878 97.1977 41.866 97.1947 41.8573 97.1928L40.9194 97.3427L41.1721 96.3337C41.499 95.0284 42.0177 93.9579 43.0647 93.3632C44.0087 92.827 45.1775 92.8179 46.4894 92.9315L47.4927 93.0185ZM44.9973 94.4826C44.3163 94.4852 43.8935 94.5773 43.6079 94.7395C43.3702 94.8745 43.123 95.1258 42.8897 95.7578C42.9129 95.7663 42.9344 95.7741 42.9534 95.7808C43.1917 95.8652 43.3565 95.9004 43.519 95.8776C43.7096 95.8508 44.1945 95.6882 44.9973 94.4826Z" fill="#9CDAC9"/>
<path fill-rule="evenodd" clip-rule="evenodd" d="M54.8365 92.8321L54.3752 94.0768C53.5414 96.3262 52.61 97.409 51.5706 97.8047C51.0825 97.9905 50.6498 97.989 50.354 97.9785C50.2969 97.9764 50.2495 97.9743 50.208 97.9725C50.1276 97.9689 50.0698 97.9663 50.0088 97.9673C49.9721 97.9679 49.951 97.97 49.9417 97.9712L48.9516 98.3657L49.03 97.2392C49.1162 96.0017 49.462 94.9741 50.3645 94.2429C51.1681 93.5918 52.2965 93.2894 53.6504 93.0456L54.8365 92.8321ZM52.3996 94.9598C51.811 95.1259 51.4245 95.3063 51.1626 95.5185C50.9514 95.6896 50.7784 95.9187 50.6654 96.3332C50.8875 96.338 51.0659 96.3234 51.2432 96.2559C51.482 96.165 51.8956 95.904 52.3996 94.9598Z" fill="#9CDAC9"/>
<path fill-rule="evenodd" clip-rule="evenodd" d="M7.82025 56.7462C7.11355 50.3771 8.12385 42.9258 14.8609 33.5417L16.146 34.4416C9.64398 43.4983 8.73505 50.5535 9.399 56.5374C9.70252 59.2729 10.3351 61.7932 10.9474 64.2324C11.0121 64.4903 11.0766 64.7473 11.1405 65.0036C11.8019 67.6576 12.4004 70.2509 12.3796 72.8201L10.7913 72.8434C10.8103 70.499 10.2635 68.0856 9.5984 65.4171C9.53463 65.1612 9.46981 64.9032 9.40443 64.6429C8.79463 62.2149 8.13609 59.5928 7.82025 56.7462Z" fill="#9CDAC9"/>
<path fill-rule="evenodd" clip-rule="evenodd" d="M12.9333 55.1312L11.9843 55.0418C9.84557 54.8405 8.77943 54.1692 8.47421 53.0315C8.33381 52.5082 8.39475 51.9962 8.44121 51.6686C8.4507 51.6017 8.45887 51.5471 8.46589 51.5002C8.47904 51.4123 8.48815 51.3513 8.49436 51.287C8.49581 51.272 8.49668 51.2601 8.4972 51.251L8.23401 50.3379L9.15166 50.1177C10.3326 49.8342 11.3444 49.8581 12.0147 50.6698C12.3287 51.0499 12.5165 51.547 12.6386 52.0976C12.7607 52.6479 12.8277 53.301 12.8703 54.0383L12.9333 55.1312ZM11.2959 53.2072C11.2703 53.0212 11.2411 52.8537 11.2077 52.7031C11.1159 52.2898 11.0031 52.0527 10.8869 51.9121C10.7412 51.7356 10.4916 51.5981 9.90562 51.6585C9.90162 51.6854 9.89795 51.7102 9.89485 51.732C9.85398 52.0202 9.847 52.2029 9.88759 52.3541C9.93352 52.5254 10.1333 52.9495 11.2959 53.2072Z" fill="#9CDAC9"/>
<path fill-rule="evenodd" clip-rule="evenodd" d="M14.0659 62.6885L13.0712 62.7885C11.0276 62.9939 9.88098 62.5679 9.33985 61.5818C9.09055 61.1274 9.03047 60.6456 8.99905 60.335C8.9926 60.2712 8.98777 60.2195 8.98363 60.1752C8.97596 60.0929 8.9707 60.0366 8.96197 59.9772C8.96011 59.9646 8.9584 59.9545 8.95695 59.9466L8.47846 59.1108L9.35747 58.7068C10.4032 58.2261 11.3637 58.0632 12.1767 58.6901C12.9041 59.251 13.3377 60.3375 13.735 61.6202L14.0659 62.6885ZM11.9591 61.137C11.7281 60.5768 11.5248 60.2731 11.3246 60.1187C11.1623 59.9936 10.9251 59.9148 10.4517 60.0466C10.4519 60.0487 10.4521 60.0507 10.4523 60.0528C10.4795 60.3218 10.514 60.4885 10.5856 60.619C10.6643 60.7624 10.9261 61.0924 11.9591 61.137Z" fill="#9CDAC9"/>
<path fill-rule="evenodd" clip-rule="evenodd" d="M47.5229 12.1401C55.2838 10.6273 64.3547 10.9511 74.8171 17.3992L73.977 18.7593C63.8939 12.545 55.2323 12.2524 47.7989 13.7014C44.0621 14.4298 40.6294 15.5996 37.4466 16.7059C37.3026 16.756 37.159 16.806 37.0158 16.8558C34.0218 17.8976 31.2111 18.8756 28.65 19.2824L28.4285 17.7115C30.8461 17.3275 33.5339 16.3927 36.5901 15.3296C36.7105 15.2878 36.8314 15.2457 36.9529 15.2035C40.1326 14.0982 43.6625 12.8926 47.5229 12.1401Z" fill="#9CDAC9"/>
<path fill-rule="evenodd" clip-rule="evenodd" d="M31.1834 12.26L32.3408 12.1959C35.0287 12.047 36.5067 12.4947 37.2327 13.4215C37.5695 13.8514 37.6696 14.3043 37.726 14.606C37.7371 14.6654 37.7459 14.7149 37.7535 14.758C37.7681 14.841 37.7786 14.9003 37.7938 14.9614C37.8003 14.9874 37.8057 15.0045 37.8091 15.0145L38.4102 15.7524L37.4015 16.0808C36.0503 16.5207 34.8339 16.6416 33.7764 16.0375C32.8215 15.492 32.2054 14.4509 31.6153 13.1859L31.1834 12.26ZM33.6906 13.6287C34.0669 14.2854 34.3893 14.6458 34.7106 14.8293C34.9814 14.984 35.3579 15.0653 36.0629 14.9163C36.0627 14.9153 36.0625 14.9143 36.0624 14.9133C36.0564 14.8793 36.0508 14.8479 36.0457 14.8206C35.996 14.5549 35.9391 14.3721 35.8223 14.223C35.6744 14.0341 35.2371 13.6766 33.6906 13.6287Z" fill="#9CDAC9"/>
<path fill-rule="evenodd" clip-rule="evenodd" d="M23.195 21.0077L23.9401 20.0886C25.6001 18.0409 26.9149 17.2802 28.092 17.3595C28.6401 17.3964 29.0543 17.6167 29.327 17.7733C29.3802 17.8038 29.4243 17.8297 29.4628 17.8523C29.5375 17.8961 29.5911 17.9277 29.6492 17.9568C29.678 17.9712 29.6967 17.979 29.7068 17.9829L30.6878 18.0311L30.2632 19.0124C29.7113 20.288 29.0006 21.2429 27.8454 21.6088C26.8055 21.9382 25.6003 21.7076 24.2252 21.3074L23.195 21.0077ZM25.9479 20.0586C26.6928 20.21 27.1852 20.2119 27.5439 20.0983C27.8446 20.003 28.1485 19.7892 28.4846 19.2155C28.4605 19.2014 28.4381 19.1883 28.418 19.1767C28.1791 19.0395 27.995 18.9583 27.7937 18.9448C27.5347 18.9273 26.9732 19.0164 25.9479 20.0586Z" fill="#9CDAC9"/>
<path fill-rule="evenodd" clip-rule="evenodd" d="M40.8548 8.61213L42.0649 8.65625C44.6573 8.75076 46.0445 9.31949 46.6941 10.2654C46.9966 10.7059 47.0754 11.1492 47.1182 11.4474C47.1266 11.5058 47.1331 11.5543 47.1388 11.5967C47.1497 11.6782 47.1575 11.7365 47.1697 11.797C47.1755 11.8254 47.1805 11.8434 47.1835 11.8533L47.7524 12.6505L46.6949 12.8975C45.367 13.2078 44.1896 13.2122 43.2049 12.5372C42.321 11.9313 41.7736 10.8789 41.2561 9.60225L40.8548 8.61213ZM43.332 10.2159C43.6543 10.8446 43.9424 11.2082 44.2383 11.4111C44.4843 11.5797 44.8188 11.6875 45.4377 11.6239C45.4354 11.607 45.4332 11.5912 45.4311 11.5765C45.3938 11.3167 45.3463 11.1319 45.2368 10.9725C45.0984 10.771 44.7049 10.4033 43.332 10.2159Z" fill="#9CDAC9"/>
<path fill-rule="evenodd" clip-rule="evenodd" d="M51.1614 6.72337L52.3239 7.01405C54.9005 7.65835 56.1583 8.5268 56.6 9.6161C56.8059 10.1238 56.7887 10.5876 56.7667 10.899C56.7625 10.9595 56.7584 11.01 56.7549 11.0542C56.748 11.1398 56.7431 11.2016 56.7422 11.2662C56.7417 11.2996 56.743 11.3203 56.744 11.3309L57.1298 12.2351L56.0533 12.2612C54.6581 12.295 53.4864 12.051 52.6528 11.1643C51.9026 10.3663 51.5833 9.18624 51.3423 7.77905L51.1614 6.72337ZM53.2257 8.808C53.4153 9.5424 53.6296 9.98853 53.8906 10.2662C54.1094 10.4989 54.4352 10.6834 55.0953 10.7478C55.0974 10.7211 55.0993 10.6962 55.1009 10.6739C55.1201 10.4013 55.113 10.2001 55.0363 10.0109C54.9371 9.76635 54.6088 9.29737 53.2257 8.808Z" fill="#9CDAC9"/>
<path fill-rule="evenodd" clip-rule="evenodd" d="M62.8728 7.34788L63.8033 7.94094C65.9531 9.31114 66.8594 10.4954 66.8711 11.6629C66.8764 12.2009 66.6799 12.6192 66.5451 12.8851C66.5179 12.9389 66.4951 12.9827 66.4754 13.0206C66.4382 13.0922 66.4121 13.1424 66.3883 13.197C66.3815 13.2126 66.3768 13.2246 66.3736 13.2332L66.4011 14.1698L65.4226 13.8633C64.1312 13.4588 63.1057 12.8772 62.6366 11.793C62.2127 10.8133 62.3605 9.63949 62.6532 8.33032L62.8728 7.34788ZM64.0161 9.89755C63.9235 10.5945 63.9606 11.0304 64.0901 11.3297C64.1985 11.5801 64.4292 11.848 65.0643 12.1243C65.0786 12.0966 65.0918 12.0711 65.103 12.049C65.222 11.8144 65.2802 11.6509 65.2786 11.4867C65.2767 11.2931 65.1733 10.7897 64.0161 9.89755Z" fill="#9CDAC9"/>
<path fill-rule="evenodd" clip-rule="evenodd" d="M48.354 17.6565L48.3274 16.6965C48.2633 14.3816 48.8353 13.1535 49.9659 12.6413C50.4878 12.4049 51.0247 12.3795 51.3754 12.3713C51.4455 12.3696 51.5035 12.3687 51.5538 12.3679C51.6499 12.3664 51.718 12.3653 51.7886 12.3604C51.8127 12.3588 51.8299 12.357 51.8413 12.3555L52.7161 11.94L53.0441 12.8177C53.4949 14.0238 53.5929 15.0855 52.8407 15.9236C52.4874 16.3172 51.9955 16.6011 51.4343 16.8269C50.8735 17.0524 50.1961 17.2383 49.4239 17.4136L48.354 17.6565ZM50.0476 15.7142C50.279 15.6446 50.4838 15.5741 50.6643 15.5015C51.0938 15.3288 51.3386 15.1622 51.4798 15.0049C51.6659 14.7976 51.7784 14.4804 51.6212 13.827C51.6127 13.8271 51.6043 13.8272 51.596 13.8274C51.5566 13.828 51.5203 13.8286 51.489 13.8293C51.1779 13.8366 50.972 13.8614 50.8046 13.9373C50.5997 14.0301 50.1595 14.3499 50.0476 15.7142Z" fill="#9CDAC9"/>
<path fill-rule="evenodd" clip-rule="evenodd" d="M56.946 17.4444L56.9033 16.5097C56.8021 14.2926 57.3178 13.0874 58.4242 12.5912C58.9318 12.3635 59.4553 12.3463 59.7883 12.3428C59.8565 12.3421 59.9123 12.342 59.9603 12.3418C60.0502 12.3416 60.1125 12.3414 60.1778 12.3378C60.1919 12.337 60.2032 12.3361 60.212 12.3353L61.0668 11.9325L61.4002 12.7961C61.8472 13.9541 61.9692 14.9902 61.2509 15.8066C60.9127 16.191 60.4386 16.4631 59.9031 16.6754C59.3682 16.8874 58.7229 17.0585 57.9908 17.2175L56.946 17.4444ZM58.605 15.5295C58.8057 15.4697 58.9838 15.4092 59.1413 15.3467C59.5403 15.1886 59.7585 15.0372 59.8806 14.8985C60.0393 14.7181 60.1438 14.4278 59.9844 13.8008C59.9815 13.8008 59.9786 13.8008 59.9758 13.8008C59.9388 13.8009 59.9051 13.801 59.8763 13.8013C59.5805 13.8044 59.399 13.8261 59.2571 13.8898C59.0984 13.961 58.6897 14.2361 58.605 15.5295Z" fill="#9CDAC9"/>
<path fill-rule="evenodd" clip-rule="evenodd" d="M40.3951 20.2958L40.1756 19.3186C39.6946 17.1769 40.0025 15.9057 40.9459 15.1761C41.3822 14.8386 41.8718 14.6923 42.1945 14.6043C42.2592 14.5867 42.3126 14.5726 42.3587 14.5604C42.4461 14.5372 42.5075 14.521 42.5708 14.5006C42.5914 14.494 42.6062 14.4887 42.6162 14.4849L43.3879 13.8662L43.8937 14.6771C44.5347 15.7046 44.8192 16.6808 44.2763 17.6342C43.7883 18.4915 42.7149 19.1384 41.4096 19.7896L40.3951 20.2958ZM41.6638 17.9487C42.286 17.5756 42.6135 17.2829 42.7644 17.0178C42.8895 16.7981 42.9376 16.5053 42.7127 15.9886C42.6915 15.9943 42.6716 15.9996 42.6537 16.0045C42.3716 16.0814 42.1883 16.1506 42.0483 16.2588C41.8807 16.3885 41.5531 16.7617 41.6638 17.9487Z" fill="#9CDAC9"/>
<path fill-rule="evenodd" clip-rule="evenodd" d="M14.7815 35.7929C14.9749 30.0929 16.8264 23.653 23.9746 16.2196L25.1249 17.2849C18.2545 24.4293 16.5595 30.4947 16.3791 35.8104C16.2965 38.2438 16.5305 40.5288 16.7575 42.7463C16.7815 42.9806 16.8054 43.2141 16.8289 43.447C17.0716 45.8578 17.2681 48.2182 16.9192 50.4837L15.3388 50.2825C15.6538 48.2377 15.4824 46.0614 15.2381 43.636C15.2147 43.4035 15.1907 43.1689 15.1664 42.9322C14.9401 40.726 14.6952 38.3373 14.7815 35.7929Z" fill="#918B97"/>
<path fill-rule="evenodd" clip-rule="evenodd" d="M11.1506 46.6934L11.4401 45.5689C11.997 43.4059 12.7417 42.2623 13.7316 41.8567C14.1864 41.6704 14.5947 41.6901 14.8515 41.71C14.9053 41.7141 14.9483 41.7179 14.9846 41.7211C15.0509 41.7269 15.0954 41.7308 15.1439 41.7317C15.1501 41.7318 15.1555 41.7318 15.1602 41.7318L16.0357 41.3543L16.0459 42.4044C16.0573 43.5784 15.8474 44.6256 15.0508 45.3814C14.3418 46.0541 13.3212 46.3226 12.173 46.5187L11.1506 46.6934ZM15.1844 41.7307C15.1844 41.7307 15.1839 41.7308 15.1829 41.7309L15.1844 41.7307ZM13.251 44.6274C13.7182 44.4897 13.9976 44.3406 14.1714 44.1757C14.3088 44.0453 14.4451 43.8377 14.5096 43.3701C14.3126 43.3572 14.1865 43.3675 14.0756 43.4129C13.9573 43.4614 13.6305 43.6511 13.251 44.6274Z" fill="#918B97"/>
<path fill-rule="evenodd" clip-rule="evenodd" d="M19.4435 35.1193L18.5115 34.8974C16.6508 34.4544 15.7524 33.7264 15.6183 32.6426C15.5571 32.1473 15.68 31.6906 15.7621 31.4089C15.7796 31.3488 15.7939 31.3012 15.806 31.261C15.8277 31.1886 15.8421 31.1406 15.8548 31.0883C15.8557 31.0849 15.8564 31.0817 15.8571 31.0788L15.7252 30.1542L16.6694 30.0665C17.7505 29.9661 18.6757 30.1103 19.1875 30.9379C19.4259 31.3233 19.5315 31.7951 19.5713 32.2979C19.6111 32.8004 19.5884 33.3839 19.5342 34.0333L19.4435 35.1193ZM15.8635 31.0468C15.8635 31.0467 15.8634 31.0478 15.863 31.05C15.8633 31.0479 15.8634 31.0468 15.8635 31.0468ZM18.0757 32.9781C18.0737 32.8763 18.0692 32.7814 18.0622 32.6929C18.0335 32.3297 17.9659 32.1247 17.8907 32.0031C17.8066 31.8671 17.6441 31.7289 17.1935 31.6981C17.1275 31.9282 17.1063 32.0631 17.12 32.1743C17.133 32.2795 17.2184 32.6295 18.0757 32.9781Z" fill="#918B97"/>
<path fill-rule="evenodd" clip-rule="evenodd" d="M22.0514 28.1769L21.1194 27.955C19.2587 27.512 18.3603 26.784 18.2262 25.7002C18.165 25.2049 18.2879 24.7482 18.37 24.4665C18.3875 24.4065 18.4018 24.3588 18.4139 24.3186C18.4356 24.2463 18.45 24.1982 18.4628 24.1459C18.4636 24.1425 18.4643 24.1393 18.465 24.1364L18.3331 23.2118L19.2773 23.1241C20.3584 23.0238 21.2836 23.1679 21.7954 23.9955C22.0338 24.3809 22.1395 24.8527 22.1792 25.3555C22.219 25.858 22.1963 26.4415 22.1421 27.0909L22.0514 28.1769ZM18.4714 24.1044C18.4714 24.1043 18.4713 24.1054 18.4709 24.1076C18.4712 24.1055 18.4714 24.1044 18.4714 24.1044ZM20.6836 26.0357C20.6816 25.9339 20.6771 25.839 20.6701 25.7506C20.6414 25.3874 20.5738 25.1823 20.4986 25.0607C20.4145 24.9248 20.252 24.7865 19.8014 24.7557C19.7354 24.9859 19.7142 25.1207 19.7279 25.2319C19.741 25.3371 19.8264 25.6871 20.6836 26.0357Z" fill="#918B97"/>
<path fill-rule="evenodd" clip-rule="evenodd" d="M19.5308 41.8239L18.5251 41.7821C16.6956 41.7061 15.6974 41.1895 15.3255 40.215C15.1552 39.7688 15.1632 39.3238 15.1742 39.047C15.1765 38.9876 15.1788 38.9408 15.1806 38.9016C15.184 38.8316 15.1862 38.7857 15.1859 38.7357C15.1858 38.7333 15.1858 38.7311 15.1858 38.7289L14.8315 37.8488L15.7643 37.5742C16.7526 37.2833 17.6539 37.2522 18.3211 37.9299C18.9123 38.5304 19.1616 39.5594 19.3514 40.7236L19.5308 41.8239ZM15.1844 38.6976C15.1844 38.6976 15.1845 38.6986 15.1847 38.7008C15.1844 38.6988 15.1843 38.6977 15.1844 38.6976ZM17.6362 39.9818C17.5187 39.5763 17.3979 39.3467 17.2707 39.2175C17.1728 39.118 17.0158 39.027 16.658 39.0584C16.6546 39.2401 16.6671 39.351 16.7013 39.4405C16.7361 39.5317 16.8799 39.8117 17.6362 39.9818Z" fill="#918B97"/>
<path fill-rule="evenodd" clip-rule="evenodd" d="M75.8235 17.9147C83.0731 18.809 91.2498 21.5821 100.501 30.1513L99.3883 31.301C90.3837 22.9603 82.5172 20.3248 75.591 19.4704C72.3382 19.0692 69.2837 19.0591 66.3622 19.0495C66.1521 19.0488 65.9428 19.0481 65.7341 19.0473C62.6442 19.035 59.6771 18.992 56.8879 18.4048L57.2553 16.8716C59.8596 17.4198 62.6663 17.4669 65.7739 17.4793C65.9866 17.4802 66.2006 17.4809 66.416 17.4816C69.3245 17.4909 72.4704 17.5011 75.8235 17.9147Z" fill="#918B97"/>
<path fill-rule="evenodd" clip-rule="evenodd" d="M69.6659 12.2714L70.8891 12.7555C73.5119 13.7936 74.7685 14.7932 75.1821 15.8383C75.375 16.3259 75.3415 16.7352 75.3083 17.0088C75.3018 17.0619 75.2959 17.1061 75.2907 17.1448C75.2808 17.2197 75.2736 17.2736 75.2705 17.3309C75.2688 17.3609 75.2695 17.3797 75.2701 17.3892L75.6409 18.2792L74.5004 18.1035C73.0622 17.8819 71.8659 17.4514 71.0426 16.5127C70.3032 15.6697 70.017 14.5642 69.8186 13.2686L69.6659 12.2714ZM71.7617 14.5445C71.9291 15.2142 72.1312 15.6419 72.3859 15.9323C72.5983 16.1744 72.9156 16.3919 73.5623 16.5649C73.5644 16.5484 73.5664 16.5329 73.5682 16.5185C73.5972 16.28 73.597 16.0994 73.5246 15.9163C73.4315 15.6811 73.1167 15.2137 71.7617 14.5445Z" fill="#918B97"/>
<path fill-rule="evenodd" clip-rule="evenodd" d="M82.1229 14.8935L83.1199 15.474C85.5238 16.8738 86.6336 18.0429 86.7963 19.1638C86.8711 19.6786 86.717 20.0662 86.6105 20.309C86.5888 20.3584 86.5705 20.3987 86.5548 20.4334C86.5251 20.4989 86.5044 20.5445 86.4866 20.5945C86.4823 20.6066 86.4793 20.6163 86.4771 20.6237L86.6223 21.4957L85.6055 21.1683C84.2199 20.7223 83.078 20.124 82.4471 19.0691C82.1499 18.5721 82.0164 18.0511 81.967 17.5242C81.9177 16.9979 81.9485 16.4187 82.021 15.7842L82.1229 14.8935ZM83.5947 17.3211C83.5913 17.5137 83.5969 17.6893 83.612 17.8505C83.649 18.2451 83.739 18.506 83.8487 18.6892C83.9929 18.9303 84.2755 19.2028 85.0092 19.5069C85.0115 19.502 85.0137 19.4971 85.0158 19.4924C85.028 19.4655 85.0391 19.4409 85.0484 19.4197C85.1432 19.2036 85.1812 19.0558 85.1597 18.9076C85.1351 18.7378 84.9692 18.2516 83.5947 17.3211Z" fill="#918B97"/>
<path fill-rule="evenodd" clip-rule="evenodd" d="M75.8677 22.5535L76.0841 21.7302C76.6158 19.7069 77.515 18.8565 78.7999 18.8302C79.3929 18.8181 79.9466 18.9938 80.306 19.1158C80.3777 19.1401 80.437 19.1607 80.4886 19.1785C80.5872 19.2127 80.6572 19.237 80.7307 19.2588C80.7563 19.2664 80.7746 19.2713 80.7867 19.2743L81.7743 19.2377L81.8803 20.1012C82.0283 21.3076 81.8549 22.2588 80.8732 22.7054C80.4115 22.9155 79.8365 22.9798 79.2058 22.9682C78.5755 22.9566 77.8366 22.8678 77.0036 22.7348L75.8677 22.5535ZM78.0682 21.5159C78.331 21.5423 78.5652 21.5575 78.7738 21.5614C79.2567 21.5702 79.5497 21.5164 79.7346 21.4323C79.9813 21.32 80.1799 21.0825 80.1857 20.4474C80.1726 20.4428 80.1597 20.4384 80.1471 20.434C80.1067 20.42 80.0694 20.4071 80.0372 20.3962C79.7174 20.2877 79.5003 20.2331 79.3095 20.237C79.0745 20.2418 78.5372 20.3581 78.0682 21.5159Z" fill="#918B97"/>
<path fill-rule="evenodd" clip-rule="evenodd" d="M83.6304 25.7097L83.897 24.8539C84.495 22.9341 85.4219 22.1459 86.6705 22.112C87.2501 22.0962 87.7888 22.254 88.1455 22.3664C88.2158 22.3885 88.2741 22.4073 88.3248 22.4236C88.4222 22.455 88.4917 22.4774 88.5647 22.4975C88.5955 22.506 88.6162 22.5108 88.6284 22.5134L89.6513 22.4697L89.7372 23.3545C89.849 24.5057 89.637 25.4036 88.6541 25.8267C87.7688 26.2078 86.422 26.1095 84.8289 25.8814L83.6304 25.7097ZM85.9354 24.6446C86.7584 24.7107 87.2459 24.6693 87.5398 24.5428C87.7858 24.4369 87.9807 24.2272 88.0172 23.6921C87.9852 23.6818 87.9555 23.6722 87.929 23.6639C87.6164 23.5654 87.3946 23.513 87.193 23.5184C86.9397 23.5253 86.4229 23.6436 85.9354 24.6446Z" fill="#918B97"/>
<path fill-rule="evenodd" clip-rule="evenodd" d="M67.1858 21.829L67.2118 20.9824C67.2735 18.9752 67.9044 17.9563 69.1098 17.6595C69.6622 17.5235 70.2147 17.5802 70.5639 17.6227C70.6359 17.6314 70.6945 17.639 70.7448 17.6454C70.8388 17.6575 70.9038 17.6659 70.9722 17.6715C70.9857 17.6726 70.9968 17.6733 71.0056 17.6738L71.9365 17.4274L72.2209 18.2509C72.6015 19.3527 72.6525 20.3038 71.8343 20.9426C71.4488 21.2436 70.929 21.424 70.3503 21.5419C69.7723 21.6595 69.0819 21.7251 68.3021 21.7679L67.1858 21.829ZM69.0834 20.3273C69.2961 20.3013 69.4854 20.2715 69.6536 20.2372C70.0827 20.1498 70.3208 20.0441 70.4574 19.9374C70.635 19.7988 70.7671 19.5534 70.647 18.9664C70.6443 18.9661 70.6417 18.9658 70.639 18.9654C70.6004 18.9605 70.5651 18.9559 70.535 18.9523C70.2246 18.9145 70.0351 18.9096 69.8844 18.9467C69.7191 18.9874 69.2702 19.1753 69.0834 20.3273Z" fill="#918B97"/>
<path fill-rule="evenodd" clip-rule="evenodd" d="M99.9908 42.6275C102.926 47.5733 105.079 54.0681 104.035 65.7294L102.467 65.5871C103.484 54.226 101.387 48.0763 98.6414 43.4511C97.6401 41.764 96.5596 40.2878 95.4741 38.8047C95.0434 38.2164 94.612 37.6269 94.1844 37.0228C92.6945 34.9178 91.2972 32.6917 90.3452 29.9029L91.833 29.3797C92.7121 31.9548 94.0083 34.0351 95.464 36.0917C95.862 36.654 96.2756 37.2192 96.6963 37.794C97.7978 39.2989 98.9475 40.8698 99.9908 42.6275Z" fill="#9CDAC9"/>
<path fill-rule="evenodd" clip-rule="evenodd" d="M89.9864 23.2086L90.7217 24.0638C92.6267 26.2792 93.2208 27.8315 92.9147 29.0486C92.7728 29.6129 92.4557 29.9885 92.2371 30.2307C92.1945 30.2778 92.1583 30.317 92.1266 30.3514C92.0649 30.4184 92.02 30.4671 91.9772 30.5206C91.9564 30.5467 91.9444 30.5643 91.9381 30.5741L91.7243 31.4994L90.8707 30.9074C89.6115 30.0342 88.7175 29.0802 88.5325 27.794C88.3639 26.6227 88.8405 25.4212 89.5283 24.0932L89.9864 23.2086ZM90.4266 26.0072C90.0788 26.8185 89.9723 27.3644 90.0328 27.7852C90.085 28.148 90.2915 28.5591 90.9598 29.1157C90.9761 29.0979 90.992 29.0806 91.0073 29.0641C91.0326 29.0366 91.0561 29.0111 91.0764 28.9886C91.272 28.772 91.3934 28.6009 91.4443 28.3984C91.5113 28.132 91.5198 27.4795 90.4266 26.0072Z" fill="#9CDAC9"/>
<path fill-rule="evenodd" clip-rule="evenodd" d="M103.851 39.1514L104.012 40.3499C104.385 43.119 104.03 44.6756 103.165 45.5305C102.76 45.9299 102.312 46.0982 102.003 46.2021C101.944 46.2221 101.894 46.2384 101.85 46.2527C101.764 46.2808 101.701 46.3013 101.637 46.327C101.598 46.3427 101.577 46.3538 101.568 46.3589L100.873 47.0701L100.45 46.0746C99.8793 44.7313 99.668 43.5057 100.194 42.3533C100.669 41.3127 101.675 40.5307 102.942 39.7275L103.851 39.1514ZM102.692 41.8754C102.024 42.375 101.656 42.7792 101.481 43.1636C101.332 43.4895 101.283 43.9013 101.488 44.5972C101.491 44.5965 101.493 44.5958 101.495 44.595C101.53 44.5835 101.563 44.5728 101.592 44.5631C101.863 44.4716 102.061 44.3816 102.22 44.2244C102.433 44.014 102.766 43.4779 102.692 41.8754Z" fill="#9CDAC9"/>
<path fill-rule="evenodd" clip-rule="evenodd" d="M97.6432 29.5854L97.8418 30.6626C98.38 33.5825 98.1045 35.2369 97.1897 36.1154C96.7665 36.5218 96.2865 36.6689 95.967 36.7555C95.9045 36.7724 95.8519 36.7861 95.8058 36.7981C95.7159 36.8214 95.6507 36.8384 95.5848 36.8606C95.5545 36.8709 95.5352 36.8789 95.5244 36.8838L94.8657 37.5423L94.4341 36.6122C93.7737 35.1892 93.4744 33.8933 93.9809 32.693C94.2205 32.1253 94.6093 31.6622 95.0769 31.2548C95.5441 30.8478 96.1273 30.4647 96.8024 30.0732L97.6432 29.5854ZM96.5891 32.1413C96.3432 32.3083 96.1319 32.4682 95.952 32.6249C95.5883 32.9417 95.391 33.2134 95.2888 33.4554C95.1448 33.7966 95.1149 34.273 95.4366 35.1447C95.4686 35.1362 95.4997 35.1281 95.5292 35.1204C95.566 35.1109 95.6001 35.102 95.6299 35.0939C95.9178 35.0159 96.1129 34.9365 96.2607 34.7945C96.4543 34.6086 96.81 34.0516 96.5891 32.1413Z" fill="#9CDAC9"/>
<path fill-rule="evenodd" clip-rule="evenodd" d="M96.5132 49.4849L97.4575 49.2829C99.9092 48.7585 101.292 49.1311 102.022 50.2003C102.361 50.6958 102.484 51.2487 102.557 51.6186C102.571 51.6908 102.583 51.7515 102.593 51.8047C102.612 51.9082 102.626 51.9833 102.645 52.0594C102.654 52.0954 102.661 52.1181 102.665 52.1305L103.228 52.9229L102.416 53.4071C101.218 54.1222 100.127 54.423 99.1228 53.8045C98.6495 53.5131 98.2632 53.0549 97.9229 52.5075C97.5828 51.9603 97.2625 51.2808 96.9348 50.4953L96.5132 49.4849ZM98.713 50.7945C98.8467 51.0666 98.9751 51.3025 99.1011 51.5052C99.3668 51.9328 99.5955 52.1693 99.7999 52.2951C100.081 52.4685 100.469 52.5187 101.174 52.1957C101.169 52.168 101.164 52.1409 101.159 52.115C101.151 52.0726 101.143 52.0333 101.137 51.9989C101.072 51.6679 101.005 51.4408 100.885 51.2648C100.727 51.0342 100.267 50.6177 98.713 50.7945Z" fill="#9CDAC9"/>
<path fill-rule="evenodd" clip-rule="evenodd" d="M97.7862 59.4742L98.7305 59.2722C101.182 58.7477 102.565 59.1203 103.295 60.1895C103.634 60.685 103.757 61.238 103.83 61.6078C103.844 61.6801 103.856 61.7408 103.866 61.7939C103.885 61.8975 103.899 61.9725 103.918 62.0487C103.927 62.0847 103.934 62.1073 103.938 62.1198L104.501 62.9121L103.689 63.3964C102.491 64.1114 101.4 64.4122 100.396 63.7938C99.9225 63.5024 99.5362 63.0442 99.1959 62.4967C98.8558 61.9496 98.5354 61.27 98.2077 60.4846L97.7862 59.4742ZM99.986 60.7837C100.12 61.0559 100.248 61.2918 100.374 61.4945C100.64 61.922 100.868 62.1585 101.073 62.2843C101.354 62.4577 101.742 62.508 102.447 62.185C102.442 62.1572 102.437 62.1302 102.432 62.1043C102.424 62.0619 102.416 62.0225 102.41 61.9882C102.345 61.6572 102.278 61.43 102.158 61.2541C102 61.0234 101.54 60.6069 99.986 60.7837Z" fill="#9CDAC9"/>
<path fill-rule="evenodd" clip-rule="evenodd" d="M92.3887 41.6171L93.3263 41.2178C95.5188 40.284 96.8979 40.375 97.815 41.2044C98.2413 41.5899 98.481 42.0684 98.6333 42.3929C98.663 42.4563 98.6874 42.5095 98.7088 42.5559C98.7502 42.646 98.78 42.7108 98.8144 42.7761C98.8309 42.8076 98.8425 42.8268 98.849 42.8371L99.5969 43.4899L98.8757 44.1425C97.9002 45.0253 96.9317 45.5022 95.8488 45.1244C94.8705 44.783 93.998 43.79 93.0636 42.5283L92.3887 41.6171ZM94.9179 42.4301C95.4684 43.0754 95.8706 43.3987 96.2112 43.5175C96.4992 43.618 96.8464 43.5999 97.3844 43.2292C97.3829 43.226 97.3814 43.2227 97.3799 43.2195C97.3629 43.1826 97.3472 43.1485 97.3333 43.1188C97.199 42.8326 97.0859 42.6379 96.9317 42.4984C96.7321 42.318 96.2324 42.0401 94.9179 42.4301Z" fill="#9CDAC9"/>
<path fill-rule="evenodd" clip-rule="evenodd" d="M93.2296 84.6495C88.6706 89.3788 82.1375 93.9011 70.2826 96.5995L69.8894 95.0675C81.4508 92.4359 87.7126 88.0629 92.0592 83.554C94.0387 81.5006 95.6272 79.4134 97.1585 77.4015C97.3207 77.1884 97.4823 76.9761 97.6436 76.7648C99.3166 74.5734 100.97 72.477 103.004 70.7423L104.066 71.9404C102.171 73.5565 100.605 75.5308 98.9284 77.7272C98.7673 77.9381 98.6053 78.151 98.442 78.3657C96.916 80.3711 95.2744 82.5284 93.2296 84.6495Z" fill="#918B97"/>
<path fill-rule="evenodd" clip-rule="evenodd" d="M103.295 75.9737L102.628 77.0175C101.178 79.2862 99.9667 80.2701 98.8261 80.4229C98.2955 80.4939 97.8815 80.3634 97.6092 80.267C97.5558 80.2481 97.5117 80.2319 97.4732 80.2178C97.3991 80.1907 97.3462 80.1713 97.2891 80.1549C97.2629 80.1474 97.2455 80.1437 97.2356 80.1419L96.2727 80.2884L96.6205 79.2477C97.0622 77.9258 97.6801 76.8735 98.7684 76.2988C99.7463 75.7824 100.92 75.77 102.263 75.8852L103.295 75.9737ZM100.66 77.4439C99.9554 77.4462 99.4959 77.5389 99.1688 77.7117C98.8963 77.8556 98.6262 78.1085 98.3487 78.7015C98.3669 78.7081 98.384 78.7143 98.3996 78.7198C98.6372 78.804 98.8165 78.8448 99.0066 78.8193C99.2468 78.7872 99.7664 78.6021 100.66 77.4439Z" fill="#918B97"/>
<path fill-rule="evenodd" clip-rule="evenodd" d="M91.3582 91.2614L90.3031 91.7223C87.8996 92.7723 86.3533 92.9541 85.3407 92.4264C84.8757 92.1841 84.6348 91.8378 84.4894 91.6136C84.4596 91.5676 84.4358 91.5299 84.4153 91.4975C84.3771 91.4371 84.3506 91.3953 84.3191 91.353C84.3124 91.344 84.3067 91.3369 84.3022 91.3313L83.4776 90.9218L84.3193 90.2907C85.4101 89.4729 86.5063 88.9302 87.712 89.0557C88.2776 89.1146 88.7771 89.3146 89.2371 89.5826C89.6967 89.8504 90.1582 90.2109 90.6432 90.6355L91.3582 91.2614ZM88.4668 90.9863C88.3272 90.8863 88.1949 90.7997 88.0684 90.726C87.7251 90.526 87.4654 90.445 87.2606 90.4237C87.0019 90.3968 86.651 90.4502 86.0524 90.815C86.0652 90.8351 86.0769 90.8536 86.0873 90.8697C86.2155 91.0674 86.316 91.1804 86.4465 91.2484C86.5918 91.3241 87.0562 91.475 88.4668 90.9863Z" fill="#918B97"/>
<path fill-rule="evenodd" clip-rule="evenodd" d="M88.2344 81.9289L88.826 82.6035C90.2181 84.1907 90.4622 85.3906 89.8094 86.415C89.5086 86.8869 89.0721 87.2169 88.785 87.4246C88.7271 87.4665 88.6791 87.5007 88.6377 87.5303C88.5593 87.5862 88.5043 87.6254 88.4491 87.6689C88.4334 87.6813 88.4218 87.6909 88.4136 87.6979L87.9143 88.5133L87.114 88.0751C86.0415 87.488 85.3371 86.7951 85.4791 85.7624C85.5458 85.2777 85.793 84.7913 86.1303 84.3081C86.4674 83.8252 86.9242 83.3038 87.465 82.7363L88.2344 81.9289ZM87.9386 84.3369C87.797 84.5076 87.6758 84.6649 87.5739 84.8109C87.3184 85.1769 87.2138 85.4303 87.1882 85.6165C87.155 85.8576 87.2383 86.1379 87.7347 86.5004C87.7365 86.4991 87.7383 86.4978 87.7401 86.4966C87.7723 86.4736 87.8018 86.4525 87.827 86.4343C88.081 86.2505 88.2327 86.1181 88.3242 85.9746C88.4322 85.8052 88.616 85.3414 87.9386 84.3369Z" fill="#918B97"/>
<path fill-rule="evenodd" clip-rule="evenodd" d="M93.8022 76.0368L94.5329 76.5836C96.1605 77.8016 96.6735 78.8862 96.2941 79.9912C96.1201 80.4981 95.7866 80.8939 95.5699 81.1406C95.5251 81.1916 95.4884 81.2327 95.4571 81.2679C95.3988 81.3332 95.3589 81.378 95.3192 81.4272C95.3121 81.4361 95.3063 81.4436 95.3016 81.4497L95.0117 82.3473L94.1341 82.0728C93.021 81.7248 92.2025 81.2055 92.0992 80.1953C92.0508 79.7218 92.1711 79.215 92.3735 78.6991C92.5757 78.1836 92.8789 77.6114 93.2472 76.9833L93.8022 76.0368ZM95.2858 81.4718C95.2857 81.4718 95.2859 81.4715 95.2863 81.4708L95.2858 81.4718ZM94.083 78.4814C94.0071 78.6381 93.9433 78.7824 93.8909 78.9158C93.7409 79.2983 93.7049 79.5437 93.722 79.7106C93.7432 79.9177 93.8653 80.1504 94.3704 80.3884C94.3856 80.3714 94.3996 80.3556 94.4119 80.3415C94.6025 80.1246 94.7036 79.9823 94.7507 79.8451C94.8015 79.6972 94.8773 79.2598 94.083 78.4814Z" fill="#918B97"/>
<path fill-rule="evenodd" clip-rule="evenodd" d="M61.2381 100.306C58.0608 100.679 54.4086 100.144 50.0955 98.2378L50.726 96.7751C54.8345 98.5905 58.2069 99.0557 61.0587 98.7212C63.9111 98.3866 66.3069 97.2446 68.4525 95.742C70.4061 94.3739 72.1257 92.7279 73.801 91.1243C73.9775 90.9553 74.1535 90.7868 74.3292 90.6192C76.1431 88.889 77.9551 87.2206 79.9121 86.2428L80.607 87.6738C78.8949 88.5292 77.2466 90.0263 75.4076 91.7805C75.2319 91.9481 75.0547 92.1178 74.8759 92.289C73.2127 93.8818 71.4052 95.6127 69.3465 97.0544C67.0525 98.6608 64.4148 99.9335 61.2381 100.306Z" fill="#9CDAC9"/>
<path fill-rule="evenodd" clip-rule="evenodd" d="M82.7902 82.2866L83.0599 83.1149C83.7109 85.1141 83.4579 86.3192 82.4298 87.0151C81.957 87.3351 81.4158 87.4698 81.0661 87.5494C80.9952 87.5655 80.9368 87.5784 80.8864 87.5895C80.791 87.6105 80.7243 87.6252 80.6556 87.6438C80.6373 87.6487 80.6234 87.6529 80.6133 87.656L79.8284 88.2077L79.2756 87.5099C78.5199 86.5562 78.1435 85.6459 78.6937 84.7469C78.9527 84.3237 79.3809 83.9699 79.8907 83.6548C80.3999 83.3401 81.0357 83.0368 81.7673 82.724L82.7902 82.2866ZM81.5481 84.3626C81.3398 84.4683 81.1576 84.5692 80.9994 84.667C80.6156 84.9043 80.4184 85.0955 80.3209 85.2549C80.1925 85.4647 80.1567 85.7607 80.4843 86.3018C80.492 86.3001 80.4996 86.2985 80.5071 86.2968C80.5462 86.2882 80.5821 86.2802 80.6128 86.2732C80.9238 86.2025 81.1158 86.1398 81.2559 86.045C81.4192 85.9345 81.7835 85.5772 81.5481 84.3626Z" fill="#9CDAC9"/>
<path fill-rule="evenodd" clip-rule="evenodd" d="M82.1565 90.8599L81.4275 91.3991C79.7735 92.6224 78.5713 92.8331 77.6144 92.1529C77.1772 91.8422 76.8995 91.4079 76.7319 91.1338C76.6967 91.0762 76.6687 91.0296 76.6448 90.9899C76.6009 90.9168 76.5711 90.8672 76.5369 90.8164C76.5327 90.8102 76.5289 90.8047 76.5256 90.8L75.7579 90.2759L76.2807 89.5221C76.9501 88.5568 77.6964 87.9068 78.7028 88.0852C79.1763 88.1692 79.6281 88.4269 80.0602 88.7639C80.4917 89.1005 80.945 89.5492 81.43 90.074L82.1565 90.8599ZM76.5066 90.7746C76.5066 90.7746 76.5071 90.7752 76.5082 90.7765C76.5071 90.7753 76.5066 90.7746 76.5066 90.7746ZM79.7326 90.4439C79.6062 90.3279 79.4882 90.2271 79.3773 90.1405C79.0625 89.895 78.8462 89.7978 78.6898 89.7701C78.4935 89.7353 78.2327 89.787 77.8413 90.2212C77.8547 90.2434 77.8669 90.2637 77.8777 90.2814C78.026 90.5239 78.1268 90.653 78.2348 90.7298C78.3433 90.8069 78.7304 91.008 79.7326 90.4439Z" fill="#9CDAC9"/>
<path fill-rule="evenodd" clip-rule="evenodd" d="M73.9164 99.6963L72.9458 99.8929C71.0476 100.277 69.9166 99.9512 69.282 99.0262C68.9891 98.5992 68.8689 98.1276 68.7981 97.8212C68.7835 97.7584 68.7721 97.7074 68.7624 97.6639C68.7443 97.5831 68.7319 97.5279 68.7159 97.4699C68.7124 97.4572 68.7094 97.4471 68.7069 97.4393L68.1316 96.6303L68.9417 96.1286C69.8678 95.5551 70.754 95.3102 71.6002 95.8609C72.3542 96.3515 72.9037 97.3875 73.4467 98.6256L73.9164 99.6963ZM71.6548 98.3087C71.3756 97.8035 71.1512 97.5313 70.9475 97.3987C70.784 97.2923 70.5634 97.2357 70.166 97.3876C70.2242 97.6341 70.2778 97.7899 70.3603 97.9101C70.4539 98.0466 70.734 98.3391 71.6548 98.3087Z" fill="#9CDAC9"/>
<path fill-rule="evenodd" clip-rule="evenodd" d="M65.6938 103.937L64.6324 103.872C62.6958 103.753 61.6789 103.133 61.2383 102.112C61.033 101.636 60.996 101.158 60.9789 100.839C60.9755 100.775 60.9731 100.723 60.971 100.678C60.967 100.593 60.9642 100.533 60.9583 100.471C60.9561 100.447 60.9539 100.431 60.9524 100.421L60.5239 99.4698L61.4615 99.17C62.4861 98.8423 63.3881 98.8469 64.1001 99.5849C64.7321 100.24 65.0872 101.368 65.4076 102.725L65.6938 103.937ZM63.6639 101.985C63.4807 101.44 63.3062 101.114 63.1225 100.923C62.9757 100.771 62.7788 100.664 62.4155 100.69C62.4309 100.923 62.4578 101.091 62.5215 101.239C62.6031 101.428 62.8349 101.773 63.6639 101.985Z" fill="#9CDAC9"/>
<path fill-rule="evenodd" clip-rule="evenodd" d="M66.7831 92.1765L66.9498 93.3205C67.303 95.7454 67.0534 97.1823 66.2698 97.9587C65.9095 98.3156 65.5099 98.4457 65.2539 98.5203C65.201 98.5357 65.1581 98.5477 65.1215 98.558C65.0536 98.577 65.0071 98.59 64.9585 98.6075C64.9493 98.6108 64.9418 98.6137 64.9357 98.6162L64.2886 99.2826L63.8849 98.3041C63.3933 97.1121 63.1693 95.9797 63.6221 94.923C64.0286 93.9746 64.9029 93.3209 65.9383 92.6907L66.7831 92.1765ZM64.9159 98.6251C64.9159 98.6251 64.9161 98.625 64.9165 98.6248L64.9159 98.6251ZM65.683 94.8469C65.2233 95.1978 64.985 95.4806 64.8741 95.7395C64.7837 95.9504 64.7384 96.2533 64.9021 96.8313C64.9098 96.8292 64.9171 96.8271 64.924 96.825C65.1471 96.76 65.2809 96.6991 65.3806 96.6003C65.4885 96.4934 65.747 96.137 65.683 94.8469Z" fill="#9CDAC9"/>
<path fill-rule="evenodd" clip-rule="evenodd" d="M72.1099 87.9953L72.4907 89.294C73.1365 91.4957 73.0577 92.8625 72.4977 93.7555C72.2353 94.1739 71.9081 94.4135 71.6818 94.5681C71.6374 94.5984 71.6006 94.623 71.5688 94.6444C71.5079 94.6851 71.465 94.7139 71.4212 94.7474C71.4001 94.7635 71.3873 94.7746 71.3807 94.7808L70.8365 95.6797L70.2231 94.7032C69.5878 93.6919 69.2594 92.6905 69.5235 91.6102C69.7574 90.6535 70.4323 89.7944 71.299 88.8649L72.1099 87.9953ZM71.4511 91.1906C71.1505 91.5979 70.987 91.9184 70.9185 92.1985C70.8645 92.4194 70.8594 92.6626 70.981 93.0026C71.1236 92.8981 71.2291 92.7994 71.3101 92.6702C71.4232 92.4899 71.5754 92.1016 71.4511 91.1906Z" fill="#9CDAC9"/>
<path fill-rule="evenodd" clip-rule="evenodd" d="M49.7214 29.7775L44.7031 27.2217V39.7403C44.7031 44.5501 48.8218 48.5115 54.0401 48.8448L55.4761 48.8219C60.6945 48.4887 64.8136 44.5501 64.8136 39.7403V38.3609V37.4642V27.2217L59.4348 29.9611C58.5971 28.4104 56.4139 27.2217 54.3991 27.2217C52.5893 27.2217 50.6549 28.382 49.7214 29.7775ZM54.7583 47.5343C59.5286 47.5343 63.3771 44.0355 63.3771 39.7403V38.2335L46.1396 29.4542V39.7403C46.1396 44.0355 49.9881 47.5343 54.7583 47.5343ZM54.7459 32.2713L50.999 30.3858C51.229 30.0616 51.554 29.7282 51.9696 29.4239C52.7498 28.8526 53.6498 28.5322 54.3991 28.5322C55.2923 28.5322 56.3085 28.8709 57.1114 29.4393C57.5933 29.7804 57.9285 30.1513 58.128 30.5081L54.7459 32.2713ZM56.825 32.7913L63.3771 36.1284V29.4542L56.825 32.7913Z" fill="#DFA47B" fill-opacity="0.81"/>
<g filter="url(#filter0_d_777_1766)">
<path fill-rule="evenodd" clip-rule="evenodd" d="M58.8775 73.9506V67.203C58.8775 65.3397 60.5401 63.8292 62.5909 63.8292H72.2456V70.5768C72.2456 72.4401 70.5831 73.9506 68.5323 73.9506H58.8775ZM61.82 72.6011H68.5323C69.7628 72.6011 70.7603 71.6948 70.7603 70.5768V65.8322L61.82 72.6011ZM69.3031 65.1787L60.3629 71.9476V67.203C60.3629 66.085 61.3604 65.1787 62.5909 65.1787H69.3031ZM47.2492 51.7113C49.3 51.7113 50.9626 53.2218 50.9626 55.0851V61.8327H41.3078C39.257 61.8327 37.5945 60.3222 37.5945 58.4589V51.7113H47.2492ZM41.3078 60.4832H48.0201L39.0798 53.7143V58.4589C39.0798 59.5769 40.0773 60.4832 41.3078 60.4832ZM49.4772 59.8297L40.537 53.0609H47.2492C48.4797 53.0609 49.4772 53.9671 49.4772 55.0851V59.8297Z" fill="#3F8881"/>
<path d="M55.4274 51.7113V48.75L54.6878 48.7612H53.9421V68.7949L50.2287 70.9419L53.9421 73.0888V82.7501C53.9421 83.1227 54.2746 83.4248 54.6847 83.4248C55.0949 83.4248 55.4274 83.1227 55.4274 82.7501V69.5924V56.4346L57.4697 55.2538L59.5121 54.073L55.4274 51.7113Z" fill="#3F8881"/>
</g>
<g filter="url(#filter1_d_777_1766)">
<path fill-rule="evenodd" clip-rule="evenodd" d="M55.4274 51.7113V48.75L54.6878 48.7612H53.9421V68.7949L50.2287 70.9419L53.9421 73.0888V82.7501C53.9421 83.1227 54.2746 83.4248 54.6847 83.4248C55.0949 83.4248 55.4274 83.1227 55.4274 82.7501V56.4346L59.5121 54.073L55.4274 51.7113ZM59.3885 54.073L55.3662 51.7474V48.813L54.6878 48.8233L54.0033 48.8233V68.831L50.3522 70.9419L54.0033 73.0528V82.7501C54.0033 83.0823 54.3019 83.3628 54.6847 83.3628C55.0675 83.3628 55.3662 83.0823 55.3662 82.7501V56.3986L59.3885 54.073ZM61.6358 72.6631L70.8215 65.7083V70.5768C70.8215 71.7352 69.7901 72.6631 68.5323 72.6631H61.6358ZM60.3016 72.0715V67.203C60.3016 66.0446 61.333 65.1167 62.5909 65.1167H69.4874L60.3016 72.0715ZM48.2043 60.5452H41.3078C40.05 60.5452 39.0186 59.6173 39.0186 58.4589V53.5904L48.2043 60.5452ZM40.3527 52.9988H47.2492C48.5071 52.9988 49.5385 53.9267 49.5385 55.0851V59.9536L40.3527 52.9988ZM58.8775 73.9506V67.203C58.8775 65.3397 60.5401 63.8292 62.5909 63.8292H72.2456V70.5768C72.2456 72.4401 70.5831 73.9506 68.5323 73.9506H58.8775ZM72.1844 63.8913H62.5909C60.5674 63.8913 58.9388 65.3802 58.9388 67.203V73.8885H68.5323C70.5557 73.8885 72.1844 72.3996 72.1844 70.5768V63.8913ZM70.7603 65.8322V70.5768C70.7603 71.6948 69.7628 72.6011 68.5323 72.6011H61.82L70.7603 65.8322ZM69.3031 65.1787H62.5909C61.3604 65.1787 60.3629 66.085 60.3629 67.203V71.9476L69.3031 65.1787ZM50.9013 55.0851C50.9013 53.2623 49.2727 51.7734 47.2492 51.7734H37.6557V58.4589C37.6557 60.2817 39.2844 61.7706 41.3078 61.7706H50.9013V55.0851ZM50.9626 55.0851C50.9626 53.2218 49.3 51.7113 47.2492 51.7113H37.5945V58.4589C37.5945 60.3222 39.257 61.8327 41.3078 61.8327H50.9626V55.0851ZM48.0201 60.4832L39.0798 53.7143V58.4589C39.0798 59.5769 40.0773 60.4832 41.3078 60.4832H48.0201ZM40.537 53.0609H47.2492C48.4797 53.0609 49.4772 53.9671 49.4772 55.0851V59.8297L40.537 53.0609Z" fill="black"/>
</g>
<g filter="url(#filter2_d_777_1766)">
<path fill-rule="evenodd" clip-rule="evenodd" d="M58.8775 73.9506V67.203C58.8775 65.3397 60.5401 63.8292 62.5909 63.8292H72.2456V70.5768C72.2456 72.4401 70.5831 73.9506 68.5323 73.9506H58.8775ZM61.82 72.6011H68.5323C69.7628 72.6011 70.7603 71.6948 70.7603 70.5768V65.8322L61.82 72.6011ZM69.3031 65.1787L60.3629 71.9476V67.203C60.3629 66.085 61.3604 65.1787 62.5909 65.1787H69.3031ZM47.2492 51.7113C49.3 51.7113 50.9626 53.2218 50.9626 55.0851V61.8327H41.3078C39.257 61.8327 37.5945 60.3222 37.5945 58.4589V51.7113H47.2492ZM41.3078 60.4832H48.0201L39.0798 53.7143V58.4589C39.0798 59.5769 40.0773 60.4832 41.3078 60.4832ZM49.4772 59.8297L40.537 53.0609H47.2492C48.4797 53.0609 49.4772 53.9671 49.4772 55.0851V59.8297Z" fill="#3F8881"/>
<path d="M55.4274 51.7113V48.75L54.6878 48.7612H53.9421V68.7949L50.2287 70.9419L53.9421 73.0888V82.7501C53.9421 83.1227 54.2746 83.4248 54.6847 83.4248C55.0949 83.4248 55.4274 83.1227 55.4274 82.7501V69.5924V56.4346L57.4697 55.2538L59.5121 54.073L55.4274 51.7113Z" fill="#3F8881"/>
</g>
<g filter="url(#filter3_d_777_1766)">
<path fill-rule="evenodd" clip-rule="evenodd" d="M55.4274 51.7113V48.75L54.6878 48.7612H53.9421V68.7949L50.2287 70.9419L53.9421 73.0888V82.7501C53.9421 83.1227 54.2746 83.4248 54.6847 83.4248C55.0949 83.4248 55.4274 83.1227 55.4274 82.7501V56.4346L59.5121 54.073L55.4274 51.7113ZM59.3885 54.073L55.3662 51.7474V48.813L54.6878 48.8233L54.0033 48.8233V68.831L50.3522 70.9419L54.0033 73.0528V82.7501C54.0033 83.0823 54.3019 83.3628 54.6847 83.3628C55.0675 83.3628 55.3662 83.0823 55.3662 82.7501V56.3986L59.3885 54.073ZM61.6358 72.6631L70.8215 65.7083V70.5768C70.8215 71.7352 69.7901 72.6631 68.5323 72.6631H61.6358ZM60.3016 72.0715V67.203C60.3016 66.0446 61.333 65.1167 62.5909 65.1167H69.4874L60.3016 72.0715ZM48.2043 60.5452H41.3078C40.05 60.5452 39.0186 59.6173 39.0186 58.4589V53.5904L48.2043 60.5452ZM40.3527 52.9988H47.2492C48.5071 52.9988 49.5385 53.9267 49.5385 55.0851V59.9536L40.3527 52.9988ZM58.8775 73.9506V67.203C58.8775 65.3397 60.5401 63.8292 62.5909 63.8292H72.2456V70.5768C72.2456 72.4401 70.5831 73.9506 68.5323 73.9506H58.8775ZM72.1844 63.8913H62.5909C60.5674 63.8913 58.9388 65.3802 58.9388 67.203V73.8885H68.5323C70.5557 73.8885 72.1844 72.3996 72.1844 70.5768V63.8913ZM70.7603 65.8322V70.5768C70.7603 71.6948 69.7628 72.6011 68.5323 72.6011H61.82L70.7603 65.8322ZM69.3031 65.1787H62.5909C61.3604 65.1787 60.3629 66.085 60.3629 67.203V71.9476L69.3031 65.1787ZM50.9013 55.0851C50.9013 53.2623 49.2727 51.7734 47.2492 51.7734H37.6557V58.4589C37.6557 60.2817 39.2844 61.7706 41.3078 61.7706H50.9013V55.0851ZM50.9626 55.0851C50.9626 53.2218 49.3 51.7113 47.2492 51.7113H37.5945V58.4589C37.5945 60.3222 39.257 61.8327 41.3078 61.8327H50.9626V55.0851ZM48.0201 60.4832L39.0798 53.7143V58.4589C39.0798 59.5769 40.0773 60.4832 41.3078 60.4832H48.0201ZM40.537 53.0609H47.2492C48.4797 53.0609 49.4772 53.9671 49.4772 55.0851V59.8297L40.537 53.0609Z" fill="black"/>
</g>
<path fill-rule="evenodd" clip-rule="evenodd" d="M26.8653 91.7403L26.0108 90.8422C24.2986 89.0425 23.6978 87.7261 23.8616 86.6522C23.9377 86.1537 24.1714 85.8069 24.333 85.5836C24.3652 85.5391 24.3921 85.5028 24.4153 85.4715C24.4592 85.4121 24.49 85.3705 24.5195 85.3241C24.53 85.3076 24.5368 85.2956 24.5411 85.2876L24.6688 84.3329L25.6103 84.9189C26.7202 85.6097 27.5448 86.4077 27.7915 87.529C28.0119 88.5302 27.7085 89.5912 27.248 90.7651L26.8653 91.7403ZM26.1487 88.843C26.3074 88.2693 26.3349 87.8734 26.2681 87.5697C26.2136 87.3222 26.0731 87.0505 25.6524 86.7016C25.514 86.8931 25.4338 87.0381 25.4085 87.2039C25.3784 87.4016 25.4001 87.8669 26.1487 88.843Z" fill="#918B97"/>
<path fill-rule="evenodd" clip-rule="evenodd" d="M17.6173 85.1808L16.9816 84.2246C15.6207 82.1775 15.2508 80.7824 15.658 79.767C15.8453 79.2998 16.1653 79.0202 16.3749 78.8482C16.4179 78.8129 16.4532 78.7846 16.4834 78.7604C16.5395 78.7153 16.5781 78.6843 16.6168 78.6484C16.6249 78.6408 16.6313 78.6346 16.6362 78.6295L16.9604 77.7718L17.7476 78.4839C18.7162 79.36 19.4039 80.2888 19.4247 81.423C19.4435 82.4417 18.8986 83.3869 18.1894 84.3798L17.6173 85.1808ZM17.5226 82.3529C17.813 81.8404 17.9204 81.4818 17.9152 81.1973C17.9109 80.9645 17.8226 80.6681 17.4182 80.2085C17.4099 80.2152 17.4021 80.2215 17.3948 80.2275C17.212 80.3775 17.11 80.4885 17.0569 80.6211C16.9982 80.7673 16.9071 81.2022 17.5226 82.3529Z" fill="#918B97"/>
<path fill-rule="evenodd" clip-rule="evenodd" d="M26.6923 80.691L26.0578 81.3756C24.6239 82.9229 23.4337 83.356 22.3053 82.9204C21.7863 82.72 21.3958 82.3695 21.1504 82.1393C21.1003 82.0924 21.0596 82.0537 21.0247 82.0204C20.9592 81.9581 20.9138 81.9149 20.8638 81.872C20.8521 81.8618 20.8426 81.8541 20.8354 81.8483L19.9204 81.5134L20.2793 80.6703C20.7422 79.5825 21.3608 78.8086 22.4335 78.7668C22.936 78.7472 23.4613 78.8952 23.9925 79.126C24.5233 79.3566 25.1071 79.6911 25.7467 80.0945L26.6923 80.691ZM24.1255 80.827C23.9542 80.7362 23.7963 80.6593 23.6502 80.5958C23.2514 80.4225 22.9869 80.37 22.8008 80.3772C22.5668 80.3864 22.3038 80.5 22.0065 80.9942C22.0271 81.0138 22.0461 81.0318 22.0628 81.0475C22.2788 81.2501 22.4271 81.3638 22.5773 81.4218C22.7477 81.4876 23.2205 81.583 24.1255 80.827Z" fill="#918B97"/>
<path fill-rule="evenodd" clip-rule="evenodd" d="M19.1613 71.3639L18.5268 72.0485C17.0929 73.5957 15.9027 74.0289 14.7743 73.5933C14.2553 73.3929 13.8648 73.0423 13.6194 72.8122C13.5693 72.7652 13.5286 72.7265 13.4937 72.6933C13.4282 72.631 13.3828 72.5878 13.3328 72.5448C13.3211 72.5347 13.3116 72.5269 13.3043 72.5211L12.3894 72.1862L12.7482 71.3431C13.2112 70.2553 13.8297 69.4814 14.9025 69.4397C15.405 69.4201 15.9303 69.568 16.4615 69.7988C16.9923 70.0295 17.5761 70.364 18.2157 70.7674L19.1613 71.3639ZM16.5945 71.4999C16.4232 71.409 16.2653 71.3321 16.1191 71.2686C15.7204 71.0953 15.4559 71.0428 15.2698 71.0501C15.0358 71.0592 14.7728 71.1729 14.4755 71.6671C14.4961 71.6866 14.515 71.7047 14.5318 71.7204C14.7478 71.9229 14.8961 72.0367 15.0463 72.0947C15.2167 72.1604 15.6894 72.2559 16.5945 71.4999Z" fill="#918B97"/>
<path fill-rule="evenodd" clip-rule="evenodd" d="M33.6617 84.285L33.1615 85.1104C32.124 86.8225 31.0894 87.4673 29.9416 87.3043C29.4133 87.2293 28.975 86.99 28.6978 86.8307C28.6407 86.7979 28.5946 86.7709 28.5553 86.7479C28.4823 86.7053 28.4323 86.6761 28.3779 86.6478C28.367 86.6422 28.358 86.6377 28.3508 86.6343L27.3737 86.5126L27.5558 85.5969C27.7739 84.5002 28.2056 83.6547 29.2118 83.3916C30.113 83.156 31.2781 83.4627 32.5818 83.9125L33.6617 84.285ZM31.1282 85.0014C30.5211 84.8482 30.1475 84.8268 29.9013 84.8911C29.7015 84.9434 29.4939 85.0825 29.3223 85.5369C29.326 85.5391 29.3296 85.5411 29.3331 85.5431C29.5737 85.6814 29.7317 85.7523 29.8808 85.7735C30.0431 85.7966 30.4746 85.7897 31.1282 85.0014Z" fill="#918B97"/>
<path fill-rule="evenodd" clip-rule="evenodd" d="M45.8021 90.6132L45.3019 91.4386C44.2644 93.1506 43.2298 93.7954 42.082 93.6324C41.5537 93.5574 41.1153 93.3181 40.8381 93.1588C40.7811 93.126 40.735 93.0991 40.6957 93.0761C40.6227 93.0334 40.5727 93.0042 40.5182 92.976C40.5073 92.9703 40.4984 92.9659 40.4912 92.9624L39.5141 92.8408L39.6962 91.9251C39.9143 90.8283 40.346 89.9828 41.3522 89.7197C42.2534 89.4842 43.4185 89.7908 44.7222 90.2406L45.8021 90.6132ZM43.2686 91.3295C42.6615 91.1763 42.2879 91.1549 42.0417 91.2193C41.8418 91.2715 41.6343 91.4106 41.4627 91.865C41.4664 91.8672 41.47 91.8693 41.4735 91.8713C41.714 92.0095 41.8721 92.0805 42.0211 92.1016C42.1835 92.1247 42.615 92.1179 43.2686 91.3295Z" fill="#918B97"/>
<path fill-rule="evenodd" clip-rule="evenodd" d="M48.5668 102.774L47.7741 102.532C46.6639 102.193 45.9075 101.816 45.4281 101.39C44.9307 100.948 44.7009 100.421 44.7434 99.8233C44.7823 99.2759 45.047 98.8027 45.207 98.5275C45.2419 98.4676 45.2702 98.4197 45.2943 98.3791C45.338 98.3053 45.3675 98.2556 45.3955 98.2017C45.3956 98.2015 45.3957 98.2012 45.3959 98.201L45.437 97.3582L46.3251 97.3689C47.6171 97.3846 48.6857 97.6146 49.1294 98.5361C49.3444 98.9828 49.3671 99.5081 49.3002 100.049C49.2336 100.587 49.0705 101.2 48.8552 101.873L48.5668 102.774ZM45.4159 98.1585C45.416 98.1585 45.4154 98.1604 45.4136 98.1644C45.415 98.1606 45.4159 98.1586 45.4159 98.1585ZM47.6491 100.697C47.6982 100.49 47.7326 100.307 47.7527 100.145C47.7986 99.7734 47.7615 99.5723 47.7047 99.4543C47.6219 99.2824 47.3865 99.0796 46.5932 99.0058C46.5799 99.0283 46.5671 99.05 46.555 99.0705C46.5369 99.1009 46.5206 99.1285 46.5071 99.1517C46.3581 99.408 46.3064 99.5414 46.2995 99.6395C46.296 99.6878 46.2909 99.8451 46.5664 100.09C46.7717 100.272 47.1097 100.48 47.6491 100.697Z" fill="#9CDAC9"/>
<path fill-rule="evenodd" clip-rule="evenodd" d="M40.3936 101.695L39.2964 101.208C37.139 100.252 36.2864 99.1345 36.1266 97.9147C36.0507 97.3348 36.1454 96.8083 36.2243 96.4299C36.2387 96.3609 36.2515 96.3016 36.263 96.2486C36.2862 96.1409 36.3038 96.0592 36.3178 95.9754C36.3346 95.8747 36.3328 95.8401 36.3331 95.8401L36.1727 94.7392L37.2318 94.7781C38.5079 94.8248 39.4499 95.218 39.97 96.2714C40.4394 97.2222 40.4989 98.6074 40.4396 100.346L40.3936 101.695ZM38.9234 99.077C38.8949 98.1847 38.7895 97.5973 38.5958 97.2049C38.4341 96.8775 38.1873 96.6431 37.718 96.5175C37.716 96.5265 37.7142 96.5354 37.7124 96.544C37.6434 96.8748 37.6017 97.1582 37.6393 97.4451C37.691 97.8396 37.9236 98.4282 38.9234 99.077Z" fill="#9CDAC9"/>
<path fill-rule="evenodd" clip-rule="evenodd" d="M47.4937 93.0185L46.947 94.0198C45.7134 96.279 44.5928 97.3084 43.4399 97.4705C42.9082 97.5453 42.483 97.4094 42.2118 97.3133C42.157 97.2939 42.1122 97.2775 42.0736 97.2634C42.0007 97.2367 41.9498 97.2181 41.8946 97.2022C41.8789 97.1977 41.867 97.1947 41.8583 97.1928L40.9204 97.3427L41.1731 96.3337C41.5 95.0284 42.0187 93.9579 43.0657 93.3632C44.0097 92.827 45.1785 92.8179 46.4904 92.9315L47.4937 93.0185ZM44.9982 94.4826C44.3173 94.4852 43.8945 94.5773 43.6089 94.7395C43.3712 94.8745 43.124 95.1258 42.8907 95.7578C42.9139 95.7663 42.9354 95.7741 42.9543 95.7808C43.1927 95.8652 43.3575 95.9004 43.52 95.8776C43.7106 95.8508 44.1954 95.6882 44.9982 94.4826Z" fill="#9CDAC9"/>
<path fill-rule="evenodd" clip-rule="evenodd" d="M54.8373 92.8321L54.3759 94.0768C53.5421 96.3262 52.6108 97.409 51.5714 97.8047C51.0833 97.9905 50.6505 97.989 50.3547 97.9785C50.2977 97.9764 50.2502 97.9743 50.2087 97.9725C50.1284 97.9689 50.0705 97.9663 50.0095 97.9673C49.9729 97.9679 49.9518 97.97 49.9425 97.9712L48.9523 98.3657L49.0308 97.2392C49.117 96.0017 49.4627 94.9741 50.3652 94.2429C51.1689 93.5918 52.2972 93.2894 53.6511 93.0456L54.8373 92.8321ZM52.4003 94.9598C51.8117 95.1259 51.4252 95.3063 51.1633 95.5185C50.9521 95.6896 50.7791 95.9187 50.6661 96.3332C50.8883 96.338 51.0666 96.3234 51.2439 96.2559C51.4827 96.165 51.8963 95.904 52.4003 94.9598Z" fill="#9CDAC9"/>
<path fill-rule="evenodd" clip-rule="evenodd" d="M63.228 93.2763L62.705 94.323C61.5535 96.6277 60.457 97.6704 59.302 97.8784C58.7663 97.9749 58.3231 97.8639 58.0333 97.7815C57.9759 97.7652 57.9286 97.7513 57.8875 97.7391C57.8088 97.7159 57.7531 97.6995 57.6933 97.6861C57.6696 97.6808 57.6532 97.6781 57.643 97.6767L56.6818 97.8676L56.8866 96.8352C57.1484 95.5151 57.6265 94.4413 58.6613 93.8161C59.592 93.2538 60.7915 93.1872 62.1708 93.2377L63.228 93.2763ZM60.7456 94.8487C60.0315 94.884 59.5833 94.9965 59.2815 95.1789C59.0302 95.3307 58.7902 95.5927 58.5898 96.2043C58.6111 96.2106 58.631 96.2164 58.649 96.2215C58.9024 96.2936 59.0859 96.3238 59.2686 96.2909C59.4948 96.2502 59.9949 96.0501 60.7456 94.8487Z" fill="#9CDAC9"/>
<path fill-rule="evenodd" clip-rule="evenodd" d="M12.9335 55.1312L11.9845 55.0418C9.84581 54.8405 8.77967 54.1692 8.47445 53.0315C8.33406 52.5082 8.395 51.9962 8.44146 51.6686C8.45095 51.6017 8.45912 51.5471 8.46613 51.5002C8.47928 51.4123 8.4884 51.3513 8.4946 51.287C8.49605 51.272 8.49692 51.2601 8.49745 51.251L8.23425 50.3379L9.1519 50.1177C10.3328 49.8342 11.3446 49.8581 12.015 50.6698C12.3289 51.0499 12.5167 51.547 12.6389 52.0976C12.761 52.6479 12.828 53.301 12.8705 54.0383L12.9335 55.1312ZM11.2962 53.2072C11.2706 53.0212 11.2413 52.8537 11.2079 52.7031C11.1162 52.2898 11.0033 52.0527 10.8872 51.9121C10.7415 51.7356 10.4919 51.5981 9.90586 51.6585C9.90186 51.6854 9.8982 51.7102 9.8951 51.732C9.85423 52.0202 9.84725 52.2029 9.88783 52.3541C9.93377 52.5254 10.1335 52.9495 11.2962 53.2072Z" fill="#9CDAC9"/>
<path fill-rule="evenodd" clip-rule="evenodd" d="M14.0659 62.6865L13.0712 62.7865C11.0276 62.992 9.88098 62.566 9.33985 61.5798C9.09055 61.1255 9.03047 60.6437 8.99905 60.333C8.9926 60.2693 8.98777 60.2175 8.98363 60.1732C8.97596 60.091 8.9707 60.0346 8.96197 59.9753C8.96011 59.9626 8.9584 59.9525 8.95695 59.9447L8.47846 59.1088L9.35747 58.7048C10.4032 58.2242 11.3637 58.0612 12.1767 58.6881C12.9041 59.249 13.3377 60.3355 13.735 61.6183L14.0659 62.6865ZM11.9591 61.135C11.7281 60.5748 11.5248 60.2712 11.3246 60.1168C11.1623 59.9916 10.9251 59.9129 10.4517 60.0446C10.4519 60.0467 10.4521 60.0488 10.4523 60.0508C10.4795 60.3199 10.514 60.4865 10.5856 60.617C10.6643 60.7604 10.9261 61.0904 11.9591 61.135Z" fill="#9CDAC9"/>
<path fill-rule="evenodd" clip-rule="evenodd" d="M23.1929 21.0106L23.938 20.0915C25.5979 18.0438 26.9127 17.2831 28.0898 17.3624C28.6379 17.3993 29.0521 17.6196 29.3248 17.7762C29.378 17.8068 29.4221 17.8327 29.4606 17.8553C29.5353 17.8991 29.5889 17.9306 29.647 17.9597C29.6758 17.9742 29.6945 17.982 29.7046 17.9858L30.6856 18.034L30.261 19.0153C29.7091 20.2909 28.9984 21.2459 27.8432 21.6118C26.8033 21.9412 25.5981 21.7105 24.223 21.3104L23.1929 21.0106ZM25.9457 20.0615C26.6907 20.2129 27.183 20.2148 27.5417 20.1012C27.8425 20.006 28.1463 19.7922 28.4824 19.2184C28.4583 19.2043 28.4359 19.1912 28.4158 19.1797C28.1769 19.0425 27.9928 18.9613 27.7915 18.9477C27.5325 18.9303 26.971 19.0194 25.9457 20.0615Z" fill="#9CDAC9"/>
<path fill-rule="evenodd" clip-rule="evenodd" d="M62.8714 7.34788L63.8018 7.94094C65.9516 9.31114 66.8579 10.4954 66.8696 11.6629C66.875 12.2009 66.6784 12.6192 66.5436 12.8851C66.5164 12.9389 66.4936 12.9827 66.4739 13.0206C66.4367 13.0922 66.4106 13.1424 66.3868 13.197C66.38 13.2126 66.3753 13.2246 66.3721 13.2332L66.3997 14.1698L65.4212 13.8633C64.1297 13.4588 63.1043 12.8772 62.6351 11.793C62.2112 10.8133 62.359 9.63949 62.6517 8.33032L62.8714 7.34788ZM64.0146 9.89755C63.922 10.5945 63.9592 11.0304 64.0887 11.3297C64.197 11.5801 64.4278 11.848 65.0628 12.1243C65.0772 12.0966 65.0904 12.0711 65.1016 12.049C65.2205 11.8144 65.2788 11.6509 65.2771 11.4867C65.2752 11.2931 65.1718 10.7897 64.0146 9.89755Z" fill="#9CDAC9"/>
<path fill-rule="evenodd" clip-rule="evenodd" d="M11.1504 46.6943L11.4399 45.5698C11.9967 43.4069 12.7415 42.2633 13.7314 41.8577C14.1862 41.6714 14.5945 41.6911 14.8512 41.7109C14.905 41.7151 14.948 41.7189 14.9844 41.722C15.0507 41.7279 15.0952 41.7317 15.1436 41.7327C15.1498 41.7328 15.1553 41.7328 15.16 41.7328L16.0355 41.3552L16.0457 42.4053C16.057 43.5794 15.8472 44.6266 15.0506 45.3824C14.3415 46.0551 13.3209 46.3235 12.1728 46.5197L11.1504 46.6943ZM15.1842 41.7317C15.1842 41.7317 15.1837 41.7318 15.1826 41.7319L15.1842 41.7317ZM13.2508 44.6284C13.718 44.4907 13.9974 44.3415 14.1712 44.1767C14.3086 44.0463 14.4449 43.8386 14.5093 43.3711C14.3123 43.3582 14.1863 43.3685 14.0754 43.4139C13.957 43.4624 13.6303 43.6521 13.2508 44.6284Z" fill="#918B97"/>
<path fill-rule="evenodd" clip-rule="evenodd" d="M19.4432 35.1203L18.5112 34.8984C16.6505 34.4553 15.7522 33.7274 15.6181 32.6436C15.5568 32.1483 15.6797 31.6916 15.7619 31.4099C15.7794 31.3498 15.7937 31.3022 15.8057 31.262C15.8275 31.1896 15.8419 31.1416 15.8546 31.0892C15.8554 31.0859 15.8562 31.0827 15.8569 31.0798L15.7249 30.1551L16.6691 30.0675C17.7502 29.9671 18.6755 30.1112 19.1873 30.9388C19.4256 31.3243 19.5313 31.796 19.5711 32.2989C19.6108 32.8014 19.5882 33.3849 19.5339 34.0343L19.4432 35.1203ZM15.8632 31.0477C15.8633 31.0477 15.8631 31.0487 15.8628 31.051C15.863 31.0489 15.8632 31.0478 15.8632 31.0477ZM18.0755 32.979C18.0734 32.8773 18.069 32.7824 18.062 32.6939C18.0332 32.3307 17.9656 32.1256 17.8904 32.004C17.8064 31.8681 17.6439 31.7299 17.1933 31.6991C17.1272 31.9292 17.106 32.064 17.1198 32.1752C17.1328 32.2805 17.2182 32.6305 18.0755 32.979Z" fill="#918B97"/>
<path fill-rule="evenodd" clip-rule="evenodd" d="M22.0511 28.1769L21.1192 27.955C19.2584 27.512 18.3601 26.784 18.226 25.7002C18.1647 25.2049 18.2876 24.7482 18.3698 24.4665C18.3873 24.4065 18.4016 24.3588 18.4137 24.3186C18.4354 24.2463 18.4498 24.1982 18.4625 24.1459C18.4633 24.1425 18.4641 24.1393 18.4648 24.1364L18.3328 23.2118L19.277 23.1241C20.3582 23.0238 21.2834 23.1679 21.7952 23.9955C22.0335 24.3809 22.1392 24.8527 22.179 25.3555C22.2187 25.858 22.1961 26.4415 22.1418 27.0909L22.0511 28.1769ZM18.4711 24.1044C18.4712 24.1043 18.4711 24.1054 18.4707 24.1076C18.4709 24.1055 18.4711 24.1044 18.4711 24.1044ZM20.6834 26.0357C20.6814 25.9339 20.6769 25.839 20.6699 25.7506C20.6411 25.3874 20.5735 25.1823 20.4983 25.0607C20.4143 24.9248 20.2518 24.7865 19.8012 24.7557C19.7351 24.9859 19.7139 25.1207 19.7277 25.2319C19.7407 25.3371 19.8261 25.6871 20.6834 26.0357Z" fill="#918B97"/>
<path fill-rule="evenodd" clip-rule="evenodd" d="M19.5306 41.8249L18.5248 41.7831C16.6953 41.7071 15.6972 41.1905 15.3252 40.216C15.1549 39.7698 15.1629 39.3248 15.1739 39.048C15.1763 38.9886 15.1785 38.9418 15.1804 38.9026C15.1837 38.8326 15.1859 38.7866 15.1856 38.7367C15.1856 38.7343 15.1856 38.7321 15.1855 38.7299L14.8312 37.8498L15.7641 37.5752C16.7523 37.2843 17.6537 37.2531 18.3209 37.9308C18.9121 38.5314 19.1614 39.5604 19.3512 40.7246L19.5306 41.8249ZM15.1841 38.6986C15.1841 38.6986 15.1843 38.6996 15.1844 38.7018C15.1842 38.6997 15.1841 38.6986 15.1841 38.6986ZM17.6359 39.9827C17.5185 39.5773 17.3976 39.3476 17.2704 39.2184C17.1725 39.119 17.0155 39.028 16.6577 39.0594C16.6543 39.241 16.6669 39.352 16.701 39.4415C16.7358 39.5327 16.8796 39.8126 17.6359 39.9827Z" fill="#918B97"/>
<path fill-rule="evenodd" clip-rule="evenodd" d="M18.1607 55.2677L17.258 54.8459C15.6034 54.0726 14.8808 53.2116 14.9187 52.164C14.936 51.6848 15.1179 51.2762 15.236 51.0254C15.2614 50.9715 15.2818 50.9291 15.2989 50.8936C15.3292 50.8305 15.3491 50.7893 15.3682 50.7433C15.3689 50.7416 15.3695 50.7401 15.3701 50.7386L15.3871 49.7922L16.3471 49.8973C17.3689 50.0093 18.2129 50.3264 18.5645 51.2107C18.8762 51.9951 18.7033 53.0429 18.4238 54.1887L18.1607 55.2677ZM15.3815 50.7081C15.3815 50.708 15.3812 50.7091 15.3805 50.7114C15.3811 50.7092 15.3815 50.7081 15.3815 50.7081ZM17.1392 52.8426C17.1899 52.4218 17.1682 52.164 17.1019 51.9971C17.0508 51.8687 16.9411 51.7234 16.5926 51.614C16.5172 51.7825 16.4856 51.8893 16.4822 51.9837C16.4788 52.077 16.5 52.3914 17.1392 52.8426Z" fill="#918B97"/>
<path fill-rule="evenodd" clip-rule="evenodd" d="M69.6647 12.2704L70.8879 12.7545C73.5107 13.7927 74.7673 14.7922 75.1809 15.8373C75.3738 16.3249 75.3403 16.7342 75.307 17.0078C75.3006 17.0609 75.2947 17.1052 75.2895 17.1438C75.2795 17.2187 75.2724 17.2727 75.2692 17.33C75.2676 17.36 75.2683 17.3787 75.2689 17.3882L75.6396 18.2782L74.4991 18.1025C73.061 17.8809 71.8646 17.4505 71.0413 16.5117C70.302 15.6687 70.0158 14.5632 69.8174 13.2676L69.6647 12.2704ZM71.7605 14.5435C71.9279 15.2132 72.13 15.6409 72.3847 15.9313C72.597 16.1734 72.9144 16.3909 73.561 16.5639C73.5632 16.5474 73.5652 16.5319 73.5669 16.5176C73.5959 16.2791 73.5958 16.0984 73.5233 15.9153C73.4303 15.6802 73.1155 15.2127 71.7605 14.5435Z" fill="#918B97"/>
<path fill-rule="evenodd" clip-rule="evenodd" d="M82.1234 14.8955L83.1204 15.476C85.5243 16.8758 86.6341 18.0448 86.7968 19.1658C86.8716 19.6806 86.7175 20.0682 86.611 20.3109C86.5893 20.3604 86.571 20.4007 86.5553 20.4354C86.5256 20.5008 86.5049 20.5464 86.4871 20.5964C86.4828 20.6085 86.4797 20.6182 86.4776 20.6256L86.6228 21.4976L85.606 21.1703C84.2204 20.7242 83.0785 20.1259 82.4476 19.071C82.1504 18.5741 82.0169 18.053 81.9675 17.5262C81.9182 16.9998 81.949 16.4207 82.0215 15.7861L82.1234 14.8955ZM83.5951 17.3231C83.5918 17.5156 83.5974 17.6913 83.6125 17.8525C83.6495 18.2471 83.7395 18.5079 83.8492 18.6912C83.9934 18.9323 84.276 19.2047 85.0097 19.5088C85.0119 19.5039 85.0141 19.4991 85.0163 19.4943C85.0285 19.4674 85.0396 19.4428 85.0489 19.4216C85.1437 19.2056 85.1817 19.0578 85.1602 18.9095C85.1355 18.7398 84.9697 18.2535 83.5951 17.3231Z" fill="#918B97"/>
<path fill-rule="evenodd" clip-rule="evenodd" d="M75.867 22.5535L76.0834 21.7302C76.6151 19.7069 77.5143 18.8565 78.7992 18.8302C79.3922 18.8181 79.9459 18.9938 80.3053 19.1158C80.377 19.1401 80.4363 19.1607 80.4878 19.1785C80.5864 19.2127 80.6565 19.237 80.73 19.2588C80.7555 19.2664 80.7738 19.2713 80.786 19.2743L81.7735 19.2377L81.8795 20.1012C82.0276 21.3076 81.8542 22.2588 80.8725 22.7054C80.4107 22.9155 79.8357 22.9798 79.205 22.9682C78.5748 22.9566 77.8359 22.8678 77.0029 22.7348L75.867 22.5535ZM78.0675 21.5159C78.3303 21.5423 78.5644 21.5575 78.773 21.5614C79.2559 21.5703 79.5489 21.5164 79.7339 21.4323C79.9806 21.32 80.1792 21.0825 80.185 20.4474C80.1719 20.4428 80.159 20.4384 80.1464 20.434C80.106 20.42 80.0687 20.4071 80.0364 20.3962C79.7166 20.2877 79.4995 20.2331 79.3087 20.237C79.0738 20.2418 78.5364 20.3581 78.0675 21.5159Z" fill="#918B97"/>
<path fill-rule="evenodd" clip-rule="evenodd" d="M83.629 25.7097L83.8955 24.8539C84.4935 22.9341 85.4204 22.1459 86.669 22.112C87.2486 22.0962 87.7874 22.254 88.144 22.3664C88.2143 22.3885 88.2726 22.4073 88.3233 22.4236C88.4208 22.455 88.4903 22.4774 88.5632 22.4975C88.5941 22.506 88.6147 22.5108 88.6269 22.5134L89.6498 22.4697L89.7357 23.3545C89.8475 24.5057 89.6356 25.4036 88.6526 25.8267C87.7673 26.2078 86.4205 26.1095 84.8274 25.8814L83.629 25.7097ZM85.9339 24.6446C86.7569 24.7107 87.2444 24.6693 87.5383 24.5428C87.7843 24.4369 87.9792 24.2272 88.0158 23.6921C87.9837 23.6818 87.954 23.6722 87.9276 23.6639C87.6149 23.5654 87.3932 23.513 87.1916 23.5184C86.9382 23.5253 86.4214 23.6436 85.9339 24.6446Z" fill="#918B97"/>
<path fill-rule="evenodd" clip-rule="evenodd" d="M67.1865 21.829L67.2125 20.9824C67.2742 18.9752 67.9052 17.9563 69.1105 17.6595C69.6629 17.5235 70.2155 17.5802 70.5647 17.6227C70.6366 17.6314 70.6952 17.639 70.7455 17.6454C70.8395 17.6575 70.9045 17.6659 70.973 17.6715C70.9864 17.6726 70.9975 17.6733 71.0063 17.6738L71.9372 17.4274L72.2216 18.2509C72.6022 19.3527 72.6533 20.3038 71.835 20.9426C71.4495 21.2436 70.9297 21.424 70.351 21.5419C69.773 21.6595 69.0827 21.7251 68.3028 21.7679L67.1865 21.829ZM69.0842 20.3273C69.2968 20.3013 69.4861 20.2715 69.6544 20.2372C70.0834 20.1498 70.3215 20.0441 70.4582 19.9374C70.6357 19.7988 70.7678 19.5534 70.6477 18.9664C70.6451 18.9661 70.6424 18.9658 70.6398 18.9654C70.6011 18.9605 70.5658 18.9559 70.5358 18.9523C70.2254 18.9145 70.0358 18.9096 69.8851 18.9467C69.7198 18.9874 69.2709 19.1753 69.0842 20.3273Z" fill="#918B97"/>
<path fill-rule="evenodd" clip-rule="evenodd" d="M52.2802 19.8502L52.5572 19.044C53.2108 17.1419 54.1156 16.3549 55.351 16.4228C55.9176 16.4539 56.4278 16.6688 56.7493 16.8114C56.8153 16.8407 56.869 16.865 56.9152 16.8858C57.0016 16.9248 57.0614 16.9519 57.1252 16.9772C57.1384 16.9825 57.1492 16.9865 57.1577 16.9896L58.121 17.0258L58.1492 17.8999C58.1869 19.0658 57.9533 19.9892 56.9838 20.3603C56.5275 20.535 55.9785 20.5559 55.3912 20.4996C54.8045 20.4435 54.1257 20.3048 53.3678 20.1181L52.2802 19.8502ZM54.5378 18.9654C54.7479 19.0023 54.937 19.029 55.1075 19.0453C55.5441 19.0871 55.8043 19.0555 55.9677 18.993C56.1793 18.912 56.3775 18.7162 56.4369 18.124C56.4353 18.1233 56.4338 18.1226 56.4322 18.1219C56.3967 18.1059 56.3643 18.0912 56.3366 18.0789C56.0512 17.9523 55.8704 17.8917 55.7138 17.8831C55.5402 17.8736 55.0562 17.9238 54.5378 18.9654Z" fill="#918B97"/>
<path fill-rule="evenodd" clip-rule="evenodd" d="M89.9857 23.2106L90.721 24.0658C92.6259 26.2811 93.2201 27.8334 92.914 29.0505C92.7721 29.6149 92.455 29.9905 92.2363 30.2326C92.1937 30.2798 92.1576 30.319 92.1259 30.3534C92.0641 30.4204 92.0193 30.469 91.9765 30.5226C91.9557 30.5486 91.9437 30.5662 91.9374 30.576L91.7236 31.5013L90.87 30.9094C89.6108 30.0362 88.7168 29.0822 88.5317 27.7959C88.3632 26.6246 88.8398 25.4232 89.5276 24.0951L89.9857 23.2106ZM90.4258 26.0091C90.0781 26.8204 89.9716 27.3663 90.0321 27.7871C90.0843 28.15 90.2907 28.561 90.9591 29.1177C90.9754 29.0999 90.9913 29.0826 91.0066 29.066C91.0319 29.0386 91.0553 29.0131 91.0757 28.9905C91.2712 28.774 91.3927 28.6028 91.4436 28.4004C91.5106 28.1339 91.5191 27.4815 90.4258 26.0091Z" fill="#9CDAC9"/>
<path fill-rule="evenodd" clip-rule="evenodd" d="M103.849 39.1523L104.011 40.3509C104.384 43.12 104.029 44.6766 103.163 45.5315C102.759 45.9309 102.31 46.0992 102.002 46.2031C101.943 46.2231 101.893 46.2393 101.849 46.2537C101.763 46.2818 101.7 46.3023 101.636 46.3279C101.597 46.3436 101.576 46.3548 101.566 46.3599L100.871 47.071L100.449 46.0756C99.8781 44.7323 99.6668 43.5067 100.193 42.3543C100.668 41.3137 101.674 40.5316 102.941 39.7285L103.849 39.1523ZM102.691 41.8764C102.022 42.376 101.655 42.7801 101.48 43.1646C101.331 43.4905 101.281 43.9023 101.487 44.5982C101.489 44.5975 101.492 44.5967 101.494 44.596C101.529 44.5845 101.562 44.5738 101.591 44.5641C101.862 44.4726 102.06 44.3825 102.219 44.2253C102.432 44.015 102.765 43.4789 102.691 41.8764Z" fill="#9CDAC9"/>
<path fill-rule="evenodd" clip-rule="evenodd" d="M97.6427 29.5854L97.8413 30.6626C98.3795 33.5825 98.104 35.2369 97.1892 36.1154C96.766 36.5218 96.286 36.6689 95.9665 36.7555C95.904 36.7724 95.8514 36.7861 95.8053 36.7981C95.7154 36.8214 95.6502 36.8384 95.5843 36.8606C95.554 36.8709 95.5347 36.8789 95.5239 36.8838L94.8652 37.5423L94.4336 36.6122C93.7733 35.1892 93.4739 33.8933 93.9805 32.693C94.22 32.1253 94.6088 31.6622 95.0764 31.2548C95.5436 30.8478 96.1269 30.4647 96.8019 30.0732L97.6427 29.5854ZM96.5886 32.1413C96.3427 32.3083 96.1314 32.4682 95.9515 32.6249C95.5879 32.9417 95.3905 33.2134 95.2883 33.4554C95.1443 33.7966 95.1144 34.273 95.4362 35.1447C95.4681 35.1362 95.4992 35.1281 95.5287 35.1204C95.5655 35.1109 95.5996 35.102 95.6295 35.0939C95.9174 35.0159 96.1124 34.9365 96.2602 34.7945C96.4538 34.6086 96.8095 34.0516 96.5886 32.1413Z" fill="#9CDAC9"/>
<path fill-rule="evenodd" clip-rule="evenodd" d="M96.512 49.4849L97.4563 49.2829C99.908 48.7585 101.29 49.1311 102.021 50.2003C102.36 50.6958 102.483 51.2487 102.556 51.6186C102.57 51.6908 102.581 51.7515 102.591 51.8047C102.611 51.9082 102.625 51.9833 102.644 52.0594C102.652 52.0954 102.659 52.1181 102.663 52.1305L103.227 52.9229L102.415 53.4071C101.217 54.1222 100.126 54.423 99.1215 53.8045C98.6483 53.5131 98.262 53.0549 97.9217 52.5075C97.5816 51.9603 97.2613 51.2808 96.9336 50.4953L96.512 49.4849ZM98.7118 50.7945C98.8455 51.0666 98.9739 51.3025 99.0998 51.5052C99.3656 51.9328 99.5943 52.1693 99.7986 52.2951C100.08 52.4685 100.468 52.5187 101.173 52.1957C101.168 52.168 101.163 52.1409 101.158 52.115C101.15 52.0726 101.142 52.0333 101.135 51.9989C101.07 51.6679 101.004 51.4408 100.884 51.2648C100.726 51.0342 100.266 50.6177 98.7118 50.7945Z" fill="#9CDAC9"/>
<path fill-rule="evenodd" clip-rule="evenodd" d="M97.7847 59.4752L98.729 59.2732C101.181 58.7487 102.563 59.1213 103.294 60.1905C103.633 60.686 103.756 61.239 103.828 61.6088C103.843 61.681 103.854 61.7417 103.864 61.7949C103.884 61.8985 103.898 61.9735 103.916 62.0496C103.925 62.0857 103.932 62.1083 103.936 62.1208L104.499 62.9131L103.688 63.3974C102.489 64.1124 101.399 64.4132 100.394 63.7948C99.921 63.5034 99.5347 63.0452 99.1944 62.4977C98.8543 61.9505 98.534 61.271 98.2063 60.4856L97.7847 59.4752ZM99.9845 60.7847C100.118 61.0569 100.247 61.2927 100.373 61.4954C100.638 61.923 100.867 62.1595 101.071 62.2853C101.353 62.4587 101.741 62.5089 102.446 62.186C102.44 62.1582 102.435 62.1312 102.43 62.1052C102.422 62.0629 102.415 62.0235 102.408 61.9892C102.343 61.6582 102.277 61.431 102.156 61.255C101.999 61.0244 101.539 60.6079 99.9845 60.7847Z" fill="#9CDAC9"/>
<path fill-rule="evenodd" clip-rule="evenodd" d="M92.3875 41.6161L93.3251 41.2168C95.5175 40.2831 96.8967 40.3741 97.8138 41.2034C98.2401 41.589 98.4798 42.0674 98.6321 42.392C98.6618 42.4553 98.6862 42.5085 98.7076 42.5549C98.749 42.645 98.7788 42.7098 98.8131 42.7751C98.8297 42.8066 98.8412 42.8258 98.8478 42.8361L99.5957 43.4889L98.8745 44.1415C97.899 45.0243 96.9305 45.5013 95.8475 45.1234C94.8692 44.782 93.9968 43.789 93.0624 42.5274L92.3875 41.6161ZM94.9167 42.4291C95.4672 43.0744 95.8694 43.3977 96.21 43.5165C96.498 43.617 96.8452 43.5989 97.3831 43.2282C97.3816 43.225 97.3801 43.2217 97.3787 43.2185C97.3617 43.1816 97.346 43.1475 97.3321 43.1178C97.1978 42.8317 97.0846 42.6369 96.9304 42.4975C96.7309 42.317 96.2312 42.0392 94.9167 42.4291Z" fill="#9CDAC9"/>
<path fill-rule="evenodd" clip-rule="evenodd" d="M103.295 75.9766L102.628 77.0205C101.178 79.2891 99.9665 80.273 98.8259 80.4258C98.2952 80.4969 97.8812 80.3664 97.609 80.2699C97.5556 80.251 97.5114 80.2348 97.473 80.2207C97.3989 80.1936 97.3459 80.1742 97.2888 80.1578C97.2627 80.1503 97.2453 80.1466 97.2354 80.1448L96.2724 80.2913L96.6202 79.2506C97.0619 77.9288 97.6798 76.8764 98.7682 76.3017C99.7461 75.7854 100.92 75.7729 102.263 75.8882L103.295 75.9766ZM100.659 77.4468C99.9552 77.4492 99.4957 77.5419 99.1686 77.7146C98.896 77.8585 98.626 78.1114 98.3484 78.7044C98.3666 78.711 98.3837 78.7172 98.3993 78.7227C98.637 78.807 98.8163 78.8477 99.0064 78.8223C99.2465 78.7901 99.7662 78.605 100.659 77.4468Z" fill="#918B97"/>
<path fill-rule="evenodd" clip-rule="evenodd" d="M103.234 64.2878L103.77 65.1838C104.554 66.497 105.022 67.5375 105.241 68.3849C105.467 69.2597 105.435 69.9657 105.18 70.5137C104.942 71.0253 104.555 71.2917 104.307 71.4511C104.256 71.4836 104.214 71.51 104.178 71.5328C104.108 71.5763 104.059 71.607 104.011 71.6431C103.999 71.6519 103.99 71.6591 103.983 71.6649L103.636 72.4577L102.945 71.7322C101.862 70.5955 101.106 69.4616 101.115 68.1726C101.119 67.555 101.302 67.005 101.571 66.4981C101.84 65.9924 102.22 65.4836 102.674 64.9483L103.234 64.2878ZM103.19 66.9828C103.035 67.198 102.909 67.3968 102.81 67.5838C102.61 67.9593 102.544 68.2401 102.543 68.4615C102.54 68.7848 102.682 69.2376 103.323 70.0042C103.353 69.9849 103.383 69.9664 103.41 69.9492C103.439 69.9313 103.465 69.9149 103.487 69.9005C103.715 69.7541 103.841 69.6402 103.907 69.4982C103.956 69.3925 104.018 69.1715 103.883 68.6472C103.78 68.2509 103.571 67.7109 103.19 66.9828Z" fill="#918B97"/>
<path fill-rule="evenodd" clip-rule="evenodd" d="M91.3592 91.2634L90.3041 91.7243C87.9005 92.7743 86.3542 92.956 85.3417 92.4284C84.8767 92.1861 84.6357 91.8398 84.4904 91.6156C84.4606 91.5696 84.4367 91.5318 84.4163 91.4995C84.378 91.439 84.3516 91.3972 84.32 91.3549C84.3133 91.3459 84.3077 91.3388 84.3031 91.3333L83.4786 90.9237L84.3203 90.2927C85.4111 89.4748 86.5073 88.9322 87.713 89.0577C88.2786 89.1165 88.778 89.3165 89.238 89.5846C89.6977 89.8524 90.1592 90.2129 90.6442 90.6375L91.3592 91.2634ZM88.4678 90.9883C88.3281 90.8882 88.1959 90.8017 88.0694 90.7279C87.7261 90.5279 87.4664 90.447 87.2616 90.4257C87.0029 90.3987 86.652 90.4522 86.0534 90.817C86.0661 90.8371 86.0779 90.8556 86.0883 90.8716C86.2165 91.0693 86.3169 91.1823 86.4475 91.2504C86.5928 91.3261 87.0572 91.4769 88.4678 90.9883Z" fill="#918B97"/>
<path fill-rule="evenodd" clip-rule="evenodd" d="M88.2329 81.9318L88.8246 82.6064C90.2166 84.1937 90.4608 85.3935 89.8079 86.4179C89.5072 86.8899 89.0706 87.2198 88.7836 87.4275C88.7256 87.4695 88.6776 87.5037 88.6362 87.5332C88.5578 87.5891 88.5028 87.6283 88.4476 87.6718C88.4319 87.6842 88.4203 87.6938 88.4122 87.7008L87.9128 88.5163L87.1125 88.0781C86.04 87.4909 85.3356 86.798 85.4777 85.7653C85.5443 85.2806 85.7915 84.7942 86.1289 84.311C86.4659 83.8281 86.9228 83.3067 87.4635 82.7392L88.2329 81.9318ZM87.9372 84.3398C87.7956 84.5105 87.6743 84.6678 87.5724 84.8138C87.3169 85.1798 87.2123 85.4332 87.1867 85.6194C87.1536 85.8606 87.2368 86.1408 87.7332 86.5033C87.735 86.502 87.7368 86.5008 87.7386 86.4995C87.7708 86.4765 87.8003 86.4555 87.8255 86.4372C88.0795 86.2535 88.2312 86.1211 88.3227 85.9775C88.4307 85.8081 88.6146 85.3443 87.9372 84.3398Z" fill="#918B97"/>
<path fill-rule="evenodd" clip-rule="evenodd" d="M93.8015 76.0388L94.5321 76.5855C96.1597 77.8035 96.6727 78.8881 96.2934 79.9931C96.1194 80.5001 95.7859 80.8959 95.5692 81.1425C95.5244 81.1935 95.4877 81.2347 95.4563 81.2698C95.3981 81.3351 95.3582 81.3799 95.3185 81.4292C95.3113 81.4381 95.3055 81.4456 95.3009 81.4517L95.011 82.3492L94.1334 82.0748C93.0202 81.7267 92.2017 81.2075 92.0984 80.1972C92.05 79.7238 92.1704 79.217 92.3728 78.701C92.5749 78.1855 92.8782 77.6133 93.2465 76.9852L93.8015 76.0388ZM95.285 81.4737C95.285 81.4737 95.2852 81.4734 95.2856 81.4728L95.285 81.4737ZM94.0822 78.4833C94.0064 78.64 93.9425 78.7843 93.8902 78.9178C93.7402 79.3002 93.7042 79.5456 93.7213 79.7125C93.7424 79.9197 93.8646 80.1524 94.3697 80.3904C94.3848 80.3733 94.3988 80.3576 94.4112 80.3434C94.6018 80.1266 94.7029 79.9843 94.75 79.847C94.8008 79.6991 94.8766 79.2617 94.0822 78.4833Z" fill="#918B97"/>
<path fill-rule="evenodd" clip-rule="evenodd" d="M56.0159 104.046C83.7428 104.046 106.092 82.3273 106.092 55.6918C106.092 29.043 83.5361 6.81917 55.8229 6.81917C28.1253 6.81917 5.93928 29.0277 5.93928 55.6918C5.93928 82.3273 28.2889 104.046 56.0159 104.046ZM56.0159 105.641C84.5419 105.641 107.667 83.2782 107.667 55.6918C107.667 28.1055 84.3489 5.22363 55.8229 5.22363C27.2969 5.22363 4.36499 28.1055 4.36499 55.6918C4.36499 83.2782 27.4899 105.641 56.0159 105.641Z" fill="#918B97"/>
<path fill-rule="evenodd" clip-rule="evenodd" d="M49.7214 29.7756L44.7031 27.2197V39.7384C44.7031 44.5481 48.8218 48.5096 54.0401 48.8428L55.4761 48.82C60.6945 48.4867 64.8136 44.5481 64.8136 39.7384V38.3589V37.4623V27.2197L59.4348 29.9592C58.5971 28.4085 56.4139 27.2197 54.3991 27.2197C52.5893 27.2197 50.6549 28.3801 49.7214 29.7756ZM54.7583 47.5323C59.5286 47.5323 63.3771 44.0336 63.3771 39.7384V38.2315L46.1396 29.4522V39.7384C46.1396 44.0336 49.9881 47.5323 54.7583 47.5323ZM54.7459 32.2693L50.999 30.3838C51.229 30.0597 51.554 29.7262 51.9696 29.4219C52.7498 28.8506 53.6498 28.5302 54.3991 28.5302C55.2923 28.5302 56.3085 28.8689 57.1114 29.4373C57.5933 29.7784 57.9285 30.1494 58.128 30.5062L54.7459 32.2693ZM56.825 32.7893L63.3771 36.1264V29.4522L56.825 32.7893Z" fill="#DFA47B" fill-opacity="0.81"/>
<g filter="url(#filter4_d_777_1766)">
<path fill-rule="evenodd" clip-rule="evenodd" d="M58.8775 73.9486V67.2011C58.8775 65.3378 60.5401 63.8273 62.5909 63.8273H72.2456V70.5748C72.2456 72.4381 70.5831 73.9486 68.5323 73.9486H58.8775ZM61.82 72.5991H68.5323C69.7628 72.5991 70.7603 71.6928 70.7603 70.5748V65.8302L61.82 72.5991ZM69.3031 65.1768L60.3629 71.9457V67.2011C60.3629 66.0831 61.3604 65.1768 62.5909 65.1768H69.3031ZM47.2492 51.7094C49.3 51.7094 50.9626 53.2199 50.9626 55.0832V61.8307H41.3078C39.257 61.8307 37.5945 60.3202 37.5945 58.4569V51.7094H47.2492ZM41.3078 60.4812H48.0201L39.0798 53.7123V58.4569C39.0798 59.5749 40.0773 60.4812 41.3078 60.4812ZM49.4772 59.8278L40.537 53.0589H47.2492C48.4797 53.0589 49.4772 53.9652 49.4772 55.0832V59.8278Z" fill="#3F8881"/>
<path d="M55.4274 51.7094V48.748L54.6878 48.7593H53.9421V68.793L50.2287 70.9399L53.9421 73.0869V82.7481C53.9421 83.1208 54.2746 83.4229 54.6847 83.4229C55.0949 83.4229 55.4274 83.1208 55.4274 82.7481V69.5904V56.4327L57.4697 55.2519L59.5121 54.071L55.4274 51.7094Z" fill="#3F8881"/>
</g>
<g filter="url(#filter5_d_777_1766)">
<path fill-rule="evenodd" clip-rule="evenodd" d="M55.4274 51.7094V48.748L54.6878 48.7593H53.9421V68.793L50.2287 70.9399L53.9421 73.0869V82.7481C53.9421 83.1208 54.2746 83.4229 54.6847 83.4229C55.0949 83.4229 55.4274 83.1208 55.4274 82.7481V56.4327L59.5121 54.071L55.4274 51.7094ZM59.3885 54.071L55.3662 51.7454V48.811L54.6878 48.8214L54.0033 48.8213V68.829L50.3522 70.9399L54.0033 73.0508V82.7481C54.0033 83.0803 54.3019 83.3608 54.6847 83.3608C55.0675 83.3608 55.3662 83.0803 55.3662 82.7481V56.3966L59.3885 54.071ZM61.6358 72.6612L70.8215 65.7064V70.5748C70.8215 71.7333 69.7901 72.6612 68.5323 72.6612H61.6358ZM60.3016 72.0695V67.2011C60.3016 66.0426 61.333 65.1147 62.5909 65.1147H69.4874L60.3016 72.0695ZM48.2043 60.5433H41.3078C40.05 60.5433 39.0186 59.6154 39.0186 58.4569V53.5885L48.2043 60.5433ZM40.3527 52.9968H47.2492C48.5071 52.9968 49.5385 53.9247 49.5385 55.0832V59.9516L40.3527 52.9968ZM58.8775 73.9486V67.2011C58.8775 65.3378 60.5401 63.8273 62.5909 63.8273H72.2456V70.5748C72.2456 72.4381 70.5831 73.9486 68.5323 73.9486H58.8775ZM72.1844 63.8893H62.5909C60.5674 63.8893 58.9388 65.3782 58.9388 67.2011V73.8865H68.5323C70.5557 73.8865 72.1844 72.3976 72.1844 70.5748V63.8893ZM70.7603 65.8302V70.5748C70.7603 71.6928 69.7628 72.5991 68.5323 72.5991H61.82L70.7603 65.8302ZM69.3031 65.1768H62.5909C61.3604 65.1768 60.3629 66.0831 60.3629 67.2011V71.9457L69.3031 65.1768ZM50.9013 55.0832C50.9013 53.2604 49.2727 51.7714 47.2492 51.7714H37.6557V58.4569C37.6557 60.2798 39.2844 61.7687 41.3078 61.7687H50.9013V55.0832ZM50.9626 55.0832C50.9626 53.2199 49.3 51.7094 47.2492 51.7094H37.5945V58.4569C37.5945 60.3202 39.257 61.8307 41.3078 61.8307H50.9626V55.0832ZM48.0201 60.4812L39.0798 53.7123V58.4569C39.0798 59.5749 40.0773 60.4812 41.3078 60.4812H48.0201ZM40.537 53.0589H47.2492C48.4797 53.0589 49.4772 53.9652 49.4772 55.0832V59.8278L40.537 53.0589Z" fill="black"/>
</g>
<g filter="url(#filter6_d_777_1766)">
<path fill-rule="evenodd" clip-rule="evenodd" d="M58.8775 73.9486V67.2011C58.8775 65.3378 60.5401 63.8273 62.5909 63.8273H72.2456V70.5748C72.2456 72.4381 70.5831 73.9486 68.5323 73.9486H58.8775ZM61.82 72.5991H68.5323C69.7628 72.5991 70.7603 71.6928 70.7603 70.5748V65.8302L61.82 72.5991ZM69.3031 65.1768L60.3629 71.9457V67.2011C60.3629 66.0831 61.3604 65.1768 62.5909 65.1768H69.3031ZM47.2492 51.7094C49.3 51.7094 50.9626 53.2199 50.9626 55.0832V61.8307H41.3078C39.257 61.8307 37.5945 60.3202 37.5945 58.4569V51.7094H47.2492ZM41.3078 60.4812H48.0201L39.0798 53.7123V58.4569C39.0798 59.5749 40.0773 60.4812 41.3078 60.4812ZM49.4772 59.8278L40.537 53.0589H47.2492C48.4797 53.0589 49.4772 53.9652 49.4772 55.0832V59.8278Z" fill="#3F8881"/>
<path d="M55.4274 51.7094V48.748L54.6878 48.7593H53.9421V68.793L50.2287 70.9399L53.9421 73.0869V82.7481C53.9421 83.1208 54.2746 83.4229 54.6847 83.4229C55.0949 83.4229 55.4274 83.1208 55.4274 82.7481V69.5904V56.4327L57.4697 55.2519L59.5121 54.071L55.4274 51.7094Z" fill="#3F8881"/>
</g>
<g filter="url(#filter7_d_777_1766)">
<path fill-rule="evenodd" clip-rule="evenodd" d="M55.4274 51.7094V48.748L54.6878 48.7593H53.9421V68.793L50.2287 70.9399L53.9421 73.0869V82.7481C53.9421 83.1208 54.2746 83.4229 54.6847 83.4229C55.0949 83.4229 55.4274 83.1208 55.4274 82.7481V56.4327L59.5121 54.071L55.4274 51.7094ZM59.3885 54.071L55.3662 51.7454V48.811L54.6878 48.8214L54.0033 48.8213V68.829L50.3522 70.9399L54.0033 73.0508V82.7481C54.0033 83.0803 54.3019 83.3608 54.6847 83.3608C55.0675 83.3608 55.3662 83.0803 55.3662 82.7481V56.3966L59.3885 54.071ZM61.6358 72.6612L70.8215 65.7064V70.5748C70.8215 71.7333 69.7901 72.6612 68.5323 72.6612H61.6358ZM60.3016 72.0695V67.2011C60.3016 66.0426 61.333 65.1147 62.5909 65.1147H69.4874L60.3016 72.0695ZM48.2043 60.5433H41.3078C40.05 60.5433 39.0186 59.6154 39.0186 58.4569V53.5885L48.2043 60.5433ZM40.3527 52.9968H47.2492C48.5071 52.9968 49.5385 53.9247 49.5385 55.0832V59.9516L40.3527 52.9968ZM58.8775 73.9486V67.2011C58.8775 65.3378 60.5401 63.8273 62.5909 63.8273H72.2456V70.5748C72.2456 72.4381 70.5831 73.9486 68.5323 73.9486H58.8775ZM72.1844 63.8893H62.5909C60.5674 63.8893 58.9388 65.3782 58.9388 67.2011V73.8865H68.5323C70.5557 73.8865 72.1844 72.3976 72.1844 70.5748V63.8893ZM70.7603 65.8302V70.5748C70.7603 71.6928 69.7628 72.5991 68.5323 72.5991H61.82L70.7603 65.8302ZM69.3031 65.1768H62.5909C61.3604 65.1768 60.3629 66.0831 60.3629 67.2011V71.9457L69.3031 65.1768ZM50.9013 55.0832C50.9013 53.2604 49.2727 51.7714 47.2492 51.7714H37.6557V58.4569C37.6557 60.2798 39.2844 61.7687 41.3078 61.7687H50.9013V55.0832ZM50.9626 55.0832C50.9626 53.2199 49.3 51.7094 47.2492 51.7094H37.5945V58.4569C37.5945 60.3202 39.257 61.8307 41.3078 61.8307H50.9626V55.0832ZM48.0201 60.4812L39.0798 53.7123V58.4569C39.0798 59.5749 40.0773 60.4812 41.3078 60.4812H48.0201ZM40.537 53.0589H47.2492C48.4797 53.0589 49.4772 53.9652 49.4772 55.0832V59.8278L40.537 53.0589Z" fill="black"/>
</g>
<path fill-rule="evenodd" clip-rule="evenodd" d="M4.33302 61.4693L4.50305 60.3487C4.8501 58.0613 5.4784 56.8146 6.43812 56.34C6.87738 56.1227 7.28778 56.1278 7.54301 56.1385C7.59692 56.1407 7.63996 56.143 7.67638 56.1449C7.74258 56.1484 7.78691 56.1507 7.83492 56.1498C7.83964 56.1497 7.84389 56.1495 7.84771 56.1494L8.65818 55.7284L8.76069 56.7718C8.88063 57.9928 8.77558 59.0986 8.05258 59.9312C7.71557 60.3194 7.29739 60.5815 6.84792 60.7777C6.39876 60.9736 5.87466 61.1221 5.28955 61.2539L4.33302 61.4693ZM7.87423 56.1472C7.87425 56.1472 7.87351 56.1473 7.87194 56.1475C7.87342 56.1473 7.8742 56.1472 7.87423 56.1472ZM6.17321 59.298C6.27607 59.2617 6.37125 59.2245 6.45935 59.1861C6.78685 59.0432 6.97259 58.9017 7.08295 58.7746C7.20942 58.629 7.33139 58.3894 7.34463 57.8428C7.12614 57.834 6.99714 57.8491 6.89068 57.9018C6.78668 57.9532 6.46625 58.1689 6.17321 59.298Z" fill="#9CDAC9"/>
<path fill-rule="evenodd" clip-rule="evenodd" d="M5.74419 69.4654L5.87525 68.2725C6.15249 65.7491 6.79562 64.4137 7.76782 63.8389C8.2187 63.5723 8.65455 63.5299 8.94204 63.5114C8.9993 63.5078 9.04648 63.5052 9.08731 63.503C9.16496 63.4988 9.21967 63.4958 9.27715 63.4887C9.2981 63.4861 9.31276 63.4836 9.32215 63.4817L10.145 62.9745L10.3062 64.043C10.5051 65.3613 10.4283 66.5256 9.70066 67.452C9.04832 68.2826 7.99204 68.7383 6.73953 69.1434L5.74419 69.4654ZM7.51109 67.107C8.11229 66.8475 8.4633 66.6025 8.66738 66.3426C8.83572 66.1283 8.96216 65.821 8.94726 65.2165C8.93575 65.2172 8.92482 65.2178 8.91456 65.2185C8.6646 65.2345 8.49264 65.2664 8.34206 65.3554C8.15975 65.4632 7.78784 65.7991 7.51109 67.107Z" fill="#9CDAC9"/>
<path fill-rule="evenodd" clip-rule="evenodd" d="M15.7869 78.267L14.6929 77.8391C12.3216 76.9118 11.182 75.9423 10.8754 74.8447C10.7336 74.337 10.8083 73.9049 10.866 73.6251C10.8775 73.569 10.8875 73.523 10.8961 73.4832C10.9124 73.408 10.9239 73.3553 10.9321 73.2988C10.9347 73.2807 10.936 73.2673 10.9367 73.2582L10.6622 72.3413L11.7177 72.4653C13.0421 72.621 14.1544 72.9983 14.868 73.9462C15.5091 74.7977 15.6733 75.9374 15.737 77.2427L15.7869 78.267ZM13.9847 75.9648C13.8913 75.3131 13.7461 74.913 13.5496 74.6521C13.3872 74.4364 13.1184 74.2312 12.5057 74.0848C12.5023 74.1006 12.4992 74.1154 12.4964 74.129C12.446 74.3732 12.4327 74.5427 12.478 74.7049C12.5319 74.8979 12.7561 75.3457 13.9847 75.9648Z" fill="#9CDAC9"/>
<path fill-rule="evenodd" clip-rule="evenodd" d="M106.913 50.877L107.051 52.0025C107.39 54.7666 107.027 56.3169 106.111 57.122C105.687 57.4952 105.222 57.6253 104.913 57.7014C104.852 57.7163 104.801 57.7283 104.757 57.7387C104.671 57.7589 104.609 57.7735 104.545 57.793C104.517 57.8018 104.499 57.8087 104.489 57.813L103.786 58.4552L103.396 57.4863C102.848 56.1236 102.64 54.8844 103.195 53.7607C103.697 52.7415 104.741 52.0423 106.02 51.3561L106.913 50.877ZM105.702 53.4354C105.01 53.8787 104.641 54.2438 104.467 54.5971C104.318 54.8984 104.26 55.3128 104.483 56.0722C104.495 56.0693 104.507 56.0664 104.519 56.0636C104.554 56.0553 104.587 56.0476 104.615 56.0407C104.89 55.9731 105.079 55.9027 105.228 55.7719C105.419 55.6033 105.773 55.1115 105.702 53.4354Z" fill="#9CDAC9"/>
<path fill-rule="evenodd" clip-rule="evenodd" d="M11.7499 30.113L12.3425 29.0823C13.4259 27.1978 14.4137 26.3205 15.4302 26.2059C15.8973 26.1532 16.2673 26.2821 16.4976 26.37C16.5461 26.3886 16.5846 26.4038 16.617 26.4165C16.6756 26.4396 16.7146 26.455 16.7581 26.4687C16.7627 26.4701 16.7667 26.4714 16.7704 26.4724L17.7029 26.3495L17.4209 27.3887C17.1191 28.5009 16.6454 29.4369 15.7104 29.9353C14.8819 30.377 13.876 30.3538 12.775 30.2291L11.7499 30.113ZM14.3215 28.6729C14.7489 28.6645 15.0249 28.601 15.2164 28.4989C15.3654 28.4195 15.5335 28.2755 15.7061 27.8935C15.548 27.8375 15.4396 27.8174 15.3353 27.8292C15.2214 27.842 14.8924 27.9244 14.3215 28.6729Z" fill="#918B97"/>
<defs>
<filter id="filter0_d_777_1766" x="37.38" y="48.75" width="35.08" height="35.1037" filterUnits="userSpaceOnUse" color-interpolation-filters="sRGB">
<feFlood flood-opacity="0" result="BackgroundImageFix"/>
<feColorMatrix in="SourceAlpha" type="matrix" values="0 0 0 0 0 0 0 0 0 0 0 0 0 0 0 0 0 0 127 0" result="hardAlpha"/>
<feOffset dy="0.214442"/>
<feGaussianBlur stdDeviation="0.107221"/>
<feComposite in2="hardAlpha" operator="out"/>
<feColorMatrix type="matrix" values="0 0 0 0 0 0 0 0 0 0 0 0 0 0 0 0 0 0 0.25 0"/>
<feBlend mode="normal" in2="BackgroundImageFix" result="effect1_dropShadow_777_1766"/>
<feBlend mode="normal" in="SourceGraphic" in2="effect1_dropShadow_777_1766" result="shape"/>
</filter>
<filter id="filter1_d_777_1766" x="37.38" y="48.75" width="35.08" height="35.1037" filterUnits="userSpaceOnUse" color-interpolation-filters="sRGB">
<feFlood flood-opacity="0" result="BackgroundImageFix"/>
<feColorMatrix in="SourceAlpha" type="matrix" values="0 0 0 0 0 0 0 0 0 0 0 0 0 0 0 0 0 0 127 0" result="hardAlpha"/>
<feOffset dy="0.214442"/>
<feGaussianBlur stdDeviation="0.107221"/>
<feComposite in2="hardAlpha" operator="out"/>
<feColorMatrix type="matrix" values="0 0 0 0 0 0 0 0 0 0 0 0 0 0 0 0 0 0 0.25 0"/>
<feBlend mode="normal" in2="BackgroundImageFix" result="effect1_dropShadow_777_1766"/>
<feBlend mode="normal" in="SourceGraphic" in2="effect1_dropShadow_777_1766" result="shape"/>
</filter>
<filter id="filter2_d_777_1766" x="37.38" y="48.75" width="35.08" height="35.1037" filterUnits="userSpaceOnUse" color-interpolation-filters="sRGB">
<feFlood flood-opacity="0" result="BackgroundImageFix"/>
<feColorMatrix in="SourceAlpha" type="matrix" values="0 0 0 0 0 0 0 0 0 0 0 0 0 0 0 0 0 0 127 0" result="hardAlpha"/>
<feOffset dy="0.214442"/>
<feGaussianBlur stdDeviation="0.107221"/>
<feComposite in2="hardAlpha" operator="out"/>
<feColorMatrix type="matrix" values="0 0 0 0 0 0 0 0 0 0 0 0 0 0 0 0 0 0 0.25 0"/>
<feBlend mode="normal" in2="BackgroundImageFix" result="effect1_dropShadow_777_1766"/>
<feBlend mode="normal" in="SourceGraphic" in2="effect1_dropShadow_777_1766" result="shape"/>
</filter>
<filter id="filter3_d_777_1766" x="37.38" y="48.75" width="35.08" height="35.1037" filterUnits="userSpaceOnUse" color-interpolation-filters="sRGB">
<feFlood flood-opacity="0" result="BackgroundImageFix"/>
<feColorMatrix in="SourceAlpha" type="matrix" values="0 0 0 0 0 0 0 0 0 0 0 0 0 0 0 0 0 0 127 0" result="hardAlpha"/>
<feOffset dy="0.214442"/>
<feGaussianBlur stdDeviation="0.107221"/>
<feComposite in2="hardAlpha" operator="out"/>
<feColorMatrix type="matrix" values="0 0 0 0 0 0 0 0 0 0 0 0 0 0 0 0 0 0 0.25 0"/>
<feBlend mode="normal" in2="BackgroundImageFix" result="effect1_dropShadow_777_1766"/>
<feBlend mode="normal" in="SourceGraphic" in2="effect1_dropShadow_777_1766" result="shape"/>
</filter>
<filter id="filter4_d_777_1766" x="37.38" y="48.748" width="35.08" height="35.1037" filterUnits="userSpaceOnUse" color-interpolation-filters="sRGB">
<feFlood flood-opacity="0" result="BackgroundImageFix"/>
<feColorMatrix in="SourceAlpha" type="matrix" values="0 0 0 0 0 0 0 0 0 0 0 0 0 0 0 0 0 0 127 0" result="hardAlpha"/>
<feOffset dy="0.214442"/>
<feGaussianBlur stdDeviation="0.107221"/>
<feComposite in2="hardAlpha" operator="out"/>
<feColorMatrix type="matrix" values="0 0 0 0 0 0 0 0 0 0 0 0 0 0 0 0 0 0 0.25 0"/>
<feBlend mode="normal" in2="BackgroundImageFix" result="effect1_dropShadow_777_1766"/>
<feBlend mode="normal" in="SourceGraphic" in2="effect1_dropShadow_777_1766" result="shape"/>
</filter>
<filter id="filter5_d_777_1766" x="37.38" y="48.748" width="35.08" height="35.1037" filterUnits="userSpaceOnUse" color-interpolation-filters="sRGB">
<feFlood flood-opacity="0" result="BackgroundImageFix"/>
<feColorMatrix in="SourceAlpha" type="matrix" values="0 0 0 0 0 0 0 0 0 0 0 0 0 0 0 0 0 0 127 0" result="hardAlpha"/>
<feOffset dy="0.214442"/>
<feGaussianBlur stdDeviation="0.107221"/>
<feComposite in2="hardAlpha" operator="out"/>
<feColorMatrix type="matrix" values="0 0 0 0 0 0 0 0 0 0 0 0 0 0 0 0 0 0 0.25 0"/>
<feBlend mode="normal" in2="BackgroundImageFix" result="effect1_dropShadow_777_1766"/>
<feBlend mode="normal" in="SourceGraphic" in2="effect1_dropShadow_777_1766" result="shape"/>
</filter>
<filter id="filter6_d_777_1766" x="37.38" y="48.748" width="35.08" height="35.1037" filterUnits="userSpaceOnUse" color-interpolation-filters="sRGB">
<feFlood flood-opacity="0" result="BackgroundImageFix"/>
<feColorMatrix in="SourceAlpha" type="matrix" values="0 0 0 0 0 0 0 0 0 0 0 0 0 0 0 0 0 0 127 0" result="hardAlpha"/>
<feOffset dy="0.214442"/>
<feGaussianBlur stdDeviation="0.107221"/>
<feComposite in2="hardAlpha" operator="out"/>
<feColorMatrix type="matrix" values="0 0 0 0 0 0 0 0 0 0 0 0 0 0 0 0 0 0 0.25 0"/>
<feBlend mode="normal" in2="BackgroundImageFix" result="effect1_dropShadow_777_1766"/>
<feBlend mode="normal" in="SourceGraphic" in2="effect1_dropShadow_777_1766" result="shape"/>
</filter>
<filter id="filter7_d_777_1766" x="37.38" y="48.748" width="35.08" height="35.1037" filterUnits="userSpaceOnUse" color-interpolation-filters="sRGB">
<feFlood flood-opacity="0" result="BackgroundImageFix"/>
<feColorMatrix in="SourceAlpha" type="matrix" values="0 0 0 0 0 0 0 0 0 0 0 0 0 0 0 0 0 0 127 0" result="hardAlpha"/>
<feOffset dy="0.214442"/>
<feGaussianBlur stdDeviation="0.107221"/>
<feComposite in2="hardAlpha" operator="out"/>
<feColorMatrix type="matrix" values="0 0 0 0 0 0 0 0 0 0 0 0 0 0 0 0 0 0 0.25 0"/>
<feBlend mode="normal" in2="BackgroundImageFix" result="effect1_dropShadow_777_1766"/>
<feBlend mode="normal" in="SourceGraphic" in2="effect1_dropShadow_777_1766" result="shape"/>
</filter>
</defs>
</svg>
