<svg width="223" height="346" viewBox="0 0 223 346" fill="none" xmlns="http://www.w3.org/2000/svg">
<path d="M151.677 345.621L150.286 143.193L144.721 141.802V345.621H151.677Z" fill="#6198B3"/>
<path d="M141.938 141.106L140.547 345.621H144.721V141.802L141.938 141.106Z" fill="#ECEBD5"/>
<path d="M140.962 139.835L140.547 136.933L150.286 137.628V142.498C150.286 143.266 149.663 143.889 148.894 143.889H145.877C145.12 143.889 144.378 143.683 143.729 143.294L142.946 142.824C141.868 142.177 141.139 141.08 140.962 139.835Z" fill="url(#paint0_linear_334_4364)"/>
<path d="M42.8142 167.912L148.269 137.881L148.722 133.237L145.278 130.088L42.3158 166.613L42.8142 167.912Z" fill="url(#paint1_linear_334_4364)"/>
<path d="M146.83 2.08447L145.682 1.03473L144.633 2.18258L144.666 8.87529C145.609 87.8576 146.204 128.931 148.722 133.237C155.118 128.547 152.069 125.278 153.081 106.232L146.83 2.08447Z" fill="#578EA4"/>
<path d="M145.278 130.088L148.722 133.237C146.204 128.931 145.609 87.8576 144.666 8.87529L145.276 129.564L145.278 130.088Z" fill="#E3ECDE"/>
<path d="M148.722 133.237L154.567 130.994L153.081 106.232C152.069 125.278 155.118 128.547 148.722 133.237Z" fill="#E3ECDE"/>
<path fill-rule="evenodd" clip-rule="evenodd" d="M156.289 132.569C153.25 137.743 152.904 140.157 155.309 143.376L220.591 194.326L222.139 194.477L222.29 192.929L156.289 132.569Z" fill="#548DA7"/>
<path d="M154.567 130.994L148.722 133.237L148.269 137.881L155.309 143.376C152.904 140.157 153.25 137.743 156.289 132.569L154.567 130.994Z" fill="#38799E"/>
<path d="M42.3158 166.613L145.278 130.088L145.276 129.564L42.3158 166.613Z" fill="#ECEBD5"/>
<defs>
<linearGradient id="paint0_linear_334_4364" x1="147.503" y1="136.237" x2="145.416" y2="143.889" gradientUnits="userSpaceOnUse">
<stop stop-color="#68A5C3"/>
<stop offset="1" stop-color="#25607C"/>
</linearGradient>
<linearGradient id="paint1_linear_334_4364" x1="47.2996" y1="179.602" x2="151.826" y2="123.85" gradientUnits="userSpaceOnUse">
<stop stop-color="#47879F"/>
<stop offset="1" stop-color="#558DA7"/>
</linearGradient>
</defs>
</svg>
