<svg width="115" height="113" viewBox="0 0 115 113" fill="none" xmlns="http://www.w3.org/2000/svg">
<path d="M107.823 54.6896C107.823 80.7119 82.9842 104.575 55.8509 105.468C30.2672 105.468 4.48445 84.4117 4.48445 58.3894C2.65329 30.2706 26.8977 6.18652 52.4813 6.18652C79.4771 6.18652 103.157 21.0323 107.823 54.6896Z" fill="#1F3F3D"/>
<path fill-rule="evenodd" clip-rule="evenodd" d="M24.9998 85.6307C19.2778 82.4124 13.671 77.2175 9.84226 66.4164L11.3599 65.9277C15.059 76.3629 20.4041 81.2532 25.7876 84.2811C28.2476 85.6647 30.7232 86.6644 33.1181 87.6315C33.3714 87.7337 33.6238 87.8357 33.8752 87.9376C36.4788 88.9938 38.9925 90.0624 41.1192 91.5984L40.1746 92.8477C38.2302 91.4434 35.8937 90.4399 33.2767 89.3784C33.0257 89.2766 32.7723 89.1743 32.5167 89.0711C30.1322 88.1086 27.5581 87.0696 24.9998 85.6307Z" fill="#918B97"/>
<path fill-rule="evenodd" clip-rule="evenodd" d="M26.865 91.7423L26.0105 90.8442C24.2983 89.0444 23.6975 87.7281 23.8613 86.6542C23.9374 86.1556 24.1711 85.8088 24.3327 85.5856C24.3649 85.5411 24.3918 85.5048 24.415 85.4734C24.4589 85.414 24.4897 85.3724 24.5192 85.3261C24.5297 85.3096 24.5365 85.2975 24.5408 85.2896L24.6685 84.3349L25.61 84.9209C26.7199 85.6117 27.5445 86.4097 27.7912 87.5309C28.0116 88.5321 27.7082 89.5931 27.2476 90.767L26.865 91.7423ZM26.1484 88.845C26.3071 88.2713 26.3346 87.8753 26.2677 87.5717C26.2133 87.3241 26.0728 87.0525 25.6521 86.7036C25.5137 86.895 25.4335 87.04 25.4082 87.2058C25.3781 87.4036 25.3998 87.8688 26.1484 88.845Z" fill="#918B97"/>
<path fill-rule="evenodd" clip-rule="evenodd" d="M17.617 85.1808L16.9813 84.2246C15.6204 82.1775 15.2505 80.7824 15.6577 79.767C15.845 79.2998 16.1649 79.0202 16.3746 78.8482C16.4176 78.8129 16.4529 78.7846 16.4831 78.7604C16.5392 78.7153 16.5778 78.6843 16.6165 78.6484C16.6246 78.6408 16.631 78.6346 16.6359 78.6295L16.9601 77.7718L17.7473 78.4839C18.7159 79.36 19.4036 80.2888 19.4244 81.423C19.4432 82.4417 18.8983 83.3869 18.1891 84.3798L17.617 85.1808ZM17.5223 82.3529C17.8127 81.8404 17.9201 81.4818 17.9149 81.1973C17.9106 80.9645 17.8223 80.6681 17.4179 80.2085C17.4096 80.2152 17.4018 80.2215 17.3945 80.2275C17.2117 80.3775 17.1097 80.4885 17.0566 80.6211C16.9979 80.7673 16.9068 81.2022 17.5223 82.3529Z" fill="#918B97"/>
<path fill-rule="evenodd" clip-rule="evenodd" d="M26.692 80.691L26.0575 81.3756C24.6236 82.9229 23.4334 83.356 22.305 82.9204C21.786 82.72 21.3955 82.3695 21.1501 82.1393C21.1 82.0924 21.0593 82.0537 21.0244 82.0204C20.9589 81.9581 20.9135 81.9149 20.8635 81.872C20.8518 81.8618 20.8423 81.8541 20.835 81.8483L19.9201 81.5134L20.2789 80.6703C20.7419 79.5825 21.3605 78.8086 22.4332 78.7668C22.9357 78.7472 23.461 78.8952 23.9922 79.126C24.523 79.3566 25.1068 79.6911 25.7464 80.0945L26.692 80.691ZM24.1252 80.827C23.9539 80.7362 23.796 80.6593 23.6498 80.5958C23.2511 80.4225 22.9866 80.37 22.8005 80.3772C22.5665 80.3864 22.3035 80.5 22.0062 80.9942C22.0268 81.0138 22.0457 81.0318 22.0625 81.0475C22.2785 81.2501 22.4268 81.3638 22.577 81.4218C22.7474 81.4876 23.2201 81.583 24.1252 80.827Z" fill="#918B97"/>
<path fill-rule="evenodd" clip-rule="evenodd" d="M19.1629 71.3639L18.5285 72.0485C17.0946 73.5957 15.9043 74.0289 14.7759 73.5933C14.2569 73.3929 13.8664 73.0423 13.621 72.8122C13.5709 72.7652 13.5303 72.7265 13.4953 72.6933C13.4299 72.631 13.3844 72.5878 13.3345 72.5448C13.3227 72.5347 13.3133 72.5269 13.306 72.5211L12.3911 72.1862L12.7499 71.3431C13.2128 70.2553 13.8314 69.4814 14.9042 69.4397C15.4067 69.4201 15.932 69.568 16.4631 69.7988C16.9939 70.0295 17.5777 70.364 18.2173 70.7674L19.1629 71.3639ZM16.5962 71.4999C16.4248 71.409 16.267 71.3321 16.1208 71.2686C15.7221 71.0953 15.4575 71.0428 15.2714 71.0501C15.0374 71.0592 14.7744 71.1729 14.4771 71.6671C14.4977 71.6866 14.5167 71.7047 14.5335 71.7204C14.7494 71.9229 14.8977 72.0367 15.048 72.0947C15.2183 72.1604 15.6911 72.2559 16.5962 71.4999Z" fill="#918B97"/>
<path fill-rule="evenodd" clip-rule="evenodd" d="M33.6614 84.288L33.1612 85.1134C32.1237 86.8254 31.0891 87.4702 29.9413 87.3072C29.413 87.2322 28.9747 86.9929 28.6974 86.8336C28.6404 86.8008 28.5943 86.7739 28.555 86.7509C28.482 86.7082 28.432 86.679 28.3776 86.6508C28.3667 86.6451 28.3577 86.6407 28.3505 86.6372L27.3734 86.5156L27.5555 85.5999C27.7736 84.5031 28.2053 83.6576 29.2115 83.3946C30.1127 83.159 31.2778 83.4656 32.5815 83.9154L33.6614 84.288ZM31.1279 85.0043C30.5208 84.8511 30.1472 84.8297 29.901 84.8941C29.7012 84.9463 29.4936 85.0855 29.322 85.5398C29.3257 85.542 29.3293 85.5441 29.3328 85.5461C29.5734 85.6843 29.7314 85.7553 29.8805 85.7764C30.0428 85.7995 30.4743 85.7927 31.1279 85.0043Z" fill="#918B97"/>
<path fill-rule="evenodd" clip-rule="evenodd" d="M36.688 96.3066C34.1721 94.635 31.6569 91.9214 29.1089 87.6709L30.5013 86.8734C32.9742 90.9986 35.3448 93.5118 37.6076 95.0152C39.8561 96.5091 42.0413 97.0349 44.2097 97.1145C46.1426 97.1854 48.046 96.9044 50.0167 96.6135C50.2915 96.5729 50.5677 96.5321 50.8455 96.4921C53.0784 96.1702 55.3989 95.8995 57.7328 96.2925L57.4387 97.8303C55.3834 97.4842 53.2919 97.7143 51.062 98.0358C50.7926 98.0746 50.5209 98.1149 50.2471 98.1554C48.2906 98.4452 46.2254 98.751 44.1287 98.6741C41.7045 98.5851 39.2182 97.9877 36.688 96.3066Z" fill="#9CDAC9"/>
<path fill-rule="evenodd" clip-rule="evenodd" d="M48.5665 102.774L47.7738 102.532C46.6636 102.193 45.9072 101.816 45.4278 101.39C44.9304 100.948 44.7006 100.421 44.7431 99.8233C44.782 99.2759 45.0467 98.8027 45.2067 98.5275C45.2416 98.4676 45.2699 98.4197 45.294 98.3791C45.3377 98.3053 45.3672 98.2556 45.3952 98.2017C45.3953 98.2015 45.3954 98.2012 45.3956 98.201L45.4367 97.3582L46.3248 97.3689C47.6167 97.3846 48.6854 97.6146 49.129 98.5361C49.3441 98.9828 49.3668 99.5081 49.2999 100.049C49.2333 100.587 49.0702 101.2 48.8549 101.873L48.5665 102.774ZM45.4156 98.1585C45.4157 98.1585 45.4151 98.1604 45.4133 98.1644C45.4147 98.1606 45.4156 98.1586 45.4156 98.1585ZM47.6488 100.697C47.6979 100.49 47.7323 100.307 47.7524 100.145C47.7983 99.7734 47.7612 99.5723 47.7044 99.4543C47.6216 99.2824 47.3862 99.0796 46.5929 99.0058C46.5796 99.0283 46.5668 99.05 46.5547 99.0705C46.5366 99.1009 46.5203 99.1285 46.5068 99.1517C46.3578 99.408 46.3061 99.5414 46.2992 99.6395C46.2957 99.6878 46.2906 99.8451 46.5661 100.09C46.7714 100.272 47.1094 100.48 47.6488 100.697Z" fill="#9CDAC9"/>
<path fill-rule="evenodd" clip-rule="evenodd" d="M40.3938 101.695L39.2965 101.208C37.1392 100.252 36.2866 99.1345 36.1268 97.9147C36.0508 97.3348 36.1456 96.8083 36.2245 96.4299C36.2389 96.3609 36.2517 96.3016 36.2631 96.2486C36.2864 96.1409 36.304 96.0592 36.318 95.9754C36.3348 95.8747 36.333 95.8401 36.3333 95.8401L36.1729 94.7392L37.232 94.7781C38.5081 94.8248 39.4501 95.218 39.9702 96.2714C40.4396 97.2222 40.4991 98.6074 40.4398 100.346L40.3938 101.695ZM38.9236 99.077C38.8951 98.1847 38.7897 97.5973 38.5959 97.2049C38.4343 96.8775 38.1875 96.6431 37.7181 96.5175C37.7162 96.5265 37.7144 96.5354 37.7126 96.544C37.6436 96.8748 37.6019 97.1582 37.6395 97.4451C37.6912 97.8396 37.9237 98.4282 38.9236 99.077Z" fill="#9CDAC9"/>
<path fill-rule="evenodd" clip-rule="evenodd" d="M47.4929 93.0185L46.9462 94.0198C45.7126 96.279 44.592 97.3084 43.4391 97.4705C42.9074 97.5453 42.4822 97.4094 42.211 97.3133C42.1562 97.2939 42.1114 97.2775 42.0728 97.2634C41.9999 97.2367 41.949 97.2181 41.8938 97.2022C41.8781 97.1977 41.8662 97.1947 41.8575 97.1928L40.9196 97.3427L41.1723 96.3337C41.4992 95.0284 42.0179 93.9579 43.0649 93.3632C44.0089 92.827 45.1777 92.8179 46.4896 92.9315L47.4929 93.0185ZM44.9974 94.4826C44.3165 94.4852 43.8937 94.5773 43.6081 94.7395C43.3704 94.8745 43.1232 95.1258 42.8899 95.7578C42.9131 95.7663 42.9346 95.7741 42.9536 95.7808C43.1919 95.8652 43.3567 95.9004 43.5192 95.8776C43.7098 95.8508 44.1946 95.6882 44.9974 94.4826Z" fill="#9CDAC9"/>
<path fill-rule="evenodd" clip-rule="evenodd" d="M54.8367 92.8321L54.3753 94.0768C53.5416 96.3262 52.6102 97.409 51.5708 97.8047C51.0827 97.9905 50.65 97.989 50.3542 97.9785C50.2971 97.9764 50.2497 97.9743 50.2082 97.9725C50.1278 97.9689 50.07 97.9663 50.009 97.9673C49.9723 97.9679 49.9512 97.97 49.9419 97.9712L48.9518 98.3657L49.0302 97.2392C49.1164 96.0017 49.4622 94.9741 50.3647 94.2429C51.1683 93.5918 52.2966 93.2894 53.6506 93.0456L54.8367 92.8321ZM52.3998 94.9598C51.8111 95.1259 51.4247 95.3063 51.1628 95.5185C50.9515 95.6896 50.7786 95.9187 50.6656 96.3332C50.8877 96.338 51.0661 96.3234 51.2433 96.2559C51.4822 96.165 51.8958 95.904 52.3998 94.9598Z" fill="#9CDAC9"/>
<path fill-rule="evenodd" clip-rule="evenodd" d="M7.82043 56.7462C7.11373 50.3771 8.12404 42.9258 14.8611 33.5417L16.1462 34.4416C9.64416 43.4983 8.73523 50.5535 9.39918 56.5374C9.7027 59.2729 10.3353 61.7932 10.9475 64.2324C11.0123 64.4903 11.0768 64.7473 11.1407 65.0036C11.8021 67.6576 12.4006 70.2509 12.3798 72.8201L10.7915 72.8434C10.8105 70.499 10.2637 68.0856 9.59859 65.4171C9.53481 65.1612 9.46999 64.9032 9.40462 64.6429C8.79481 62.2149 8.13628 59.5928 7.82043 56.7462Z" fill="#9CDAC9"/>
<path fill-rule="evenodd" clip-rule="evenodd" d="M12.9335 55.1312L11.9845 55.0418C9.84575 54.8405 8.77961 54.1692 8.47439 53.0315C8.334 52.5082 8.39494 51.9962 8.4414 51.6686C8.45089 51.6017 8.45905 51.5471 8.46607 51.5002C8.47922 51.4123 8.48834 51.3513 8.49454 51.287C8.49599 51.272 8.49686 51.2601 8.49739 51.251L8.23419 50.3379L9.15184 50.1177C10.3328 49.8342 11.3446 49.8581 12.0149 50.6698C12.3289 51.0499 12.5166 51.547 12.6388 52.0976C12.7609 52.6479 12.8279 53.301 12.8704 54.0383L12.9335 55.1312ZM11.2961 53.2072C11.2705 53.0212 11.2413 52.8537 11.2078 52.7031C11.1161 52.2898 11.0033 52.0527 10.8871 51.9121C10.7414 51.7356 10.4918 51.5981 9.9058 51.6585C9.9018 51.6854 9.89814 51.7102 9.89504 51.732C9.85417 52.0202 9.84719 52.2029 9.88777 52.3541C9.93371 52.5254 10.1335 52.9495 11.2961 53.2072Z" fill="#9CDAC9"/>
<path fill-rule="evenodd" clip-rule="evenodd" d="M14.066 62.6885L13.0714 62.7885C11.0278 62.9939 9.88116 62.5679 9.34004 61.5818C9.09073 61.1274 9.03066 60.6456 8.99923 60.335C8.99278 60.2712 8.98795 60.2195 8.98382 60.1752C8.97614 60.0929 8.97088 60.0366 8.96215 59.9772C8.96029 59.9646 8.95858 59.9545 8.95714 59.9466L8.47865 59.1108L9.35766 58.7068C10.4034 58.2261 11.3638 58.0632 12.1768 58.6901C12.9043 59.251 13.3379 60.3375 13.7352 61.6202L14.066 62.6885ZM11.9593 61.137C11.7283 60.5768 11.525 60.2731 11.3248 60.1187C11.1625 59.9936 10.9252 59.9148 10.4518 60.0466C10.4521 60.0487 10.4523 60.0507 10.4525 60.0528C10.4797 60.3218 10.5142 60.4885 10.5858 60.619C10.6645 60.7624 10.9263 61.0924 11.9593 61.137Z" fill="#9CDAC9"/>
<path fill-rule="evenodd" clip-rule="evenodd" d="M47.5231 12.1401C55.284 10.6273 64.3549 10.9511 74.8173 17.3992L73.9771 18.7593C63.8941 12.545 55.2325 12.2524 47.7991 13.7014C44.0623 14.4298 40.6295 15.5996 37.4468 16.7059C37.3028 16.756 37.1592 16.806 37.016 16.8558C34.0219 17.8976 31.2113 18.8756 28.6501 19.2824L28.4287 17.7115C30.8463 17.3275 33.534 16.3927 36.5903 15.3296C36.7107 15.2878 36.8316 15.2457 36.9531 15.2035C40.1328 14.0982 43.6627 12.8926 47.5231 12.1401Z" fill="#9CDAC9"/>
<path fill-rule="evenodd" clip-rule="evenodd" d="M31.1836 12.26L32.341 12.1959C35.0289 12.047 36.5069 12.4947 37.2329 13.4215C37.5697 13.8514 37.6698 14.3043 37.7262 14.606C37.7373 14.6654 37.746 14.7149 37.7537 14.758C37.7683 14.841 37.7788 14.9003 37.794 14.9614C37.8005 14.9874 37.8058 15.0045 37.8093 15.0145L38.4104 15.7524L37.4017 16.0808C36.0505 16.5207 34.8341 16.6416 33.7766 16.0375C32.8216 15.492 32.2056 14.4509 31.6155 13.1859L31.1836 12.26ZM33.6907 13.6287C34.0671 14.2854 34.3895 14.6458 34.7108 14.8293C34.9815 14.984 35.358 15.0653 36.0631 14.9163C36.0629 14.9153 36.0627 14.9143 36.0625 14.9133C36.0565 14.8793 36.051 14.8479 36.0459 14.8206C35.9962 14.5549 35.9393 14.3721 35.8225 14.223C35.6746 14.0341 35.2373 13.6766 33.6907 13.6287Z" fill="#9CDAC9"/>
<path fill-rule="evenodd" clip-rule="evenodd" d="M23.1952 21.0077L23.9403 20.0886C25.6003 18.0409 26.9151 17.2802 28.0922 17.3595C28.6403 17.3964 29.0544 17.6167 29.3272 17.7733C29.3804 17.8038 29.4245 17.8297 29.463 17.8523C29.5376 17.8961 29.5913 17.9277 29.6494 17.9568C29.6782 17.9712 29.6969 17.979 29.707 17.9829L30.688 18.0311L30.2634 19.0124C29.7115 20.288 29.0008 21.2429 27.8456 21.6088C26.8057 21.9382 25.6005 21.7076 24.2254 21.3074L23.1952 21.0077ZM25.9481 20.0586C26.693 20.21 27.1854 20.2119 27.5441 20.0983C27.8448 20.003 28.1487 19.7892 28.4848 19.2155C28.4607 19.2014 28.4383 19.1883 28.4182 19.1767C28.1793 19.0395 27.9952 18.9583 27.7939 18.9448C27.5349 18.9273 26.9734 19.0164 25.9481 20.0586Z" fill="#9CDAC9"/>
<path fill-rule="evenodd" clip-rule="evenodd" d="M40.8549 8.61213L42.0651 8.65625C44.6575 8.75076 46.0447 9.31949 46.6943 10.2654C46.9967 10.7059 47.0756 11.1492 47.1184 11.4474C47.1268 11.5058 47.1333 11.5543 47.1389 11.5967C47.1499 11.6782 47.1577 11.7365 47.1699 11.797C47.1757 11.8254 47.1806 11.8434 47.1836 11.8533L47.7526 12.6505L46.6951 12.8975C45.3672 13.2078 44.1898 13.2122 43.2051 12.5372C42.3212 11.9313 41.7738 10.8789 41.2563 9.60225L40.8549 8.61213ZM43.3322 10.2159C43.6545 10.8446 43.9426 11.2082 44.2385 11.4111C44.4845 11.5797 44.819 11.6875 45.4379 11.6239C45.4356 11.607 45.4334 11.5912 45.4313 11.5765C45.394 11.3167 45.3464 11.1319 45.2369 10.9725C45.0986 10.771 44.705 10.4033 43.3322 10.2159Z" fill="#9CDAC9"/>
<path fill-rule="evenodd" clip-rule="evenodd" d="M51.1616 6.72337L52.3241 7.01405C54.9007 7.65835 56.1584 8.5268 56.6002 9.6161C56.8061 10.1238 56.7888 10.5876 56.7669 10.899C56.7627 10.9595 56.7586 11.01 56.7551 11.0542C56.7482 11.1398 56.7433 11.2016 56.7424 11.2662C56.7419 11.2996 56.7432 11.3203 56.7442 11.3309L57.13 12.2351L56.0535 12.2612C54.6583 12.295 53.4866 12.051 52.653 11.1643C51.9028 10.3663 51.5835 9.18624 51.3424 7.77905L51.1616 6.72337ZM53.2259 8.808C53.4155 9.5424 53.6298 9.98853 53.8908 10.2662C54.1096 10.4989 54.4354 10.6834 55.0955 10.7478C55.0976 10.7211 55.0995 10.6962 55.1011 10.6739C55.1203 10.4013 55.1132 10.2001 55.0365 10.0109C54.9373 9.76635 54.6089 9.29737 53.2259 8.808Z" fill="#9CDAC9"/>
<path fill-rule="evenodd" clip-rule="evenodd" d="M62.873 7.34788L63.8035 7.94094C65.9533 9.31114 66.8596 10.4954 66.8712 11.6629C66.8766 12.2009 66.6801 12.6192 66.5453 12.8851C66.518 12.9389 66.4952 12.9827 66.4756 13.0206C66.4383 13.0922 66.4123 13.1424 66.3885 13.197C66.3817 13.2126 66.377 13.2246 66.3738 13.2332L66.4013 14.1698L65.4228 13.8633C64.1313 13.4588 63.1059 12.8772 62.6368 11.793C62.2129 10.8133 62.3606 9.63949 62.6533 8.33032L62.873 7.34788ZM64.0163 9.89755C63.9236 10.5945 63.9608 11.0304 64.0903 11.3297C64.1987 11.5801 64.4294 11.848 65.0644 12.1243C65.0788 12.0966 65.092 12.0711 65.1032 12.049C65.2222 11.8144 65.2804 11.6509 65.2788 11.4867C65.2768 11.2931 65.1735 10.7897 64.0163 9.89755Z" fill="#9CDAC9"/>
<path fill-rule="evenodd" clip-rule="evenodd" d="M48.3542 17.6565L48.3276 16.6965C48.2635 14.3816 48.8354 13.1535 49.9661 12.6413C50.488 12.4049 51.0249 12.3795 51.3756 12.3713C51.4457 12.3696 51.5037 12.3687 51.554 12.3679C51.6501 12.3664 51.7182 12.3653 51.7888 12.3604C51.8129 12.3588 51.8301 12.357 51.8415 12.3555L52.7163 11.94L53.0443 12.8177C53.4951 14.0238 53.5931 15.0855 52.8409 15.9236C52.4876 16.3172 51.9957 16.6011 51.4345 16.8269C50.8736 17.0524 50.1963 17.2383 49.4241 17.4136L48.3542 17.6565ZM50.0478 15.7142C50.2792 15.6446 50.484 15.5741 50.6645 15.5015C51.094 15.3288 51.3388 15.1622 51.48 15.0049C51.6661 14.7976 51.7786 14.4804 51.6213 13.827C51.6128 13.8271 51.6045 13.8272 51.5962 13.8274C51.5568 13.828 51.5205 13.8286 51.4892 13.8293C51.178 13.8366 50.9722 13.8614 50.8048 13.9373C50.5999 14.0301 50.1597 14.3499 50.0478 15.7142Z" fill="#9CDAC9"/>
<path fill-rule="evenodd" clip-rule="evenodd" d="M56.9462 17.4444L56.9035 16.5097C56.8023 14.2926 57.318 13.0874 58.4244 12.5912C58.932 12.3635 59.4555 12.3463 59.7885 12.3428C59.8567 12.3421 59.9125 12.342 59.9605 12.3418C60.0503 12.3416 60.1127 12.3414 60.178 12.3378C60.1921 12.337 60.2034 12.3361 60.2122 12.3353L61.067 11.9325L61.4004 12.7961C61.8474 13.9541 61.9694 14.9902 61.251 15.8066C60.9128 16.191 60.4388 16.4631 59.9033 16.6754C59.3683 16.8874 58.7231 17.0585 57.991 17.2175L56.9462 17.4444ZM58.6052 15.5295C58.8058 15.4697 58.9839 15.4092 59.1415 15.3467C59.5405 15.1886 59.7587 15.0372 59.8808 14.8985C60.0395 14.7181 60.144 14.4278 59.9846 13.8008C59.9817 13.8008 59.9788 13.8008 59.9759 13.8008C59.939 13.8009 59.9052 13.801 59.8764 13.8013C59.5807 13.8044 59.3992 13.8261 59.2572 13.8898C59.0986 13.961 58.6899 14.2361 58.6052 15.5295Z" fill="#9CDAC9"/>
<path fill-rule="evenodd" clip-rule="evenodd" d="M40.3953 20.2958L40.1758 19.3186C39.6948 17.1769 40.0027 15.9057 40.9461 15.1761C41.3824 14.8386 41.872 14.6923 42.1947 14.6043C42.2594 14.5867 42.3128 14.5726 42.3589 14.5604C42.4463 14.5372 42.5077 14.521 42.571 14.5006C42.5916 14.494 42.6064 14.4887 42.6163 14.4849L43.3881 13.8662L43.8939 14.6771C44.5348 15.7046 44.8194 16.6808 44.2765 17.6342C43.7884 18.4915 42.7151 19.1384 41.4097 19.7896L40.3953 20.2958ZM41.664 17.9487C42.2861 17.5756 42.6137 17.2829 42.7646 17.0178C42.8897 16.7981 42.9378 16.5053 42.7129 15.9886C42.6916 15.9943 42.6718 15.9996 42.6539 16.0045C42.3718 16.0814 42.1885 16.1506 42.0485 16.2588C41.8808 16.3885 41.5533 16.7617 41.664 17.9487Z" fill="#9CDAC9"/>
<path fill-rule="evenodd" clip-rule="evenodd" d="M14.7817 35.7929C14.9751 30.0929 16.8266 23.653 23.9748 16.2196L25.1251 17.2849C18.2547 24.4293 16.5596 30.4947 16.3793 35.8104C16.2967 38.2438 16.5306 40.5288 16.7577 42.7463C16.7817 42.9806 16.8056 43.2141 16.829 43.447C17.0718 45.8578 17.2683 48.2182 16.9194 50.4837L15.339 50.2825C15.6539 48.2377 15.4826 46.0614 15.2383 43.636C15.2149 43.4035 15.1908 43.1689 15.1666 42.9322C14.9403 40.726 14.6953 38.3373 14.7817 35.7929Z" fill="#918B97"/>
<path fill-rule="evenodd" clip-rule="evenodd" d="M11.1508 46.6934L11.4403 45.5689C11.9972 43.4059 12.7419 42.2623 13.7318 41.8567C14.1866 41.6704 14.5949 41.6901 14.8517 41.71C14.9055 41.7141 14.9484 41.7179 14.9848 41.7211C15.0511 41.7269 15.0956 41.7308 15.144 41.7317C15.1503 41.7318 15.1557 41.7318 15.1604 41.7318L16.0359 41.3543L16.0461 42.4044C16.0574 43.5784 15.8476 44.6256 15.051 45.3814C14.342 46.0541 13.3214 46.3226 12.1732 46.5187L11.1508 46.6934ZM15.1846 41.7307C15.1846 41.7307 15.1841 41.7308 15.183 41.7309L15.1846 41.7307ZM13.2512 44.6274C13.7184 44.4897 13.9978 44.3406 14.1716 44.1757C14.309 44.0453 14.4453 43.8377 14.5098 43.3701C14.3127 43.3572 14.1867 43.3675 14.0758 43.4129C13.9575 43.4614 13.6307 43.6511 13.2512 44.6274Z" fill="#918B97"/>
<path fill-rule="evenodd" clip-rule="evenodd" d="M19.4437 35.1193L18.5117 34.8974C16.6509 34.4544 15.7526 33.7264 15.6185 32.6426C15.5573 32.1473 15.6802 31.6906 15.7623 31.4089C15.7798 31.3488 15.7941 31.3012 15.8062 31.261C15.8279 31.1886 15.8423 31.1406 15.855 31.0883C15.8559 31.0849 15.8566 31.0817 15.8573 31.0788L15.7253 30.1542L16.6696 30.0665C17.7507 29.9661 18.6759 30.1103 19.1877 30.9379C19.4261 31.3233 19.5317 31.7951 19.5715 32.2979C19.6112 32.8004 19.5886 33.3839 19.5344 34.0333L19.4437 35.1193ZM15.8637 31.0468C15.8637 31.0467 15.8636 31.0478 15.8632 31.05C15.8635 31.0479 15.8636 31.0468 15.8637 31.0468ZM18.0759 32.9781C18.0739 32.8763 18.0694 32.7814 18.0624 32.6929C18.0337 32.3297 17.966 32.1247 17.8908 32.0031C17.8068 31.8671 17.6443 31.7289 17.1937 31.6981C17.1277 31.9282 17.1065 32.0631 17.1202 32.1743C17.1332 32.2795 17.2186 32.6295 18.0759 32.9781Z" fill="#918B97"/>
<path fill-rule="evenodd" clip-rule="evenodd" d="M22.0516 28.1769L21.1196 27.955C19.2588 27.512 18.3605 26.784 18.2264 25.7002C18.1652 25.2049 18.2881 24.7482 18.3702 24.4665C18.3877 24.4065 18.402 24.3588 18.4141 24.3186C18.4358 24.2463 18.4502 24.1982 18.4629 24.1459C18.4638 24.1425 18.4645 24.1393 18.4652 24.1364L18.3332 23.2118L19.2775 23.1241C20.3586 23.0238 21.2838 23.1679 21.7956 23.9955C22.034 24.3809 22.1396 24.8527 22.1794 25.3555C22.2192 25.858 22.1965 26.4415 22.1423 27.0909L22.0516 28.1769ZM18.4716 24.1044C18.4716 24.1043 18.4715 24.1054 18.4711 24.1076C18.4714 24.1055 18.4715 24.1044 18.4716 24.1044ZM20.6838 26.0357C20.6818 25.9339 20.6773 25.839 20.6703 25.7506C20.6416 25.3874 20.574 25.1823 20.4988 25.0607C20.4147 24.9248 20.2522 24.7865 19.8016 24.7557C19.7356 24.9859 19.7144 25.1207 19.7281 25.2319C19.7411 25.3371 19.8265 25.6871 20.6838 26.0357Z" fill="#918B97"/>
<path fill-rule="evenodd" clip-rule="evenodd" d="M19.531 41.8239L18.5253 41.7821C16.6957 41.7061 15.6976 41.1895 15.3257 40.215C15.1553 39.7688 15.1634 39.3238 15.1744 39.047C15.1767 38.9876 15.1789 38.9408 15.1808 38.9016C15.1842 38.8316 15.1863 38.7857 15.186 38.7357C15.186 38.7333 15.186 38.7311 15.186 38.7289L14.8316 37.8488L15.7645 37.5742C16.7528 37.2833 17.6541 37.2522 18.3213 37.9299C18.9125 38.5304 19.1618 39.5594 19.3516 40.7236L19.531 41.8239ZM15.1845 38.6976C15.1846 38.6976 15.1847 38.6986 15.1849 38.7008C15.1846 38.6988 15.1845 38.6977 15.1845 38.6976ZM17.6364 39.9818C17.5189 39.5763 17.398 39.3467 17.2709 39.2175C17.1729 39.118 17.016 39.027 16.6581 39.0584C16.6547 39.2401 16.6673 39.351 16.7015 39.4405C16.7363 39.5317 16.8801 39.8117 17.6364 39.9818Z" fill="#918B97"/>
<path fill-rule="evenodd" clip-rule="evenodd" d="M75.8237 17.9147C83.0734 18.809 91.25 21.5821 100.501 30.1513L99.3885 31.301C90.3839 22.9603 82.5174 20.3248 75.5912 19.4704C72.3385 19.0692 69.284 19.0591 66.3624 19.0495C66.1524 19.0488 65.943 19.0481 65.7343 19.0473C62.6445 19.035 59.6773 18.992 56.8881 18.4048L57.2556 16.8716C59.8598 17.4198 62.6665 17.4669 65.7741 17.4793C65.9868 17.4802 66.2009 17.4809 66.4162 17.4816C69.3248 17.4909 72.4707 17.5011 75.8237 17.9147Z" fill="#918B97"/>
<path fill-rule="evenodd" clip-rule="evenodd" d="M69.6661 12.2714L70.8893 12.7555C73.5121 13.7936 74.7688 14.7932 75.1823 15.8383C75.3753 16.3259 75.3418 16.7352 75.3085 17.0088C75.302 17.0619 75.2961 17.1061 75.291 17.1448C75.281 17.2197 75.2738 17.2736 75.2707 17.3309C75.2691 17.3609 75.2697 17.3797 75.2703 17.3892L75.6411 18.2792L74.5006 18.1035C73.0625 17.8819 71.8661 17.4514 71.0428 16.5127C70.3034 15.6697 70.0172 14.5642 69.8188 13.2686L69.6661 12.2714ZM71.762 14.5445C71.9294 15.2142 72.1315 15.6419 72.3862 15.9323C72.5985 16.1744 72.9159 16.3919 73.5625 16.5649C73.5647 16.5484 73.5667 16.5329 73.5684 16.5185C73.5974 16.28 73.5972 16.0994 73.5248 15.9163C73.4317 15.6811 73.1169 15.2137 71.762 14.5445Z" fill="#918B97"/>
<path fill-rule="evenodd" clip-rule="evenodd" d="M82.1231 14.8935L83.1201 15.474C85.524 16.8738 86.6338 18.0429 86.7966 19.1638C86.8713 19.6786 86.7173 20.0662 86.6108 20.309C86.5891 20.3584 86.5708 20.3987 86.555 20.4334C86.5254 20.4989 86.5047 20.5445 86.4869 20.5945C86.4826 20.6066 86.4795 20.6163 86.4774 20.6237L86.6225 21.4957L85.6057 21.1683C84.2202 20.7223 83.0783 20.124 82.4474 19.0691C82.1501 18.5721 82.0166 18.0511 81.9673 17.5242C81.9179 16.9979 81.9487 16.4187 82.0213 15.7842L82.1231 14.8935ZM83.5949 17.3211C83.5916 17.5137 83.5972 17.6893 83.6123 17.8505C83.6493 18.2451 83.7393 18.506 83.8489 18.6892C83.9931 18.9303 84.2757 19.2028 85.0095 19.5069C85.0117 19.502 85.0139 19.4971 85.0161 19.4924C85.0282 19.4655 85.0394 19.4409 85.0487 19.4197C85.1435 19.2036 85.1815 19.0558 85.1599 18.9076C85.1353 18.7378 84.9695 18.2516 83.5949 17.3211Z" fill="#918B97"/>
<path fill-rule="evenodd" clip-rule="evenodd" d="M75.868 22.5535L76.0843 21.7302C76.6161 19.7069 77.5152 18.8565 78.8002 18.8302C79.3932 18.8181 79.9468 18.9938 80.3063 19.1158C80.378 19.1401 80.4373 19.1607 80.4888 19.1785C80.5874 19.2127 80.6575 19.237 80.7309 19.2588C80.7565 19.2664 80.7748 19.2713 80.7869 19.2743L81.7745 19.2377L81.8805 20.1012C82.0286 21.3076 81.8552 22.2588 80.8735 22.7054C80.4117 22.9155 79.8367 22.9798 79.206 22.9682C78.5757 22.9566 77.8369 22.8678 77.0039 22.7348L75.868 22.5535ZM78.0685 21.5159C78.3313 21.5423 78.5654 21.5575 78.774 21.5614C79.2569 21.5702 79.5499 21.5164 79.7349 21.4323C79.9816 21.32 80.1802 21.0825 80.186 20.4474C80.1728 20.4428 80.16 20.4384 80.1474 20.434C80.1069 20.42 80.0697 20.4071 80.0374 20.3962C79.7176 20.2877 79.5005 20.2331 79.3097 20.237C79.0748 20.2418 78.5374 20.3581 78.0685 21.5159Z" fill="#918B97"/>
<path fill-rule="evenodd" clip-rule="evenodd" d="M83.6307 25.7097L83.8972 24.8539C84.4952 22.9341 85.4221 22.1459 86.6707 22.112C87.2503 22.0962 87.7891 22.254 88.1457 22.3664C88.216 22.3885 88.2743 22.4073 88.325 22.4236C88.4225 22.455 88.492 22.4774 88.5649 22.4975C88.5958 22.506 88.6164 22.5108 88.6287 22.5134L89.6515 22.4697L89.7374 23.3545C89.8492 24.5057 89.6373 25.4036 88.6543 25.8267C87.769 26.2078 86.4222 26.1095 84.8291 25.8814L83.6307 25.7097ZM85.9356 24.6446C86.7586 24.7107 87.2461 24.6693 87.54 24.5428C87.786 24.4369 87.9809 24.2272 88.0175 23.6921C87.9854 23.6818 87.9557 23.6722 87.9293 23.6639C87.6166 23.5654 87.3949 23.513 87.1933 23.5184C86.94 23.5253 86.4231 23.6436 85.9356 24.6446Z" fill="#918B97"/>
<path fill-rule="evenodd" clip-rule="evenodd" d="M67.1861 21.829L67.2121 20.9824C67.2737 18.9752 67.9047 17.9563 69.11 17.6595C69.6624 17.5235 70.215 17.5802 70.5642 17.6227C70.6361 17.6314 70.6947 17.639 70.745 17.6454C70.839 17.6575 70.904 17.6659 70.9725 17.6715C70.986 17.6726 70.997 17.6733 71.0058 17.6738L71.9367 17.4274L72.2212 18.2509C72.6017 19.3527 72.6528 20.3038 71.8345 20.9426C71.449 21.2436 70.9292 21.424 70.3505 21.5419C69.7725 21.6595 69.0822 21.7251 68.3023 21.7679L67.1861 21.829ZM69.0837 20.3273C69.2963 20.3013 69.4856 20.2715 69.6539 20.2372C70.0829 20.1498 70.321 20.0441 70.4577 19.9374C70.6352 19.7988 70.7673 19.5534 70.6472 18.9664C70.6446 18.9661 70.6419 18.9658 70.6393 18.9654C70.6006 18.9605 70.5653 18.9559 70.5353 18.9523C70.2249 18.9145 70.0353 18.9096 69.8847 18.9467C69.7193 18.9874 69.2704 19.1753 69.0837 20.3273Z" fill="#918B97"/>
<path fill-rule="evenodd" clip-rule="evenodd" d="M99.991 42.6275C102.926 47.5733 105.079 54.0681 104.035 65.7294L102.467 65.5871C103.484 54.226 101.387 48.0763 98.6417 43.4511C97.6403 41.764 96.5599 40.2878 95.4743 38.8047C95.0437 38.2164 94.6123 37.6269 94.1846 37.0228C92.6947 34.9178 91.2975 32.6917 90.3454 29.9029L91.8333 29.3797C92.7124 31.9548 94.0085 34.0351 95.4642 36.0917C95.8622 36.654 96.2759 37.2192 96.6966 37.794C97.798 39.2989 98.9478 40.8698 99.991 42.6275Z" fill="#9CDAC9"/>
<path fill-rule="evenodd" clip-rule="evenodd" d="M89.9867 23.2086L90.722 24.0638C92.6269 26.2792 93.221 27.8315 92.915 29.0486C92.773 29.6129 92.456 29.9885 92.2373 30.2307C92.1947 30.2778 92.1586 30.317 92.1269 30.3514C92.0651 30.4184 92.0203 30.4671 91.9775 30.5206C91.9567 30.5467 91.9446 30.5643 91.9383 30.5741L91.7246 31.4994L90.871 30.9074C89.6118 30.0342 88.7177 29.0802 88.5327 27.794C88.3642 26.6227 88.8408 25.4212 89.5285 24.0932L89.9867 23.2086ZM90.4268 26.0072C90.079 26.8185 89.9725 27.3644 90.0331 27.7852C90.0853 28.148 90.2917 28.5591 90.96 29.1157C90.9763 29.0979 90.9923 29.0806 91.0076 29.0641C91.0328 29.0366 91.0563 29.0111 91.0767 28.9886C91.2722 28.772 91.3936 28.6009 91.4445 28.3984C91.5115 28.132 91.5201 27.4795 90.4268 26.0072Z" fill="#9CDAC9"/>
<path fill-rule="evenodd" clip-rule="evenodd" d="M103.851 39.1514L104.012 40.3499C104.386 43.119 104.031 44.6756 103.165 45.5305C102.76 45.9299 102.312 46.0982 102.003 46.2021C101.944 46.2221 101.894 46.2384 101.851 46.2527C101.764 46.2808 101.701 46.3013 101.638 46.327C101.599 46.3427 101.577 46.3538 101.568 46.3589L100.873 47.0701L100.45 46.0746C99.8796 44.7313 99.6683 43.5057 100.194 42.3533C100.669 41.3127 101.676 40.5307 102.942 39.7275L103.851 39.1514ZM102.693 41.8754C102.024 42.375 101.657 42.7792 101.481 43.1636C101.332 43.4895 101.283 43.9013 101.489 44.5972C101.491 44.5965 101.493 44.5958 101.495 44.595C101.531 44.5835 101.563 44.5728 101.592 44.5631C101.864 44.4716 102.061 44.3816 102.221 44.2244C102.434 44.014 102.767 43.4779 102.693 41.8754Z" fill="#9CDAC9"/>
<path fill-rule="evenodd" clip-rule="evenodd" d="M97.6435 29.5854L97.842 30.6626C98.3802 33.5825 98.1047 35.2369 97.1899 36.1154C96.7667 36.5218 96.2868 36.6689 95.9672 36.7555C95.9047 36.7724 95.8521 36.7861 95.806 36.7981C95.7162 36.8214 95.651 36.8384 95.585 36.8606C95.5547 36.8709 95.5354 36.8789 95.5246 36.8838L94.866 37.5423L94.4344 36.6122C93.774 35.1892 93.4746 33.8933 93.9812 32.693C94.2207 32.1253 94.6095 31.6622 95.0771 31.2548C95.5443 30.8478 96.1276 30.4647 96.8026 30.0732L97.6435 29.5854ZM96.5893 32.1413C96.3435 32.3083 96.1321 32.4682 95.9522 32.6249C95.5886 32.9417 95.3912 33.2134 95.2891 33.4554C95.1451 33.7966 95.1152 34.273 95.4369 35.1447C95.4688 35.1362 95.5 35.1281 95.5294 35.1204C95.5662 35.1109 95.6004 35.102 95.6302 35.0939C95.9181 35.0159 96.1131 34.9365 96.261 34.7945C96.4546 34.6086 96.8103 34.0516 96.5893 32.1413Z" fill="#9CDAC9"/>
<path fill-rule="evenodd" clip-rule="evenodd" d="M96.5135 49.4849L97.4578 49.2829C99.9095 48.7585 101.292 49.1311 102.023 50.2003C102.361 50.6958 102.484 51.2487 102.557 51.6186C102.571 51.6908 102.583 51.7515 102.593 51.8047C102.612 51.9082 102.627 51.9833 102.645 52.0594C102.654 52.0954 102.661 52.1181 102.665 52.1305L103.228 52.9229L102.417 53.4071C101.218 54.1222 100.128 54.423 99.123 53.8045C98.6497 53.5131 98.2635 53.0549 97.9232 52.5075C97.5831 51.9603 97.2627 51.2808 96.935 50.4953L96.5135 49.4849ZM98.7133 50.7945C98.8469 51.0666 98.9753 51.3025 99.1013 51.5052C99.3671 51.9328 99.5958 52.1693 99.8001 52.2951C100.082 52.4685 100.469 52.5187 101.174 52.1957C101.169 52.168 101.164 52.1409 101.159 52.115C101.151 52.0726 101.144 52.0333 101.137 51.9989C101.072 51.6679 101.005 51.4408 100.885 51.2648C100.727 51.0342 100.267 50.6177 98.7133 50.7945Z" fill="#9CDAC9"/>
<path fill-rule="evenodd" clip-rule="evenodd" d="M97.7864 59.4742L98.7307 59.2722C101.182 58.7477 102.565 59.1203 103.296 60.1895C103.634 60.685 103.757 61.238 103.83 61.6078C103.844 61.6801 103.856 61.7408 103.866 61.7939C103.885 61.8975 103.899 61.9725 103.918 62.0487C103.927 62.0847 103.934 62.1073 103.938 62.1198L104.501 62.9121L103.689 63.3964C102.491 64.1114 101.4 64.4122 100.396 63.7938C99.9227 63.5024 99.5364 63.0442 99.1961 62.4967C98.856 61.9496 98.5357 61.27 98.208 60.4846L97.7864 59.4742ZM99.9862 60.7837C100.12 61.0559 100.248 61.2918 100.374 61.4945C100.64 61.922 100.869 62.1585 101.073 62.2843C101.355 62.4577 101.742 62.508 102.447 62.185C102.442 62.1572 102.437 62.1302 102.432 62.1043C102.424 62.0619 102.417 62.0225 102.41 61.9882C102.345 61.6572 102.278 61.43 102.158 61.2541C102 61.0234 101.54 60.6069 99.9862 60.7837Z" fill="#9CDAC9"/>
<path fill-rule="evenodd" clip-rule="evenodd" d="M92.389 41.6171L93.3265 41.2178C95.519 40.284 96.8982 40.375 97.8153 41.2044C98.2416 41.5899 98.4812 42.0684 98.6335 42.3929C98.6632 42.4563 98.6877 42.5095 98.709 42.5559C98.7505 42.646 98.7803 42.7108 98.8146 42.7761C98.8311 42.8076 98.8427 42.8268 98.8492 42.8371L99.5971 43.4899L98.8759 44.1425C97.9004 45.0253 96.932 45.5022 95.849 45.1244C94.8707 44.783 93.9983 43.79 93.0639 42.5283L92.389 41.6171ZM94.9181 42.4301C95.4686 43.0754 95.8708 43.3987 96.2114 43.5175C96.4994 43.618 96.8467 43.5999 97.3846 43.2292C97.3831 43.226 97.3816 43.2227 97.3801 43.2195C97.3632 43.1826 97.3474 43.1485 97.3335 43.1188C97.1993 42.8326 97.0861 42.6379 96.9319 42.4984C96.7324 42.318 96.2326 42.0401 94.9181 42.4301Z" fill="#9CDAC9"/>
<path fill-rule="evenodd" clip-rule="evenodd" d="M93.2298 84.6495C88.6707 89.3788 82.1377 93.9011 70.2828 96.5995L69.8896 95.0675C81.451 92.4359 87.7128 88.0629 92.0594 83.554C94.0389 81.5006 95.6274 79.4134 97.1587 77.4015C97.3209 77.1884 97.4825 76.9761 97.6438 76.7648C99.3168 74.5734 100.97 72.477 103.005 70.7423L104.066 71.9404C102.171 73.5565 100.605 75.5308 98.9285 77.7272C98.7675 77.9381 98.6055 78.151 98.4421 78.3657C96.9162 80.3711 95.2746 82.5284 93.2298 84.6495Z" fill="#918B97"/>
<path fill-rule="evenodd" clip-rule="evenodd" d="M103.295 75.9737L102.628 77.0175C101.178 79.2862 99.9669 80.2701 98.8264 80.4229C98.2957 80.4939 97.8817 80.3634 97.6095 80.267C97.5561 80.2481 97.5119 80.2319 97.4734 80.2178C97.3994 80.1907 97.3464 80.1713 97.2893 80.1549C97.2632 80.1474 97.2458 80.1437 97.2359 80.1419L96.2729 80.2884L96.6207 79.2477C97.0624 77.9258 97.6803 76.8735 98.7687 76.2988C99.7466 75.7824 100.92 75.77 102.264 75.8852L103.295 75.9737ZM100.66 77.4439C99.9557 77.4462 99.4962 77.5389 99.1691 77.7117C98.8965 77.8556 98.6264 78.1085 98.3489 78.7015C98.3671 78.7081 98.3842 78.7143 98.3998 78.7198C98.6375 78.804 98.8168 78.8448 99.0069 78.8193C99.247 78.7872 99.7667 78.6021 100.66 77.4439Z" fill="#918B97"/>
<path fill-rule="evenodd" clip-rule="evenodd" d="M91.3585 91.2614L90.3034 91.7223C87.8998 92.7723 86.3535 92.9541 85.341 92.4264C84.8759 92.1841 84.635 91.8378 84.4897 91.6136C84.4598 91.5676 84.436 91.5299 84.4155 91.4975C84.3773 91.4371 84.3509 91.3953 84.3193 91.353C84.3126 91.344 84.307 91.3369 84.3024 91.3313L83.4778 90.9218L84.3195 90.2907C85.4104 89.4729 86.5065 88.9302 87.7122 89.0557C88.2778 89.1146 88.7773 89.3146 89.2373 89.5826C89.6969 89.8504 90.1584 90.2109 90.6435 90.6355L91.3585 91.2614ZM88.4671 90.9863C88.3274 90.8863 88.1952 90.7997 88.0686 90.726C87.7254 90.526 87.4657 90.445 87.2609 90.4237C87.0021 90.3968 86.6513 90.4502 86.0527 90.815C86.0654 90.8351 86.0771 90.8536 86.0875 90.8697C86.2157 91.0674 86.3162 91.1804 86.4468 91.2484C86.592 91.3241 87.0565 91.475 88.4671 90.9863Z" fill="#918B97"/>
<path fill-rule="evenodd" clip-rule="evenodd" d="M88.2345 81.9289L88.8262 82.6035C90.2182 84.1907 90.4623 85.3906 89.8095 86.415C89.5088 86.8869 89.0722 87.2169 88.7852 87.4246C88.7272 87.4665 88.6792 87.5007 88.6378 87.5303C88.5594 87.5862 88.5044 87.6254 88.4492 87.6689C88.4335 87.6813 88.4219 87.6909 88.4138 87.6979L87.9144 88.5133L87.1141 88.0751C86.0416 87.488 85.3372 86.7951 85.4792 85.7624C85.5459 85.2777 85.7931 84.7913 86.1304 84.3081C86.4675 83.8252 86.9243 83.3038 87.4651 82.7363L88.2345 81.9289ZM87.9387 84.3369C87.7971 84.5076 87.6759 84.6649 87.574 84.8109C87.3185 85.1769 87.2139 85.4303 87.1883 85.6165C87.1552 85.8576 87.2384 86.1379 87.7348 86.5004C87.7366 86.4991 87.7384 86.4978 87.7402 86.4966C87.7724 86.4736 87.8019 86.4525 87.8271 86.4343C88.0811 86.2505 88.2328 86.1181 88.3243 85.9746C88.4323 85.8052 88.6162 85.3414 87.9387 84.3369Z" fill="#918B97"/>
<path fill-rule="evenodd" clip-rule="evenodd" d="M93.8025 76.0368L94.5331 76.5836C96.1607 77.8016 96.6737 78.8862 96.2944 79.9912C96.1203 80.4981 95.7869 80.8939 95.5702 81.1406C95.5254 81.1916 95.4887 81.2327 95.4573 81.2679C95.3991 81.3332 95.3592 81.378 95.3195 81.4272C95.3123 81.4361 95.3065 81.4436 95.3018 81.4497L95.0119 82.3473L94.1344 82.0728C93.0212 81.7248 92.2027 81.2055 92.0994 80.1953C92.051 79.7218 92.1714 79.215 92.3737 78.6991C92.5759 78.1836 92.8792 77.6114 93.2475 76.9833L93.8025 76.0368ZM95.286 81.4718C95.286 81.4718 95.2862 81.4715 95.2866 81.4708L95.286 81.4718ZM94.0832 78.4814C94.0074 78.6381 93.9435 78.7824 93.8912 78.9158C93.7412 79.2983 93.7052 79.5437 93.7222 79.7106C93.7434 79.9177 93.8656 80.1504 94.3706 80.3884C94.3858 80.3714 94.3998 80.3556 94.4122 80.3415C94.6027 80.1246 94.7038 79.9823 94.751 79.8451C94.8017 79.6972 94.8776 79.2598 94.0832 78.4814Z" fill="#918B97"/>
<path fill-rule="evenodd" clip-rule="evenodd" d="M61.2383 100.306C58.061 100.679 54.4088 100.144 50.0957 98.2378L50.7262 96.7751C54.8347 98.5905 58.2071 99.0557 61.0589 98.7212C63.9113 98.3866 66.3071 97.2446 68.4526 95.742C70.4063 94.3739 72.1258 92.7279 73.8011 91.1243C73.9777 90.9553 74.1537 90.7868 74.3294 90.6192C76.1433 88.889 77.9553 87.2206 79.9122 86.2428L80.6072 87.6738C78.8951 88.5292 77.2468 90.0263 75.4078 91.7805C75.2321 91.9481 75.0549 92.1178 74.8761 92.289C73.2129 93.8818 71.4053 95.6127 69.3467 97.0544C67.0527 98.6608 64.4149 99.9335 61.2383 100.306Z" fill="#9CDAC9"/>
<path fill-rule="evenodd" clip-rule="evenodd" d="M82.7904 82.2866L83.0601 83.1149C83.7111 85.1141 83.4581 86.3192 82.4299 87.0151C81.9572 87.3351 81.416 87.4698 81.0663 87.5494C80.9954 87.5655 80.937 87.5784 80.8866 87.5895C80.7912 87.6105 80.7245 87.6252 80.6558 87.6438C80.6375 87.6487 80.6236 87.6529 80.6135 87.656L79.8286 88.2077L79.2757 87.5099C78.5201 86.5562 78.1437 85.6459 78.6939 84.7469C78.9529 84.3237 79.3811 83.9699 79.8908 83.6548C80.4 83.3401 81.0358 83.0368 81.7675 82.724L82.7904 82.2866ZM81.5483 84.3626C81.34 84.4683 81.1578 84.5692 80.9996 84.667C80.6157 84.9043 80.4186 85.0955 80.3211 85.2549C80.1927 85.4647 80.1568 85.7607 80.4845 86.3018C80.4922 86.3001 80.4998 86.2985 80.5073 86.2968C80.5464 86.2882 80.5823 86.2802 80.613 86.2732C80.924 86.2025 81.116 86.1398 81.2561 86.045C81.4194 85.9345 81.7837 85.5772 81.5483 84.3626Z" fill="#9CDAC9"/>
<path fill-rule="evenodd" clip-rule="evenodd" d="M82.1567 90.8599L81.4277 91.3991C79.7737 92.6224 78.5715 92.8331 77.6146 92.1529C77.1774 91.8422 76.8997 91.4079 76.7321 91.1338C76.6969 91.0762 76.6689 91.0296 76.645 90.9899C76.6011 90.9168 76.5713 90.8672 76.5371 90.8164C76.5329 90.8102 76.5291 90.8047 76.5258 90.8L75.758 90.2759L76.2808 89.5221C76.9503 88.5568 77.6966 87.9068 78.7029 88.0852C79.1765 88.1692 79.6283 88.4269 80.0604 88.7639C80.4919 89.1005 80.9452 89.5492 81.4302 90.074L82.1567 90.8599ZM76.5068 90.7746C76.5068 90.7746 76.5073 90.7752 76.5084 90.7765C76.5073 90.7753 76.5068 90.7746 76.5068 90.7746ZM79.7328 90.4439C79.6064 90.3279 79.4884 90.2271 79.3774 90.1405C79.0626 89.895 78.8463 89.7978 78.69 89.7701C78.4937 89.7353 78.2329 89.787 77.8415 90.2212C77.8549 90.2434 77.8671 90.2637 77.8779 90.2814C78.0262 90.5239 78.127 90.653 78.235 90.7298C78.3435 90.8069 78.7306 91.008 79.7328 90.4439Z" fill="#9CDAC9"/>
<path fill-rule="evenodd" clip-rule="evenodd" d="M73.9166 99.6963L72.946 99.8929C71.0478 100.277 69.9168 99.9512 69.2822 99.0262C68.9893 98.5992 68.8691 98.1276 68.7982 97.8212C68.7837 97.7584 68.7723 97.7074 68.7625 97.6639C68.7445 97.5831 68.7321 97.5279 68.7161 97.4699C68.7126 97.4572 68.7096 97.4471 68.7071 97.4393L68.1318 96.6303L68.9419 96.1286C69.868 95.5551 70.7542 95.3102 71.6004 95.8609C72.3544 96.3515 72.9039 97.3875 73.4469 98.6256L73.9166 99.6963ZM71.6549 98.3087C71.3758 97.8035 71.1514 97.5313 70.9476 97.3987C70.7842 97.2923 70.5636 97.2357 70.1662 97.3876C70.2244 97.6341 70.278 97.7899 70.3604 97.9101C70.4541 98.0466 70.7341 98.3391 71.6549 98.3087Z" fill="#9CDAC9"/>
<path fill-rule="evenodd" clip-rule="evenodd" d="M65.694 103.937L64.6326 103.872C62.6959 103.753 61.6791 103.133 61.2384 102.112C61.0332 101.636 60.9962 101.158 60.9791 100.839C60.9757 100.775 60.9733 100.723 60.9712 100.678C60.9672 100.593 60.9644 100.533 60.9585 100.471C60.9563 100.447 60.9541 100.431 60.9526 100.421L60.5241 99.4698L61.4617 99.17C62.4863 98.8423 63.3883 98.8469 64.1003 99.5849C64.7323 100.24 65.0874 101.368 65.4078 102.725L65.694 103.937ZM63.6641 101.985C63.4809 101.44 63.3064 101.114 63.1227 100.923C62.9758 100.771 62.779 100.664 62.4157 100.69C62.4311 100.923 62.458 101.091 62.5217 101.239C62.6033 101.428 62.8351 101.773 63.6641 101.985Z" fill="#9CDAC9"/>
<path fill-rule="evenodd" clip-rule="evenodd" d="M66.7833 92.1765L66.95 93.3205C67.3032 95.7454 67.0536 97.1823 66.2699 97.9587C65.9097 98.3156 65.5101 98.4457 65.2541 98.5203C65.2012 98.5357 65.1583 98.5477 65.1217 98.558C65.0538 98.577 65.0073 98.59 64.9587 98.6075C64.9495 98.6108 64.942 98.6137 64.9359 98.6162L64.2887 99.2826L63.8851 98.3041C63.3935 97.1121 63.1695 95.9797 63.6223 94.923C64.0288 93.9746 64.9031 93.3209 65.9385 92.6907L66.7833 92.1765ZM64.9161 98.6251C64.9161 98.6251 64.9163 98.625 64.9167 98.6248L64.9161 98.6251ZM65.6832 94.8469C65.2235 95.1978 64.9852 95.4806 64.8743 95.7395C64.7839 95.9504 64.7386 96.2533 64.9023 96.8313C64.91 96.8292 64.9173 96.8271 64.9242 96.825C65.1473 96.76 65.2811 96.6991 65.3808 96.6003C65.4887 96.4934 65.7472 96.137 65.6832 94.8469Z" fill="#9CDAC9"/>
<path fill-rule="evenodd" clip-rule="evenodd" d="M72.11 87.9953L72.4909 89.294C73.1366 91.4957 73.0579 92.8625 72.4979 93.7555C72.2355 94.1739 71.9083 94.4135 71.682 94.5681C71.6376 94.5984 71.6008 94.623 71.5689 94.6444C71.5081 94.6851 71.4651 94.7139 71.4214 94.7474C71.4003 94.7635 71.3875 94.7746 71.3808 94.7808L70.8367 95.6797L70.2233 94.7032C69.588 93.6919 69.2595 92.6905 69.5237 91.6102C69.7576 90.6535 70.4325 89.7944 71.2991 88.8649L72.11 87.9953ZM71.4513 91.1906C71.1507 91.5979 70.9871 91.9184 70.9187 92.1985C70.8647 92.4194 70.8596 92.6626 70.9812 93.0026C71.1238 92.8981 71.2293 92.7994 71.3103 92.6702C71.4233 92.4899 71.5756 92.1016 71.4513 91.1906Z" fill="#9CDAC9"/>
<path fill-rule="evenodd" clip-rule="evenodd" d="M49.7216 29.7775L44.7033 27.2217V39.7403C44.7033 44.5501 48.822 48.5115 54.0403 48.8448L55.4763 48.8219C60.6947 48.4887 64.8137 44.5501 64.8137 39.7403V38.3609V37.4642V27.2217L59.435 29.9611C58.5973 28.4104 56.4141 27.2217 54.3993 27.2217C52.5894 27.2217 50.6551 28.382 49.7216 29.7775ZM54.7585 47.5343C59.5288 47.5343 63.3773 44.0355 63.3773 39.7403V38.2335L46.1398 29.4542V39.7403C46.1398 44.0355 49.9883 47.5343 54.7585 47.5343ZM54.7461 32.2713L50.9991 30.3858C51.2291 30.0616 51.5542 29.7282 51.9698 29.4239C52.75 28.8526 53.65 28.5322 54.3993 28.5322C55.2925 28.5322 56.3087 28.8709 57.1115 29.4393C57.5934 29.7804 57.9286 30.1513 58.1282 30.5081L54.7461 32.2713ZM56.8251 32.7913L63.3773 36.1284V29.4542L56.8251 32.7913Z" fill="#DFA47B" fill-opacity="0.81"/>
<g filter="url(#filter0_d_333_2010)">
<path fill-rule="evenodd" clip-rule="evenodd" d="M58.8777 73.9506V67.203C58.8777 65.3397 60.5402 63.8292 62.5911 63.8292H72.2458V70.5768C72.2458 72.4401 70.5833 73.9506 68.5324 73.9506H58.8777ZM61.8202 72.6011H68.5324C69.7629 72.6011 70.7605 71.6948 70.7605 70.5768V65.8322L61.8202 72.6011ZM69.3033 65.1787L60.3631 71.9476V67.203C60.3631 66.085 61.3606 65.1787 62.5911 65.1787H69.3033ZM47.2494 51.7113C49.3002 51.7113 50.9628 53.2218 50.9628 55.0851V61.8327H41.308C39.2572 61.8327 37.5947 60.3222 37.5947 58.4589V51.7113H47.2494ZM41.308 60.4832H48.0202L39.08 53.7143V58.4589C39.08 59.5769 40.0775 60.4832 41.308 60.4832ZM49.4774 59.8297L40.5372 53.0609H47.2494C48.4799 53.0609 49.4774 53.9671 49.4774 55.0851V59.8297Z" fill="#3F8881"/>
<path d="M55.4276 51.7113V48.75L54.688 48.7612H53.9422V68.7949L50.2289 70.9419L53.9422 73.0888V82.7501C53.9422 83.1227 54.2747 83.4248 54.6849 83.4248C55.0951 83.4248 55.4276 83.1227 55.4276 82.7501V69.5924V56.4346L57.4699 55.2538L59.5123 54.073L55.4276 51.7113Z" fill="#3F8881"/>
</g>
<g filter="url(#filter1_d_333_2010)">
<path fill-rule="evenodd" clip-rule="evenodd" d="M55.4276 51.7113V48.75L54.688 48.7612H53.9422V68.7949L50.2289 70.9419L53.9422 73.0888V82.7501C53.9422 83.1227 54.2747 83.4248 54.6849 83.4248C55.0951 83.4248 55.4276 83.1227 55.4276 82.7501V56.4346L59.5123 54.073L55.4276 51.7113ZM59.3887 54.073L55.3663 51.7474V48.813L54.688 48.8233L54.0035 48.8233V68.831L50.3524 70.9419L54.0035 73.0528V82.7501C54.0035 83.0823 54.3021 83.3628 54.6849 83.3628C55.0677 83.3628 55.3663 83.0823 55.3663 82.7501V56.3986L59.3887 54.073ZM61.6359 72.6631L70.8217 65.7083V70.5768C70.8217 71.7352 69.7903 72.6631 68.5324 72.6631H61.6359ZM60.3018 72.0715V67.203C60.3018 66.0446 61.3332 65.1167 62.5911 65.1167H69.4876L60.3018 72.0715ZM48.2045 60.5452H41.308C40.0502 60.5452 39.0188 59.6173 39.0188 58.4589V53.5904L48.2045 60.5452ZM40.3529 52.9988H47.2494C48.5072 52.9988 49.5386 53.9267 49.5386 55.0851V59.9536L40.3529 52.9988ZM58.8777 73.9506V67.203C58.8777 65.3397 60.5402 63.8292 62.5911 63.8292H72.2458V70.5768C72.2458 72.4401 70.5833 73.9506 68.5324 73.9506H58.8777ZM72.1846 63.8913H62.5911C60.5676 63.8913 58.9389 65.3802 58.9389 67.203V73.8885H68.5324C70.5559 73.8885 72.1846 72.3996 72.1846 70.5768V63.8913ZM70.7605 65.8322V70.5768C70.7605 71.6948 69.7629 72.6011 68.5324 72.6011H61.8202L70.7605 65.8322ZM69.3033 65.1787H62.5911C61.3606 65.1787 60.3631 66.085 60.3631 67.203V71.9476L69.3033 65.1787ZM50.9015 55.0851C50.9015 53.2623 49.2729 51.7734 47.2494 51.7734H37.6559V58.4589C37.6559 60.2817 39.2845 61.7706 41.308 61.7706H50.9015V55.0851ZM50.9628 55.0851C50.9628 53.2218 49.3002 51.7113 47.2494 51.7113H37.5947V58.4589C37.5947 60.3222 39.2572 61.8327 41.308 61.8327H50.9628V55.0851ZM48.0202 60.4832L39.08 53.7143V58.4589C39.08 59.5769 40.0775 60.4832 41.308 60.4832H48.0202ZM40.5372 53.0609H47.2494C48.4799 53.0609 49.4774 53.9671 49.4774 55.0851V59.8297L40.5372 53.0609Z" fill="black"/>
</g>
<g filter="url(#filter2_d_333_2010)">
<path fill-rule="evenodd" clip-rule="evenodd" d="M58.8777 73.9506V67.203C58.8777 65.3397 60.5402 63.8292 62.5911 63.8292H72.2458V70.5768C72.2458 72.4401 70.5833 73.9506 68.5324 73.9506H58.8777ZM61.8202 72.6011H68.5324C69.7629 72.6011 70.7605 71.6948 70.7605 70.5768V65.8322L61.8202 72.6011ZM69.3033 65.1787L60.3631 71.9476V67.203C60.3631 66.085 61.3606 65.1787 62.5911 65.1787H69.3033ZM47.2494 51.7113C49.3002 51.7113 50.9628 53.2218 50.9628 55.0851V61.8327H41.308C39.2572 61.8327 37.5947 60.3222 37.5947 58.4589V51.7113H47.2494ZM41.308 60.4832H48.0202L39.08 53.7143V58.4589C39.08 59.5769 40.0775 60.4832 41.308 60.4832ZM49.4774 59.8297L40.5372 53.0609H47.2494C48.4799 53.0609 49.4774 53.9671 49.4774 55.0851V59.8297Z" fill="#3F8881"/>
<path d="M55.4276 51.7113V48.75L54.688 48.7612H53.9422V68.7949L50.2289 70.9419L53.9422 73.0888V82.7501C53.9422 83.1227 54.2747 83.4248 54.6849 83.4248C55.0951 83.4248 55.4276 83.1227 55.4276 82.7501V69.5924V56.4346L57.4699 55.2538L59.5123 54.073L55.4276 51.7113Z" fill="#3F8881"/>
</g>
<g filter="url(#filter3_d_333_2010)">
<path fill-rule="evenodd" clip-rule="evenodd" d="M55.4276 51.7113V48.75L54.688 48.7612H53.9422V68.7949L50.2289 70.9419L53.9422 73.0888V82.7501C53.9422 83.1227 54.2747 83.4248 54.6849 83.4248C55.0951 83.4248 55.4276 83.1227 55.4276 82.7501V56.4346L59.5123 54.073L55.4276 51.7113ZM59.3887 54.073L55.3663 51.7474V48.813L54.688 48.8233L54.0035 48.8233V68.831L50.3524 70.9419L54.0035 73.0528V82.7501C54.0035 83.0823 54.3021 83.3628 54.6849 83.3628C55.0677 83.3628 55.3663 83.0823 55.3663 82.7501V56.3986L59.3887 54.073ZM61.6359 72.6631L70.8217 65.7083V70.5768C70.8217 71.7352 69.7903 72.6631 68.5324 72.6631H61.6359ZM60.3018 72.0715V67.203C60.3018 66.0446 61.3332 65.1167 62.5911 65.1167H69.4876L60.3018 72.0715ZM48.2045 60.5452H41.308C40.0502 60.5452 39.0188 59.6173 39.0188 58.4589V53.5904L48.2045 60.5452ZM40.3529 52.9988H47.2494C48.5072 52.9988 49.5386 53.9267 49.5386 55.0851V59.9536L40.3529 52.9988ZM58.8777 73.9506V67.203C58.8777 65.3397 60.5402 63.8292 62.5911 63.8292H72.2458V70.5768C72.2458 72.4401 70.5833 73.9506 68.5324 73.9506H58.8777ZM72.1846 63.8913H62.5911C60.5676 63.8913 58.9389 65.3802 58.9389 67.203V73.8885H68.5324C70.5559 73.8885 72.1846 72.3996 72.1846 70.5768V63.8913ZM70.7605 65.8322V70.5768C70.7605 71.6948 69.7629 72.6011 68.5324 72.6011H61.8202L70.7605 65.8322ZM69.3033 65.1787H62.5911C61.3606 65.1787 60.3631 66.085 60.3631 67.203V71.9476L69.3033 65.1787ZM50.9015 55.0851C50.9015 53.2623 49.2729 51.7734 47.2494 51.7734H37.6559V58.4589C37.6559 60.2817 39.2845 61.7706 41.308 61.7706H50.9015V55.0851ZM50.9628 55.0851C50.9628 53.2218 49.3002 51.7113 47.2494 51.7113H37.5947V58.4589C37.5947 60.3222 39.2572 61.8327 41.308 61.8327H50.9628V55.0851ZM48.0202 60.4832L39.08 53.7143V58.4589C39.08 59.5769 40.0775 60.4832 41.308 60.4832H48.0202ZM40.5372 53.0609H47.2494C48.4799 53.0609 49.4774 53.9671 49.4774 55.0851V59.8297L40.5372 53.0609Z" fill="black"/>
</g>
<path fill-rule="evenodd" clip-rule="evenodd" d="M26.8653 91.7403L26.0108 90.8422C24.2986 89.0425 23.6978 87.7261 23.8616 86.6522C23.9377 86.1537 24.1714 85.8069 24.333 85.5836C24.3652 85.5391 24.3921 85.5028 24.4153 85.4715C24.4592 85.4121 24.49 85.3705 24.5195 85.3241C24.53 85.3076 24.5368 85.2956 24.5411 85.2876L24.6688 84.3329L25.6103 84.9189C26.7202 85.6097 27.5448 86.4077 27.7915 87.529C28.0119 88.5302 27.7085 89.5912 27.248 90.7651L26.8653 91.7403ZM26.1487 88.843C26.3074 88.2693 26.3349 87.8734 26.2681 87.5697C26.2136 87.3222 26.0731 87.0505 25.6524 86.7016C25.514 86.8931 25.4338 87.0381 25.4085 87.2039C25.3784 87.4016 25.4001 87.8669 26.1487 88.843Z" fill="#918B97"/>
<path fill-rule="evenodd" clip-rule="evenodd" d="M17.6173 85.1808L16.9816 84.2246C15.6207 82.1775 15.2508 80.7824 15.658 79.767C15.8453 79.2998 16.1653 79.0202 16.3749 78.8482C16.4179 78.8129 16.4532 78.7846 16.4834 78.7604C16.5395 78.7153 16.5781 78.6843 16.6168 78.6484C16.6249 78.6408 16.6313 78.6346 16.6362 78.6295L16.9604 77.7718L17.7476 78.4839C18.7162 79.36 19.4039 80.2888 19.4247 81.423C19.4435 82.4417 18.8986 83.3869 18.1894 84.3798L17.6173 85.1808ZM17.5226 82.3529C17.813 81.8404 17.9204 81.4818 17.9152 81.1973C17.9109 80.9645 17.8226 80.6681 17.4182 80.2085C17.4099 80.2152 17.4021 80.2215 17.3948 80.2275C17.212 80.3775 17.11 80.4885 17.0569 80.6211C16.9982 80.7673 16.9071 81.2022 17.5226 82.3529Z" fill="#918B97"/>
<path fill-rule="evenodd" clip-rule="evenodd" d="M26.6923 80.691L26.0578 81.3756C24.6239 82.9229 23.4337 83.356 22.3053 82.9204C21.7863 82.72 21.3958 82.3695 21.1504 82.1393C21.1003 82.0924 21.0596 82.0537 21.0247 82.0204C20.9592 81.9581 20.9138 81.9149 20.8638 81.872C20.8521 81.8618 20.8426 81.8541 20.8354 81.8483L19.9204 81.5134L20.2793 80.6703C20.7422 79.5825 21.3608 78.8086 22.4335 78.7668C22.936 78.7472 23.4613 78.8952 23.9925 79.126C24.5233 79.3566 25.1071 79.6911 25.7467 80.0945L26.6923 80.691ZM24.1255 80.827C23.9542 80.7362 23.7963 80.6593 23.6502 80.5958C23.2514 80.4225 22.9869 80.37 22.8008 80.3772C22.5668 80.3864 22.3038 80.5 22.0065 80.9942C22.0271 81.0138 22.0461 81.0318 22.0628 81.0475C22.2788 81.2501 22.4271 81.3638 22.5773 81.4218C22.7477 81.4876 23.2205 81.583 24.1255 80.827Z" fill="#918B97"/>
<path fill-rule="evenodd" clip-rule="evenodd" d="M19.1613 71.3639L18.5268 72.0485C17.0929 73.5957 15.9027 74.0289 14.7743 73.5933C14.2553 73.3929 13.8648 73.0423 13.6194 72.8122C13.5693 72.7652 13.5286 72.7265 13.4937 72.6933C13.4282 72.631 13.3828 72.5878 13.3328 72.5448C13.3211 72.5347 13.3116 72.5269 13.3043 72.5211L12.3894 72.1862L12.7482 71.3431C13.2112 70.2553 13.8297 69.4814 14.9025 69.4397C15.405 69.4201 15.9303 69.568 16.4615 69.7988C16.9923 70.0295 17.5761 70.364 18.2157 70.7674L19.1613 71.3639ZM16.5945 71.4999C16.4232 71.409 16.2653 71.3321 16.1191 71.2686C15.7204 71.0953 15.4559 71.0428 15.2698 71.0501C15.0358 71.0592 14.7728 71.1729 14.4755 71.6671C14.4961 71.6866 14.515 71.7047 14.5318 71.7204C14.7478 71.9229 14.8961 72.0367 15.0463 72.0947C15.2167 72.1604 15.6894 72.2559 16.5945 71.4999Z" fill="#918B97"/>
<path fill-rule="evenodd" clip-rule="evenodd" d="M33.6617 84.285L33.1615 85.1104C32.124 86.8225 31.0894 87.4673 29.9416 87.3043C29.4133 87.2293 28.975 86.99 28.6978 86.8307C28.6407 86.7979 28.5946 86.7709 28.5553 86.7479C28.4823 86.7053 28.4323 86.6761 28.3779 86.6478C28.367 86.6422 28.358 86.6377 28.3508 86.6343L27.3737 86.5126L27.5558 85.5969C27.7739 84.5002 28.2056 83.6547 29.2118 83.3916C30.113 83.156 31.2781 83.4627 32.5818 83.9125L33.6617 84.285ZM31.1282 85.0014C30.5211 84.8482 30.1475 84.8268 29.9013 84.8911C29.7015 84.9434 29.4939 85.0825 29.3223 85.5369C29.326 85.5391 29.3296 85.5411 29.3331 85.5431C29.5737 85.6814 29.7317 85.7523 29.8808 85.7735C30.0431 85.7966 30.4746 85.7897 31.1282 85.0014Z" fill="#918B97"/>
<path fill-rule="evenodd" clip-rule="evenodd" d="M45.8021 90.6132L45.3019 91.4386C44.2644 93.1506 43.2298 93.7954 42.082 93.6324C41.5537 93.5574 41.1153 93.3181 40.8381 93.1588C40.7811 93.126 40.735 93.0991 40.6957 93.0761C40.6227 93.0334 40.5727 93.0042 40.5182 92.976C40.5073 92.9703 40.4984 92.9659 40.4912 92.9624L39.5141 92.8408L39.6962 91.9251C39.9143 90.8283 40.346 89.9828 41.3522 89.7197C42.2534 89.4842 43.4185 89.7908 44.7222 90.2406L45.8021 90.6132ZM43.2686 91.3295C42.6615 91.1763 42.2879 91.1549 42.0417 91.2193C41.8418 91.2715 41.6343 91.4106 41.4627 91.865C41.4664 91.8672 41.47 91.8693 41.4735 91.8713C41.714 92.0095 41.8721 92.0805 42.0211 92.1016C42.1835 92.1247 42.615 92.1179 43.2686 91.3295Z" fill="#918B97"/>
<path fill-rule="evenodd" clip-rule="evenodd" d="M48.5669 102.774L47.7741 102.532C46.6639 102.193 45.9076 101.816 45.4282 101.39C44.9308 100.948 44.701 100.421 44.7434 99.8233C44.7823 99.2759 45.0471 98.8027 45.2071 98.5275C45.2419 98.4676 45.2703 98.4197 45.2943 98.3791C45.3381 98.3053 45.3675 98.2556 45.3956 98.2017C45.3957 98.2015 45.3958 98.2012 45.3959 98.201L45.437 97.3582L46.3252 97.3689C47.6171 97.3846 48.6858 97.6146 49.1294 98.5361C49.3445 98.9828 49.3671 99.5081 49.3002 100.049C49.2337 100.587 49.0705 101.2 48.8553 101.873L48.5669 102.774ZM45.416 98.1585C45.4161 98.1585 45.4154 98.1604 45.4137 98.1644C45.415 98.1606 45.4159 98.1586 45.416 98.1585ZM47.6492 100.697C47.6983 100.49 47.7327 100.307 47.7527 100.145C47.7987 99.7734 47.7616 99.5723 47.7048 99.4543C47.622 99.2824 47.3866 99.0796 46.5933 99.0058C46.58 99.0283 46.5671 99.05 46.555 99.0705C46.537 99.1009 46.5207 99.1285 46.5072 99.1517C46.3582 99.408 46.3065 99.5414 46.2995 99.6395C46.2961 99.6878 46.291 99.8451 46.5665 100.09C46.7717 100.272 47.1097 100.48 47.6492 100.697Z" fill="#9CDAC9"/>
<path fill-rule="evenodd" clip-rule="evenodd" d="M40.3937 101.695L39.2964 101.208C37.1391 100.252 36.2865 99.1345 36.1267 97.9147C36.0507 97.3348 36.1455 96.8083 36.2244 96.4299C36.2388 96.3609 36.2516 96.3016 36.263 96.2486C36.2862 96.1409 36.3039 96.0592 36.3179 95.9754C36.3347 95.8747 36.3329 95.8401 36.3332 95.8401L36.1728 94.7392L37.2318 94.7781C38.5079 94.8248 39.45 95.218 39.9701 96.2714C40.4395 97.2222 40.499 98.6074 40.4397 100.346L40.3937 101.695ZM38.9235 99.077C38.895 98.1847 38.7896 97.5973 38.5958 97.2049C38.4342 96.8775 38.1874 96.6431 37.718 96.5175C37.7161 96.5265 37.7142 96.5354 37.7124 96.544C37.6434 96.8748 37.6018 97.1582 37.6394 97.4451C37.691 97.8396 37.9236 98.4282 38.9235 99.077Z" fill="#9CDAC9"/>
<path fill-rule="evenodd" clip-rule="evenodd" d="M47.4938 93.0185L46.947 94.0198C45.7135 96.279 44.5929 97.3084 43.4399 97.4705C42.9083 97.5453 42.4831 97.4094 42.2118 97.3133C42.157 97.2939 42.1123 97.2775 42.0737 97.2634C42.0008 97.2367 41.9499 97.2181 41.8946 97.2022C41.879 97.1977 41.867 97.1947 41.8583 97.1928L40.9204 97.3427L41.1731 96.3337C41.5 95.0284 42.0188 93.9579 43.0657 93.3632C44.0097 92.827 45.1786 92.8179 46.4904 92.9315L47.4938 93.0185ZM44.9983 94.4826C44.3174 94.4852 43.8945 94.5773 43.6089 94.7395C43.3713 94.8745 43.124 95.1258 42.8907 95.7578C42.914 95.7663 42.9354 95.7741 42.9544 95.7808C43.1928 95.8652 43.3576 95.9004 43.5201 95.8776C43.7107 95.8508 44.1955 95.6882 44.9983 94.4826Z" fill="#9CDAC9"/>
<path fill-rule="evenodd" clip-rule="evenodd" d="M54.8373 92.8321L54.376 94.0768C53.5422 96.3262 52.6108 97.409 51.5714 97.8047C51.0833 97.9905 50.6506 97.989 50.3548 97.9785C50.2977 97.9764 50.2503 97.9743 50.2088 97.9725C50.1284 97.9689 50.0706 97.9663 50.0096 97.9673C49.9729 97.9679 49.9518 97.97 49.9425 97.9712L48.9524 98.3657L49.0308 97.2392C49.117 96.0017 49.4628 94.9741 50.3653 94.2429C51.1689 93.5918 52.2973 93.2894 53.6512 93.0456L54.8373 92.8321ZM52.4004 94.9598C51.8118 95.1259 51.4253 95.3063 51.1634 95.5185C50.9522 95.6896 50.7792 95.9187 50.6662 96.3332C50.8883 96.338 51.0667 96.3234 51.2439 96.2559C51.4828 96.165 51.8964 95.904 52.4004 94.9598Z" fill="#9CDAC9"/>
<path fill-rule="evenodd" clip-rule="evenodd" d="M63.2281 93.2763L62.7051 94.323C61.5536 96.6277 60.457 97.6704 59.3021 97.8784C58.7663 97.9749 58.3232 97.8639 58.0333 97.7815C57.9759 97.7652 57.9286 97.7513 57.8875 97.7391C57.8089 97.7159 57.7531 97.6995 57.6933 97.6861C57.6697 97.6808 57.6533 97.6781 57.6431 97.6767L56.6818 97.8676L56.8866 96.8352C57.1485 95.5151 57.6266 94.4413 58.6614 93.8161C59.592 93.2538 60.7916 93.1872 62.1709 93.2377L63.2281 93.2763ZM60.7456 94.8487C60.0316 94.884 59.5834 94.9965 59.2816 95.1789C59.0303 95.3307 58.7903 95.5927 58.5899 96.2043C58.6112 96.2106 58.6311 96.2164 58.649 96.2215C58.9025 96.2936 59.0859 96.3238 59.2686 96.2909C59.4948 96.2502 59.995 96.0501 60.7456 94.8487Z" fill="#9CDAC9"/>
<path fill-rule="evenodd" clip-rule="evenodd" d="M12.9336 55.1312L11.9846 55.0418C9.84587 54.8405 8.77974 54.1692 8.47451 53.0315C8.33412 52.5082 8.39506 51.9962 8.44152 51.6686C8.45101 51.6017 8.45918 51.5471 8.4662 51.5002C8.47935 51.4123 8.48846 51.3513 8.49466 51.287C8.49611 51.272 8.49699 51.2601 8.49751 51.251L8.23431 50.3379L9.15196 50.1177C10.3329 49.8342 11.3447 49.8581 12.015 50.6698C12.329 51.0499 12.5168 51.547 12.6389 52.0976C12.7611 52.6479 12.828 53.301 12.8706 54.0383L12.9336 55.1312ZM11.2962 53.2072C11.2706 53.0212 11.2414 52.8537 11.208 52.7031C11.1163 52.2898 11.0034 52.0527 10.8873 51.9121C10.7415 51.7356 10.4919 51.5981 9.90593 51.6585C9.90192 51.6854 9.89826 51.7102 9.89516 51.732C9.85429 52.0202 9.84731 52.2029 9.88789 52.3541C9.93383 52.5254 10.1336 52.9495 11.2962 53.2072Z" fill="#9CDAC9"/>
<path fill-rule="evenodd" clip-rule="evenodd" d="M14.0659 62.6865L13.0712 62.7865C11.0276 62.992 9.88104 62.566 9.33991 61.5798C9.09061 61.1255 9.03054 60.6437 8.99911 60.333C8.99266 60.2693 8.98783 60.2175 8.9837 60.1732C8.97602 60.091 8.97076 60.0346 8.96203 59.9753C8.96017 59.9626 8.95846 59.9525 8.95702 59.9447L8.47852 59.1088L9.35754 58.7048C10.4033 58.2242 11.3637 58.0612 12.1767 58.6881C12.9042 59.249 13.3378 60.3355 13.7351 61.6183L14.0659 62.6865ZM11.9592 61.135C11.7282 60.5748 11.5249 60.2712 11.3246 60.1168C11.1623 59.9916 10.9251 59.9129 10.4517 60.0446C10.4519 60.0467 10.4521 60.0488 10.4523 60.0508C10.4796 60.3199 10.5141 60.4865 10.5857 60.617C10.6644 60.7604 10.9262 61.0904 11.9592 61.135Z" fill="#9CDAC9"/>
<path fill-rule="evenodd" clip-rule="evenodd" d="M23.1929 21.0106L23.938 20.0915C25.598 18.0438 26.9128 17.2831 28.0899 17.3624C28.638 17.3993 29.0521 17.6196 29.3249 17.7762C29.3781 17.8068 29.4222 17.8327 29.4607 17.8553C29.5353 17.8991 29.589 17.9306 29.647 17.9597C29.6758 17.9742 29.6946 17.982 29.7047 17.9858L30.6857 18.034L30.2611 19.0153C29.7092 20.2909 28.9985 21.2459 27.8433 21.6118C26.8034 21.9412 25.5982 21.7105 24.223 21.3104L23.1929 21.0106ZM25.9458 20.0615C26.6907 20.2129 27.1831 20.2148 27.5417 20.1012C27.8425 20.006 28.1464 19.7922 28.4824 19.2184C28.4584 19.2043 28.436 19.1912 28.4159 19.1797C28.1769 19.0425 27.9928 18.9613 27.7915 18.9477C27.5325 18.9303 26.971 19.0194 25.9458 20.0615Z" fill="#9CDAC9"/>
<path fill-rule="evenodd" clip-rule="evenodd" d="M62.8714 7.34788L63.8019 7.94094C65.9517 9.31114 66.858 10.4954 66.8697 11.6629C66.875 12.2009 66.6785 12.6192 66.5437 12.8851C66.5164 12.9389 66.4936 12.9827 66.474 13.0206C66.4367 13.0922 66.4107 13.1424 66.3869 13.197C66.3801 13.2126 66.3754 13.2246 66.3722 13.2332L66.3997 14.1698L65.4212 13.8633C64.1298 13.4588 63.1043 12.8772 62.6352 11.793C62.2113 10.8133 62.3591 9.63949 62.6518 8.33032L62.8714 7.34788ZM64.0147 9.89755C63.9221 10.5945 63.9592 11.0304 64.0887 11.3297C64.1971 11.5801 64.4278 11.848 65.0629 12.1243C65.0772 12.0966 65.0904 12.0711 65.1016 12.049C65.2206 11.8144 65.2788 11.6509 65.2772 11.4867C65.2753 11.2931 65.1719 10.7897 64.0147 9.89755Z" fill="#9CDAC9"/>
<path fill-rule="evenodd" clip-rule="evenodd" d="M11.1504 46.6943L11.4399 45.5698C11.9968 43.4069 12.7415 42.2633 13.7315 41.8577C14.1863 41.6714 14.5946 41.6911 14.8513 41.7109C14.9051 41.7151 14.9481 41.7189 14.9845 41.722C15.0507 41.7279 15.0952 41.7317 15.1437 41.7327C15.1499 41.7328 15.1553 41.7328 15.16 41.7328L16.0356 41.3552L16.0457 42.4053C16.0571 43.5794 15.8472 44.6266 15.0506 45.3824C14.3416 46.0551 13.321 46.3235 12.1728 46.5197L11.1504 46.6943ZM15.1842 41.7317C15.1843 41.7317 15.1837 41.7318 15.1827 41.7319L15.1842 41.7317ZM13.2508 44.6284C13.718 44.4907 13.9974 44.3415 14.1712 44.1767C14.3086 44.0463 14.445 43.8386 14.5094 43.3711C14.3124 43.3582 14.1863 43.3685 14.0754 43.4139C13.9571 43.4624 13.6303 43.6521 13.2508 44.6284Z" fill="#918B97"/>
<path fill-rule="evenodd" clip-rule="evenodd" d="M19.4433 35.1203L18.5113 34.8984C16.6506 34.4553 15.7522 33.7274 15.6182 32.6436C15.5569 32.1483 15.6798 31.6916 15.7619 31.4099C15.7795 31.3498 15.7938 31.3022 15.8058 31.262C15.8275 31.1896 15.8419 31.1416 15.8547 31.0892C15.8555 31.0859 15.8562 31.0827 15.8569 31.0798L15.725 30.1551L16.6692 30.0675C17.7503 29.9671 18.6755 30.1112 19.1873 30.9388C19.4257 31.3243 19.5314 31.796 19.5711 32.2989C19.6109 32.8014 19.5882 33.3849 19.534 34.0343L19.4433 35.1203ZM15.8633 31.0477C15.8633 31.0477 15.8632 31.0487 15.8628 31.051C15.8631 31.0489 15.8633 31.0478 15.8633 31.0477ZM18.0756 32.979C18.0735 32.8773 18.069 32.7824 18.062 32.6939C18.0333 32.3307 17.9657 32.1256 17.8905 32.004C17.8064 31.8681 17.6439 31.7299 17.1933 31.6991C17.1273 31.9292 17.1061 32.064 17.1198 32.1752C17.1329 32.2805 17.2183 32.6305 18.0756 32.979Z" fill="#918B97"/>
<path fill-rule="evenodd" clip-rule="evenodd" d="M22.0512 28.1769L21.1192 27.955C19.2585 27.512 18.3601 26.784 18.2261 25.7002C18.1648 25.2049 18.2877 24.7482 18.3698 24.4665C18.3874 24.4065 18.4017 24.3588 18.4137 24.3186C18.4354 24.2463 18.4498 24.1982 18.4626 24.1459C18.4634 24.1425 18.4641 24.1393 18.4648 24.1364L18.3329 23.2118L19.2771 23.1241C20.3582 23.0238 21.2834 23.1679 21.7952 23.9955C22.0336 24.3809 22.1393 24.8527 22.179 25.3555C22.2188 25.858 22.1961 26.4415 22.1419 27.0909L22.0512 28.1769ZM18.4712 24.1044C18.4712 24.1043 18.4711 24.1054 18.4708 24.1076C18.471 24.1055 18.4712 24.1044 18.4712 24.1044ZM20.6835 26.0357C20.6814 25.9339 20.6769 25.839 20.6699 25.7506C20.6412 25.3874 20.5736 25.1823 20.4984 25.0607C20.4143 24.9248 20.2518 24.7865 19.8012 24.7557C19.7352 24.9859 19.714 25.1207 19.7278 25.2319C19.7408 25.3371 19.8262 25.6871 20.6835 26.0357Z" fill="#918B97"/>
<path fill-rule="evenodd" clip-rule="evenodd" d="M19.5306 41.8249L18.5249 41.7831C16.6954 41.7071 15.6972 41.1905 15.3253 40.216C15.155 39.7698 15.163 39.3248 15.174 39.048C15.1763 38.9886 15.1786 38.9418 15.1804 38.9026C15.1838 38.8326 15.186 38.7866 15.1857 38.7367C15.1857 38.7343 15.1856 38.7321 15.1856 38.7299L14.8313 37.8498L15.7641 37.5752C16.7524 37.2843 17.6538 37.2531 18.3209 37.9308C18.9121 38.5314 19.1614 39.5604 19.3513 40.7246L19.5306 41.8249ZM15.1842 38.6986C15.1842 38.6986 15.1843 38.6996 15.1845 38.7018C15.1842 38.6997 15.1841 38.6986 15.1842 38.6986ZM17.636 39.9827C17.5185 39.5773 17.3977 39.3476 17.2705 39.2184C17.1726 39.119 17.0156 39.028 16.6578 39.0594C16.6544 39.241 16.667 39.352 16.7011 39.4415C16.7359 39.5327 16.8797 39.8126 17.636 39.9827Z" fill="#918B97"/>
<path fill-rule="evenodd" clip-rule="evenodd" d="M18.1607 55.2677L17.258 54.8459C15.6034 54.0726 14.8809 53.2116 14.9187 52.164C14.936 51.6848 15.118 51.2762 15.2361 51.0254C15.2615 50.9715 15.2819 50.9291 15.2989 50.8936C15.3293 50.8305 15.3491 50.7893 15.3683 50.7433C15.3689 50.7416 15.3696 50.7401 15.3702 50.7386L15.3871 49.7922L16.3471 49.8973C17.3689 50.0093 18.213 50.3264 18.5645 51.2107C18.8763 51.9951 18.7033 53.0429 18.4239 54.1887L18.1607 55.2677ZM15.3816 50.7081C15.3816 50.708 15.3813 50.7091 15.3805 50.7114C15.3811 50.7092 15.3815 50.7081 15.3816 50.7081ZM17.1393 52.8426C17.19 52.4218 17.1683 52.164 17.1019 51.9971C17.0509 51.8687 16.9412 51.7234 16.5926 51.614C16.5173 51.7825 16.4856 51.8893 16.4822 51.9837C16.4789 52.077 16.5001 52.3914 17.1393 52.8426Z" fill="#918B97"/>
<path fill-rule="evenodd" clip-rule="evenodd" d="M69.6645 12.2704L70.8877 12.7545C73.5105 13.7927 74.7671 14.7922 75.1807 15.8373C75.3736 16.3249 75.3401 16.7342 75.3068 17.0078C75.3004 17.0609 75.2945 17.1052 75.2893 17.1438C75.2794 17.2187 75.2722 17.2727 75.2691 17.33C75.2674 17.36 75.2681 17.3787 75.2687 17.3882L75.6395 18.2782L74.499 18.1025C73.0608 17.8809 71.8644 17.4505 71.0411 16.5117C70.3018 15.6687 70.0156 14.5632 69.8172 13.2676L69.6645 12.2704ZM71.7603 14.5435C71.9277 15.2132 72.1298 15.6409 72.3845 15.9313C72.5969 16.1734 72.9142 16.3909 73.5609 16.5639C73.563 16.5474 73.565 16.5319 73.5668 16.5176C73.5958 16.2791 73.5956 16.0984 73.5231 15.9153C73.4301 15.6802 73.1153 15.2127 71.7603 14.5435Z" fill="#918B97"/>
<path fill-rule="evenodd" clip-rule="evenodd" d="M82.1232 14.8955L83.1202 15.476C85.5241 16.8758 86.6339 18.0448 86.7967 19.1658C86.8714 19.6806 86.7173 20.0682 86.6108 20.3109C86.5891 20.3604 86.5708 20.4007 86.5551 20.4354C86.5254 20.5008 86.5048 20.5464 86.4869 20.5964C86.4826 20.6085 86.4796 20.6182 86.4774 20.6256L86.6226 21.4976L85.6058 21.1703C84.2202 20.7242 83.0783 20.1259 82.4474 19.071C82.1502 18.5741 82.0167 18.053 81.9673 17.5262C81.918 16.9998 81.9488 16.4207 82.0213 15.7861L82.1232 14.8955ZM83.595 17.3231C83.5916 17.5156 83.5972 17.6913 83.6124 17.8525C83.6493 18.2471 83.7394 18.5079 83.849 18.6912C83.9932 18.9323 84.2758 19.2047 85.0095 19.5088C85.0118 19.5039 85.014 19.4991 85.0161 19.4943C85.0283 19.4674 85.0394 19.4428 85.0487 19.4216C85.1435 19.2056 85.1815 19.0578 85.16 18.9095C85.1354 18.7398 84.9695 18.2535 83.595 17.3231Z" fill="#918B97"/>
<path fill-rule="evenodd" clip-rule="evenodd" d="M75.8668 22.5535L76.0832 21.7302C76.6149 19.7069 77.5141 18.8565 78.799 18.8302C79.392 18.8181 79.9457 18.9938 80.3051 19.1158C80.3768 19.1401 80.4361 19.1607 80.4877 19.1785C80.5863 19.2127 80.6563 19.237 80.7298 19.2588C80.7553 19.2664 80.7737 19.2713 80.7858 19.2743L81.7733 19.2377L81.8793 20.1012C82.0274 21.3076 81.854 22.2588 80.8723 22.7054C80.4106 22.9155 79.8356 22.9798 79.2048 22.9682C78.5746 22.9566 77.8357 22.8678 77.0027 22.7348L75.8668 22.5535ZM78.0673 21.5159C78.3301 21.5423 78.5642 21.5575 78.7729 21.5614C79.2557 21.5703 79.5488 21.5164 79.7337 21.4323C79.9804 21.32 80.179 21.0825 80.1848 20.4474C80.1717 20.4428 80.1588 20.4384 80.1462 20.434C80.1058 20.42 80.0685 20.4071 80.0362 20.3962C79.7165 20.2877 79.4993 20.2331 79.3085 20.237C79.0736 20.2418 78.5363 20.3581 78.0673 21.5159Z" fill="#918B97"/>
<path fill-rule="evenodd" clip-rule="evenodd" d="M83.6288 25.7097L83.8953 24.8539C84.4933 22.9341 85.4202 22.1459 86.6688 22.112C87.2484 22.0962 87.7872 22.254 88.1438 22.3664C88.2141 22.3885 88.2724 22.4073 88.3231 22.4236C88.4206 22.455 88.4901 22.4774 88.563 22.4975C88.5939 22.506 88.6145 22.5108 88.6268 22.5134L89.6496 22.4697L89.7355 23.3545C89.8474 24.5057 89.6354 25.4036 88.6524 25.8267C87.7671 26.2078 86.4204 26.1095 84.8273 25.8814L83.6288 25.7097ZM85.9337 24.6446C86.7567 24.7107 87.2442 24.6693 87.5381 24.5428C87.7841 24.4369 87.979 24.2272 88.0156 23.6921C87.9835 23.6818 87.9538 23.6722 87.9274 23.6639C87.6147 23.5654 87.393 23.513 87.1914 23.5184C86.9381 23.5253 86.4213 23.6436 85.9337 24.6446Z" fill="#918B97"/>
<path fill-rule="evenodd" clip-rule="evenodd" d="M67.1864 21.829L67.2124 20.9824C67.274 18.9752 67.905 17.9563 69.1103 17.6595C69.6627 17.5235 70.2153 17.5802 70.5645 17.6227C70.6364 17.6314 70.695 17.639 70.7453 17.6454C70.8393 17.6575 70.9043 17.6659 70.9728 17.6715C70.9863 17.6726 70.9973 17.6733 71.0061 17.6738L71.937 17.4274L72.2215 18.2509C72.602 19.3527 72.6531 20.3038 71.8348 20.9426C71.4493 21.2436 70.9295 21.424 70.3508 21.5419C69.7728 21.6595 69.0825 21.7251 68.3026 21.7679L67.1864 21.829ZM69.084 20.3273C69.2966 20.3013 69.4859 20.2715 69.6542 20.2372C70.0832 20.1498 70.3214 20.0441 70.458 19.9374C70.6355 19.7988 70.7676 19.5534 70.6475 18.9664C70.6449 18.9661 70.6422 18.9658 70.6396 18.9654C70.6009 18.9605 70.5656 18.9559 70.5356 18.9523C70.2252 18.9145 70.0356 18.9096 69.885 18.9467C69.7196 18.9874 69.2707 19.1753 69.084 20.3273Z" fill="#918B97"/>
<path fill-rule="evenodd" clip-rule="evenodd" d="M52.28 19.8502L52.557 19.044C53.2106 17.1419 54.1154 16.3549 55.3508 16.4228C55.9174 16.4539 56.4277 16.6688 56.7491 16.8114C56.8151 16.8407 56.8689 16.865 56.915 16.8858C57.0014 16.9248 57.0612 16.9519 57.1251 16.9772C57.1382 16.9825 57.149 16.9865 57.1575 16.9896L58.1208 17.0258L58.149 17.8999C58.1867 19.0658 57.9531 19.9892 56.9837 20.3603C56.5273 20.535 55.9783 20.5559 55.391 20.4996C54.8043 20.4435 54.1255 20.3048 53.3676 20.1181L52.28 19.8502ZM54.5376 18.9654C54.7477 19.0023 54.9368 19.029 55.1073 19.0453C55.5439 19.0871 55.8041 19.0555 55.9675 18.993C56.1791 18.912 56.3774 18.7162 56.4367 18.124C56.4352 18.1233 56.4336 18.1226 56.432 18.1219C56.3965 18.1059 56.3641 18.0912 56.3364 18.0789C56.0511 17.9523 55.8702 17.8917 55.7136 17.8831C55.54 17.8736 55.056 17.9238 54.5376 18.9654Z" fill="#918B97"/>
<path fill-rule="evenodd" clip-rule="evenodd" d="M89.9857 23.2106L90.721 24.0658C92.6259 26.2811 93.2201 27.8334 92.914 29.0505C92.7721 29.6149 92.455 29.9905 92.2363 30.2326C92.1937 30.2798 92.1576 30.319 92.1259 30.3534C92.0641 30.4204 92.0193 30.469 91.9765 30.5226C91.9557 30.5486 91.9437 30.5662 91.9374 30.576L91.7236 31.5013L90.87 30.9094C89.6108 30.0362 88.7168 29.0822 88.5317 27.7959C88.3632 26.6246 88.8398 25.4232 89.5276 24.0951L89.9857 23.2106ZM90.4258 26.0091C90.0781 26.8204 89.9716 27.3663 90.0321 27.7871C90.0843 28.15 90.2907 28.561 90.9591 29.1177C90.9754 29.0999 90.9913 29.0826 91.0066 29.066C91.0319 29.0386 91.0553 29.0131 91.0757 28.9905C91.2712 28.774 91.3927 28.6028 91.4436 28.4004C91.5106 28.1339 91.5191 27.4815 90.4258 26.0091Z" fill="#9CDAC9"/>
<path fill-rule="evenodd" clip-rule="evenodd" d="M103.849 39.1523L104.011 40.3509C104.384 43.12 104.029 44.6766 103.163 45.5315C102.759 45.9309 102.31 46.0992 102.002 46.2031C101.943 46.2231 101.893 46.2393 101.849 46.2537C101.763 46.2818 101.7 46.3023 101.636 46.3279C101.597 46.3436 101.576 46.3548 101.566 46.3599L100.871 47.071L100.449 46.0756C99.8781 44.7323 99.6668 43.5067 100.193 42.3543C100.668 41.3137 101.674 40.5316 102.941 39.7285L103.849 39.1523ZM102.691 41.8764C102.022 42.376 101.655 42.7801 101.48 43.1646C101.331 43.4905 101.281 43.9023 101.487 44.5982C101.489 44.5975 101.492 44.5967 101.494 44.596C101.529 44.5845 101.562 44.5738 101.591 44.5641C101.862 44.4726 102.06 44.3825 102.219 44.2253C102.432 44.015 102.765 43.4789 102.691 41.8764Z" fill="#9CDAC9"/>
<path fill-rule="evenodd" clip-rule="evenodd" d="M97.6427 29.5854L97.8413 30.6626C98.3795 33.5825 98.104 35.2369 97.1892 36.1154C96.766 36.5218 96.286 36.6689 95.9665 36.7555C95.904 36.7724 95.8514 36.7861 95.8053 36.7981C95.7154 36.8214 95.6502 36.8384 95.5843 36.8606C95.554 36.8709 95.5347 36.8789 95.5239 36.8838L94.8652 37.5423L94.4336 36.6122C93.7733 35.1892 93.4739 33.8933 93.9805 32.693C94.22 32.1253 94.6088 31.6622 95.0764 31.2548C95.5436 30.8478 96.1269 30.4647 96.8019 30.0732L97.6427 29.5854ZM96.5886 32.1413C96.3427 32.3083 96.1314 32.4682 95.9515 32.6249C95.5879 32.9417 95.3905 33.2134 95.2883 33.4554C95.1443 33.7966 95.1144 34.273 95.4362 35.1447C95.4681 35.1362 95.4992 35.1281 95.5287 35.1204C95.5655 35.1109 95.5996 35.102 95.6295 35.0939C95.9174 35.0159 96.1124 34.9365 96.2602 34.7945C96.4538 34.6086 96.8095 34.0516 96.5886 32.1413Z" fill="#9CDAC9"/>
<path fill-rule="evenodd" clip-rule="evenodd" d="M96.512 49.4849L97.4563 49.2829C99.908 48.7585 101.29 49.1311 102.021 50.2003C102.36 50.6958 102.483 51.2487 102.556 51.6186C102.57 51.6908 102.581 51.7515 102.591 51.8047C102.611 51.9082 102.625 51.9833 102.644 52.0594C102.652 52.0954 102.659 52.1181 102.663 52.1305L103.227 52.9229L102.415 53.4071C101.217 54.1222 100.126 54.423 99.1215 53.8045C98.6483 53.5131 98.262 53.0549 97.9217 52.5075C97.5816 51.9603 97.2613 51.2808 96.9336 50.4953L96.512 49.4849ZM98.7118 50.7945C98.8455 51.0666 98.9739 51.3025 99.0998 51.5052C99.3656 51.9328 99.5943 52.1693 99.7986 52.2951C100.08 52.4685 100.468 52.5187 101.173 52.1957C101.168 52.168 101.163 52.1409 101.158 52.115C101.15 52.0726 101.142 52.0333 101.135 51.9989C101.07 51.6679 101.004 51.4408 100.884 51.2648C100.726 51.0342 100.266 50.6177 98.7118 50.7945Z" fill="#9CDAC9"/>
<path fill-rule="evenodd" clip-rule="evenodd" d="M97.7847 59.4752L98.729 59.2732C101.181 58.7487 102.563 59.1213 103.294 60.1905C103.633 60.686 103.756 61.239 103.828 61.6088C103.843 61.681 103.854 61.7417 103.864 61.7949C103.884 61.8985 103.898 61.9735 103.916 62.0496C103.925 62.0857 103.932 62.1083 103.936 62.1208L104.499 62.9131L103.688 63.3974C102.489 64.1124 101.399 64.4132 100.394 63.7948C99.921 63.5034 99.5347 63.0452 99.1944 62.4977C98.8543 61.9505 98.534 61.271 98.2063 60.4856L97.7847 59.4752ZM99.9845 60.7847C100.118 61.0569 100.247 61.2927 100.373 61.4954C100.638 61.923 100.867 62.1595 101.071 62.2853C101.353 62.4587 101.741 62.5089 102.446 62.186C102.44 62.1582 102.435 62.1312 102.43 62.1052C102.422 62.0629 102.415 62.0235 102.408 61.9892C102.343 61.6582 102.277 61.431 102.156 61.255C101.999 61.0244 101.539 60.6079 99.9845 60.7847Z" fill="#9CDAC9"/>
<path fill-rule="evenodd" clip-rule="evenodd" d="M92.3875 41.6161L93.3251 41.2168C95.5175 40.2831 96.8967 40.3741 97.8138 41.2034C98.2401 41.589 98.4798 42.0674 98.6321 42.392C98.6618 42.4553 98.6862 42.5085 98.7076 42.5549C98.749 42.645 98.7788 42.7098 98.8131 42.7751C98.8297 42.8066 98.8412 42.8258 98.8478 42.8361L99.5957 43.4889L98.8745 44.1415C97.899 45.0243 96.9305 45.5013 95.8475 45.1234C94.8692 44.782 93.9968 43.789 93.0624 42.5274L92.3875 41.6161ZM94.9167 42.4291C95.4672 43.0744 95.8694 43.3977 96.21 43.5165C96.498 43.617 96.8452 43.5989 97.3831 43.2282C97.3816 43.225 97.3801 43.2217 97.3787 43.2185C97.3617 43.1816 97.346 43.1475 97.3321 43.1178C97.1978 42.8317 97.0846 42.6369 96.9304 42.4975C96.7309 42.317 96.2312 42.0392 94.9167 42.4291Z" fill="#9CDAC9"/>
<path fill-rule="evenodd" clip-rule="evenodd" d="M103.294 75.9766L102.627 77.0205C101.178 79.2891 99.9662 80.273 98.8256 80.4258C98.295 80.4969 97.881 80.3664 97.6087 80.2699C97.5553 80.251 97.5112 80.2348 97.4727 80.2207C97.3986 80.1936 97.3457 80.1742 97.2886 80.1578C97.2625 80.1503 97.2451 80.1466 97.2352 80.1448L96.2722 80.2913L96.62 79.2506C97.0617 77.9288 97.6796 76.8764 98.7679 76.3017C99.7458 75.7854 100.919 75.7729 102.263 75.8882L103.294 75.9766ZM100.659 77.4468C99.955 77.4492 99.4955 77.5419 99.1683 77.7146C98.8958 77.8585 98.6257 78.1114 98.3482 78.7044C98.3664 78.711 98.3835 78.7172 98.3991 78.7227C98.6368 78.807 98.8161 78.8477 99.0062 78.8223C99.2463 78.7901 99.766 78.605 100.659 77.4468Z" fill="#918B97"/>
<path fill-rule="evenodd" clip-rule="evenodd" d="M103.234 64.2878L103.769 65.1838C104.554 66.497 105.022 67.5375 105.241 68.3849C105.467 69.2597 105.434 69.9657 105.18 70.5137C104.942 71.0253 104.555 71.2917 104.307 71.4511C104.256 71.4836 104.214 71.51 104.178 71.5328C104.108 71.5763 104.059 71.607 104.01 71.6431C103.999 71.6519 103.99 71.6591 103.983 71.6649L103.636 72.4577L102.944 71.7322C101.861 70.5955 101.105 69.4616 101.114 68.1726C101.119 67.555 101.302 67.005 101.571 66.4981C101.84 65.9924 102.22 65.4836 102.674 64.9483L103.234 64.2878ZM103.19 66.9828C103.035 67.198 102.909 67.3968 102.809 67.5838C102.61 67.9593 102.544 68.2401 102.542 68.4615C102.54 68.7848 102.681 69.2376 103.322 70.0042C103.353 69.9849 103.382 69.9664 103.41 69.9492C103.438 69.9313 103.465 69.9149 103.487 69.9005C103.715 69.7541 103.841 69.6402 103.907 69.4982C103.956 69.3925 104.018 69.1715 103.882 68.6472C103.78 68.2509 103.571 67.7109 103.19 66.9828Z" fill="#918B97"/>
<path fill-rule="evenodd" clip-rule="evenodd" d="M91.3589 91.2634L90.3039 91.7243C87.9003 92.7743 86.354 92.956 85.3415 92.4284C84.8764 92.1861 84.6355 91.8398 84.4902 91.6156C84.4603 91.5696 84.4365 91.5318 84.416 91.4995C84.3778 91.439 84.3514 91.3972 84.3198 91.3549C84.3131 91.3459 84.3075 91.3388 84.3029 91.3333L83.4783 90.9237L84.32 90.2927C85.4109 89.4748 86.507 88.9322 87.7127 89.0577C88.2783 89.1165 88.7778 89.3165 89.2378 89.5846C89.6974 89.8524 90.1589 90.2129 90.644 90.6375L91.3589 91.2634ZM88.4676 90.9883C88.3279 90.8882 88.1956 90.8017 88.0691 90.7279C87.7259 90.5279 87.4662 90.447 87.2614 90.4257C87.0026 90.3987 86.6518 90.4522 86.0532 90.817C86.0659 90.8371 86.0776 90.8556 86.088 90.8716C86.2162 91.0693 86.3167 91.1823 86.4473 91.2504C86.5925 91.3261 87.057 91.4769 88.4676 90.9883Z" fill="#918B97"/>
<path fill-rule="evenodd" clip-rule="evenodd" d="M88.2327 81.9318L88.8243 82.6064C90.2164 84.1937 90.4605 85.3935 89.8077 86.4179C89.5069 86.8899 89.0704 87.2198 88.7833 87.4275C88.7253 87.4695 88.6774 87.5037 88.636 87.5332C88.5576 87.5891 88.5026 87.6283 88.4474 87.6718C88.4316 87.6842 88.4201 87.6938 88.4119 87.7008L87.9126 88.5163L87.1123 88.0781C86.0398 87.4909 85.3354 86.798 85.4774 85.7653C85.5441 85.2806 85.7913 84.7942 86.1286 84.311C86.4657 83.8281 86.9225 83.3067 87.4633 82.7392L88.2327 81.9318ZM87.9369 84.3398C87.7953 84.5105 87.6741 84.6678 87.5722 84.8138C87.3166 85.1798 87.2121 85.4332 87.1865 85.6194C87.1533 85.8606 87.2366 86.1408 87.733 86.5033C87.7348 86.502 87.7366 86.5008 87.7384 86.4995C87.7705 86.4765 87.8001 86.4555 87.8253 86.4372C88.0793 86.2535 88.231 86.1211 88.3225 85.9775C88.4304 85.8081 88.6143 85.3443 87.9369 84.3398Z" fill="#918B97"/>
<path fill-rule="evenodd" clip-rule="evenodd" d="M93.8013 76.0388L94.5319 76.5855C96.1595 77.8035 96.6725 78.8881 96.2932 79.9931C96.1191 80.5001 95.7856 80.8959 95.5689 81.1425C95.5241 81.1935 95.4875 81.2347 95.4561 81.2698C95.3979 81.3351 95.3579 81.3799 95.3183 81.4292C95.3111 81.4381 95.3053 81.4456 95.3006 81.4517L95.0107 82.3492L94.1331 82.0748C93.02 81.7267 92.2015 81.2075 92.0982 80.1972C92.0498 79.7238 92.1702 79.217 92.3725 78.701C92.5747 78.1855 92.8779 77.6133 93.2463 76.9852L93.8013 76.0388ZM95.2848 81.4737C95.2848 81.4737 95.285 81.4734 95.2854 81.4728L95.2848 81.4737ZM94.082 78.4833C94.0062 78.64 93.9423 78.7843 93.89 78.9178C93.74 79.3002 93.704 79.5456 93.721 79.7125C93.7422 79.9197 93.8644 80.1524 94.3694 80.3904C94.3846 80.3733 94.3986 80.3576 94.411 80.3434C94.6015 80.1266 94.7026 79.9843 94.7497 79.847C94.8005 79.6991 94.8764 79.2617 94.082 78.4833Z" fill="#918B97"/>
<path fill-rule="evenodd" clip-rule="evenodd" d="M56.0159 104.046C83.7429 104.046 106.093 82.3273 106.093 55.6918C106.093 29.043 83.5361 6.81917 55.823 6.81917C28.1254 6.81917 5.93934 29.0277 5.93934 55.6918C5.93934 82.3273 28.289 104.046 56.0159 104.046ZM56.0159 105.641C84.5419 105.641 107.667 83.2782 107.667 55.6918C107.667 28.1055 84.349 5.22363 55.823 5.22363C27.297 5.22363 4.36505 28.1055 4.36505 55.6918C4.36505 83.2782 27.4899 105.641 56.0159 105.641Z" fill="#918B97"/>
<path fill-rule="evenodd" clip-rule="evenodd" d="M49.7214 29.7756L44.7032 27.2197V39.7384C44.7032 44.5481 48.8218 48.5096 54.0402 48.8428L55.4762 48.82C60.6945 48.4867 64.8136 44.5481 64.8136 39.7384V38.3589V37.4623V27.2197L59.4349 29.9592C58.5972 28.4085 56.414 27.2197 54.3992 27.2197C52.5893 27.2197 50.655 28.3801 49.7214 29.7756ZM54.7584 47.5323C59.5287 47.5323 63.3772 44.0336 63.3772 39.7384V38.2315L46.1396 29.4522V39.7384C46.1396 44.0336 49.9882 47.5323 54.7584 47.5323ZM54.746 32.2693L50.999 30.3838C51.229 30.0597 51.5541 29.7262 51.9697 29.4219C52.7499 28.8506 53.6498 28.5302 54.3992 28.5302C55.2924 28.5302 56.3085 28.8689 57.1114 29.4373C57.5933 29.7784 57.9285 30.1494 58.1281 30.5062L54.746 32.2693ZM56.825 32.7893L63.3772 36.1264V29.4522L56.825 32.7893Z" fill="#DFA47B" fill-opacity="0.81"/>
<g filter="url(#filter4_d_333_2010)">
<path fill-rule="evenodd" clip-rule="evenodd" d="M58.8776 73.9486V67.2011C58.8776 65.3378 60.5401 63.8273 62.591 63.8273H72.2457V70.5748C72.2457 72.4381 70.5831 73.9486 68.5323 73.9486H58.8776ZM61.8201 72.5991H68.5323C69.7628 72.5991 70.7603 71.6928 70.7603 70.5748V65.8302L61.8201 72.5991ZM69.3032 65.1768L60.3629 71.9457V67.2011C60.3629 66.0831 61.3605 65.1768 62.591 65.1768H69.3032ZM47.2493 51.7094C49.3001 51.7094 50.9626 53.2199 50.9626 55.0832V61.8307H41.3079C39.2571 61.8307 37.5945 60.3202 37.5945 58.4569V51.7094H47.2493ZM41.3079 60.4812H48.0201L39.0799 53.7123V58.4569C39.0799 59.5749 40.0774 60.4812 41.3079 60.4812ZM49.4773 59.8278L40.537 53.0589H47.2493C48.4798 53.0589 49.4773 53.9652 49.4773 55.0832V59.8278Z" fill="#3F8881"/>
<path d="M55.4274 51.7094V48.748L54.6879 48.7593H53.9421V68.793L50.2287 70.9399L53.9421 73.0869V82.7481C53.9421 83.1208 54.2746 83.4229 54.6848 83.4229C55.0949 83.4229 55.4274 83.1208 55.4274 82.7481V69.5904V56.4327L57.4698 55.2519L59.5121 54.071L55.4274 51.7094Z" fill="#3F8881"/>
</g>
<g filter="url(#filter5_d_333_2010)">
<path fill-rule="evenodd" clip-rule="evenodd" d="M55.4274 51.7094V48.748L54.6879 48.7593H53.9421V68.793L50.2287 70.9399L53.9421 73.0869V82.7481C53.9421 83.1208 54.2746 83.4229 54.6848 83.4229C55.0949 83.4229 55.4274 83.1208 55.4274 82.7481V56.4327L59.5121 54.071L55.4274 51.7094ZM59.3886 54.071L55.3662 51.7454V48.811L54.6879 48.8214L54.0033 48.8213V68.829L50.3523 70.9399L54.0033 73.0508V82.7481C54.0033 83.0803 54.302 83.3608 54.6848 83.3608C55.0676 83.3608 55.3662 83.0803 55.3662 82.7481V56.3966L59.3886 54.071ZM61.6358 72.6612L70.8216 65.7064V70.5748C70.8216 71.7333 69.7902 72.6612 68.5323 72.6612H61.6358ZM60.3017 72.0695V67.2011C60.3017 66.0426 61.3331 65.1147 62.591 65.1147H69.4875L60.3017 72.0695ZM48.2044 60.5433H41.3079C40.0501 60.5433 39.0187 59.6154 39.0187 58.4569V53.5885L48.2044 60.5433ZM40.3528 52.9968H47.2493C48.5071 52.9968 49.5385 53.9247 49.5385 55.0832V59.9516L40.3528 52.9968ZM58.8776 73.9486V67.2011C58.8776 65.3378 60.5401 63.8273 62.591 63.8273H72.2457V70.5748C72.2457 72.4381 70.5831 73.9486 68.5323 73.9486H58.8776ZM72.1844 63.8893H62.591C60.5675 63.8893 58.9388 65.3782 58.9388 67.2011V73.8865H68.5323C70.5558 73.8865 72.1844 72.3976 72.1844 70.5748V63.8893ZM70.7603 65.8302V70.5748C70.7603 71.6928 69.7628 72.5991 68.5323 72.5991H61.8201L70.7603 65.8302ZM69.3032 65.1768H62.591C61.3605 65.1768 60.3629 66.0831 60.3629 67.2011V71.9457L69.3032 65.1768ZM50.9014 55.0832C50.9014 53.2604 49.2728 51.7714 47.2493 51.7714H37.6558V58.4569C37.6558 60.2798 39.2844 61.7687 41.3079 61.7687H50.9014V55.0832ZM50.9626 55.0832C50.9626 53.2199 49.3001 51.7094 47.2493 51.7094H37.5945V58.4569C37.5945 60.3202 39.2571 61.8307 41.3079 61.8307H50.9626V55.0832ZM48.0201 60.4812L39.0799 53.7123V58.4569C39.0799 59.5749 40.0774 60.4812 41.3079 60.4812H48.0201ZM40.537 53.0589H47.2493C48.4798 53.0589 49.4773 53.9652 49.4773 55.0832V59.8278L40.537 53.0589Z" fill="black"/>
</g>
<g filter="url(#filter6_d_333_2010)">
<path fill-rule="evenodd" clip-rule="evenodd" d="M58.8776 73.9486V67.2011C58.8776 65.3378 60.5401 63.8273 62.591 63.8273H72.2457V70.5748C72.2457 72.4381 70.5831 73.9486 68.5323 73.9486H58.8776ZM61.8201 72.5991H68.5323C69.7628 72.5991 70.7603 71.6928 70.7603 70.5748V65.8302L61.8201 72.5991ZM69.3032 65.1768L60.3629 71.9457V67.2011C60.3629 66.0831 61.3605 65.1768 62.591 65.1768H69.3032ZM47.2493 51.7094C49.3001 51.7094 50.9626 53.2199 50.9626 55.0832V61.8307H41.3079C39.2571 61.8307 37.5945 60.3202 37.5945 58.4569V51.7094H47.2493ZM41.3079 60.4812H48.0201L39.0799 53.7123V58.4569C39.0799 59.5749 40.0774 60.4812 41.3079 60.4812ZM49.4773 59.8278L40.537 53.0589H47.2493C48.4798 53.0589 49.4773 53.9652 49.4773 55.0832V59.8278Z" fill="#3F8881"/>
<path d="M55.4274 51.7094V48.748L54.6879 48.7593H53.9421V68.793L50.2287 70.9399L53.9421 73.0869V82.7481C53.9421 83.1208 54.2746 83.4229 54.6848 83.4229C55.0949 83.4229 55.4274 83.1208 55.4274 82.7481V69.5904V56.4327L57.4698 55.2519L59.5121 54.071L55.4274 51.7094Z" fill="#3F8881"/>
</g>
<g filter="url(#filter7_d_333_2010)">
<path fill-rule="evenodd" clip-rule="evenodd" d="M55.4274 51.7094V48.748L54.6879 48.7593H53.9421V68.793L50.2287 70.9399L53.9421 73.0869V82.7481C53.9421 83.1208 54.2746 83.4229 54.6848 83.4229C55.0949 83.4229 55.4274 83.1208 55.4274 82.7481V56.4327L59.5121 54.071L55.4274 51.7094ZM59.3886 54.071L55.3662 51.7454V48.811L54.6879 48.8214L54.0033 48.8213V68.829L50.3523 70.9399L54.0033 73.0508V82.7481C54.0033 83.0803 54.302 83.3608 54.6848 83.3608C55.0676 83.3608 55.3662 83.0803 55.3662 82.7481V56.3966L59.3886 54.071ZM61.6358 72.6612L70.8216 65.7064V70.5748C70.8216 71.7333 69.7902 72.6612 68.5323 72.6612H61.6358ZM60.3017 72.0695V67.2011C60.3017 66.0426 61.3331 65.1147 62.591 65.1147H69.4875L60.3017 72.0695ZM48.2044 60.5433H41.3079C40.0501 60.5433 39.0187 59.6154 39.0187 58.4569V53.5885L48.2044 60.5433ZM40.3528 52.9968H47.2493C48.5071 52.9968 49.5385 53.9247 49.5385 55.0832V59.9516L40.3528 52.9968ZM58.8776 73.9486V67.2011C58.8776 65.3378 60.5401 63.8273 62.591 63.8273H72.2457V70.5748C72.2457 72.4381 70.5831 73.9486 68.5323 73.9486H58.8776ZM72.1844 63.8893H62.591C60.5675 63.8893 58.9388 65.3782 58.9388 67.2011V73.8865H68.5323C70.5558 73.8865 72.1844 72.3976 72.1844 70.5748V63.8893ZM70.7603 65.8302V70.5748C70.7603 71.6928 69.7628 72.5991 68.5323 72.5991H61.8201L70.7603 65.8302ZM69.3032 65.1768H62.591C61.3605 65.1768 60.3629 66.0831 60.3629 67.2011V71.9457L69.3032 65.1768ZM50.9014 55.0832C50.9014 53.2604 49.2728 51.7714 47.2493 51.7714H37.6558V58.4569C37.6558 60.2798 39.2844 61.7687 41.3079 61.7687H50.9014V55.0832ZM50.9626 55.0832C50.9626 53.2199 49.3001 51.7094 47.2493 51.7094H37.5945V58.4569C37.5945 60.3202 39.2571 61.8307 41.3079 61.8307H50.9626V55.0832ZM48.0201 60.4812L39.0799 53.7123V58.4569C39.0799 59.5749 40.0774 60.4812 41.3079 60.4812H48.0201ZM40.537 53.0589H47.2493C48.4798 53.0589 49.4773 53.9652 49.4773 55.0832V59.8278L40.537 53.0589Z" fill="black"/>
</g>
<path fill-rule="evenodd" clip-rule="evenodd" d="M4.33308 61.4693L4.50311 60.3487C4.85016 58.0613 5.47846 56.8146 6.43819 56.34C6.87744 56.1227 7.28784 56.1278 7.54307 56.1385C7.59698 56.1407 7.64002 56.143 7.67644 56.1449C7.74264 56.1484 7.78697 56.1507 7.83498 56.1498C7.8397 56.1497 7.84395 56.1495 7.84777 56.1494L8.65824 55.7284L8.76075 56.7718C8.88069 57.9928 8.77564 59.0986 8.05264 59.9312C7.71563 60.3194 7.29745 60.5815 6.84798 60.7777C6.39882 60.9736 5.87472 61.1221 5.28961 61.2539L4.33308 61.4693ZM7.87429 56.1472C7.87431 56.1472 7.87357 56.1473 7.872 56.1475C7.87348 56.1473 7.87426 56.1472 7.87429 56.1472ZM6.17327 59.298C6.27613 59.2617 6.37131 59.2245 6.45942 59.1861C6.78692 59.0432 6.97265 58.9017 7.08301 58.7746C7.20948 58.629 7.33145 58.3894 7.34469 57.8428C7.1262 57.834 6.99721 57.8491 6.89074 57.9018C6.78675 57.9532 6.46632 58.1689 6.17327 59.298Z" fill="#9CDAC9"/>
<path fill-rule="evenodd" clip-rule="evenodd" d="M5.74425 69.4654L5.87531 68.2725C6.15255 65.7491 6.79568 64.4137 7.76788 63.8389C8.21876 63.5723 8.65461 63.5299 8.9421 63.5114C8.99936 63.5078 9.04654 63.5052 9.08737 63.503C9.16502 63.4988 9.21973 63.4958 9.27721 63.4887C9.29816 63.4861 9.31282 63.4836 9.32222 63.4817L10.1451 62.9745L10.3063 64.043C10.5052 65.3613 10.4283 66.5256 9.70072 67.452C9.04838 68.2826 7.99211 68.7383 6.73959 69.1434L5.74425 69.4654ZM7.51115 67.107C8.11236 66.8475 8.46336 66.6025 8.66744 66.3426C8.83578 66.1283 8.96222 65.821 8.94732 65.2165C8.93581 65.2172 8.92488 65.2178 8.91462 65.2185C8.66466 65.2345 8.4927 65.2664 8.34212 65.3554C8.15981 65.4632 7.7879 65.7991 7.51115 67.107Z" fill="#9CDAC9"/>
<path fill-rule="evenodd" clip-rule="evenodd" d="M15.787 78.267L14.6929 77.8391C12.3216 76.9118 11.182 75.9423 10.8755 74.8447C10.7337 74.337 10.8084 73.9049 10.866 73.6251C10.8776 73.569 10.8876 73.523 10.8962 73.4832C10.9125 73.408 10.9239 73.3553 10.9321 73.2988C10.9347 73.2807 10.9361 73.2673 10.9368 73.2582L10.6622 72.3413L11.7177 72.4653C13.0422 72.621 14.1545 72.9983 14.8681 73.9462C15.5091 74.7977 15.6734 75.9374 15.737 77.2427L15.787 78.267ZM13.9847 75.9648C13.8913 75.3131 13.7461 74.913 13.5497 74.6521C13.3873 74.4364 13.1185 74.2312 12.5058 74.0848C12.5024 74.1006 12.4992 74.1154 12.4964 74.129C12.4461 74.3732 12.4327 74.5427 12.478 74.7049C12.5319 74.8979 12.7561 75.3457 13.9847 75.9648Z" fill="#9CDAC9"/>
<path fill-rule="evenodd" clip-rule="evenodd" d="M106.913 50.877L107.051 52.0025C107.39 54.7666 107.027 56.3169 106.111 57.122C105.687 57.4952 105.222 57.6253 104.913 57.7014C104.852 57.7163 104.801 57.7283 104.757 57.7387C104.671 57.7589 104.609 57.7735 104.545 57.793C104.517 57.8018 104.499 57.8087 104.489 57.813L103.786 58.4552L103.396 57.4863C102.848 56.1236 102.64 54.8844 103.195 53.7607C103.697 52.7415 104.741 52.0423 106.02 51.3561L106.913 50.877ZM105.702 53.4354C105.01 53.8787 104.641 54.2438 104.467 54.5971C104.318 54.8984 104.26 55.3128 104.483 56.0722C104.495 56.0693 104.507 56.0664 104.519 56.0636C104.554 56.0553 104.587 56.0476 104.615 56.0407C104.89 55.9731 105.079 55.9027 105.228 55.7719C105.419 55.6033 105.773 55.1115 105.702 53.4354Z" fill="#9CDAC9"/>
<path fill-rule="evenodd" clip-rule="evenodd" d="M11.75 30.113L12.3425 29.0823C13.426 27.1978 14.4138 26.3205 15.4303 26.2059C15.8974 26.1532 16.2674 26.2821 16.4976 26.37C16.5462 26.3886 16.5847 26.4038 16.6171 26.4165C16.6757 26.4396 16.7146 26.455 16.7582 26.4687C16.7627 26.4701 16.7668 26.4714 16.7704 26.4724L17.703 26.3495L17.421 27.3887C17.1192 28.5009 16.6454 29.4369 15.7105 29.9353C14.882 30.377 13.8761 30.3538 12.7751 30.2291L11.75 30.113ZM14.3216 28.6729C14.749 28.6645 15.025 28.601 15.2164 28.4989C15.3655 28.4195 15.5335 28.2755 15.7062 27.8935C15.5481 27.8375 15.4397 27.8174 15.3354 27.8292C15.2215 27.842 14.8924 27.9244 14.3216 28.6729Z" fill="#918B97"/>
<defs>
<filter id="filter0_d_333_2010" x="37.3802" y="48.75" width="35.08" height="35.1037" filterUnits="userSpaceOnUse" color-interpolation-filters="sRGB">
<feFlood flood-opacity="0" result="BackgroundImageFix"/>
<feColorMatrix in="SourceAlpha" type="matrix" values="0 0 0 0 0 0 0 0 0 0 0 0 0 0 0 0 0 0 127 0" result="hardAlpha"/>
<feOffset dy="0.214442"/>
<feGaussianBlur stdDeviation="0.107221"/>
<feComposite in2="hardAlpha" operator="out"/>
<feColorMatrix type="matrix" values="0 0 0 0 0 0 0 0 0 0 0 0 0 0 0 0 0 0 0.25 0"/>
<feBlend mode="normal" in2="BackgroundImageFix" result="effect1_dropShadow_333_2010"/>
<feBlend mode="normal" in="SourceGraphic" in2="effect1_dropShadow_333_2010" result="shape"/>
</filter>
<filter id="filter1_d_333_2010" x="37.3802" y="48.75" width="35.08" height="35.1037" filterUnits="userSpaceOnUse" color-interpolation-filters="sRGB">
<feFlood flood-opacity="0" result="BackgroundImageFix"/>
<feColorMatrix in="SourceAlpha" type="matrix" values="0 0 0 0 0 0 0 0 0 0 0 0 0 0 0 0 0 0 127 0" result="hardAlpha"/>
<feOffset dy="0.214442"/>
<feGaussianBlur stdDeviation="0.107221"/>
<feComposite in2="hardAlpha" operator="out"/>
<feColorMatrix type="matrix" values="0 0 0 0 0 0 0 0 0 0 0 0 0 0 0 0 0 0 0.25 0"/>
<feBlend mode="normal" in2="BackgroundImageFix" result="effect1_dropShadow_333_2010"/>
<feBlend mode="normal" in="SourceGraphic" in2="effect1_dropShadow_333_2010" result="shape"/>
</filter>
<filter id="filter2_d_333_2010" x="37.3802" y="48.75" width="35.08" height="35.1037" filterUnits="userSpaceOnUse" color-interpolation-filters="sRGB">
<feFlood flood-opacity="0" result="BackgroundImageFix"/>
<feColorMatrix in="SourceAlpha" type="matrix" values="0 0 0 0 0 0 0 0 0 0 0 0 0 0 0 0 0 0 127 0" result="hardAlpha"/>
<feOffset dy="0.214442"/>
<feGaussianBlur stdDeviation="0.107221"/>
<feComposite in2="hardAlpha" operator="out"/>
<feColorMatrix type="matrix" values="0 0 0 0 0 0 0 0 0 0 0 0 0 0 0 0 0 0 0.25 0"/>
<feBlend mode="normal" in2="BackgroundImageFix" result="effect1_dropShadow_333_2010"/>
<feBlend mode="normal" in="SourceGraphic" in2="effect1_dropShadow_333_2010" result="shape"/>
</filter>
<filter id="filter3_d_333_2010" x="37.3802" y="48.75" width="35.08" height="35.1037" filterUnits="userSpaceOnUse" color-interpolation-filters="sRGB">
<feFlood flood-opacity="0" result="BackgroundImageFix"/>
<feColorMatrix in="SourceAlpha" type="matrix" values="0 0 0 0 0 0 0 0 0 0 0 0 0 0 0 0 0 0 127 0" result="hardAlpha"/>
<feOffset dy="0.214442"/>
<feGaussianBlur stdDeviation="0.107221"/>
<feComposite in2="hardAlpha" operator="out"/>
<feColorMatrix type="matrix" values="0 0 0 0 0 0 0 0 0 0 0 0 0 0 0 0 0 0 0.25 0"/>
<feBlend mode="normal" in2="BackgroundImageFix" result="effect1_dropShadow_333_2010"/>
<feBlend mode="normal" in="SourceGraphic" in2="effect1_dropShadow_333_2010" result="shape"/>
</filter>
<filter id="filter4_d_333_2010" x="37.3801" y="48.748" width="35.08" height="35.1037" filterUnits="userSpaceOnUse" color-interpolation-filters="sRGB">
<feFlood flood-opacity="0" result="BackgroundImageFix"/>
<feColorMatrix in="SourceAlpha" type="matrix" values="0 0 0 0 0 0 0 0 0 0 0 0 0 0 0 0 0 0 127 0" result="hardAlpha"/>
<feOffset dy="0.214442"/>
<feGaussianBlur stdDeviation="0.107221"/>
<feComposite in2="hardAlpha" operator="out"/>
<feColorMatrix type="matrix" values="0 0 0 0 0 0 0 0 0 0 0 0 0 0 0 0 0 0 0.25 0"/>
<feBlend mode="normal" in2="BackgroundImageFix" result="effect1_dropShadow_333_2010"/>
<feBlend mode="normal" in="SourceGraphic" in2="effect1_dropShadow_333_2010" result="shape"/>
</filter>
<filter id="filter5_d_333_2010" x="37.3801" y="48.748" width="35.08" height="35.1037" filterUnits="userSpaceOnUse" color-interpolation-filters="sRGB">
<feFlood flood-opacity="0" result="BackgroundImageFix"/>
<feColorMatrix in="SourceAlpha" type="matrix" values="0 0 0 0 0 0 0 0 0 0 0 0 0 0 0 0 0 0 127 0" result="hardAlpha"/>
<feOffset dy="0.214442"/>
<feGaussianBlur stdDeviation="0.107221"/>
<feComposite in2="hardAlpha" operator="out"/>
<feColorMatrix type="matrix" values="0 0 0 0 0 0 0 0 0 0 0 0 0 0 0 0 0 0 0.25 0"/>
<feBlend mode="normal" in2="BackgroundImageFix" result="effect1_dropShadow_333_2010"/>
<feBlend mode="normal" in="SourceGraphic" in2="effect1_dropShadow_333_2010" result="shape"/>
</filter>
<filter id="filter6_d_333_2010" x="37.3801" y="48.748" width="35.08" height="35.1037" filterUnits="userSpaceOnUse" color-interpolation-filters="sRGB">
<feFlood flood-opacity="0" result="BackgroundImageFix"/>
<feColorMatrix in="SourceAlpha" type="matrix" values="0 0 0 0 0 0 0 0 0 0 0 0 0 0 0 0 0 0 127 0" result="hardAlpha"/>
<feOffset dy="0.214442"/>
<feGaussianBlur stdDeviation="0.107221"/>
<feComposite in2="hardAlpha" operator="out"/>
<feColorMatrix type="matrix" values="0 0 0 0 0 0 0 0 0 0 0 0 0 0 0 0 0 0 0.25 0"/>
<feBlend mode="normal" in2="BackgroundImageFix" result="effect1_dropShadow_333_2010"/>
<feBlend mode="normal" in="SourceGraphic" in2="effect1_dropShadow_333_2010" result="shape"/>
</filter>
<filter id="filter7_d_333_2010" x="37.3801" y="48.748" width="35.08" height="35.1037" filterUnits="userSpaceOnUse" color-interpolation-filters="sRGB">
<feFlood flood-opacity="0" result="BackgroundImageFix"/>
<feColorMatrix in="SourceAlpha" type="matrix" values="0 0 0 0 0 0 0 0 0 0 0 0 0 0 0 0 0 0 127 0" result="hardAlpha"/>
<feOffset dy="0.214442"/>
<feGaussianBlur stdDeviation="0.107221"/>
<feComposite in2="hardAlpha" operator="out"/>
<feColorMatrix type="matrix" values="0 0 0 0 0 0 0 0 0 0 0 0 0 0 0 0 0 0 0.25 0"/>
<feBlend mode="normal" in2="BackgroundImageFix" result="effect1_dropShadow_333_2010"/>
<feBlend mode="normal" in="SourceGraphic" in2="effect1_dropShadow_333_2010" result="shape"/>
</filter>
</defs>
</svg>
