<svg width="683" height="164" viewBox="0 0 683 164" fill="none" xmlns="http://www.w3.org/2000/svg">
<path d="M-30.871 164H698C698 164 553.814 50.1653 346.804 68.4601C139.793 86.755 -30.871 10.5264 -30.871 10.5264V164Z" fill="#13525B" stroke="#13525B"/>
<path fill-rule="evenodd" clip-rule="evenodd" d="M54.1987 133.387C54.1987 133.387 54.1986 133.387 54.8618 133.446C55.5249 133.505 55.525 133.504 55.525 133.504L55.5262 133.498L55.5296 133.48L55.5425 133.41C55.5538 133.349 55.5702 133.258 55.5909 133.139C55.6324 132.901 55.6913 132.552 55.7612 132.102C55.9011 131.203 56.2623 128.299 56.2623 128.299L56.0343 126.408C56.0343 126.408 54.4781 109.913 47.4303 102.546L46.3365 103.153C53.129 110.254 54.6942 126.452 54.6942 126.452L54.9268 128.243C54.9268 128.243 54.5685 131.122 54.4302 132.011C54.3611 132.456 54.303 132.801 54.2623 133.034C54.2419 133.151 54.2259 133.239 54.215 133.299L54.2027 133.365L54.1996 133.382L54.1987 133.387Z" fill="#618165"/>
<path d="M38.1126 100.688C35.5899 98.8578 47.208 94.5373 48.5848 95.8897C49.4443 94.9693 50.2547 95.0924 50.572 95.9944C46.2128 99.9525 40.6353 102.518 38.1126 100.688Z" fill="#DFA47B"/>
<path fill-rule="evenodd" clip-rule="evenodd" d="M47.6234 95.8472C48.0437 95.8545 48.2619 95.9313 48.3536 96.0214C48.3965 96.0636 48.408 96.1015 48.4021 96.1435C48.3953 96.1921 48.3626 96.2597 48.2816 96.3473C48.1172 96.5251 47.8045 96.732 47.3727 96.9501C46.5168 97.3825 45.2901 97.8112 44.1762 98.106C43.6204 98.2531 43.1008 98.3647 42.6769 98.4268C42.4648 98.4579 42.282 98.4758 42.1338 98.4804C42.0062 98.4844 41.9193 98.478 41.8657 98.4684C41.8745 98.454 41.8881 98.4347 41.9091 98.4099C42.0494 98.2451 42.3973 97.9828 43.0559 97.6034L42.7097 97.2629C42.047 97.6446 41.6251 97.947 41.4245 98.1826C41.3268 98.2973 41.2469 98.436 41.2803 98.5781C41.3187 98.7415 41.4829 98.8295 41.6377 98.8701C41.7863 98.9092 41.9655 98.9176 42.1472 98.9119C42.334 98.9061 42.5474 98.8843 42.7775 98.8506C43.2378 98.7832 43.7862 98.6647 44.3594 98.513C45.5037 98.2101 46.7793 97.7664 47.6891 97.3068C48.1402 97.0789 48.5262 96.8349 48.7538 96.5887C48.8687 96.4644 48.9552 96.3267 48.9757 96.1807C48.9893 96.0839 48.9728 95.9898 48.9258 95.9015C49.2947 95.5435 49.5821 95.4589 49.7446 95.4721C49.8932 95.4842 50.1006 95.5969 50.2515 95.9469C48.1122 97.8708 45.6974 99.4445 43.5201 100.321C41.2836 101.221 39.4301 101.34 38.3145 100.53C38.0696 100.353 38.0039 100.159 38.0636 99.9389C38.1278 99.7028 38.3418 99.424 38.7049 99.116C39.4281 98.5025 40.6529 97.8477 42.0213 97.2828C43.3859 96.7195 44.8656 96.257 46.0803 96.0192C46.6892 95.8999 47.2168 95.8401 47.6234 95.8472ZM48.5423 95.5754C48.9344 95.2182 49.3708 95.0064 49.8175 95.0427C50.3543 95.0865 50.6852 95.4655 50.8503 95.9346L50.888 96.0419L50.7924 96.1288C48.5968 98.1223 46.0842 99.7753 43.7858 100.7C41.513 101.615 39.3164 101.864 37.9093 100.843C37.5235 100.563 37.4004 100.222 37.4986 99.8604C37.5923 99.5153 37.8828 99.1668 38.2757 98.8335C39.0644 98.1645 40.3571 97.4805 41.7501 96.9055C43.1468 96.3289 44.6721 95.8505 45.9442 95.6014C46.5787 95.4772 47.165 95.407 47.6474 95.4154C47.9766 95.4211 48.2947 95.4643 48.5423 95.5754Z" fill="#9F6D4A"/>
<path fill-rule="evenodd" clip-rule="evenodd" d="M44.456 100.228C46.3701 99.4627 48.2058 97.9786 50.4934 95.7519L50.1903 95.579C47.9021 97.8062 46.1113 99.2424 44.2798 99.9747C42.4669 100.7 40.592 100.743 38.0997 100.133L37.9742 100.406C40.5337 101.033 42.5234 101.001 44.456 100.228Z" fill="#9F6D4A"/>
<path d="M51.4252 106.301C53.2212 104.677 53.6529 101.833 50.4666 95.7944C46.5399 98.326 44.6636 101.656 39.6212 100.454C34.5789 99.2518 41.2832 104.04 42.7263 106.339C44.1695 108.637 49.6293 107.925 51.4252 106.301Z" fill="#DFA47B"/>
<path fill-rule="evenodd" clip-rule="evenodd" d="M50.5891 95.4336L50.2816 95.6318C49.2859 96.2738 48.422 96.9652 47.6159 97.6139C47.5955 97.6303 47.5752 97.6467 47.5548 97.6631C46.7677 98.2967 46.0388 98.8834 45.2803 99.3598C44.505 99.8466 43.714 100.208 42.8247 100.38C41.9387 100.551 40.9315 100.538 39.7142 100.248C39.0773 100.096 38.5845 100.028 38.2276 100.052C38.0454 100.065 37.872 100.103 37.734 100.186C37.5893 100.274 37.5144 100.392 37.4914 100.517C37.4496 100.745 37.5753 101.015 37.7489 101.28C37.9299 101.556 38.1948 101.872 38.5041 102.208C38.936 102.678 39.4696 103.204 40.0068 103.733C40.2372 103.96 40.4681 104.188 40.6921 104.412C41.4471 105.168 42.1191 105.881 42.4658 106.434C43.2603 107.699 45.139 108.103 46.9594 108.006C48.7807 107.91 50.6817 107.309 51.6468 106.437C53.5569 104.709 53.9246 101.755 50.7359 95.7118L50.5891 95.4336ZM50.3464 96.159C53.3671 101.997 52.8608 104.668 51.2054 106.165C50.3746 106.916 48.6477 107.484 46.9293 107.575C45.2101 107.666 43.6373 107.277 42.9886 106.244C42.6137 105.647 41.9065 104.9 41.1562 104.149C40.9258 103.919 40.691 103.687 40.4587 103.458C39.9255 102.933 39.4053 102.42 38.9811 101.959C38.6773 101.628 38.4305 101.332 38.2675 101.083C38.097 100.824 38.0466 100.657 38.0628 100.568C38.0688 100.536 38.0815 100.526 38.0911 100.521C38.1076 100.511 38.1554 100.49 38.2697 100.482C38.5056 100.466 38.9063 100.511 39.53 100.66C40.8339 100.97 41.9522 100.992 42.9588 100.798C43.9622 100.604 44.8311 100.2 45.646 99.6885C46.4333 99.1941 47.1843 98.5895 47.9613 97.964C47.9858 97.9444 48.0103 97.9246 48.0348 97.9049C48.7559 97.3245 49.5054 96.7249 50.3464 96.159Z" fill="#9F6D4A"/>
<path fill-rule="evenodd" clip-rule="evenodd" d="M48.5728 99.0841C49.4891 98.046 50.322 96.968 50.7987 95.8688L50.0678 95.7001C49.6242 96.7229 48.8383 97.7479 47.9337 98.7728C47.4822 99.2843 47.0051 99.7915 46.5298 100.296L46.5189 100.308C46.0485 100.808 45.5798 101.306 45.1469 101.797C44.2781 102.783 43.5302 103.767 43.1906 104.725C42.8465 105.696 42.9188 106.653 43.706 107.551L44.3513 107.229C43.7064 106.493 43.633 105.712 43.9337 104.863C44.2389 104.002 44.926 103.084 45.7863 102.108C46.2125 101.624 46.6754 101.133 47.1484 100.63L47.1556 100.622C47.6298 100.118 48.1137 99.6042 48.5728 99.0841Z" fill="#9F6D4A"/>
<path d="M57.0215 111.395C56.1798 112.849 53.4157 113.007 53.4157 113.007C53.4157 113.007 51.8133 112.48 53.4593 110.039C55.1053 107.599 58.2625 107.149 58.2625 107.149C58.2625 107.149 57.8632 109.942 57.0215 111.395Z" fill="#618165"/>
<path fill-rule="evenodd" clip-rule="evenodd" d="M58.2319 107.007L58.2624 107.149L58.4527 107.161L58.4797 106.972L58.2319 107.007ZM53.4156 113.007L53.4248 113.151L53.3778 113.153L53.3352 113.139L53.4156 113.007ZM58.0406 107.338C58.0292 107.408 58.0147 107.494 57.9971 107.593C57.9468 107.876 57.8709 108.268 57.769 108.706C57.5642 109.585 57.257 110.631 56.8463 111.34C56.4573 112.012 55.6171 112.395 54.8411 112.61C54.4562 112.717 54.0957 112.78 53.8313 112.817C53.6993 112.835 53.5917 112.847 53.5178 112.853C53.4953 112.855 53.4759 112.857 53.4599 112.858C53.4582 112.858 53.4564 112.857 53.4546 112.856C53.4227 112.841 53.3761 112.816 53.3234 112.779C53.2186 112.705 53.0882 112.582 53.0018 112.389C52.8295 112.002 52.8192 111.303 53.6294 110.102C54.4303 108.914 55.5982 108.211 56.5675 107.805C57.0523 107.601 57.4867 107.472 57.7989 107.394C57.8907 107.372 57.9719 107.353 58.0406 107.338ZM53.4156 113.007C53.3352 113.139 53.3353 113.139 53.3352 113.139L53.3312 113.138L53.325 113.136L53.306 113.129C53.2906 113.123 53.27 113.114 53.2453 113.102C53.1959 113.079 53.1302 113.044 53.0584 112.993C52.9143 112.892 52.7469 112.731 52.6385 112.488C52.4211 112 52.4533 111.216 53.2891 109.976C54.1341 108.723 55.3678 107.981 56.3886 107.553C56.8988 107.339 57.3566 107.203 57.6878 107.12C57.8535 107.079 57.9878 107.051 58.0815 107.033C58.1284 107.024 58.1651 107.018 58.1905 107.013L58.2201 107.009L58.2283 107.007L58.2319 107.007L58.2624 107.149L58.4527 107.161L58.4524 107.163L58.4515 107.169L58.4479 107.193L58.4337 107.285C58.421 107.365 58.402 107.48 58.3766 107.623C58.3258 107.909 58.2492 108.306 58.1461 108.748C57.9409 109.629 57.6275 110.705 57.1965 111.45C56.7438 112.232 55.7811 112.654 54.9646 112.881C54.5533 112.996 54.1701 113.063 53.89 113.101C53.7497 113.121 53.6347 113.133 53.5542 113.14C53.5139 113.144 53.4822 113.147 53.4603 113.148L53.4348 113.15L53.4278 113.151L53.4248 113.151L53.4156 113.007Z" fill="#324635"/>
<path d="M554.873 98.8797C559.409 97.6297 561.872 97.7342 566.155 99.1308C567.041 92.5231 567.285 88.8739 567.384 82.4904L565.795 89.3687C565.645 88.9237 565.711 85.6347 565.151 84.3046C563.957 85.9866 563.727 87.3062 563.698 89.989L561.545 90.3698C561.191 82.6718 559.983 85.577 560.154 92.1908L556.063 84.4298L558.143 93.1703C557.177 93.1342 556.593 92.9014 555.346 91.4347L552.872 85.7582C553.22 91.0269 553.564 93.9315 554.873 98.8797Z" fill="#408682"/>
<path d="M39.1597 143.855C49.9926 142.074 55.8129 142.672 65.8364 146.138C68.4645 133.079 69.3358 125.829 70.0819 113.093L65.769 126.581C65.4492 125.669 65.8694 119.11 64.6511 116.364C61.6907 119.536 61.0398 122.135 60.7575 127.489L55.6303 127.91C55.4121 112.478 52.3198 118.09 52.1945 131.328L43.1352 115.18L47.3565 132.967C45.0724 132.742 43.709 132.185 40.8752 129.058L35.4782 117.329C35.8786 127.908 36.4586 133.764 39.1597 143.855Z" fill="#408682"/>
<path fill-rule="evenodd" clip-rule="evenodd" d="M365.147 126.741C365.147 126.741 365.147 126.741 364.331 127.065C363.514 127.39 363.514 127.389 363.514 127.389L363.509 127.382L363.496 127.361L363.443 127.281C363.398 127.21 363.33 127.106 363.243 126.969C363.068 126.694 362.815 126.29 362.496 125.768C361.858 124.723 359.913 121.317 359.913 121.317L359.237 118.922C359.237 118.922 352.796 98.1988 358.031 86.5257L359.738 86.8509C354.693 98.1011 360.971 118.466 360.971 118.466L361.589 120.74C361.589 120.74 363.518 124.118 364.149 125.15C364.464 125.667 364.715 126.066 364.886 126.335C364.971 126.469 365.037 126.572 365.081 126.64L365.131 126.716L365.144 126.735L365.147 126.741Z" fill="#618165"/>
<path d="M368.981 80.7159C371.267 77.5228 354.223 76.6696 353.156 78.8437C351.588 78.0474 350.616 78.5059 350.672 79.7274C358.261 82.8995 366.695 83.9089 368.981 80.7159Z" fill="#DFA47B"/>
<path fill-rule="evenodd" clip-rule="evenodd" d="M354.364 78.4269C353.831 78.5957 353.592 78.7724 353.521 78.9173C353.488 78.9851 353.492 79.0357 353.521 79.0848C353.555 79.1414 353.631 79.2114 353.779 79.2876C354.08 79.442 354.585 79.5756 355.248 79.6775C356.562 79.8796 358.348 79.9362 359.921 79.8723C360.706 79.8404 361.426 79.7789 361.999 79.6934C362.286 79.6506 362.528 79.6029 362.72 79.5522C362.885 79.5085 362.993 79.4677 363.056 79.4356C363.038 79.4213 363.011 79.4029 362.971 79.3807C362.708 79.233 362.129 79.0452 361.094 78.8327L361.363 78.2855C362.404 78.4992 363.097 78.7077 363.474 78.9189C363.657 79.0218 363.83 79.1607 363.86 79.3468C363.894 79.5607 363.73 79.7307 363.553 79.8391C363.383 79.9433 363.158 80.0218 362.923 80.0839C362.682 80.1478 362.398 80.2025 362.087 80.2489C361.465 80.3417 360.704 80.4056 359.895 80.4385C358.279 80.5042 356.423 80.448 355.026 80.2331C354.334 80.1266 353.716 79.9756 353.3 79.7618C353.09 79.6538 352.909 79.5187 352.808 79.3483C352.741 79.2354 352.714 79.1142 352.729 78.9885C352.075 78.692 351.665 78.6981 351.464 78.7761C351.28 78.8474 351.073 79.0638 351.059 79.5482C354.774 81.0824 358.662 82.0843 361.89 82.3254C365.206 82.5731 367.634 82.013 368.645 80.601C368.867 80.2911 368.852 80.0297 368.663 79.7839C368.46 79.5201 368.045 79.2613 367.424 79.0235C366.186 78.5499 364.288 78.2168 362.252 78.0479C360.221 77.8796 358.095 77.878 356.423 78.0498C355.584 78.1359 354.88 78.2636 354.364 78.4269ZM353.052 78.4447C352.369 78.158 351.703 78.0655 351.152 78.2798C350.488 78.5373 350.259 79.1257 350.288 79.761L350.295 79.9064L350.462 79.976C354.284 81.5737 358.337 82.6352 361.745 82.8897C365.115 83.1415 368.047 82.6097 369.322 80.8287C369.672 80.3404 369.654 79.8767 369.344 79.4731C369.048 79.0876 368.499 78.7729 367.827 78.5156C366.478 77.9991 364.478 77.6561 362.405 77.4843C360.327 77.312 358.135 77.3083 356.383 77.4882C355.509 77.578 354.725 77.7154 354.113 77.9091C353.696 78.0413 353.312 78.2149 353.052 78.4447Z" fill="#9F6D4A"/>
<path fill-rule="evenodd" clip-rule="evenodd" d="M360.646 82.5657C357.811 82.3597 354.708 81.2468 350.649 79.3996L350.948 79.0733C355.008 80.921 358.029 81.9923 360.742 82.1894C363.427 82.3844 365.844 81.7237 368.714 80.0312L369.015 80.3177C366.066 82.0559 363.509 82.7736 360.646 82.5657Z" fill="#9F6D4A"/>
<path d="M354.85 92.6304C351.727 91.3315 349.722 88.0252 350.706 79.4429C357.013 81.0388 361.11 84.3891 366.935 81.0038C372.759 77.6185 366.645 86.0134 365.977 89.3677C365.309 92.722 357.973 93.9294 354.85 92.6304Z" fill="#DFA47B"/>
<path fill-rule="evenodd" clip-rule="evenodd" d="M350.364 79.0498L350.858 79.1748C352.457 79.5795 353.914 80.0947 355.274 80.5798C355.309 80.5921 355.343 80.6043 355.377 80.6166C356.706 81.0904 357.937 81.5292 359.149 81.822C360.388 82.1213 361.582 82.2616 362.806 82.1328C364.024 82.0045 365.304 81.6057 366.71 80.7885C367.446 80.3609 368.04 80.09 368.508 79.9841C368.747 79.9301 368.989 79.911 369.207 79.9603C369.437 80.0119 369.593 80.1278 369.686 80.2719C369.856 80.534 369.833 80.9111 369.747 81.3C369.657 81.7058 369.48 82.1924 369.257 82.7207C368.946 83.4587 368.533 84.3034 368.117 85.1538C367.939 85.5183 367.761 85.884 367.589 86.2427C367.011 87.4523 366.518 88.5791 366.357 89.3849C365.989 91.2315 363.797 92.4388 361.423 93.0135C359.048 93.5886 356.314 93.5792 354.635 92.8812C351.314 91.4997 349.335 88.0338 350.318 79.4452L350.364 79.0498ZM351.044 79.8428C350.17 88.117 352.181 91.1843 355.06 92.3816C356.505 92.9824 359 93.0189 361.241 92.4763C363.483 91.9336 365.292 90.8601 365.593 89.3523C365.766 88.481 366.288 87.3006 366.862 86.0985C367.039 85.7294 367.22 85.3578 367.4 84.9901C367.812 84.1461 368.215 83.3226 368.52 82.5979C368.74 82.0788 368.903 81.6233 368.984 81.258C369.069 80.8759 369.048 80.6529 368.983 80.5515C368.958 80.5139 368.937 80.5073 368.922 80.5039C368.896 80.498 368.824 80.4912 368.674 80.525C368.365 80.595 367.876 80.8022 367.156 81.221C365.65 82.0964 364.233 82.5483 362.848 82.6941C361.468 82.8394 360.152 82.677 358.85 82.3624C357.592 82.0585 356.324 81.6063 355.012 81.1385C354.971 81.1238 354.93 81.109 354.888 81.0943C353.671 80.6603 352.407 80.2135 351.044 79.8428Z" fill="#9F6D4A"/>
<path fill-rule="evenodd" clip-rule="evenodd" d="M354.804 82.7379C353.103 81.8196 351.489 80.8209 350.318 79.6608L351.166 79.1769C352.255 80.2563 353.782 81.2082 355.461 82.1149C356.299 82.5673 357.167 83.0048 358.032 83.4403L358.052 83.4502C358.908 83.8813 359.761 84.3108 360.565 84.7456C362.178 85.6183 363.636 86.5345 364.56 87.5747C365.495 88.6288 365.892 89.8234 365.346 91.2195L364.357 91.0719C364.804 89.9282 364.499 88.9468 363.681 88.0257C362.851 87.0908 361.505 86.2325 359.908 85.3683C359.116 84.9402 358.274 84.516 357.413 84.0826L357.4 84.0761C356.537 83.6415 355.656 83.1979 354.804 82.7379Z" fill="#9F6D4A"/>
<path d="M350.306 100.977C352.124 102.43 355.734 101.572 355.734 101.572C355.734 101.572 357.511 100.32 354.162 97.9667C350.813 95.6137 346.552 96.2666 346.552 96.2666C346.552 96.2666 348.489 99.5228 350.306 100.977Z" fill="#618165"/>
<path fill-rule="evenodd" clip-rule="evenodd" d="M346.517 96.0816L346.551 96.2665L346.314 96.3531L346.183 96.1328L346.517 96.0816ZM355.733 101.572L355.795 101.751L355.856 101.737L355.904 101.703L355.733 101.572ZM346.931 96.4134C346.981 96.4938 347.043 96.5928 347.116 96.7071C347.325 97.0334 347.623 97.4835 347.976 97.9787C348.687 98.9736 349.614 100.134 350.501 100.843C351.341 101.515 352.609 101.662 353.71 101.63C354.256 101.614 354.749 101.555 355.105 101.498C355.283 101.47 355.426 101.443 355.524 101.424C355.554 101.418 355.58 101.412 355.601 101.408C355.602 101.406 355.604 101.405 355.606 101.403C355.639 101.372 355.686 101.324 355.734 101.259C355.831 101.129 355.934 100.93 355.946 100.66C355.968 100.123 355.624 99.2661 353.976 98.1079C352.346 96.963 350.496 96.5495 349.05 96.422C348.327 96.3582 347.707 96.3661 347.268 96.3898C347.139 96.3968 347.026 96.4051 346.931 96.4134ZM355.733 101.572C355.904 101.703 355.903 101.703 355.904 101.703L355.908 101.7L355.915 101.695L355.935 101.679C355.952 101.666 355.974 101.647 355.999 101.624C356.05 101.577 356.116 101.509 356.182 101.42C356.315 101.241 356.446 100.981 356.46 100.643C356.489 99.9653 356.047 99.02 354.346 97.8253C352.627 96.6173 350.672 96.1808 349.15 96.0465C348.389 95.9794 347.735 95.9876 347.27 96.0128C347.037 96.0253 346.851 96.0422 346.723 96.0561C346.658 96.063 346.608 96.0692 346.573 96.0737L346.533 96.0792L346.522 96.0808L346.517 96.0816L346.551 96.2665L346.314 96.3531L346.315 96.3557L346.32 96.363L346.337 96.391L346.402 96.4978C346.459 96.5904 346.542 96.7241 346.648 96.889C346.859 97.2186 347.159 97.6734 347.517 98.174C348.229 99.1706 349.179 100.366 350.11 101.11C351.087 101.892 352.532 102.042 353.691 102.008C354.275 101.991 354.798 101.927 355.176 101.868C355.365 101.838 355.518 101.809 355.624 101.788C355.678 101.777 355.719 101.768 355.748 101.762L355.782 101.754L355.791 101.752L355.795 101.751L355.733 101.572Z" fill="#324635"/>
<path d="M353.181 143.416C366.364 138.177 373.944 137.163 387.778 138.241C386.937 122.34 385.724 113.683 382.597 98.7082L381.437 115.601C380.739 114.638 379.174 106.914 376.749 104.09C374.006 108.633 374.011 111.836 375.365 118.122L368.99 120.113C363.777 102.296 361.647 109.705 365.722 125.08L349.056 109.025L360.104 128.398C357.133 128.807 355.224 128.561 350.626 125.769L340.023 113.761C343.915 125.901 346.525 132.517 353.181 143.416Z" fill="#408682"/>
<path d="M121.596 113.468C122.646 115.041 122.719 117.073 121.783 118.717L113.485 133.305H111.941L118.383 121.295C120.121 118.055 119.94 114.122 117.913 111.055L109.407 98.1838C107.343 95.0614 103.709 93.3526 99.988 93.7554L85.0241 95.375C81.4489 95.762 78.3568 98.0388 76.9259 101.338L70.7334 115.616C69.3867 118.721 69.702 122.296 71.5711 125.118L76.9951 133.305H75.1706L68.2926 122.832C67.3745 121.434 67.2162 119.669 67.8708 118.13L76.6944 97.3841C77.4005 95.724 78.946 94.573 80.7388 94.3721L103.864 91.7809C105.722 91.5727 107.541 92.4185 108.579 93.9733L121.596 113.468Z" fill="#4B7382"/>
<path d="M26.4467 84.9516C27.5174 82.468 29.5897 80.5596 32.1324 79.6382L52.8464 72.1313C53.3582 71.9458 53.9314 72.0982 54.2835 72.5133L33.869 81.0342C31.4648 82.0377 29.537 83.9391 28.5473 86.349C24.7525 95.5886 22.9162 101.641 20.2953 111.475L20.1382 111.282C19.1737 110.095 18.8023 108.529 19.1505 107.04C21.1018 98.695 22.9704 93.0151 26.4467 84.9516Z" fill="#4B7382"/>
<path d="M-18.8612 87.4683C-18.8612 85.9613 -18.1803 84.5323 -17.0074 83.5863C-10.0023 77.9359 -5.31088 74.3701 1.52129 69.6665C3.26276 68.4676 5.57404 68.5137 7.278 69.7653L7.3835 69.8428C-0.714249 75.1815 -5.43463 78.5562 -12.8267 85.0924C-13.8183 85.9692 -14.411 87.2103 -14.4838 88.5321L-15.6332 109.403C-17.416 109.403 -18.8612 107.958 -18.8612 106.175V87.4683Z" fill="#4B7382"/>
<path d="M15.2766 45.4444C15.7981 44.3679 16.6902 43.5117 17.7897 43.0407C27.4686 38.8941 34.3182 36.4502 44.016 33.2589C45.067 32.9131 46.223 33.1092 47.1014 33.7818C37.2922 37.3718 30.6319 39.8809 21.5593 44.1074C19.7264 44.9613 18.2113 46.3716 17.2022 48.1238L8.64662 62.98C7.89162 62.237 7.69434 61.0953 8.15619 60.1419L15.2766 45.4444Z" fill="#4B7382"/>
<path d="M5.41866 36.8671C4.18369 36.5472 3.71175 35.053 4.56325 34.103C7.48161 30.8471 11.1494 27.0754 13.0771 25.1158C13.951 24.2274 14.9865 23.5212 16.127 23.0188C16.6323 22.7962 17.182 22.5538 17.7697 22.2947L17.7834 22.2887C24.0392 19.5304 34.5758 14.8848 41.5109 12.0383C42.6693 11.5628 43.9654 11.5545 45.1366 11.9977L17.9478 24.9832C17.1769 25.3514 16.4564 25.8168 15.8038 26.3682L12.0088 29.5744C11.6391 29.8868 11.2925 30.2256 10.9718 30.5882L5.41866 36.8671Z" fill="#4B7382"/>
<path d="M-26.2996 66.9332C-26.655 66.2592 -26.5858 65.4406 -26.1281 64.8316C-24.2224 62.2963 -22.531 59.9105 -20.9206 57.6388C-15.8113 50.4318 -11.5161 44.3731 -3.77669 38.3322C-3.04083 37.7578 -2.0526 37.629 -1.18462 37.9724C-8.71436 43.7132 -13.0952 49.592 -18.3873 56.6936C-20.729 59.836 -23.2492 63.2179 -26.2996 66.9332Z" fill="#4B7382"/>
<path d="M-30.3696 133.305L-18.8858 116.46C-17.2899 114.119 -14.6399 112.719 -11.8066 112.719L-23.5957 133.305H-30.3696Z" fill="#4B7382"/>
<path d="M117.976 60.2171L108.495 81.0797L113.934 66.2831C115.212 62.8061 114.481 58.8902 111.94 56.1939C108.363 52.3969 105.269 49.4314 101.188 45.8336C99.0837 43.9787 96.278 43.1384 93.4933 43.475L72.0537 46.0667C68.4357 46.5041 65.342 48.8752 63.9793 52.2552L57.1487 69.1973C56.3264 68.2689 56.1103 66.9507 56.5932 65.8083L64.0811 48.0947C64.7772 46.4482 66.2993 45.2985 68.0734 45.0793L96.5799 41.5567C97.9626 41.3858 99.3572 41.7995 100.416 42.705C107.505 48.7665 111.608 52.8473 117.976 60.2171Z" fill="#4B7382"/>
<path d="M141.39 14.3539C142.09 14.8009 142.273 15.7429 141.79 16.419L135.724 12.7215C134.936 12.2415 134.086 11.87 133.194 11.6327C123.141 8.95661 114.72 8.06847 100.587 6.57794L99.7312 6.48769C100.637 5.85306 101.74 5.56415 102.84 5.67214C103.631 5.74977 104.405 5.82532 105.162 5.89928C116.83 7.03877 124.648 7.80235 133.707 10.0358C134.723 10.2863 135.688 10.7113 136.569 11.2745L141.39 14.3539Z" fill="#4B7382"/>
<path d="M108.713 25.7749C109.5 24.4226 110.926 23.5633 112.489 23.5101C121.278 23.2114 126.983 23.3552 136.051 24.1752C136.897 24.2518 137.715 24.5478 138.414 25.031C146.207 30.4163 150.623 33.9605 156.679 39.7634C157.616 40.6618 157.836 42.0767 157.225 43.2226C150.579 36.8638 146.475 33.1894 139.967 28.2583C138.445 27.105 136.611 26.4329 134.705 26.3135C125.236 25.72 119.053 25.6258 108.713 25.7749Z" fill="#4B7382"/>
<path d="M87.0541 12.2634C88.1742 12.0916 89.3194 12.3054 90.302 12.8697L103.741 20.5873C104.796 21.1932 105.19 22.5209 104.635 23.6038L91.6866 15.9075C89.6841 14.7172 87.3289 14.2634 85.0275 14.6244L66.6712 17.5038C64.3303 17.871 62.1958 19.0575 60.6483 20.8519L51.3118 31.677C50.3993 31.0458 50.2088 29.7754 50.8961 28.9042L59.6351 17.8277C60.4193 16.8339 61.5512 16.1744 62.8026 15.9825L87.0541 12.2634Z" fill="#4B7382"/>
<path fill-rule="evenodd" clip-rule="evenodd" d="M166.226 84.3481C167.047 85.6778 167.179 87.3207 166.601 88.7726L157.965 110.481C157.208 112.384 155.368 113.632 153.32 113.632H130.318C128.656 113.632 127.103 112.807 126.173 111.43L112.08 90.5484C111.12 89.1265 110.956 87.3117 111.646 85.7409L120.874 64.7266C121.671 62.91 123.468 61.7369 125.452 61.7369H146.299C147.661 61.7369 148.967 62.2922 149.903 63.2819C157.058 70.8482 161.071 75.997 166.226 84.3481ZM113.915 83.0973C112.345 86.2959 112.597 90.0879 114.574 93.0517L124.691 108.215C126.546 110.995 129.667 112.665 133.009 112.665H148.477C152.803 112.665 156.638 109.883 157.982 105.771L162.755 91.1652C163.723 88.2047 163.267 84.9529 161.459 82.4169C157.528 76.9037 154.206 72.7614 149.436 67.3062C147.559 65.1603 144.836 63.9471 141.986 63.9471H129.542C125.727 63.9471 122.244 66.1178 120.564 69.5428L113.915 83.0973Z" fill="#4B7382"/>
<path d="M160.641 43.7753C161.059 43.0349 161.91 42.6497 162.742 42.8267C170.143 44.4019 174.916 45.7038 182.802 48.4845C183.548 48.7474 184.222 49.1878 184.763 49.7641C192.379 57.8725 196.768 62.9576 203.199 71.0574C204.032 72.1057 204.15 73.5516 203.503 74.7239C196.528 65.9341 192.33 60.7595 185.558 52.7575C184.408 51.3998 182.914 50.3712 181.231 49.7955C173.466 47.1391 168.582 45.7575 160.641 43.7753Z" fill="#4B7382"/>
<path d="M145.232 18.3533C145.818 17.5895 146.781 17.2159 147.729 17.3843L155.669 18.7954C156.082 18.8688 156.488 18.9954 156.869 19.1699C167.901 24.2186 173.858 27.7511 182.505 34.26C183.41 34.9408 183.939 36.0115 183.939 37.1435C174.039 30.0708 168.093 26.3211 157.669 20.9234C156.758 20.4518 155.776 20.1267 154.765 19.9566L145.232 18.3533Z" fill="#4B7382"/>
<path d="M224.019 80.2976C225.226 80.799 226.189 81.7531 226.701 82.9557L234.478 101.212C234.836 102.051 234.957 102.972 234.829 103.875L231.741 125.606C231.481 127.434 229.6 128.557 227.867 127.917L231.575 106.013C231.903 104.079 231.654 102.091 230.86 100.297L225.089 87.2581C224.077 84.9723 222.246 83.1483 219.957 82.1454L206.675 76.3283C207.381 74.8136 209.155 74.1245 210.699 74.7655L224.019 80.2976Z" fill="#4B7382"/>
<path d="M191.868 93.6607C193.253 93.9193 194.468 94.7495 195.198 95.9559C200.481 104.693 203.419 110.906 207.156 121.408C207.656 122.815 207.488 124.373 206.71 125.648L202.043 133.305H199.798L203.098 127.759C204.649 125.151 204.941 121.974 203.843 119.145C201.048 111.949 198.739 106.805 195.355 100.312C193.931 97.58 191.285 95.703 188.247 95.1932L171.653 92.4088C172.186 91.0462 173.611 90.2545 175.049 90.5228L191.868 93.6607Z" fill="#4B7382"/>
<path d="M154.887 118.798C155.667 118.798 156.387 119.219 156.768 119.9L164.29 133.305H162.746L154.887 118.798Z" fill="#B0B8BB" fill-opacity="0.5"/>
<path d="M118.678 133.305L126.995 119.872C127.408 119.205 128.138 118.798 128.923 118.798L120.222 133.305H118.678Z" fill="#B0B8BB" fill-opacity="0.5"/>
<path d="M-33.8783 129.659C-35.5895 130.457 -37.5428 130.563 -39.3304 129.955L-43.5159 128.532C-48.3372 126.892 -51.1562 121.892 -50.063 116.918L-46.4465 100.464C-46.3158 99.8693 -46.131 99.2878 -45.8948 98.7265C-45.6934 98.2479 -45.4955 97.777 -45.3005 97.3132C-41.2813 87.751 -38.5418 81.2335 -33.0738 73.029C-31.9037 71.2735 -29.2861 71.5317 -28.4144 73.4529C-34.9709 83.3943 -37.6495 88.7491 -42.5797 101.06L-46.0616 115.122C-47.2168 119.788 -44.8893 124.615 -40.5196 126.617L-33.8783 129.659Z" fill="#4B7382"/>
<path d="M-24.3575 83.2427C-23.8546 84.4564 -23.5957 85.7573 -23.5957 87.071V108.844C-23.5957 110.569 -24.0419 112.264 -24.891 113.766L-33.8783 129.659L-40.5196 126.617C-44.8893 124.615 -47.2168 119.788 -46.0616 115.122L-42.5797 101.06C-37.6495 88.7491 -34.9709 83.3943 -28.4144 73.4529L-24.3575 83.2427Z" fill="#B0B8BB" fill-opacity="0.5"/>
<path d="M226.642 133.305H206.113L210.464 126.343L226.642 133.305Z" fill="#B0B8BB" fill-opacity="0.5"/>
<path d="M210.464 126.343C210.948 125.549 211.94 125.227 212.799 125.587L231.235 133.305H226.642L210.464 126.343Z" fill="#4B7382"/>
<path d="M66.1884 133.305H34.7509L60.5746 124.351L66.1884 133.305Z" fill="#90B2BF" fill-opacity="0.45"/>
<path d="M60.5746 124.351C61.6453 123.98 62.8311 124.389 63.4448 125.342L68.5743 133.305H66.1884L60.5746 124.351Z" fill="#4B7382"/>
<path fill-rule="evenodd" clip-rule="evenodd" d="M199.798 133.305H170.185L162.632 120.913C161.82 119.58 161.676 117.945 162.244 116.491L171.653 92.4088L188.247 95.1932C191.285 95.703 193.931 97.58 195.355 100.312C198.739 106.805 201.048 111.949 203.843 119.145C204.941 121.974 204.649 125.151 203.098 127.759L199.798 133.305ZM162.746 133.305H120.222L128.923 118.798H154.887L162.746 133.305ZM111.941 133.305H76.9951L71.5711 125.118C69.702 122.296 69.3867 118.721 70.7334 115.616L76.9259 101.338C78.3568 98.0388 81.4489 95.762 85.0241 95.375L99.988 93.7554C103.709 93.3526 107.343 95.0614 109.407 98.1838L117.913 111.055C119.94 114.122 120.121 118.055 118.383 121.295L111.941 133.305ZM30.1195 133.305H-23.5957L-11.8066 112.719H10.1315C13.3416 112.719 16.3565 114.26 18.2367 116.862L30.1195 133.305ZM246.18 133.305H237.832L237.379 132.791C235.36 130.498 234.5 127.407 235.045 124.401L238.914 103.047C242.34 112.316 245.201 121.742 247.543 131.62C247.748 132.483 247.08 133.305 246.18 133.305ZM199.502 95.1406C198.722 93.7679 198.621 92.1039 199.257 90.6587C201.824 84.8299 203.612 81.3425 206.675 76.3283L219.957 82.1454C222.246 83.1483 224.077 84.9723 225.089 87.2581L230.86 100.297C231.654 102.091 231.903 104.079 231.575 106.013L227.867 127.917L214.449 122.753C213.16 122.257 212.135 121.249 211.608 119.972C207.646 110.364 204.711 104.302 199.502 95.1406ZM108.495 81.0797L106.047 86.4681L78.7829 89.9632C76.9858 90.1936 75.208 89.4302 74.1148 87.9854C68.8273 80.9977 64.7914 76.5127 57.1487 69.1973L63.9793 52.2552C65.342 48.8752 68.4357 46.5041 72.0537 46.0667L93.4933 43.475C96.278 43.1384 99.0837 43.9787 101.188 45.8336C105.269 49.4314 108.363 52.3969 111.94 56.1939C114.481 58.8902 115.212 62.8061 113.934 66.2831L108.495 81.0797ZM21.5593 44.1074C19.7264 44.9613 18.2113 46.3716 17.2022 48.1238L8.64662 62.98L23.6755 74.962C25.0596 76.0655 26.924 76.355 28.5775 75.723L47.7289 68.4036C48.9463 67.9383 49.934 67.016 50.4814 65.8331L58.779 47.9046C59.7498 45.8068 59.1562 43.317 57.3433 41.883L47.1014 33.7818C37.2922 37.3718 30.6319 39.8809 21.5593 44.1074ZM183.939 38.8117C183.939 42.1315 180.763 44.5296 177.57 43.6206L161.678 39.097C160.995 38.9024 160.361 38.5644 159.818 38.1051C159.396 37.7477 158.988 37.4022 158.593 37.0672C153.497 32.7502 150.465 30.1815 145.481 26.3814C143.259 24.6873 142.808 21.5109 144.509 19.2945L145.232 18.3533L154.765 19.9566C155.776 20.1267 156.758 20.4518 157.669 20.9234C168.093 26.3211 174.039 30.0708 183.939 37.1435V38.8117ZM139.691 19.3627C138.67 20.7937 136.971 21.5808 135.218 21.4518C125.96 20.7705 119.819 20.664 110.257 21.0514C109.253 21.0921 108.256 20.8343 107.402 20.306L99.3077 15.2991C96.2537 13.41 96.1276 9.01318 99.0683 6.95222L99.7312 6.48769L100.587 6.57794C114.72 8.06847 123.141 8.95661 133.194 11.6327C134.086 11.87 134.936 12.2415 135.724 12.7215L141.79 16.419L139.691 19.3627ZM196.411 87.1225C195.413 89.1692 193.183 90.3209 190.945 89.9025L174.66 86.8586C173.325 86.6091 172.149 85.8242 171.396 84.694C165.61 76.0104 161.403 70.5659 154.35 62.8319C152.916 61.2588 152.607 58.9558 153.603 57.0741L160.641 43.7753C168.582 45.7575 173.466 47.1391 181.231 49.7955C182.914 50.3712 184.408 51.3998 185.558 52.7575C192.33 60.7595 196.528 65.9341 203.503 74.7239C200.407 79.4151 198.603 82.6262 196.411 87.1225ZM150.685 55.496C149.816 57.1262 148.119 58.1446 146.272 58.1446H123.486C122.118 58.1446 120.81 57.5824 119.863 56.596C114.143 50.6397 110.128 46.7488 104.241 41.5293C102.446 39.9384 102.006 37.3032 103.212 35.2303L108.713 25.7749C119.053 25.6258 125.236 25.72 134.705 26.3135C136.611 26.4329 138.445 27.105 139.967 28.2583C146.475 33.1894 150.579 36.8638 157.225 43.2226L150.685 55.496ZM67.034 41.1072C65.8539 41.2244 64.6706 40.9183 63.6954 40.2436L51.3118 31.677L60.6483 20.8519C62.1958 19.0575 64.3303 17.871 66.6712 17.5038L85.0275 14.6244C87.3289 14.2634 89.6841 14.7172 91.6866 15.9075L104.635 23.6038L98.4479 35.6842C97.6731 37.1969 96.183 38.2124 94.4917 38.3804L67.034 41.1072ZM49.8798 13.7632C53.1525 14.9813 54.2003 19.0937 51.9094 21.7292L45.9266 28.6123C45.3183 29.3121 44.5244 29.8294 43.6399 30.1076C34.1463 33.094 28.3515 35.1898 19.2489 39.0071C18.2878 39.4101 17.2224 39.5081 16.2053 39.2805L5.41866 36.8671L10.9718 30.5882C11.2925 30.2256 11.6391 29.8868 12.0088 29.5744L15.8038 26.3682C16.4564 25.8168 17.1769 25.3514 17.9478 24.9832L45.1366 11.9977L49.8798 13.7632ZM-14.0593 76.7789C-16.506 78.942 -20.341 78.2654 -21.8609 75.3749L-26.2996 66.9332C-23.2492 63.2179 -20.729 59.836 -18.3873 56.6936C-13.0952 49.592 -8.71436 43.7132 -1.18462 37.9724L6.71327 41.0979C9.42162 42.1697 10.6442 45.3204 9.36765 47.9384L2.13559 62.7707C1.80246 63.4539 1.31618 64.0531 0.717957 64.522C-5.16257 69.1318 -9.13672 72.427 -14.0593 76.7789ZM19.5805 78.8021C21.4084 80.1448 22.0984 82.5499 21.2891 84.6687C18.4203 92.1795 16.6318 97.6982 14.5335 105.634C13.9486 107.846 11.9566 109.403 9.66864 109.403H-15.6332L-14.4838 88.5321C-14.411 87.2103 -13.8183 85.9692 -12.8267 85.0924C-5.43463 78.5562 -0.714249 75.1815 7.3835 69.8428L19.5805 78.8021ZM71.5485 92.4086C72.5253 93.8257 72.6822 95.6521 71.9834 97.2249L63.3391 116.682C62.7428 118.025 61.5867 119.037 60.1775 119.45L39.5889 125.491C35.7229 126.626 31.5536 125.329 29.0127 122.203L20.2953 111.475C22.9162 101.641 24.7525 95.5886 28.5473 86.349C29.537 83.9391 31.4648 82.0377 33.869 81.0342L54.2835 72.5133C61.9955 79.7181 66.0524 84.4347 71.5485 92.4086Z" fill="#90B2BF" fill-opacity="0.25"/>
<path d="M207.055 69.9888C206.165 69.6526 205.388 69.0664 204.815 68.3073C199.111 60.7497 195.331 56.3928 189.204 50.2246C188.346 49.3606 187.825 48.2171 187.746 47.0019L187.212 38.8018L188.713 39.4027C189.55 39.7374 190.339 40.1841 191.054 40.7319C200.517 47.9789 205.458 52.4046 212.358 59.6185C212.964 60.2528 213.483 60.9687 213.9 61.7407L221.271 75.3612L207.055 69.9888Z" fill="#B0B8BB" fill-opacity="0.5"/>
<path d="M187.212 38.8018H188.778C189.857 38.8018 190.91 39.1528 191.773 39.8005C201.077 46.7809 206.116 50.9039 214.017 59.3961C214.266 59.6639 214.487 59.962 214.671 60.2781L222.597 73.8762C223.107 74.7521 222.199 75.7695 221.271 75.3612L213.9 61.7407C213.483 60.9687 212.964 60.2528 212.358 59.6185C205.458 52.4046 200.517 47.9789 191.054 40.7319C190.339 40.1841 189.55 39.7374 188.713 39.4027L187.212 38.8018Z" fill="#4B7382"/>
<path d="M94.6787 5.72888L90.0473 2.20354C90.5551 2.21112 91.0695 2.22042 91.5911 2.23142L95.0013 3.56492C95.7246 3.84777 95.8634 4.81127 95.2494 5.28686L94.6787 5.72888Z" fill="#4B7382"/>
<path d="M90.6537 8.85206C89.9799 9.37487 89.1837 9.71665 88.3406 9.84492L60.2781 14.1144C59.2827 14.2658 58.2648 14.1132 57.3575 13.6766L49.0141 9.66073L50.61 5.99061C65.9333 3.22936 75.134 1.98067 90.0473 2.20354L94.6787 5.72888L90.6537 8.85206Z" fill="#90B2BF" fill-opacity="0.45"/>
<path fill-rule="evenodd" clip-rule="evenodd" d="M206.71 125.648C207.488 124.373 207.656 122.815 207.156 121.408C203.419 110.906 200.481 104.693 195.198 95.9559C194.468 94.7495 193.253 93.9193 191.868 93.6607L175.049 90.5228C173.611 90.2545 172.186 91.0462 171.653 92.4088L162.244 116.491C161.676 117.945 161.82 119.58 162.632 120.913L170.185 133.305H164.29L156.768 119.9C156.387 119.219 155.667 118.798 154.887 118.798H128.923C128.138 118.798 127.408 119.205 126.995 119.872L118.678 133.305H113.485L121.783 118.717C122.719 117.073 122.646 115.041 121.596 113.468L108.579 93.9733C107.541 92.4185 105.722 91.5727 103.864 91.7809L80.7388 94.3721C78.946 94.573 77.4005 95.724 76.6944 97.3841L67.8708 118.13C67.2162 119.669 67.3745 121.434 68.2926 122.832L75.1706 133.305H68.5743L63.4448 125.342C62.8311 124.389 61.6453 123.98 60.5746 124.351L34.7509 133.305H30.1195L18.2367 116.862C16.3565 114.26 13.3416 112.719 10.1315 112.719H-11.8066C-14.6399 112.719 -17.2899 114.119 -18.8858 116.46L-30.3696 133.305H-57.336C-58.2037 133.305 -58.8623 132.533 -58.7127 131.692L-58.7116 131.686C-47.3521 69.4514 -7.40573 21.4999 49.6277 5.92162L49.0141 6.27955L48.581 6.66652C47.6123 7.53202 47.8399 9.10518 49.0141 9.66073L57.3575 13.6766C58.2648 14.1132 59.2827 14.2658 60.2781 14.1144L88.3406 9.84492C89.1837 9.71665 89.9799 9.37487 90.6537 8.85206L94.6787 5.72888L95.2494 5.28686C95.8634 4.81127 95.7246 3.84777 95.0013 3.56492L91.5911 2.23142L91.1701 2C106.918 2.08944 122.816 4.01409 137.893 7.43423C138.082 7.47704 138.266 7.53921 138.441 7.61947L172.751 23.2985C172.876 23.3556 172.999 23.423 173.114 23.4975L173.115 23.4981C191.584 35.4746 201.736 43.5056 217.87 58.6782C218.075 58.8717 218.254 59.0987 218.391 59.3441C226.745 74.2867 233.527 88.4727 238.914 103.047L235.045 124.401C234.5 127.407 235.36 130.498 237.379 132.791L237.832 133.305H231.235L212.799 125.587C211.94 125.227 210.948 125.549 210.464 126.343L206.113 133.305H202.043L206.71 125.648ZM234.829 103.875C234.957 102.972 234.836 102.051 234.478 101.212L226.701 82.9557C226.189 81.7531 225.226 80.799 224.019 80.2976L210.699 74.7655C209.155 74.1245 207.381 74.8136 206.675 76.3283C203.612 81.3425 201.824 84.8299 199.257 90.6587C198.621 92.1039 198.722 93.7679 199.502 95.1406C204.711 104.302 207.646 110.364 211.608 119.972C212.135 121.249 213.16 122.257 214.449 122.753L227.867 127.917C229.6 128.557 231.481 127.434 231.741 125.606L234.829 103.875ZM153.32 113.632C155.368 113.632 157.208 112.384 157.965 110.481L166.601 88.7726C167.179 87.3207 167.047 85.6778 166.226 84.3481C161.071 75.997 157.058 70.8482 149.903 63.2819C148.967 62.2922 147.661 61.7369 146.299 61.7369H125.452C123.468 61.7369 121.671 62.91 120.874 64.7266L111.646 85.7409C110.956 87.3117 111.12 89.1265 112.08 90.5484L126.173 111.43C127.103 112.807 128.656 113.632 130.318 113.632H153.32ZM108.495 81.0797L117.976 60.2171C111.608 52.8473 107.505 48.7665 100.416 42.705C99.3572 41.7995 97.9626 41.3858 96.5799 41.5567L68.0734 45.0793C66.2993 45.2985 64.7772 46.4482 64.0811 48.0947L56.5932 65.8083C56.1103 66.9507 56.3264 68.2689 57.1487 69.1973C64.7914 76.5127 68.8273 80.9977 74.1148 87.9854C75.208 89.4302 76.9858 90.1936 78.7829 89.9632L106.047 86.4681L108.495 81.0797ZM47.1014 33.7818C46.223 33.1092 45.067 32.9131 44.016 33.2589C34.3182 36.4502 27.4686 38.8941 17.7897 43.0407C16.6902 43.5117 15.7981 44.3679 15.2766 45.4444L8.15619 60.1419C7.69434 61.0953 7.89162 62.237 8.64662 62.98L23.6755 74.962C25.0596 76.0655 26.924 76.355 28.5775 75.723L47.7289 68.4036C48.9463 67.9383 49.934 67.016 50.4814 65.8331L58.779 47.9046C59.7498 45.8068 59.1562 43.317 57.3433 41.883L47.1014 33.7818ZM187.746 47.0019C187.825 48.2171 188.346 49.3606 189.204 50.2246C195.331 56.3928 199.111 60.7497 204.815 68.3073C205.388 69.0664 206.165 69.6526 207.055 69.9888L221.271 75.3612C222.199 75.7695 223.107 74.7521 222.597 73.8762L214.671 60.2781C214.487 59.962 214.266 59.6639 214.017 59.3961C206.116 50.9039 201.077 46.7809 191.773 39.8005C190.91 39.1528 189.857 38.8018 188.778 38.8018H187.212L187.746 47.0019ZM159.818 38.1051C160.361 38.5644 160.995 38.9024 161.678 39.097L177.57 43.6206C180.763 44.5296 183.939 42.1315 183.939 38.8117V37.1435C183.939 36.0115 183.41 34.9408 182.505 34.26C173.858 27.7511 167.901 24.2186 156.869 19.1699C156.488 18.9954 156.082 18.8688 155.669 18.7954L147.729 17.3843C146.781 17.2159 145.818 17.5895 145.232 18.3533L144.509 19.2945C142.808 21.5109 143.259 24.6873 145.481 26.3814C150.465 30.1815 153.497 32.7502 158.593 37.0672C158.988 37.4022 159.396 37.7477 159.818 38.1051ZM107.402 20.306C108.256 20.8343 109.253 21.0921 110.257 21.0514C119.819 20.664 125.96 20.7705 135.218 21.4518C136.971 21.5808 138.67 20.7937 139.691 19.3627L141.79 16.419C142.273 15.7429 142.09 14.8009 141.39 14.3539L136.569 11.2745C135.688 10.7113 134.723 10.2863 133.707 10.0358C124.648 7.80235 116.83 7.03877 105.162 5.89928C104.405 5.82532 103.631 5.74977 102.84 5.67214C101.74 5.56415 100.637 5.85306 99.7312 6.48769L99.0683 6.95222C96.1276 9.01318 96.2537 13.41 99.3077 15.2991L107.402 20.306ZM171.396 84.694C172.149 85.8242 173.325 86.6091 174.66 86.8586L190.945 89.9025C193.183 90.3209 195.413 89.1692 196.411 87.1225C198.603 82.6262 200.407 79.4151 203.503 74.7239C204.15 73.5516 204.032 72.1057 203.199 71.0574C196.768 62.9576 192.379 57.8725 184.763 49.7641C184.222 49.1878 183.548 48.7474 182.802 48.4845C174.916 45.7038 170.143 44.4019 162.742 42.8267C161.91 42.6497 161.059 43.0349 160.641 43.7753L153.603 57.0741C152.607 58.9558 152.916 61.2588 154.35 62.8319C161.403 70.5659 165.61 76.0104 171.396 84.694ZM119.863 56.596C120.81 57.5824 122.118 58.1446 123.486 58.1446H146.272C148.119 58.1446 149.816 57.1262 150.685 55.496L157.225 43.2226C157.836 42.0767 157.616 40.6618 156.679 39.7634C150.623 33.9605 146.207 30.4163 138.414 25.031C137.715 24.5478 136.897 24.2518 136.051 24.1752C126.983 23.3552 121.278 23.2114 112.489 23.5101C110.926 23.5633 109.5 24.4226 108.713 25.7749L103.212 35.2303C102.006 37.3032 102.446 39.9384 104.241 41.5293C110.128 46.7488 114.143 50.6397 119.863 56.596ZM104.635 23.6038C105.19 22.5209 104.796 21.1932 103.741 20.5873L90.302 12.8697C89.3194 12.3054 88.1742 12.0916 87.0541 12.2634L62.8026 15.9825C61.5512 16.1744 60.4193 16.8339 59.6351 17.8277L50.8961 28.9042C50.2088 29.7754 50.3993 31.0458 51.3118 31.677L63.6954 40.2436C64.6706 40.9183 65.8539 41.2244 67.034 41.1072L94.4917 38.3804C96.183 38.2124 97.6731 37.1969 98.4479 35.6842L104.635 23.6038ZM43.6399 30.1076C44.5244 29.8294 45.3183 29.3121 45.9266 28.6123L51.9094 21.7292C54.2003 19.0937 53.1525 14.9813 49.8798 13.7632L45.1366 11.9977C43.9654 11.5545 42.6693 11.5628 41.5109 12.0383C34.5758 14.8848 24.0392 19.5304 17.7834 22.2887L17.7697 22.2947C17.182 22.5538 16.6323 22.7962 16.127 23.0188C14.9865 23.5212 13.951 24.2274 13.0771 25.1158C11.1494 27.0754 7.48161 30.8471 4.56325 34.103C3.71175 35.053 4.18369 36.5472 5.41866 36.8671L16.2053 39.2805C17.2224 39.5081 18.2878 39.4101 19.2489 39.0071C28.3515 35.1898 34.1463 33.094 43.6399 30.1076ZM-21.8609 75.3749C-20.341 78.2654 -16.506 78.942 -14.0593 76.7789C-9.13672 72.427 -5.16257 69.1318 0.717957 64.522C1.31618 64.0531 1.80246 63.4539 2.13559 62.7707L9.36765 47.9384C10.6442 45.3204 9.42162 42.1697 6.71327 41.0979L-1.18462 37.9724C-2.0526 37.629 -3.04083 37.7578 -3.77669 38.3322C-11.5161 44.3731 -15.8113 50.4318 -20.9206 57.6388C-22.531 59.9105 -24.2224 62.2963 -26.1281 64.8316C-26.5858 65.4406 -26.655 66.2592 -26.2996 66.9332L-21.8609 75.3749ZM9.66864 109.403C11.9566 109.403 13.9486 107.846 14.5335 105.634C16.6318 97.6982 18.4203 92.1795 21.2891 84.6687C22.0984 82.5499 21.4084 80.1448 19.5805 78.8021L7.3835 69.8428L7.278 69.7653C5.57404 68.5137 3.26276 68.4676 1.52129 69.6665C-5.31088 74.3701 -10.0023 77.9359 -17.0074 83.5863C-18.1803 84.5323 -18.8612 85.9613 -18.8612 87.4683V106.175C-18.8612 107.958 -17.416 109.403 -15.6332 109.403H9.66864ZM60.1775 119.45C61.5867 119.037 62.7428 118.025 63.3391 116.682L71.9834 97.2249C72.6822 95.6521 72.5253 93.8257 71.5485 92.4086C66.0524 84.4347 61.9955 79.7181 54.2835 72.5133C53.9314 72.0982 53.3582 71.9458 52.8464 72.1313L32.1324 79.6382C29.5897 80.5596 27.5174 82.468 26.4467 84.9516C22.9704 93.0151 21.1018 98.695 19.1505 107.04C18.8023 108.529 19.1737 110.095 20.1382 111.282L20.2953 111.475L29.0127 122.203C31.5536 125.329 35.7229 126.626 39.5889 125.491L60.1775 119.45ZM-24.891 113.766C-24.0419 112.264 -23.5957 110.569 -23.5957 108.844V87.071C-23.5957 85.7573 -23.8546 84.4564 -24.3575 83.2427L-28.4144 73.4529C-29.2861 71.5317 -31.9037 71.2735 -33.0738 73.029C-38.5418 81.2335 -41.2813 87.751 -45.3005 97.3132C-45.4955 97.777 -45.6934 98.2479 -45.8948 98.7265C-46.131 99.2878 -46.3158 99.8693 -46.4465 100.464L-50.063 116.918C-51.1562 121.892 -48.3372 126.892 -43.5159 128.532L-39.3304 129.955C-37.5428 130.563 -35.5895 130.457 -33.8783 129.659L-24.891 113.766Z" fill="#B9A0D3"/>
<path d="M49.0141 6.27955C49.5536 6.18146 50.0854 6.08515 50.61 5.99061L49.0141 9.66073C47.8399 9.10518 47.6123 7.53202 48.581 6.66652L49.0141 6.27955Z" fill="#4B7382"/>
<path fill-rule="evenodd" clip-rule="evenodd" d="M224.019 80.2976C225.226 80.799 226.189 81.7531 226.701 82.9557L234.478 101.212C234.836 102.051 234.957 102.972 234.829 103.875L231.741 125.606C231.481 127.434 229.6 128.557 227.867 127.917L214.449 122.753C213.16 122.257 212.135 121.249 211.608 119.972C207.646 110.364 204.711 104.302 199.502 95.1406C198.722 93.7679 198.621 92.1039 199.257 90.6587C201.824 84.8299 203.612 81.3425 206.675 76.3283C207.381 74.8136 209.155 74.1245 210.699 74.7655L224.019 80.2976ZM166.226 84.3481C167.047 85.6778 167.179 87.3207 166.601 88.7726L157.965 110.481C157.208 112.384 155.368 113.632 153.32 113.632H130.318C128.656 113.632 127.103 112.807 126.173 111.43L112.08 90.5484C111.12 89.1265 110.956 87.3117 111.646 85.7409L120.874 64.7266C121.671 62.91 123.468 61.7369 125.452 61.7369H146.299C147.661 61.7369 148.967 62.2922 149.903 63.2819C157.058 70.8482 161.071 75.997 166.226 84.3481ZM117.976 60.2171L108.495 81.0797L106.047 86.4681L78.7829 89.9632C76.9858 90.1936 75.208 89.4302 74.1148 87.9854C68.8273 80.9977 64.7914 76.5127 57.1487 69.1973C56.3264 68.2689 56.1103 66.9507 56.5932 65.8083L64.0811 48.0947C64.7772 46.4482 66.2993 45.2985 68.0734 45.0793L96.5799 41.5567C97.9626 41.3858 99.3572 41.7995 100.416 42.705C107.505 48.7665 111.608 52.8473 117.976 60.2171ZM15.2766 45.4444C15.7981 44.3679 16.6902 43.5117 17.7897 43.0407C27.4686 38.8941 34.3182 36.4502 44.016 33.2589C45.067 32.9131 46.223 33.1092 47.1014 33.7818L57.3433 41.883C59.1562 43.317 59.7498 45.8068 58.779 47.9046L50.4814 65.8331C49.934 67.016 48.9463 67.9383 47.7289 68.4036L28.5775 75.723C26.924 76.355 25.0596 76.0655 23.6755 74.962L8.64662 62.98C7.89162 62.237 7.69434 61.0953 8.15619 60.1419L15.2766 45.4444ZM221.271 75.3612L207.055 69.9888C206.165 69.6526 205.388 69.0664 204.815 68.3073C199.111 60.7497 195.331 56.3928 189.204 50.2246C188.346 49.3606 187.825 48.2171 187.746 47.0019L187.212 38.8018H188.778C189.857 38.8018 190.91 39.1528 191.773 39.8005C201.077 46.7809 206.116 50.9039 214.017 59.3961C214.266 59.6639 214.487 59.962 214.671 60.2781L222.597 73.8762C223.107 74.7521 222.199 75.7695 221.271 75.3612ZM183.939 38.8117C183.939 42.1315 180.763 44.5296 177.57 43.6206L161.678 39.097C160.995 38.9024 160.361 38.5644 159.818 38.1051C159.396 37.7477 158.988 37.4022 158.593 37.0672C153.497 32.7502 150.465 30.1815 145.481 26.3814C143.259 24.6873 142.808 21.5109 144.509 19.2945L145.232 18.3533C145.818 17.5895 146.781 17.2159 147.729 17.3843L155.669 18.7954C156.082 18.8688 156.488 18.9954 156.869 19.1699C167.901 24.2186 173.858 27.7511 182.505 34.26C183.41 34.9408 183.939 36.0115 183.939 37.1435V38.8117ZM139.691 19.3627C138.67 20.7937 136.971 21.5808 135.218 21.4518C125.96 20.7705 119.819 20.664 110.257 21.0514C109.253 21.0921 108.256 20.8343 107.402 20.306L99.3077 15.2991C96.2537 13.41 96.1276 9.01318 99.0683 6.95222L99.7312 6.48769C100.637 5.85306 101.74 5.56415 102.84 5.67214C103.631 5.74977 104.405 5.82532 105.162 5.89928C116.83 7.03877 124.648 7.80235 133.707 10.0358C134.723 10.2863 135.688 10.7113 136.569 11.2745L141.39 14.3539C142.09 14.8009 142.273 15.7429 141.79 16.419L139.691 19.3627ZM196.411 87.1225C195.413 89.1692 193.183 90.3209 190.945 89.9025L174.66 86.8586C173.325 86.6091 172.149 85.8242 171.396 84.694C165.61 76.0104 161.403 70.5659 154.35 62.8319C152.916 61.2588 152.607 58.9558 153.603 57.0741L160.641 43.7753C161.059 43.0349 161.91 42.6497 162.742 42.8267C170.143 44.4019 174.916 45.7038 182.802 48.4845C183.548 48.7474 184.222 49.1878 184.763 49.7641C192.379 57.8725 196.768 62.9576 203.199 71.0574C204.032 72.1057 204.15 73.5516 203.503 74.7239C200.407 79.4151 198.603 82.6262 196.411 87.1225ZM150.685 55.496C149.816 57.1262 148.119 58.1446 146.272 58.1446H123.486C122.118 58.1446 120.81 57.5824 119.863 56.596C114.143 50.6397 110.128 46.7488 104.241 41.5293C102.446 39.9384 102.006 37.3032 103.212 35.2303L108.713 25.7749C109.5 24.4226 110.926 23.5633 112.489 23.5101C121.278 23.2114 126.983 23.3552 136.051 24.1752C136.897 24.2518 137.715 24.5478 138.414 25.031C146.207 30.4163 150.623 33.9605 156.679 39.7634C157.616 40.6618 157.836 42.0767 157.225 43.2226L150.685 55.496ZM87.0541 12.2634C88.1742 12.0916 89.3194 12.3054 90.302 12.8697L103.741 20.5873C104.796 21.1932 105.19 22.5209 104.635 23.6038L98.4479 35.6842C97.6731 37.1969 96.183 38.2124 94.4917 38.3804L67.034 41.1072C65.8539 41.2244 64.6706 40.9183 63.6954 40.2436L51.3118 31.677C50.3993 31.0458 50.2088 29.7754 50.8961 28.9042L59.6351 17.8277C60.4193 16.8339 61.5512 16.1744 62.8026 15.9825L87.0541 12.2634ZM49.8798 13.7632C53.1525 14.9813 54.2003 19.0937 51.9094 21.7292L45.9266 28.6123C45.3183 29.3121 44.5244 29.8294 43.6399 30.1076C34.1463 33.094 28.3515 35.1898 19.2489 39.0071C18.2878 39.4101 17.2224 39.5081 16.2053 39.2805L5.41866 36.8671C4.18369 36.5472 3.71175 35.053 4.56325 34.103C7.48161 30.8471 11.1494 27.0754 13.0771 25.1158C13.951 24.2274 14.9865 23.5212 16.127 23.0188C16.6323 22.7962 17.182 22.5538 17.7697 22.2947L17.7834 22.2887C24.0392 19.5304 34.5758 14.8848 41.5109 12.0383C42.6693 11.5628 43.9654 11.5545 45.1366 11.9977L49.8798 13.7632ZM-20.9206 57.6388C-15.8113 50.4318 -11.5161 44.3731 -3.77669 38.3322C-3.04083 37.7578 -2.0526 37.629 -1.18462 37.9724L6.71327 41.0979C9.42162 42.1697 10.6442 45.3204 9.36765 47.9384L2.13559 62.7707C1.80246 63.4539 1.31618 64.0531 0.717957 64.522C-5.16257 69.1318 -9.13672 72.427 -14.0593 76.7789C-16.506 78.942 -20.341 78.2654 -21.8609 75.3749L-26.2996 66.9332C-26.655 66.2592 -26.5858 65.4406 -26.1281 64.8316C-24.2224 62.2963 -22.531 59.9105 -20.9206 57.6388ZM19.5805 78.8021C21.4084 80.1448 22.0984 82.5499 21.2891 84.6687C18.4203 92.1795 16.6318 97.6982 14.5335 105.634C13.9486 107.846 11.9566 109.403 9.66864 109.403H-15.6332C-17.416 109.403 -18.8612 107.958 -18.8612 106.175V87.4683C-18.8612 85.9613 -18.1803 84.5323 -17.0074 83.5863C-10.0023 77.9359 -5.31088 74.3701 1.52129 69.6665C3.26276 68.4676 5.57404 68.5137 7.278 69.7653L7.3835 69.8428L19.5805 78.8021ZM71.5485 92.4086C72.5253 93.8257 72.6822 95.6521 71.9834 97.2249L63.3391 116.682C62.7428 118.025 61.5867 119.037 60.1775 119.45L39.5889 125.491C35.7229 126.626 31.5536 125.329 29.0127 122.203L20.2953 111.475L20.1382 111.282C19.1737 110.095 18.8023 108.529 19.1505 107.04C21.1018 98.695 22.9704 93.0151 26.4467 84.9516C27.5174 82.468 29.5897 80.5596 32.1324 79.6382L52.8464 72.1313C53.3582 71.9458 53.9314 72.0982 54.2835 72.5133C61.9955 79.7181 66.0524 84.4347 71.5485 92.4086ZM-39.3304 129.955C-37.5428 130.563 -35.5895 130.457 -33.8783 129.659L-24.891 113.766C-24.0419 112.264 -23.5957 110.569 -23.5957 108.844V87.071C-23.5957 85.7573 -23.8546 84.4564 -24.3575 83.2427L-28.4144 73.4529C-29.2861 71.5317 -31.9037 71.2735 -33.0738 73.029C-38.5418 81.2335 -41.2813 87.751 -45.3005 97.3132C-45.4955 97.777 -45.6934 98.2479 -45.8948 98.7265C-46.131 99.2878 -46.3158 99.8693 -46.4465 100.464L-50.063 116.918C-51.1562 121.892 -48.3372 126.892 -43.5159 128.532L-39.3304 129.955ZM113.915 83.0973C112.345 86.2959 112.597 90.0879 114.574 93.0517L124.691 108.215C126.546 110.995 129.667 112.665 133.009 112.665H148.477C152.803 112.665 156.638 109.883 157.982 105.771L162.755 91.1652C163.723 88.2047 163.267 84.9529 161.459 82.4169C157.528 76.9037 154.206 72.7614 149.436 67.3062C147.559 65.1603 144.836 63.9471 141.986 63.9471H129.542C125.727 63.9471 122.244 66.1178 120.564 69.5428L113.915 83.0973Z" fill="#90B2BF" fill-opacity="0.35"/>
<path d="M133.009 112.665C129.667 112.665 126.546 110.995 124.691 108.215L114.574 93.0517C112.597 90.0879 112.345 86.2959 113.915 83.0973L120.564 69.5428C122.244 66.1178 125.727 63.9471 129.542 63.9471H141.986C144.836 63.9471 147.559 65.1603 149.436 67.3062C154.206 72.7614 157.528 76.9037 161.459 82.4169C163.267 84.9529 163.723 88.2047 162.755 91.1652L157.982 105.771C156.638 109.883 152.803 112.665 148.477 112.665H133.009Z" fill="#90B2BF" fill-opacity="0.25"/>
<path d="M170.185 133.305L162.632 120.913C161.82 119.58 161.676 117.945 162.244 116.491L171.653 92.4088M170.185 133.305H164.29M170.185 133.305H199.798M202.043 133.305L206.71 125.648C207.488 124.373 207.656 122.815 207.156 121.408C203.419 110.906 200.481 104.693 195.198 95.9559C194.468 94.7495 193.253 93.9193 191.868 93.6607L175.049 90.5228C173.611 90.2545 172.186 91.0462 171.653 92.4088V92.4088M202.043 133.305H199.798M202.043 133.305H206.113M164.29 133.305L156.768 119.9C156.387 119.219 155.667 118.798 154.887 118.798V118.798M164.29 133.305H162.746M118.678 133.305L126.995 119.872C127.408 119.205 128.138 118.798 128.923 118.798V118.798M118.678 133.305H113.485M118.678 133.305H120.222M113.485 133.305L121.783 118.717C122.719 117.073 122.646 115.041 121.596 113.468L108.579 93.9733C107.541 92.4185 105.722 91.5727 103.864 91.7809L80.7388 94.3721C78.946 94.573 77.4005 95.724 76.6944 97.3841L67.8708 118.13C67.2162 119.669 67.3745 121.434 68.2926 122.832L75.1706 133.305M113.485 133.305H111.941M117.976 60.2171L106.047 86.4681M117.976 60.2171C111.608 52.8473 107.505 48.7665 100.416 42.705C99.3572 41.7995 97.9626 41.3858 96.5799 41.5567L68.0734 45.0793C66.2993 45.2985 64.7772 46.4482 64.0811 48.0947L56.5932 65.8083C56.1103 66.9507 56.3264 68.2689 57.1487 69.1973V69.1973M117.976 60.2171L108.495 81.0797M106.047 86.4681L78.7829 89.9632C76.9858 90.1936 75.208 89.4302 74.1148 87.9854C68.8273 80.9977 64.7914 76.5127 57.1487 69.1973M106.047 86.4681L108.495 81.0797M187.212 38.8018L187.746 47.0019C187.825 48.2171 188.346 49.3606 189.204 50.2246C195.331 56.3928 199.111 60.7497 204.815 68.3073C205.388 69.0664 206.165 69.6526 207.055 69.9888L221.271 75.3612M187.212 38.8018H188.778C189.857 38.8018 190.91 39.1528 191.773 39.8005C201.077 46.7809 206.116 50.9039 214.017 59.3961C214.266 59.6639 214.487 59.962 214.671 60.2781L222.597 73.8762C223.107 74.7521 222.199 75.7695 221.271 75.3612V75.3612M187.212 38.8018L188.713 39.4027C189.55 39.7374 190.339 40.1841 191.054 40.7319C200.517 47.9789 205.458 52.4046 212.358 59.6185C212.964 60.2528 213.483 60.9687 213.9 61.7407L221.271 75.3612M75.1706 133.305H76.9951M75.1706 133.305H68.5743M-33.8783 129.659L-24.891 113.766C-24.0419 112.264 -23.5957 110.569 -23.5957 108.844V87.071C-23.5957 85.7573 -23.8546 84.4564 -24.3575 83.2427L-28.4144 73.4529M-33.8783 129.659V129.659C-35.5895 130.457 -37.5428 130.563 -39.3304 129.955L-43.5159 128.532C-48.3372 126.892 -51.1563 121.892 -50.063 116.918L-46.4465 100.464C-46.3158 99.8693 -46.131 99.2878 -45.8948 98.7265C-45.6934 98.2479 -45.4955 97.777 -45.3005 97.3132C-41.2813 87.751 -38.5418 81.2335 -33.0737 73.029C-31.9037 71.2735 -29.2861 71.5317 -28.4144 73.4529V73.4529M-33.8783 129.659L-40.5196 126.617C-44.8894 124.615 -47.2168 119.788 -46.0616 115.122L-42.5797 101.06C-37.6495 88.7491 -34.9709 83.3943 -28.4144 73.4529M47.1014 33.7818L57.3433 41.883C59.1562 43.317 59.7499 45.8068 58.779 47.9046L50.4814 65.8331C49.934 67.016 48.9463 67.9383 47.7288 68.4036L28.5775 75.723C26.924 76.355 25.0596 76.0655 23.6755 74.962L8.64662 62.98M47.1014 33.7818V33.7818C46.223 33.1092 45.067 32.9131 44.016 33.2589C34.3182 36.4502 27.4686 38.8941 17.7897 43.0407C16.6902 43.5117 15.7981 44.3679 15.2766 45.4444L8.15619 60.1419C7.69433 61.0953 7.89162 62.237 8.64662 62.98V62.98M47.1014 33.7818C37.2922 37.3718 30.6319 39.8809 21.5593 44.1074C19.7264 44.9613 18.2113 46.3716 17.2022 48.1238L8.64662 62.98M5.41865 36.8671L16.2053 39.2805C17.2224 39.5081 18.2878 39.4101 19.2489 39.0071C28.3515 35.1898 34.1463 33.094 43.6399 30.1076C44.5244 29.8294 45.3184 29.3121 45.9266 28.6123L51.9094 21.7293C54.2003 19.0937 53.1525 14.9813 49.8798 13.7632L45.1366 11.9977M5.41865 36.8671V36.8671C4.18368 36.5472 3.71175 35.053 4.56325 34.103C7.48161 30.8471 11.1494 27.0754 13.0771 25.1158C13.951 24.2274 14.9865 23.5212 16.127 23.0188C16.6323 22.7962 17.182 22.5538 17.7697 22.2947M5.41865 36.8671L10.9718 30.5882C11.2925 30.2256 11.6391 29.8868 12.0088 29.5744L15.8038 26.3682C16.4564 25.8168 17.1769 25.3514 17.9478 24.9832L45.1366 11.9977M-15.6332 109.403L-14.4838 88.5321C-14.411 87.2103 -13.8183 85.9692 -12.8267 85.0924C-5.43463 78.5562 -0.714242 75.1815 7.3835 69.8428M-15.6332 109.403H9.66864C11.9566 109.403 13.9486 107.846 14.5335 105.634C16.6318 97.6982 18.4203 92.1795 21.2891 84.6687C22.0984 82.5499 21.4084 80.1448 19.5805 78.8021L7.3835 69.8428M-15.6332 109.403V109.403C-17.416 109.403 -18.8612 107.958 -18.8612 106.175V87.4683C-18.8612 85.9613 -18.1803 84.5324 -17.0074 83.5863C-10.0022 77.9359 -5.31089 74.3701 1.52129 69.6665C3.26276 68.4676 5.57403 68.5137 7.278 69.7653L7.3835 69.8428M30.1195 133.305L18.2367 116.862C16.3565 114.26 13.3416 112.719 10.1315 112.719H-11.8066M30.1195 133.305H-23.5957M30.1195 133.305H34.7509M-30.3696 133.305L-18.8858 116.46C-17.2899 114.119 -14.6399 112.719 -11.8066 112.719V112.719M-30.3696 133.305H-23.5957M-30.3696 133.305H-57.336M-23.5957 133.305L-11.8066 112.719M45.1366 11.9977V11.9977C43.9654 11.5545 42.6693 11.5628 41.5109 12.0383C34.5758 14.8848 24.0392 19.5304 17.7834 22.2887M-1.18461 37.9724L6.71326 41.0979C9.42161 42.1697 10.6442 45.3204 9.36765 47.9384L2.13559 62.7707C1.80246 63.4539 1.31617 64.0531 0.71796 64.522C-5.16257 69.1318 -9.13672 72.427 -14.0593 76.7789C-16.506 78.942 -20.341 78.2654 -21.8609 75.3749L-26.2996 66.9332M-1.18461 37.9724V37.9724C-2.05259 37.629 -3.04084 37.7578 -3.77669 38.3322C-11.5161 44.3731 -15.8113 50.4318 -20.9206 57.6388C-22.5311 59.9105 -24.2224 62.2963 -26.1281 64.8316C-26.5858 65.4406 -26.655 66.2592 -26.2996 66.9332V66.9332M-1.18461 37.9724C-8.71437 43.7132 -13.0952 49.592 -18.3873 56.6936C-20.729 59.836 -23.2492 63.2179 -26.2996 66.9332M203.503 74.7239V74.7239C204.15 73.5516 204.032 72.1057 203.199 71.0574C196.768 62.9576 192.379 57.8725 184.763 49.7641C184.222 49.1878 183.548 48.7474 182.802 48.4845C174.916 45.7038 170.143 44.4019 162.742 42.8267C161.91 42.6497 161.059 43.0349 160.641 43.7753V43.7753M203.503 74.7239C200.407 79.4151 198.603 82.6261 196.411 87.1225C195.413 89.1692 193.183 90.3209 190.945 89.9025L174.66 86.8586C173.325 86.6091 172.149 85.8242 171.396 84.694C165.61 76.0104 161.403 70.5659 154.35 62.8319C152.916 61.2588 152.607 58.9558 153.603 57.0741L160.641 43.7753M203.503 74.7239C196.528 65.9341 192.33 60.7595 185.558 52.7575C184.408 51.3998 182.914 50.3712 181.231 49.7955C173.466 47.1391 168.582 45.7575 160.641 43.7753M183.939 37.1435V37.1435C183.939 36.0115 183.41 34.9408 182.505 34.26C173.858 27.7511 167.901 24.2186 156.869 19.1699C156.488 18.9954 156.082 18.8688 155.669 18.7954L147.729 17.3843C146.781 17.2159 145.818 17.5895 145.232 18.3533V18.3533M183.939 37.1435V38.8117C183.939 42.1315 180.763 44.5296 177.57 43.6206L161.678 39.097C160.995 38.9024 160.361 38.5644 159.818 38.1051C159.396 37.7477 158.988 37.4022 158.593 37.0672C153.497 32.7502 150.465 30.1815 145.481 26.3814C143.259 24.6873 142.808 21.5109 144.509 19.2945L145.232 18.3533M183.939 37.1435C174.039 30.0708 168.093 26.3211 157.669 20.9234C156.758 20.4518 155.776 20.1267 154.765 19.9566L145.232 18.3533M141.79 16.419V16.419C142.273 15.7429 142.09 14.8009 141.39 14.3539L136.569 11.2745C135.688 10.7113 134.723 10.2863 133.707 10.0358C124.648 7.80235 116.83 7.03877 105.162 5.89928C104.405 5.82532 103.631 5.74977 102.84 5.67214C101.74 5.56415 100.637 5.85306 99.7312 6.48769V6.48769M141.79 16.419L139.691 19.3627C138.67 20.7937 136.971 21.5808 135.218 21.4518C125.96 20.7705 119.819 20.664 110.257 21.0514C109.253 21.0921 108.256 20.8343 107.402 20.306L99.3077 15.2991C96.2537 13.41 96.1276 9.01318 99.0683 6.95222L99.7312 6.48769M141.79 16.419L135.724 12.7215C134.936 12.2415 134.086 11.87 133.194 11.6327C123.141 8.95661 114.72 8.06847 100.587 6.57794M99.7312 6.48769L100.587 6.57794M99.7312 6.48769C100.019 6.51803 100.304 6.54811 100.587 6.57794M157.225 43.2226V43.2226C157.836 42.0767 157.616 40.6618 156.679 39.7634C150.623 33.9605 146.207 30.4163 138.414 25.031C137.715 24.5478 136.897 24.2518 136.051 24.1752C126.983 23.3552 121.278 23.2114 112.489 23.5101C110.926 23.5633 109.5 24.4226 108.713 25.7749V25.7749M157.225 43.2226L150.685 55.496C149.816 57.1262 148.119 58.1446 146.272 58.1446H123.486C122.118 58.1446 120.81 57.5824 119.863 56.596C114.143 50.6397 110.128 46.7488 104.241 41.5293C102.446 39.9384 102.006 37.3032 103.212 35.2303L108.713 25.7749M157.225 43.2226C150.579 36.8637 146.475 33.1894 139.967 28.2583C138.445 27.105 136.611 26.4329 134.705 26.3135C125.236 25.72 119.053 25.6258 108.713 25.7749M227.867 127.917L214.449 122.753C213.16 122.257 212.135 121.249 211.608 119.972C207.646 110.364 204.711 104.302 199.502 95.1406C198.722 93.7679 198.621 92.1039 199.257 90.6587C201.824 84.8299 203.612 81.3425 206.675 76.3283M227.867 127.917V127.917C229.6 128.557 231.481 127.434 231.741 125.606L234.829 103.875C234.957 102.972 234.836 102.051 234.478 101.212L226.701 82.9557C226.189 81.7531 225.226 80.799 224.019 80.2976L210.699 74.7655C209.155 74.1245 207.381 74.8136 206.675 76.3283V76.3283M227.867 127.917L231.575 106.013C231.903 104.079 231.654 102.091 230.86 100.297L225.089 87.2581C224.077 84.9723 222.246 83.1483 219.957 82.1454L206.675 76.3283M104.635 23.6038V23.6038C105.19 22.5209 104.796 21.1932 103.741 20.5873L90.302 12.8697C89.3194 12.3054 88.1742 12.0916 87.0541 12.2634L62.8026 15.9825C61.5512 16.1744 60.4193 16.8339 59.6351 17.8277L50.8961 28.9042C50.2088 29.7754 50.3993 31.0458 51.3118 31.677V31.677M104.635 23.6038L98.4479 35.6842C97.6731 37.1969 96.183 38.2124 94.4917 38.3804L67.034 41.1072C65.8539 41.2244 64.6706 40.9183 63.6954 40.2436L51.3118 31.677M104.635 23.6038L91.6866 15.9075C89.6841 14.7172 87.3289 14.2634 85.0275 14.6244L66.6712 17.5038C64.3303 17.871 62.1958 19.0575 60.6483 20.8519L51.3118 31.677M17.7834 22.2887L17.7697 22.2947M17.7834 22.2887C17.7788 22.2907 17.7742 22.2927 17.7697 22.2947M54.2835 72.5133C61.9954 79.7181 66.0524 84.4347 71.5485 92.4086C72.5253 93.8256 72.6822 95.6521 71.9834 97.2249L63.3391 116.682C62.7428 118.025 61.5867 119.037 60.1775 119.45L39.5889 125.491C35.7229 126.626 31.5537 125.329 29.0127 122.203L20.2953 111.475M54.2835 72.5133V72.5133C53.9313 72.0982 53.3582 71.9458 52.8464 72.1313L32.1324 79.6382C29.5897 80.5596 27.5174 82.468 26.4467 84.9516C22.9704 93.0151 21.1018 98.695 19.1505 107.04C18.8023 108.529 19.1737 110.095 20.1382 111.282L20.2953 111.475M54.2835 72.5133L33.869 81.0342C31.4648 82.0377 29.537 83.9391 28.5473 86.349C24.7525 95.5886 22.9162 101.641 20.2953 111.475M171.653 92.4088L188.247 95.1932C191.285 95.703 193.931 97.58 195.355 100.312C198.739 106.805 201.048 111.949 203.843 119.145C204.941 121.974 204.649 125.151 203.098 127.759L199.798 133.305M108.495 81.0797L113.934 66.2831C115.212 62.8061 114.481 58.8902 111.94 56.1939C108.363 52.3969 105.269 49.4314 101.188 45.8336C99.0837 43.9787 96.278 43.1384 93.4933 43.475L72.0537 46.0667C68.4357 46.5041 65.342 48.8752 63.9793 52.2552L57.1487 69.1973M76.9951 133.305L71.5711 125.118C69.7019 122.296 69.3867 118.721 70.7334 115.616L76.9259 101.338C78.3568 98.0388 81.4489 95.762 85.0241 95.375L99.988 93.7554C103.709 93.3526 107.343 95.0614 109.407 98.1838L117.913 111.055C119.94 114.122 120.121 118.055 118.383 121.295L111.941 133.305M76.9951 133.305H111.941M162.746 133.305L154.887 118.798M162.746 133.305H120.222M154.887 118.798H128.923M128.923 118.798L120.222 133.305M91.5911 2.23142L91.1701 2C106.918 2.08944 122.816 4.01409 137.893 7.43423M91.5911 2.23142C91.0695 2.22042 90.5551 2.21112 90.0472 2.20354M91.5911 2.23142L95.0013 3.56492C95.7246 3.84777 95.8634 4.81127 95.2494 5.28686L94.6787 5.72888M49.0141 6.27955L49.6277 5.92162C-7.40573 21.4999 -47.3521 69.4514 -58.7116 131.686M49.0141 6.27955C49.5536 6.18146 50.0854 6.08515 50.61 5.99061M49.0141 6.27955L48.581 6.66652C47.6123 7.53202 47.8399 9.10518 49.0141 9.66073V9.66073M231.235 133.305L212.799 125.587C211.94 125.227 210.948 125.549 210.464 126.343V126.343M231.235 133.305H237.832M231.235 133.305H226.642M206.113 133.305H226.642M206.113 133.305L210.464 126.343M238.914 103.047L235.045 124.401C234.5 127.407 235.36 130.498 237.379 132.791L237.832 133.305M238.914 103.047C242.34 112.316 245.201 121.742 247.543 131.62M238.914 103.047C233.527 88.4727 226.745 74.2867 218.391 59.3441M237.832 133.305H246.18M226.642 133.305L210.464 126.343M246.18 133.305C247.08 133.305 247.748 132.483 247.543 131.62M246.18 133.305H246.206C247.091 133.305 247.747 132.482 247.543 131.62V131.62M218.391 59.3441C218.254 59.0987 218.075 58.8717 217.87 58.6782M218.391 59.3441V59.3441C218.253 59.0982 218.079 58.875 217.874 58.682C217.872 58.6808 217.871 58.6795 217.87 58.6782M217.87 58.6782C201.736 43.5056 191.584 35.4746 173.115 23.4981L173.114 23.4975M172.751 23.2985L138.441 7.61947M172.751 23.2985V23.2985C172.876 23.3557 172.998 23.4226 173.114 23.4975V23.4975M172.751 23.2985C172.876 23.3556 172.999 23.423 173.114 23.4975M138.441 7.61947C138.266 7.53921 138.082 7.47704 137.893 7.43423M138.441 7.61947V7.61947C138.266 7.5392 138.082 7.47695 137.893 7.43423V7.43423M-58.7116 131.686C-58.712 131.688 -58.7123 131.69 -58.7127 131.692M-58.7116 131.686L-58.7127 131.692M-57.336 133.305H-57.3617C-58.2172 133.305 -58.8663 132.534 -58.7127 131.692V131.692M-57.336 133.305C-58.2037 133.305 -58.8623 132.533 -58.7127 131.692M68.5743 133.305L63.4448 125.342C62.8311 124.389 61.6453 123.98 60.5746 124.351V124.351M68.5743 133.305H66.1884M34.7509 133.305H66.1884M34.7509 133.305L60.5746 124.351M66.1884 133.305L60.5746 124.351M90.0472 2.20354L94.6787 5.72888M90.0472 2.20354C75.134 1.98067 65.9333 3.22936 50.61 5.99061M94.6787 5.72888L90.6537 8.85206C89.9799 9.37487 89.1837 9.71665 88.3406 9.84492L60.2781 14.1144C59.2827 14.2658 58.2648 14.1132 57.3575 13.6766L49.0141 9.66073M50.61 5.99061L49.0141 9.66073M157.982 105.771L162.755 91.1652C163.723 88.2046 163.267 84.9529 161.459 82.4169C157.528 76.9037 154.206 72.7614 149.436 67.3062C147.559 65.1603 144.836 63.9471 141.986 63.9471H129.542C125.727 63.9471 122.244 66.1178 120.564 69.5428L113.915 83.0973C112.345 86.2959 112.597 90.0879 114.574 93.0516L124.691 108.215C126.546 110.995 129.667 112.665 133.009 112.665H148.477C152.803 112.665 156.638 109.883 157.982 105.771ZM146.299 61.7369H125.452C123.468 61.7369 121.671 62.91 120.874 64.7266L111.646 85.7409C110.956 87.3117 111.12 89.1265 112.08 90.5484L126.173 111.43C127.103 112.807 128.656 113.632 130.318 113.632H153.32C155.368 113.632 157.208 112.384 157.965 110.481L166.601 88.7726C167.179 87.3207 167.047 85.6778 166.226 84.3481C161.071 75.997 157.058 70.8482 149.903 63.2819C148.967 62.2922 147.661 61.7369 146.299 61.7369Z" stroke="black" stroke-width="3"/>
<path d="M223.83 135.564C236.256 133.9 242.678 134.475 253.343 137.77C258.413 125.428 260.57 118.575 263.479 106.535L256.452 119.28C256.242 118.417 257.781 112.216 256.863 109.618C253.03 112.611 251.878 115.068 250.69 120.13L244.877 120.518C247.146 105.927 242.768 111.228 240.472 123.744L232.953 108.46L234.785 125.285C232.263 125.068 230.827 124.539 228.161 121.578L224.025 110.479C222.751 120.481 222.447 126.019 223.83 135.564Z" fill="#749C79"/>
</svg>
