<?xml version="1.0" encoding="UTF-8"?>
<svg version="1.1" xmlns="http://www.w3.org/2000/svg" width="1280" height="800">
<path d="M0 0 C17.67906441 16.67690814 30.07999729 39.09209044 33.375 63.3125 C33.48457031 64.10398437 33.59414063 64.89546875 33.70703125 65.7109375 C37.07289254 94.16368495 29.550771 122.10864519 12.1953125 144.8671875 C-6.9928842 168.88329359 -33.91107447 183.89690026 -64.4375 187.6875 C-95.43905793 190.80527802 -125.08209775 182.50514481 -149.75 163.5 C-159.65796734 155.24603693 -167.85970133 146.31235139 -174.625 135.3125 C-174.97691406 134.7457959 -175.32882812 134.1790918 -175.69140625 133.59521484 C-189.98841976 110.09878535 -194.02008598 79.90493315 -187.6875 53.1875 C-180.37970537 25.27447404 -162.29872306 1.01951447 -137.43066406 -13.64257812 C-136.83479492 -13.98740234 -136.23892578 -14.33222656 -135.625 -14.6875 C-134.51898437 -15.33203125 -133.41296875 -15.9765625 -132.2734375 -16.640625 C-89.10099355 -39.895103 -36.47426046 -31.52160274 0 0 Z " fill="#fff" transform="translate(680.625,310.6875)"/>
<path d="M0 0 C2.35546875 2.26171875 2.35546875 2.26171875 5.35546875 6.26171875 C5.68546875 -2.97828125 6.01546875 -12.21828125 6.35546875 -21.73828125 C21.20546875 -21.73828125 36.05546875 -21.73828125 51.35546875 -21.73828125 C51.42329911 7.04370774 51.4785165 35.82563158 51.51090527 64.60768032 C51.51398462 67.27304019 51.51708856 69.93840001 51.52026367 72.60375977 C51.5210506 73.26620758 51.52183753 73.9286554 51.52264831 74.61117739 C51.53485712 84.64193272 51.5559667 94.67263952 51.58178711 104.70336914 C51.61177376 116.35820159 51.63106371 128.01299538 51.63773423 139.66786534 C51.64163082 145.83383126 51.65073071 151.99968664 51.67265892 158.16561699 C51.69317064 163.98090752 51.69927311 169.796043 51.69479179 175.61136627 C51.69561047 177.73442238 51.70148788 179.85748421 51.71308517 181.9805088 C51.85249229 208.8405483 47.04261506 233.09192638 29.35546875 254.26171875 C28.8346875 254.92816406 28.31390625 255.59460938 27.77734375 256.28125 C15.27138941 271.67085887 -4.5760886 281.11360546 -23.64453125 285.26171875 C-24.91248535 285.5388269 -24.91248535 285.5388269 -26.20605469 285.8215332 C-35.21858028 287.56023693 -44.12769194 287.61838907 -53.26953125 287.57421875 C-54.06889099 287.5720636 -54.86825073 287.56990845 -55.6918335 287.56768799 C-67.21682957 287.51774374 -78.46122297 287.33066539 -89.64453125 284.26171875 C-90.36624512 284.06835938 -91.08795898 283.875 -91.83154297 283.67578125 C-107.52209806 279.31673315 -122.56038507 272.33526908 -134.64453125 261.26171875 C-135.41023437 260.58753906 -136.1759375 259.91335938 -136.96484375 259.21875 C-150.11871291 246.97896327 -156.04442518 231.86288549 -157.64453125 214.26171875 C-142.79453125 214.26171875 -127.94453125 214.26171875 -112.64453125 214.26171875 C-110.66453125 218.22171875 -108.68453125 222.18171875 -106.64453125 226.26171875 C-98.7503353 237.88372946 -83.76319412 244.67173591 -70.390625 247.53125 C-52.19261308 250.75050615 -33.10589057 249.16656806 -17.296875 239.171875 C-5.8466915 230.92571928 1.33281737 218.92110788 3.95947266 205.07861328 C5.42358985 194.78956203 5.59123504 184.70385654 5.48046875 174.32421875 C5.47040419 172.65820859 5.46128457 170.99219245 5.453125 169.32617188 C5.43142052 165.30453546 5.39708901 161.28319631 5.35546875 157.26171875 C4.91614014 157.78628662 4.47681152 158.31085449 4.02416992 158.85131836 C-10.88206432 176.32254081 -32.84750552 187.06788246 -55.64453125 189.26171875 C-81.29853391 190.87444304 -108.64956237 186.78550501 -128.90234375 169.5859375 C-131.91650962 166.90994407 -134.77810681 164.09461776 -137.64453125 161.26171875 C-138.36125 160.6171875 -139.07796875 159.97265625 -139.81640625 159.30859375 C-156.07705101 144.34880057 -163.98577452 122.51634602 -167.64453125 101.26171875 C-167.79535156 100.38902344 -167.94617188 99.51632812 -168.1015625 98.6171875 C-168.42534169 96.15214861 -168.56257105 93.74784474 -168.64453125 91.26171875 C-168.6703125 90.59011719 -168.69609375 89.91851562 -168.72265625 89.2265625 C-169.74699658 58.95730579 -163.12510775 30.06831299 -142.3984375 7.1640625 C-104.79386044 -32.99578179 -41.417523 -35.47625074 0 0 Z M-104.64453125 33.26171875 C-105.29035156 33.89851563 -105.93617188 34.5353125 -106.6015625 35.19140625 C-111.66156529 40.50496038 -114.7180496 46.57899083 -117.64453125 53.26171875 C-117.96421875 53.99003906 -118.28390625 54.71835937 -118.61328125 55.46875 C-125.59509737 73.72619915 -123.45003166 95.69486864 -116.36328125 113.4765625 C-112.88258366 120.98906813 -108.23200995 127.18207872 -102.64453125 133.26171875 C-102.05285156 133.90882813 -101.46117187 134.5559375 -100.8515625 135.22265625 C-89.75629818 146.04849914 -73.46649295 151.17679486 -58.33203125 151.69921875 C-40.16609234 151.25021511 -24.29781951 144.47389784 -11.64453125 131.26171875 C1.91730497 116.37611764 7.11914125 97.1849714 6.29296875 77.38671875 C5.08086017 58.1044872 -2.4942969 41.63369021 -16.64453125 28.26171875 C-29.28584558 17.77517391 -44.78481181 12.4382731 -61.234375 12.91796875 C-78.02846489 14.61084379 -92.80692239 21.06281842 -104.64453125 33.26171875 Z " fill="#fff" transform="translate(900.64453125,307.73828125)"/>
<path d="M0 0 C17.89893743 15.4741161 26.90055632 35.09726979 29.67578125 58.390625 C29.9267114 63.01674724 29.93023115 67.62702838 29.90283203 72.2590332 C29.90312408 73.57766357 29.90341614 74.89629395 29.90371704 76.25488281 C29.90428445 79.82636961 29.89263087 83.39771856 29.87856913 86.96917367 C29.86595822 90.71806379 29.86488319 94.46695803 29.86251831 98.21586609 C29.85633369 105.29511507 29.83996429 112.37430134 29.81981933 119.45352286 C29.79736568 127.5213766 29.78644324 135.58923354 29.77642846 143.65711081 C29.75559492 160.23499124 29.71895703 176.81278542 29.67578125 193.390625 C14.82578125 193.390625 -0.02421875 193.390625 -15.32421875 193.390625 C-15.34609253 187.67649292 -15.34609253 187.67649292 -15.3684082 181.84692383 C-15.41885015 169.23013332 -15.48531431 156.61346928 -15.55993366 143.99680042 C-15.60476669 136.350827 -15.6442096 128.70489886 -15.6706543 121.05883789 C-15.69373616 114.38913652 -15.72724634 107.71957997 -15.77292031 101.04999369 C-15.79671629 97.52337244 -15.81553371 93.99689337 -15.82183266 90.47019386 C-15.82908661 86.51878923 -15.85963878 82.56773856 -15.8918457 78.61645508 C-15.89041061 77.46629913 -15.88897552 76.31614319 -15.88749695 75.13113403 C-16.05855591 60.19356439 -19.57707915 46.15360477 -29.94921875 35.015625 C-41.22779001 24.5282371 -55.8448881 20.6662885 -71.0390625 21.109375 C-84.93788827 22.29928636 -98.83558901 26.64677294 -108.32421875 37.390625 C-118.40821796 51.29716345 -120.61011487 66.32614869 -120.64306641 83.1574707 C-120.65813484 84.95985199 -120.65813484 84.95985199 -120.67350769 86.79864502 C-120.69884114 90.04777995 -120.71585176 93.29682161 -120.72893572 96.54602456 C-120.74472122 99.95864415 -120.77146093 103.37117889 -120.79696655 106.78373718 C-120.84348458 113.22543637 -120.88035788 119.66715202 -120.91363943 126.10893172 C-120.95205323 133.45134709 -121.00141192 140.79367666 -121.05162358 148.13601935 C-121.15454147 163.22082994 -121.24248635 178.30568195 -121.32421875 193.390625 C-136.17421875 193.390625 -151.02421875 193.390625 -166.32421875 193.390625 C-166.32421875 124.750625 -166.32421875 56.110625 -166.32421875 -14.609375 C-151.47421875 -14.609375 -136.62421875 -14.609375 -121.32421875 -14.609375 C-120.99421875 -7.349375 -120.66421875 -0.089375 -120.32421875 7.390625 C-117.06823612 4.14065888 -117.06823612 4.14065888 -113.83203125 0.87109375 C-85.31699501 -25.79127064 -29.61325555 -24.15748408 0 0 Z " fill="#fff" transform="translate(1141.32421875,300.609375)"/>
<path d="M0 0 C18.18726031 16.64912399 24.10228718 39.66959414 25.47802734 63.35302734 C25.59972897 67.70143615 25.60537479 72.04538051 25.59155273 76.39526367 C25.59169876 77.62611191 25.59184479 78.85696014 25.59199524 80.12510681 C25.59142371 83.4548345 25.58645733 86.78449785 25.57942128 90.11421418 C25.57311014 93.61086472 25.57257787 97.1075164 25.57139587 100.60417175 C25.5683052 107.20528319 25.56012277 113.80637778 25.55004638 120.40748185 C25.53881438 127.93121703 25.53335705 135.45495307 25.52835095 142.97869456 C25.51793791 158.43681686 25.49962106 173.894916 25.47802734 189.35302734 C10.62802734 189.35302734 -4.22197266 189.35302734 -19.52197266 189.35302734 C-19.54384644 183.83636353 -19.54384644 183.83636353 -19.56616211 178.20825195 C-19.61665015 166.01455823 -19.68312295 153.82099986 -19.75768757 141.62743282 C-19.8024807 134.23934807 -19.84193237 126.85130975 -19.8684082 119.46313477 C-19.89152286 113.01681441 -19.9250683 106.57064305 -19.97067422 100.12444121 C-19.99442685 96.71736326 -20.01327221 93.31043122 -20.01958656 89.90327263 C-19.88447191 57.62671751 -19.88447191 57.62671751 -35.52197266 30.35302734 C-38.04542825 28.07409264 -40.64252952 26.15694726 -43.52197266 24.35302734 C-44.11236328 23.97533203 -44.70275391 23.59763672 -45.31103516 23.20849609 C-58.72819696 15.58640631 -75.7122641 15.86200418 -90.27197266 19.38818359 C-102.08082692 22.8939372 -111.76204745 30.37400505 -118.27587891 40.89208984 C-122.41040555 49.05745593 -124.61734296 57.79402307 -124.68019104 66.93392944 C-124.69487427 68.561819 -124.69487427 68.561819 -124.70985413 70.22259521 C-124.71560959 71.39791809 -124.72136505 72.57324097 -124.72729492 73.78417969 C-124.73719452 75.03351288 -124.74709412 76.28284607 -124.7572937 77.57003784 C-124.78340691 80.98279165 -124.80529948 84.39552301 -124.82529569 87.8083148 C-124.84722616 91.37977277 -124.87458017 94.95118916 -124.90135193 98.52261353 C-124.95118363 105.27975747 -124.99615762 112.03692462 -125.03937429 118.79411376 C-125.08882826 126.48941807 -125.14371603 134.18468066 -125.19905388 141.87994456 C-125.31272768 157.70426834 -125.41888104 173.52863055 -125.52197266 189.35302734 C-140.37197266 189.35302734 -155.22197266 189.35302734 -170.52197266 189.35302734 C-170.52197266 120.71302734 -170.52197266 52.07302734 -170.52197266 -18.64697266 C-155.67197266 -18.64697266 -140.82197266 -18.64697266 -125.52197266 -18.64697266 C-125.02697266 -8.25197266 -125.02697266 -8.25197266 -124.52197266 2.35302734 C-123.11947266 1.01240234 -121.71697266 -0.32822266 -120.27197266 -1.70947266 C-87.59180304 -30.82951206 -32.41651641 -27.88528417 0 0 Z " fill="#fff" transform="translate(279.52197265625,304.64697265625)"/>
<path d="M0 0 C2.03836425 0.00374088 4.07673033 0.00658275 6.11509705 0.00857544 C11.420066 0.0161274 16.72492139 0.03570097 22.02984619 0.0579834 C27.46714747 0.07862607 32.90446751 0.08761612 38.34179688 0.09765625 C48.9661951 0.1189568 59.5905099 0.15298773 70.21484375 0.1953125 C68.96587688 3.94221312 67.71677188 4.41802481 64.46484375 6.5703125 C59.86810729 9.83923519 55.73620083 13.30327555 51.71484375 17.2578125 C51.23047852 17.7204248 50.74611328 18.18303711 50.24707031 18.65966797 C47.34918674 21.57169216 45.13982131 24.23940112 43.31298828 27.92822266 C40.9171849 32.41200575 38.51599235 36.33600807 34.21484375 39.1953125 C25.54284746 41.78100575 16.01933417 40.79010303 7.08984375 40.4453125 C2.23338062 40.34079659 -2.62331239 40.27417303 -7.48046875 40.2109375 C-8.64588699 40.19061966 -9.81130524 40.17030182 -11.01203918 40.14936829 C-23.19559251 40.01143389 -35.52154849 40.88407321 -46.34765625 47.0078125 C-47.00765625 47.36037109 -47.66765625 47.71292969 -48.34765625 48.07617188 C-53.16791685 50.7058388 -57.67553466 53.53401326 -61.78515625 57.1953125 C-62.43484375 57.741875 -63.08453125 58.2884375 -63.75390625 58.8515625 C-75.15578266 69.20095801 -81.85067732 85.09304434 -83.0234375 100.28125 C-83.40648165 117.25615372 -78.65780796 132.62213881 -67.34765625 145.5703125 C-65.84562722 147.13030574 -64.32583992 148.67348335 -62.78515625 150.1953125 C-62.1715625 150.83082031 -61.55796875 151.46632813 -60.92578125 152.12109375 C-49.14465001 163.47427792 -31.95531752 168.42365113 -15.91088867 168.1784668 C-13.65412295 168.12596585 -11.39736893 168.0729607 -9.140625 168.01953125 C-5.38047761 167.98078627 -1.62036615 167.95445078 2.13989258 167.92895508 C4.72653784 167.89825258 7.31301399 167.84429996 9.89868164 167.7668457 C32.66835403 167.12158657 32.66835403 167.12158657 38.29760742 172.24487305 C41.21438469 175.60444256 43.18530967 179.25178712 45.21484375 183.1953125 C46.39651196 184.71269345 47.61437548 186.20455396 48.90234375 187.6328125 C49.44761719 188.23996094 49.99289062 188.84710938 50.5546875 189.47265625 C56.14905857 195.27763894 62.47317794 199.9201659 69.08984375 204.49609375 C69.79109375 205.05683594 70.49234375 205.61757813 71.21484375 206.1953125 C71.21484375 206.8553125 71.21484375 207.5153125 71.21484375 208.1953125 C59.10473011 208.24189311 46.9946382 208.27731136 34.88445282 208.29893684 C29.25968739 208.30932208 23.63498377 208.32338387 18.01025391 208.34619141 C12.57021995 208.36810904 7.13024503 208.37992055 1.69017029 208.38506699 C-0.37318347 208.38872909 -2.43653442 208.39587894 -4.49986267 208.40677261 C-29.34879268 208.53260901 -50.85542172 205.39819796 -72.78515625 193.1953125 C-73.74808594 192.67453125 -74.71101563 192.15375 -75.703125 191.6171875 C-98.38179253 178.35167444 -114.07518286 155.28121258 -121.04296875 130.27734375 C-127.81603376 102.15130011 -123.16210079 73.37698946 -108.1171875 48.68359375 C-92.84123635 25.00352755 -68.19485365 8.5918709 -40.80796623 2.60261154 C-27.30929107 -0.11538842 -13.70150878 -0.07500598 0 0 Z " fill="#fff" transform="translate(445.78515625,285.8046875)"/>
<path d="M0 0 C15.18 0 30.36 0 46 0 C46 68.64 46 137.28 46 208 C30.82 208 15.64 208 0 208 C0 139.36 0 70.72 0 0 Z " fill="#fff" transform="translate(40,286)"/>
<path d="M0 0 C14.85 0 29.7 0 45 0 C45 68.64 45 137.28 45 208 C30.15 208 15.3 208 0 208 C0 139.36 0 70.72 0 0 Z " fill="#fff" transform="translate(1194,286)"/>
<path d="M0 0 C6.98712699 4.20422 12.4051279 10.0999214 14.4375 18.0625 C15.41509986 27.32397235 15.15371216 35.43627021 9.4375 43.0625 C3.95903335 49.21847425 -1.62830022 52.59032777 -9.828125 53.375 C-19.79942893 53.72032654 -27.39575474 52.25152563 -34.9375 45.5 C-40.10182737 39.87569206 -42.66781262 33.05123469 -43 25.4375 C-42.54091589 17.12955854 -39.37330619 10.01598223 -33.5625 4.0625 C-24.34902952 -2.96975114 -10.7834983 -4.90312188 0 0 Z " fill="#fff" transform="translate(1230.5625,206.9375)"/>
<path d="M0 0 C1.75 1.125 1.75 1.125 3.3125 2.3125 C4.364375 3.034375 5.41625 3.75625 6.5 4.5 C12.39440361 10.39440361 15.32454219 17.11956284 15.625 25.4375 C15.48329079 33.17997582 12.93619003 40.03381531 7.6875 45.75 C0.20224743 52.45095221 -7.44514868 54.02425557 -17.35546875 53.69140625 C-25.67531434 52.74530423 -32.18122709 48.53968449 -37.6875 42.3125 C-42.81444431 35.19254636 -42.57672834 26.74641826 -41.6875 18.3125 C-39.83117667 10.66752345 -35.12660231 5.47127175 -28.83203125 0.9921875 C-21.04010265 -3.31824109 -8.03621469 -3.80091235 0 0 Z " fill="#fff" transform="translate(76.6875,206.6875)"/>
</svg>

