<?xml version="1.0" encoding="UTF-8"?>
<svg version="1.1" xmlns="http://www.w3.org/2000/svg" width="1540" height="1226">
<path d="M0 0 C1.61694875 -0.00706258 3.23389719 -0.01419528 4.85084534 -0.02139282 C9.99431817 -0.04093492 15.13774353 -0.04608513 20.28125 -0.046875 C21.59611452 -0.04731686 21.59611452 -0.04731686 22.93754196 -0.04776764 C48.99256751 -0.0491828 74.87749346 0.10477468 100.78125 3.203125 C102.10984039 3.35938354 102.10984039 3.35938354 103.465271 3.51879883 C175.50779137 12.03036101 245.61904607 28.52260387 312.78125 56.203125 C313.92368164 56.67137695 315.06611328 57.13962891 316.24316406 57.62207031 C328.05571263 62.48021687 339.74147667 67.45586731 351.08984375 73.32421875 C354.28960207 74.97485387 357.53738306 76.49399627 360.81079102 77.9921875 C372.10678775 83.17231603 382.93186481 89.15451488 393.78125 95.203125 C394.74434082 95.73631348 395.70743164 96.26950195 396.69970703 96.81884766 C410.01098332 104.19230509 423.04562749 111.87355023 435.78125 120.203125 C436.72645508 120.8209082 437.67166016 121.43869141 438.64550781 122.07519531 C457.93225827 134.72296082 476.55567131 148.07661604 494.78125 162.203125 C495.39983887 162.67991699 496.01842773 163.15670898 496.65576172 163.64794922 C505.00709862 170.08783303 513.08249577 176.79033383 521.04443359 183.70458984 C522.74444681 185.17137099 524.45719935 186.62144916 526.17578125 188.06640625 C541.33279871 200.83445128 555.38500541 214.7143331 569.40625 228.703125 C570.0650415 229.35923767 570.72383301 230.01535034 571.40258789 230.69134521 C584.09591867 243.34551858 584.09591867 243.34551858 589.33056641 249.50732422 C591.8371221 252.4374043 594.51119442 255.21112146 597.15625 258.015625 C602.63584791 263.87792002 607.76959157 269.93438946 612.78125 276.203125 C613.75087354 277.38293486 614.72234711 278.56122583 615.6953125 279.73828125 C624.40657069 290.30391618 632.65270765 301.18492444 640.78125 312.203125 C641.32217285 312.93192871 641.8630957 313.66073242 642.42041016 314.41162109 C689.69728044 378.20815767 726.81405146 449.76325135 789.46875 711.203125 C789.56015762 712.36829651 789.56015762 712.36829651 789.65341187 713.55700684 C791.35597733 735.60688446 791.99081915 757.65356729 791.96875 779.765625 C791.96814575 780.89953674 791.9675415 782.03344849 791.96691895 783.20172119 C791.94089157 801.29106097 791.46880903 819.183388 789.78125 837.203125 C789.65070415 838.6554059 789.52051069 840.10771851 789.390625 841.56005859 C782.09884036 922.12439023 762.75214538 1001.49707501 676.78125 1180.203125 C676.2877002 1181.00733887 675.79415039 1181.81155273 675.28564453 1182.64013672 C668.59360943 1193.4959112 661.5365991 1204.01709708 654.08837891 1214.3671875 C651.68896774 1217.73729807 649.38591074 1221.17476404 647.0859375 1224.61328125 C646.65539063 1225.13792969 646.22484375 1225.66257812 645.78125 1226.203125 C645.12125 1226.203125 644.46125 1226.203125 643.78125 1226.203125 C642.33935547 1224.22900391 642.33935547 1224.22900391 640.6484375 1221.4296875 C640.01558838 1220.39086426 639.38273926 1219.35204102 638.73071289 1218.28173828 C638.03915303 1217.13057724 637.34766751 1215.97937154 636.65625 1214.828125 C635.93622347 1213.64130414 635.21542721 1212.45494995 634.49389648 1211.26904297 C632.99379678 1208.8022289 631.49705478 1206.33342288 630.00244141 1203.86328125 C626.65037892 1198.33054955 623.24302631 1192.83191709 619.84375 1187.328125 C613.92683885 1177.72422133 608.06070796 1168.09042738 602.21481323 1158.4432373 C595.66295834 1147.63259222 589.04732452 1136.86248061 582.4140625 1126.1015625 C579.35772403 1121.14272851 576.31463758 1116.1760231 573.28125 1111.203125 C568.90200089 1104.02622953 564.50093908 1096.86289465 560.09375 1089.703125 C559.41368896 1088.5982373 558.73362793 1087.49334961 558.03295898 1086.35498047 C554.62306976 1080.81606193 551.21125597 1075.27833828 547.796875 1069.7421875 C540.48963391 1057.88867994 533.22521437 1046.01071706 526.00964355 1034.10128784 C520.89513215 1025.66130061 515.73458406 1017.25159054 510.52709961 1008.86865234 C504.76018928 999.57706842 499.08787202 990.22827548 493.40966797 980.88232422 C486.48435558 969.48826453 479.50266986 958.1308083 472.47192383 946.80151367 C469.40754164 941.85562904 466.37912466 936.89196646 463.40625 931.890625 C459.56505269 925.43406787 455.58576742 919.06731326 451.59375 912.703125 C444.80349063 901.87474794 438.13128709 890.97895092 431.50634766 880.04882812 C421.00299949 862.72261439 410.41200796 845.45140263 399.78125 828.203125 C391.51291304 814.78784719 383.25867857 801.36495573 375.07641602 787.89697266 C369.92763553 779.42840109 364.73371189 770.98794154 359.53564453 762.54956055 C352.84460744 751.68658943 346.18522327 740.80472243 339.55859375 729.90234375 C329.08116296 712.66624488 318.5375352 695.471286 307.89916992 678.33398438 C301.45447268 667.95125443 295.09693832 657.51767447 288.77954102 647.05712891 C284.53740699 640.04592916 280.21516593 633.09472699 275.78125 626.203125 C273.52606189 628.95174591 271.40277918 631.6078728 269.703125 634.734375 C269.3515332 635.37262207 268.99994141 636.01086914 268.63769531 636.66845703 C268.27256836 637.33989746 267.90744141 638.01133789 267.53125 638.703125 C264.20776922 644.71179315 260.73816207 650.58944863 257.10546875 656.41796875 C253.94262693 661.530054 250.90053625 666.7147221 247.84375 671.890625 C247.26334961 672.87240723 246.68294922 673.85418945 246.08496094 674.86572266 C241.43755893 682.24316848 241.43755893 682.24316848 241.99645996 690.64279175 C242.13923543 691.31138092 242.28201091 691.9799701 242.42911291 692.66881955 C242.91178503 694.92111619 243.40418669 697.17117596 243.89648438 699.42138672 C244.24339256 701.0308033 244.58967609 702.64035462 244.93537903 704.25003052 C245.68239099 707.72234841 246.43359489 711.19372386 247.1879425 714.66445541 C248.37992636 720.15005806 249.56115416 725.6379413 250.74060059 731.12625122 C253.67227702 744.76004797 256.6178799 758.39083125 259.56695557 772.02087402 C261.85752082 782.60804859 264.14412579 793.19604396 266.41851473 803.78670704 C267.59115936 809.24489845 268.7721348 814.70120037 269.95935822 820.15623832 C270.6958268 823.54878234 271.42494277 826.94287513 272.15201378 830.33744431 C272.49116539 831.91352361 272.83338256 833.48894678 273.1788578 835.06365204 C273.64943587 837.2106006 274.10907128 839.35961124 274.56604004 841.50949097 C274.82636269 842.71259855 275.08668533 843.91570614 275.35489655 845.15527153 C275.74769293 847.96323713 275.73820132 849.57519136 274.78125 852.203125 C262.52312217 831.52023058 250.39699732 810.76354883 238.39599609 789.93041992 C233.54871758 781.52037282 228.66597551 773.1314966 223.76953125 764.75 C220.26020026 758.74196169 216.7631938 752.72707384 213.28125 746.703125 C205.19175507 732.71206796 197.05860768 718.74597306 188.84375 704.828125 C184.03433896 696.67564781 179.31386705 688.47232051 174.59008789 680.27001953 C169.7742135 671.91204992 164.92201665 663.57594461 160.05395508 655.24829102 C155.7470827 647.87450433 151.4780864 640.47945171 147.21875 633.078125 C142.08068096 624.15400611 136.88676617 615.26578091 131.63574219 606.40771484 C123.90062912 593.35500868 116.21261369 580.27110351 108.71875 567.078125 C105.45031029 561.33065686 102.09131518 555.6400385 98.71875 549.953125 C91.95476792 538.54192883 85.32433805 527.05579635 78.71044922 515.55712891 C67.20235096 495.53123789 67.20235096 495.53123789 55.54638672 475.59130859 C52.04588087 469.65890248 48.56602241 463.71459972 45.09375 457.765625 C44.51270508 456.77022705 43.93166016 455.7748291 43.33300781 454.74926758 C40.06839577 449.1490451 36.81888025 443.54041832 33.5859375 437.921875 C33.24042343 437.32165024 32.89490936 436.72142548 32.53892517 436.10301208 C30.85410626 433.17554898 29.17138083 430.2469271 27.49145508 427.31665039 C26.88970459 426.26985107 26.2879541 425.22305176 25.66796875 424.14453125 C25.13389404 423.21326416 24.59981934 422.28199707 24.04956055 421.32250977 C22.9512957 419.29195277 22.9512957 419.29195277 21.78125 418.203125 C21.47123047 418.72817627 21.16121094 419.25322754 20.84179688 419.79418945 C19.32182699 422.36812681 17.80157917 424.94189984 16.28125 427.515625 C15.40871582 428.99276978 15.40871582 428.99276978 14.51855469 430.49975586 C11.33468891 435.88799831 8.1472581 441.27408689 4.953125 446.65625 C-2.48890728 459.19712421 -9.89675638 471.75674282 -17.26208496 484.34280396 C-21.70060851 491.92621165 -26.17181129 499.48647109 -30.71484375 507.0078125 C-32.92126043 510.68485428 -35.08845161 514.38468444 -37.25390625 518.0859375 C-37.62240692 518.71566467 -37.99090759 519.34539185 -38.37057495 519.99420166 C-40.22595883 523.16599531 -42.07919064 526.33902471 -43.9296875 529.51367188 C-47.97021232 536.43460436 -52.10135648 543.28805543 -56.31860352 550.10351562 C-59.26093229 554.90318235 -62.08550362 559.76883964 -64.90625 564.640625 C-71.09085056 575.28164104 -77.33390634 585.886625 -83.60546875 596.4765625 C-85.23946002 599.23812644 -86.87021729 602.00157547 -88.5 604.765625 C-94.19419562 614.42044814 -99.91798221 624.05601023 -105.69726562 633.66015625 C-109.92115652 640.68702337 -114.09330035 647.74385747 -118.24023438 654.81640625 C-118.72943359 655.64785156 -119.21863281 656.47929688 -119.72265625 657.3359375 C-120.23328613 658.23795898 -120.74391602 659.13998047 -121.27001953 660.06933594 C-122.82046109 662.56262934 -124.40771491 664.7621881 -126.21044922 667.06347656 C-131.52619609 674.15968284 -135.14970454 680.06384468 -133.95535278 689.14198303 C-132.94066416 694.39444738 -131.59620303 699.53614667 -130.21875 704.703125 C-129.64362334 707.07999243 -129.07697433 709.45892357 -128.51782227 711.83959961 C-127.57116924 715.85905026 -126.61998447 719.87657656 -125.6375885 723.88743591 C-122.45070203 736.93175933 -119.60625663 750.04309717 -116.80859375 763.17578125 C-116.57650837 764.26516872 -116.34442299 765.3545562 -116.10530472 766.47695541 C-115.16154429 770.91058965 -114.21899317 775.34447774 -113.2784481 779.77879524 C-111.6474019 787.46737896 -110.00110218 795.15256265 -108.34570312 802.8359375 C-107.67301755 805.9620774 -107.00046403 809.08824569 -106.32791328 812.2144146 C-105.9056349 814.17573544 -105.48280705 816.13693808 -105.05937004 818.09800911 C-102.61192783 829.43900346 -100.2828138 840.78545401 -98.21875 852.203125 C-98.87875 852.203125 -99.53875 852.203125 -100.21875 852.203125 C-101.74251537 849.56193169 -103.2662796 846.92073773 -104.79003906 844.27954102 C-106.13442138 841.94928932 -107.47881971 839.61904688 -108.82324219 837.28881836 C-112.2719354 831.31129517 -115.72034185 825.33360703 -119.16796875 819.35546875 C-122.2916475 813.93920371 -125.4163704 808.52354242 -128.54199219 803.10839844 C-129.58458898 801.30191885 -130.62695013 799.49530323 -131.66894531 797.68847656 C-137.91945655 786.85152164 -144.23535256 776.05372102 -150.56967163 765.265625 C-156.3439485 755.42885573 -162.06567658 745.5629623 -167.75585938 735.67724609 C-172.55076563 727.3499901 -177.38409219 719.04573535 -182.23120117 710.7487793 C-186.18581761 703.97832793 -190.12124772 697.19710998 -194.04492188 690.40869141 C-197.66910094 684.14264887 -201.31741051 677.89087099 -204.96875 671.640625 C-213.79006458 656.5364242 -222.55444037 641.39799636 -231.21875 626.203125 C-234.01151002 629.58008677 -236.43917128 633.00760556 -238.72265625 636.74609375 C-239.37492187 637.81021484 -240.0271875 638.87433594 -240.69921875 639.97070312 C-241.39329285 641.11063831 -242.08730178 642.25061318 -242.78125 643.390625 C-243.50490127 644.57375557 -244.22886269 645.7566965 -244.953125 646.93945312 C-247.04550274 650.3583446 -249.13232552 653.78059739 -251.21875 657.203125 C-252.1963582 658.80354205 -253.17418706 660.40382437 -254.15234375 662.00390625 C-255.43590341 664.10375217 -256.71915112 666.20378243 -258.00097656 668.3046875 C-262.67504767 675.96257522 -267.3862411 683.59757691 -272.09228516 691.23583984 C-276.61696785 698.58536592 -281.11415073 705.95104871 -285.59375 713.328125 C-289.77117415 720.20538683 -293.98119876 727.05886436 -298.26025391 733.87329102 C-308.02996161 749.44952312 -317.59452214 765.15488036 -327.13964844 780.86938477 C-331.49585415 788.0340663 -335.90225508 795.16650899 -340.32495117 802.2902832 C-344.32466778 808.74009117 -348.27960323 815.21617398 -352.21875 821.703125 C-357.2847828 830.04548701 -362.39607871 838.35816577 -367.54174805 846.65161133 C-370.89148654 852.05262564 -374.22220794 857.46458743 -377.53125 862.890625 C-383.43446369 872.57048363 -389.37944391 882.22454399 -395.32421875 891.87890625 C-395.96391602 892.91781006 -396.60361328 893.95671387 -397.26269531 895.02709961 C-398.58974696 897.18181939 -399.91723537 899.33627024 -401.24511719 901.49047852 C-405.55349346 908.48356739 -409.83268699 915.4936325 -414.09375 922.515625 C-418.03329616 928.99940702 -421.98850031 935.47065835 -426.03125 941.890625 C-430.61464289 949.17326704 -435.07318384 956.53090375 -439.53125 963.890625 C-447.86261529 977.64130494 -456.27582057 991.33851071 -464.828125 1004.953125 C-471.92127913 1016.25089803 -478.89711518 1027.60624019 -485.73608398 1039.05981445 C-491.22110699 1048.23685895 -496.83863929 1057.32675524 -502.48388672 1066.40576172 C-505.74386806 1071.66228665 -508.97975533 1076.93365261 -512.21875 1082.203125 C-517.07887367 1090.10826376 -521.95150198 1098.0053309 -526.84375 1105.890625 C-531.94073801 1114.1087316 -536.97615396 1122.3631125 -541.99536133 1130.62890625 C-546.32689388 1137.75572912 -550.70946184 1144.84942551 -555.11108398 1151.93310547 C-559.72060641 1159.36629834 -564.25309014 1166.84526668 -568.78125 1174.328125 C-574.10747995 1183.12883647 -579.493429 1191.88536638 -585.0168457 1200.56420898 C-590.19551276 1208.70909492 -595.21110509 1216.95233997 -600.21875 1225.203125 C-604.597152 1223.28001473 -606.53199498 1220.29173648 -609.09375 1216.390625 C-609.57005859 1215.6790625 -610.04636719 1214.9675 -610.53710938 1214.234375 C-611.5695788 1212.69032163 -612.59841726 1211.14383549 -613.62402344 1209.59521484 C-615.18916993 1207.2474951 -616.78162127 1204.92090521 -618.3828125 1202.59765625 C-633.67014838 1180.26738045 -647.21872888 1156.72100868 -659.84130859 1132.79785156 C-661.10985038 1130.40826239 -662.4025755 1128.03418161 -663.70703125 1125.6640625 C-704.06397487 1051.74073046 -727.92655531 967.74312628 -746.21875 835.203125 C-746.26988953 834.54656921 -746.32102905 833.89001343 -746.37371826 833.21356201 C-749.61371848 791.24214844 -750.34760859 748.11875721 -746.21875 706.203125 C-746.14333984 705.4179248 -746.06792969 704.63272461 -745.99023438 703.82373047 C-737.72517912 618.01592678 -717.08151212 533.76069104 -614.53857422 336.06738281 C-613.15930909 334.11916444 -611.79912025 332.15860181 -610.44140625 330.1953125 C-602.38630679 318.59520485 -593.85100518 307.37777235 -585.21875 296.203125 C-584.69361816 295.52056641 -584.16848633 294.83800781 -583.62744141 294.13476562 C-577.24203208 285.84425772 -570.57809238 277.84033162 -563.71728516 269.93994141 C-562.25050401 268.23992819 -560.80042584 266.52717565 -559.35546875 264.80859375 C-554.05046396 258.51142998 -548.60019877 252.37959508 -542.953125 246.38671875 C-542.26387939 245.65514557 -541.57463379 244.92357239 -540.86450195 244.16983032 C-533.54012816 236.43286933 -526.04122793 228.87408288 -518.49755859 221.3515625 C-516.18858764 219.04803373 -513.88512223 216.73909364 -511.58203125 214.4296875 C-510.08625859 212.93457453 -508.59017636 211.43977119 -507.09375 209.9453125 C-506.41965088 209.26918915 -505.74555176 208.5930658 -505.05102539 207.89645386 C-501.14045979 204.00489694 -497.12376736 200.29170211 -492.94404602 196.69030762 C-490.72589828 194.77829326 -488.56755749 192.80396127 -486.40625 190.828125 C-482.1643415 187.00398022 -477.81323903 183.35423045 -473.37109375 179.765625 C-471.03015119 177.87291587 -468.71625788 175.95062325 -466.41015625 174.015625 C-456.73412759 165.91898133 -446.79459586 158.29553042 -436.56982422 150.90576172 C-434.29073661 149.25525736 -432.02124861 147.5923705 -429.75390625 145.92578125 C-397.96912218 122.64321577 -364.34461158 102.0316449 -329.21875 84.203125 C-328.50879883 83.84057617 -327.79884766 83.47802734 -327.06738281 83.10449219 C-323.21174669 81.13740908 -319.34003562 79.20626984 -315.453125 77.30175781 C-313.85173713 76.51436211 -312.25308362 75.72139585 -310.65625 74.92480469 C-283.35267615 61.32095241 -255.10379281 49.98319527 -226.21875 40.203125 C-225.02846191 39.79642578 -223.83817383 39.38972656 -222.61181641 38.97070312 C-161.47384696 18.20533637 -97.58561178 5.91591614 -33.21875 1.203125 C-31.45525963 1.07383102 -31.45525963 1.07383102 -29.65614319 0.94192505 C-19.76181267 0.2685605 -9.91540657 0.02679562 0 0 Z " fill="#fff" transform="translate(748.21875,-0.203125)"/>
</svg>

