<svg width="246" height="823" viewBox="0 0 246 823" fill="none" xmlns="http://www.w3.org/2000/svg">
<path d="M302.857 64.9847C302.857 64.9847 186.468 205.509 189.054 397.98C191.641 590.45 56.3045 726.37 56.3045 726.37" stroke="#A6B57F" stroke-width="20"/>
<path d="M292.865 62.1123C259.589 97.2699 251.759 105.542 193.957 71.9022C225.224 43.2159 247.126 41.8705 292.865 62.1123Z" fill="#BFD389"/>
<path d="M292.865 62.1123C259.589 97.2699 251.759 105.542 193.957 71.9022M292.865 62.1123C247.126 41.8705 225.224 43.2159 193.957 71.9022M292.865 62.1123C251.574 61.8703 229.905 63.9421 193.957 71.9022" stroke="#205552" stroke-width="4"/>
<path d="M215.292 207.723C205.202 254.812 202.828 265.891 135.859 266.08C147.61 225.582 165.629 213.368 215.292 207.723Z" fill="#BFD389"/>
<path d="M215.292 207.723C205.202 254.812 202.828 265.891 135.859 266.08M215.292 207.723C165.629 213.368 147.61 225.582 135.859 266.08M215.292 207.723C179.871 228.355 162.431 241.077 135.859 266.08" stroke="#205552" stroke-width="4"/>
<path d="M175.705 376.442C165.615 423.53 163.241 434.61 96.2718 434.799C108.023 394.3 126.042 382.086 175.705 376.442Z" fill="#BFD389"/>
<path d="M175.705 376.442C165.615 423.53 163.241 434.61 96.2718 434.799M175.705 376.442C126.042 382.086 108.023 394.3 96.2718 434.799M175.705 376.442C140.284 397.074 122.843 409.796 96.2718 434.799" stroke="#205552" stroke-width="4"/>
<path d="M161.25 534.499C151.16 581.588 148.786 592.667 81.8167 592.856C93.5674 552.357 111.587 540.143 161.25 534.499Z" fill="#BFD389"/>
<path d="M161.25 534.499C151.16 581.588 148.786 592.667 81.8167 592.856M161.25 534.499C111.587 540.143 93.5674 552.357 81.8167 592.856M161.25 534.499C125.829 555.131 108.388 567.853 81.8167 592.856" stroke="#205552" stroke-width="4"/>
<path d="M257.82 134.008C297.497 162.555 306.832 169.272 280.111 229.478C247.221 202.168 243.116 180.935 257.82 134.008Z" fill="#BFD389"/>
<path d="M257.82 134.008C297.497 162.555 306.832 169.272 280.111 229.478M257.82 134.008C243.116 180.935 247.221 202.168 280.111 229.478M257.82 134.008C262.754 174.35 267.564 195.274 280.111 229.478" stroke="#205552" stroke-width="4"/>
<path d="M198.449 294.822C245.127 309.81 256.11 313.336 249.914 378.864C210.062 362.969 199.423 344.016 198.449 294.822Z" fill="#BFD389"/>
<path d="M198.449 294.822C245.127 309.81 256.11 313.336 249.914 378.864M198.449 294.822C199.423 344.016 210.062 362.969 249.914 378.864M198.449 294.822C215.945 331.713 227.153 350.155 249.914 378.864" stroke="#205552" stroke-width="4"/>
<path d="M184.944 447.907C231.622 462.894 242.605 466.421 236.409 531.948C196.557 516.053 185.918 497.1 184.944 447.907Z" fill="#BFD389"/>
<path d="M184.944 447.907C231.622 462.894 242.605 466.421 236.409 531.948M184.944 447.907C185.918 497.1 196.557 516.053 236.409 531.948M184.944 447.907C202.44 484.797 213.648 503.24 236.409 531.948" stroke="#205552" stroke-width="4"/>
<path d="M123.324 649.527C170.002 664.514 180.985 668.041 174.789 733.569C134.937 717.673 124.298 698.72 123.324 649.527Z" fill="#BFD389"/>
<path d="M123.324 649.527C170.002 664.514 180.985 668.041 174.789 733.569M123.324 649.527C124.298 698.72 134.937 717.673 174.789 733.569M123.324 649.527C140.82 686.417 152.028 704.86 174.789 733.569" stroke="#205552" stroke-width="4"/>
<path d="M73.0869 700.751C90.2602 745.996 94.3009 756.642 38.0962 792.081C25.91 751.549 34.4054 731.7 73.0869 700.751Z" fill="#BFD389"/>
<path d="M73.0869 700.751C90.2602 745.996 94.3009 756.642 38.0962 792.081M73.0869 700.751C34.4054 731.7 25.91 751.549 38.0962 792.081M73.0869 700.751C54.5467 736.906 46.8146 756.882 38.0962 792.081" stroke="#205552" stroke-width="4"/>
</svg>
