<svg width="172" height="803" viewBox="0 0 172 803" fill="none" xmlns="http://www.w3.org/2000/svg">
<path d="M162.377 35.133C162.377 35.133 74.4305 195.005 113.095 383.569C151.759 572.134 44.3377 731.039 44.3377 731.039" stroke="#53A7A2" stroke-width="20"/>
<path d="M152.023 34.1873C125.937 74.9655 119.799 84.5603 56.7109 62.3666C82.0378 28.3219 103.298 22.8896 152.023 34.1873Z" fill="#65C4BE"/>
<path d="M152.023 34.1873C125.937 74.9655 119.799 84.5603 56.7109 62.3666M152.023 34.1873C103.298 22.8896 82.0378 28.3219 56.7109 62.3666M152.023 34.1873C111.421 41.6993 90.5254 47.8012 56.7109 62.3666" stroke="#205552" stroke-width="4"/>
<path d="M103.158 191.77C102.085 239.916 101.833 251.244 36.089 263.998C40.03 222.014 55.4366 206.635 103.158 191.77Z" fill="#65C4BE"/>
<path d="M103.158 191.77C102.085 239.916 101.833 251.244 36.089 263.998M103.158 191.77C55.4366 206.635 40.03 222.014 36.089 263.998M103.158 191.77C72.2388 218.684 57.4959 234.453 36.089 263.998" stroke="#205552" stroke-width="4"/>
<path d="M95.9405 364.92C94.8674 413.066 94.6149 424.394 28.8713 437.148C32.8122 395.164 48.2188 379.785 95.9405 364.92Z" fill="#65C4BE"/>
<path d="M95.9405 364.92C94.8674 413.066 94.6149 424.394 28.8713 437.148M95.9405 364.92C48.2188 379.785 32.8122 395.164 28.8713 437.148M95.9405 364.92C65.0211 391.834 50.2781 407.603 28.8713 437.148" stroke="#205552" stroke-width="4"/>
<path d="M111.407 522.881C110.334 571.027 110.081 582.355 44.3378 595.109C48.2788 553.125 63.6854 537.747 111.407 522.881Z" fill="#65C4BE"/>
<path d="M111.407 522.881C110.334 571.027 110.081 582.355 44.3378 595.109M111.407 522.881C63.6854 537.747 48.2788 553.125 44.3378 595.109M111.407 522.881C80.4876 549.795 65.7447 565.564 44.3378 595.109" stroke="#205552" stroke-width="4"/>
<path d="M131.095 111.383C175.424 131.976 185.855 136.821 170.908 200.973C133.477 180.321 125.46 160.236 131.095 111.383Z" fill="#65C4BE"/>
<path d="M131.095 111.383C175.424 131.976 185.855 136.821 170.908 200.973M131.095 111.383C125.46 160.236 133.477 180.321 170.908 200.973M131.095 111.383C143.513 150.082 152.165 169.731 170.908 200.973" stroke="#205552" stroke-width="4"/>
<path d="M102.962 280.483C151.623 286.443 163.073 287.845 169.285 353.371C127.158 345.238 113.151 328.618 102.962 280.483Z" fill="#65C4BE"/>
<path d="M102.962 280.483C151.623 286.443 163.073 287.845 169.285 353.371M102.962 280.483C113.151 328.618 127.158 345.238 169.285 353.371M102.962 280.483C127.07 313.434 141.541 329.445 169.285 353.371" stroke="#205552" stroke-width="4"/>
<path d="M118.428 433.381C167.09 439.342 178.539 440.744 184.752 506.27C142.625 498.137 128.618 481.517 118.428 433.381Z" fill="#65C4BE"/>
<path d="M118.428 433.381C167.09 439.342 178.539 440.744 184.752 506.27M118.428 433.381C128.618 481.517 142.625 498.137 184.752 506.27M118.428 433.381C142.537 466.332 157.007 482.344 184.752 506.27" stroke="#205552" stroke-width="4"/>
<path d="M56.0135 702.726C81.3733 743.943 87.3403 753.642 38.7858 799C19.209 761.476 23.8281 740.385 56.0135 702.726Z" fill="#65C4BE"/>
<path d="M56.0135 702.726C81.3733 743.943 87.3403 753.642 38.7858 799M56.0135 702.726C23.8281 740.385 19.209 761.476 38.7858 799M56.0135 702.726C44.5886 741.718 40.7429 762.79 38.7858 799" stroke="#205552" stroke-width="4"/>
</svg>
